<?xml version="1.0" encoding="utf-8" standalone="no"?>
<!DOCTYPE svg PUBLIC "-//W3C//DTD SVG 1.1//EN"
  "http://www.w3.org/Graphics/SVG/1.1/DTD/svg11.dtd">
<!-- Created with matplotlib (https://matplotlib.org/) -->
<svg height="345.6pt" version="1.1" viewBox="0 0 460.8 345.6" width="460.8pt" xmlns="http://www.w3.org/2000/svg" xmlns:xlink="http://www.w3.org/1999/xlink">
 <defs>
  <style type="text/css">
*{stroke-linecap:butt;stroke-linejoin:round;}
  </style>
 </defs>
 <g id="figure_1">
  <g id="patch_1">
   <path d="M 0 345.6 
L 460.8 345.6 
L 460.8 0 
L 0 0 
z
" style="fill:#ffffff;"/>
  </g>
  <g id="axes_1">
   <g id="patch_2">
    <path d="M 57.6 87.353379 
L 219.927273 87.353379 
L 219.927273 41.472 
L 57.6 41.472 
z
" style="fill:#ffffff;"/>
   </g>
   <g id="matplotlib.axis_1">
    <g id="xtick_1">
     <g id="line2d_1">
      <defs>
       <path d="M 0 0 
L 0 3.5 
" id="mb6a6422b27" style="stroke:#000000;stroke-width:0.8;"/>
      </defs>
      <g>
       <use style="stroke:#000000;stroke-width:0.8;" x="91.794211" xlink:href="#mb6a6422b27" y="87.353379"/>
      </g>
     </g>
     <g id="text_1">
      <!-- 0.2 -->
      <defs>
       <path d="M 31.78125 66.40625 
Q 24.171875 66.40625 20.328125 58.90625 
Q 16.5 51.421875 16.5 36.375 
Q 16.5 21.390625 20.328125 13.890625 
Q 24.171875 6.390625 31.78125 6.390625 
Q 39.453125 6.390625 43.28125 13.890625 
Q 47.125 21.390625 47.125 36.375 
Q 47.125 51.421875 43.28125 58.90625 
Q 39.453125 66.40625 31.78125 66.40625 
z
M 31.78125 74.21875 
Q 44.046875 74.21875 50.515625 64.515625 
Q 56.984375 54.828125 56.984375 36.375 
Q 56.984375 17.96875 50.515625 8.265625 
Q 44.046875 -1.421875 31.78125 -1.421875 
Q 19.53125 -1.421875 13.0625 8.265625 
Q 6.59375 17.96875 6.59375 36.375 
Q 6.59375 54.828125 13.0625 64.515625 
Q 19.53125 74.21875 31.78125 74.21875 
z
" id="DejaVuSans-48"/>
       <path d="M 10.6875 12.40625 
L 21 12.40625 
L 21 0 
L 10.6875 0 
z
" id="DejaVuSans-46"/>
       <path d="M 19.1875 8.296875 
L 53.609375 8.296875 
L 53.609375 0 
L 7.328125 0 
L 7.328125 8.296875 
Q 12.9375 14.109375 22.625 23.890625 
Q 32.328125 33.6875 34.8125 36.53125 
Q 39.546875 41.84375 41.421875 45.53125 
Q 43.3125 49.21875 43.3125 52.78125 
Q 43.3125 58.59375 39.234375 62.25 
Q 35.15625 65.921875 28.609375 65.921875 
Q 23.96875 65.921875 18.8125 64.3125 
Q 13.671875 62.703125 7.8125 59.421875 
L 7.8125 69.390625 
Q 13.765625 71.78125 18.9375 73 
Q 24.125 74.21875 28.421875 74.21875 
Q 39.75 74.21875 46.484375 68.546875 
Q 53.21875 62.890625 53.21875 53.421875 
Q 53.21875 48.921875 51.53125 44.890625 
Q 49.859375 40.875 45.40625 35.40625 
Q 44.1875 33.984375 37.640625 27.21875 
Q 31.109375 20.453125 19.1875 8.296875 
z
" id="DejaVuSans-50"/>
      </defs>
      <g transform="translate(83.842648 101.951817)scale(0.1 -0.1)">
       <use xlink:href="#DejaVuSans-48"/>
       <use x="63.623047" xlink:href="#DejaVuSans-46"/>
       <use x="95.410156" xlink:href="#DejaVuSans-50"/>
      </g>
     </g>
    </g>
    <g id="xtick_2">
     <g id="line2d_2">
      <g>
       <use style="stroke:#000000;stroke-width:0.8;" x="140.79256" xlink:href="#mb6a6422b27" y="87.353379"/>
      </g>
     </g>
     <g id="text_2">
      <!-- 0.3 -->
      <defs>
       <path d="M 40.578125 39.3125 
Q 47.65625 37.796875 51.625 33 
Q 55.609375 28.21875 55.609375 21.1875 
Q 55.609375 10.40625 48.1875 4.484375 
Q 40.765625 -1.421875 27.09375 -1.421875 
Q 22.515625 -1.421875 17.65625 -0.515625 
Q 12.796875 0.390625 7.625 2.203125 
L 7.625 11.71875 
Q 11.71875 9.328125 16.59375 8.109375 
Q 21.484375 6.890625 26.8125 6.890625 
Q 36.078125 6.890625 40.9375 10.546875 
Q 45.796875 14.203125 45.796875 21.1875 
Q 45.796875 27.640625 41.28125 31.265625 
Q 36.765625 34.90625 28.71875 34.90625 
L 20.21875 34.90625 
L 20.21875 43.015625 
L 29.109375 43.015625 
Q 36.375 43.015625 40.234375 45.921875 
Q 44.09375 48.828125 44.09375 54.296875 
Q 44.09375 59.90625 40.109375 62.90625 
Q 36.140625 65.921875 28.71875 65.921875 
Q 24.65625 65.921875 20.015625 65.03125 
Q 15.375 64.15625 9.8125 62.3125 
L 9.8125 71.09375 
Q 15.4375 72.65625 20.34375 73.4375 
Q 25.25 74.21875 29.59375 74.21875 
Q 40.828125 74.21875 47.359375 69.109375 
Q 53.90625 64.015625 53.90625 55.328125 
Q 53.90625 49.265625 50.4375 45.09375 
Q 46.96875 40.921875 40.578125 39.3125 
z
" id="DejaVuSans-51"/>
      </defs>
      <g transform="translate(132.840998 101.951817)scale(0.1 -0.1)">
       <use xlink:href="#DejaVuSans-48"/>
       <use x="63.623047" xlink:href="#DejaVuSans-46"/>
       <use x="95.410156" xlink:href="#DejaVuSans-51"/>
      </g>
     </g>
    </g>
    <g id="xtick_3">
     <g id="line2d_3">
      <g>
       <use style="stroke:#000000;stroke-width:0.8;" x="189.790909" xlink:href="#mb6a6422b27" y="87.353379"/>
      </g>
     </g>
     <g id="text_3">
      <!-- 0.4 -->
      <defs>
       <path d="M 37.796875 64.3125 
L 12.890625 25.390625 
L 37.796875 25.390625 
z
M 35.203125 72.90625 
L 47.609375 72.90625 
L 47.609375 25.390625 
L 58.015625 25.390625 
L 58.015625 17.1875 
L 47.609375 17.1875 
L 47.609375 0 
L 37.796875 0 
L 37.796875 17.1875 
L 4.890625 17.1875 
L 4.890625 26.703125 
z
" id="DejaVuSans-52"/>
      </defs>
      <g transform="translate(181.839347 101.951817)scale(0.1 -0.1)">
       <use xlink:href="#DejaVuSans-48"/>
       <use x="63.623047" xlink:href="#DejaVuSans-46"/>
       <use x="95.410156" xlink:href="#DejaVuSans-52"/>
      </g>
     </g>
    </g>
   </g>
   <g id="matplotlib.axis_2">
    <g id="ytick_1">
     <g id="line2d_4">
      <defs>
       <path d="M 0 0 
L -3.5 0 
" id="mb26f2c359e" style="stroke:#000000;stroke-width:0.8;"/>
      </defs>
      <g>
       <use style="stroke:#000000;stroke-width:0.8;" x="57.6" xlink:href="#mb26f2c359e" y="85.267862"/>
      </g>
     </g>
     <g id="text_4">
      <!-- 0 -->
      <g transform="translate(44.2375 89.067081)scale(0.1 -0.1)">
       <use xlink:href="#DejaVuSans-48"/>
      </g>
     </g>
    </g>
    <g id="ytick_2">
     <g id="line2d_5">
      <g>
       <use style="stroke:#000000;stroke-width:0.8;" x="57.6" xlink:href="#mb26f2c359e" y="58.155779"/>
      </g>
     </g>
     <g id="text_5">
      <!-- 50 -->
      <defs>
       <path d="M 10.796875 72.90625 
L 49.515625 72.90625 
L 49.515625 64.59375 
L 19.828125 64.59375 
L 19.828125 46.734375 
Q 21.96875 47.46875 24.109375 47.828125 
Q 26.265625 48.1875 28.421875 48.1875 
Q 40.625 48.1875 47.75 41.5 
Q 54.890625 34.8125 54.890625 23.390625 
Q 54.890625 11.625 47.5625 5.09375 
Q 40.234375 -1.421875 26.90625 -1.421875 
Q 22.3125 -1.421875 17.546875 -0.640625 
Q 12.796875 0.140625 7.71875 1.703125 
L 7.71875 11.625 
Q 12.109375 9.234375 16.796875 8.0625 
Q 21.484375 6.890625 26.703125 6.890625 
Q 35.15625 6.890625 40.078125 11.328125 
Q 45.015625 15.765625 45.015625 23.390625 
Q 45.015625 31 40.078125 35.4375 
Q 35.15625 39.890625 26.703125 39.890625 
Q 22.75 39.890625 18.8125 39.015625 
Q 14.890625 38.140625 10.796875 36.28125 
z
" id="DejaVuSans-53"/>
      </defs>
      <g transform="translate(37.875 61.954997)scale(0.1 -0.1)">
       <use xlink:href="#DejaVuSans-53"/>
       <use x="63.623047" xlink:href="#DejaVuSans-48"/>
      </g>
     </g>
    </g>
    <g id="text_6">
     <!-- Frequency -->
     <defs>
      <path d="M 9.8125 72.90625 
L 51.703125 72.90625 
L 51.703125 64.59375 
L 19.671875 64.59375 
L 19.671875 43.109375 
L 48.578125 43.109375 
L 48.578125 34.8125 
L 19.671875 34.8125 
L 19.671875 0 
L 9.8125 0 
z
" id="DejaVuSans-70"/>
      <path d="M 41.109375 46.296875 
Q 39.59375 47.171875 37.8125 47.578125 
Q 36.03125 48 33.890625 48 
Q 26.265625 48 22.1875 43.046875 
Q 18.109375 38.09375 18.109375 28.8125 
L 18.109375 0 
L 9.078125 0 
L 9.078125 54.6875 
L 18.109375 54.6875 
L 18.109375 46.1875 
Q 20.953125 51.171875 25.484375 53.578125 
Q 30.03125 56 36.53125 56 
Q 37.453125 56 38.578125 55.875 
Q 39.703125 55.765625 41.0625 55.515625 
z
" id="DejaVuSans-114"/>
      <path d="M 56.203125 29.59375 
L 56.203125 25.203125 
L 14.890625 25.203125 
Q 15.484375 15.921875 20.484375 11.0625 
Q 25.484375 6.203125 34.421875 6.203125 
Q 39.59375 6.203125 44.453125 7.46875 
Q 49.3125 8.734375 54.109375 11.28125 
L 54.109375 2.78125 
Q 49.265625 0.734375 44.1875 -0.34375 
Q 39.109375 -1.421875 33.890625 -1.421875 
Q 20.796875 -1.421875 13.15625 6.1875 
Q 5.515625 13.8125 5.515625 26.8125 
Q 5.515625 40.234375 12.765625 48.109375 
Q 20.015625 56 32.328125 56 
Q 43.359375 56 49.78125 48.890625 
Q 56.203125 41.796875 56.203125 29.59375 
z
M 47.21875 32.234375 
Q 47.125 39.59375 43.09375 43.984375 
Q 39.0625 48.390625 32.421875 48.390625 
Q 24.90625 48.390625 20.390625 44.140625 
Q 15.875 39.890625 15.1875 32.171875 
z
" id="DejaVuSans-101"/>
      <path d="M 14.796875 27.296875 
Q 14.796875 17.390625 18.875 11.75 
Q 22.953125 6.109375 30.078125 6.109375 
Q 37.203125 6.109375 41.296875 11.75 
Q 45.40625 17.390625 45.40625 27.296875 
Q 45.40625 37.203125 41.296875 42.84375 
Q 37.203125 48.484375 30.078125 48.484375 
Q 22.953125 48.484375 18.875 42.84375 
Q 14.796875 37.203125 14.796875 27.296875 
z
M 45.40625 8.203125 
Q 42.578125 3.328125 38.25 0.953125 
Q 33.9375 -1.421875 27.875 -1.421875 
Q 17.96875 -1.421875 11.734375 6.484375 
Q 5.515625 14.40625 5.515625 27.296875 
Q 5.515625 40.1875 11.734375 48.09375 
Q 17.96875 56 27.875 56 
Q 33.9375 56 38.25 53.625 
Q 42.578125 51.265625 45.40625 46.390625 
L 45.40625 54.6875 
L 54.390625 54.6875 
L 54.390625 -20.796875 
L 45.40625 -20.796875 
z
" id="DejaVuSans-113"/>
      <path d="M 8.5 21.578125 
L 8.5 54.6875 
L 17.484375 54.6875 
L 17.484375 21.921875 
Q 17.484375 14.15625 20.5 10.265625 
Q 23.53125 6.390625 29.59375 6.390625 
Q 36.859375 6.390625 41.078125 11.03125 
Q 45.3125 15.671875 45.3125 23.6875 
L 45.3125 54.6875 
L 54.296875 54.6875 
L 54.296875 0 
L 45.3125 0 
L 45.3125 8.40625 
Q 42.046875 3.421875 37.71875 1 
Q 33.40625 -1.421875 27.6875 -1.421875 
Q 18.265625 -1.421875 13.375 4.4375 
Q 8.5 10.296875 8.5 21.578125 
z
M 31.109375 56 
z
" id="DejaVuSans-117"/>
      <path d="M 54.890625 33.015625 
L 54.890625 0 
L 45.90625 0 
L 45.90625 32.71875 
Q 45.90625 40.484375 42.875 44.328125 
Q 39.84375 48.1875 33.796875 48.1875 
Q 26.515625 48.1875 22.3125 43.546875 
Q 18.109375 38.921875 18.109375 30.90625 
L 18.109375 0 
L 9.078125 0 
L 9.078125 54.6875 
L 18.109375 54.6875 
L 18.109375 46.1875 
Q 21.34375 51.125 25.703125 53.5625 
Q 30.078125 56 35.796875 56 
Q 45.21875 56 50.046875 50.171875 
Q 54.890625 44.34375 54.890625 33.015625 
z
" id="DejaVuSans-110"/>
      <path d="M 48.78125 52.59375 
L 48.78125 44.1875 
Q 44.96875 46.296875 41.140625 47.34375 
Q 37.3125 48.390625 33.40625 48.390625 
Q 24.65625 48.390625 19.8125 42.84375 
Q 14.984375 37.3125 14.984375 27.296875 
Q 14.984375 17.28125 19.8125 11.734375 
Q 24.65625 6.203125 33.40625 6.203125 
Q 37.3125 6.203125 41.140625 7.25 
Q 44.96875 8.296875 48.78125 10.40625 
L 48.78125 2.09375 
Q 45.015625 0.34375 40.984375 -0.53125 
Q 36.96875 -1.421875 32.421875 -1.421875 
Q 20.0625 -1.421875 12.78125 6.34375 
Q 5.515625 14.109375 5.515625 27.296875 
Q 5.515625 40.671875 12.859375 48.328125 
Q 20.21875 56 33.015625 56 
Q 37.15625 56 41.109375 55.140625 
Q 45.0625 54.296875 48.78125 52.59375 
z
" id="DejaVuSans-99"/>
      <path d="M 32.171875 -5.078125 
Q 28.375 -14.84375 24.75 -17.8125 
Q 21.140625 -20.796875 15.09375 -20.796875 
L 7.90625 -20.796875 
L 7.90625 -13.28125 
L 13.1875 -13.28125 
Q 16.890625 -13.28125 18.9375 -11.515625 
Q 21 -9.765625 23.484375 -3.21875 
L 25.09375 0.875 
L 2.984375 54.6875 
L 12.5 54.6875 
L 29.59375 11.921875 
L 46.6875 54.6875 
L 56.203125 54.6875 
z
" id="DejaVuSans-121"/>
     </defs>
     <g transform="translate(31.795312 90.710346)rotate(-90)scale(0.1 -0.1)">
      <use xlink:href="#DejaVuSans-70"/>
      <use x="57.410156" xlink:href="#DejaVuSans-114"/>
      <use x="98.492188" xlink:href="#DejaVuSans-101"/>
      <use x="160.015625" xlink:href="#DejaVuSans-113"/>
      <use x="223.492188" xlink:href="#DejaVuSans-117"/>
      <use x="286.871094" xlink:href="#DejaVuSans-101"/>
      <use x="348.394531" xlink:href="#DejaVuSans-110"/>
      <use x="411.773438" xlink:href="#DejaVuSans-99"/>
      <use x="466.753906" xlink:href="#DejaVuSans-121"/>
     </g>
    </g>
   </g>
   <g id="line2d_6">
    <path clip-path="url(#p3093971c48)" d="M 64.978512 85.087936 
L 65.306107 84.994646 
L 65.633702 84.859839 
L 65.961296 84.668585 
L 66.288891 84.402228 
L 66.616485 84.038145 
L 66.94408 83.549793 
L 67.271675 82.907166 
L 67.599269 82.077765 
L 67.926864 81.028193 
L 68.254458 79.726401 
L 68.582053 78.144567 
L 68.909648 76.262486 
L 69.237242 74.071239 
L 69.564837 71.57682 
L 69.892431 68.803297 
L 70.220026 65.795067 
L 70.547621 62.617738 
L 70.875215 59.35728 
L 71.20281 56.117227 
L 71.530404 53.013893 
L 71.857999 50.169846 
L 72.185594 47.706074 
L 72.513188 45.733547 
L 72.840783 44.344956 
L 73.168377 43.607505 
L 73.495972 43.557517 
L 73.823567 44.19747 
L 74.151161 45.495791 
L 74.478756 47.389444 
L 74.80635 49.788996 
L 75.133945 52.585614 
L 75.46154 55.659228 
L 75.789134 58.886992 
L 76.116729 62.151253 
L 76.444323 65.346299 
L 76.771918 68.38341 
L 77.099513 71.19395 
L 77.427107 73.730489 
L 77.754702 75.96614 
L 78.082296 77.892488 
L 78.409891 79.516523 
L 78.737486 80.857054 
L 79.06508 81.941024 
L 79.392675 82.800065 
L 79.720269 83.467534 
L 80.047864 83.976173 
L 80.375458 84.356421 
L 80.703053 84.635358 
L 81.030648 84.836181 
" style="fill:none;stroke:#1f77b4;stroke-linecap:square;stroke-width:1.5;"/>
   </g>
   <g id="line2d_7">
    <path clip-path="url(#p3093971c48)" d="M 185.660944 84.656133 
L 186.133746 84.417375 
L 186.606549 84.102956 
L 187.079352 83.695949 
L 187.552154 83.17818 
L 188.024957 82.531041 
L 188.497759 81.736625 
L 188.970562 80.779151 
L 189.443365 79.64664 
L 189.916167 78.332739 
L 190.38897 76.838553 
L 190.861773 75.174309 
L 191.334575 73.360638 
L 191.807378 71.42929 
L 192.280181 69.423075 
L 192.752983 67.394929 
L 193.225786 65.406016 
L 193.698588 63.522947 
L 194.171391 61.814228 
L 194.644194 60.346205 
L 195.116996 59.178827 
L 195.589799 58.361596 
L 196.062602 57.930085 
L 196.535404 57.903376 
L 197.008207 58.282657 
L 197.48101 59.051134 
L 197.953812 60.175267 
L 198.426615 61.607195 
L 198.899418 63.288112 
L 199.37222 65.152269 
L 199.845023 67.131205 
L 200.317825 69.157845 
L 200.790628 71.170136 
L 201.263431 73.113939 
L 201.736233 74.945045 
L 202.209036 76.630238 
L 202.681839 78.147457 
L 203.154641 79.485178 
L 203.627444 80.641192 
L 204.100247 81.620978 
L 204.573049 82.435885 
L 205.045852 83.101297 
L 205.518655 83.63493 
L 205.991457 84.05537 
L 206.46426 84.380902 
L 206.937062 84.628652 
L 207.409865 84.814028 
L 207.882668 84.95042 
L 208.35547 85.049112 
L 208.828273 85.119356 
" style="fill:none;stroke:#ff7f0e;stroke-linecap:square;stroke-width:1.5;"/>
   </g>
   <g id="line2d_8">
    <path clip-path="url(#p3093971c48)" d="M 190.285359 84.974247 
L 190.739714 84.848646 
L 191.194069 84.67792 
L 191.648424 84.449595 
L 192.102779 84.149211 
L 192.557134 83.760537 
L 193.01149 83.266005 
L 193.465845 82.647433 
L 193.9202 81.887017 
L 194.374555 80.968622 
L 194.82891 79.879318 
L 195.283265 78.611075 
L 195.73762 77.162521 
L 196.191975 75.540583 
L 196.646331 73.761847 
L 197.100686 71.853442 
L 197.555041 69.85326 
L 198.009396 67.809392 
L 198.463751 65.778686 
L 198.918106 63.824433 
L 199.372461 62.013286 
L 199.826817 60.411587 
L 200.281172 59.081382 
L 200.735527 58.076458 
L 201.189882 57.438734 
L 201.644237 57.195368 
L 202.098592 57.356834 
L 202.552947 57.916175 
L 203.007302 58.849503 
L 203.461658 60.117687 
L 203.916013 61.669078 
L 204.370368 63.442992 
L 204.824723 65.373631 
L 205.279078 67.394095 
L 205.733433 69.440138 
L 206.187788 71.45339 
L 206.642144 73.383837 
L 207.096499 75.191442 
L 207.550854 76.846887 
L 208.005209 78.331496 
L 208.459564 79.63648 
L 208.913919 80.761651 
L 209.368274 81.713829 
L 209.82263 82.505092 
L 210.276985 83.151054 
L 210.73134 83.669292 
L 211.185695 84.078003 
L 211.64005 84.394946 
L 212.094405 84.636668 
L 212.54876 84.818013 
" style="fill:none;stroke:#2ca02c;stroke-linecap:square;stroke-width:1.5;"/>
   </g>
   <g id="line2d_9">
    <path clip-path="url(#p3093971c48)" d="M 180.359351 85.267862 
L 180.359351 43.557517 
" style="fill:none;stroke:#ff0000;stroke-linecap:square;stroke-width:1.5;"/>
   </g>
   <g id="line2d_10">
    <path clip-path="url(#p3093971c48)" d="M 84.161301 85.267862 
L 84.161301 57.903376 
" style="fill:none;stroke:#ff0000;stroke-linecap:square;stroke-width:1.5;"/>
   </g>
   <g id="line2d_11">
    <path clip-path="url(#p3093971c48)" d="M 206.855378 85.267862 
L 206.855378 57.195368 
" style="fill:none;stroke:#ff0000;stroke-linecap:square;stroke-width:1.5;"/>
   </g>
   <g id="patch_3">
    <path d="M 57.6 87.353379 
L 57.6 41.472 
" style="fill:none;stroke:#000000;stroke-linecap:square;stroke-linejoin:miter;stroke-width:0.8;"/>
   </g>
   <g id="patch_4">
    <path d="M 219.927273 87.353379 
L 219.927273 41.472 
" style="fill:none;stroke:#000000;stroke-linecap:square;stroke-linejoin:miter;stroke-width:0.8;"/>
   </g>
   <g id="patch_5">
    <path d="M 57.6 87.353379 
L 219.927273 87.353379 
" style="fill:none;stroke:#000000;stroke-linecap:square;stroke-linejoin:miter;stroke-width:0.8;"/>
   </g>
   <g id="patch_6">
    <path d="M 57.6 41.472 
L 219.927273 41.472 
" style="fill:none;stroke:#000000;stroke-linecap:square;stroke-linejoin:miter;stroke-width:0.8;"/>
   </g>
   <g id="text_7">
    <!-- w -->
    <defs>
     <path d="M 4.203125 54.6875 
L 13.1875 54.6875 
L 24.421875 12.015625 
L 35.59375 54.6875 
L 46.1875 54.6875 
L 57.421875 12.015625 
L 68.609375 54.6875 
L 77.59375 54.6875 
L 63.28125 0 
L 52.6875 0 
L 40.921875 44.828125 
L 29.109375 0 
L 18.5 0 
z
" id="DejaVuSans-119"/>
    </defs>
    <g transform="translate(133.856761 35.472)scale(0.12 -0.12)">
     <use xlink:href="#DejaVuSans-119"/>
    </g>
   </g>
  </g>
  <g id="axes_2">
   <g id="patch_7">
    <path d="M 57.6 142.411034 
L 219.927273 142.411034 
L 219.927273 96.529655 
L 57.6 96.529655 
z
" style="fill:#ffffff;"/>
   </g>
   <g id="matplotlib.axis_3">
    <g id="xtick_4">
     <g id="line2d_12">
      <g>
       <use style="stroke:#000000;stroke-width:0.8;" x="82.121977" xlink:href="#mb6a6422b27" y="142.411034"/>
      </g>
     </g>
     <g id="text_8">
      <!-- 10 -->
      <defs>
       <path d="M 12.40625 8.296875 
L 28.515625 8.296875 
L 28.515625 63.921875 
L 10.984375 60.40625 
L 10.984375 69.390625 
L 28.421875 72.90625 
L 38.28125 72.90625 
L 38.28125 8.296875 
L 54.390625 8.296875 
L 54.390625 0 
L 12.40625 0 
z
" id="DejaVuSans-49"/>
      </defs>
      <g transform="translate(75.759477 157.009472)scale(0.1 -0.1)">
       <use xlink:href="#DejaVuSans-49"/>
       <use x="63.623047" xlink:href="#DejaVuSans-48"/>
      </g>
     </g>
    </g>
    <g id="xtick_5">
     <g id="line2d_13">
      <g>
       <use style="stroke:#000000;stroke-width:0.8;" x="141.146357" xlink:href="#mb6a6422b27" y="142.411034"/>
      </g>
     </g>
     <g id="text_9">
      <!-- 20 -->
      <g transform="translate(134.783857 157.009472)scale(0.1 -0.1)">
       <use xlink:href="#DejaVuSans-50"/>
       <use x="63.623047" xlink:href="#DejaVuSans-48"/>
      </g>
     </g>
    </g>
    <g id="xtick_6">
     <g id="line2d_14">
      <g>
       <use style="stroke:#000000;stroke-width:0.8;" x="200.170737" xlink:href="#mb6a6422b27" y="142.411034"/>
      </g>
     </g>
     <g id="text_10">
      <!-- 30 -->
      <g transform="translate(193.808237 157.009472)scale(0.1 -0.1)">
       <use xlink:href="#DejaVuSans-51"/>
       <use x="63.623047" xlink:href="#DejaVuSans-48"/>
      </g>
     </g>
    </g>
   </g>
   <g id="matplotlib.axis_4">
    <g id="ytick_3">
     <g id="line2d_15">
      <g>
       <use style="stroke:#000000;stroke-width:0.8;" x="57.6" xlink:href="#mb26f2c359e" y="140.325517"/>
      </g>
     </g>
     <g id="text_11">
      <!-- 0 -->
      <g transform="translate(44.2375 144.124736)scale(0.1 -0.1)">
       <use xlink:href="#DejaVuSans-48"/>
      </g>
     </g>
    </g>
    <g id="ytick_4">
     <g id="line2d_16">
      <g>
       <use style="stroke:#000000;stroke-width:0.8;" x="57.6" xlink:href="#mb26f2c359e" y="99.579721"/>
      </g>
     </g>
     <g id="text_12">
      <!-- 1 -->
      <g transform="translate(44.2375 103.37894)scale(0.1 -0.1)">
       <use xlink:href="#DejaVuSans-49"/>
      </g>
     </g>
    </g>
    <g id="text_13">
     <!-- Frequency -->
     <g transform="translate(38.157812 145.768001)rotate(-90)scale(0.1 -0.1)">
      <use xlink:href="#DejaVuSans-70"/>
      <use x="57.410156" xlink:href="#DejaVuSans-114"/>
      <use x="98.492188" xlink:href="#DejaVuSans-101"/>
      <use x="160.015625" xlink:href="#DejaVuSans-113"/>
      <use x="223.492188" xlink:href="#DejaVuSans-117"/>
      <use x="286.871094" xlink:href="#DejaVuSans-101"/>
      <use x="348.394531" xlink:href="#DejaVuSans-110"/>
      <use x="411.773438" xlink:href="#DejaVuSans-99"/>
      <use x="466.753906" xlink:href="#DejaVuSans-121"/>
     </g>
    </g>
   </g>
   <g id="line2d_17">
    <path clip-path="url(#p40ef130f58)" d="M 200.427215 139.448155 
L 200.674594 139.155959 
L 200.921972 138.783766 
L 201.169351 138.315703 
L 201.416729 137.734639 
L 201.664108 137.022677 
L 201.911486 136.161837 
L 202.158865 135.134929 
L 202.406243 133.926619 
L 202.653621 132.524645 
L 202.901 130.92113 
L 203.148378 129.113927 
L 203.395757 127.107896 
L 203.643135 124.91601 
L 203.890514 122.560175 
L 204.137892 120.071659 
L 204.385271 117.491026 
L 204.632649 114.867517 
L 204.880028 112.257831 
L 205.127406 109.724329 
L 205.374785 107.332703 
L 205.622163 105.149247 
L 205.869542 103.237843 
L 206.11692 101.656888 
L 206.364299 100.456335 
L 206.611677 99.675078 
L 206.859055 99.338856 
L 207.106434 99.458851 
L 207.353812 100.031066 
L 207.601191 101.036546 
L 207.848569 102.442423 
L 208.095948 104.203699 
L 208.343326 106.265636 
L 208.590705 108.566575 
L 208.838083 111.040984 
L 209.085462 113.622524 
L 209.33284 116.246932 
L 209.580219 118.854563 
L 209.827597 121.392444 
L 210.074976 123.815777 
L 210.322354 126.088836 
L 210.569733 128.185295 
L 210.817111 130.088018 
L 211.06449 131.788414 
L 211.311868 133.285455 
L 211.559246 134.58446 
L 211.806625 135.695777 
L 212.054003 136.63344 
L 212.301382 137.4139 
L 212.54876 138.054884 
" style="fill:none;stroke:#1f77b4;stroke-linecap:square;stroke-width:1.5;"/>
   </g>
   <g id="line2d_18">
    <path clip-path="url(#p40ef130f58)" d="M 64.978512 138.788114 
L 65.229117 138.302982 
L 65.479722 137.696214 
L 65.730327 136.947811 
L 65.980931 136.037668 
L 66.231536 134.946616 
L 66.482141 133.657695 
L 66.732745 132.157607 
L 66.98335 130.438295 
L 67.233955 128.498531 
L 67.48456 126.345415 
L 67.735164 123.995637 
L 67.985769 121.476352 
L 68.236374 118.825556 
L 68.486979 116.09182 
L 68.737583 113.333328 
L 68.988188 110.616179 
L 69.238793 108.011995 
L 69.489397 105.594937 
L 69.740002 103.438271 
L 69.990607 101.610731 
L 70.241212 100.172893 
L 70.491816 99.173849 
L 70.742421 98.648427 
L 70.993026 98.615172 
L 71.243631 99.075265 
L 71.494235 100.012447 
L 71.74484 101.393978 
L 71.995445 103.172531 
L 72.246049 105.288889 
L 72.496654 107.675206 
L 72.747259 110.258608 
L 72.997864 112.964849 
L 73.248468 115.721782 
L 73.499073 118.462413 
L 73.749678 121.127382 
L 74.000283 123.666756 
L 74.250887 126.041091 
L 74.501492 128.221784 
L 74.752097 130.190784 
L 75.002701 131.939771 
L 75.253306 133.468937 
L 75.503911 134.785516 
L 75.754516 135.902195 
L 76.00512 136.83553 
L 76.255725 137.604474 
L 76.50633 138.229072 
L 76.756934 138.729388 
L 77.007539 139.124667 
L 77.258144 139.432734 
" style="fill:none;stroke:#ff7f0e;stroke-linecap:square;stroke-width:1.5;"/>
   </g>
   <g id="line2d_19">
    <path clip-path="url(#p40ef130f58)" d="M 210.823377 140.325517 
L 210.823377 99.338856 
" style="fill:none;stroke:#ff0000;stroke-linecap:square;stroke-width:1.5;"/>
   </g>
   <g id="line2d_20">
    <path clip-path="url(#p40ef130f58)" d="M 65.915467 140.325517 
L 65.915467 98.615172 
" style="fill:none;stroke:#ff0000;stroke-linecap:square;stroke-width:1.5;"/>
   </g>
   <g id="patch_8">
    <path d="M 57.6 142.411034 
L 57.6 96.529655 
" style="fill:none;stroke:#000000;stroke-linecap:square;stroke-linejoin:miter;stroke-width:0.8;"/>
   </g>
   <g id="patch_9">
    <path d="M 219.927273 142.411034 
L 219.927273 96.529655 
" style="fill:none;stroke:#000000;stroke-linecap:square;stroke-linejoin:miter;stroke-width:0.8;"/>
   </g>
   <g id="patch_10">
    <path d="M 57.6 142.411034 
L 219.927273 142.411034 
" style="fill:none;stroke:#000000;stroke-linecap:square;stroke-linejoin:miter;stroke-width:0.8;"/>
   </g>
   <g id="patch_11">
    <path d="M 57.6 96.529655 
L 219.927273 96.529655 
" style="fill:none;stroke:#000000;stroke-linecap:square;stroke-linejoin:miter;stroke-width:0.8;"/>
   </g>
   <g id="text_14">
    <!-- mu2 -->
    <defs>
     <path d="M 52 44.1875 
Q 55.375 50.25 60.0625 53.125 
Q 64.75 56 71.09375 56 
Q 79.640625 56 84.28125 50.015625 
Q 88.921875 44.046875 88.921875 33.015625 
L 88.921875 0 
L 79.890625 0 
L 79.890625 32.71875 
Q 79.890625 40.578125 77.09375 44.375 
Q 74.3125 48.1875 68.609375 48.1875 
Q 61.625 48.1875 57.5625 43.546875 
Q 53.515625 38.921875 53.515625 30.90625 
L 53.515625 0 
L 44.484375 0 
L 44.484375 32.71875 
Q 44.484375 40.625 41.703125 44.40625 
Q 38.921875 48.1875 33.109375 48.1875 
Q 26.21875 48.1875 22.15625 43.53125 
Q 18.109375 38.875 18.109375 30.90625 
L 18.109375 0 
L 9.078125 0 
L 9.078125 54.6875 
L 18.109375 54.6875 
L 18.109375 46.1875 
Q 21.1875 51.21875 25.484375 53.609375 
Q 29.78125 56 35.6875 56 
Q 41.65625 56 45.828125 52.96875 
Q 50 49.953125 52 44.1875 
z
" id="DejaVuSans-109"/>
    </defs>
    <g transform="translate(125.299261 90.529655)scale(0.12 -0.12)">
     <use xlink:href="#DejaVuSans-109"/>
     <use x="97.412109" xlink:href="#DejaVuSans-117"/>
     <use x="160.791016" xlink:href="#DejaVuSans-50"/>
    </g>
   </g>
  </g>
  <g id="axes_3">
   <g id="patch_12">
    <path d="M 57.6 197.46869 
L 219.927273 197.46869 
L 219.927273 151.58731 
L 57.6 151.58731 
z
" style="fill:#ffffff;"/>
   </g>
   <g id="matplotlib.axis_5">
    <g id="xtick_7">
     <g id="line2d_21">
      <g>
       <use style="stroke:#000000;stroke-width:0.8;" x="65.694096" xlink:href="#mb6a6422b27" y="197.46869"/>
      </g>
     </g>
     <g id="text_15">
      <!-- 0 -->
      <g transform="translate(62.512846 212.067127)scale(0.1 -0.1)">
       <use xlink:href="#DejaVuSans-48"/>
      </g>
     </g>
    </g>
    <g id="xtick_8">
     <g id="line2d_22">
      <g>
       <use style="stroke:#000000;stroke-width:0.8;" x="109.821997" xlink:href="#mb6a6422b27" y="197.46869"/>
      </g>
     </g>
     <g id="text_16">
      <!-- 5 -->
      <g transform="translate(106.640747 212.067127)scale(0.1 -0.1)">
       <use xlink:href="#DejaVuSans-53"/>
      </g>
     </g>
    </g>
    <g id="xtick_9">
     <g id="line2d_23">
      <g>
       <use style="stroke:#000000;stroke-width:0.8;" x="153.949897" xlink:href="#mb6a6422b27" y="197.46869"/>
      </g>
     </g>
     <g id="text_17">
      <!-- 10 -->
      <g transform="translate(147.587397 212.067127)scale(0.1 -0.1)">
       <use xlink:href="#DejaVuSans-49"/>
       <use x="63.623047" xlink:href="#DejaVuSans-48"/>
      </g>
     </g>
    </g>
    <g id="xtick_10">
     <g id="line2d_24">
      <g>
       <use style="stroke:#000000;stroke-width:0.8;" x="198.077798" xlink:href="#mb6a6422b27" y="197.46869"/>
      </g>
     </g>
     <g id="text_18">
      <!-- 15 -->
      <g transform="translate(191.715298 212.067127)scale(0.1 -0.1)">
       <use xlink:href="#DejaVuSans-49"/>
       <use x="63.623047" xlink:href="#DejaVuSans-53"/>
      </g>
     </g>
    </g>
   </g>
   <g id="matplotlib.axis_6">
    <g id="ytick_5">
     <g id="line2d_25">
      <g>
       <use style="stroke:#000000;stroke-width:0.8;" x="57.6" xlink:href="#mb26f2c359e" y="195.383172"/>
      </g>
     </g>
     <g id="text_19">
      <!-- 0 -->
      <g transform="translate(44.2375 199.182391)scale(0.1 -0.1)">
       <use xlink:href="#DejaVuSans-48"/>
      </g>
     </g>
    </g>
    <g id="ytick_6">
     <g id="line2d_26">
      <g>
       <use style="stroke:#000000;stroke-width:0.8;" x="57.6" xlink:href="#mb26f2c359e" y="167.520137"/>
      </g>
     </g>
     <g id="text_20">
      <!-- 20 -->
      <g transform="translate(37.875 171.319356)scale(0.1 -0.1)">
       <use xlink:href="#DejaVuSans-50"/>
       <use x="63.623047" xlink:href="#DejaVuSans-48"/>
      </g>
     </g>
    </g>
    <g id="text_21">
     <!-- Frequency -->
     <g transform="translate(31.795312 200.825656)rotate(-90)scale(0.1 -0.1)">
      <use xlink:href="#DejaVuSans-70"/>
      <use x="57.410156" xlink:href="#DejaVuSans-114"/>
      <use x="98.492188" xlink:href="#DejaVuSans-101"/>
      <use x="160.015625" xlink:href="#DejaVuSans-113"/>
      <use x="223.492188" xlink:href="#DejaVuSans-117"/>
      <use x="286.871094" xlink:href="#DejaVuSans-101"/>
      <use x="348.394531" xlink:href="#DejaVuSans-110"/>
      <use x="411.773438" xlink:href="#DejaVuSans-99"/>
      <use x="466.753906" xlink:href="#DejaVuSans-121"/>
     </g>
    </g>
   </g>
   <g id="line2d_27">
    <path clip-path="url(#p6351e892f8)" d="M 205.344868 195.237103 
L 205.491886 195.175995 
L 205.638904 195.094769 
L 205.785922 194.989137 
L 205.93294 194.854793 
L 206.079959 194.687775 
L 206.226977 194.484924 
L 206.373995 194.244404 
L 206.521013 193.966235 
L 206.668032 193.65279 
L 206.81505 193.309167 
L 206.962068 192.943377 
L 207.109086 192.56626 
L 207.256104 192.191126 
L 207.403123 191.833067 
L 207.550141 191.508014 
L 207.697159 191.231589 
L 207.844177 191.017871 
L 207.991196 190.878214 
L 208.138214 190.820246 
L 208.285232 190.847181 
L 208.43225 190.957521 
L 208.579268 191.145199 
L 208.726287 191.400126 
L 208.873305 191.709092 
L 209.020323 192.056898 
L 209.167341 192.427586 
L 209.31436 192.805633 
L 209.461378 193.176982 
L 209.608396 193.529824 
L 209.755414 193.855089 
L 209.902432 194.146618 
L 210.049451 194.401073 
L 210.196469 194.617622 
L 210.343487 194.797482 
L 210.490505 194.943389 
L 210.637523 195.059067 
L 210.784542 195.148745 
L 210.93156 195.216752 
L 211.078578 195.267219 
L 211.225596 195.30388 
L 211.372615 195.329954 
L 211.519633 195.348116 
L 211.666651 195.360508 
L 211.813669 195.368791 
L 211.960687 195.374216 
L 212.107706 195.377698 
L 212.254724 195.379888 
L 212.401742 195.381239 
L 212.54876 195.382055 
" style="fill:none;stroke:#1f77b4;stroke-linecap:square;stroke-width:1.5;"/>
   </g>
   <g id="line2d_28">
    <path clip-path="url(#p6351e892f8)" d="M 64.978512 194.997649 
L 64.99441 194.805102 
L 65.010307 194.53212 
L 65.026205 194.152963 
L 65.042102 193.637155 
L 65.057999 192.950046 
L 65.073897 192.054068 
L 65.089794 190.91081 
L 65.105692 189.48397 
L 65.121589 187.743121 
L 65.137486 185.668102 
L 65.153384 183.253686 
L 65.169281 180.514042 
L 65.185178 177.48637 
L 65.201076 174.233091 
L 65.216973 170.841998 
L 65.232871 167.423931 
L 65.248768 164.107825 
L 65.264665 161.033262 
L 65.280563 158.341055 
L 65.29646 156.162709 
L 65.312358 154.609826 
L 65.328255 153.764645 
L 65.344152 153.672828 
L 65.36005 154.339371 
L 65.375947 155.72816 
L 65.391845 157.765205 
L 65.407742 160.345175 
L 65.423639 163.34041 
L 65.439537 166.611352 
L 65.455434 170.017204 
L 65.471332 173.425703 
L 65.487229 176.721101 
L 65.503126 179.809748 
L 65.519024 182.623042 
L 65.534921 185.117845 
L 65.550818 187.274734 
L 65.566716 189.094653 
L 65.582613 190.594598 
L 65.598511 191.802943 
L 65.614408 192.75495 
L 65.630305 193.488822 
L 65.646203 194.042555 
L 65.6621 194.451643 
L 65.677998 194.747645 
L 65.693895 194.957457 
L 65.709792 195.103177 
L 65.72569 195.202359 
L 65.741587 195.268528 
L 65.757485 195.311801 
" style="fill:none;stroke:#ff7f0e;stroke-linecap:square;stroke-width:1.5;"/>
   </g>
   <g id="line2d_29">
    <path clip-path="url(#p6351e892f8)" d="M 203.775332 195.383172 
L 203.775332 190.820246 
" style="fill:none;stroke:#ff0000;stroke-linecap:square;stroke-width:1.5;"/>
   </g>
   <g id="line2d_30">
    <path clip-path="url(#p6351e892f8)" d="M 65.334012 195.383172 
L 65.334012 153.672828 
" style="fill:none;stroke:#ff0000;stroke-linecap:square;stroke-width:1.5;"/>
   </g>
   <g id="patch_13">
    <path d="M 57.6 197.46869 
L 57.6 151.58731 
" style="fill:none;stroke:#000000;stroke-linecap:square;stroke-linejoin:miter;stroke-width:0.8;"/>
   </g>
   <g id="patch_14">
    <path d="M 219.927273 197.46869 
L 219.927273 151.58731 
" style="fill:none;stroke:#000000;stroke-linecap:square;stroke-linejoin:miter;stroke-width:0.8;"/>
   </g>
   <g id="patch_15">
    <path d="M 57.6 197.46869 
L 219.927273 197.46869 
" style="fill:none;stroke:#000000;stroke-linecap:square;stroke-linejoin:miter;stroke-width:0.8;"/>
   </g>
   <g id="patch_16">
    <path d="M 57.6 151.58731 
L 219.927273 151.58731 
" style="fill:none;stroke:#000000;stroke-linecap:square;stroke-linejoin:miter;stroke-width:0.8;"/>
   </g>
   <g id="text_22">
    <!-- mu1 -->
    <g transform="translate(125.299261 145.58731)scale(0.12 -0.12)">
     <use xlink:href="#DejaVuSans-109"/>
     <use x="97.412109" xlink:href="#DejaVuSans-117"/>
     <use x="160.791016" xlink:href="#DejaVuSans-49"/>
    </g>
   </g>
  </g>
  <g id="axes_4">
   <g id="patch_17">
    <path d="M 57.6 252.526345 
L 219.927273 252.526345 
L 219.927273 206.644966 
L 57.6 206.644966 
z
" style="fill:#ffffff;"/>
   </g>
   <g id="matplotlib.axis_7">
    <g id="xtick_11">
     <g id="line2d_31">
      <g>
       <use style="stroke:#000000;stroke-width:0.8;" x="64.46769" xlink:href="#mb6a6422b27" y="252.526345"/>
      </g>
     </g>
     <g id="text_23">
      <!-- 0 -->
      <g transform="translate(61.28644 267.124782)scale(0.1 -0.1)">
       <use xlink:href="#DejaVuSans-48"/>
      </g>
     </g>
    </g>
    <g id="xtick_12">
     <g id="line2d_32">
      <g>
       <use style="stroke:#000000;stroke-width:0.8;" x="109.635364" xlink:href="#mb6a6422b27" y="252.526345"/>
      </g>
     </g>
     <g id="text_24">
      <!-- 10 -->
      <g transform="translate(103.272864 267.124782)scale(0.1 -0.1)">
       <use xlink:href="#DejaVuSans-49"/>
       <use x="63.623047" xlink:href="#DejaVuSans-48"/>
      </g>
     </g>
    </g>
    <g id="xtick_13">
     <g id="line2d_33">
      <g>
       <use style="stroke:#000000;stroke-width:0.8;" x="154.803037" xlink:href="#mb6a6422b27" y="252.526345"/>
      </g>
     </g>
     <g id="text_25">
      <!-- 20 -->
      <g transform="translate(148.440537 267.124782)scale(0.1 -0.1)">
       <use xlink:href="#DejaVuSans-50"/>
       <use x="63.623047" xlink:href="#DejaVuSans-48"/>
      </g>
     </g>
    </g>
    <g id="xtick_14">
     <g id="line2d_34">
      <g>
       <use style="stroke:#000000;stroke-width:0.8;" x="199.970711" xlink:href="#mb6a6422b27" y="252.526345"/>
      </g>
     </g>
     <g id="text_26">
      <!-- 30 -->
      <g transform="translate(193.608211 267.124782)scale(0.1 -0.1)">
       <use xlink:href="#DejaVuSans-51"/>
       <use x="63.623047" xlink:href="#DejaVuSans-48"/>
      </g>
     </g>
    </g>
   </g>
   <g id="matplotlib.axis_8">
    <g id="ytick_7">
     <g id="line2d_35">
      <g>
       <use style="stroke:#000000;stroke-width:0.8;" x="57.6" xlink:href="#mb26f2c359e" y="250.440828"/>
      </g>
     </g>
     <g id="text_27">
      <!-- 0 -->
      <g transform="translate(44.2375 254.240046)scale(0.1 -0.1)">
       <use xlink:href="#DejaVuSans-48"/>
      </g>
     </g>
    </g>
    <g id="ytick_8">
     <g id="line2d_36">
      <g>
       <use style="stroke:#000000;stroke-width:0.8;" x="57.6" xlink:href="#mb26f2c359e" y="227.846542"/>
      </g>
     </g>
     <g id="text_28">
      <!-- 5 -->
      <g transform="translate(44.2375 231.645761)scale(0.1 -0.1)">
       <use xlink:href="#DejaVuSans-53"/>
      </g>
     </g>
    </g>
    <g id="text_29">
     <!-- Frequency -->
     <g transform="translate(38.157812 255.883311)rotate(-90)scale(0.1 -0.1)">
      <use xlink:href="#DejaVuSans-70"/>
      <use x="57.410156" xlink:href="#DejaVuSans-114"/>
      <use x="98.492188" xlink:href="#DejaVuSans-101"/>
      <use x="160.015625" xlink:href="#DejaVuSans-113"/>
      <use x="223.492188" xlink:href="#DejaVuSans-117"/>
      <use x="286.871094" xlink:href="#DejaVuSans-101"/>
      <use x="348.394531" xlink:href="#DejaVuSans-110"/>
      <use x="411.773438" xlink:href="#DejaVuSans-99"/>
      <use x="466.753906" xlink:href="#DejaVuSans-121"/>
     </g>
    </g>
   </g>
   <g id="line2d_37">
    <path clip-path="url(#p4c756f225e)" d="M 205.962003 250.3006 
L 206.096427 250.252472 
L 206.23085 250.190786 
L 206.365274 250.112783 
L 206.499697 250.015481 
L 206.634121 249.895771 
L 206.768545 249.750544 
L 206.902968 249.576849 
L 207.037392 249.372102 
L 207.171816 249.134303 
L 207.306239 248.86228 
L 207.440663 248.555937 
L 207.575086 248.216479 
L 207.70951 247.846601 
L 207.843934 247.45062 
L 207.978357 247.034526 
L 208.112781 246.605935 
L 208.247205 246.173935 
L 208.381628 245.748821 
L 208.516052 245.341724 
L 208.650475 244.964146 
L 208.784899 244.627438 
L 208.919323 244.342234 
L 209.053746 244.117897 
L 209.18817 243.962015 
L 209.322593 243.879967 
L 209.457017 243.87462 
L 209.591441 243.946163 
L 209.725864 244.092093 
L 209.860288 244.307361 
L 209.994712 244.584664 
L 210.129135 244.914855 
L 210.263559 245.287442 
L 210.397982 245.691141 
L 210.532406 246.114438 
L 210.66683 246.546123 
L 210.801253 246.975758 
L 210.935677 247.394072 
L 211.070101 247.793232 
L 211.204524 248.167018 
L 211.338948 248.510883 
L 211.473371 248.821912 
L 211.607795 249.098707 
L 211.742219 249.341195 
L 211.876642 249.550414 
L 212.011066 249.728263 
L 212.145489 249.877261 
L 212.279913 250.000319 
L 212.414337 250.100535 
L 212.54876 250.181028 
" style="fill:none;stroke:#1f77b4;stroke-linecap:square;stroke-width:1.5;"/>
   </g>
   <g id="line2d_38">
    <path clip-path="url(#p4c756f225e)" d="M 64.978512 250.203098 
L 65.002028 250.093131 
L 65.025543 249.939628 
L 65.049058 249.728773 
L 65.072573 249.443798 
L 65.096088 249.064902 
L 65.119604 248.569396 
L 65.143119 247.932148 
L 65.166634 247.126398 
L 65.190149 246.124995 
L 65.213664 244.902066 
L 65.23718 243.435104 
L 65.260695 241.707384 
L 65.28421 239.710565 
L 65.307725 237.44729 
L 65.33124 234.933509 
L 65.354756 232.200263 
L 65.378271 229.29464 
L 65.401786 226.279648 
L 65.425301 223.23284 
L 65.448816 220.243607 
L 65.472332 217.409215 
L 65.495847 214.829774 
L 65.519362 212.602484 
L 65.542877 210.81561 
L 65.566393 209.542698 
L 65.589908 208.837555 
L 65.613423 208.730483 
L 65.636938 209.226111 
L 65.660453 210.30307 
L 65.683969 211.915518 
L 65.707484 213.996376 
L 65.730999 216.461956 
L 65.754514 219.217533 
L 65.778029 222.163344 
L 65.801545 225.200497 
L 65.82506 228.236299 
L 65.848575 231.188629 
L 65.87209 233.989106 
L 65.895605 236.584931 
L 65.919121 238.939443 
L 65.942636 241.031515 
L 65.966151 242.85404 
L 65.989666 244.41176 
L 66.013181 245.718733 
L 66.036697 246.795711 
L 66.060212 247.667632 
L 66.083727 248.36141 
L 66.107242 248.904106 
L 66.130757 249.321542 
" style="fill:none;stroke:#ff7f0e;stroke-linecap:square;stroke-width:1.5;"/>
   </g>
   <g id="line2d_39">
    <path clip-path="url(#p4c756f225e)" d="M 204.946335 250.440828 
L 204.946335 243.87462 
" style="fill:none;stroke:#ff0000;stroke-linecap:square;stroke-width:1.5;"/>
   </g>
   <g id="line2d_40">
    <path clip-path="url(#p4c756f225e)" d="M 65.33752 250.440828 
L 65.33752 208.730483 
" style="fill:none;stroke:#ff0000;stroke-linecap:square;stroke-width:1.5;"/>
   </g>
   <g id="patch_18">
    <path d="M 57.6 252.526345 
L 57.6 206.644966 
" style="fill:none;stroke:#000000;stroke-linecap:square;stroke-linejoin:miter;stroke-width:0.8;"/>
   </g>
   <g id="patch_19">
    <path d="M 219.927273 252.526345 
L 219.927273 206.644966 
" style="fill:none;stroke:#000000;stroke-linecap:square;stroke-linejoin:miter;stroke-width:0.8;"/>
   </g>
   <g id="patch_20">
    <path d="M 57.6 252.526345 
L 219.927273 252.526345 
" style="fill:none;stroke:#000000;stroke-linecap:square;stroke-linejoin:miter;stroke-width:0.8;"/>
   </g>
   <g id="patch_21">
    <path d="M 57.6 206.644966 
L 219.927273 206.644966 
" style="fill:none;stroke:#000000;stroke-linecap:square;stroke-linejoin:miter;stroke-width:0.8;"/>
   </g>
   <g id="text_30">
    <!-- mu0 -->
    <g transform="translate(125.299261 200.644966)scale(0.12 -0.12)">
     <use xlink:href="#DejaVuSans-109"/>
     <use x="97.412109" xlink:href="#DejaVuSans-117"/>
     <use x="160.791016" xlink:href="#DejaVuSans-48"/>
    </g>
   </g>
  </g>
  <g id="axes_5">
   <g id="patch_22">
    <path d="M 57.6 307.584 
L 219.927273 307.584 
L 219.927273 261.702621 
L 57.6 261.702621 
z
" style="fill:#ffffff;"/>
   </g>
   <g id="matplotlib.axis_9">
    <g id="xtick_15">
     <g id="line2d_41">
      <g>
       <use style="stroke:#000000;stroke-width:0.8;" x="91.187249" xlink:href="#mb6a6422b27" y="307.584"/>
      </g>
     </g>
     <g id="text_31">
      <!-- 14.5 -->
      <g transform="translate(80.054437 322.182437)scale(0.1 -0.1)">
       <use xlink:href="#DejaVuSans-49"/>
       <use x="63.623047" xlink:href="#DejaVuSans-52"/>
       <use x="127.246094" xlink:href="#DejaVuSans-46"/>
       <use x="159.033203" xlink:href="#DejaVuSans-53"/>
      </g>
     </g>
    </g>
    <g id="xtick_16">
     <g id="line2d_42">
      <g>
       <use style="stroke:#000000;stroke-width:0.8;" x="135.401798" xlink:href="#mb6a6422b27" y="307.584"/>
      </g>
     </g>
     <g id="text_32">
      <!-- 15.0 -->
      <g transform="translate(124.268986 322.182437)scale(0.1 -0.1)">
       <use xlink:href="#DejaVuSans-49"/>
       <use x="63.623047" xlink:href="#DejaVuSans-53"/>
       <use x="127.246094" xlink:href="#DejaVuSans-46"/>
       <use x="159.033203" xlink:href="#DejaVuSans-48"/>
      </g>
     </g>
    </g>
    <g id="xtick_17">
     <g id="line2d_43">
      <g>
       <use style="stroke:#000000;stroke-width:0.8;" x="179.616348" xlink:href="#mb6a6422b27" y="307.584"/>
      </g>
     </g>
     <g id="text_33">
      <!-- 15.5 -->
      <g transform="translate(168.483535 322.182437)scale(0.1 -0.1)">
       <use xlink:href="#DejaVuSans-49"/>
       <use x="63.623047" xlink:href="#DejaVuSans-53"/>
       <use x="127.246094" xlink:href="#DejaVuSans-46"/>
       <use x="159.033203" xlink:href="#DejaVuSans-53"/>
      </g>
     </g>
    </g>
   </g>
   <g id="matplotlib.axis_10">
    <g id="ytick_9">
     <g id="line2d_44">
      <g>
       <use style="stroke:#000000;stroke-width:0.8;" x="57.6" xlink:href="#mb26f2c359e" y="305.498483"/>
      </g>
     </g>
     <g id="text_34">
      <!-- 0 -->
      <g transform="translate(44.2375 309.297702)scale(0.1 -0.1)">
       <use xlink:href="#DejaVuSans-48"/>
      </g>
     </g>
    </g>
    <g id="ytick_10">
     <g id="line2d_45">
      <g>
       <use style="stroke:#000000;stroke-width:0.8;" x="57.6" xlink:href="#mb26f2c359e" y="279.429299"/>
      </g>
     </g>
     <g id="text_35">
      <!-- 1 -->
      <g transform="translate(44.2375 283.228518)scale(0.1 -0.1)">
       <use xlink:href="#DejaVuSans-49"/>
      </g>
     </g>
    </g>
    <g id="text_36">
     <!-- Frequency -->
     <g transform="translate(38.157812 310.940967)rotate(-90)scale(0.1 -0.1)">
      <use xlink:href="#DejaVuSans-70"/>
      <use x="57.410156" xlink:href="#DejaVuSans-114"/>
      <use x="98.492188" xlink:href="#DejaVuSans-101"/>
      <use x="160.015625" xlink:href="#DejaVuSans-113"/>
      <use x="223.492188" xlink:href="#DejaVuSans-117"/>
      <use x="286.871094" xlink:href="#DejaVuSans-101"/>
      <use x="348.394531" xlink:href="#DejaVuSans-110"/>
      <use x="411.773438" xlink:href="#DejaVuSans-99"/>
      <use x="466.753906" xlink:href="#DejaVuSans-121"/>
     </g>
    </g>
   </g>
   <g id="line2d_46">
    <path clip-path="url(#pceb1390de3)" d="M 64.978512 304.572616 
L 67.99015 304.161193 
L 71.001788 303.602658 
L 74.013426 302.860534 
L 77.025063 301.895767 
L 80.036701 300.669127 
L 83.048339 299.144529 
L 86.059976 297.293184 
L 89.071614 295.098316 
L 92.083252 292.560048 
L 95.09489 289.699878 
L 98.106527 286.564095 
L 101.118165 283.22545 
L 104.129803 279.782508 
L 107.14144 276.356293 
L 110.153078 273.084163 
L 113.164716 270.111202 
L 116.176354 267.57982 
L 119.187991 265.618553 
L 122.199629 264.331284 
L 125.211267 263.788138 
L 128.222904 264.019147 
L 131.234542 265.011505 
L 134.24618 266.710743 
L 137.257818 269.025681 
L 140.269455 271.836527 
L 143.281093 275.005136 
L 146.292731 278.386181 
L 149.304368 281.838019 
L 152.316006 285.232128 
L 155.327644 288.460288 
L 158.339281 291.439073 
L 161.350919 294.111567 
L 164.362557 296.446563 
L 167.374195 298.435781 
L 170.385832 300.089738 
L 173.39747 301.432947 
L 176.409108 302.499082 
L 179.420745 303.326548 
L 182.432383 303.954812 
L 185.444021 304.421625 
L 188.455659 304.761161 
L 191.467296 305.002974 
L 194.478934 305.171638 
L 197.490572 305.286877 
L 200.502209 305.364018 
L 203.513847 305.414617 
L 206.525485 305.447143 
L 209.537123 305.467635 
L 212.54876 305.48029 
" style="fill:none;stroke:#1f77b4;stroke-linecap:square;stroke-width:1.5;"/>
   </g>
   <g id="line2d_47">
    <path clip-path="url(#pceb1390de3)" d="M 74.862913 304.955763 
L 77.557185 304.735454 
L 80.251457 304.440653 
L 82.945728 304.052375 
L 85.64 303.54911 
L 88.334272 302.907295 
L 91.028543 302.102132 
L 93.722815 301.108774 
L 96.417086 299.903888 
L 99.111358 298.467579 
L 101.80563 296.785571 
L 104.499901 294.851535 
L 107.194173 292.669371 
L 109.888445 290.255229 
L 112.582716 287.639019 
L 115.276988 284.865178 
L 117.971259 281.992479 
L 120.665531 279.092736 
L 123.359803 276.248356 
L 126.054074 273.54879 
L 128.748346 271.086058 
L 131.442618 268.949652 
L 134.136889 267.221178 
L 136.831161 265.969208 
L 139.525432 265.244765 
L 142.219704 265.077881 
L 144.913976 265.475523 
L 147.608247 266.421118 
L 150.302519 267.875695 
L 152.99679 269.78055 
L 155.691062 272.061175 
L 158.385334 274.632086 
L 161.079605 277.402113 
L 163.773877 280.2797 
L 166.468149 283.17779 
L 169.16242 286.017949 
L 171.856692 288.733478 
L 174.550963 291.27139 
L 177.245235 293.593239 
L 179.939507 295.674897 
L 182.633778 297.505453 
L 185.32805 299.085465 
L 188.022322 300.424802 
L 190.716593 301.540322 
L 193.410865 302.45358 
L 196.105136 303.188743 
L 198.799408 303.770807 
L 201.49368 304.224184 
L 204.187951 304.571675 
L 206.882223 304.833795 
" style="fill:none;stroke:#ff7f0e;stroke-linecap:square;stroke-width:1.5;"/>
   </g>
   <g id="line2d_48">
    <path clip-path="url(#pceb1390de3)" d="M 127.934 305.498483 
L 127.934 263.788138 
" style="fill:none;stroke:#ff0000;stroke-linecap:square;stroke-width:1.5;"/>
   </g>
   <g id="line2d_49">
    <path clip-path="url(#pceb1390de3)" d="M 85.782756 305.498483 
L 85.782756 265.077881 
" style="fill:none;stroke:#ff0000;stroke-linecap:square;stroke-width:1.5;"/>
   </g>
   <g id="patch_23">
    <path d="M 57.6 307.584 
L 57.6 261.702621 
" style="fill:none;stroke:#000000;stroke-linecap:square;stroke-linejoin:miter;stroke-width:0.8;"/>
   </g>
   <g id="patch_24">
    <path d="M 219.927273 307.584 
L 219.927273 261.702621 
" style="fill:none;stroke:#000000;stroke-linecap:square;stroke-linejoin:miter;stroke-width:0.8;"/>
   </g>
   <g id="patch_25">
    <path d="M 57.6 307.584 
L 219.927273 307.584 
" style="fill:none;stroke:#000000;stroke-linecap:square;stroke-linejoin:miter;stroke-width:0.8;"/>
   </g>
   <g id="patch_26">
    <path d="M 57.6 261.702621 
L 219.927273 261.702621 
" style="fill:none;stroke:#000000;stroke-linecap:square;stroke-linejoin:miter;stroke-width:0.8;"/>
   </g>
   <g id="text_37">
    <!-- sigma2 -->
    <defs>
     <path d="M 44.28125 53.078125 
L 44.28125 44.578125 
Q 40.484375 46.53125 36.375 47.5 
Q 32.28125 48.484375 27.875 48.484375 
Q 21.1875 48.484375 17.84375 46.4375 
Q 14.5 44.390625 14.5 40.28125 
Q 14.5 37.15625 16.890625 35.375 
Q 19.28125 33.59375 26.515625 31.984375 
L 29.59375 31.296875 
Q 39.15625 29.25 43.1875 25.515625 
Q 47.21875 21.78125 47.21875 15.09375 
Q 47.21875 7.46875 41.1875 3.015625 
Q 35.15625 -1.421875 24.609375 -1.421875 
Q 20.21875 -1.421875 15.453125 -0.5625 
Q 10.6875 0.296875 5.421875 2 
L 5.421875 11.28125 
Q 10.40625 8.6875 15.234375 7.390625 
Q 20.0625 6.109375 24.8125 6.109375 
Q 31.15625 6.109375 34.5625 8.28125 
Q 37.984375 10.453125 37.984375 14.40625 
Q 37.984375 18.0625 35.515625 20.015625 
Q 33.0625 21.96875 24.703125 23.78125 
L 21.578125 24.515625 
Q 13.234375 26.265625 9.515625 29.90625 
Q 5.8125 33.546875 5.8125 39.890625 
Q 5.8125 47.609375 11.28125 51.796875 
Q 16.75 56 26.8125 56 
Q 31.78125 56 36.171875 55.265625 
Q 40.578125 54.546875 44.28125 53.078125 
z
" id="DejaVuSans-115"/>
     <path d="M 9.421875 54.6875 
L 18.40625 54.6875 
L 18.40625 0 
L 9.421875 0 
z
M 9.421875 75.984375 
L 18.40625 75.984375 
L 18.40625 64.59375 
L 9.421875 64.59375 
z
" id="DejaVuSans-105"/>
     <path d="M 45.40625 27.984375 
Q 45.40625 37.75 41.375 43.109375 
Q 37.359375 48.484375 30.078125 48.484375 
Q 22.859375 48.484375 18.828125 43.109375 
Q 14.796875 37.75 14.796875 27.984375 
Q 14.796875 18.265625 18.828125 12.890625 
Q 22.859375 7.515625 30.078125 7.515625 
Q 37.359375 7.515625 41.375 12.890625 
Q 45.40625 18.265625 45.40625 27.984375 
z
M 54.390625 6.78125 
Q 54.390625 -7.171875 48.1875 -13.984375 
Q 42 -20.796875 29.203125 -20.796875 
Q 24.46875 -20.796875 20.265625 -20.09375 
Q 16.0625 -19.390625 12.109375 -17.921875 
L 12.109375 -9.1875 
Q 16.0625 -11.328125 19.921875 -12.34375 
Q 23.78125 -13.375 27.78125 -13.375 
Q 36.625 -13.375 41.015625 -8.765625 
Q 45.40625 -4.15625 45.40625 5.171875 
L 45.40625 9.625 
Q 42.625 4.78125 38.28125 2.390625 
Q 33.9375 0 27.875 0 
Q 17.828125 0 11.671875 7.65625 
Q 5.515625 15.328125 5.515625 27.984375 
Q 5.515625 40.671875 11.671875 48.328125 
Q 17.828125 56 27.875 56 
Q 33.9375 56 38.28125 53.609375 
Q 42.625 51.21875 45.40625 46.390625 
L 45.40625 54.6875 
L 54.390625 54.6875 
z
" id="DejaVuSans-103"/>
     <path d="M 34.28125 27.484375 
Q 23.390625 27.484375 19.1875 25 
Q 14.984375 22.515625 14.984375 16.5 
Q 14.984375 11.71875 18.140625 8.90625 
Q 21.296875 6.109375 26.703125 6.109375 
Q 34.1875 6.109375 38.703125 11.40625 
Q 43.21875 16.703125 43.21875 25.484375 
L 43.21875 27.484375 
z
M 52.203125 31.203125 
L 52.203125 0 
L 43.21875 0 
L 43.21875 8.296875 
Q 40.140625 3.328125 35.546875 0.953125 
Q 30.953125 -1.421875 24.3125 -1.421875 
Q 15.921875 -1.421875 10.953125 3.296875 
Q 6 8.015625 6 15.921875 
Q 6 25.140625 12.171875 29.828125 
Q 18.359375 34.515625 30.609375 34.515625 
L 43.21875 34.515625 
L 43.21875 35.40625 
Q 43.21875 41.609375 39.140625 45 
Q 35.0625 48.390625 27.6875 48.390625 
Q 23 48.390625 18.546875 47.265625 
Q 14.109375 46.140625 10.015625 43.890625 
L 10.015625 52.203125 
Q 14.9375 54.109375 19.578125 55.046875 
Q 24.21875 56 28.609375 56 
Q 40.484375 56 46.34375 49.84375 
Q 52.203125 43.703125 52.203125 31.203125 
z
" id="DejaVuSans-97"/>
    </defs>
    <g transform="translate(116.823324 255.702621)scale(0.12 -0.12)">
     <use xlink:href="#DejaVuSans-115"/>
     <use x="52.099609" xlink:href="#DejaVuSans-105"/>
     <use x="79.882812" xlink:href="#DejaVuSans-103"/>
     <use x="143.359375" xlink:href="#DejaVuSans-109"/>
     <use x="240.771484" xlink:href="#DejaVuSans-97"/>
     <use x="302.050781" xlink:href="#DejaVuSans-50"/>
    </g>
   </g>
  </g>
  <g id="axes_6">
   <g id="patch_27">
    <path d="M 252.392727 87.353379 
L 414.72 87.353379 
L 414.72 41.472 
L 252.392727 41.472 
z
" style="fill:#ffffff;"/>
   </g>
   <g id="matplotlib.axis_11">
    <g id="xtick_18">
     <g id="line2d_50">
      <g>
       <use style="stroke:#000000;stroke-width:0.8;" x="301.614663" xlink:href="#mb6a6422b27" y="87.353379"/>
      </g>
     </g>
     <g id="text_38">
      <!-- 2 -->
      <g transform="translate(298.433413 101.951817)scale(0.1 -0.1)">
       <use xlink:href="#DejaVuSans-50"/>
      </g>
     </g>
    </g>
    <g id="xtick_19">
     <g id="line2d_51">
      <g>
       <use style="stroke:#000000;stroke-width:0.8;" x="363.360318" xlink:href="#mb6a6422b27" y="87.353379"/>
      </g>
     </g>
     <g id="text_39">
      <!-- 4 -->
      <g transform="translate(360.179068 101.951817)scale(0.1 -0.1)">
       <use xlink:href="#DejaVuSans-52"/>
      </g>
     </g>
    </g>
   </g>
   <g id="matplotlib.axis_12">
    <g id="ytick_11">
     <g id="line2d_52">
      <g>
       <use style="stroke:#000000;stroke-width:0.8;" x="252.392727" xlink:href="#mb26f2c359e" y="85.267862"/>
      </g>
     </g>
     <g id="text_40">
      <!-- 0 -->
      <g transform="translate(239.030227 89.067081)scale(0.1 -0.1)">
       <use xlink:href="#DejaVuSans-48"/>
      </g>
     </g>
    </g>
    <g id="ytick_12">
     <g id="line2d_53">
      <g>
       <use style="stroke:#000000;stroke-width:0.8;" x="252.392727" xlink:href="#mb26f2c359e" y="55.672397"/>
      </g>
     </g>
     <g id="text_41">
      <!-- 20 -->
      <g transform="translate(232.667727 59.471616)scale(0.1 -0.1)">
       <use xlink:href="#DejaVuSans-50"/>
       <use x="63.623047" xlink:href="#DejaVuSans-48"/>
      </g>
     </g>
    </g>
    <g id="text_42">
     <!-- Frequency -->
     <g transform="translate(226.58804 90.710346)rotate(-90)scale(0.1 -0.1)">
      <use xlink:href="#DejaVuSans-70"/>
      <use x="57.410156" xlink:href="#DejaVuSans-114"/>
      <use x="98.492188" xlink:href="#DejaVuSans-101"/>
      <use x="160.015625" xlink:href="#DejaVuSans-113"/>
      <use x="223.492188" xlink:href="#DejaVuSans-117"/>
      <use x="286.871094" xlink:href="#DejaVuSans-101"/>
      <use x="348.394531" xlink:href="#DejaVuSans-110"/>
      <use x="411.773438" xlink:href="#DejaVuSans-99"/>
      <use x="466.753906" xlink:href="#DejaVuSans-121"/>
     </g>
    </g>
   </g>
   <g id="line2d_54">
    <path clip-path="url(#p188906d99a)" d="M 389.28874 85.144294 
L 389.657164 85.08868 
L 390.025587 85.012715 
L 390.394011 84.911085 
L 390.762434 84.777956 
L 391.130857 84.607262 
L 391.499281 84.393131 
L 391.867704 84.130444 
L 392.236128 83.815498 
L 392.604551 83.446733 
L 392.972975 83.025449 
L 393.341398 82.556419 
L 393.709821 82.048313 
L 394.078245 81.513817 
L 394.446668 80.969394 
L 394.815092 80.434629 
L 395.183515 79.931178 
L 395.551938 79.481373 
L 395.920362 79.106615 
L 396.288785 78.825697 
L 396.657209 78.653241 
L 397.025632 78.598446 
L 397.394055 78.664266 
L 397.762479 78.847153 
L 398.130902 79.137371 
L 398.499326 79.519853 
L 398.867749 79.975503 
L 399.236173 80.482762 
L 399.604596 81.019294 
L 399.973019 81.563581 
L 400.341443 82.096286 
L 400.709866 82.601273 
L 401.07829 83.066219 
L 401.446713 83.482824 
L 401.815136 83.846653 
L 402.18356 84.156698 
L 402.551983 84.414746 
L 402.920407 84.624659 
L 403.28883 84.791653 
L 403.657253 84.921638 
L 404.025677 85.020675 
L 404.3941 85.094559 
L 404.762524 85.148547 
L 405.130947 85.187196 
L 405.499371 85.214307 
L 405.867794 85.232946 
L 406.236217 85.245508 
L 406.604641 85.253809 
L 406.973064 85.259186 
L 407.341488 85.262602 
" style="fill:none;stroke:#1f77b4;stroke-linecap:square;stroke-width:1.5;"/>
   </g>
   <g id="line2d_55">
    <path clip-path="url(#p188906d99a)" d="M 259.77124 84.791851 
L 259.822528 84.595979 
L 259.873817 84.332517 
L 259.925105 83.983602 
L 259.976394 83.528714 
L 260.027683 82.945005 
L 260.078971 82.207938 
L 260.13026 81.292274 
L 260.181549 80.173446 
L 260.232837 78.829285 
L 260.284126 77.242073 
L 260.335414 75.400797 
L 260.386703 73.303469 
L 260.437992 70.959309 
L 260.48928 68.390554 
L 260.540569 65.633669 
L 260.591857 62.739723 
L 260.643146 59.773744 
L 260.694435 56.812962 
L 260.745723 53.943912 
L 260.797012 51.258507 
L 260.8483 48.84931 
L 260.899589 46.804313 
L 260.950878 45.201637 
L 261.002166 44.104589 
L 261.053455 43.557517 
L 261.104743 43.582838 
L 261.156032 44.179508 
L 261.207321 45.323102 
L 261.258609 46.967463 
L 261.309898 49.0478 
L 261.361186 51.48492 
L 261.412475 54.190213 
L 261.463764 57.07097 
L 261.515052 60.035568 
L 261.566341 62.998149 
L 261.617629 65.882455 
L 261.668918 68.624632 
L 261.720207 71.174886 
L 261.771495 73.498032 
L 261.822784 75.573034 
L 261.874073 77.391741 
L 261.925361 78.957023 
L 261.97665 80.280577 
L 262.027938 81.380601 
L 262.079227 82.279552 
L 262.130516 83.002123 
L 262.181804 83.573538 
L 262.233093 84.01822 
L 262.284381 84.358834 
" style="fill:none;stroke:#ff7f0e;stroke-linecap:square;stroke-width:1.5;"/>
   </g>
   <g id="line2d_56">
    <path clip-path="url(#p188906d99a)" d="M 385.783645 85.267862 
L 385.783645 78.598446 
" style="fill:none;stroke:#ff0000;stroke-linecap:square;stroke-width:1.5;"/>
   </g>
   <g id="line2d_57">
    <path clip-path="url(#p188906d99a)" d="M 260.121401 85.267862 
L 260.121401 43.557517 
" style="fill:none;stroke:#ff0000;stroke-linecap:square;stroke-width:1.5;"/>
   </g>
   <g id="patch_28">
    <path d="M 252.392727 87.353379 
L 252.392727 41.472 
" style="fill:none;stroke:#000000;stroke-linecap:square;stroke-linejoin:miter;stroke-width:0.8;"/>
   </g>
   <g id="patch_29">
    <path d="M 414.72 87.353379 
L 414.72 41.472 
" style="fill:none;stroke:#000000;stroke-linecap:square;stroke-linejoin:miter;stroke-width:0.8;"/>
   </g>
   <g id="patch_30">
    <path d="M 252.392727 87.353379 
L 414.72 87.353379 
" style="fill:none;stroke:#000000;stroke-linecap:square;stroke-linejoin:miter;stroke-width:0.8;"/>
   </g>
   <g id="patch_31">
    <path d="M 252.392727 41.472 
L 414.72 41.472 
" style="fill:none;stroke:#000000;stroke-linecap:square;stroke-linejoin:miter;stroke-width:0.8;"/>
   </g>
   <g id="text_43">
    <!-- sigma1 -->
    <g transform="translate(311.616051 35.472)scale(0.12 -0.12)">
     <use xlink:href="#DejaVuSans-115"/>
     <use x="52.099609" xlink:href="#DejaVuSans-105"/>
     <use x="79.882812" xlink:href="#DejaVuSans-103"/>
     <use x="143.359375" xlink:href="#DejaVuSans-109"/>
     <use x="240.771484" xlink:href="#DejaVuSans-97"/>
     <use x="302.050781" xlink:href="#DejaVuSans-49"/>
    </g>
   </g>
  </g>
  <g id="axes_7">
   <g id="patch_32">
    <path d="M 252.392727 142.411034 
L 414.72 142.411034 
L 414.72 96.529655 
L 252.392727 96.529655 
z
" style="fill:#ffffff;"/>
   </g>
   <g id="matplotlib.axis_13">
    <g id="xtick_20">
     <g id="line2d_58">
      <g>
       <use style="stroke:#000000;stroke-width:0.8;" x="264.60951" xlink:href="#mb6a6422b27" y="142.411034"/>
      </g>
     </g>
     <g id="text_44">
      <!-- 2.5 -->
      <g transform="translate(256.657948 157.009472)scale(0.1 -0.1)">
       <use xlink:href="#DejaVuSans-50"/>
       <use x="63.623047" xlink:href="#DejaVuSans-46"/>
       <use x="95.410156" xlink:href="#DejaVuSans-53"/>
      </g>
     </g>
    </g>
    <g id="xtick_21">
     <g id="line2d_59">
      <g>
       <use style="stroke:#000000;stroke-width:0.8;" x="300.437291" xlink:href="#mb6a6422b27" y="142.411034"/>
      </g>
     </g>
     <g id="text_45">
      <!-- 5.0 -->
      <g transform="translate(292.485728 157.009472)scale(0.1 -0.1)">
       <use xlink:href="#DejaVuSans-53"/>
       <use x="63.623047" xlink:href="#DejaVuSans-46"/>
       <use x="95.410156" xlink:href="#DejaVuSans-48"/>
      </g>
     </g>
    </g>
    <g id="xtick_22">
     <g id="line2d_60">
      <g>
       <use style="stroke:#000000;stroke-width:0.8;" x="336.265071" xlink:href="#mb6a6422b27" y="142.411034"/>
      </g>
     </g>
     <g id="text_46">
      <!-- 7.5 -->
      <defs>
       <path d="M 8.203125 72.90625 
L 55.078125 72.90625 
L 55.078125 68.703125 
L 28.609375 0 
L 18.3125 0 
L 43.21875 64.59375 
L 8.203125 64.59375 
z
" id="DejaVuSans-55"/>
      </defs>
      <g transform="translate(328.313509 157.009472)scale(0.1 -0.1)">
       <use xlink:href="#DejaVuSans-55"/>
       <use x="63.623047" xlink:href="#DejaVuSans-46"/>
       <use x="95.410156" xlink:href="#DejaVuSans-53"/>
      </g>
     </g>
    </g>
    <g id="xtick_23">
     <g id="line2d_61">
      <g>
       <use style="stroke:#000000;stroke-width:0.8;" x="372.092852" xlink:href="#mb6a6422b27" y="142.411034"/>
      </g>
     </g>
     <g id="text_47">
      <!-- 10.0 -->
      <g transform="translate(360.960039 157.009472)scale(0.1 -0.1)">
       <use xlink:href="#DejaVuSans-49"/>
       <use x="63.623047" xlink:href="#DejaVuSans-48"/>
       <use x="127.246094" xlink:href="#DejaVuSans-46"/>
       <use x="159.033203" xlink:href="#DejaVuSans-48"/>
      </g>
     </g>
    </g>
    <g id="xtick_24">
     <g id="line2d_62">
      <g>
       <use style="stroke:#000000;stroke-width:0.8;" x="407.920632" xlink:href="#mb6a6422b27" y="142.411034"/>
      </g>
     </g>
     <g id="text_48">
      <!-- 12.5 -->
      <g transform="translate(396.78782 157.009472)scale(0.1 -0.1)">
       <use xlink:href="#DejaVuSans-49"/>
       <use x="63.623047" xlink:href="#DejaVuSans-50"/>
       <use x="127.246094" xlink:href="#DejaVuSans-46"/>
       <use x="159.033203" xlink:href="#DejaVuSans-53"/>
      </g>
     </g>
    </g>
   </g>
   <g id="matplotlib.axis_14">
    <g id="ytick_13">
     <g id="line2d_63">
      <g>
       <use style="stroke:#000000;stroke-width:0.8;" x="252.392727" xlink:href="#mb26f2c359e" y="140.325517"/>
      </g>
     </g>
     <g id="text_49">
      <!-- 0 -->
      <g transform="translate(239.030227 144.124736)scale(0.1 -0.1)">
       <use xlink:href="#DejaVuSans-48"/>
      </g>
     </g>
    </g>
    <g id="ytick_14">
     <g id="line2d_64">
      <g>
       <use style="stroke:#000000;stroke-width:0.8;" x="252.392727" xlink:href="#mb26f2c359e" y="111.625735"/>
      </g>
     </g>
     <g id="text_50">
      <!-- 5 -->
      <g transform="translate(239.030227 115.424954)scale(0.1 -0.1)">
       <use xlink:href="#DejaVuSans-53"/>
      </g>
     </g>
    </g>
    <g id="text_51">
     <!-- Frequency -->
     <g transform="translate(232.95054 145.768001)rotate(-90)scale(0.1 -0.1)">
      <use xlink:href="#DejaVuSans-70"/>
      <use x="57.410156" xlink:href="#DejaVuSans-114"/>
      <use x="98.492188" xlink:href="#DejaVuSans-101"/>
      <use x="160.015625" xlink:href="#DejaVuSans-113"/>
      <use x="223.492188" xlink:href="#DejaVuSans-117"/>
      <use x="286.871094" xlink:href="#DejaVuSans-101"/>
      <use x="348.394531" xlink:href="#DejaVuSans-110"/>
      <use x="411.773438" xlink:href="#DejaVuSans-99"/>
      <use x="466.753906" xlink:href="#DejaVuSans-121"/>
     </g>
    </g>
   </g>
   <g id="line2d_65">
    <path clip-path="url(#p5a532b368f)" d="M 396.912271 139.920506 
L 397.125112 139.783357 
L 397.337953 139.608339 
L 397.550794 139.38803 
L 397.763636 139.114523 
L 397.976477 138.779701 
L 398.189318 138.375616 
L 398.402159 137.894958 
L 398.615 137.331609 
L 398.827841 136.681255 
L 399.040683 135.942031 
L 399.253524 135.115148 
L 399.466365 134.20545 
L 399.679206 133.221849 
L 399.892047 132.177573 
L 400.104888 131.090191 
L 400.317729 129.981356 
L 400.530571 128.876265 
L 400.743412 127.802821 
L 400.956253 126.790544 
L 401.169094 125.869263 
L 401.381935 125.067679 
L 401.594776 124.411894 
L 401.807618 123.924002 
L 402.020459 123.620855 
L 402.2333 123.513095 
L 402.446141 123.604538 
L 402.658982 123.891946 
L 402.871823 124.365217 
L 403.084664 125.007979 
L 403.297506 125.798523 
L 403.510347 126.711028 
L 403.723188 127.716948 
L 403.936029 128.786493 
L 404.14887 129.890067 
L 404.361711 130.999587 
L 404.574553 132.0896 
L 404.787394 133.138137 
L 405.000235 134.127282 
L 405.213076 135.043444 
L 405.425917 135.877366 
L 405.638758 136.623883 
L 405.8516 137.281505 
L 406.064441 137.851869 
L 406.277282 138.339109 
L 406.490123 138.749221 
L 406.702964 139.089439 
L 406.915805 139.367677 
L 407.128646 139.592053 
L 407.341488 139.770504 
" style="fill:none;stroke:#1f77b4;stroke-linecap:square;stroke-width:1.5;"/>
   </g>
   <g id="line2d_66">
    <path clip-path="url(#p5a532b368f)" d="M 261.400854 140.11517 
L 261.506213 140.003188 
L 261.611573 139.840377 
L 261.716932 139.608317 
L 261.822292 139.284116 
L 261.927651 138.840262 
L 262.03301 138.244914 
L 262.13837 137.462774 
L 262.243729 136.456678 
L 262.349088 135.190002 
L 262.454448 133.629872 
L 262.559807 131.751074 
L 262.665166 129.540409 
L 262.770526 127.001102 
L 262.875885 124.15675 
L 262.981244 121.05423 
L 263.086604 117.764971 
L 263.191963 114.384106 
L 263.297322 111.027201 
L 263.402682 107.824511 
L 263.508041 104.913062 
L 263.6134 102.427163 
L 263.71876 100.488231 
L 263.824119 99.194995 
L 263.929478 98.615172 
L 264.034838 98.779593 
L 264.140197 99.679487 
L 264.245557 101.267253 
L 264.350916 103.460637 
L 264.456275 106.149787 
L 264.561635 109.206359 
L 264.666994 112.493609 
L 264.772353 115.876399 
L 264.877713 119.230082 
L 264.983072 122.44752 
L 265.088431 125.443756 
L 265.193791 128.158199 
L 265.29915 130.554484 
L 265.404509 132.618414 
L 265.509869 134.354518 
L 265.615228 135.781836 
L 265.720587 136.929469 
L 265.825947 137.832388 
L 265.931306 138.527802 
L 266.036665 139.052301 
L 266.142025 139.439814 
L 266.247384 139.720344 
L 266.352744 139.919377 
L 266.458103 140.057799 
L 266.563462 140.152183 
" style="fill:none;stroke:#ff7f0e;stroke-linecap:square;stroke-width:1.5;"/>
   </g>
   <g id="line2d_67">
    <path clip-path="url(#p5a532b368f)" d="M 399.058558 140.325517 
L 399.058558 123.513095 
" style="fill:none;stroke:#ff0000;stroke-linecap:square;stroke-width:1.5;"/>
   </g>
   <g id="line2d_68">
    <path clip-path="url(#p5a532b368f)" d="M 259.77124 140.325517 
L 259.77124 98.615172 
" style="fill:none;stroke:#ff0000;stroke-linecap:square;stroke-width:1.5;"/>
   </g>
   <g id="patch_33">
    <path d="M 252.392727 142.411034 
L 252.392727 96.529655 
" style="fill:none;stroke:#000000;stroke-linecap:square;stroke-linejoin:miter;stroke-width:0.8;"/>
   </g>
   <g id="patch_34">
    <path d="M 414.72 142.411034 
L 414.72 96.529655 
" style="fill:none;stroke:#000000;stroke-linecap:square;stroke-linejoin:miter;stroke-width:0.8;"/>
   </g>
   <g id="patch_35">
    <path d="M 252.392727 142.411034 
L 414.72 142.411034 
" style="fill:none;stroke:#000000;stroke-linecap:square;stroke-linejoin:miter;stroke-width:0.8;"/>
   </g>
   <g id="patch_36">
    <path d="M 252.392727 96.529655 
L 414.72 96.529655 
" style="fill:none;stroke:#000000;stroke-linecap:square;stroke-linejoin:miter;stroke-width:0.8;"/>
   </g>
   <g id="text_52">
    <!-- sigma0 -->
    <g transform="translate(311.616051 90.529655)scale(0.12 -0.12)">
     <use xlink:href="#DejaVuSans-115"/>
     <use x="52.099609" xlink:href="#DejaVuSans-105"/>
     <use x="79.882812" xlink:href="#DejaVuSans-103"/>
     <use x="143.359375" xlink:href="#DejaVuSans-109"/>
     <use x="240.771484" xlink:href="#DejaVuSans-97"/>
     <use x="302.050781" xlink:href="#DejaVuSans-48"/>
    </g>
   </g>
  </g>
  <g id="axes_8">
   <g id="patch_37">
    <path d="M 252.392727 197.46869 
L 414.72 197.46869 
L 414.72 151.58731 
L 252.392727 151.58731 
z
" style="fill:#ffffff;"/>
   </g>
   <g id="matplotlib.axis_15">
    <g id="xtick_25">
     <g id="line2d_69">
      <g>
       <use style="stroke:#000000;stroke-width:0.8;" x="254.618034" xlink:href="#mb6a6422b27" y="197.46869"/>
      </g>
     </g>
     <g id="text_53">
      <!-- 0.05 -->
      <defs>
       <path d="M 10.59375 35.5 
L 73.1875 35.5 
L 73.1875 27.203125 
L 10.59375 27.203125 
z
" id="DejaVuSans-8722"/>
      </defs>
      <g transform="translate(239.295378 212.067127)scale(0.1 -0.1)">
       <use xlink:href="#DejaVuSans-8722"/>
       <use x="83.789062" xlink:href="#DejaVuSans-48"/>
       <use x="147.412109" xlink:href="#DejaVuSans-46"/>
       <use x="179.199219" xlink:href="#DejaVuSans-48"/>
       <use x="242.822266" xlink:href="#DejaVuSans-53"/>
      </g>
     </g>
    </g>
    <g id="xtick_26">
     <g id="line2d_70">
      <g>
       <use style="stroke:#000000;stroke-width:0.8;" x="316.013267" xlink:href="#mb6a6422b27" y="197.46869"/>
      </g>
     </g>
     <g id="text_54">
      <!-- 0.00 -->
      <g transform="translate(304.880455 212.067127)scale(0.1 -0.1)">
       <use xlink:href="#DejaVuSans-48"/>
       <use x="63.623047" xlink:href="#DejaVuSans-46"/>
       <use x="95.410156" xlink:href="#DejaVuSans-48"/>
       <use x="159.033203" xlink:href="#DejaVuSans-48"/>
      </g>
     </g>
    </g>
    <g id="xtick_27">
     <g id="line2d_71">
      <g>
       <use style="stroke:#000000;stroke-width:0.8;" x="377.4085" xlink:href="#mb6a6422b27" y="197.46869"/>
      </g>
     </g>
     <g id="text_55">
      <!-- 0.05 -->
      <g transform="translate(366.275688 212.067127)scale(0.1 -0.1)">
       <use xlink:href="#DejaVuSans-48"/>
       <use x="63.623047" xlink:href="#DejaVuSans-46"/>
       <use x="95.410156" xlink:href="#DejaVuSans-48"/>
       <use x="159.033203" xlink:href="#DejaVuSans-53"/>
      </g>
     </g>
    </g>
   </g>
   <g id="matplotlib.axis_16">
    <g id="ytick_15">
     <g id="line2d_72">
      <g>
       <use style="stroke:#000000;stroke-width:0.8;" x="252.392727" xlink:href="#mb26f2c359e" y="195.383172"/>
      </g>
     </g>
     <g id="text_56">
      <!-- 0 -->
      <g transform="translate(239.030227 199.182391)scale(0.1 -0.1)">
       <use xlink:href="#DejaVuSans-48"/>
      </g>
     </g>
    </g>
    <g id="ytick_16">
     <g id="line2d_73">
      <g>
       <use style="stroke:#000000;stroke-width:0.8;" x="252.392727" xlink:href="#mb26f2c359e" y="171.495287"/>
      </g>
     </g>
     <g id="text_57">
      <!-- 10 -->
      <g transform="translate(232.667727 175.294506)scale(0.1 -0.1)">
       <use xlink:href="#DejaVuSans-49"/>
       <use x="63.623047" xlink:href="#DejaVuSans-48"/>
      </g>
     </g>
    </g>
    <g id="text_58">
     <!-- Frequency -->
     <g transform="translate(226.58804 200.825656)rotate(-90)scale(0.1 -0.1)">
      <use xlink:href="#DejaVuSans-70"/>
      <use x="57.410156" xlink:href="#DejaVuSans-114"/>
      <use x="98.492188" xlink:href="#DejaVuSans-101"/>
      <use x="160.015625" xlink:href="#DejaVuSans-113"/>
      <use x="223.492188" xlink:href="#DejaVuSans-117"/>
      <use x="286.871094" xlink:href="#DejaVuSans-101"/>
      <use x="348.394531" xlink:href="#DejaVuSans-110"/>
      <use x="411.773438" xlink:href="#DejaVuSans-99"/>
      <use x="466.753906" xlink:href="#DejaVuSans-121"/>
     </g>
    </g>
   </g>
   <g id="line2d_74">
    <path clip-path="url(#p39e8c66e51)" d="M 259.77124 193.851592 
L 262.782877 193.37657 
L 265.794515 192.784326 
L 268.806153 192.055829 
L 271.817791 191.171907 
L 274.829428 190.114208 
L 277.841066 188.866353 
L 280.852704 187.415272 
L 283.864341 185.752649 
L 286.875979 183.876396 
L 289.887617 181.792053 
L 292.899255 179.51399 
L 295.910892 177.066285 
L 298.92253 174.483159 
L 301.934168 171.808849 
L 304.945805 169.096859 
L 307.957443 166.408541 
L 310.969081 163.81104 
L 313.980719 161.374654 
L 316.992356 159.169775 
L 320.003994 157.263548 
L 323.015632 155.716503 
L 326.027269 154.57937 
L 329.038907 153.890317 
L 332.050545 153.672828 
L 335.062182 153.934367 
L 338.07382 154.66596 
L 341.085458 155.842702 
L 344.097096 157.425165 
L 347.108733 159.361592 
L 350.120371 161.590706 
L 353.132009 164.044918 
L 356.143646 166.65371 
L 359.155284 169.346951 
L 362.166922 172.057928 
L 365.17856 174.725935 
L 368.190197 177.298275 
L 371.201835 179.731613 
L 374.213473 181.992666 
L 377.22511 184.058279 
L 380.236748 185.914937 
L 383.248386 187.557859 
L 386.260024 188.989767 
L 389.271661 190.219479 
L 392.283299 191.260427 
L 395.294937 192.129226 
L 398.306574 192.844352 
L 401.318212 193.424998 
L 404.32985 193.890143 
L 407.341488 194.257833 
" style="fill:none;stroke:#1f77b4;stroke-linecap:square;stroke-width:1.5;"/>
   </g>
   <g id="line2d_75">
    <path clip-path="url(#p39e8c66e51)" d="M 315.535432 195.383172 
L 315.535432 153.672828 
" style="fill:none;stroke:#ff0000;stroke-linecap:square;stroke-width:1.5;"/>
   </g>
   <g id="patch_38">
    <path d="M 252.392727 197.46869 
L 252.392727 151.58731 
" style="fill:none;stroke:#000000;stroke-linecap:square;stroke-linejoin:miter;stroke-width:0.8;"/>
   </g>
   <g id="patch_39">
    <path d="M 414.72 197.46869 
L 414.72 151.58731 
" style="fill:none;stroke:#000000;stroke-linecap:square;stroke-linejoin:miter;stroke-width:0.8;"/>
   </g>
   <g id="patch_40">
    <path d="M 252.392727 197.46869 
L 414.72 197.46869 
" style="fill:none;stroke:#000000;stroke-linecap:square;stroke-linejoin:miter;stroke-width:0.8;"/>
   </g>
   <g id="patch_41">
    <path d="M 252.392727 151.58731 
L 414.72 151.58731 
" style="fill:none;stroke:#000000;stroke-linecap:square;stroke-linejoin:miter;stroke-width:0.8;"/>
   </g>
   <g id="text_59">
    <!-- corr2 -->
    <defs>
     <path d="M 30.609375 48.390625 
Q 23.390625 48.390625 19.1875 42.75 
Q 14.984375 37.109375 14.984375 27.296875 
Q 14.984375 17.484375 19.15625 11.84375 
Q 23.34375 6.203125 30.609375 6.203125 
Q 37.796875 6.203125 41.984375 11.859375 
Q 46.1875 17.53125 46.1875 27.296875 
Q 46.1875 37.015625 41.984375 42.703125 
Q 37.796875 48.390625 30.609375 48.390625 
z
M 30.609375 56 
Q 42.328125 56 49.015625 48.375 
Q 55.71875 40.765625 55.71875 27.296875 
Q 55.71875 13.875 49.015625 6.21875 
Q 42.328125 -1.421875 30.609375 -1.421875 
Q 18.84375 -1.421875 12.171875 6.21875 
Q 5.515625 13.875 5.515625 27.296875 
Q 5.515625 40.765625 12.171875 48.375 
Q 18.84375 56 30.609375 56 
z
" id="DejaVuSans-111"/>
    </defs>
    <g transform="translate(317.836364 145.58731)scale(0.12 -0.12)">
     <use xlink:href="#DejaVuSans-99"/>
     <use x="54.980469" xlink:href="#DejaVuSans-111"/>
     <use x="116.162109" xlink:href="#DejaVuSans-114"/>
     <use x="157.259766" xlink:href="#DejaVuSans-114"/>
     <use x="198.373047" xlink:href="#DejaVuSans-50"/>
    </g>
   </g>
  </g>
  <g id="axes_9">
   <g id="patch_42">
    <path d="M 252.392727 252.526345 
L 414.72 252.526345 
L 414.72 206.644966 
L 252.392727 206.644966 
z
" style="fill:#ffffff;"/>
   </g>
   <g id="matplotlib.axis_17">
    <g id="xtick_28">
     <g id="line2d_76">
      <g>
       <use style="stroke:#000000;stroke-width:0.8;" x="305.452203" xlink:href="#mb6a6422b27" y="252.526345"/>
      </g>
     </g>
     <g id="text_60">
      <!-- 0.05 -->
      <g transform="translate(294.319391 267.124782)scale(0.1 -0.1)">
       <use xlink:href="#DejaVuSans-48"/>
       <use x="63.623047" xlink:href="#DejaVuSans-46"/>
       <use x="95.410156" xlink:href="#DejaVuSans-48"/>
       <use x="159.033203" xlink:href="#DejaVuSans-53"/>
      </g>
     </g>
    </g>
    <g id="xtick_29">
     <g id="line2d_77">
      <g>
       <use style="stroke:#000000;stroke-width:0.8;" x="367.369745" xlink:href="#mb6a6422b27" y="252.526345"/>
      </g>
     </g>
     <g id="text_61">
      <!-- 0.10 -->
      <g transform="translate(356.236933 267.124782)scale(0.1 -0.1)">
       <use xlink:href="#DejaVuSans-48"/>
       <use x="63.623047" xlink:href="#DejaVuSans-46"/>
       <use x="95.410156" xlink:href="#DejaVuSans-49"/>
       <use x="159.033203" xlink:href="#DejaVuSans-48"/>
      </g>
     </g>
    </g>
   </g>
   <g id="matplotlib.axis_18">
    <g id="ytick_17">
     <g id="line2d_78">
      <g>
       <use style="stroke:#000000;stroke-width:0.8;" x="252.392727" xlink:href="#mb26f2c359e" y="250.440828"/>
      </g>
     </g>
     <g id="text_62">
      <!-- 0 -->
      <g transform="translate(239.030227 254.240046)scale(0.1 -0.1)">
       <use xlink:href="#DejaVuSans-48"/>
      </g>
     </g>
    </g>
    <g id="ytick_18">
     <g id="line2d_79">
      <g>
       <use style="stroke:#000000;stroke-width:0.8;" x="252.392727" xlink:href="#mb26f2c359e" y="208.515472"/>
      </g>
     </g>
     <g id="text_63">
      <!-- 20 -->
      <g transform="translate(232.667727 212.31469)scale(0.1 -0.1)">
       <use xlink:href="#DejaVuSans-50"/>
       <use x="63.623047" xlink:href="#DejaVuSans-48"/>
      </g>
     </g>
    </g>
    <g id="text_64">
     <!-- Frequency -->
     <g transform="translate(226.58804 255.883311)rotate(-90)scale(0.1 -0.1)">
      <use xlink:href="#DejaVuSans-70"/>
      <use x="57.410156" xlink:href="#DejaVuSans-114"/>
      <use x="98.492188" xlink:href="#DejaVuSans-101"/>
      <use x="160.015625" xlink:href="#DejaVuSans-113"/>
      <use x="223.492188" xlink:href="#DejaVuSans-117"/>
      <use x="286.871094" xlink:href="#DejaVuSans-101"/>
      <use x="348.394531" xlink:href="#DejaVuSans-110"/>
      <use x="411.773438" xlink:href="#DejaVuSans-99"/>
      <use x="466.753906" xlink:href="#DejaVuSans-121"/>
     </g>
    </g>
   </g>
   <g id="line2d_80">
    <path clip-path="url(#p7d60112f05)" d="M 259.77124 250.269689 
L 262.782877 250.186789 
L 265.794515 250.069243 
L 268.806153 249.905255 
L 271.817791 249.680181 
L 274.829428 249.376313 
L 277.841066 248.972833 
L 280.852704 248.446021 
L 283.864341 247.769783 
L 286.875979 246.916589 
L 289.887617 245.858846 
L 292.899255 244.57073 
L 295.910892 243.030436 
L 298.92253 241.222739 
L 301.934168 239.141712 
L 304.945805 236.793365 
L 307.957443 234.197939 
L 310.969081 231.391552 
L 313.980719 228.426899 
L 316.992356 225.372779 
L 320.003994 222.312276 
L 323.015632 219.33956 
L 326.027269 216.555423 
L 329.038907 214.061795 
L 332.050545 211.95565 
L 335.062182 210.322787 
L 338.07382 209.232043 
L 341.085458 208.730483 
L 344.097096 208.840033 
L 347.108733 209.555889 
L 350.120371 210.846866 
L 353.132009 212.657654 
L 356.143646 214.912744 
L 359.155284 217.521647 
L 362.166922 220.384901 
L 365.17856 223.400304 
L 368.190197 226.468845 
L 371.201835 229.499863 
L 374.213473 232.41508 
L 377.22511 235.15131 
L 380.236748 237.66179 
L 383.248386 239.916209 
L 386.260024 241.899635 
L 389.271661 243.610611 
L 392.283299 245.058696 
L 395.294937 246.261773 
L 398.306574 247.243363 
L 401.318212 248.030161 
L 404.32985 248.649923 
L 407.341488 249.1298 
" style="fill:none;stroke:#1f77b4;stroke-linecap:square;stroke-width:1.5;"/>
   </g>
   <g id="line2d_81">
    <path clip-path="url(#p7d60112f05)" d="M 337.876647 250.440828 
L 337.876647 208.730483 
" style="fill:none;stroke:#ff0000;stroke-linecap:square;stroke-width:1.5;"/>
   </g>
   <g id="patch_43">
    <path d="M 252.392727 252.526345 
L 252.392727 206.644966 
" style="fill:none;stroke:#000000;stroke-linecap:square;stroke-linejoin:miter;stroke-width:0.8;"/>
   </g>
   <g id="patch_44">
    <path d="M 414.72 252.526345 
L 414.72 206.644966 
" style="fill:none;stroke:#000000;stroke-linecap:square;stroke-linejoin:miter;stroke-width:0.8;"/>
   </g>
   <g id="patch_45">
    <path d="M 252.392727 252.526345 
L 414.72 252.526345 
" style="fill:none;stroke:#000000;stroke-linecap:square;stroke-linejoin:miter;stroke-width:0.8;"/>
   </g>
   <g id="patch_46">
    <path d="M 252.392727 206.644966 
L 414.72 206.644966 
" style="fill:none;stroke:#000000;stroke-linecap:square;stroke-linejoin:miter;stroke-width:0.8;"/>
   </g>
   <g id="text_65">
    <!-- corr1 -->
    <g transform="translate(317.836364 200.644966)scale(0.12 -0.12)">
     <use xlink:href="#DejaVuSans-99"/>
     <use x="54.980469" xlink:href="#DejaVuSans-111"/>
     <use x="116.162109" xlink:href="#DejaVuSans-114"/>
     <use x="157.259766" xlink:href="#DejaVuSans-114"/>
     <use x="198.373047" xlink:href="#DejaVuSans-49"/>
    </g>
   </g>
  </g>
  <g id="axes_10">
   <g id="patch_47">
    <path d="M 252.392727 307.584 
L 414.72 307.584 
L 414.72 261.702621 
L 252.392727 261.702621 
z
" style="fill:#ffffff;"/>
   </g>
   <g id="matplotlib.axis_19">
    <g id="xtick_30">
     <g id="line2d_82">
      <g>
       <use style="stroke:#000000;stroke-width:0.8;" x="277.893311" xlink:href="#mb6a6422b27" y="307.584"/>
      </g>
     </g>
     <g id="text_66">
      <!-- 0.175 -->
      <g transform="translate(263.579249 322.182437)scale(0.1 -0.1)">
       <use xlink:href="#DejaVuSans-48"/>
       <use x="63.623047" xlink:href="#DejaVuSans-46"/>
       <use x="95.410156" xlink:href="#DejaVuSans-49"/>
       <use x="159.033203" xlink:href="#DejaVuSans-55"/>
       <use x="222.65625" xlink:href="#DejaVuSans-53"/>
      </g>
     </g>
    </g>
    <g id="xtick_31">
     <g id="line2d_83">
      <g>
       <use style="stroke:#000000;stroke-width:0.8;" x="314.283056" xlink:href="#mb6a6422b27" y="307.584"/>
      </g>
     </g>
     <g id="text_67">
      <!-- 0.200 -->
      <g transform="translate(299.968993 322.182437)scale(0.1 -0.1)">
       <use xlink:href="#DejaVuSans-48"/>
       <use x="63.623047" xlink:href="#DejaVuSans-46"/>
       <use x="95.410156" xlink:href="#DejaVuSans-50"/>
       <use x="159.033203" xlink:href="#DejaVuSans-48"/>
       <use x="222.65625" xlink:href="#DejaVuSans-48"/>
      </g>
     </g>
    </g>
    <g id="xtick_32">
     <g id="line2d_84">
      <g>
       <use style="stroke:#000000;stroke-width:0.8;" x="350.6728" xlink:href="#mb6a6422b27" y="307.584"/>
      </g>
     </g>
     <g id="text_68">
      <!-- 0.225 -->
      <g transform="translate(336.358737 322.182437)scale(0.1 -0.1)">
       <use xlink:href="#DejaVuSans-48"/>
       <use x="63.623047" xlink:href="#DejaVuSans-46"/>
       <use x="95.410156" xlink:href="#DejaVuSans-50"/>
       <use x="159.033203" xlink:href="#DejaVuSans-50"/>
       <use x="222.65625" xlink:href="#DejaVuSans-53"/>
      </g>
     </g>
    </g>
    <g id="xtick_33">
     <g id="line2d_85">
      <g>
       <use style="stroke:#000000;stroke-width:0.8;" x="387.062544" xlink:href="#mb6a6422b27" y="307.584"/>
      </g>
     </g>
     <g id="text_69">
      <!-- 0.250 -->
      <g transform="translate(372.748482 322.182437)scale(0.1 -0.1)">
       <use xlink:href="#DejaVuSans-48"/>
       <use x="63.623047" xlink:href="#DejaVuSans-46"/>
       <use x="95.410156" xlink:href="#DejaVuSans-50"/>
       <use x="159.033203" xlink:href="#DejaVuSans-53"/>
       <use x="222.65625" xlink:href="#DejaVuSans-48"/>
      </g>
     </g>
    </g>
   </g>
   <g id="matplotlib.axis_20">
    <g id="ytick_19">
     <g id="line2d_86">
      <g>
       <use style="stroke:#000000;stroke-width:0.8;" x="252.392727" xlink:href="#mb26f2c359e" y="305.498483"/>
      </g>
     </g>
     <g id="text_70">
      <!-- 0 -->
      <g transform="translate(239.030227 309.297702)scale(0.1 -0.1)">
       <use xlink:href="#DejaVuSans-48"/>
      </g>
     </g>
    </g>
    <g id="ytick_20">
     <g id="line2d_87">
      <g>
       <use style="stroke:#000000;stroke-width:0.8;" x="252.392727" xlink:href="#mb26f2c359e" y="269.675965"/>
      </g>
     </g>
     <g id="text_71">
      <!-- 20 -->
      <g transform="translate(232.667727 273.475184)scale(0.1 -0.1)">
       <use xlink:href="#DejaVuSans-50"/>
       <use x="63.623047" xlink:href="#DejaVuSans-48"/>
      </g>
     </g>
    </g>
    <g id="text_72">
     <!-- Frequency -->
     <g transform="translate(226.58804 310.940967)rotate(-90)scale(0.1 -0.1)">
      <use xlink:href="#DejaVuSans-70"/>
      <use x="57.410156" xlink:href="#DejaVuSans-114"/>
      <use x="98.492188" xlink:href="#DejaVuSans-101"/>
      <use x="160.015625" xlink:href="#DejaVuSans-113"/>
      <use x="223.492188" xlink:href="#DejaVuSans-117"/>
      <use x="286.871094" xlink:href="#DejaVuSans-101"/>
      <use x="348.394531" xlink:href="#DejaVuSans-110"/>
      <use x="411.773438" xlink:href="#DejaVuSans-99"/>
      <use x="466.753906" xlink:href="#DejaVuSans-121"/>
     </g>
    </g>
   </g>
   <g id="line2d_88">
    <path clip-path="url(#pb7b5ca5e82)" d="M 259.77124 304.963912 
L 262.782877 304.740169 
L 265.794515 304.438387 
L 268.806153 304.03801 
L 271.817791 303.515616 
L 274.829428 302.845429 
L 277.841066 302.000236 
L 280.852704 300.952717 
L 283.864341 299.677239 
L 286.875979 298.152048 
L 289.887617 296.361778 
L 292.899255 294.300116 
L 295.910892 291.972404 
L 298.92253 289.397913 
L 301.934168 286.611496 
L 304.945805 283.664334 
L 307.957443 280.623548 
L 310.969081 277.570488 
L 313.980719 274.597686 
L 316.992356 271.804548 
L 320.003994 269.292036 
L 323.015632 267.15671 
L 326.027269 265.484609 
L 329.038907 264.345518 
L 332.050545 263.788138 
L 335.062182 263.836633 
L 338.07382 264.488892 
L 341.085458 265.716681 
L 344.097096 267.467672 
L 347.108733 269.669141 
L 350.120371 272.232972 
L 353.132009 275.061493 
L 356.143646 278.053605 
L 359.155284 281.11066 
L 362.166922 284.141648 
L 365.17856 287.067315 
L 368.190197 289.822999 
L 371.201835 292.360123 
L 374.213473 294.64639 
L 377.22511 296.664879 
L 380.236748 298.412265 
L 383.248386 299.896482 
L 386.260024 301.134088 
L 389.271661 302.147618 
L 392.283299 302.963109 
L 395.294937 303.607972 
L 398.306574 304.109271 
L 401.318212 304.492455 
L 404.32985 304.780518 
L 407.341488 304.993532 
" style="fill:none;stroke:#1f77b4;stroke-linecap:square;stroke-width:1.5;"/>
   </g>
   <g id="line2d_89">
    <path clip-path="url(#pb7b5ca5e82)" d="M 344.970832 305.498483 
L 344.970832 263.788138 
" style="fill:none;stroke:#ff0000;stroke-linecap:square;stroke-width:1.5;"/>
   </g>
   <g id="patch_48">
    <path d="M 252.392727 307.584 
L 252.392727 261.702621 
" style="fill:none;stroke:#000000;stroke-linecap:square;stroke-linejoin:miter;stroke-width:0.8;"/>
   </g>
   <g id="patch_49">
    <path d="M 414.72 307.584 
L 414.72 261.702621 
" style="fill:none;stroke:#000000;stroke-linecap:square;stroke-linejoin:miter;stroke-width:0.8;"/>
   </g>
   <g id="patch_50">
    <path d="M 252.392727 307.584 
L 414.72 307.584 
" style="fill:none;stroke:#000000;stroke-linecap:square;stroke-linejoin:miter;stroke-width:0.8;"/>
   </g>
   <g id="patch_51">
    <path d="M 252.392727 261.702621 
L 414.72 261.702621 
" style="fill:none;stroke:#000000;stroke-linecap:square;stroke-linejoin:miter;stroke-width:0.8;"/>
   </g>
   <g id="text_73">
    <!-- corr0 -->
    <g transform="translate(317.836364 255.702621)scale(0.12 -0.12)">
     <use xlink:href="#DejaVuSans-99"/>
     <use x="54.980469" xlink:href="#DejaVuSans-111"/>
     <use x="116.162109" xlink:href="#DejaVuSans-114"/>
     <use x="157.259766" xlink:href="#DejaVuSans-114"/>
     <use x="198.373047" xlink:href="#DejaVuSans-48"/>
    </g>
   </g>
  </g>
 </g>
 <defs>
  <clipPath id="p3093971c48">
   <rect height="45.881379" width="162.327273" x="57.6" y="41.472"/>
  </clipPath>
  <clipPath id="p40ef130f58">
   <rect height="45.881379" width="162.327273" x="57.6" y="96.529655"/>
  </clipPath>
  <clipPath id="p6351e892f8">
   <rect height="45.881379" width="162.327273" x="57.6" y="151.58731"/>
  </clipPath>
  <clipPath id="p4c756f225e">
   <rect height="45.881379" width="162.327273" x="57.6" y="206.644966"/>
  </clipPath>
  <clipPath id="pceb1390de3">
   <rect height="45.881379" width="162.327273" x="57.6" y="261.702621"/>
  </clipPath>
  <clipPath id="p188906d99a">
   <rect height="45.881379" width="162.327273" x="252.392727" y="41.472"/>
  </clipPath>
  <clipPath id="p5a532b368f">
   <rect height="45.881379" width="162.327273" x="252.392727" y="96.529655"/>
  </clipPath>
  <clipPath id="p39e8c66e51">
   <rect height="45.881379" width="162.327273" x="252.392727" y="151.58731"/>
  </clipPath>
  <clipPath id="p7d60112f05">
   <rect height="45.881379" width="162.327273" x="252.392727" y="206.644966"/>
  </clipPath>
  <clipPath id="pb7b5ca5e82">
   <rect height="45.881379" width="162.327273" x="252.392727" y="261.702621"/>
  </clipPath>
 </defs>
</svg>
