<?xml version="1.0" encoding="utf-8" standalone="no"?>
<!DOCTYPE svg PUBLIC "-//W3C//DTD SVG 1.1//EN"
  "http://www.w3.org/Graphics/SVG/1.1/DTD/svg11.dtd">
<!-- Created with matplotlib (https://matplotlib.org/) -->
<svg height="345.6pt" version="1.1" viewBox="0 0 460.8 345.6" width="460.8pt" xmlns="http://www.w3.org/2000/svg" xmlns:xlink="http://www.w3.org/1999/xlink">
 <defs>
  <style type="text/css">
*{stroke-linecap:butt;stroke-linejoin:round;}
  </style>
 </defs>
 <g id="figure_1">
  <g id="patch_1">
   <path d="M 0 345.6 
L 460.8 345.6 
L 460.8 0 
L 0 0 
z
" style="fill:#ffffff;"/>
  </g>
  <g id="axes_1">
   <g id="patch_2">
    <path d="M 57.6 87.353379 
L 219.927273 87.353379 
L 219.927273 41.472 
L 57.6 41.472 
z
" style="fill:#ffffff;"/>
   </g>
   <g id="matplotlib.axis_1">
    <g id="xtick_1">
     <g id="line2d_1">
      <defs>
       <path d="M 0 0 
L 0 3.5 
" id="maad8e95a0c" style="stroke:#000000;stroke-width:0.8;"/>
      </defs>
      <g>
       <use style="stroke:#000000;stroke-width:0.8;" x="90.819367" xlink:href="#maad8e95a0c" y="87.353379"/>
      </g>
     </g>
     <g id="text_1">
      <!-- 0.2 -->
      <defs>
       <path d="M 31.78125 66.40625 
Q 24.171875 66.40625 20.328125 58.90625 
Q 16.5 51.421875 16.5 36.375 
Q 16.5 21.390625 20.328125 13.890625 
Q 24.171875 6.390625 31.78125 6.390625 
Q 39.453125 6.390625 43.28125 13.890625 
Q 47.125 21.390625 47.125 36.375 
Q 47.125 51.421875 43.28125 58.90625 
Q 39.453125 66.40625 31.78125 66.40625 
z
M 31.78125 74.21875 
Q 44.046875 74.21875 50.515625 64.515625 
Q 56.984375 54.828125 56.984375 36.375 
Q 56.984375 17.96875 50.515625 8.265625 
Q 44.046875 -1.421875 31.78125 -1.421875 
Q 19.53125 -1.421875 13.0625 8.265625 
Q 6.59375 17.96875 6.59375 36.375 
Q 6.59375 54.828125 13.0625 64.515625 
Q 19.53125 74.21875 31.78125 74.21875 
z
" id="DejaVuSans-48"/>
       <path d="M 10.6875 12.40625 
L 21 12.40625 
L 21 0 
L 10.6875 0 
z
" id="DejaVuSans-46"/>
       <path d="M 19.1875 8.296875 
L 53.609375 8.296875 
L 53.609375 0 
L 7.328125 0 
L 7.328125 8.296875 
Q 12.9375 14.109375 22.625 23.890625 
Q 32.328125 33.6875 34.8125 36.53125 
Q 39.546875 41.84375 41.421875 45.53125 
Q 43.3125 49.21875 43.3125 52.78125 
Q 43.3125 58.59375 39.234375 62.25 
Q 35.15625 65.921875 28.609375 65.921875 
Q 23.96875 65.921875 18.8125 64.3125 
Q 13.671875 62.703125 7.8125 59.421875 
L 7.8125 69.390625 
Q 13.765625 71.78125 18.9375 73 
Q 24.125 74.21875 28.421875 74.21875 
Q 39.75 74.21875 46.484375 68.546875 
Q 53.21875 62.890625 53.21875 53.421875 
Q 53.21875 48.921875 51.53125 44.890625 
Q 49.859375 40.875 45.40625 35.40625 
Q 44.1875 33.984375 37.640625 27.21875 
Q 31.109375 20.453125 19.1875 8.296875 
z
" id="DejaVuSans-50"/>
      </defs>
      <g transform="translate(82.867805 101.951817)scale(0.1 -0.1)">
       <use xlink:href="#DejaVuSans-48"/>
       <use x="63.623047" xlink:href="#DejaVuSans-46"/>
       <use x="95.410156" xlink:href="#DejaVuSans-50"/>
      </g>
     </g>
    </g>
    <g id="xtick_2">
     <g id="line2d_2">
      <g>
       <use style="stroke:#000000;stroke-width:0.8;" x="136.857578" xlink:href="#maad8e95a0c" y="87.353379"/>
      </g>
     </g>
     <g id="text_2">
      <!-- 0.3 -->
      <defs>
       <path d="M 40.578125 39.3125 
Q 47.65625 37.796875 51.625 33 
Q 55.609375 28.21875 55.609375 21.1875 
Q 55.609375 10.40625 48.1875 4.484375 
Q 40.765625 -1.421875 27.09375 -1.421875 
Q 22.515625 -1.421875 17.65625 -0.515625 
Q 12.796875 0.390625 7.625 2.203125 
L 7.625 11.71875 
Q 11.71875 9.328125 16.59375 8.109375 
Q 21.484375 6.890625 26.8125 6.890625 
Q 36.078125 6.890625 40.9375 10.546875 
Q 45.796875 14.203125 45.796875 21.1875 
Q 45.796875 27.640625 41.28125 31.265625 
Q 36.765625 34.90625 28.71875 34.90625 
L 20.21875 34.90625 
L 20.21875 43.015625 
L 29.109375 43.015625 
Q 36.375 43.015625 40.234375 45.921875 
Q 44.09375 48.828125 44.09375 54.296875 
Q 44.09375 59.90625 40.109375 62.90625 
Q 36.140625 65.921875 28.71875 65.921875 
Q 24.65625 65.921875 20.015625 65.03125 
Q 15.375 64.15625 9.8125 62.3125 
L 9.8125 71.09375 
Q 15.4375 72.65625 20.34375 73.4375 
Q 25.25 74.21875 29.59375 74.21875 
Q 40.828125 74.21875 47.359375 69.109375 
Q 53.90625 64.015625 53.90625 55.328125 
Q 53.90625 49.265625 50.4375 45.09375 
Q 46.96875 40.921875 40.578125 39.3125 
z
" id="DejaVuSans-51"/>
      </defs>
      <g transform="translate(128.906015 101.951817)scale(0.1 -0.1)">
       <use xlink:href="#DejaVuSans-48"/>
       <use x="63.623047" xlink:href="#DejaVuSans-46"/>
       <use x="95.410156" xlink:href="#DejaVuSans-51"/>
      </g>
     </g>
    </g>
    <g id="xtick_3">
     <g id="line2d_3">
      <g>
       <use style="stroke:#000000;stroke-width:0.8;" x="182.895789" xlink:href="#maad8e95a0c" y="87.353379"/>
      </g>
     </g>
     <g id="text_3">
      <!-- 0.4 -->
      <defs>
       <path d="M 37.796875 64.3125 
L 12.890625 25.390625 
L 37.796875 25.390625 
z
M 35.203125 72.90625 
L 47.609375 72.90625 
L 47.609375 25.390625 
L 58.015625 25.390625 
L 58.015625 17.1875 
L 47.609375 17.1875 
L 47.609375 0 
L 37.796875 0 
L 37.796875 17.1875 
L 4.890625 17.1875 
L 4.890625 26.703125 
z
" id="DejaVuSans-52"/>
      </defs>
      <g transform="translate(174.944226 101.951817)scale(0.1 -0.1)">
       <use xlink:href="#DejaVuSans-48"/>
       <use x="63.623047" xlink:href="#DejaVuSans-46"/>
       <use x="95.410156" xlink:href="#DejaVuSans-52"/>
      </g>
     </g>
    </g>
   </g>
   <g id="matplotlib.axis_2">
    <g id="ytick_1">
     <g id="line2d_4">
      <defs>
       <path d="M 0 0 
L -3.5 0 
" id="md80c98135f" style="stroke:#000000;stroke-width:0.8;"/>
      </defs>
      <g>
       <use style="stroke:#000000;stroke-width:0.8;" x="57.6" xlink:href="#md80c98135f" y="85.267862"/>
      </g>
     </g>
     <g id="text_4">
      <!-- 0 -->
      <g transform="translate(44.2375 89.067081)scale(0.1 -0.1)">
       <use xlink:href="#DejaVuSans-48"/>
      </g>
     </g>
    </g>
    <g id="ytick_2">
     <g id="line2d_5">
      <g>
       <use style="stroke:#000000;stroke-width:0.8;" x="57.6" xlink:href="#md80c98135f" y="54.485309"/>
      </g>
     </g>
     <g id="text_5">
      <!-- 200 -->
      <g transform="translate(31.5125 58.284528)scale(0.1 -0.1)">
       <use xlink:href="#DejaVuSans-50"/>
       <use x="63.623047" xlink:href="#DejaVuSans-48"/>
       <use x="127.246094" xlink:href="#DejaVuSans-48"/>
      </g>
     </g>
    </g>
    <g id="text_6">
     <!-- Frequency -->
     <defs>
      <path d="M 9.8125 72.90625 
L 51.703125 72.90625 
L 51.703125 64.59375 
L 19.671875 64.59375 
L 19.671875 43.109375 
L 48.578125 43.109375 
L 48.578125 34.8125 
L 19.671875 34.8125 
L 19.671875 0 
L 9.8125 0 
z
" id="DejaVuSans-70"/>
      <path d="M 41.109375 46.296875 
Q 39.59375 47.171875 37.8125 47.578125 
Q 36.03125 48 33.890625 48 
Q 26.265625 48 22.1875 43.046875 
Q 18.109375 38.09375 18.109375 28.8125 
L 18.109375 0 
L 9.078125 0 
L 9.078125 54.6875 
L 18.109375 54.6875 
L 18.109375 46.1875 
Q 20.953125 51.171875 25.484375 53.578125 
Q 30.03125 56 36.53125 56 
Q 37.453125 56 38.578125 55.875 
Q 39.703125 55.765625 41.0625 55.515625 
z
" id="DejaVuSans-114"/>
      <path d="M 56.203125 29.59375 
L 56.203125 25.203125 
L 14.890625 25.203125 
Q 15.484375 15.921875 20.484375 11.0625 
Q 25.484375 6.203125 34.421875 6.203125 
Q 39.59375 6.203125 44.453125 7.46875 
Q 49.3125 8.734375 54.109375 11.28125 
L 54.109375 2.78125 
Q 49.265625 0.734375 44.1875 -0.34375 
Q 39.109375 -1.421875 33.890625 -1.421875 
Q 20.796875 -1.421875 13.15625 6.1875 
Q 5.515625 13.8125 5.515625 26.8125 
Q 5.515625 40.234375 12.765625 48.109375 
Q 20.015625 56 32.328125 56 
Q 43.359375 56 49.78125 48.890625 
Q 56.203125 41.796875 56.203125 29.59375 
z
M 47.21875 32.234375 
Q 47.125 39.59375 43.09375 43.984375 
Q 39.0625 48.390625 32.421875 48.390625 
Q 24.90625 48.390625 20.390625 44.140625 
Q 15.875 39.890625 15.1875 32.171875 
z
" id="DejaVuSans-101"/>
      <path d="M 14.796875 27.296875 
Q 14.796875 17.390625 18.875 11.75 
Q 22.953125 6.109375 30.078125 6.109375 
Q 37.203125 6.109375 41.296875 11.75 
Q 45.40625 17.390625 45.40625 27.296875 
Q 45.40625 37.203125 41.296875 42.84375 
Q 37.203125 48.484375 30.078125 48.484375 
Q 22.953125 48.484375 18.875 42.84375 
Q 14.796875 37.203125 14.796875 27.296875 
z
M 45.40625 8.203125 
Q 42.578125 3.328125 38.25 0.953125 
Q 33.9375 -1.421875 27.875 -1.421875 
Q 17.96875 -1.421875 11.734375 6.484375 
Q 5.515625 14.40625 5.515625 27.296875 
Q 5.515625 40.1875 11.734375 48.09375 
Q 17.96875 56 27.875 56 
Q 33.9375 56 38.25 53.625 
Q 42.578125 51.265625 45.40625 46.390625 
L 45.40625 54.6875 
L 54.390625 54.6875 
L 54.390625 -20.796875 
L 45.40625 -20.796875 
z
" id="DejaVuSans-113"/>
      <path d="M 8.5 21.578125 
L 8.5 54.6875 
L 17.484375 54.6875 
L 17.484375 21.921875 
Q 17.484375 14.15625 20.5 10.265625 
Q 23.53125 6.390625 29.59375 6.390625 
Q 36.859375 6.390625 41.078125 11.03125 
Q 45.3125 15.671875 45.3125 23.6875 
L 45.3125 54.6875 
L 54.296875 54.6875 
L 54.296875 0 
L 45.3125 0 
L 45.3125 8.40625 
Q 42.046875 3.421875 37.71875 1 
Q 33.40625 -1.421875 27.6875 -1.421875 
Q 18.265625 -1.421875 13.375 4.4375 
Q 8.5 10.296875 8.5 21.578125 
z
M 31.109375 56 
z
" id="DejaVuSans-117"/>
      <path d="M 54.890625 33.015625 
L 54.890625 0 
L 45.90625 0 
L 45.90625 32.71875 
Q 45.90625 40.484375 42.875 44.328125 
Q 39.84375 48.1875 33.796875 48.1875 
Q 26.515625 48.1875 22.3125 43.546875 
Q 18.109375 38.921875 18.109375 30.90625 
L 18.109375 0 
L 9.078125 0 
L 9.078125 54.6875 
L 18.109375 54.6875 
L 18.109375 46.1875 
Q 21.34375 51.125 25.703125 53.5625 
Q 30.078125 56 35.796875 56 
Q 45.21875 56 50.046875 50.171875 
Q 54.890625 44.34375 54.890625 33.015625 
z
" id="DejaVuSans-110"/>
      <path d="M 48.78125 52.59375 
L 48.78125 44.1875 
Q 44.96875 46.296875 41.140625 47.34375 
Q 37.3125 48.390625 33.40625 48.390625 
Q 24.65625 48.390625 19.8125 42.84375 
Q 14.984375 37.3125 14.984375 27.296875 
Q 14.984375 17.28125 19.8125 11.734375 
Q 24.65625 6.203125 33.40625 6.203125 
Q 37.3125 6.203125 41.140625 7.25 
Q 44.96875 8.296875 48.78125 10.40625 
L 48.78125 2.09375 
Q 45.015625 0.34375 40.984375 -0.53125 
Q 36.96875 -1.421875 32.421875 -1.421875 
Q 20.0625 -1.421875 12.78125 6.34375 
Q 5.515625 14.109375 5.515625 27.296875 
Q 5.515625 40.671875 12.859375 48.328125 
Q 20.21875 56 33.015625 56 
Q 37.15625 56 41.109375 55.140625 
Q 45.0625 54.296875 48.78125 52.59375 
z
" id="DejaVuSans-99"/>
      <path d="M 32.171875 -5.078125 
Q 28.375 -14.84375 24.75 -17.8125 
Q 21.140625 -20.796875 15.09375 -20.796875 
L 7.90625 -20.796875 
L 7.90625 -13.28125 
L 13.1875 -13.28125 
Q 16.890625 -13.28125 18.9375 -11.515625 
Q 21 -9.765625 23.484375 -3.21875 
L 25.09375 0.875 
L 2.984375 54.6875 
L 12.5 54.6875 
L 29.59375 11.921875 
L 46.6875 54.6875 
L 56.203125 54.6875 
z
" id="DejaVuSans-121"/>
     </defs>
     <g transform="translate(25.432812 90.710346)rotate(-90)scale(0.1 -0.1)">
      <use xlink:href="#DejaVuSans-70"/>
      <use x="57.410156" xlink:href="#DejaVuSans-114"/>
      <use x="98.492188" xlink:href="#DejaVuSans-101"/>
      <use x="160.015625" xlink:href="#DejaVuSans-113"/>
      <use x="223.492188" xlink:href="#DejaVuSans-117"/>
      <use x="286.871094" xlink:href="#DejaVuSans-101"/>
      <use x="348.394531" xlink:href="#DejaVuSans-110"/>
      <use x="411.773438" xlink:href="#DejaVuSans-99"/>
      <use x="466.753906" xlink:href="#DejaVuSans-121"/>
     </g>
    </g>
   </g>
   <g id="line2d_6">
    <path clip-path="url(#p8e53f98fb2)" d="M 68.985264 83.720419 
L 69.054793 83.264942 
L 69.124323 82.702528 
L 69.193853 82.016572 
L 69.263382 81.190317 
L 69.332912 80.207597 
L 69.402441 79.053751 
L 69.471971 77.71666 
L 69.541501 76.187889 
L 69.61103 74.463868 
L 69.68056 72.547031 
L 69.75009 70.446847 
L 69.819619 68.180627 
L 69.889149 65.774042 
L 69.958679 63.261236 
L 70.028208 60.684498 
L 70.097738 58.093427 
L 70.167268 55.543601 
L 70.236797 53.094759 
L 70.306327 50.808584 
L 70.375857 48.746182 
L 70.445386 46.965402 
L 70.514916 45.518155 
L 70.584446 44.447906 
L 70.653975 43.787505 
L 70.723505 43.557517 
L 70.793035 43.765156 
L 70.862564 44.403907 
L 70.932094 45.45387 
L 71.001624 46.882787 
L 71.071153 48.647688 
L 71.140683 50.697036 
L 71.210212 52.973222 
L 71.279742 55.415239 
L 71.349272 57.961372 
L 71.418801 60.551724 
L 71.488331 63.130458 
L 71.557861 65.647632 
L 71.62739 68.060557 
L 71.69692 70.334659 
L 71.76645 72.443835 
L 71.835979 74.370354 
L 71.905509 76.104363 
L 71.975039 77.643091 
L 72.044568 78.989828 
L 72.114098 80.152789 
L 72.183628 81.143932 
L 72.253157 81.977814 
L 72.322687 82.670549 
L 72.392217 83.238881 
" style="fill:none;stroke:#1f77b4;stroke-linecap:square;stroke-width:1.5;"/>
   </g>
   <g id="line2d_7">
    <path clip-path="url(#p8e53f98fb2)" d="M 186.471968 85.152923 
L 186.603017 85.097438 
L 186.734065 85.018888 
L 186.865113 84.909485 
L 186.996162 84.759599 
L 187.12721 84.557632 
L 187.258258 84.290014 
L 187.389306 83.941366 
L 187.520355 83.494887 
L 187.651403 82.932999 
L 187.782451 82.238283 
L 187.9135 81.394703 
L 188.044548 80.389089 
L 188.175596 79.21281 
L 188.306645 77.863505 
L 188.437693 76.346751 
L 188.568741 74.677454 
L 188.69979 72.880794 
L 188.830838 70.99252 
L 188.961886 69.058473 
L 189.092935 67.133224 
L 189.223983 65.27784 
L 189.355031 63.556864 
L 189.48608 62.034694 
L 189.617128 60.771634 
L 189.748176 59.819951 
L 189.879224 59.220294 
L 190.010273 58.998812 
L 190.141321 59.165267 
L 190.272369 59.712319 
L 190.403418 60.616058 
L 190.534466 61.837748 
L 190.665514 63.326567 
L 190.796563 65.023121 
L 190.927611 66.863349 
L 191.058659 68.782497 
L 191.189708 70.718802 
L 191.320756 72.616612 
L 191.451804 74.428741 
L 191.582853 76.117951 
L 191.713901 77.657563 
L 191.844949 79.031249 
L 191.975998 80.232184 
L 192.107046 81.261693 
L 192.238094 82.127623 
L 192.369142 82.842602 
L 192.500191 83.422354 
L 192.631239 83.884182 
L 192.762287 84.245705 
L 192.893336 84.523881 
" style="fill:none;stroke:#ff7f0e;stroke-linecap:square;stroke-width:1.5;"/>
   </g>
   <g id="line2d_8">
    <path clip-path="url(#p8e53f98fb2)" d="M 193.165737 83.813948 
L 193.298067 83.359739 
L 193.430398 82.797602 
L 193.562728 82.113237 
L 193.695058 81.293921 
L 193.827389 80.329716 
L 193.959719 79.2148 
L 194.092049 77.948807 
L 194.22438 76.538075 
L 194.35671 74.996667 
L 194.48904 73.347017 
L 194.62137 71.620088 
L 194.753701 69.854928 
L 194.886031 68.097575 
L 195.018361 66.399313 
L 195.150692 64.814337 
L 195.283022 63.396966 
L 195.415352 62.198601 
L 195.547683 61.264642 
L 195.680013 60.631643 
L 195.812343 60.324939 
L 195.944673 60.356967 
L 196.077004 60.726421 
L 196.209334 61.41835 
L 196.341664 62.405155 
L 196.473995 63.648418 
L 196.606325 65.101381 
L 196.738655 66.711858 
L 196.870985 68.425326 
L 197.003316 70.187935 
L 197.135646 71.949226 
L 197.267976 73.664364 
L 197.400307 75.295756 
L 197.532637 76.814032 
L 197.664967 78.198359 
L 197.797298 79.436192 
L 197.929628 80.522539 
L 198.061958 81.458894 
L 198.194288 82.251958 
L 198.326619 82.912289 
L 198.458949 83.452997 
L 198.591279 83.888556 
L 198.72361 84.233802 
L 198.85594 84.503147 
L 198.98827 84.710006 
L 199.1206 84.866429 
L 199.252931 84.982909 
L 199.385261 85.068335 
L 199.517591 85.130046 
L 199.649922 85.173962 
" style="fill:none;stroke:#2ca02c;stroke-linecap:square;stroke-width:1.5;"/>
   </g>
   <g id="line2d_9">
    <path clip-path="url(#p8e53f98fb2)" d="M 64.978512 85.267862 
L 64.978512 43.557517 
" style="fill:none;stroke:#ff0000;stroke-linecap:square;stroke-width:1.5;"/>
   </g>
   <g id="line2d_10">
    <path clip-path="url(#p8e53f98fb2)" d="M 179.083672 85.267862 
L 179.083672 58.998812 
" style="fill:none;stroke:#ff0000;stroke-linecap:square;stroke-width:1.5;"/>
   </g>
   <g id="line2d_11">
    <path clip-path="url(#p8e53f98fb2)" d="M 212.54876 85.267862 
L 212.54876 60.324939 
" style="fill:none;stroke:#ff0000;stroke-linecap:square;stroke-width:1.5;"/>
   </g>
   <g id="patch_3">
    <path d="M 57.6 87.353379 
L 57.6 41.472 
" style="fill:none;stroke:#000000;stroke-linecap:square;stroke-linejoin:miter;stroke-width:0.8;"/>
   </g>
   <g id="patch_4">
    <path d="M 219.927273 87.353379 
L 219.927273 41.472 
" style="fill:none;stroke:#000000;stroke-linecap:square;stroke-linejoin:miter;stroke-width:0.8;"/>
   </g>
   <g id="patch_5">
    <path d="M 57.6 87.353379 
L 219.927273 87.353379 
" style="fill:none;stroke:#000000;stroke-linecap:square;stroke-linejoin:miter;stroke-width:0.8;"/>
   </g>
   <g id="patch_6">
    <path d="M 57.6 41.472 
L 219.927273 41.472 
" style="fill:none;stroke:#000000;stroke-linecap:square;stroke-linejoin:miter;stroke-width:0.8;"/>
   </g>
   <g id="text_7">
    <!-- w -->
    <defs>
     <path d="M 4.203125 54.6875 
L 13.1875 54.6875 
L 24.421875 12.015625 
L 35.59375 54.6875 
L 46.1875 54.6875 
L 57.421875 12.015625 
L 68.609375 54.6875 
L 77.59375 54.6875 
L 63.28125 0 
L 52.6875 0 
L 40.921875 44.828125 
L 29.109375 0 
L 18.5 0 
z
" id="DejaVuSans-119"/>
    </defs>
    <g transform="translate(133.856761 35.472)scale(0.12 -0.12)">
     <use xlink:href="#DejaVuSans-119"/>
    </g>
   </g>
  </g>
  <g id="axes_2">
   <g id="patch_7">
    <path d="M 57.6 142.411034 
L 219.927273 142.411034 
L 219.927273 96.529655 
L 57.6 96.529655 
z
" style="fill:#ffffff;"/>
   </g>
   <g id="matplotlib.axis_3">
    <g id="xtick_4">
     <g id="line2d_12">
      <g>
       <use style="stroke:#000000;stroke-width:0.8;" x="76.53904" xlink:href="#maad8e95a0c" y="142.411034"/>
      </g>
     </g>
     <g id="text_8">
      <!-- 10 -->
      <defs>
       <path d="M 12.40625 8.296875 
L 28.515625 8.296875 
L 28.515625 63.921875 
L 10.984375 60.40625 
L 10.984375 69.390625 
L 28.421875 72.90625 
L 38.28125 72.90625 
L 38.28125 8.296875 
L 54.390625 8.296875 
L 54.390625 0 
L 12.40625 0 
z
" id="DejaVuSans-49"/>
      </defs>
      <g transform="translate(70.17654 157.009472)scale(0.1 -0.1)">
       <use xlink:href="#DejaVuSans-49"/>
       <use x="63.623047" xlink:href="#DejaVuSans-48"/>
      </g>
     </g>
    </g>
    <g id="xtick_5">
     <g id="line2d_13">
      <g>
       <use style="stroke:#000000;stroke-width:0.8;" x="138.996303" xlink:href="#maad8e95a0c" y="142.411034"/>
      </g>
     </g>
     <g id="text_9">
      <!-- 20 -->
      <g transform="translate(132.633803 157.009472)scale(0.1 -0.1)">
       <use xlink:href="#DejaVuSans-50"/>
       <use x="63.623047" xlink:href="#DejaVuSans-48"/>
      </g>
     </g>
    </g>
    <g id="xtick_6">
     <g id="line2d_14">
      <g>
       <use style="stroke:#000000;stroke-width:0.8;" x="201.453567" xlink:href="#maad8e95a0c" y="142.411034"/>
      </g>
     </g>
     <g id="text_10">
      <!-- 30 -->
      <g transform="translate(195.091067 157.009472)scale(0.1 -0.1)">
       <use xlink:href="#DejaVuSans-51"/>
       <use x="63.623047" xlink:href="#DejaVuSans-48"/>
      </g>
     </g>
    </g>
   </g>
   <g id="matplotlib.axis_4">
    <g id="ytick_3">
     <g id="line2d_15">
      <g>
       <use style="stroke:#000000;stroke-width:0.8;" x="57.6" xlink:href="#md80c98135f" y="140.325517"/>
      </g>
     </g>
     <g id="text_11">
      <!-- 0 -->
      <g transform="translate(44.2375 144.124736)scale(0.1 -0.1)">
       <use xlink:href="#DejaVuSans-48"/>
      </g>
     </g>
    </g>
    <g id="ytick_4">
     <g id="line2d_16">
      <g>
       <use style="stroke:#000000;stroke-width:0.8;" x="57.6" xlink:href="#md80c98135f" y="113.86648"/>
      </g>
     </g>
     <g id="text_12">
      <!-- 2 -->
      <g transform="translate(44.2375 117.665699)scale(0.1 -0.1)">
       <use xlink:href="#DejaVuSans-50"/>
      </g>
     </g>
    </g>
    <g id="text_13">
     <!-- Frequency -->
     <g transform="translate(38.157812 145.768001)rotate(-90)scale(0.1 -0.1)">
      <use xlink:href="#DejaVuSans-70"/>
      <use x="57.410156" xlink:href="#DejaVuSans-114"/>
      <use x="98.492188" xlink:href="#DejaVuSans-101"/>
      <use x="160.015625" xlink:href="#DejaVuSans-113"/>
      <use x="223.492188" xlink:href="#DejaVuSans-117"/>
      <use x="286.871094" xlink:href="#DejaVuSans-101"/>
      <use x="348.394531" xlink:href="#DejaVuSans-110"/>
      <use x="411.773438" xlink:href="#DejaVuSans-99"/>
      <use x="466.753906" xlink:href="#DejaVuSans-121"/>
     </g>
    </g>
   </g>
   <g id="line2d_17">
    <path clip-path="url(#p9acd4bfc23)" d="M 206.848825 140.287254 
L 206.96515 140.26247 
L 207.081476 140.223558 
L 207.197801 140.163683 
L 207.314126 140.073406 
L 207.430451 139.940045 
L 207.546776 139.747057 
L 207.663102 139.473531 
L 207.779427 139.093915 
L 207.895752 138.578136 
L 208.012077 137.892284 
L 208.128402 137.000002 
L 208.244728 135.864714 
L 208.361053 134.452702 
L 208.477378 132.73697 
L 208.593703 130.701642 
L 208.710028 128.346523 
L 208.826354 125.691291 
L 208.942679 122.778705 
L 209.059004 119.676198 
L 209.175329 116.475304 
L 209.291654 113.288558 
L 209.40798 110.243811 
L 209.524305 107.476216 
L 209.64063 105.118532 
L 209.756955 103.290668 
L 209.873281 102.089613 
L 209.989606 101.580916 
L 210.105931 101.792762 
L 210.222256 102.713384 
L 210.338581 104.292144 
L 210.454907 106.444152 
L 210.571232 109.057817 
L 210.687557 112.004424 
L 210.803882 115.148567 
L 210.920207 118.358288 
L 211.036533 121.513885 
L 211.152858 124.514613 
L 211.269183 127.282863 
L 211.385508 129.765751 
L 211.501833 131.934364 
L 211.618159 133.781144 
L 211.734484 135.316027 
L 211.850809 136.561965 
L 211.967134 137.550399 
L 212.083459 138.317146 
L 212.199785 138.898971 
L 212.31611 139.331014 
L 212.432435 139.645052 
L 212.54876 139.86855 
" style="fill:none;stroke:#1f77b4;stroke-linecap:square;stroke-width:1.5;"/>
   </g>
   <g id="line2d_18">
    <path clip-path="url(#p9acd4bfc23)" d="M 64.978512 140.220863 
L 65.093472 140.154185 
L 65.208432 140.050901 
L 65.323391 139.894574 
L 65.438351 139.663423 
L 65.55331 139.329593 
L 65.66827 138.858826 
L 65.783229 138.210774 
L 65.898189 137.340252 
L 66.013148 136.199658 
L 66.128108 134.742715 
L 66.243068 132.929526 
L 66.358027 130.732686 
L 66.472987 128.143939 
L 66.587946 125.18061 
L 66.702906 121.890822 
L 66.817865 118.35645 
L 66.932825 114.692863 
L 67.047784 111.044792 
L 67.162744 107.578149 
L 67.277704 104.468243 
L 67.392663 101.885423 
L 67.507623 99.979756 
L 67.622582 98.866625 
L 67.737542 98.615172 
L 67.852501 99.241191 
L 67.967461 100.705482 
L 68.08242 102.917916 
L 68.19738 105.746619 
L 68.31234 109.030964 
L 68.427299 112.596616 
L 68.542259 116.270655 
L 68.657218 119.894999 
L 68.772178 123.336737 
L 68.887137 126.494589 
L 69.002097 129.301326 
L 69.117056 131.722546 
L 69.232016 133.752625 
L 69.346976 135.40885 
L 69.461935 136.724779 
L 69.576895 137.743742 
L 69.691854 138.513127 
L 69.806814 139.079881 
L 69.921773 139.487338 
L 70.036733 139.773326 
L 70.151692 139.969355 
L 70.266652 140.100605 
L 70.381612 140.186463 
L 70.496571 140.241347 
L 70.611531 140.275635 
" style="fill:none;stroke:#ff7f0e;stroke-linecap:square;stroke-width:1.5;"/>
   </g>
   <g id="line2d_19">
    <path clip-path="url(#p9acd4bfc23)" d="M 205.711393 140.325517 
L 205.711393 101.580916 
" style="fill:none;stroke:#ff0000;stroke-linecap:square;stroke-width:1.5;"/>
   </g>
   <g id="line2d_20">
    <path clip-path="url(#p9acd4bfc23)" d="M 71.683854 140.325517 
L 71.683854 98.615172 
" style="fill:none;stroke:#ff0000;stroke-linecap:square;stroke-width:1.5;"/>
   </g>
   <g id="patch_8">
    <path d="M 57.6 142.411034 
L 57.6 96.529655 
" style="fill:none;stroke:#000000;stroke-linecap:square;stroke-linejoin:miter;stroke-width:0.8;"/>
   </g>
   <g id="patch_9">
    <path d="M 219.927273 142.411034 
L 219.927273 96.529655 
" style="fill:none;stroke:#000000;stroke-linecap:square;stroke-linejoin:miter;stroke-width:0.8;"/>
   </g>
   <g id="patch_10">
    <path d="M 57.6 142.411034 
L 219.927273 142.411034 
" style="fill:none;stroke:#000000;stroke-linecap:square;stroke-linejoin:miter;stroke-width:0.8;"/>
   </g>
   <g id="patch_11">
    <path d="M 57.6 96.529655 
L 219.927273 96.529655 
" style="fill:none;stroke:#000000;stroke-linecap:square;stroke-linejoin:miter;stroke-width:0.8;"/>
   </g>
   <g id="text_14">
    <!-- mu2 -->
    <defs>
     <path d="M 52 44.1875 
Q 55.375 50.25 60.0625 53.125 
Q 64.75 56 71.09375 56 
Q 79.640625 56 84.28125 50.015625 
Q 88.921875 44.046875 88.921875 33.015625 
L 88.921875 0 
L 79.890625 0 
L 79.890625 32.71875 
Q 79.890625 40.578125 77.09375 44.375 
Q 74.3125 48.1875 68.609375 48.1875 
Q 61.625 48.1875 57.5625 43.546875 
Q 53.515625 38.921875 53.515625 30.90625 
L 53.515625 0 
L 44.484375 0 
L 44.484375 32.71875 
Q 44.484375 40.625 41.703125 44.40625 
Q 38.921875 48.1875 33.109375 48.1875 
Q 26.21875 48.1875 22.15625 43.53125 
Q 18.109375 38.875 18.109375 30.90625 
L 18.109375 0 
L 9.078125 0 
L 9.078125 54.6875 
L 18.109375 54.6875 
L 18.109375 46.1875 
Q 21.1875 51.21875 25.484375 53.609375 
Q 29.78125 56 35.6875 56 
Q 41.65625 56 45.828125 52.96875 
Q 50 49.953125 52 44.1875 
z
" id="DejaVuSans-109"/>
    </defs>
    <g transform="translate(125.299261 90.529655)scale(0.12 -0.12)">
     <use xlink:href="#DejaVuSans-109"/>
     <use x="97.412109" xlink:href="#DejaVuSans-117"/>
     <use x="160.791016" xlink:href="#DejaVuSans-50"/>
    </g>
   </g>
  </g>
  <g id="axes_3">
   <g id="patch_12">
    <path d="M 57.6 197.46869 
L 219.927273 197.46869 
L 219.927273 151.58731 
L 57.6 151.58731 
z
" style="fill:#ffffff;"/>
   </g>
   <g id="matplotlib.axis_5">
    <g id="xtick_7">
     <g id="line2d_21">
      <g>
       <use style="stroke:#000000;stroke-width:0.8;" x="65.319991" xlink:href="#maad8e95a0c" y="197.46869"/>
      </g>
     </g>
     <g id="text_15">
      <!-- 0 -->
      <g transform="translate(62.138741 212.067127)scale(0.1 -0.1)">
       <use xlink:href="#DejaVuSans-48"/>
      </g>
     </g>
    </g>
    <g id="xtick_8">
     <g id="line2d_22">
      <g>
       <use style="stroke:#000000;stroke-width:0.8;" x="109.390471" xlink:href="#maad8e95a0c" y="197.46869"/>
      </g>
     </g>
     <g id="text_16">
      <!-- 5 -->
      <defs>
       <path d="M 10.796875 72.90625 
L 49.515625 72.90625 
L 49.515625 64.59375 
L 19.828125 64.59375 
L 19.828125 46.734375 
Q 21.96875 47.46875 24.109375 47.828125 
Q 26.265625 48.1875 28.421875 48.1875 
Q 40.625 48.1875 47.75 41.5 
Q 54.890625 34.8125 54.890625 23.390625 
Q 54.890625 11.625 47.5625 5.09375 
Q 40.234375 -1.421875 26.90625 -1.421875 
Q 22.3125 -1.421875 17.546875 -0.640625 
Q 12.796875 0.140625 7.71875 1.703125 
L 7.71875 11.625 
Q 12.109375 9.234375 16.796875 8.0625 
Q 21.484375 6.890625 26.703125 6.890625 
Q 35.15625 6.890625 40.078125 11.328125 
Q 45.015625 15.765625 45.015625 23.390625 
Q 45.015625 31 40.078125 35.4375 
Q 35.15625 39.890625 26.703125 39.890625 
Q 22.75 39.890625 18.8125 39.015625 
Q 14.890625 38.140625 10.796875 36.28125 
z
" id="DejaVuSans-53"/>
      </defs>
      <g transform="translate(106.209221 212.067127)scale(0.1 -0.1)">
       <use xlink:href="#DejaVuSans-53"/>
      </g>
     </g>
    </g>
    <g id="xtick_9">
     <g id="line2d_23">
      <g>
       <use style="stroke:#000000;stroke-width:0.8;" x="153.460951" xlink:href="#maad8e95a0c" y="197.46869"/>
      </g>
     </g>
     <g id="text_17">
      <!-- 10 -->
      <g transform="translate(147.098451 212.067127)scale(0.1 -0.1)">
       <use xlink:href="#DejaVuSans-49"/>
       <use x="63.623047" xlink:href="#DejaVuSans-48"/>
      </g>
     </g>
    </g>
    <g id="xtick_10">
     <g id="line2d_24">
      <g>
       <use style="stroke:#000000;stroke-width:0.8;" x="197.531431" xlink:href="#maad8e95a0c" y="197.46869"/>
      </g>
     </g>
     <g id="text_18">
      <!-- 15 -->
      <g transform="translate(191.168931 212.067127)scale(0.1 -0.1)">
       <use xlink:href="#DejaVuSans-49"/>
       <use x="63.623047" xlink:href="#DejaVuSans-53"/>
      </g>
     </g>
    </g>
   </g>
   <g id="matplotlib.axis_6">
    <g id="ytick_5">
     <g id="line2d_25">
      <g>
       <use style="stroke:#000000;stroke-width:0.8;" x="57.6" xlink:href="#md80c98135f" y="195.383172"/>
      </g>
     </g>
     <g id="text_19">
      <!-- 0 -->
      <g transform="translate(44.2375 199.182391)scale(0.1 -0.1)">
       <use xlink:href="#DejaVuSans-48"/>
      </g>
     </g>
    </g>
    <g id="ytick_6">
     <g id="line2d_26">
      <g>
       <use style="stroke:#000000;stroke-width:0.8;" x="57.6" xlink:href="#md80c98135f" y="157.161355"/>
      </g>
     </g>
     <g id="text_20">
      <!-- 100 -->
      <g transform="translate(31.5125 160.960574)scale(0.1 -0.1)">
       <use xlink:href="#DejaVuSans-49"/>
       <use x="63.623047" xlink:href="#DejaVuSans-48"/>
       <use x="127.246094" xlink:href="#DejaVuSans-48"/>
      </g>
     </g>
    </g>
    <g id="text_21">
     <!-- Frequency -->
     <g transform="translate(25.432812 200.825656)rotate(-90)scale(0.1 -0.1)">
      <use xlink:href="#DejaVuSans-70"/>
      <use x="57.410156" xlink:href="#DejaVuSans-114"/>
      <use x="98.492188" xlink:href="#DejaVuSans-101"/>
      <use x="160.015625" xlink:href="#DejaVuSans-113"/>
      <use x="223.492188" xlink:href="#DejaVuSans-117"/>
      <use x="286.871094" xlink:href="#DejaVuSans-101"/>
      <use x="348.394531" xlink:href="#DejaVuSans-110"/>
      <use x="411.773438" xlink:href="#DejaVuSans-99"/>
      <use x="466.753906" xlink:href="#DejaVuSans-121"/>
     </g>
    </g>
   </g>
   <g id="line2d_27">
    <path clip-path="url(#pd29e2dad12)" d="M 206.153972 195.288081 
L 206.189686 195.253535 
L 206.2254 195.208743 
L 206.261114 195.151537 
L 206.296828 195.079581 
L 206.332542 194.990461 
L 206.368257 194.881805 
L 206.403971 194.751434 
L 206.439685 194.597544 
L 206.475399 194.418909 
L 206.511113 194.215091 
L 206.546827 193.986645 
L 206.582541 193.735297 
L 206.618256 193.46407 
L 206.65397 193.177349 
L 206.689684 192.880857 
L 206.725398 192.581533 
L 206.761112 192.287314 
L 206.796826 192.006813 
L 206.832541 191.74892 
L 206.868255 191.522346 
L 206.903969 191.335138 
L 206.939683 191.194206 
L 206.975397 191.104901 
L 207.011111 191.070678 
L 207.046825 191.092874 
L 207.08254 191.17062 
L 207.118254 191.300901 
L 207.153968 191.478747 
L 207.189682 191.697547 
L 207.225396 191.949459 
L 207.26111 192.225874 
L 207.296825 192.517899 
L 207.332539 192.816827 
L 207.368253 193.114546 
L 207.403967 193.403881 
L 207.439681 193.678837 
L 207.475395 193.934736 
L 207.511109 194.168267 
L 207.546824 194.377436 
L 207.582538 194.561451 
L 207.618252 194.720553 
L 207.653966 194.855819 
L 207.68968 194.968945 
L 207.725394 195.062047 
L 207.761109 195.13747 
L 207.796823 195.197631 
L 207.832537 195.244888 
L 207.868251 195.281453 
L 207.903965 195.309325 
" style="fill:none;stroke:#1f77b4;stroke-linecap:square;stroke-width:1.5;"/>
   </g>
   <g id="line2d_28">
    <path clip-path="url(#pd29e2dad12)" d="M 64.978512 195.264509 
L 64.982805 195.197528 
L 64.987097 195.097852 
L 64.991389 194.952381 
L 64.995682 194.744195 
L 64.999974 194.452088 
L 65.004266 194.050337 
L 65.008559 193.508832 
L 65.012851 192.793738 
L 65.017143 191.868818 
L 65.021436 190.697515 
L 65.025728 189.245836 
L 65.03002 187.485963 
L 65.034312 185.400386 
L 65.038605 182.98624 
L 65.042897 180.259368 
L 65.047189 177.25758 
L 65.051482 174.042517 
L 65.055774 170.69962 
L 65.060066 167.335817 
L 65.064359 164.074797 
L 65.068651 161.050034 
L 65.072943 158.396025 
L 65.077236 156.238511 
L 65.081528 154.684655 
L 65.08582 153.814227 
L 65.090113 153.672828 
L 65.094405 154.267925 
L 65.098697 155.568201 
L 65.102989 157.506287 
L 65.107282 159.984541 
L 65.111574 162.883197 
L 65.115866 166.069923 
L 65.120159 169.409746 
L 65.124451 172.7743 
L 65.128743 176.049564 
L 65.133036 179.14148 
L 65.137328 181.979185 
L 65.14162 184.515887 
L 65.145913 186.727665 
L 65.150205 188.610683 
L 65.154497 190.17736 
L 65.15879 191.452082 
L 65.163082 192.466942 
L 65.167374 193.257897 
L 65.171666 193.8616 
L 65.175959 194.312998 
L 65.180251 194.643736 
L 65.184543 194.881256 
L 65.188836 195.048479 
" style="fill:none;stroke:#ff7f0e;stroke-linecap:square;stroke-width:1.5;"/>
   </g>
   <g id="line2d_29">
    <path clip-path="url(#pd29e2dad12)" d="M 212.54876 195.383172 
L 212.54876 191.070678 
" style="fill:none;stroke:#ff0000;stroke-linecap:square;stroke-width:1.5;"/>
   </g>
   <g id="line2d_30">
    <path clip-path="url(#pd29e2dad12)" d="M 65.089408 195.383172 
L 65.089408 153.672828 
" style="fill:none;stroke:#ff0000;stroke-linecap:square;stroke-width:1.5;"/>
   </g>
   <g id="patch_13">
    <path d="M 57.6 197.46869 
L 57.6 151.58731 
" style="fill:none;stroke:#000000;stroke-linecap:square;stroke-linejoin:miter;stroke-width:0.8;"/>
   </g>
   <g id="patch_14">
    <path d="M 219.927273 197.46869 
L 219.927273 151.58731 
" style="fill:none;stroke:#000000;stroke-linecap:square;stroke-linejoin:miter;stroke-width:0.8;"/>
   </g>
   <g id="patch_15">
    <path d="M 57.6 197.46869 
L 219.927273 197.46869 
" style="fill:none;stroke:#000000;stroke-linecap:square;stroke-linejoin:miter;stroke-width:0.8;"/>
   </g>
   <g id="patch_16">
    <path d="M 57.6 151.58731 
L 219.927273 151.58731 
" style="fill:none;stroke:#000000;stroke-linecap:square;stroke-linejoin:miter;stroke-width:0.8;"/>
   </g>
   <g id="text_22">
    <!-- mu0 -->
    <g transform="translate(125.299261 145.58731)scale(0.12 -0.12)">
     <use xlink:href="#DejaVuSans-109"/>
     <use x="97.412109" xlink:href="#DejaVuSans-117"/>
     <use x="160.791016" xlink:href="#DejaVuSans-48"/>
    </g>
   </g>
  </g>
  <g id="axes_4">
   <g id="patch_17">
    <path d="M 57.6 252.526345 
L 219.927273 252.526345 
L 219.927273 206.644966 
L 57.6 206.644966 
z
" style="fill:#ffffff;"/>
   </g>
   <g id="matplotlib.axis_7">
    <g id="xtick_11">
     <g id="line2d_31">
      <g>
       <use style="stroke:#000000;stroke-width:0.8;" x="64.182622" xlink:href="#maad8e95a0c" y="252.526345"/>
      </g>
     </g>
     <g id="text_23">
      <!-- 0 -->
      <g transform="translate(61.001372 267.124782)scale(0.1 -0.1)">
       <use xlink:href="#DejaVuSans-48"/>
      </g>
     </g>
    </g>
    <g id="xtick_12">
     <g id="line2d_32">
      <g>
       <use style="stroke:#000000;stroke-width:0.8;" x="108.393675" xlink:href="#maad8e95a0c" y="252.526345"/>
      </g>
     </g>
     <g id="text_24">
      <!-- 10 -->
      <g transform="translate(102.031175 267.124782)scale(0.1 -0.1)">
       <use xlink:href="#DejaVuSans-49"/>
       <use x="63.623047" xlink:href="#DejaVuSans-48"/>
      </g>
     </g>
    </g>
    <g id="xtick_13">
     <g id="line2d_33">
      <g>
       <use style="stroke:#000000;stroke-width:0.8;" x="152.604728" xlink:href="#maad8e95a0c" y="252.526345"/>
      </g>
     </g>
     <g id="text_25">
      <!-- 20 -->
      <g transform="translate(146.242228 267.124782)scale(0.1 -0.1)">
       <use xlink:href="#DejaVuSans-50"/>
       <use x="63.623047" xlink:href="#DejaVuSans-48"/>
      </g>
     </g>
    </g>
    <g id="xtick_14">
     <g id="line2d_34">
      <g>
       <use style="stroke:#000000;stroke-width:0.8;" x="196.815781" xlink:href="#maad8e95a0c" y="252.526345"/>
      </g>
     </g>
     <g id="text_26">
      <!-- 30 -->
      <g transform="translate(190.453281 267.124782)scale(0.1 -0.1)">
       <use xlink:href="#DejaVuSans-51"/>
       <use x="63.623047" xlink:href="#DejaVuSans-48"/>
      </g>
     </g>
    </g>
   </g>
   <g id="matplotlib.axis_8">
    <g id="ytick_7">
     <g id="line2d_35">
      <g>
       <use style="stroke:#000000;stroke-width:0.8;" x="57.6" xlink:href="#md80c98135f" y="250.440828"/>
      </g>
     </g>
     <g id="text_27">
      <!-- 0 -->
      <g transform="translate(44.2375 254.240046)scale(0.1 -0.1)">
       <use xlink:href="#DejaVuSans-48"/>
      </g>
     </g>
    </g>
    <g id="ytick_8">
     <g id="line2d_36">
      <g>
       <use style="stroke:#000000;stroke-width:0.8;" x="57.6" xlink:href="#md80c98135f" y="222.235726"/>
      </g>
     </g>
     <g id="text_28">
      <!-- 20 -->
      <g transform="translate(37.875 226.034945)scale(0.1 -0.1)">
       <use xlink:href="#DejaVuSans-50"/>
       <use x="63.623047" xlink:href="#DejaVuSans-48"/>
      </g>
     </g>
    </g>
    <g id="text_29">
     <!-- Frequency -->
     <g transform="translate(31.795312 255.883311)rotate(-90)scale(0.1 -0.1)">
      <use xlink:href="#DejaVuSans-70"/>
      <use x="57.410156" xlink:href="#DejaVuSans-114"/>
      <use x="98.492188" xlink:href="#DejaVuSans-101"/>
      <use x="160.015625" xlink:href="#DejaVuSans-113"/>
      <use x="223.492188" xlink:href="#DejaVuSans-117"/>
      <use x="286.871094" xlink:href="#DejaVuSans-101"/>
      <use x="348.394531" xlink:href="#DejaVuSans-110"/>
      <use x="411.773438" xlink:href="#DejaVuSans-99"/>
      <use x="466.753906" xlink:href="#DejaVuSans-121"/>
     </g>
    </g>
   </g>
   <g id="line2d_37">
    <path clip-path="url(#p49ca63b7aa)" d="M 204.947118 250.322499 
L 204.995152 250.268902 
L 205.043186 250.195477 
L 205.09122 250.09693 
L 205.139254 249.967387 
L 205.187288 249.800656 
L 205.235322 249.590626 
L 205.283356 249.3318 
L 205.33139 249.019947 
L 205.379424 248.652827 
L 205.427457 248.230928 
L 205.475491 247.758128 
L 205.523525 247.24218 
L 205.571559 246.694934 
L 205.619593 246.132197 
L 205.667627 245.573195 
L 205.715661 245.039616 
L 205.763695 244.554299 
L 205.811729 244.139645 
L 205.859763 243.815923 
L 205.907797 243.599632 
L 205.955831 243.502112 
L 206.003864 243.528553 
L 206.051898 243.677545 
L 206.099932 243.941193 
L 206.147966 244.305821 
L 206.196 244.753137 
L 206.244034 245.26176 
L 206.292068 245.808898 
L 206.340102 246.372021 
L 206.388136 246.930344 
L 206.43617 247.466001 
L 206.484204 247.964825 
L 206.532238 248.416712 
L 206.580271 248.8156 
L 206.628305 249.159123 
L 206.676339 249.44804 
L 206.724373 249.685528 
L 206.772407 249.87644 
L 206.820441 250.026609 
L 206.868475 250.142236 
L 206.916509 250.22942 
L 206.964543 250.293814 
L 207.012577 250.340415 
L 207.060611 250.373466 
L 207.108645 250.396443 
L 207.156678 250.412103 
L 207.204712 250.422569 
L 207.252746 250.429429 
L 207.30078 250.433838 
" style="fill:none;stroke:#1f77b4;stroke-linecap:square;stroke-width:1.5;"/>
   </g>
   <g id="line2d_38">
    <path clip-path="url(#p49ca63b7aa)" d="M 64.978512 249.942913 
L 64.985332 249.745678 
L 64.992152 249.482917 
L 64.998971 249.137976 
L 65.005791 248.691834 
L 65.01261 248.123408 
L 65.01943 247.410116 
L 65.026249 246.528746 
L 65.033069 245.456639 
L 65.039889 244.173183 
L 65.046708 242.661579 
L 65.053528 240.910798 
L 65.060347 238.917599 
L 65.067167 236.68846 
L 65.073986 234.241236 
L 65.080806 231.606331 
L 65.087625 228.827217 
L 65.094445 225.960121 
L 65.101265 223.072774 
L 65.108084 220.2422 
L 65.114904 217.551587 
L 65.121723 215.086399 
L 65.128543 212.929957 
L 65.135362 211.158809 
L 65.142182 209.838233 
L 65.149002 209.018251 
L 65.155821 208.730483 
L 65.162641 208.986127 
L 65.16946 209.775233 
L 65.17628 211.067347 
L 65.183099 212.813461 
L 65.189919 214.949097 
L 65.196739 217.398254 
L 65.203558 220.077882 
L 65.210378 222.902519 
L 65.217197 225.788725 
L 65.224017 228.659015 
L 65.230836 231.445036 
L 65.237656 234.089835 
L 65.244476 236.549167 
L 65.251295 238.791857 
L 65.258115 240.799335 
L 65.264934 242.564489 
L 65.271754 244.090037 
L 65.278573 245.386603 
L 65.285393 246.470699 
L 65.292212 247.362761 
L 65.299032 248.085373 
L 65.305852 248.66175 
L 65.312671 249.114538 
" style="fill:none;stroke:#ff7f0e;stroke-linecap:square;stroke-width:1.5;"/>
   </g>
   <g id="line2d_39">
    <path clip-path="url(#p49ca63b7aa)" d="M 212.54876 250.440828 
L 212.54876 243.502112 
" style="fill:none;stroke:#ff0000;stroke-linecap:square;stroke-width:1.5;"/>
   </g>
   <g id="line2d_40">
    <path clip-path="url(#p49ca63b7aa)" d="M 65.44108 250.440828 
L 65.44108 208.730483 
" style="fill:none;stroke:#ff0000;stroke-linecap:square;stroke-width:1.5;"/>
   </g>
   <g id="patch_18">
    <path d="M 57.6 252.526345 
L 57.6 206.644966 
" style="fill:none;stroke:#000000;stroke-linecap:square;stroke-linejoin:miter;stroke-width:0.8;"/>
   </g>
   <g id="patch_19">
    <path d="M 219.927273 252.526345 
L 219.927273 206.644966 
" style="fill:none;stroke:#000000;stroke-linecap:square;stroke-linejoin:miter;stroke-width:0.8;"/>
   </g>
   <g id="patch_20">
    <path d="M 57.6 252.526345 
L 219.927273 252.526345 
" style="fill:none;stroke:#000000;stroke-linecap:square;stroke-linejoin:miter;stroke-width:0.8;"/>
   </g>
   <g id="patch_21">
    <path d="M 57.6 206.644966 
L 219.927273 206.644966 
" style="fill:none;stroke:#000000;stroke-linecap:square;stroke-linejoin:miter;stroke-width:0.8;"/>
   </g>
   <g id="text_30">
    <!-- mu1 -->
    <g transform="translate(125.299261 200.644966)scale(0.12 -0.12)">
     <use xlink:href="#DejaVuSans-109"/>
     <use x="97.412109" xlink:href="#DejaVuSans-117"/>
     <use x="160.791016" xlink:href="#DejaVuSans-49"/>
    </g>
   </g>
  </g>
  <g id="axes_5">
   <g id="patch_22">
    <path d="M 57.6 307.584 
L 219.927273 307.584 
L 219.927273 261.702621 
L 57.6 261.702621 
z
" style="fill:#ffffff;"/>
   </g>
   <g id="matplotlib.axis_9">
    <g id="xtick_15">
     <g id="line2d_41">
      <g>
       <use style="stroke:#000000;stroke-width:0.8;" x="58.817804" xlink:href="#maad8e95a0c" y="307.584"/>
      </g>
     </g>
     <g id="text_31">
      <!-- 14.8 -->
      <defs>
       <path d="M 31.78125 34.625 
Q 24.75 34.625 20.71875 30.859375 
Q 16.703125 27.09375 16.703125 20.515625 
Q 16.703125 13.921875 20.71875 10.15625 
Q 24.75 6.390625 31.78125 6.390625 
Q 38.8125 6.390625 42.859375 10.171875 
Q 46.921875 13.96875 46.921875 20.515625 
Q 46.921875 27.09375 42.890625 30.859375 
Q 38.875 34.625 31.78125 34.625 
z
M 21.921875 38.8125 
Q 15.578125 40.375 12.03125 44.71875 
Q 8.5 49.078125 8.5 55.328125 
Q 8.5 64.0625 14.71875 69.140625 
Q 20.953125 74.21875 31.78125 74.21875 
Q 42.671875 74.21875 48.875 69.140625 
Q 55.078125 64.0625 55.078125 55.328125 
Q 55.078125 49.078125 51.53125 44.71875 
Q 48 40.375 41.703125 38.8125 
Q 48.828125 37.15625 52.796875 32.3125 
Q 56.78125 27.484375 56.78125 20.515625 
Q 56.78125 9.90625 50.3125 4.234375 
Q 43.84375 -1.421875 31.78125 -1.421875 
Q 19.734375 -1.421875 13.25 4.234375 
Q 6.78125 9.90625 6.78125 20.515625 
Q 6.78125 27.484375 10.78125 32.3125 
Q 14.796875 37.15625 21.921875 38.8125 
z
M 18.3125 54.390625 
Q 18.3125 48.734375 21.84375 45.5625 
Q 25.390625 42.390625 31.78125 42.390625 
Q 38.140625 42.390625 41.71875 45.5625 
Q 45.3125 48.734375 45.3125 54.390625 
Q 45.3125 60.0625 41.71875 63.234375 
Q 38.140625 66.40625 31.78125 66.40625 
Q 25.390625 66.40625 21.84375 63.234375 
Q 18.3125 60.0625 18.3125 54.390625 
z
" id="DejaVuSans-56"/>
      </defs>
      <g transform="translate(47.684991 322.182437)scale(0.1 -0.1)">
       <use xlink:href="#DejaVuSans-49"/>
       <use x="63.623047" xlink:href="#DejaVuSans-52"/>
       <use x="127.246094" xlink:href="#DejaVuSans-46"/>
       <use x="159.033203" xlink:href="#DejaVuSans-56"/>
      </g>
     </g>
    </g>
    <g id="xtick_16">
     <g id="line2d_42">
      <g>
       <use style="stroke:#000000;stroke-width:0.8;" x="91.423554" xlink:href="#maad8e95a0c" y="307.584"/>
      </g>
     </g>
     <g id="text_32">
      <!-- 15.0 -->
      <g transform="translate(80.290741 322.182437)scale(0.1 -0.1)">
       <use xlink:href="#DejaVuSans-49"/>
       <use x="63.623047" xlink:href="#DejaVuSans-53"/>
       <use x="127.246094" xlink:href="#DejaVuSans-46"/>
       <use x="159.033203" xlink:href="#DejaVuSans-48"/>
      </g>
     </g>
    </g>
    <g id="xtick_17">
     <g id="line2d_43">
      <g>
       <use style="stroke:#000000;stroke-width:0.8;" x="124.029304" xlink:href="#maad8e95a0c" y="307.584"/>
      </g>
     </g>
     <g id="text_33">
      <!-- 15.2 -->
      <g transform="translate(112.896491 322.182437)scale(0.1 -0.1)">
       <use xlink:href="#DejaVuSans-49"/>
       <use x="63.623047" xlink:href="#DejaVuSans-53"/>
       <use x="127.246094" xlink:href="#DejaVuSans-46"/>
       <use x="159.033203" xlink:href="#DejaVuSans-50"/>
      </g>
     </g>
    </g>
    <g id="xtick_18">
     <g id="line2d_44">
      <g>
       <use style="stroke:#000000;stroke-width:0.8;" x="156.635054" xlink:href="#maad8e95a0c" y="307.584"/>
      </g>
     </g>
     <g id="text_34">
      <!-- 15.4 -->
      <g transform="translate(145.502241 322.182437)scale(0.1 -0.1)">
       <use xlink:href="#DejaVuSans-49"/>
       <use x="63.623047" xlink:href="#DejaVuSans-53"/>
       <use x="127.246094" xlink:href="#DejaVuSans-46"/>
       <use x="159.033203" xlink:href="#DejaVuSans-52"/>
      </g>
     </g>
    </g>
    <g id="xtick_19">
     <g id="line2d_45">
      <g>
       <use style="stroke:#000000;stroke-width:0.8;" x="189.240804" xlink:href="#maad8e95a0c" y="307.584"/>
      </g>
     </g>
     <g id="text_35">
      <!-- 15.6 -->
      <defs>
       <path d="M 33.015625 40.375 
Q 26.375 40.375 22.484375 35.828125 
Q 18.609375 31.296875 18.609375 23.390625 
Q 18.609375 15.53125 22.484375 10.953125 
Q 26.375 6.390625 33.015625 6.390625 
Q 39.65625 6.390625 43.53125 10.953125 
Q 47.40625 15.53125 47.40625 23.390625 
Q 47.40625 31.296875 43.53125 35.828125 
Q 39.65625 40.375 33.015625 40.375 
z
M 52.59375 71.296875 
L 52.59375 62.3125 
Q 48.875 64.0625 45.09375 64.984375 
Q 41.3125 65.921875 37.59375 65.921875 
Q 27.828125 65.921875 22.671875 59.328125 
Q 17.53125 52.734375 16.796875 39.40625 
Q 19.671875 43.65625 24.015625 45.921875 
Q 28.375 48.1875 33.59375 48.1875 
Q 44.578125 48.1875 50.953125 41.515625 
Q 57.328125 34.859375 57.328125 23.390625 
Q 57.328125 12.15625 50.6875 5.359375 
Q 44.046875 -1.421875 33.015625 -1.421875 
Q 20.359375 -1.421875 13.671875 8.265625 
Q 6.984375 17.96875 6.984375 36.375 
Q 6.984375 53.65625 15.1875 63.9375 
Q 23.390625 74.21875 37.203125 74.21875 
Q 40.921875 74.21875 44.703125 73.484375 
Q 48.484375 72.75 52.59375 71.296875 
z
" id="DejaVuSans-54"/>
      </defs>
      <g transform="translate(178.107991 322.182437)scale(0.1 -0.1)">
       <use xlink:href="#DejaVuSans-49"/>
       <use x="63.623047" xlink:href="#DejaVuSans-53"/>
       <use x="127.246094" xlink:href="#DejaVuSans-46"/>
       <use x="159.033203" xlink:href="#DejaVuSans-54"/>
      </g>
     </g>
    </g>
   </g>
   <g id="matplotlib.axis_10">
    <g id="ytick_9">
     <g id="line2d_46">
      <g>
       <use style="stroke:#000000;stroke-width:0.8;" x="57.6" xlink:href="#md80c98135f" y="305.498483"/>
      </g>
     </g>
     <g id="text_36">
      <!-- 0 -->
      <g transform="translate(44.2375 309.297702)scale(0.1 -0.1)">
       <use xlink:href="#DejaVuSans-48"/>
      </g>
     </g>
    </g>
    <g id="ytick_10">
     <g id="line2d_47">
      <g>
       <use style="stroke:#000000;stroke-width:0.8;" x="57.6" xlink:href="#md80c98135f" y="262.027521"/>
      </g>
     </g>
     <g id="text_37">
      <!-- 5 -->
      <g transform="translate(44.2375 265.82674)scale(0.1 -0.1)">
       <use xlink:href="#DejaVuSans-53"/>
      </g>
     </g>
    </g>
    <g id="text_38">
     <!-- Frequency -->
     <g transform="translate(38.157812 310.940967)rotate(-90)scale(0.1 -0.1)">
      <use xlink:href="#DejaVuSans-70"/>
      <use x="57.410156" xlink:href="#DejaVuSans-114"/>
      <use x="98.492188" xlink:href="#DejaVuSans-101"/>
      <use x="160.015625" xlink:href="#DejaVuSans-113"/>
      <use x="223.492188" xlink:href="#DejaVuSans-117"/>
      <use x="286.871094" xlink:href="#DejaVuSans-101"/>
      <use x="348.394531" xlink:href="#DejaVuSans-110"/>
      <use x="411.773438" xlink:href="#DejaVuSans-99"/>
      <use x="466.753906" xlink:href="#DejaVuSans-121"/>
     </g>
    </g>
   </g>
   <g id="line2d_48">
    <path clip-path="url(#p12c86542e0)" d="M 64.978512 304.118292 
L 66.551056 303.641767 
L 68.123599 303.034189 
L 69.696143 302.271619 
L 71.268687 301.329695 
L 72.84123 300.184992 
L 74.413774 298.81672 
L 75.986317 297.208699 
L 77.558861 295.351515 
L 79.131404 293.244694 
L 80.703948 290.898731 
L 82.276491 288.336734 
L 83.849035 285.59548 
L 85.421578 282.725671 
L 86.994122 279.791228 
L 88.566666 276.867533 
L 90.139209 274.038623 
L 91.711753 271.393424 
L 93.284296 269.021256 
L 94.85684 267.006896 
L 96.429383 265.425579 
L 98.001927 264.338347 
L 99.57447 263.788138 
L 101.147014 263.796976 
L 102.719557 264.364505 
L 104.292101 265.468015 
L 105.864645 267.06395 
L 107.437188 269.090758 
L 109.009732 271.47283 
L 110.582275 274.12517 
L 112.154819 276.958396 
L 113.727362 279.88367 
L 115.299906 282.817176 
L 116.872449 285.683854 
L 118.444993 288.420176 
L 120.017536 290.975872 
L 121.59008 293.314605 
L 123.162623 295.413681 
L 124.735167 297.262978 
L 126.307711 298.863282 
L 127.880254 300.224255 
L 129.452798 301.362253 
L 131.025341 302.298177 
L 132.597885 303.055506 
L 134.170428 303.658609 
L 135.742972 304.131391 
L 137.315515 304.496296 
L 138.888059 304.773646 
L 140.460602 304.981265 
L 142.033146 305.134361 
" style="fill:none;stroke:#1f77b4;stroke-linecap:square;stroke-width:1.5;"/>
   </g>
   <g id="line2d_49">
    <path clip-path="url(#p12c86542e0)" d="M 104.262084 305.110752 
L 106.399964 304.893105 
L 108.537844 304.574351 
L 110.675724 304.119199 
L 112.813603 303.485758 
L 114.951483 302.626863 
L 117.089363 301.49276 
L 119.227242 300.035292 
L 121.365122 298.213587 
L 123.503002 296.000928 
L 125.640881 293.392171 
L 127.778761 290.410771 
L 129.916641 287.114212 
L 132.054521 283.596625 
L 134.1924 279.98751 
L 136.33028 276.44591 
L 138.46816 273.150018 
L 140.606039 270.282949 
L 142.743919 268.016169 
L 144.881799 266.492609 
L 147.019678 265.811769 
L 149.157558 266.01897 
L 151.295438 267.100365 
L 153.433318 268.984466 
L 155.571197 271.549967 
L 157.709077 274.638656 
L 159.846957 278.071522 
L 161.984836 281.665774 
L 164.122716 285.250553 
L 166.260596 288.679514 
L 168.398475 291.839146 
L 170.536355 294.652438 
L 172.674235 297.078239 
L 174.812115 299.107179 
L 176.949994 300.755345 
L 179.087874 302.056937 
L 181.225754 303.057005 
L 183.363633 303.805067 
L 185.501513 304.350102 
L 187.639393 304.73707 
L 189.777272 305.004894 
L 191.915152 305.185643 
L 194.053032 305.304622 
L 196.190912 305.381028 
L 198.328791 305.428906 
L 200.466671 305.458186 
L 202.604551 305.475665 
L 204.74243 305.48585 
L 206.88031 305.491645 
L 209.01819 305.494864 
" style="fill:none;stroke:#ff7f0e;stroke-linecap:square;stroke-width:1.5;"/>
   </g>
   <g id="line2d_50">
    <path clip-path="url(#p12c86542e0)" d="M 89.622525 305.498483 
L 89.622525 263.788138 
" style="fill:none;stroke:#ff0000;stroke-linecap:square;stroke-width:1.5;"/>
   </g>
   <g id="line2d_51">
    <path clip-path="url(#p12c86542e0)" d="M 212.54876 305.498483 
L 212.54876 265.811769 
" style="fill:none;stroke:#ff0000;stroke-linecap:square;stroke-width:1.5;"/>
   </g>
   <g id="patch_23">
    <path d="M 57.6 307.584 
L 57.6 261.702621 
" style="fill:none;stroke:#000000;stroke-linecap:square;stroke-linejoin:miter;stroke-width:0.8;"/>
   </g>
   <g id="patch_24">
    <path d="M 219.927273 307.584 
L 219.927273 261.702621 
" style="fill:none;stroke:#000000;stroke-linecap:square;stroke-linejoin:miter;stroke-width:0.8;"/>
   </g>
   <g id="patch_25">
    <path d="M 57.6 307.584 
L 219.927273 307.584 
" style="fill:none;stroke:#000000;stroke-linecap:square;stroke-linejoin:miter;stroke-width:0.8;"/>
   </g>
   <g id="patch_26">
    <path d="M 57.6 261.702621 
L 219.927273 261.702621 
" style="fill:none;stroke:#000000;stroke-linecap:square;stroke-linejoin:miter;stroke-width:0.8;"/>
   </g>
   <g id="text_39">
    <!-- sigma2 -->
    <defs>
     <path d="M 44.28125 53.078125 
L 44.28125 44.578125 
Q 40.484375 46.53125 36.375 47.5 
Q 32.28125 48.484375 27.875 48.484375 
Q 21.1875 48.484375 17.84375 46.4375 
Q 14.5 44.390625 14.5 40.28125 
Q 14.5 37.15625 16.890625 35.375 
Q 19.28125 33.59375 26.515625 31.984375 
L 29.59375 31.296875 
Q 39.15625 29.25 43.1875 25.515625 
Q 47.21875 21.78125 47.21875 15.09375 
Q 47.21875 7.46875 41.1875 3.015625 
Q 35.15625 -1.421875 24.609375 -1.421875 
Q 20.21875 -1.421875 15.453125 -0.5625 
Q 10.6875 0.296875 5.421875 2 
L 5.421875 11.28125 
Q 10.40625 8.6875 15.234375 7.390625 
Q 20.0625 6.109375 24.8125 6.109375 
Q 31.15625 6.109375 34.5625 8.28125 
Q 37.984375 10.453125 37.984375 14.40625 
Q 37.984375 18.0625 35.515625 20.015625 
Q 33.0625 21.96875 24.703125 23.78125 
L 21.578125 24.515625 
Q 13.234375 26.265625 9.515625 29.90625 
Q 5.8125 33.546875 5.8125 39.890625 
Q 5.8125 47.609375 11.28125 51.796875 
Q 16.75 56 26.8125 56 
Q 31.78125 56 36.171875 55.265625 
Q 40.578125 54.546875 44.28125 53.078125 
z
" id="DejaVuSans-115"/>
     <path d="M 9.421875 54.6875 
L 18.40625 54.6875 
L 18.40625 0 
L 9.421875 0 
z
M 9.421875 75.984375 
L 18.40625 75.984375 
L 18.40625 64.59375 
L 9.421875 64.59375 
z
" id="DejaVuSans-105"/>
     <path d="M 45.40625 27.984375 
Q 45.40625 37.75 41.375 43.109375 
Q 37.359375 48.484375 30.078125 48.484375 
Q 22.859375 48.484375 18.828125 43.109375 
Q 14.796875 37.75 14.796875 27.984375 
Q 14.796875 18.265625 18.828125 12.890625 
Q 22.859375 7.515625 30.078125 7.515625 
Q 37.359375 7.515625 41.375 12.890625 
Q 45.40625 18.265625 45.40625 27.984375 
z
M 54.390625 6.78125 
Q 54.390625 -7.171875 48.1875 -13.984375 
Q 42 -20.796875 29.203125 -20.796875 
Q 24.46875 -20.796875 20.265625 -20.09375 
Q 16.0625 -19.390625 12.109375 -17.921875 
L 12.109375 -9.1875 
Q 16.0625 -11.328125 19.921875 -12.34375 
Q 23.78125 -13.375 27.78125 -13.375 
Q 36.625 -13.375 41.015625 -8.765625 
Q 45.40625 -4.15625 45.40625 5.171875 
L 45.40625 9.625 
Q 42.625 4.78125 38.28125 2.390625 
Q 33.9375 0 27.875 0 
Q 17.828125 0 11.671875 7.65625 
Q 5.515625 15.328125 5.515625 27.984375 
Q 5.515625 40.671875 11.671875 48.328125 
Q 17.828125 56 27.875 56 
Q 33.9375 56 38.28125 53.609375 
Q 42.625 51.21875 45.40625 46.390625 
L 45.40625 54.6875 
L 54.390625 54.6875 
z
" id="DejaVuSans-103"/>
     <path d="M 34.28125 27.484375 
Q 23.390625 27.484375 19.1875 25 
Q 14.984375 22.515625 14.984375 16.5 
Q 14.984375 11.71875 18.140625 8.90625 
Q 21.296875 6.109375 26.703125 6.109375 
Q 34.1875 6.109375 38.703125 11.40625 
Q 43.21875 16.703125 43.21875 25.484375 
L 43.21875 27.484375 
z
M 52.203125 31.203125 
L 52.203125 0 
L 43.21875 0 
L 43.21875 8.296875 
Q 40.140625 3.328125 35.546875 0.953125 
Q 30.953125 -1.421875 24.3125 -1.421875 
Q 15.921875 -1.421875 10.953125 3.296875 
Q 6 8.015625 6 15.921875 
Q 6 25.140625 12.171875 29.828125 
Q 18.359375 34.515625 30.609375 34.515625 
L 43.21875 34.515625 
L 43.21875 35.40625 
Q 43.21875 41.609375 39.140625 45 
Q 35.0625 48.390625 27.6875 48.390625 
Q 23 48.390625 18.546875 47.265625 
Q 14.109375 46.140625 10.015625 43.890625 
L 10.015625 52.203125 
Q 14.9375 54.109375 19.578125 55.046875 
Q 24.21875 56 28.609375 56 
Q 40.484375 56 46.34375 49.84375 
Q 52.203125 43.703125 52.203125 31.203125 
z
" id="DejaVuSans-97"/>
    </defs>
    <g transform="translate(116.823324 255.702621)scale(0.12 -0.12)">
     <use xlink:href="#DejaVuSans-115"/>
     <use x="52.099609" xlink:href="#DejaVuSans-105"/>
     <use x="79.882812" xlink:href="#DejaVuSans-103"/>
     <use x="143.359375" xlink:href="#DejaVuSans-109"/>
     <use x="240.771484" xlink:href="#DejaVuSans-97"/>
     <use x="302.050781" xlink:href="#DejaVuSans-50"/>
    </g>
   </g>
  </g>
  <g id="axes_6">
   <g id="patch_27">
    <path d="M 252.392727 87.353379 
L 414.72 87.353379 
L 414.72 41.472 
L 252.392727 41.472 
z
" style="fill:#ffffff;"/>
   </g>
   <g id="matplotlib.axis_11">
    <g id="xtick_20">
     <g id="line2d_52">
      <g>
       <use style="stroke:#000000;stroke-width:0.8;" x="300.741306" xlink:href="#maad8e95a0c" y="87.353379"/>
      </g>
     </g>
     <g id="text_40">
      <!-- 2 -->
      <g transform="translate(297.560056 101.951817)scale(0.1 -0.1)">
       <use xlink:href="#DejaVuSans-50"/>
      </g>
     </g>
    </g>
    <g id="xtick_21">
     <g id="line2d_53">
      <g>
       <use style="stroke:#000000;stroke-width:0.8;" x="362.575535" xlink:href="#maad8e95a0c" y="87.353379"/>
      </g>
     </g>
     <g id="text_41">
      <!-- 4 -->
      <g transform="translate(359.394285 101.951817)scale(0.1 -0.1)">
       <use xlink:href="#DejaVuSans-52"/>
      </g>
     </g>
    </g>
   </g>
   <g id="matplotlib.axis_12">
    <g id="ytick_11">
     <g id="line2d_54">
      <g>
       <use style="stroke:#000000;stroke-width:0.8;" x="252.392727" xlink:href="#md80c98135f" y="85.267862"/>
      </g>
     </g>
     <g id="text_42">
      <!-- 0 -->
      <g transform="translate(239.030227 89.067081)scale(0.1 -0.1)">
       <use xlink:href="#DejaVuSans-48"/>
      </g>
     </g>
    </g>
    <g id="ytick_12">
     <g id="line2d_55">
      <g>
       <use style="stroke:#000000;stroke-width:0.8;" x="252.392727" xlink:href="#md80c98135f" y="43.841339"/>
      </g>
     </g>
     <g id="text_43">
      <!-- 100 -->
      <g transform="translate(226.305227 47.640558)scale(0.1 -0.1)">
       <use xlink:href="#DejaVuSans-49"/>
       <use x="63.623047" xlink:href="#DejaVuSans-48"/>
       <use x="127.246094" xlink:href="#DejaVuSans-48"/>
      </g>
     </g>
    </g>
    <g id="text_44">
     <!-- Frequency -->
     <g transform="translate(220.22554 90.710346)rotate(-90)scale(0.1 -0.1)">
      <use xlink:href="#DejaVuSans-70"/>
      <use x="57.410156" xlink:href="#DejaVuSans-114"/>
      <use x="98.492188" xlink:href="#DejaVuSans-101"/>
      <use x="160.015625" xlink:href="#DejaVuSans-113"/>
      <use x="223.492188" xlink:href="#DejaVuSans-117"/>
      <use x="286.871094" xlink:href="#DejaVuSans-101"/>
      <use x="348.394531" xlink:href="#DejaVuSans-110"/>
      <use x="411.773438" xlink:href="#DejaVuSans-99"/>
      <use x="466.753906" xlink:href="#DejaVuSans-121"/>
     </g>
    </g>
   </g>
   <g id="line2d_56">
    <path clip-path="url(#p69d396f717)" d="M 389.987898 85.251213 
L 390.102468 85.241446 
L 390.217038 85.226729 
L 390.331608 85.205004 
L 390.446178 85.173592 
L 390.560748 85.129112 
L 390.675319 85.067447 
L 390.789889 84.983762 
L 390.904459 84.872628 
L 391.019029 84.728252 
L 391.133599 84.544845 
L 391.248169 84.317126 
L 391.36274 84.04095 
L 391.47731 83.71401 
L 391.59188 83.336567 
L 391.70645 82.912108 
L 391.82102 82.44783 
L 391.93559 81.954868 
L 392.050161 81.448157 
L 392.164731 80.945894 
L 392.279301 80.468584 
L 392.393871 80.037728 
L 392.508441 79.674251 
L 392.623011 79.396832 
L 392.737582 79.220319 
L 392.852152 79.154415 
L 392.966722 79.20279 
L 393.081292 79.362747 
L 393.195862 79.62547 
L 393.310432 79.976825 
L 393.425003 80.398625 
L 393.539573 80.870182 
L 393.654143 81.369978 
L 393.768713 81.877261 
L 393.883283 82.373405 
L 393.997853 82.842927 
L 394.112424 83.274089 
L 394.226994 83.659092 
L 394.341564 83.993906 
L 394.456134 84.27781 
L 394.570704 84.512763 
L 394.685274 84.702675 
L 394.799845 84.852695 
L 394.914415 84.968569 
L 395.028985 85.056117 
L 395.143555 85.120844 
L 395.258125 85.167684 
L 395.372695 85.200871 
L 395.487266 85.223897 
L 395.601836 85.239546 
" style="fill:none;stroke:#1f77b4;stroke-linecap:square;stroke-width:1.5;"/>
   </g>
   <g id="line2d_57">
    <path clip-path="url(#p69d396f717)" d="M 259.77124 84.843093 
L 259.78575 84.663746 
L 259.80026 84.420673 
L 259.81477 84.096389 
L 259.82928 83.670601 
L 259.843791 83.120467 
L 259.858301 82.421172 
L 259.872811 81.546856 
L 259.887321 80.471934 
L 259.901831 79.172815 
L 259.916342 77.62997 
L 259.930852 75.830249 
L 259.945362 73.769318 
L 259.959872 71.453982 
L 259.974382 68.904196 
L 259.988893 66.154475 
L 260.003403 63.25448 
L 260.017913 60.268553 
L 260.032423 57.274095 
L 260.046933 54.358732 
L 260.061443 51.616369 
L 260.075954 49.142352 
L 260.090464 47.028051 
L 260.104974 45.355301 
L 260.119484 44.191162 
L 260.133994 43.583456 
L 260.148505 43.557517 
L 260.163015 44.114431 
L 260.177525 45.230964 
L 260.192035 46.86117 
L 260.206545 48.939528 
L 260.221056 51.385306 
L 260.235566 54.107754 
L 260.250076 57.011656 
L 260.264586 60.002773 
L 260.279096 62.992748 
L 260.293607 65.903146 
L 260.308117 68.668383 
L 260.322627 71.237468 
L 260.337137 73.574555 
L 260.351647 75.658446 
L 260.366158 77.481247 
L 260.380668 79.046399 
L 260.395178 80.366368 
L 260.409688 81.460217 
L 260.424198 82.351264 
L 260.438708 83.064992 
L 260.453219 83.627298 
L 260.467729 84.063132 
L 260.482239 84.395537 
" style="fill:none;stroke:#ff7f0e;stroke-linecap:square;stroke-width:1.5;"/>
   </g>
   <g id="line2d_58">
    <path clip-path="url(#p69d396f717)" d="M 407.341488 85.267862 
L 407.341488 79.154415 
" style="fill:none;stroke:#ff0000;stroke-linecap:square;stroke-width:1.5;"/>
   </g>
   <g id="line2d_59">
    <path clip-path="url(#p69d396f717)" d="M 262.346168 85.267862 
L 262.346168 43.557517 
" style="fill:none;stroke:#ff0000;stroke-linecap:square;stroke-width:1.5;"/>
   </g>
   <g id="patch_28">
    <path d="M 252.392727 87.353379 
L 252.392727 41.472 
" style="fill:none;stroke:#000000;stroke-linecap:square;stroke-linejoin:miter;stroke-width:0.8;"/>
   </g>
   <g id="patch_29">
    <path d="M 414.72 87.353379 
L 414.72 41.472 
" style="fill:none;stroke:#000000;stroke-linecap:square;stroke-linejoin:miter;stroke-width:0.8;"/>
   </g>
   <g id="patch_30">
    <path d="M 252.392727 87.353379 
L 414.72 87.353379 
" style="fill:none;stroke:#000000;stroke-linecap:square;stroke-linejoin:miter;stroke-width:0.8;"/>
   </g>
   <g id="patch_31">
    <path d="M 252.392727 41.472 
L 414.72 41.472 
" style="fill:none;stroke:#000000;stroke-linecap:square;stroke-linejoin:miter;stroke-width:0.8;"/>
   </g>
   <g id="text_45">
    <!-- sigma0 -->
    <g transform="translate(311.616051 35.472)scale(0.12 -0.12)">
     <use xlink:href="#DejaVuSans-115"/>
     <use x="52.099609" xlink:href="#DejaVuSans-105"/>
     <use x="79.882812" xlink:href="#DejaVuSans-103"/>
     <use x="143.359375" xlink:href="#DejaVuSans-109"/>
     <use x="240.771484" xlink:href="#DejaVuSans-97"/>
     <use x="302.050781" xlink:href="#DejaVuSans-48"/>
    </g>
   </g>
  </g>
  <g id="axes_7">
   <g id="patch_32">
    <path d="M 252.392727 142.411034 
L 414.72 142.411034 
L 414.72 96.529655 
L 252.392727 96.529655 
z
" style="fill:#ffffff;"/>
   </g>
   <g id="matplotlib.axis_13">
    <g id="xtick_22">
     <g id="line2d_60">
      <g>
       <use style="stroke:#000000;stroke-width:0.8;" x="261.284043" xlink:href="#maad8e95a0c" y="142.411034"/>
      </g>
     </g>
     <g id="text_46">
      <!-- 2.5 -->
      <g transform="translate(253.33248 157.009472)scale(0.1 -0.1)">
       <use xlink:href="#DejaVuSans-50"/>
       <use x="63.623047" xlink:href="#DejaVuSans-46"/>
       <use x="95.410156" xlink:href="#DejaVuSans-53"/>
      </g>
     </g>
    </g>
    <g id="xtick_23">
     <g id="line2d_61">
      <g>
       <use style="stroke:#000000;stroke-width:0.8;" x="298.450192" xlink:href="#maad8e95a0c" y="142.411034"/>
      </g>
     </g>
     <g id="text_47">
      <!-- 5.0 -->
      <g transform="translate(290.49863 157.009472)scale(0.1 -0.1)">
       <use xlink:href="#DejaVuSans-53"/>
       <use x="63.623047" xlink:href="#DejaVuSans-46"/>
       <use x="95.410156" xlink:href="#DejaVuSans-48"/>
      </g>
     </g>
    </g>
    <g id="xtick_24">
     <g id="line2d_62">
      <g>
       <use style="stroke:#000000;stroke-width:0.8;" x="335.616342" xlink:href="#maad8e95a0c" y="142.411034"/>
      </g>
     </g>
     <g id="text_48">
      <!-- 7.5 -->
      <defs>
       <path d="M 8.203125 72.90625 
L 55.078125 72.90625 
L 55.078125 68.703125 
L 28.609375 0 
L 18.3125 0 
L 43.21875 64.59375 
L 8.203125 64.59375 
z
" id="DejaVuSans-55"/>
      </defs>
      <g transform="translate(327.664779 157.009472)scale(0.1 -0.1)">
       <use xlink:href="#DejaVuSans-55"/>
       <use x="63.623047" xlink:href="#DejaVuSans-46"/>
       <use x="95.410156" xlink:href="#DejaVuSans-53"/>
      </g>
     </g>
    </g>
    <g id="xtick_25">
     <g id="line2d_63">
      <g>
       <use style="stroke:#000000;stroke-width:0.8;" x="372.782491" xlink:href="#maad8e95a0c" y="142.411034"/>
      </g>
     </g>
     <g id="text_49">
      <!-- 10.0 -->
      <g transform="translate(361.649679 157.009472)scale(0.1 -0.1)">
       <use xlink:href="#DejaVuSans-49"/>
       <use x="63.623047" xlink:href="#DejaVuSans-48"/>
       <use x="127.246094" xlink:href="#DejaVuSans-46"/>
       <use x="159.033203" xlink:href="#DejaVuSans-48"/>
      </g>
     </g>
    </g>
    <g id="xtick_26">
     <g id="line2d_64">
      <g>
       <use style="stroke:#000000;stroke-width:0.8;" x="409.948641" xlink:href="#maad8e95a0c" y="142.411034"/>
      </g>
     </g>
     <g id="text_50">
      <!-- 12.5 -->
      <g transform="translate(398.815829 157.009472)scale(0.1 -0.1)">
       <use xlink:href="#DejaVuSans-49"/>
       <use x="63.623047" xlink:href="#DejaVuSans-50"/>
       <use x="127.246094" xlink:href="#DejaVuSans-46"/>
       <use x="159.033203" xlink:href="#DejaVuSans-53"/>
      </g>
     </g>
    </g>
   </g>
   <g id="matplotlib.axis_14">
    <g id="ytick_13">
     <g id="line2d_65">
      <g>
       <use style="stroke:#000000;stroke-width:0.8;" x="252.392727" xlink:href="#md80c98135f" y="140.325517"/>
      </g>
     </g>
     <g id="text_51">
      <!-- 0 -->
      <g transform="translate(239.030227 144.124736)scale(0.1 -0.1)">
       <use xlink:href="#DejaVuSans-48"/>
      </g>
     </g>
    </g>
    <g id="ytick_14">
     <g id="line2d_66">
      <g>
       <use style="stroke:#000000;stroke-width:0.8;" x="252.392727" xlink:href="#md80c98135f" y="108.531787"/>
      </g>
     </g>
     <g id="text_52">
      <!-- 20 -->
      <g transform="translate(232.667727 112.331006)scale(0.1 -0.1)">
       <use xlink:href="#DejaVuSans-50"/>
       <use x="63.623047" xlink:href="#DejaVuSans-48"/>
      </g>
     </g>
    </g>
    <g id="text_53">
     <!-- Frequency -->
     <g transform="translate(226.58804 145.768001)rotate(-90)scale(0.1 -0.1)">
      <use xlink:href="#DejaVuSans-70"/>
      <use x="57.410156" xlink:href="#DejaVuSans-114"/>
      <use x="98.492188" xlink:href="#DejaVuSans-101"/>
      <use x="160.015625" xlink:href="#DejaVuSans-113"/>
      <use x="223.492188" xlink:href="#DejaVuSans-117"/>
      <use x="286.871094" xlink:href="#DejaVuSans-101"/>
      <use x="348.394531" xlink:href="#DejaVuSans-110"/>
      <use x="411.773438" xlink:href="#DejaVuSans-99"/>
      <use x="466.753906" xlink:href="#DejaVuSans-121"/>
     </g>
    </g>
   </g>
   <g id="line2d_67">
    <path clip-path="url(#p5f035b2a01)" d="M 403.711369 140.101688 
L 403.785453 140.005705 
L 403.859538 139.875634 
L 403.933622 139.702455 
L 404.007706 139.475965 
L 404.08179 139.185068 
L 404.155874 138.818256 
L 404.229958 138.36429 
L 404.304042 137.813085 
L 404.378126 137.15677 
L 404.45221 136.390851 
L 404.526294 135.515406 
L 404.600378 134.536175 
L 404.674462 133.465419 
L 404.748546 132.322416 
L 404.82263 131.133449 
L 404.896714 129.931221 
L 404.970798 128.753638 
L 405.044882 127.642002 
L 405.118966 126.638706 
L 405.19305 125.784597 
L 405.267134 125.116246 
L 405.341218 124.66335 
L 405.415302 124.44655 
L 405.489387 124.475871 
L 405.563471 124.749952 
L 405.637555 125.25615 
L 405.711639 125.971511 
L 405.785723 126.864491 
L 405.859807 127.897262 
L 405.933891 129.028363 
L 406.007975 130.21543 
L 406.082059 131.417774 
L 406.156143 132.59858 
L 406.230227 133.726579 
L 406.304311 134.777119 
L 406.378395 135.732605 
L 406.452479 136.582382 
L 406.526563 137.32214 
L 406.600647 137.95299 
L 406.674731 138.480334 
L 406.748815 138.912672 
L 406.822899 139.260451 
L 406.896983 139.535047 
L 406.971067 139.747924 
L 407.045151 139.910004 
L 407.119235 140.031228 
L 407.19332 140.120311 
L 407.267404 140.184642 
L 407.341488 140.230302 
" style="fill:none;stroke:#1f77b4;stroke-linecap:square;stroke-width:1.5;"/>
   </g>
   <g id="line2d_68">
    <path clip-path="url(#p5f035b2a01)" d="M 259.77124 139.473847 
L 259.80144 139.100196 
L 259.83164 138.593798 
L 259.86184 137.921404 
L 259.892041 137.046965 
L 259.922241 135.933552 
L 259.952441 134.546083 
L 259.982641 132.854814 
L 260.012842 130.839426 
L 260.043042 128.49339 
L 260.073242 125.828188 
L 260.103442 122.876826 
L 260.133643 119.696079 
L 260.163843 116.366907 
L 260.194043 112.99263 
L 260.224243 109.694665 
L 260.254444 106.605923 
L 260.284644 103.862276 
L 260.314844 101.592808 
L 260.345044 99.909811 
L 260.375245 98.8996 
L 260.405445 98.615172 
L 260.435645 99.071608 
L 260.465845 100.244743 
L 260.496046 102.073285 
L 260.526246 104.464125 
L 260.556446 107.300186 
L 260.586646 110.449899 
L 260.616847 113.777243 
L 260.647047 117.151284 
L 260.677247 120.454316 
L 260.707447 123.587942 
L 260.737648 126.476765 
L 260.767848 129.069663 
L 260.798048 131.338907 
L 260.828248 133.277563 
L 260.858449 134.895767 
L 260.888649 136.21642 
L 260.918849 137.270859 
L 260.949049 138.094883 
L 260.97925 138.725429 
L 261.00945 139.198036 
L 261.03965 139.545105 
L 261.06985 139.794891 
L 261.100051 139.97111 
L 261.130251 140.092994 
L 261.160451 140.175659 
L 261.190651 140.230644 
L 261.220852 140.266517 
L 261.251052 140.289474 
" style="fill:none;stroke:#ff7f0e;stroke-linecap:square;stroke-width:1.5;"/>
   </g>
   <g id="line2d_69">
    <path clip-path="url(#p5f035b2a01)" d="M 406.381795 140.325517 
L 406.381795 124.44655 
" style="fill:none;stroke:#ff0000;stroke-linecap:square;stroke-width:1.5;"/>
   </g>
   <g id="line2d_70">
    <path clip-path="url(#p5f035b2a01)" d="M 264.725522 140.325517 
L 264.725522 98.615172 
" style="fill:none;stroke:#ff0000;stroke-linecap:square;stroke-width:1.5;"/>
   </g>
   <g id="patch_33">
    <path d="M 252.392727 142.411034 
L 252.392727 96.529655 
" style="fill:none;stroke:#000000;stroke-linecap:square;stroke-linejoin:miter;stroke-width:0.8;"/>
   </g>
   <g id="patch_34">
    <path d="M 414.72 142.411034 
L 414.72 96.529655 
" style="fill:none;stroke:#000000;stroke-linecap:square;stroke-linejoin:miter;stroke-width:0.8;"/>
   </g>
   <g id="patch_35">
    <path d="M 252.392727 142.411034 
L 414.72 142.411034 
" style="fill:none;stroke:#000000;stroke-linecap:square;stroke-linejoin:miter;stroke-width:0.8;"/>
   </g>
   <g id="patch_36">
    <path d="M 252.392727 96.529655 
L 414.72 96.529655 
" style="fill:none;stroke:#000000;stroke-linecap:square;stroke-linejoin:miter;stroke-width:0.8;"/>
   </g>
   <g id="text_54">
    <!-- sigma1 -->
    <g transform="translate(311.616051 90.529655)scale(0.12 -0.12)">
     <use xlink:href="#DejaVuSans-115"/>
     <use x="52.099609" xlink:href="#DejaVuSans-105"/>
     <use x="79.882812" xlink:href="#DejaVuSans-103"/>
     <use x="143.359375" xlink:href="#DejaVuSans-109"/>
     <use x="240.771484" xlink:href="#DejaVuSans-97"/>
     <use x="302.050781" xlink:href="#DejaVuSans-49"/>
    </g>
   </g>
  </g>
  <g id="axes_8">
   <g id="patch_37">
    <path d="M 252.392727 197.46869 
L 414.72 197.46869 
L 414.72 151.58731 
L 252.392727 151.58731 
z
" style="fill:#ffffff;"/>
   </g>
   <g id="matplotlib.axis_15">
    <g id="xtick_27">
     <g id="line2d_71">
      <g>
       <use style="stroke:#000000;stroke-width:0.8;" x="263.347678" xlink:href="#maad8e95a0c" y="197.46869"/>
      </g>
     </g>
     <g id="text_55">
      <!-- 0.04 -->
      <defs>
       <path d="M 10.59375 35.5 
L 73.1875 35.5 
L 73.1875 27.203125 
L 10.59375 27.203125 
z
" id="DejaVuSans-8722"/>
      </defs>
      <g transform="translate(248.025022 212.067127)scale(0.1 -0.1)">
       <use xlink:href="#DejaVuSans-8722"/>
       <use x="83.789062" xlink:href="#DejaVuSans-48"/>
       <use x="147.412109" xlink:href="#DejaVuSans-46"/>
       <use x="179.199219" xlink:href="#DejaVuSans-48"/>
       <use x="242.822266" xlink:href="#DejaVuSans-52"/>
      </g>
     </g>
    </g>
    <g id="xtick_28">
     <g id="line2d_72">
      <g>
       <use style="stroke:#000000;stroke-width:0.8;" x="305.224585" xlink:href="#maad8e95a0c" y="197.46869"/>
      </g>
     </g>
     <g id="text_56">
      <!-- 0.02 -->
      <g transform="translate(289.901929 212.067127)scale(0.1 -0.1)">
       <use xlink:href="#DejaVuSans-8722"/>
       <use x="83.789062" xlink:href="#DejaVuSans-48"/>
       <use x="147.412109" xlink:href="#DejaVuSans-46"/>
       <use x="179.199219" xlink:href="#DejaVuSans-48"/>
       <use x="242.822266" xlink:href="#DejaVuSans-50"/>
      </g>
     </g>
    </g>
    <g id="xtick_29">
     <g id="line2d_73">
      <g>
       <use style="stroke:#000000;stroke-width:0.8;" x="347.101492" xlink:href="#maad8e95a0c" y="197.46869"/>
      </g>
     </g>
     <g id="text_57">
      <!-- 0.00 -->
      <g transform="translate(335.96868 212.067127)scale(0.1 -0.1)">
       <use xlink:href="#DejaVuSans-48"/>
       <use x="63.623047" xlink:href="#DejaVuSans-46"/>
       <use x="95.410156" xlink:href="#DejaVuSans-48"/>
       <use x="159.033203" xlink:href="#DejaVuSans-48"/>
      </g>
     </g>
    </g>
    <g id="xtick_30">
     <g id="line2d_74">
      <g>
       <use style="stroke:#000000;stroke-width:0.8;" x="388.978399" xlink:href="#maad8e95a0c" y="197.46869"/>
      </g>
     </g>
     <g id="text_58">
      <!-- 0.02 -->
      <g transform="translate(377.845587 212.067127)scale(0.1 -0.1)">
       <use xlink:href="#DejaVuSans-48"/>
       <use x="63.623047" xlink:href="#DejaVuSans-46"/>
       <use x="95.410156" xlink:href="#DejaVuSans-48"/>
       <use x="159.033203" xlink:href="#DejaVuSans-50"/>
      </g>
     </g>
    </g>
   </g>
   <g id="matplotlib.axis_16">
    <g id="ytick_15">
     <g id="line2d_75">
      <g>
       <use style="stroke:#000000;stroke-width:0.8;" x="252.392727" xlink:href="#md80c98135f" y="195.383172"/>
      </g>
     </g>
     <g id="text_59">
      <!-- 0 -->
      <g transform="translate(239.030227 199.182391)scale(0.1 -0.1)">
       <use xlink:href="#DejaVuSans-48"/>
      </g>
     </g>
    </g>
    <g id="ytick_16">
     <g id="line2d_76">
      <g>
       <use style="stroke:#000000;stroke-width:0.8;" x="252.392727" xlink:href="#md80c98135f" y="154.644285"/>
      </g>
     </g>
     <g id="text_60">
      <!-- 50 -->
      <g transform="translate(232.667727 158.443503)scale(0.1 -0.1)">
       <use xlink:href="#DejaVuSans-53"/>
       <use x="63.623047" xlink:href="#DejaVuSans-48"/>
      </g>
     </g>
    </g>
    <g id="text_61">
     <!-- Frequency -->
     <g transform="translate(226.58804 200.825656)rotate(-90)scale(0.1 -0.1)">
      <use xlink:href="#DejaVuSans-70"/>
      <use x="57.410156" xlink:href="#DejaVuSans-114"/>
      <use x="98.492188" xlink:href="#DejaVuSans-101"/>
      <use x="160.015625" xlink:href="#DejaVuSans-113"/>
      <use x="223.492188" xlink:href="#DejaVuSans-117"/>
      <use x="286.871094" xlink:href="#DejaVuSans-101"/>
      <use x="348.394531" xlink:href="#DejaVuSans-110"/>
      <use x="411.773438" xlink:href="#DejaVuSans-99"/>
      <use x="466.753906" xlink:href="#DejaVuSans-121"/>
     </g>
    </g>
   </g>
   <g id="line2d_77">
    <path clip-path="url(#pac3d128bd3)" d="M 259.77124 195.382358 
L 262.782877 195.38128 
L 265.794515 195.378923 
L 268.806153 195.373952 
L 271.817791 195.363833 
L 274.829428 195.343972 
L 277.841066 195.306375 
L 280.852704 195.237766 
L 283.864341 195.117092 
L 286.875979 194.912596 
L 289.887617 194.578838 
L 292.899255 194.054455 
L 295.910892 193.261796 
L 298.92253 192.109824 
L 301.934168 190.501644 
L 304.945805 188.347451 
L 307.957443 185.582617 
L 310.969081 182.189006 
L 313.980719 178.215856 
L 316.992356 173.795188 
L 320.003994 169.146364 
L 323.015632 164.56555 
L 326.027269 160.398608 
L 329.038907 156.999809 
L 332.050545 154.682762 
L 335.062182 153.672828 
L 338.07382 154.071005 
L 341.085458 155.837278 
L 344.097096 158.797248 
L 347.108733 162.67051 
L 350.120371 167.1144 
L 353.132009 171.773648 
L 356.143646 176.326076 
L 359.155284 180.516442 
L 362.166922 184.174262 
L 365.17856 187.215458 
L 368.190197 189.631066 
L 371.201835 191.468076 
L 374.213473 192.807757 
L 377.22511 193.745823 
L 380.236748 194.377111 
L 383.248386 194.785729 
L 386.260024 195.040279 
L 389.271661 195.192973 
L 392.283299 195.281208 
L 395.294937 195.330343 
L 398.306574 195.356718 
L 401.318212 195.37037 
L 404.32985 195.377184 
L 407.341488 195.380465 
" style="fill:none;stroke:#1f77b4;stroke-linecap:square;stroke-width:1.5;"/>
   </g>
   <g id="line2d_78">
    <path clip-path="url(#pac3d128bd3)" d="M 373.220216 195.383172 
L 373.220216 153.672828 
" style="fill:none;stroke:#ff0000;stroke-linecap:square;stroke-width:1.5;"/>
   </g>
   <g id="patch_38">
    <path d="M 252.392727 197.46869 
L 252.392727 151.58731 
" style="fill:none;stroke:#000000;stroke-linecap:square;stroke-linejoin:miter;stroke-width:0.8;"/>
   </g>
   <g id="patch_39">
    <path d="M 414.72 197.46869 
L 414.72 151.58731 
" style="fill:none;stroke:#000000;stroke-linecap:square;stroke-linejoin:miter;stroke-width:0.8;"/>
   </g>
   <g id="patch_40">
    <path d="M 252.392727 197.46869 
L 414.72 197.46869 
" style="fill:none;stroke:#000000;stroke-linecap:square;stroke-linejoin:miter;stroke-width:0.8;"/>
   </g>
   <g id="patch_41">
    <path d="M 252.392727 151.58731 
L 414.72 151.58731 
" style="fill:none;stroke:#000000;stroke-linecap:square;stroke-linejoin:miter;stroke-width:0.8;"/>
   </g>
   <g id="text_62">
    <!-- corr2 -->
    <defs>
     <path d="M 30.609375 48.390625 
Q 23.390625 48.390625 19.1875 42.75 
Q 14.984375 37.109375 14.984375 27.296875 
Q 14.984375 17.484375 19.15625 11.84375 
Q 23.34375 6.203125 30.609375 6.203125 
Q 37.796875 6.203125 41.984375 11.859375 
Q 46.1875 17.53125 46.1875 27.296875 
Q 46.1875 37.015625 41.984375 42.703125 
Q 37.796875 48.390625 30.609375 48.390625 
z
M 30.609375 56 
Q 42.328125 56 49.015625 48.375 
Q 55.71875 40.765625 55.71875 27.296875 
Q 55.71875 13.875 49.015625 6.21875 
Q 42.328125 -1.421875 30.609375 -1.421875 
Q 18.84375 -1.421875 12.171875 6.21875 
Q 5.515625 13.875 5.515625 27.296875 
Q 5.515625 40.765625 12.171875 48.375 
Q 18.84375 56 30.609375 56 
z
" id="DejaVuSans-111"/>
    </defs>
    <g transform="translate(317.836364 145.58731)scale(0.12 -0.12)">
     <use xlink:href="#DejaVuSans-99"/>
     <use x="54.980469" xlink:href="#DejaVuSans-111"/>
     <use x="116.162109" xlink:href="#DejaVuSans-114"/>
     <use x="157.259766" xlink:href="#DejaVuSans-114"/>
     <use x="198.373047" xlink:href="#DejaVuSans-50"/>
    </g>
   </g>
  </g>
  <g id="axes_9">
   <g id="patch_42">
    <path d="M 252.392727 252.526345 
L 414.72 252.526345 
L 414.72 206.644966 
L 252.392727 206.644966 
z
" style="fill:#ffffff;"/>
   </g>
   <g id="matplotlib.axis_17">
    <g id="xtick_31">
     <g id="line2d_79">
      <g>
       <use style="stroke:#000000;stroke-width:0.8;" x="259.299299" xlink:href="#maad8e95a0c" y="252.526345"/>
      </g>
     </g>
     <g id="text_63">
      <!-- 0.06 -->
      <g transform="translate(248.166486 267.124782)scale(0.1 -0.1)">
       <use xlink:href="#DejaVuSans-48"/>
       <use x="63.623047" xlink:href="#DejaVuSans-46"/>
       <use x="95.410156" xlink:href="#DejaVuSans-48"/>
       <use x="159.033203" xlink:href="#DejaVuSans-54"/>
      </g>
     </g>
    </g>
    <g id="xtick_32">
     <g id="line2d_80">
      <g>
       <use style="stroke:#000000;stroke-width:0.8;" x="298.150089" xlink:href="#maad8e95a0c" y="252.526345"/>
      </g>
     </g>
     <g id="text_64">
      <!-- 0.07 -->
      <g transform="translate(287.017277 267.124782)scale(0.1 -0.1)">
       <use xlink:href="#DejaVuSans-48"/>
       <use x="63.623047" xlink:href="#DejaVuSans-46"/>
       <use x="95.410156" xlink:href="#DejaVuSans-48"/>
       <use x="159.033203" xlink:href="#DejaVuSans-55"/>
      </g>
     </g>
    </g>
    <g id="xtick_33">
     <g id="line2d_81">
      <g>
       <use style="stroke:#000000;stroke-width:0.8;" x="337.00088" xlink:href="#maad8e95a0c" y="252.526345"/>
      </g>
     </g>
     <g id="text_65">
      <!-- 0.08 -->
      <g transform="translate(325.868067 267.124782)scale(0.1 -0.1)">
       <use xlink:href="#DejaVuSans-48"/>
       <use x="63.623047" xlink:href="#DejaVuSans-46"/>
       <use x="95.410156" xlink:href="#DejaVuSans-48"/>
       <use x="159.033203" xlink:href="#DejaVuSans-56"/>
      </g>
     </g>
    </g>
    <g id="xtick_34">
     <g id="line2d_82">
      <g>
       <use style="stroke:#000000;stroke-width:0.8;" x="375.851671" xlink:href="#maad8e95a0c" y="252.526345"/>
      </g>
     </g>
     <g id="text_66">
      <!-- 0.09 -->
      <defs>
       <path d="M 10.984375 1.515625 
L 10.984375 10.5 
Q 14.703125 8.734375 18.5 7.8125 
Q 22.3125 6.890625 25.984375 6.890625 
Q 35.75 6.890625 40.890625 13.453125 
Q 46.046875 20.015625 46.78125 33.40625 
Q 43.953125 29.203125 39.59375 26.953125 
Q 35.25 24.703125 29.984375 24.703125 
Q 19.046875 24.703125 12.671875 31.3125 
Q 6.296875 37.9375 6.296875 49.421875 
Q 6.296875 60.640625 12.9375 67.421875 
Q 19.578125 74.21875 30.609375 74.21875 
Q 43.265625 74.21875 49.921875 64.515625 
Q 56.59375 54.828125 56.59375 36.375 
Q 56.59375 19.140625 48.40625 8.859375 
Q 40.234375 -1.421875 26.421875 -1.421875 
Q 22.703125 -1.421875 18.890625 -0.6875 
Q 15.09375 0.046875 10.984375 1.515625 
z
M 30.609375 32.421875 
Q 37.25 32.421875 41.125 36.953125 
Q 45.015625 41.5 45.015625 49.421875 
Q 45.015625 57.28125 41.125 61.84375 
Q 37.25 66.40625 30.609375 66.40625 
Q 23.96875 66.40625 20.09375 61.84375 
Q 16.21875 57.28125 16.21875 49.421875 
Q 16.21875 41.5 20.09375 36.953125 
Q 23.96875 32.421875 30.609375 32.421875 
z
" id="DejaVuSans-57"/>
      </defs>
      <g transform="translate(364.718858 267.124782)scale(0.1 -0.1)">
       <use xlink:href="#DejaVuSans-48"/>
       <use x="63.623047" xlink:href="#DejaVuSans-46"/>
       <use x="95.410156" xlink:href="#DejaVuSans-48"/>
       <use x="159.033203" xlink:href="#DejaVuSans-57"/>
      </g>
     </g>
    </g>
    <g id="xtick_35">
     <g id="line2d_83">
      <g>
       <use style="stroke:#000000;stroke-width:0.8;" x="414.702461" xlink:href="#maad8e95a0c" y="252.526345"/>
      </g>
     </g>
     <g id="text_67">
      <!-- 0.10 -->
      <g transform="translate(403.569649 267.124782)scale(0.1 -0.1)">
       <use xlink:href="#DejaVuSans-48"/>
       <use x="63.623047" xlink:href="#DejaVuSans-46"/>
       <use x="95.410156" xlink:href="#DejaVuSans-49"/>
       <use x="159.033203" xlink:href="#DejaVuSans-48"/>
      </g>
     </g>
    </g>
   </g>
   <g id="matplotlib.axis_18">
    <g id="ytick_17">
     <g id="line2d_84">
      <g>
       <use style="stroke:#000000;stroke-width:0.8;" x="252.392727" xlink:href="#md80c98135f" y="250.440828"/>
      </g>
     </g>
     <g id="text_68">
      <!-- 0 -->
      <g transform="translate(239.030227 254.240046)scale(0.1 -0.1)">
       <use xlink:href="#DejaVuSans-48"/>
      </g>
     </g>
    </g>
    <g id="ytick_18">
     <g id="line2d_85">
      <g>
       <use style="stroke:#000000;stroke-width:0.8;" x="252.392727" xlink:href="#md80c98135f" y="217.652815"/>
      </g>
     </g>
     <g id="text_69">
      <!-- 50 -->
      <g transform="translate(232.667727 221.452034)scale(0.1 -0.1)">
       <use xlink:href="#DejaVuSans-53"/>
       <use x="63.623047" xlink:href="#DejaVuSans-48"/>
      </g>
     </g>
    </g>
    <g id="text_70">
     <!-- Frequency -->
     <g transform="translate(226.58804 255.883311)rotate(-90)scale(0.1 -0.1)">
      <use xlink:href="#DejaVuSans-70"/>
      <use x="57.410156" xlink:href="#DejaVuSans-114"/>
      <use x="98.492188" xlink:href="#DejaVuSans-101"/>
      <use x="160.015625" xlink:href="#DejaVuSans-113"/>
      <use x="223.492188" xlink:href="#DejaVuSans-117"/>
      <use x="286.871094" xlink:href="#DejaVuSans-101"/>
      <use x="348.394531" xlink:href="#DejaVuSans-110"/>
      <use x="411.773438" xlink:href="#DejaVuSans-99"/>
      <use x="466.753906" xlink:href="#DejaVuSans-121"/>
     </g>
    </g>
   </g>
   <g id="line2d_86">
    <path clip-path="url(#pd852d79ace)" d="M 259.77124 250.098637 
L 262.782877 249.942767 
L 265.794515 249.726884 
L 268.806153 249.432933 
L 271.817791 249.039515 
L 274.829428 248.522054 
L 277.841066 247.853323 
L 280.852704 247.004399 
L 283.864341 245.94611 
L 286.875979 244.650991 
L 289.887617 243.095707 
L 292.899255 241.263836 
L 295.910892 239.148835 
L 298.92253 236.756937 
L 301.934168 234.109653 
L 304.945805 231.245567 
L 307.957443 228.221064 
L 310.969081 225.109752 
L 313.980719 222.000368 
L 316.992356 218.993163 
L 320.003994 216.194897 
L 323.015632 213.712737 
L 326.027269 211.647546 
L 329.038907 210.087117 
L 332.050545 209.099994 
L 335.062182 208.730483 
L 338.07382 208.995352 
L 341.085458 209.882573 
L 344.097096 211.352221 
L 347.108733 213.33946 
L 350.120371 215.759283 
L 353.132009 218.512531 
L 356.143646 221.492608 
L 359.155284 224.592244 
L 362.166922 227.709728 
L 365.17856 230.754127 
L 368.190197 233.649145 
L 371.201835 236.335464 
L 374.213473 238.771572 
L 377.22511 240.933229 
L 380.236748 242.811833 
L 383.248386 244.412004 
L 386.260024 245.748735 
L 389.271661 246.844416 
L 392.283299 247.726007 
L 395.294937 248.422547 
L 398.306574 248.963112 
L 401.318212 249.37529 
L 404.32985 249.684142 
L 407.341488 249.911614 
" style="fill:none;stroke:#1f77b4;stroke-linecap:square;stroke-width:1.5;"/>
   </g>
   <g id="line2d_87">
    <path clip-path="url(#pd852d79ace)" d="M 341.418295 250.440828 
L 341.418295 208.730483 
" style="fill:none;stroke:#ff0000;stroke-linecap:square;stroke-width:1.5;"/>
   </g>
   <g id="patch_43">
    <path d="M 252.392727 252.526345 
L 252.392727 206.644966 
" style="fill:none;stroke:#000000;stroke-linecap:square;stroke-linejoin:miter;stroke-width:0.8;"/>
   </g>
   <g id="patch_44">
    <path d="M 414.72 252.526345 
L 414.72 206.644966 
" style="fill:none;stroke:#000000;stroke-linecap:square;stroke-linejoin:miter;stroke-width:0.8;"/>
   </g>
   <g id="patch_45">
    <path d="M 252.392727 252.526345 
L 414.72 252.526345 
" style="fill:none;stroke:#000000;stroke-linecap:square;stroke-linejoin:miter;stroke-width:0.8;"/>
   </g>
   <g id="patch_46">
    <path d="M 252.392727 206.644966 
L 414.72 206.644966 
" style="fill:none;stroke:#000000;stroke-linecap:square;stroke-linejoin:miter;stroke-width:0.8;"/>
   </g>
   <g id="text_71">
    <!-- corr0 -->
    <g transform="translate(317.836364 200.644966)scale(0.12 -0.12)">
     <use xlink:href="#DejaVuSans-99"/>
     <use x="54.980469" xlink:href="#DejaVuSans-111"/>
     <use x="116.162109" xlink:href="#DejaVuSans-114"/>
     <use x="157.259766" xlink:href="#DejaVuSans-114"/>
     <use x="198.373047" xlink:href="#DejaVuSans-48"/>
    </g>
   </g>
  </g>
  <g id="axes_10">
   <g id="patch_47">
    <path d="M 252.392727 307.584 
L 414.72 307.584 
L 414.72 261.702621 
L 252.392727 261.702621 
z
" style="fill:#ffffff;"/>
   </g>
   <g id="matplotlib.axis_19">
    <g id="xtick_36">
     <g id="line2d_88">
      <g>
       <use style="stroke:#000000;stroke-width:0.8;" x="265.046339" xlink:href="#maad8e95a0c" y="307.584"/>
      </g>
     </g>
     <g id="text_72">
      <!-- 0.19 -->
      <g transform="translate(253.913526 322.182437)scale(0.1 -0.1)">
       <use xlink:href="#DejaVuSans-48"/>
       <use x="63.623047" xlink:href="#DejaVuSans-46"/>
       <use x="95.410156" xlink:href="#DejaVuSans-49"/>
       <use x="159.033203" xlink:href="#DejaVuSans-57"/>
      </g>
     </g>
    </g>
    <g id="xtick_37">
     <g id="line2d_89">
      <g>
       <use style="stroke:#000000;stroke-width:0.8;" x="311.089608" xlink:href="#maad8e95a0c" y="307.584"/>
      </g>
     </g>
     <g id="text_73">
      <!-- 0.20 -->
      <g transform="translate(299.956795 322.182437)scale(0.1 -0.1)">
       <use xlink:href="#DejaVuSans-48"/>
       <use x="63.623047" xlink:href="#DejaVuSans-46"/>
       <use x="95.410156" xlink:href="#DejaVuSans-50"/>
       <use x="159.033203" xlink:href="#DejaVuSans-48"/>
      </g>
     </g>
    </g>
    <g id="xtick_38">
     <g id="line2d_90">
      <g>
       <use style="stroke:#000000;stroke-width:0.8;" x="357.132876" xlink:href="#maad8e95a0c" y="307.584"/>
      </g>
     </g>
     <g id="text_74">
      <!-- 0.21 -->
      <g transform="translate(346.000064 322.182437)scale(0.1 -0.1)">
       <use xlink:href="#DejaVuSans-48"/>
       <use x="63.623047" xlink:href="#DejaVuSans-46"/>
       <use x="95.410156" xlink:href="#DejaVuSans-50"/>
       <use x="159.033203" xlink:href="#DejaVuSans-49"/>
      </g>
     </g>
    </g>
    <g id="xtick_39">
     <g id="line2d_91">
      <g>
       <use style="stroke:#000000;stroke-width:0.8;" x="403.176145" xlink:href="#maad8e95a0c" y="307.584"/>
      </g>
     </g>
     <g id="text_75">
      <!-- 0.22 -->
      <g transform="translate(392.043333 322.182437)scale(0.1 -0.1)">
       <use xlink:href="#DejaVuSans-48"/>
       <use x="63.623047" xlink:href="#DejaVuSans-46"/>
       <use x="95.410156" xlink:href="#DejaVuSans-50"/>
       <use x="159.033203" xlink:href="#DejaVuSans-50"/>
      </g>
     </g>
    </g>
   </g>
   <g id="matplotlib.axis_20">
    <g id="ytick_19">
     <g id="line2d_92">
      <g>
       <use style="stroke:#000000;stroke-width:0.8;" x="252.392727" xlink:href="#md80c98135f" y="305.498483"/>
      </g>
     </g>
     <g id="text_76">
      <!-- 0 -->
      <g transform="translate(239.030227 309.297702)scale(0.1 -0.1)">
       <use xlink:href="#DejaVuSans-48"/>
      </g>
     </g>
    </g>
    <g id="ytick_20">
     <g id="line2d_93">
      <g>
       <use style="stroke:#000000;stroke-width:0.8;" x="252.392727" xlink:href="#md80c98135f" y="276.885415"/>
      </g>
     </g>
     <g id="text_77">
      <!-- 50 -->
      <g transform="translate(232.667727 280.684633)scale(0.1 -0.1)">
       <use xlink:href="#DejaVuSans-53"/>
       <use x="63.623047" xlink:href="#DejaVuSans-48"/>
      </g>
     </g>
    </g>
    <g id="text_78">
     <!-- Frequency -->
     <g transform="translate(226.58804 310.940967)rotate(-90)scale(0.1 -0.1)">
      <use xlink:href="#DejaVuSans-70"/>
      <use x="57.410156" xlink:href="#DejaVuSans-114"/>
      <use x="98.492188" xlink:href="#DejaVuSans-101"/>
      <use x="160.015625" xlink:href="#DejaVuSans-113"/>
      <use x="223.492188" xlink:href="#DejaVuSans-117"/>
      <use x="286.871094" xlink:href="#DejaVuSans-101"/>
      <use x="348.394531" xlink:href="#DejaVuSans-110"/>
      <use x="411.773438" xlink:href="#DejaVuSans-99"/>
      <use x="466.753906" xlink:href="#DejaVuSans-121"/>
     </g>
    </g>
   </g>
   <g id="line2d_94">
    <path clip-path="url(#p8456a396df)" d="M 259.77124 305.039806 
L 262.782877 304.84646 
L 265.794515 304.584751 
L 268.806153 304.236151 
L 271.817791 303.779277 
L 274.829428 303.190238 
L 277.841066 302.443314 
L 280.852704 301.512018 
L 283.864341 300.370575 
L 286.875979 298.99581 
L 289.887617 297.369373 
L 292.899255 295.480193 
L 295.910892 293.326997 
L 298.92253 290.920646 
L 301.934168 288.28606 
L 304.945805 285.463435 
L 307.957443 282.508524 
L 310.969081 279.491769 
L 313.980719 276.496199 
L 316.992356 273.614075 
L 320.003994 270.942442 
L 323.015632 268.577858 
L 326.027269 266.610667 
L 329.038907 265.119301 
L 332.050545 264.165103 
L 335.062182 263.788138 
L 338.07382 264.004408 
L 341.085458 264.804721 
L 344.097096 266.15534 
L 347.108733 268.000345 
L 350.120371 270.265469 
L 353.132009 272.863052 
L 356.143646 275.697654 
L 359.155284 278.671811 
L 362.166922 281.691482 
L 365.17856 284.670748 
L 368.190197 287.535485 
L 371.201835 290.22581 
L 374.213473 292.697281 
L 377.22511 294.920913 
L 380.236748 296.88219 
L 383.248386 298.579305 
L 386.260024 300.020912 
L 389.271661 301.223632 
L 392.283299 302.209563 
L 395.294937 303.003973 
L 398.306574 303.633321 
L 401.318212 304.123659 
L 404.32985 304.499456 
L 407.341488 304.782822 
" style="fill:none;stroke:#1f77b4;stroke-linecap:square;stroke-width:1.5;"/>
   </g>
   <g id="line2d_95">
    <path clip-path="url(#p8456a396df)" d="M 338.218078 305.498483 
L 338.218078 263.788138 
" style="fill:none;stroke:#ff0000;stroke-linecap:square;stroke-width:1.5;"/>
   </g>
   <g id="patch_48">
    <path d="M 252.392727 307.584 
L 252.392727 261.702621 
" style="fill:none;stroke:#000000;stroke-linecap:square;stroke-linejoin:miter;stroke-width:0.8;"/>
   </g>
   <g id="patch_49">
    <path d="M 414.72 307.584 
L 414.72 261.702621 
" style="fill:none;stroke:#000000;stroke-linecap:square;stroke-linejoin:miter;stroke-width:0.8;"/>
   </g>
   <g id="patch_50">
    <path d="M 252.392727 307.584 
L 414.72 307.584 
" style="fill:none;stroke:#000000;stroke-linecap:square;stroke-linejoin:miter;stroke-width:0.8;"/>
   </g>
   <g id="patch_51">
    <path d="M 252.392727 261.702621 
L 414.72 261.702621 
" style="fill:none;stroke:#000000;stroke-linecap:square;stroke-linejoin:miter;stroke-width:0.8;"/>
   </g>
   <g id="text_79">
    <!-- corr1 -->
    <g transform="translate(317.836364 255.702621)scale(0.12 -0.12)">
     <use xlink:href="#DejaVuSans-99"/>
     <use x="54.980469" xlink:href="#DejaVuSans-111"/>
     <use x="116.162109" xlink:href="#DejaVuSans-114"/>
     <use x="157.259766" xlink:href="#DejaVuSans-114"/>
     <use x="198.373047" xlink:href="#DejaVuSans-49"/>
    </g>
   </g>
  </g>
 </g>
 <defs>
  <clipPath id="p8e53f98fb2">
   <rect height="45.881379" width="162.327273" x="57.6" y="41.472"/>
  </clipPath>
  <clipPath id="p9acd4bfc23">
   <rect height="45.881379" width="162.327273" x="57.6" y="96.529655"/>
  </clipPath>
  <clipPath id="pd29e2dad12">
   <rect height="45.881379" width="162.327273" x="57.6" y="151.58731"/>
  </clipPath>
  <clipPath id="p49ca63b7aa">
   <rect height="45.881379" width="162.327273" x="57.6" y="206.644966"/>
  </clipPath>
  <clipPath id="p12c86542e0">
   <rect height="45.881379" width="162.327273" x="57.6" y="261.702621"/>
  </clipPath>
  <clipPath id="p69d396f717">
   <rect height="45.881379" width="162.327273" x="252.392727" y="41.472"/>
  </clipPath>
  <clipPath id="p5f035b2a01">
   <rect height="45.881379" width="162.327273" x="252.392727" y="96.529655"/>
  </clipPath>
  <clipPath id="pac3d128bd3">
   <rect height="45.881379" width="162.327273" x="252.392727" y="151.58731"/>
  </clipPath>
  <clipPath id="pd852d79ace">
   <rect height="45.881379" width="162.327273" x="252.392727" y="206.644966"/>
  </clipPath>
  <clipPath id="p8456a396df">
   <rect height="45.881379" width="162.327273" x="252.392727" y="261.702621"/>
  </clipPath>
 </defs>
</svg>
