<?xml version="1.0" encoding="utf-8" standalone="no"?>
<!DOCTYPE svg PUBLIC "-//W3C//DTD SVG 1.1//EN"
  "http://www.w3.org/Graphics/SVG/1.1/DTD/svg11.dtd">
<!-- Created with matplotlib (https://matplotlib.org/) -->
<svg height="345.6pt" version="1.1" viewBox="0 0 460.8 345.6" width="460.8pt" xmlns="http://www.w3.org/2000/svg" xmlns:xlink="http://www.w3.org/1999/xlink">
 <defs>
  <style type="text/css">
*{stroke-linecap:butt;stroke-linejoin:round;}
  </style>
 </defs>
 <g id="figure_1">
  <g id="patch_1">
   <path d="M 0 345.6 
L 460.8 345.6 
L 460.8 0 
L 0 0 
z
" style="fill:#ffffff;"/>
  </g>
  <g id="axes_1">
   <g id="patch_2">
    <path d="M 57.6 87.353379 
L 219.927273 87.353379 
L 219.927273 41.472 
L 57.6 41.472 
z
" style="fill:#ffffff;"/>
   </g>
   <g id="matplotlib.axis_1">
    <g id="xtick_1">
     <g id="line2d_1">
      <defs>
       <path d="M 0 0 
L 0 3.5 
" id="m8053c70198" style="stroke:#000000;stroke-width:0.8;"/>
      </defs>
      <g>
       <use style="stroke:#000000;stroke-width:0.8;" x="89.903905" xlink:href="#m8053c70198" y="87.353379"/>
      </g>
     </g>
     <g id="text_1">
      <!-- 0.2 -->
      <defs>
       <path d="M 31.78125 66.40625 
Q 24.171875 66.40625 20.328125 58.90625 
Q 16.5 51.421875 16.5 36.375 
Q 16.5 21.390625 20.328125 13.890625 
Q 24.171875 6.390625 31.78125 6.390625 
Q 39.453125 6.390625 43.28125 13.890625 
Q 47.125 21.390625 47.125 36.375 
Q 47.125 51.421875 43.28125 58.90625 
Q 39.453125 66.40625 31.78125 66.40625 
z
M 31.78125 74.21875 
Q 44.046875 74.21875 50.515625 64.515625 
Q 56.984375 54.828125 56.984375 36.375 
Q 56.984375 17.96875 50.515625 8.265625 
Q 44.046875 -1.421875 31.78125 -1.421875 
Q 19.53125 -1.421875 13.0625 8.265625 
Q 6.59375 17.96875 6.59375 36.375 
Q 6.59375 54.828125 13.0625 64.515625 
Q 19.53125 74.21875 31.78125 74.21875 
z
" id="DejaVuSans-48"/>
       <path d="M 10.6875 12.40625 
L 21 12.40625 
L 21 0 
L 10.6875 0 
z
" id="DejaVuSans-46"/>
       <path d="M 19.1875 8.296875 
L 53.609375 8.296875 
L 53.609375 0 
L 7.328125 0 
L 7.328125 8.296875 
Q 12.9375 14.109375 22.625 23.890625 
Q 32.328125 33.6875 34.8125 36.53125 
Q 39.546875 41.84375 41.421875 45.53125 
Q 43.3125 49.21875 43.3125 52.78125 
Q 43.3125 58.59375 39.234375 62.25 
Q 35.15625 65.921875 28.609375 65.921875 
Q 23.96875 65.921875 18.8125 64.3125 
Q 13.671875 62.703125 7.8125 59.421875 
L 7.8125 69.390625 
Q 13.765625 71.78125 18.9375 73 
Q 24.125 74.21875 28.421875 74.21875 
Q 39.75 74.21875 46.484375 68.546875 
Q 53.21875 62.890625 53.21875 53.421875 
Q 53.21875 48.921875 51.53125 44.890625 
Q 49.859375 40.875 45.40625 35.40625 
Q 44.1875 33.984375 37.640625 27.21875 
Q 31.109375 20.453125 19.1875 8.296875 
z
" id="DejaVuSans-50"/>
      </defs>
      <g transform="translate(81.952342 101.951817)scale(0.1 -0.1)">
       <use xlink:href="#DejaVuSans-48"/>
       <use x="63.623047" xlink:href="#DejaVuSans-46"/>
       <use x="95.410156" xlink:href="#DejaVuSans-50"/>
      </g>
     </g>
    </g>
    <g id="xtick_2">
     <g id="line2d_2">
      <g>
       <use style="stroke:#000000;stroke-width:0.8;" x="141.43524" xlink:href="#m8053c70198" y="87.353379"/>
      </g>
     </g>
     <g id="text_2">
      <!-- 0.3 -->
      <defs>
       <path d="M 40.578125 39.3125 
Q 47.65625 37.796875 51.625 33 
Q 55.609375 28.21875 55.609375 21.1875 
Q 55.609375 10.40625 48.1875 4.484375 
Q 40.765625 -1.421875 27.09375 -1.421875 
Q 22.515625 -1.421875 17.65625 -0.515625 
Q 12.796875 0.390625 7.625 2.203125 
L 7.625 11.71875 
Q 11.71875 9.328125 16.59375 8.109375 
Q 21.484375 6.890625 26.8125 6.890625 
Q 36.078125 6.890625 40.9375 10.546875 
Q 45.796875 14.203125 45.796875 21.1875 
Q 45.796875 27.640625 41.28125 31.265625 
Q 36.765625 34.90625 28.71875 34.90625 
L 20.21875 34.90625 
L 20.21875 43.015625 
L 29.109375 43.015625 
Q 36.375 43.015625 40.234375 45.921875 
Q 44.09375 48.828125 44.09375 54.296875 
Q 44.09375 59.90625 40.109375 62.90625 
Q 36.140625 65.921875 28.71875 65.921875 
Q 24.65625 65.921875 20.015625 65.03125 
Q 15.375 64.15625 9.8125 62.3125 
L 9.8125 71.09375 
Q 15.4375 72.65625 20.34375 73.4375 
Q 25.25 74.21875 29.59375 74.21875 
Q 40.828125 74.21875 47.359375 69.109375 
Q 53.90625 64.015625 53.90625 55.328125 
Q 53.90625 49.265625 50.4375 45.09375 
Q 46.96875 40.921875 40.578125 39.3125 
z
" id="DejaVuSans-51"/>
      </defs>
      <g transform="translate(133.483678 101.951817)scale(0.1 -0.1)">
       <use xlink:href="#DejaVuSans-48"/>
       <use x="63.623047" xlink:href="#DejaVuSans-46"/>
       <use x="95.410156" xlink:href="#DejaVuSans-51"/>
      </g>
     </g>
    </g>
    <g id="xtick_3">
     <g id="line2d_3">
      <g>
       <use style="stroke:#000000;stroke-width:0.8;" x="192.966576" xlink:href="#m8053c70198" y="87.353379"/>
      </g>
     </g>
     <g id="text_3">
      <!-- 0.4 -->
      <defs>
       <path d="M 37.796875 64.3125 
L 12.890625 25.390625 
L 37.796875 25.390625 
z
M 35.203125 72.90625 
L 47.609375 72.90625 
L 47.609375 25.390625 
L 58.015625 25.390625 
L 58.015625 17.1875 
L 47.609375 17.1875 
L 47.609375 0 
L 37.796875 0 
L 37.796875 17.1875 
L 4.890625 17.1875 
L 4.890625 26.703125 
z
" id="DejaVuSans-52"/>
      </defs>
      <g transform="translate(185.015014 101.951817)scale(0.1 -0.1)">
       <use xlink:href="#DejaVuSans-48"/>
       <use x="63.623047" xlink:href="#DejaVuSans-46"/>
       <use x="95.410156" xlink:href="#DejaVuSans-52"/>
      </g>
     </g>
    </g>
   </g>
   <g id="matplotlib.axis_2">
    <g id="ytick_1">
     <g id="line2d_4">
      <defs>
       <path d="M 0 0 
L -3.5 0 
" id="m7c9020cb4c" style="stroke:#000000;stroke-width:0.8;"/>
      </defs>
      <g>
       <use style="stroke:#000000;stroke-width:0.8;" x="57.6" xlink:href="#m7c9020cb4c" y="85.267862"/>
      </g>
     </g>
     <g id="text_4">
      <!-- 0 -->
      <g transform="translate(44.2375 89.067081)scale(0.1 -0.1)">
       <use xlink:href="#DejaVuSans-48"/>
      </g>
     </g>
    </g>
    <g id="ytick_2">
     <g id="line2d_5">
      <g>
       <use style="stroke:#000000;stroke-width:0.8;" x="57.6" xlink:href="#m7c9020cb4c" y="52.712441"/>
      </g>
     </g>
     <g id="text_5">
      <!-- 200 -->
      <g transform="translate(31.5125 56.51166)scale(0.1 -0.1)">
       <use xlink:href="#DejaVuSans-50"/>
       <use x="63.623047" xlink:href="#DejaVuSans-48"/>
       <use x="127.246094" xlink:href="#DejaVuSans-48"/>
      </g>
     </g>
    </g>
    <g id="text_6">
     <!-- Frequency -->
     <defs>
      <path d="M 9.8125 72.90625 
L 51.703125 72.90625 
L 51.703125 64.59375 
L 19.671875 64.59375 
L 19.671875 43.109375 
L 48.578125 43.109375 
L 48.578125 34.8125 
L 19.671875 34.8125 
L 19.671875 0 
L 9.8125 0 
z
" id="DejaVuSans-70"/>
      <path d="M 41.109375 46.296875 
Q 39.59375 47.171875 37.8125 47.578125 
Q 36.03125 48 33.890625 48 
Q 26.265625 48 22.1875 43.046875 
Q 18.109375 38.09375 18.109375 28.8125 
L 18.109375 0 
L 9.078125 0 
L 9.078125 54.6875 
L 18.109375 54.6875 
L 18.109375 46.1875 
Q 20.953125 51.171875 25.484375 53.578125 
Q 30.03125 56 36.53125 56 
Q 37.453125 56 38.578125 55.875 
Q 39.703125 55.765625 41.0625 55.515625 
z
" id="DejaVuSans-114"/>
      <path d="M 56.203125 29.59375 
L 56.203125 25.203125 
L 14.890625 25.203125 
Q 15.484375 15.921875 20.484375 11.0625 
Q 25.484375 6.203125 34.421875 6.203125 
Q 39.59375 6.203125 44.453125 7.46875 
Q 49.3125 8.734375 54.109375 11.28125 
L 54.109375 2.78125 
Q 49.265625 0.734375 44.1875 -0.34375 
Q 39.109375 -1.421875 33.890625 -1.421875 
Q 20.796875 -1.421875 13.15625 6.1875 
Q 5.515625 13.8125 5.515625 26.8125 
Q 5.515625 40.234375 12.765625 48.109375 
Q 20.015625 56 32.328125 56 
Q 43.359375 56 49.78125 48.890625 
Q 56.203125 41.796875 56.203125 29.59375 
z
M 47.21875 32.234375 
Q 47.125 39.59375 43.09375 43.984375 
Q 39.0625 48.390625 32.421875 48.390625 
Q 24.90625 48.390625 20.390625 44.140625 
Q 15.875 39.890625 15.1875 32.171875 
z
" id="DejaVuSans-101"/>
      <path d="M 14.796875 27.296875 
Q 14.796875 17.390625 18.875 11.75 
Q 22.953125 6.109375 30.078125 6.109375 
Q 37.203125 6.109375 41.296875 11.75 
Q 45.40625 17.390625 45.40625 27.296875 
Q 45.40625 37.203125 41.296875 42.84375 
Q 37.203125 48.484375 30.078125 48.484375 
Q 22.953125 48.484375 18.875 42.84375 
Q 14.796875 37.203125 14.796875 27.296875 
z
M 45.40625 8.203125 
Q 42.578125 3.328125 38.25 0.953125 
Q 33.9375 -1.421875 27.875 -1.421875 
Q 17.96875 -1.421875 11.734375 6.484375 
Q 5.515625 14.40625 5.515625 27.296875 
Q 5.515625 40.1875 11.734375 48.09375 
Q 17.96875 56 27.875 56 
Q 33.9375 56 38.25 53.625 
Q 42.578125 51.265625 45.40625 46.390625 
L 45.40625 54.6875 
L 54.390625 54.6875 
L 54.390625 -20.796875 
L 45.40625 -20.796875 
z
" id="DejaVuSans-113"/>
      <path d="M 8.5 21.578125 
L 8.5 54.6875 
L 17.484375 54.6875 
L 17.484375 21.921875 
Q 17.484375 14.15625 20.5 10.265625 
Q 23.53125 6.390625 29.59375 6.390625 
Q 36.859375 6.390625 41.078125 11.03125 
Q 45.3125 15.671875 45.3125 23.6875 
L 45.3125 54.6875 
L 54.296875 54.6875 
L 54.296875 0 
L 45.3125 0 
L 45.3125 8.40625 
Q 42.046875 3.421875 37.71875 1 
Q 33.40625 -1.421875 27.6875 -1.421875 
Q 18.265625 -1.421875 13.375 4.4375 
Q 8.5 10.296875 8.5 21.578125 
z
M 31.109375 56 
z
" id="DejaVuSans-117"/>
      <path d="M 54.890625 33.015625 
L 54.890625 0 
L 45.90625 0 
L 45.90625 32.71875 
Q 45.90625 40.484375 42.875 44.328125 
Q 39.84375 48.1875 33.796875 48.1875 
Q 26.515625 48.1875 22.3125 43.546875 
Q 18.109375 38.921875 18.109375 30.90625 
L 18.109375 0 
L 9.078125 0 
L 9.078125 54.6875 
L 18.109375 54.6875 
L 18.109375 46.1875 
Q 21.34375 51.125 25.703125 53.5625 
Q 30.078125 56 35.796875 56 
Q 45.21875 56 50.046875 50.171875 
Q 54.890625 44.34375 54.890625 33.015625 
z
" id="DejaVuSans-110"/>
      <path d="M 48.78125 52.59375 
L 48.78125 44.1875 
Q 44.96875 46.296875 41.140625 47.34375 
Q 37.3125 48.390625 33.40625 48.390625 
Q 24.65625 48.390625 19.8125 42.84375 
Q 14.984375 37.3125 14.984375 27.296875 
Q 14.984375 17.28125 19.8125 11.734375 
Q 24.65625 6.203125 33.40625 6.203125 
Q 37.3125 6.203125 41.140625 7.25 
Q 44.96875 8.296875 48.78125 10.40625 
L 48.78125 2.09375 
Q 45.015625 0.34375 40.984375 -0.53125 
Q 36.96875 -1.421875 32.421875 -1.421875 
Q 20.0625 -1.421875 12.78125 6.34375 
Q 5.515625 14.109375 5.515625 27.296875 
Q 5.515625 40.671875 12.859375 48.328125 
Q 20.21875 56 33.015625 56 
Q 37.15625 56 41.109375 55.140625 
Q 45.0625 54.296875 48.78125 52.59375 
z
" id="DejaVuSans-99"/>
      <path d="M 32.171875 -5.078125 
Q 28.375 -14.84375 24.75 -17.8125 
Q 21.140625 -20.796875 15.09375 -20.796875 
L 7.90625 -20.796875 
L 7.90625 -13.28125 
L 13.1875 -13.28125 
Q 16.890625 -13.28125 18.9375 -11.515625 
Q 21 -9.765625 23.484375 -3.21875 
L 25.09375 0.875 
L 2.984375 54.6875 
L 12.5 54.6875 
L 29.59375 11.921875 
L 46.6875 54.6875 
L 56.203125 54.6875 
z
" id="DejaVuSans-121"/>
     </defs>
     <g transform="translate(25.432812 90.710346)rotate(-90)scale(0.1 -0.1)">
      <use xlink:href="#DejaVuSans-70"/>
      <use x="57.410156" xlink:href="#DejaVuSans-114"/>
      <use x="98.492188" xlink:href="#DejaVuSans-101"/>
      <use x="160.015625" xlink:href="#DejaVuSans-113"/>
      <use x="223.492188" xlink:href="#DejaVuSans-117"/>
      <use x="286.871094" xlink:href="#DejaVuSans-101"/>
      <use x="348.394531" xlink:href="#DejaVuSans-110"/>
      <use x="411.773438" xlink:href="#DejaVuSans-99"/>
      <use x="466.753906" xlink:href="#DejaVuSans-121"/>
     </g>
    </g>
   </g>
   <g id="line2d_6">
    <path clip-path="url(#p097280dc95)" d="M 64.978512 84.894375 
L 65.081583 84.718311 
L 65.184653 84.472482 
L 65.287724 84.135523 
L 65.390795 83.682191 
L 65.493865 83.083703 
L 65.596936 82.308553 
L 65.700006 81.323915 
L 65.803077 80.097671 
L 65.906147 78.60107 
L 66.009218 76.811921 
L 66.112288 74.718121 
L 66.215359 72.321242 
L 66.318429 69.639776 
L 66.4215 66.711624 
L 66.52457 63.595369 
L 66.627641 60.369971 
L 66.730711 57.132597 
L 66.833782 53.994523 
L 66.936852 51.075253 
L 67.039923 48.495205 
L 67.142993 46.367598 
L 67.246064 44.790252 
L 67.349135 43.838148 
L 67.452205 43.557517 
L 67.555276 43.962123 
L 67.658346 45.032142 
L 67.761417 46.715771 
L 67.864487 48.93339 
L 67.967558 51.583793 
L 68.070628 54.551837 
L 68.173699 57.71668 
L 68.276769 60.959805 
L 68.37984 64.17211 
L 68.48291 67.259486 
L 68.585981 70.146571 
L 68.689051 72.778567 
L 68.792122 75.121233 
L 68.895192 77.159364 
L 68.998263 78.89413 
L 69.101333 80.339734 
L 69.204404 81.519816 
L 69.307475 82.463962 
L 69.410545 83.204597 
L 69.513616 83.774441 
L 69.616686 84.20459 
L 69.719757 84.523231 
L 69.822827 84.754915 
L 69.925898 84.920295 
L 70.028968 85.036208 
" style="fill:none;stroke:#1f77b4;stroke-linecap:square;stroke-width:1.5;"/>
   </g>
   <g id="line2d_7">
    <path clip-path="url(#p097280dc95)" d="M 197.026128 84.819304 
L 197.169412 84.665622 
L 197.312696 84.468321 
L 197.45598 84.218243 
L 197.599264 83.905342 
L 197.742548 83.518927 
L 197.885832 83.048006 
L 198.029116 82.481768 
L 198.1724 81.810167 
L 198.315684 81.024622 
L 198.458968 80.118795 
L 198.602252 79.089412 
L 198.745535 77.937078 
L 198.888819 76.667012 
L 199.032103 75.28966 
L 199.175387 73.821086 
L 199.318671 72.283097 
L 199.461955 70.703047 
L 199.605239 69.113275 
L 199.748523 67.550187 
L 199.891807 66.052985 
L 200.035091 64.66211 
L 200.178375 63.417466 
L 200.321659 62.356539 
L 200.464942 61.512536 
L 200.608226 60.912655 
L 200.75151 60.576636 
L 200.894794 60.515681 
L 201.038078 60.731833 
L 201.181362 61.217862 
L 201.324646 61.957669 
L 201.46793 62.927169 
L 201.611214 64.095592 
L 201.754498 65.427107 
L 201.897782 66.882637 
L 202.041066 68.421749 
L 202.184349 70.004491 
L 202.327633 71.593055 
L 202.470917 73.153183 
L 202.614201 74.655241 
L 202.757485 76.074945 
L 202.900769 77.393705 
L 203.044053 78.598646 
L 203.187337 79.682318 
L 203.330621 80.642176 
L 203.473905 81.479889 
L 203.617189 82.200553 
L 203.760473 82.811863 
L 203.903757 83.323313 
L 204.04704 83.74546 
" style="fill:none;stroke:#ff7f0e;stroke-linecap:square;stroke-width:1.5;"/>
   </g>
   <g id="line2d_8">
    <path clip-path="url(#p097280dc95)" d="M 203.707362 84.768823 
L 203.867327 84.582135 
L 204.027293 84.338287 
L 204.187258 84.024683 
L 204.347223 83.627654 
L 204.507188 83.132948 
L 204.667153 82.526427 
L 204.827118 81.794967 
L 204.987083 80.927545 
L 205.147048 79.916462 
L 205.307013 78.758633 
L 205.466978 77.456841 
L 205.626943 76.020834 
L 205.786908 74.468137 
L 205.946873 72.824454 
L 206.106838 71.12354 
L 206.266803 69.406478 
L 206.426768 67.720326 
L 206.586733 66.116161 
L 206.746698 64.646626 
L 206.906663 63.363118 
L 207.066628 62.312835 
L 207.226593 61.535904 
L 207.386558 61.062841 
L 207.546523 60.912562 
L 207.706488 61.091126 
L 207.866453 61.591336 
L 208.026418 62.393214 
L 208.186383 63.465327 
L 208.346348 64.76683 
L 208.506313 66.250049 
L 208.666278 67.863361 
L 208.826243 69.554153 
L 208.986208 71.271603 
L 209.146173 72.9691 
L 209.306138 74.60615 
L 209.466103 76.149672 
L 209.626068 77.574672 
L 209.786033 78.864318 
L 209.945998 80.0095 
L 210.105963 81.007988 
L 210.265928 81.863317 
L 210.425893 82.583522 
L 210.585858 83.179854 
L 210.745823 83.665565 
L 210.905788 84.054836 
L 211.065753 84.361894 
L 211.225719 84.60033 
L 211.385684 84.782632 
L 211.545649 84.919894 
" style="fill:none;stroke:#2ca02c;stroke-linecap:square;stroke-width:1.5;"/>
   </g>
   <g id="line2d_9">
    <path clip-path="url(#p097280dc95)" d="M 212.54876 85.267862 
L 212.54876 43.557517 
" style="fill:none;stroke:#ff0000;stroke-linecap:square;stroke-width:1.5;"/>
   </g>
   <g id="line2d_10">
    <path clip-path="url(#p097280dc95)" d="M 187.200952 85.267862 
L 187.200952 60.515681 
" style="fill:none;stroke:#ff0000;stroke-linecap:square;stroke-width:1.5;"/>
   </g>
   <g id="line2d_11">
    <path clip-path="url(#p097280dc95)" d="M 76.087344 85.267862 
L 76.087344 60.912562 
" style="fill:none;stroke:#ff0000;stroke-linecap:square;stroke-width:1.5;"/>
   </g>
   <g id="patch_3">
    <path d="M 57.6 87.353379 
L 57.6 41.472 
" style="fill:none;stroke:#000000;stroke-linecap:square;stroke-linejoin:miter;stroke-width:0.8;"/>
   </g>
   <g id="patch_4">
    <path d="M 219.927273 87.353379 
L 219.927273 41.472 
" style="fill:none;stroke:#000000;stroke-linecap:square;stroke-linejoin:miter;stroke-width:0.8;"/>
   </g>
   <g id="patch_5">
    <path d="M 57.6 87.353379 
L 219.927273 87.353379 
" style="fill:none;stroke:#000000;stroke-linecap:square;stroke-linejoin:miter;stroke-width:0.8;"/>
   </g>
   <g id="patch_6">
    <path d="M 57.6 41.472 
L 219.927273 41.472 
" style="fill:none;stroke:#000000;stroke-linecap:square;stroke-linejoin:miter;stroke-width:0.8;"/>
   </g>
   <g id="text_7">
    <!-- w -->
    <defs>
     <path d="M 4.203125 54.6875 
L 13.1875 54.6875 
L 24.421875 12.015625 
L 35.59375 54.6875 
L 46.1875 54.6875 
L 57.421875 12.015625 
L 68.609375 54.6875 
L 77.59375 54.6875 
L 63.28125 0 
L 52.6875 0 
L 40.921875 44.828125 
L 29.109375 0 
L 18.5 0 
z
" id="DejaVuSans-119"/>
    </defs>
    <g transform="translate(133.856761 35.472)scale(0.12 -0.12)">
     <use xlink:href="#DejaVuSans-119"/>
    </g>
   </g>
  </g>
  <g id="axes_2">
   <g id="patch_7">
    <path d="M 57.6 142.411034 
L 219.927273 142.411034 
L 219.927273 96.529655 
L 57.6 96.529655 
z
" style="fill:#ffffff;"/>
   </g>
   <g id="matplotlib.axis_3">
    <g id="xtick_4">
     <g id="line2d_12">
      <g>
       <use style="stroke:#000000;stroke-width:0.8;" x="78.240839" xlink:href="#m8053c70198" y="142.411034"/>
      </g>
     </g>
     <g id="text_8">
      <!-- 10 -->
      <defs>
       <path d="M 12.40625 8.296875 
L 28.515625 8.296875 
L 28.515625 63.921875 
L 10.984375 60.40625 
L 10.984375 69.390625 
L 28.421875 72.90625 
L 38.28125 72.90625 
L 38.28125 8.296875 
L 54.390625 8.296875 
L 54.390625 0 
L 12.40625 0 
z
" id="DejaVuSans-49"/>
      </defs>
      <g transform="translate(71.878339 157.009472)scale(0.1 -0.1)">
       <use xlink:href="#DejaVuSans-49"/>
       <use x="63.623047" xlink:href="#DejaVuSans-48"/>
      </g>
     </g>
    </g>
    <g id="xtick_5">
     <g id="line2d_13">
      <g>
       <use style="stroke:#000000;stroke-width:0.8;" x="139.639107" xlink:href="#m8053c70198" y="142.411034"/>
      </g>
     </g>
     <g id="text_9">
      <!-- 20 -->
      <g transform="translate(133.276607 157.009472)scale(0.1 -0.1)">
       <use xlink:href="#DejaVuSans-50"/>
       <use x="63.623047" xlink:href="#DejaVuSans-48"/>
      </g>
     </g>
    </g>
    <g id="xtick_6">
     <g id="line2d_14">
      <g>
       <use style="stroke:#000000;stroke-width:0.8;" x="201.037375" xlink:href="#m8053c70198" y="142.411034"/>
      </g>
     </g>
     <g id="text_10">
      <!-- 30 -->
      <g transform="translate(194.674875 157.009472)scale(0.1 -0.1)">
       <use xlink:href="#DejaVuSans-51"/>
       <use x="63.623047" xlink:href="#DejaVuSans-48"/>
      </g>
     </g>
    </g>
   </g>
   <g id="matplotlib.axis_4">
    <g id="ytick_3">
     <g id="line2d_15">
      <g>
       <use style="stroke:#000000;stroke-width:0.8;" x="57.6" xlink:href="#m7c9020cb4c" y="140.325517"/>
      </g>
     </g>
     <g id="text_11">
      <!-- 0 -->
      <g transform="translate(44.2375 144.124736)scale(0.1 -0.1)">
       <use xlink:href="#DejaVuSans-48"/>
      </g>
     </g>
    </g>
    <g id="ytick_4">
     <g id="line2d_16">
      <g>
       <use style="stroke:#000000;stroke-width:0.8;" x="57.6" xlink:href="#m7c9020cb4c" y="114.306102"/>
      </g>
     </g>
     <g id="text_12">
      <!-- 2 -->
      <g transform="translate(44.2375 118.105321)scale(0.1 -0.1)">
       <use xlink:href="#DejaVuSans-50"/>
      </g>
     </g>
    </g>
    <g id="text_13">
     <!-- Frequency -->
     <g transform="translate(38.157812 145.768001)rotate(-90)scale(0.1 -0.1)">
      <use xlink:href="#DejaVuSans-70"/>
      <use x="57.410156" xlink:href="#DejaVuSans-114"/>
      <use x="98.492188" xlink:href="#DejaVuSans-101"/>
      <use x="160.015625" xlink:href="#DejaVuSans-113"/>
      <use x="223.492188" xlink:href="#DejaVuSans-117"/>
      <use x="286.871094" xlink:href="#DejaVuSans-101"/>
      <use x="348.394531" xlink:href="#DejaVuSans-110"/>
      <use x="411.773438" xlink:href="#DejaVuSans-99"/>
      <use x="466.753906" xlink:href="#DejaVuSans-121"/>
     </g>
    </g>
   </g>
   <g id="line2d_17">
    <path clip-path="url(#p2ce5d37d4f)" d="M 207.146602 139.734898 
L 207.240903 139.503871 
L 207.335204 139.197824 
L 207.429506 138.798564 
L 207.523807 138.285708 
L 207.618108 137.63719 
L 207.712409 136.830065 
L 207.806711 135.841643 
L 207.901012 134.650955 
L 207.995313 133.240515 
L 208.089614 131.598286 
L 208.183916 129.719758 
L 208.278217 127.609947 
L 208.372518 125.285141 
L 208.466819 122.774174 
L 208.561121 120.11903 
L 208.655422 117.374598 
L 208.749723 114.607462 
L 208.844024 111.893676 
L 208.938326 109.315599 
L 209.032627 106.95791 
L 209.126928 104.903092 
L 209.221229 103.226678 
L 209.315531 101.992664 
L 209.409832 101.249457 
L 209.504133 101.026726 
L 209.598434 101.333437 
L 209.692736 102.157253 
L 209.787037 103.465357 
L 209.881338 105.206624 
L 209.975639 107.314932 
L 210.069941 109.713326 
L 210.164242 112.318658 
L 210.258543 115.046325 
L 210.352845 117.814725 
L 210.447146 120.549121 
L 210.541447 123.184668 
L 210.635748 125.668477 
L 210.73005 127.960661 
L 210.824351 130.034445 
L 210.918652 131.875434 
L 211.012953 133.480254 
L 211.107255 134.854752 
L 211.201556 136.011967 
L 211.295857 136.97007 
L 211.390158 137.750414 
L 211.48446 138.375817 
L 211.578761 138.869154 
L 211.673062 139.252268 
L 211.767363 139.54522 
" style="fill:none;stroke:#1f77b4;stroke-linecap:square;stroke-width:1.5;"/>
   </g>
   <g id="line2d_18">
    <path clip-path="url(#p2ce5d37d4f)" d="M 66.987208 140.209239 
L 67.080651 140.149965 
L 67.174094 140.06441 
L 67.267537 139.942924 
L 67.36098 139.773234 
L 67.454423 139.540114 
L 67.547866 139.225168 
L 67.641309 138.80681 
L 67.734752 138.260498 
L 67.828194 137.559337 
L 67.921637 136.675095 
L 68.01508 135.57969 
L 68.108523 134.247148 
L 68.201966 132.655991 
L 68.295409 130.791932 
L 68.388852 128.650695 
L 68.482295 126.240722 
L 68.575738 123.585454 
L 68.669181 120.724891 
L 68.762624 117.716116 
L 68.856066 114.632538 
L 68.949509 111.561725 
L 69.042952 108.601797 
L 69.136395 105.856544 
L 69.229838 103.429552 
L 69.323281 101.417806 
L 69.416724 99.905288 
L 69.510167 98.957173 
L 69.60361 98.615172 
L 69.697053 98.894489 
L 69.790495 99.782701 
L 69.883938 101.240671 
L 69.977381 103.205414 
L 70.070824 105.594602 
L 70.164267 108.312283 
L 70.25771 111.255241 
L 70.351153 114.319427 
L 70.444596 117.405907 
L 70.538039 120.425856 
L 70.631482 123.304308 
L 70.724925 125.98247 
L 70.818367 128.418617 
L 70.91181 130.587685 
L 71.005253 132.479809 
L 71.098696 134.098095 
L 71.192139 135.455946 
L 71.285582 136.574238 
L 71.379025 137.478603 
L 71.472468 138.197007 
L 71.565911 138.757744 
" style="fill:none;stroke:#ff7f0e;stroke-linecap:square;stroke-width:1.5;"/>
   </g>
   <g id="line2d_19">
    <path clip-path="url(#p2ce5d37d4f)" d="M 212.54876 140.325517 
L 212.54876 101.026726 
" style="fill:none;stroke:#ff0000;stroke-linecap:square;stroke-width:1.5;"/>
   </g>
   <g id="line2d_20">
    <path clip-path="url(#p2ce5d37d4f)" d="M 64.978512 140.325517 
L 64.978512 98.615172 
" style="fill:none;stroke:#ff0000;stroke-linecap:square;stroke-width:1.5;"/>
   </g>
   <g id="patch_8">
    <path d="M 57.6 142.411034 
L 57.6 96.529655 
" style="fill:none;stroke:#000000;stroke-linecap:square;stroke-linejoin:miter;stroke-width:0.8;"/>
   </g>
   <g id="patch_9">
    <path d="M 219.927273 142.411034 
L 219.927273 96.529655 
" style="fill:none;stroke:#000000;stroke-linecap:square;stroke-linejoin:miter;stroke-width:0.8;"/>
   </g>
   <g id="patch_10">
    <path d="M 57.6 142.411034 
L 219.927273 142.411034 
" style="fill:none;stroke:#000000;stroke-linecap:square;stroke-linejoin:miter;stroke-width:0.8;"/>
   </g>
   <g id="patch_11">
    <path d="M 57.6 96.529655 
L 219.927273 96.529655 
" style="fill:none;stroke:#000000;stroke-linecap:square;stroke-linejoin:miter;stroke-width:0.8;"/>
   </g>
   <g id="text_14">
    <!-- mu1 -->
    <defs>
     <path d="M 52 44.1875 
Q 55.375 50.25 60.0625 53.125 
Q 64.75 56 71.09375 56 
Q 79.640625 56 84.28125 50.015625 
Q 88.921875 44.046875 88.921875 33.015625 
L 88.921875 0 
L 79.890625 0 
L 79.890625 32.71875 
Q 79.890625 40.578125 77.09375 44.375 
Q 74.3125 48.1875 68.609375 48.1875 
Q 61.625 48.1875 57.5625 43.546875 
Q 53.515625 38.921875 53.515625 30.90625 
L 53.515625 0 
L 44.484375 0 
L 44.484375 32.71875 
Q 44.484375 40.625 41.703125 44.40625 
Q 38.921875 48.1875 33.109375 48.1875 
Q 26.21875 48.1875 22.15625 43.53125 
Q 18.109375 38.875 18.109375 30.90625 
L 18.109375 0 
L 9.078125 0 
L 9.078125 54.6875 
L 18.109375 54.6875 
L 18.109375 46.1875 
Q 21.1875 51.21875 25.484375 53.609375 
Q 29.78125 56 35.6875 56 
Q 41.65625 56 45.828125 52.96875 
Q 50 49.953125 52 44.1875 
z
" id="DejaVuSans-109"/>
    </defs>
    <g transform="translate(125.299261 90.529655)scale(0.12 -0.12)">
     <use xlink:href="#DejaVuSans-109"/>
     <use x="97.412109" xlink:href="#DejaVuSans-117"/>
     <use x="160.791016" xlink:href="#DejaVuSans-49"/>
    </g>
   </g>
  </g>
  <g id="axes_3">
   <g id="patch_12">
    <path d="M 57.6 197.46869 
L 219.927273 197.46869 
L 219.927273 151.58731 
L 57.6 151.58731 
z
" style="fill:#ffffff;"/>
   </g>
   <g id="matplotlib.axis_5">
    <g id="xtick_7">
     <g id="line2d_21">
      <g>
       <use style="stroke:#000000;stroke-width:0.8;" x="65.35676" xlink:href="#m8053c70198" y="197.46869"/>
      </g>
     </g>
     <g id="text_15">
      <!-- 0 -->
      <g transform="translate(62.17551 212.067127)scale(0.1 -0.1)">
       <use xlink:href="#DejaVuSans-48"/>
      </g>
     </g>
    </g>
    <g id="xtick_8">
     <g id="line2d_22">
      <g>
       <use style="stroke:#000000;stroke-width:0.8;" x="110.798774" xlink:href="#m8053c70198" y="197.46869"/>
      </g>
     </g>
     <g id="text_16">
      <!-- 5 -->
      <defs>
       <path d="M 10.796875 72.90625 
L 49.515625 72.90625 
L 49.515625 64.59375 
L 19.828125 64.59375 
L 19.828125 46.734375 
Q 21.96875 47.46875 24.109375 47.828125 
Q 26.265625 48.1875 28.421875 48.1875 
Q 40.625 48.1875 47.75 41.5 
Q 54.890625 34.8125 54.890625 23.390625 
Q 54.890625 11.625 47.5625 5.09375 
Q 40.234375 -1.421875 26.90625 -1.421875 
Q 22.3125 -1.421875 17.546875 -0.640625 
Q 12.796875 0.140625 7.71875 1.703125 
L 7.71875 11.625 
Q 12.109375 9.234375 16.796875 8.0625 
Q 21.484375 6.890625 26.703125 6.890625 
Q 35.15625 6.890625 40.078125 11.328125 
Q 45.015625 15.765625 45.015625 23.390625 
Q 45.015625 31 40.078125 35.4375 
Q 35.15625 39.890625 26.703125 39.890625 
Q 22.75 39.890625 18.8125 39.015625 
Q 14.890625 38.140625 10.796875 36.28125 
z
" id="DejaVuSans-53"/>
      </defs>
      <g transform="translate(107.617524 212.067127)scale(0.1 -0.1)">
       <use xlink:href="#DejaVuSans-53"/>
      </g>
     </g>
    </g>
    <g id="xtick_9">
     <g id="line2d_23">
      <g>
       <use style="stroke:#000000;stroke-width:0.8;" x="156.240787" xlink:href="#m8053c70198" y="197.46869"/>
      </g>
     </g>
     <g id="text_17">
      <!-- 10 -->
      <g transform="translate(149.878287 212.067127)scale(0.1 -0.1)">
       <use xlink:href="#DejaVuSans-49"/>
       <use x="63.623047" xlink:href="#DejaVuSans-48"/>
      </g>
     </g>
    </g>
    <g id="xtick_10">
     <g id="line2d_24">
      <g>
       <use style="stroke:#000000;stroke-width:0.8;" x="201.6828" xlink:href="#m8053c70198" y="197.46869"/>
      </g>
     </g>
     <g id="text_18">
      <!-- 15 -->
      <g transform="translate(195.3203 212.067127)scale(0.1 -0.1)">
       <use xlink:href="#DejaVuSans-49"/>
       <use x="63.623047" xlink:href="#DejaVuSans-53"/>
      </g>
     </g>
    </g>
   </g>
   <g id="matplotlib.axis_6">
    <g id="ytick_5">
     <g id="line2d_25">
      <g>
       <use style="stroke:#000000;stroke-width:0.8;" x="57.6" xlink:href="#m7c9020cb4c" y="195.383172"/>
      </g>
     </g>
     <g id="text_19">
      <!-- 0 -->
      <g transform="translate(44.2375 199.182391)scale(0.1 -0.1)">
       <use xlink:href="#DejaVuSans-48"/>
      </g>
     </g>
    </g>
    <g id="ytick_6">
     <g id="line2d_26">
      <g>
       <use style="stroke:#000000;stroke-width:0.8;" x="57.6" xlink:href="#m7c9020cb4c" y="152.934445"/>
      </g>
     </g>
     <g id="text_20">
      <!-- 100 -->
      <g transform="translate(31.5125 156.733664)scale(0.1 -0.1)">
       <use xlink:href="#DejaVuSans-49"/>
       <use x="63.623047" xlink:href="#DejaVuSans-48"/>
       <use x="127.246094" xlink:href="#DejaVuSans-48"/>
      </g>
     </g>
    </g>
    <g id="text_21">
     <!-- Frequency -->
     <g transform="translate(25.432812 200.825656)rotate(-90)scale(0.1 -0.1)">
      <use xlink:href="#DejaVuSans-70"/>
      <use x="57.410156" xlink:href="#DejaVuSans-114"/>
      <use x="98.492188" xlink:href="#DejaVuSans-101"/>
      <use x="160.015625" xlink:href="#DejaVuSans-113"/>
      <use x="223.492188" xlink:href="#DejaVuSans-117"/>
      <use x="286.871094" xlink:href="#DejaVuSans-101"/>
      <use x="348.394531" xlink:href="#DejaVuSans-110"/>
      <use x="411.773438" xlink:href="#DejaVuSans-99"/>
      <use x="466.753906" xlink:href="#DejaVuSans-121"/>
     </g>
    </g>
   </g>
   <g id="line2d_27">
    <path clip-path="url(#pdebc31694e)" d="M 210.385843 195.35003 
L 210.429984 195.334093 
L 210.474125 195.311673 
L 210.518266 195.280705 
L 210.562407 195.23871 
L 210.606548 195.182813 
L 210.65069 195.109803 
L 210.694831 195.01625 
L 210.738972 194.898685 
L 210.783113 194.753845 
L 210.827254 194.578988 
L 210.871396 194.372247 
L 210.915537 194.133007 
L 210.959678 193.862273 
L 211.003819 193.562975 
L 211.04796 193.240177 
L 211.092101 192.901133 
L 211.136243 192.555163 
L 211.180384 192.213328 
L 211.224525 191.887909 
L 211.268666 191.591712 
L 211.312807 191.337246 
L 211.356949 191.13586 
L 211.40109 190.996904 
L 211.445231 190.92701 
L 211.489372 190.929568 
L 211.533513 191.004453 
L 211.577654 191.148037 
L 211.621796 191.353477 
L 211.665937 191.611256 
L 211.710078 191.909918 
L 211.754219 192.236902 
L 211.79836 192.579417 
L 211.842501 192.925245 
L 211.886643 193.263431 
L 211.930784 193.584793 
L 211.974925 193.882228 
L 212.019066 194.150826 
L 212.063207 194.3878 
L 212.107349 194.592269 
L 212.15149 194.764948 
L 212.195631 194.907779 
L 212.239772 195.023551 
L 212.283913 195.11555 
L 212.328054 195.18725 
L 212.372196 195.242071 
L 212.416337 195.283204 
L 212.460478 195.313497 
L 212.504619 195.3354 
L 212.54876 195.35095 
" style="fill:none;stroke:#1f77b4;stroke-linecap:square;stroke-width:1.5;"/>
   </g>
   <g id="line2d_28">
    <path clip-path="url(#pdebc31694e)" d="M 64.978512 195.350618 
L 64.983567 195.328984 
L 64.988621 195.294654 
L 64.993675 195.241272 
L 64.99873 195.159937 
L 65.003784 195.038527 
L 65.008838 194.861003 
L 65.013892 194.606784 
L 65.018947 194.250313 
L 65.024001 193.76098 
L 65.029055 193.103577 
L 65.03411 192.239464 
L 65.039164 191.128599 
L 65.044218 189.732515 
L 65.049272 188.018201 
L 65.054327 185.962707 
L 65.059381 183.558128 
L 65.064435 180.816431 
L 65.06949 177.773502 
L 65.074544 174.491693 
L 65.079598 171.060217 
L 65.084652 167.592909 
L 65.089707 164.223122 
L 65.094761 161.095909 
L 65.099815 158.358036 
L 65.10487 156.146725 
L 65.109924 154.578314 
L 65.114978 153.738137 
L 65.120032 153.672828 
L 65.125087 154.386039 
L 65.130141 155.838099 
L 65.135195 157.949671 
L 65.14025 160.608929 
L 65.145304 163.68136 
L 65.150358 167.020988 
L 65.155412 170.481734 
L 65.160467 173.927685 
L 65.165521 177.241326 
L 65.170575 180.329108 
L 65.17563 183.124167 
L 65.180684 185.586336 
L 65.185738 187.69991 
L 65.190793 189.469808 
L 65.195847 190.916822 
L 65.200901 192.072623 
L 65.205955 192.975061 
L 65.21101 193.664147 
L 65.216064 194.178921 
L 65.221118 194.555266 
L 65.226173 194.824607 
" style="fill:none;stroke:#ff7f0e;stroke-linecap:square;stroke-width:1.5;"/>
   </g>
   <g id="line2d_29">
    <path clip-path="url(#pdebc31694e)" d="M 207.969852 195.383172 
L 207.969852 190.92701 
" style="fill:none;stroke:#ff0000;stroke-linecap:square;stroke-width:1.5;"/>
   </g>
   <g id="line2d_30">
    <path clip-path="url(#pdebc31694e)" d="M 65.119137 195.383172 
L 65.119137 153.672828 
" style="fill:none;stroke:#ff0000;stroke-linecap:square;stroke-width:1.5;"/>
   </g>
   <g id="patch_13">
    <path d="M 57.6 197.46869 
L 57.6 151.58731 
" style="fill:none;stroke:#000000;stroke-linecap:square;stroke-linejoin:miter;stroke-width:0.8;"/>
   </g>
   <g id="patch_14">
    <path d="M 219.927273 197.46869 
L 219.927273 151.58731 
" style="fill:none;stroke:#000000;stroke-linecap:square;stroke-linejoin:miter;stroke-width:0.8;"/>
   </g>
   <g id="patch_15">
    <path d="M 57.6 197.46869 
L 219.927273 197.46869 
" style="fill:none;stroke:#000000;stroke-linecap:square;stroke-linejoin:miter;stroke-width:0.8;"/>
   </g>
   <g id="patch_16">
    <path d="M 57.6 151.58731 
L 219.927273 151.58731 
" style="fill:none;stroke:#000000;stroke-linecap:square;stroke-linejoin:miter;stroke-width:0.8;"/>
   </g>
   <g id="text_22">
    <!-- mu0 -->
    <g transform="translate(125.299261 145.58731)scale(0.12 -0.12)">
     <use xlink:href="#DejaVuSans-109"/>
     <use x="97.412109" xlink:href="#DejaVuSans-117"/>
     <use x="160.791016" xlink:href="#DejaVuSans-48"/>
    </g>
   </g>
  </g>
  <g id="axes_4">
   <g id="patch_17">
    <path d="M 57.6 252.526345 
L 219.927273 252.526345 
L 219.927273 206.644966 
L 57.6 206.644966 
z
" style="fill:#ffffff;"/>
   </g>
   <g id="matplotlib.axis_7">
    <g id="xtick_11">
     <g id="line2d_31">
      <g>
       <use style="stroke:#000000;stroke-width:0.8;" x="64.156002" xlink:href="#m8053c70198" y="252.526345"/>
      </g>
     </g>
     <g id="text_23">
      <!-- 0 -->
      <g transform="translate(60.974752 267.124782)scale(0.1 -0.1)">
       <use xlink:href="#DejaVuSans-48"/>
      </g>
     </g>
    </g>
    <g id="xtick_12">
     <g id="line2d_32">
      <g>
       <use style="stroke:#000000;stroke-width:0.8;" x="109.989588" xlink:href="#m8053c70198" y="252.526345"/>
      </g>
     </g>
     <g id="text_24">
      <!-- 10 -->
      <g transform="translate(103.627088 267.124782)scale(0.1 -0.1)">
       <use xlink:href="#DejaVuSans-49"/>
       <use x="63.623047" xlink:href="#DejaVuSans-48"/>
      </g>
     </g>
    </g>
    <g id="xtick_13">
     <g id="line2d_33">
      <g>
       <use style="stroke:#000000;stroke-width:0.8;" x="155.823175" xlink:href="#m8053c70198" y="252.526345"/>
      </g>
     </g>
     <g id="text_25">
      <!-- 20 -->
      <g transform="translate(149.460675 267.124782)scale(0.1 -0.1)">
       <use xlink:href="#DejaVuSans-50"/>
       <use x="63.623047" xlink:href="#DejaVuSans-48"/>
      </g>
     </g>
    </g>
    <g id="xtick_14">
     <g id="line2d_34">
      <g>
       <use style="stroke:#000000;stroke-width:0.8;" x="201.656762" xlink:href="#m8053c70198" y="252.526345"/>
      </g>
     </g>
     <g id="text_26">
      <!-- 30 -->
      <g transform="translate(195.294262 267.124782)scale(0.1 -0.1)">
       <use xlink:href="#DejaVuSans-51"/>
       <use x="63.623047" xlink:href="#DejaVuSans-48"/>
      </g>
     </g>
    </g>
   </g>
   <g id="matplotlib.axis_8">
    <g id="ytick_7">
     <g id="line2d_35">
      <g>
       <use style="stroke:#000000;stroke-width:0.8;" x="57.6" xlink:href="#m7c9020cb4c" y="250.440828"/>
      </g>
     </g>
     <g id="text_27">
      <!-- 0 -->
      <g transform="translate(44.2375 254.240046)scale(0.1 -0.1)">
       <use xlink:href="#DejaVuSans-48"/>
      </g>
     </g>
    </g>
    <g id="ytick_8">
     <g id="line2d_36">
      <g>
       <use style="stroke:#000000;stroke-width:0.8;" x="57.6" xlink:href="#m7c9020cb4c" y="224.522593"/>
      </g>
     </g>
     <g id="text_28">
      <!-- 20 -->
      <g transform="translate(37.875 228.321812)scale(0.1 -0.1)">
       <use xlink:href="#DejaVuSans-50"/>
       <use x="63.623047" xlink:href="#DejaVuSans-48"/>
      </g>
     </g>
    </g>
    <g id="text_29">
     <!-- Frequency -->
     <g transform="translate(31.795312 255.883311)rotate(-90)scale(0.1 -0.1)">
      <use xlink:href="#DejaVuSans-70"/>
      <use x="57.410156" xlink:href="#DejaVuSans-114"/>
      <use x="98.492188" xlink:href="#DejaVuSans-101"/>
      <use x="160.015625" xlink:href="#DejaVuSans-113"/>
      <use x="223.492188" xlink:href="#DejaVuSans-117"/>
      <use x="286.871094" xlink:href="#DejaVuSans-101"/>
      <use x="348.394531" xlink:href="#DejaVuSans-110"/>
      <use x="411.773438" xlink:href="#DejaVuSans-99"/>
      <use x="466.753906" xlink:href="#DejaVuSans-121"/>
     </g>
    </g>
   </g>
   <g id="line2d_37">
    <path clip-path="url(#pee53b40014)" d="M 209.898324 250.411611 
L 209.952415 250.394498 
L 210.006505 250.368865 
L 210.060596 250.331338 
L 210.114686 250.277649 
L 210.168777 250.20261 
L 210.222867 250.10018 
L 210.276958 249.963674 
L 210.331048 249.786143 
L 210.385139 249.56094 
L 210.43923 249.282467 
L 210.49332 248.947065 
L 210.547411 248.553963 
L 210.601501 248.106182 
L 210.655592 247.611244 
L 210.709682 247.081553 
L 210.763773 246.534312 
L 210.817863 245.990879 
L 210.871954 245.475571 
L 210.926044 245.013956 
L 210.980135 244.630792 
L 211.034225 244.347855 
L 211.088316 244.181885 
L 211.142406 244.142954 
L 211.196497 244.23345 
L 211.250588 244.447836 
L 211.304678 244.773211 
L 211.358769 245.190596 
L 211.412859 245.676761 
L 211.46695 246.206364 
L 211.52104 246.754107 
L 211.575131 247.296677 
L 211.629221 247.814266 
L 211.683312 248.291546 
L 211.737402 248.718086 
L 211.791493 249.088231 
L 211.845583 249.400578 
L 211.899674 249.657166 
L 211.953764 249.862545 
L 212.007855 250.02283 
L 212.061946 250.144871 
L 212.116036 250.235568 
L 212.170127 250.301383 
L 212.224217 250.348034 
L 212.278308 250.380341 
L 212.332398 250.402207 
L 212.386489 250.416673 
L 212.440579 250.42603 
L 212.49467 250.431947 
L 212.54876 250.435608 
" style="fill:none;stroke:#1f77b4;stroke-linecap:square;stroke-width:1.5;"/>
   </g>
   <g id="line2d_38">
    <path clip-path="url(#pee53b40014)" d="M 65.004649 249.714559 
L 65.012089 249.395325 
L 65.019529 248.961382 
L 65.026969 248.382953 
L 65.034409 247.627083 
L 65.041848 246.659045 
L 65.049288 245.444458 
L 65.056728 243.952115 
L 65.064168 242.157429 
L 65.071607 240.046303 
L 65.079047 237.619093 
L 65.086487 234.894245 
L 65.093927 231.911095 
L 65.101367 228.731348 
L 65.108806 225.438771 
L 65.116246 222.136811 
L 65.123686 218.944025 
L 65.131126 215.987521 
L 65.138565 213.394821 
L 65.146005 211.284863 
L 65.153445 209.758996 
L 65.160885 208.892924 
L 65.168325 208.730483 
L 65.175764 209.279963 
L 65.183204 210.513408 
L 65.190644 212.368973 
L 65.198084 214.756059 
L 65.205523 217.562648 
L 65.212963 220.663981 
L 65.220403 223.931685 
L 65.227843 227.242392 
L 65.235283 230.485091 
L 65.242722 233.56664 
L 65.250162 236.415144 
L 65.257602 238.981181 
L 65.265042 241.237085 
L 65.272481 243.174688 
L 65.279921 244.801996 
L 65.287361 246.139322 
L 65.294801 247.215321 
L 65.30224 248.063323 
L 65.30968 248.718202 
L 65.31712 249.213935 
L 65.32456 249.581877 
L 65.332 249.849708 
L 65.339439 250.040948 
L 65.346879 250.174921 
L 65.354319 250.267018 
L 65.361759 250.32915 
L 65.369198 250.370293 
" style="fill:none;stroke:#ff7f0e;stroke-linecap:square;stroke-width:1.5;"/>
   </g>
   <g id="line2d_39">
    <path clip-path="url(#pee53b40014)" d="M 207.471418 250.440828 
L 207.471418 244.142954 
" style="fill:none;stroke:#ff0000;stroke-linecap:square;stroke-width:1.5;"/>
   </g>
   <g id="line2d_40">
    <path clip-path="url(#pee53b40014)" d="M 64.978512 250.440828 
L 64.978512 208.730483 
" style="fill:none;stroke:#ff0000;stroke-linecap:square;stroke-width:1.5;"/>
   </g>
   <g id="patch_18">
    <path d="M 57.6 252.526345 
L 57.6 206.644966 
" style="fill:none;stroke:#000000;stroke-linecap:square;stroke-linejoin:miter;stroke-width:0.8;"/>
   </g>
   <g id="patch_19">
    <path d="M 219.927273 252.526345 
L 219.927273 206.644966 
" style="fill:none;stroke:#000000;stroke-linecap:square;stroke-linejoin:miter;stroke-width:0.8;"/>
   </g>
   <g id="patch_20">
    <path d="M 57.6 252.526345 
L 219.927273 252.526345 
" style="fill:none;stroke:#000000;stroke-linecap:square;stroke-linejoin:miter;stroke-width:0.8;"/>
   </g>
   <g id="patch_21">
    <path d="M 57.6 206.644966 
L 219.927273 206.644966 
" style="fill:none;stroke:#000000;stroke-linecap:square;stroke-linejoin:miter;stroke-width:0.8;"/>
   </g>
   <g id="text_30">
    <!-- mu2 -->
    <g transform="translate(125.299261 200.644966)scale(0.12 -0.12)">
     <use xlink:href="#DejaVuSans-109"/>
     <use x="97.412109" xlink:href="#DejaVuSans-117"/>
     <use x="160.791016" xlink:href="#DejaVuSans-50"/>
    </g>
   </g>
  </g>
  <g id="axes_5">
   <g id="patch_22">
    <path d="M 57.6 307.584 
L 219.927273 307.584 
L 219.927273 261.702621 
L 57.6 261.702621 
z
" style="fill:#ffffff;"/>
   </g>
   <g id="matplotlib.axis_9">
    <g id="xtick_15">
     <g id="line2d_41">
      <g>
       <use style="stroke:#000000;stroke-width:0.8;" x="65.542923" xlink:href="#m8053c70198" y="307.584"/>
      </g>
     </g>
     <g id="text_31">
      <!-- 14.8 -->
      <defs>
       <path d="M 31.78125 34.625 
Q 24.75 34.625 20.71875 30.859375 
Q 16.703125 27.09375 16.703125 20.515625 
Q 16.703125 13.921875 20.71875 10.15625 
Q 24.75 6.390625 31.78125 6.390625 
Q 38.8125 6.390625 42.859375 10.171875 
Q 46.921875 13.96875 46.921875 20.515625 
Q 46.921875 27.09375 42.890625 30.859375 
Q 38.875 34.625 31.78125 34.625 
z
M 21.921875 38.8125 
Q 15.578125 40.375 12.03125 44.71875 
Q 8.5 49.078125 8.5 55.328125 
Q 8.5 64.0625 14.71875 69.140625 
Q 20.953125 74.21875 31.78125 74.21875 
Q 42.671875 74.21875 48.875 69.140625 
Q 55.078125 64.0625 55.078125 55.328125 
Q 55.078125 49.078125 51.53125 44.71875 
Q 48 40.375 41.703125 38.8125 
Q 48.828125 37.15625 52.796875 32.3125 
Q 56.78125 27.484375 56.78125 20.515625 
Q 56.78125 9.90625 50.3125 4.234375 
Q 43.84375 -1.421875 31.78125 -1.421875 
Q 19.734375 -1.421875 13.25 4.234375 
Q 6.78125 9.90625 6.78125 20.515625 
Q 6.78125 27.484375 10.78125 32.3125 
Q 14.796875 37.15625 21.921875 38.8125 
z
M 18.3125 54.390625 
Q 18.3125 48.734375 21.84375 45.5625 
Q 25.390625 42.390625 31.78125 42.390625 
Q 38.140625 42.390625 41.71875 45.5625 
Q 45.3125 48.734375 45.3125 54.390625 
Q 45.3125 60.0625 41.71875 63.234375 
Q 38.140625 66.40625 31.78125 66.40625 
Q 25.390625 66.40625 21.84375 63.234375 
Q 18.3125 60.0625 18.3125 54.390625 
z
" id="DejaVuSans-56"/>
      </defs>
      <g transform="translate(54.41011 322.182437)scale(0.1 -0.1)">
       <use xlink:href="#DejaVuSans-49"/>
       <use x="63.623047" xlink:href="#DejaVuSans-52"/>
       <use x="127.246094" xlink:href="#DejaVuSans-46"/>
       <use x="159.033203" xlink:href="#DejaVuSans-56"/>
      </g>
     </g>
    </g>
    <g id="xtick_16">
     <g id="line2d_42">
      <g>
       <use style="stroke:#000000;stroke-width:0.8;" x="98.332955" xlink:href="#m8053c70198" y="307.584"/>
      </g>
     </g>
     <g id="text_32">
      <!-- 15.0 -->
      <g transform="translate(87.200142 322.182437)scale(0.1 -0.1)">
       <use xlink:href="#DejaVuSans-49"/>
       <use x="63.623047" xlink:href="#DejaVuSans-53"/>
       <use x="127.246094" xlink:href="#DejaVuSans-46"/>
       <use x="159.033203" xlink:href="#DejaVuSans-48"/>
      </g>
     </g>
    </g>
    <g id="xtick_17">
     <g id="line2d_43">
      <g>
       <use style="stroke:#000000;stroke-width:0.8;" x="131.122987" xlink:href="#m8053c70198" y="307.584"/>
      </g>
     </g>
     <g id="text_33">
      <!-- 15.2 -->
      <g transform="translate(119.990174 322.182437)scale(0.1 -0.1)">
       <use xlink:href="#DejaVuSans-49"/>
       <use x="63.623047" xlink:href="#DejaVuSans-53"/>
       <use x="127.246094" xlink:href="#DejaVuSans-46"/>
       <use x="159.033203" xlink:href="#DejaVuSans-50"/>
      </g>
     </g>
    </g>
    <g id="xtick_18">
     <g id="line2d_44">
      <g>
       <use style="stroke:#000000;stroke-width:0.8;" x="163.913019" xlink:href="#m8053c70198" y="307.584"/>
      </g>
     </g>
     <g id="text_34">
      <!-- 15.4 -->
      <g transform="translate(152.780206 322.182437)scale(0.1 -0.1)">
       <use xlink:href="#DejaVuSans-49"/>
       <use x="63.623047" xlink:href="#DejaVuSans-53"/>
       <use x="127.246094" xlink:href="#DejaVuSans-46"/>
       <use x="159.033203" xlink:href="#DejaVuSans-52"/>
      </g>
     </g>
    </g>
    <g id="xtick_19">
     <g id="line2d_45">
      <g>
       <use style="stroke:#000000;stroke-width:0.8;" x="196.703051" xlink:href="#m8053c70198" y="307.584"/>
      </g>
     </g>
     <g id="text_35">
      <!-- 15.6 -->
      <defs>
       <path d="M 33.015625 40.375 
Q 26.375 40.375 22.484375 35.828125 
Q 18.609375 31.296875 18.609375 23.390625 
Q 18.609375 15.53125 22.484375 10.953125 
Q 26.375 6.390625 33.015625 6.390625 
Q 39.65625 6.390625 43.53125 10.953125 
Q 47.40625 15.53125 47.40625 23.390625 
Q 47.40625 31.296875 43.53125 35.828125 
Q 39.65625 40.375 33.015625 40.375 
z
M 52.59375 71.296875 
L 52.59375 62.3125 
Q 48.875 64.0625 45.09375 64.984375 
Q 41.3125 65.921875 37.59375 65.921875 
Q 27.828125 65.921875 22.671875 59.328125 
Q 17.53125 52.734375 16.796875 39.40625 
Q 19.671875 43.65625 24.015625 45.921875 
Q 28.375 48.1875 33.59375 48.1875 
Q 44.578125 48.1875 50.953125 41.515625 
Q 57.328125 34.859375 57.328125 23.390625 
Q 57.328125 12.15625 50.6875 5.359375 
Q 44.046875 -1.421875 33.015625 -1.421875 
Q 20.359375 -1.421875 13.671875 8.265625 
Q 6.984375 17.96875 6.984375 36.375 
Q 6.984375 53.65625 15.1875 63.9375 
Q 23.390625 74.21875 37.203125 74.21875 
Q 40.921875 74.21875 44.703125 73.484375 
Q 48.484375 72.75 52.59375 71.296875 
z
" id="DejaVuSans-54"/>
      </defs>
      <g transform="translate(185.570238 322.182437)scale(0.1 -0.1)">
       <use xlink:href="#DejaVuSans-49"/>
       <use x="63.623047" xlink:href="#DejaVuSans-53"/>
       <use x="127.246094" xlink:href="#DejaVuSans-46"/>
       <use x="159.033203" xlink:href="#DejaVuSans-54"/>
      </g>
     </g>
    </g>
   </g>
   <g id="matplotlib.axis_10">
    <g id="ytick_9">
     <g id="line2d_46">
      <g>
       <use style="stroke:#000000;stroke-width:0.8;" x="57.6" xlink:href="#m7c9020cb4c" y="305.498483"/>
      </g>
     </g>
     <g id="text_36">
      <!-- 0 -->
      <g transform="translate(44.2375 309.297702)scale(0.1 -0.1)">
       <use xlink:href="#DejaVuSans-48"/>
      </g>
     </g>
    </g>
    <g id="ytick_10">
     <g id="line2d_47">
      <g>
       <use style="stroke:#000000;stroke-width:0.8;" x="57.6" xlink:href="#m7c9020cb4c" y="263.08142"/>
      </g>
     </g>
     <g id="text_37">
      <!-- 5 -->
      <g transform="translate(44.2375 266.880639)scale(0.1 -0.1)">
       <use xlink:href="#DejaVuSans-53"/>
      </g>
     </g>
    </g>
    <g id="text_38">
     <!-- Frequency -->
     <g transform="translate(38.157812 310.940967)rotate(-90)scale(0.1 -0.1)">
      <use xlink:href="#DejaVuSans-70"/>
      <use x="57.410156" xlink:href="#DejaVuSans-114"/>
      <use x="98.492188" xlink:href="#DejaVuSans-101"/>
      <use x="160.015625" xlink:href="#DejaVuSans-113"/>
      <use x="223.492188" xlink:href="#DejaVuSans-117"/>
      <use x="286.871094" xlink:href="#DejaVuSans-101"/>
      <use x="348.394531" xlink:href="#DejaVuSans-110"/>
      <use x="411.773438" xlink:href="#DejaVuSans-99"/>
      <use x="466.753906" xlink:href="#DejaVuSans-121"/>
     </g>
    </g>
   </g>
   <g id="line2d_48">
    <path clip-path="url(#p52b1d21d47)" d="M 64.978512 305.262014 
L 66.727124 305.140458 
L 68.475735 304.965728 
L 70.224346 304.719339 
L 71.972957 304.378574 
L 73.721568 303.916424 
L 75.470179 303.30195 
L 77.21879 302.501199 
L 78.967401 301.478787 
L 80.716013 300.200221 
L 82.464624 298.634934 
L 84.213235 296.759938 
L 85.961846 294.563841 
L 87.710457 292.050875 
L 89.459068 289.244472 
L 91.207679 286.189867 
L 92.956291 282.95522 
L 94.704902 279.630803 
L 96.453513 276.326012 
L 98.202124 273.164142 
L 99.950735 270.275198 
L 101.699346 267.787247 
L 103.447957 265.817108 
L 105.196569 264.461283 
L 106.94518 263.788138 
L 108.693791 263.832187 
L 110.442402 264.59116 
L 112.191013 266.026197 
L 113.939624 268.065146 
L 115.688235 270.608571 
L 117.436847 273.537786 
L 119.185458 276.72399 
L 120.934069 280.037559 
L 122.68268 283.356542 
L 124.431291 286.57364 
L 126.179902 289.601163 
L 127.928513 292.373746 
L 129.677124 294.848906 
L 131.425736 297.005717 
L 133.174347 298.842059 
L 134.922958 300.370956 
L 136.671569 301.616534 
L 138.42018 302.610019 
L 140.168791 303.386167 
L 141.917402 303.980293 
L 143.666014 304.426055 
L 145.414625 304.753947 
L 147.163236 304.990466 
L 148.911847 305.157804 
L 150.660458 305.273946 
" style="fill:none;stroke:#1f77b4;stroke-linecap:square;stroke-width:1.5;"/>
   </g>
   <g id="line2d_49">
    <path clip-path="url(#p52b1d21d47)" d="M 95.569379 305.491995 
L 97.956714 305.485489 
L 100.344048 305.473198 
L 102.731382 305.450679 
L 105.118716 305.410673 
L 107.506051 305.341773 
L 109.893385 305.226765 
L 112.280719 305.040748 
L 114.668054 304.74931 
L 117.055388 304.307179 
L 119.442722 303.657984 
L 121.830057 302.735864 
L 124.217391 301.469654 
L 126.604725 299.790152 
L 128.99206 297.640485 
L 131.379394 294.98886 
L 133.766728 291.842127 
L 136.154062 288.25778 
L 138.541397 284.351542 
L 140.928731 280.297784 
L 143.316065 276.320848 
L 145.7034 272.676862 
L 148.090734 269.627571 
L 150.478068 267.409685 
L 152.865403 266.204635 
L 155.252737 266.114076 
L 157.640071 267.145733 
L 160.027406 269.212311 
L 162.41474 272.143689 
L 164.802074 275.710039 
L 167.189408 279.651502 
L 169.576743 283.709133 
L 171.964077 287.65206 
L 174.351411 291.297103 
L 176.738746 294.518989 
L 179.12608 297.251282 
L 181.513414 299.479774 
L 183.900749 301.230993 
L 186.288083 302.558708 
L 188.675417 303.530922 
L 191.062752 304.219058 
L 193.450086 304.690181 
L 195.83742 305.002342 
L 198.224754 305.202607 
L 200.612089 305.327053 
L 202.999423 305.401981 
L 205.386757 305.445704 
L 207.774092 305.470438 
L 210.161426 305.484005 
L 212.54876 305.491221 
" style="fill:none;stroke:#ff7f0e;stroke-linecap:square;stroke-width:1.5;"/>
   </g>
   <g id="line2d_50">
    <path clip-path="url(#p52b1d21d47)" d="M 107.360336 305.498483 
L 107.360336 263.788138 
" style="fill:none;stroke:#ff0000;stroke-linecap:square;stroke-width:1.5;"/>
   </g>
   <g id="line2d_51">
    <path clip-path="url(#p52b1d21d47)" d="M 71.955598 305.498483 
L 71.955598 266.114076 
" style="fill:none;stroke:#ff0000;stroke-linecap:square;stroke-width:1.5;"/>
   </g>
   <g id="patch_23">
    <path d="M 57.6 307.584 
L 57.6 261.702621 
" style="fill:none;stroke:#000000;stroke-linecap:square;stroke-linejoin:miter;stroke-width:0.8;"/>
   </g>
   <g id="patch_24">
    <path d="M 219.927273 307.584 
L 219.927273 261.702621 
" style="fill:none;stroke:#000000;stroke-linecap:square;stroke-linejoin:miter;stroke-width:0.8;"/>
   </g>
   <g id="patch_25">
    <path d="M 57.6 307.584 
L 219.927273 307.584 
" style="fill:none;stroke:#000000;stroke-linecap:square;stroke-linejoin:miter;stroke-width:0.8;"/>
   </g>
   <g id="patch_26">
    <path d="M 57.6 261.702621 
L 219.927273 261.702621 
" style="fill:none;stroke:#000000;stroke-linecap:square;stroke-linejoin:miter;stroke-width:0.8;"/>
   </g>
   <g id="text_39">
    <!-- sigma1 -->
    <defs>
     <path d="M 44.28125 53.078125 
L 44.28125 44.578125 
Q 40.484375 46.53125 36.375 47.5 
Q 32.28125 48.484375 27.875 48.484375 
Q 21.1875 48.484375 17.84375 46.4375 
Q 14.5 44.390625 14.5 40.28125 
Q 14.5 37.15625 16.890625 35.375 
Q 19.28125 33.59375 26.515625 31.984375 
L 29.59375 31.296875 
Q 39.15625 29.25 43.1875 25.515625 
Q 47.21875 21.78125 47.21875 15.09375 
Q 47.21875 7.46875 41.1875 3.015625 
Q 35.15625 -1.421875 24.609375 -1.421875 
Q 20.21875 -1.421875 15.453125 -0.5625 
Q 10.6875 0.296875 5.421875 2 
L 5.421875 11.28125 
Q 10.40625 8.6875 15.234375 7.390625 
Q 20.0625 6.109375 24.8125 6.109375 
Q 31.15625 6.109375 34.5625 8.28125 
Q 37.984375 10.453125 37.984375 14.40625 
Q 37.984375 18.0625 35.515625 20.015625 
Q 33.0625 21.96875 24.703125 23.78125 
L 21.578125 24.515625 
Q 13.234375 26.265625 9.515625 29.90625 
Q 5.8125 33.546875 5.8125 39.890625 
Q 5.8125 47.609375 11.28125 51.796875 
Q 16.75 56 26.8125 56 
Q 31.78125 56 36.171875 55.265625 
Q 40.578125 54.546875 44.28125 53.078125 
z
" id="DejaVuSans-115"/>
     <path d="M 9.421875 54.6875 
L 18.40625 54.6875 
L 18.40625 0 
L 9.421875 0 
z
M 9.421875 75.984375 
L 18.40625 75.984375 
L 18.40625 64.59375 
L 9.421875 64.59375 
z
" id="DejaVuSans-105"/>
     <path d="M 45.40625 27.984375 
Q 45.40625 37.75 41.375 43.109375 
Q 37.359375 48.484375 30.078125 48.484375 
Q 22.859375 48.484375 18.828125 43.109375 
Q 14.796875 37.75 14.796875 27.984375 
Q 14.796875 18.265625 18.828125 12.890625 
Q 22.859375 7.515625 30.078125 7.515625 
Q 37.359375 7.515625 41.375 12.890625 
Q 45.40625 18.265625 45.40625 27.984375 
z
M 54.390625 6.78125 
Q 54.390625 -7.171875 48.1875 -13.984375 
Q 42 -20.796875 29.203125 -20.796875 
Q 24.46875 -20.796875 20.265625 -20.09375 
Q 16.0625 -19.390625 12.109375 -17.921875 
L 12.109375 -9.1875 
Q 16.0625 -11.328125 19.921875 -12.34375 
Q 23.78125 -13.375 27.78125 -13.375 
Q 36.625 -13.375 41.015625 -8.765625 
Q 45.40625 -4.15625 45.40625 5.171875 
L 45.40625 9.625 
Q 42.625 4.78125 38.28125 2.390625 
Q 33.9375 0 27.875 0 
Q 17.828125 0 11.671875 7.65625 
Q 5.515625 15.328125 5.515625 27.984375 
Q 5.515625 40.671875 11.671875 48.328125 
Q 17.828125 56 27.875 56 
Q 33.9375 56 38.28125 53.609375 
Q 42.625 51.21875 45.40625 46.390625 
L 45.40625 54.6875 
L 54.390625 54.6875 
z
" id="DejaVuSans-103"/>
     <path d="M 34.28125 27.484375 
Q 23.390625 27.484375 19.1875 25 
Q 14.984375 22.515625 14.984375 16.5 
Q 14.984375 11.71875 18.140625 8.90625 
Q 21.296875 6.109375 26.703125 6.109375 
Q 34.1875 6.109375 38.703125 11.40625 
Q 43.21875 16.703125 43.21875 25.484375 
L 43.21875 27.484375 
z
M 52.203125 31.203125 
L 52.203125 0 
L 43.21875 0 
L 43.21875 8.296875 
Q 40.140625 3.328125 35.546875 0.953125 
Q 30.953125 -1.421875 24.3125 -1.421875 
Q 15.921875 -1.421875 10.953125 3.296875 
Q 6 8.015625 6 15.921875 
Q 6 25.140625 12.171875 29.828125 
Q 18.359375 34.515625 30.609375 34.515625 
L 43.21875 34.515625 
L 43.21875 35.40625 
Q 43.21875 41.609375 39.140625 45 
Q 35.0625 48.390625 27.6875 48.390625 
Q 23 48.390625 18.546875 47.265625 
Q 14.109375 46.140625 10.015625 43.890625 
L 10.015625 52.203125 
Q 14.9375 54.109375 19.578125 55.046875 
Q 24.21875 56 28.609375 56 
Q 40.484375 56 46.34375 49.84375 
Q 52.203125 43.703125 52.203125 31.203125 
z
" id="DejaVuSans-97"/>
    </defs>
    <g transform="translate(116.823324 255.702621)scale(0.12 -0.12)">
     <use xlink:href="#DejaVuSans-115"/>
     <use x="52.099609" xlink:href="#DejaVuSans-105"/>
     <use x="79.882812" xlink:href="#DejaVuSans-103"/>
     <use x="143.359375" xlink:href="#DejaVuSans-109"/>
     <use x="240.771484" xlink:href="#DejaVuSans-97"/>
     <use x="302.050781" xlink:href="#DejaVuSans-49"/>
    </g>
   </g>
  </g>
  <g id="axes_6">
   <g id="patch_27">
    <path d="M 252.392727 87.353379 
L 414.72 87.353379 
L 414.72 41.472 
L 252.392727 41.472 
z
" style="fill:#ffffff;"/>
   </g>
   <g id="matplotlib.axis_11">
    <g id="xtick_20">
     <g id="line2d_52">
      <g>
       <use style="stroke:#000000;stroke-width:0.8;" x="271.159473" xlink:href="#m8053c70198" y="87.353379"/>
      </g>
     </g>
     <g id="text_40">
      <!-- 1 -->
      <g transform="translate(267.978223 101.951817)scale(0.1 -0.1)">
       <use xlink:href="#DejaVuSans-49"/>
      </g>
     </g>
    </g>
    <g id="xtick_21">
     <g id="line2d_53">
      <g>
       <use style="stroke:#000000;stroke-width:0.8;" x="304.710857" xlink:href="#m8053c70198" y="87.353379"/>
      </g>
     </g>
     <g id="text_41">
      <!-- 2 -->
      <g transform="translate(301.529607 101.951817)scale(0.1 -0.1)">
       <use xlink:href="#DejaVuSans-50"/>
      </g>
     </g>
    </g>
    <g id="xtick_22">
     <g id="line2d_54">
      <g>
       <use style="stroke:#000000;stroke-width:0.8;" x="338.262242" xlink:href="#m8053c70198" y="87.353379"/>
      </g>
     </g>
     <g id="text_42">
      <!-- 3 -->
      <g transform="translate(335.080992 101.951817)scale(0.1 -0.1)">
       <use xlink:href="#DejaVuSans-51"/>
      </g>
     </g>
    </g>
    <g id="xtick_23">
     <g id="line2d_55">
      <g>
       <use style="stroke:#000000;stroke-width:0.8;" x="371.813626" xlink:href="#m8053c70198" y="87.353379"/>
      </g>
     </g>
     <g id="text_43">
      <!-- 4 -->
      <g transform="translate(368.632376 101.951817)scale(0.1 -0.1)">
       <use xlink:href="#DejaVuSans-52"/>
      </g>
     </g>
    </g>
    <g id="xtick_24">
     <g id="line2d_56">
      <g>
       <use style="stroke:#000000;stroke-width:0.8;" x="405.365011" xlink:href="#m8053c70198" y="87.353379"/>
      </g>
     </g>
     <g id="text_44">
      <!-- 5 -->
      <g transform="translate(402.183761 101.951817)scale(0.1 -0.1)">
       <use xlink:href="#DejaVuSans-53"/>
      </g>
     </g>
    </g>
   </g>
   <g id="matplotlib.axis_12">
    <g id="ytick_11">
     <g id="line2d_57">
      <g>
       <use style="stroke:#000000;stroke-width:0.8;" x="252.392727" xlink:href="#m7c9020cb4c" y="85.267862"/>
      </g>
     </g>
     <g id="text_45">
      <!-- 0 -->
      <g transform="translate(239.030227 89.067081)scale(0.1 -0.1)">
       <use xlink:href="#DejaVuSans-48"/>
      </g>
     </g>
    </g>
    <g id="ytick_12">
     <g id="line2d_58">
      <g>
       <use style="stroke:#000000;stroke-width:0.8;" x="252.392727" xlink:href="#m7c9020cb4c" y="42.935387"/>
      </g>
     </g>
     <g id="text_46">
      <!-- 100 -->
      <g transform="translate(226.305227 46.734606)scale(0.1 -0.1)">
       <use xlink:href="#DejaVuSans-49"/>
       <use x="63.623047" xlink:href="#DejaVuSans-48"/>
       <use x="127.246094" xlink:href="#DejaVuSans-48"/>
      </g>
     </g>
    </g>
    <g id="text_47">
     <!-- Frequency -->
     <g transform="translate(220.22554 90.710346)rotate(-90)scale(0.1 -0.1)">
      <use xlink:href="#DejaVuSans-70"/>
      <use x="57.410156" xlink:href="#DejaVuSans-114"/>
      <use x="98.492188" xlink:href="#DejaVuSans-101"/>
      <use x="160.015625" xlink:href="#DejaVuSans-113"/>
      <use x="223.492188" xlink:href="#DejaVuSans-117"/>
      <use x="286.871094" xlink:href="#DejaVuSans-101"/>
      <use x="348.394531" xlink:href="#DejaVuSans-110"/>
      <use x="411.773438" xlink:href="#DejaVuSans-99"/>
      <use x="466.753906" xlink:href="#DejaVuSans-121"/>
     </g>
    </g>
   </g>
   <g id="line2d_59">
    <path clip-path="url(#pc55cc25d9a)" d="M 401.834452 85.178237 
L 401.94684 85.143823 
L 402.059229 85.098442 
L 402.171617 85.03949 
L 402.284006 84.964058 
L 402.396394 84.869005 
L 402.508783 84.751071 
L 402.621171 84.607038 
L 402.73356 84.433931 
L 402.845948 84.229265 
L 402.958337 83.991312 
L 403.070725 83.719397 
L 403.183114 83.414166 
L 403.295502 83.077839 
L 403.407891 82.714383 
L 403.520279 82.329611 
L 403.632668 81.931148 
L 403.745056 81.528287 
L 403.857445 81.131689 
L 403.969833 80.752959 
L 404.082222 80.40411 
L 404.19461 80.096944 
L 404.306998 79.842395 
L 404.419387 79.649887 
L 404.531775 79.526753 
L 404.644164 79.477776 
L 404.756552 79.504877 
L 404.868941 79.606992 
L 404.981329 79.78014 
L 405.093718 80.01768 
L 405.206106 80.310738 
L 405.318495 80.64875 
L 405.430883 81.020098 
L 405.543272 81.412763 
L 405.65566 81.814962 
L 405.768049 82.215713 
L 405.880437 82.605295 
L 405.992826 82.975576 
L 406.105214 83.320215 
L 406.217603 83.634717 
L 406.329991 83.916372 
L 406.44238 84.164104 
L 406.554768 84.378234 
L 406.667157 84.560216 
L 406.779545 84.712346 
L 406.891934 84.837483 
L 407.004322 84.9388 
L 407.116711 85.019561 
L 407.229099 85.082955 
L 407.341488 85.131968 
" style="fill:none;stroke:#1f77b4;stroke-linecap:square;stroke-width:1.5;"/>
   </g>
   <g id="line2d_60">
    <path clip-path="url(#pc55cc25d9a)" d="M 260.280101 84.054364 
L 260.296896 83.593769 
L 260.313691 82.993491 
L 260.330486 82.224985 
L 260.347281 81.258747 
L 260.364076 80.06606 
L 260.380871 78.621249 
L 260.397666 76.904359 
L 260.414461 74.904106 
L 260.431256 72.620867 
L 260.448051 70.069431 
L 260.464846 67.281167 
L 260.481641 64.305261 
L 260.498436 61.208717 
L 260.515231 58.074907 
L 260.532026 55.000551 
L 260.548821 52.091216 
L 260.565616 49.455553 
L 260.582411 47.198695 
L 260.599206 45.415356 
L 260.616001 44.183258 
L 260.632796 43.557517 
L 260.649591 43.566555 
L 260.666386 44.20996 
L 260.683181 45.458516 
L 260.699976 47.256402 
L 260.716771 49.525334 
L 260.733566 52.17021 
L 260.750361 55.085703 
L 260.767156 58.16316 
L 260.783951 61.297191 
L 260.800746 64.391398 
L 260.817541 67.362839 
L 260.834336 70.144998 
L 260.851131 72.689201 
L 260.867926 74.96457 
L 260.884721 76.956757 
L 260.901516 78.665752 
L 260.918311 80.103128 
L 260.935106 81.289041 
L 260.951901 82.249287 
L 260.968696 83.012632 
L 260.985491 83.608578 
L 261.002286 84.06562 
L 261.019081 84.410026 
L 261.035876 84.665083 
L 261.052671 84.85075 
L 261.069466 84.98362 
L 261.086261 85.077111 
L 261.103056 85.1418 
" style="fill:none;stroke:#ff7f0e;stroke-linecap:square;stroke-width:1.5;"/>
   </g>
   <g id="line2d_61">
    <path clip-path="url(#pc55cc25d9a)" d="M 395.021226 85.267862 
L 395.021226 79.477776 
" style="fill:none;stroke:#ff0000;stroke-linecap:square;stroke-width:1.5;"/>
   </g>
   <g id="line2d_62">
    <path clip-path="url(#pc55cc25d9a)" d="M 259.77124 85.267862 
L 259.77124 43.557517 
" style="fill:none;stroke:#ff0000;stroke-linecap:square;stroke-width:1.5;"/>
   </g>
   <g id="patch_28">
    <path d="M 252.392727 87.353379 
L 252.392727 41.472 
" style="fill:none;stroke:#000000;stroke-linecap:square;stroke-linejoin:miter;stroke-width:0.8;"/>
   </g>
   <g id="patch_29">
    <path d="M 414.72 87.353379 
L 414.72 41.472 
" style="fill:none;stroke:#000000;stroke-linecap:square;stroke-linejoin:miter;stroke-width:0.8;"/>
   </g>
   <g id="patch_30">
    <path d="M 252.392727 87.353379 
L 414.72 87.353379 
" style="fill:none;stroke:#000000;stroke-linecap:square;stroke-linejoin:miter;stroke-width:0.8;"/>
   </g>
   <g id="patch_31">
    <path d="M 252.392727 41.472 
L 414.72 41.472 
" style="fill:none;stroke:#000000;stroke-linecap:square;stroke-linejoin:miter;stroke-width:0.8;"/>
   </g>
   <g id="text_48">
    <!-- sigma0 -->
    <g transform="translate(311.616051 35.472)scale(0.12 -0.12)">
     <use xlink:href="#DejaVuSans-115"/>
     <use x="52.099609" xlink:href="#DejaVuSans-105"/>
     <use x="79.882812" xlink:href="#DejaVuSans-103"/>
     <use x="143.359375" xlink:href="#DejaVuSans-109"/>
     <use x="240.771484" xlink:href="#DejaVuSans-97"/>
     <use x="302.050781" xlink:href="#DejaVuSans-48"/>
    </g>
   </g>
  </g>
  <g id="axes_7">
   <g id="patch_32">
    <path d="M 252.392727 142.411034 
L 414.72 142.411034 
L 414.72 96.529655 
L 252.392727 96.529655 
z
" style="fill:#ffffff;"/>
   </g>
   <g id="matplotlib.axis_13">
    <g id="xtick_25">
     <g id="line2d_63">
      <g>
       <use style="stroke:#000000;stroke-width:0.8;" x="263.917294" xlink:href="#m8053c70198" y="142.411034"/>
      </g>
     </g>
     <g id="text_49">
      <!-- 2.5 -->
      <g transform="translate(255.965731 157.009472)scale(0.1 -0.1)">
       <use xlink:href="#DejaVuSans-50"/>
       <use x="63.623047" xlink:href="#DejaVuSans-46"/>
       <use x="95.410156" xlink:href="#DejaVuSans-53"/>
      </g>
     </g>
    </g>
    <g id="xtick_26">
     <g id="line2d_64">
      <g>
       <use style="stroke:#000000;stroke-width:0.8;" x="300.427288" xlink:href="#m8053c70198" y="142.411034"/>
      </g>
     </g>
     <g id="text_50">
      <!-- 5.0 -->
      <g transform="translate(292.475726 157.009472)scale(0.1 -0.1)">
       <use xlink:href="#DejaVuSans-53"/>
       <use x="63.623047" xlink:href="#DejaVuSans-46"/>
       <use x="95.410156" xlink:href="#DejaVuSans-48"/>
      </g>
     </g>
    </g>
    <g id="xtick_27">
     <g id="line2d_65">
      <g>
       <use style="stroke:#000000;stroke-width:0.8;" x="336.937283" xlink:href="#m8053c70198" y="142.411034"/>
      </g>
     </g>
     <g id="text_51">
      <!-- 7.5 -->
      <defs>
       <path d="M 8.203125 72.90625 
L 55.078125 72.90625 
L 55.078125 68.703125 
L 28.609375 0 
L 18.3125 0 
L 43.21875 64.59375 
L 8.203125 64.59375 
z
" id="DejaVuSans-55"/>
      </defs>
      <g transform="translate(328.985721 157.009472)scale(0.1 -0.1)">
       <use xlink:href="#DejaVuSans-55"/>
       <use x="63.623047" xlink:href="#DejaVuSans-46"/>
       <use x="95.410156" xlink:href="#DejaVuSans-53"/>
      </g>
     </g>
    </g>
    <g id="xtick_28">
     <g id="line2d_66">
      <g>
       <use style="stroke:#000000;stroke-width:0.8;" x="373.447278" xlink:href="#m8053c70198" y="142.411034"/>
      </g>
     </g>
     <g id="text_52">
      <!-- 10.0 -->
      <g transform="translate(362.314466 157.009472)scale(0.1 -0.1)">
       <use xlink:href="#DejaVuSans-49"/>
       <use x="63.623047" xlink:href="#DejaVuSans-48"/>
       <use x="127.246094" xlink:href="#DejaVuSans-46"/>
       <use x="159.033203" xlink:href="#DejaVuSans-48"/>
      </g>
     </g>
    </g>
    <g id="xtick_29">
     <g id="line2d_67">
      <g>
       <use style="stroke:#000000;stroke-width:0.8;" x="409.957273" xlink:href="#m8053c70198" y="142.411034"/>
      </g>
     </g>
     <g id="text_53">
      <!-- 12.5 -->
      <g transform="translate(398.824461 157.009472)scale(0.1 -0.1)">
       <use xlink:href="#DejaVuSans-49"/>
       <use x="63.623047" xlink:href="#DejaVuSans-50"/>
       <use x="127.246094" xlink:href="#DejaVuSans-46"/>
       <use x="159.033203" xlink:href="#DejaVuSans-53"/>
      </g>
     </g>
    </g>
   </g>
   <g id="matplotlib.axis_14">
    <g id="ytick_13">
     <g id="line2d_68">
      <g>
       <use style="stroke:#000000;stroke-width:0.8;" x="252.392727" xlink:href="#m7c9020cb4c" y="140.325517"/>
      </g>
     </g>
     <g id="text_54">
      <!-- 0 -->
      <g transform="translate(239.030227 144.124736)scale(0.1 -0.1)">
       <use xlink:href="#DejaVuSans-48"/>
      </g>
     </g>
    </g>
    <g id="ytick_14">
     <g id="line2d_69">
      <g>
       <use style="stroke:#000000;stroke-width:0.8;" x="252.392727" xlink:href="#m7c9020cb4c" y="107.26963"/>
      </g>
     </g>
     <g id="text_55">
      <!-- 20 -->
      <g transform="translate(232.667727 111.068848)scale(0.1 -0.1)">
       <use xlink:href="#DejaVuSans-50"/>
       <use x="63.623047" xlink:href="#DejaVuSans-48"/>
      </g>
     </g>
    </g>
    <g id="text_56">
     <!-- Frequency -->
     <g transform="translate(226.58804 145.768001)rotate(-90)scale(0.1 -0.1)">
      <use xlink:href="#DejaVuSans-70"/>
      <use x="57.410156" xlink:href="#DejaVuSans-114"/>
      <use x="98.492188" xlink:href="#DejaVuSans-101"/>
      <use x="160.015625" xlink:href="#DejaVuSans-113"/>
      <use x="223.492188" xlink:href="#DejaVuSans-117"/>
      <use x="286.871094" xlink:href="#DejaVuSans-101"/>
      <use x="348.394531" xlink:href="#DejaVuSans-110"/>
      <use x="411.773438" xlink:href="#DejaVuSans-99"/>
      <use x="466.753906" xlink:href="#DejaVuSans-121"/>
     </g>
    </g>
   </g>
   <g id="line2d_70">
    <path clip-path="url(#p64c12d20d0)" d="M 403.493345 140.228919 
L 403.571878 140.183026 
L 403.650412 140.118566 
L 403.728946 140.029575 
L 403.807479 139.908836 
L 403.886013 139.747873 
L 403.964546 139.537064 
L 404.04308 139.265899 
L 404.121613 138.923407 
L 404.200147 138.49879 
L 404.27868 137.982238 
L 404.357214 137.365916 
L 404.435747 136.645065 
L 404.514281 135.819136 
L 404.592814 134.892845 
L 404.671348 133.877029 
L 404.749881 132.789166 
L 404.828415 131.653439 
L 404.906948 130.500258 
L 404.985482 129.365186 
L 405.064015 128.2873 
L 405.142549 127.307061 
L 405.221082 126.463845 
L 405.299616 125.793344 
L 405.37815 125.325066 
L 405.456683 125.080184 
L 405.535217 125.069951 
L 405.61375 125.29484 
L 405.692284 125.744509 
L 405.770817 126.398586 
L 405.849351 127.228208 
L 405.927884 128.198121 
L 406.006418 129.269165 
L 406.084951 130.400872 
L 406.163485 131.553955 
L 406.242018 132.692474 
L 406.320552 133.785524 
L 406.399085 134.808356 
L 406.477619 135.742907 
L 406.556152 136.577782 
L 406.634686 137.307764 
L 406.713219 137.932987 
L 406.791753 138.457891 
L 406.870286 138.89009 
L 406.94882 139.239263 
L 407.027354 139.51616 
L 407.105887 139.731761 
L 407.184421 139.896638 
L 407.262954 140.020503 
L 407.341488 140.111935 
" style="fill:none;stroke:#1f77b4;stroke-linecap:square;stroke-width:1.5;"/>
   </g>
   <g id="line2d_71">
    <path clip-path="url(#p64c12d20d0)" d="M 262.321503 139.990294 
L 262.353659 139.81369 
L 262.385815 139.559078 
L 262.417971 139.199882 
L 262.450127 138.704145 
L 262.482283 138.035004 
L 262.514439 137.151948 
L 262.546595 136.013025 
L 262.578751 134.578088 
L 262.610907 132.813024 
L 262.643063 130.694777 
L 262.675219 128.21674 
L 262.707375 125.393927 
L 262.739531 122.267216 
L 262.771687 118.905845 
L 262.803843 115.407478 
L 262.835999 111.895313 
L 262.868155 108.512035 
L 262.900311 105.41088 
L 262.932467 102.744464 
L 262.964623 100.652479 
L 262.996779 99.249619 
L 263.028935 98.615172 
L 263.061091 98.785604 
L 263.093247 99.751082 
L 263.125403 101.456418 
L 263.157559 103.806291 
L 263.189715 106.674069 
L 263.221871 109.913093 
L 263.254027 113.369022 
L 263.286183 116.891815 
L 263.318339 120.346069 
L 263.350495 123.618799 
L 263.382651 126.62415 
L 263.414807 129.305005 
L 263.446963 131.631815 
L 263.479119 133.59927 
L 263.511275 135.221573 
L 263.543431 136.527087 
L 263.575587 137.553043 
L 263.607743 138.340812 
L 263.639899 138.932073 
L 263.672055 139.36601 
L 263.704211 139.677522 
L 263.736367 139.896316 
L 263.768523 140.046703 
L 263.800679 140.14788 
L 263.832835 140.214519 
L 263.864991 140.257492 
L 263.897147 140.284631 
" style="fill:none;stroke:#ff7f0e;stroke-linecap:square;stroke-width:1.5;"/>
   </g>
   <g id="line2d_72">
    <path clip-path="url(#p64c12d20d0)" d="M 403.096949 140.325517 
L 403.096949 125.069951 
" style="fill:none;stroke:#ff0000;stroke-linecap:square;stroke-width:1.5;"/>
   </g>
   <g id="line2d_73">
    <path clip-path="url(#p64c12d20d0)" d="M 259.77124 140.325517 
L 259.77124 98.615172 
" style="fill:none;stroke:#ff0000;stroke-linecap:square;stroke-width:1.5;"/>
   </g>
   <g id="patch_33">
    <path d="M 252.392727 142.411034 
L 252.392727 96.529655 
" style="fill:none;stroke:#000000;stroke-linecap:square;stroke-linejoin:miter;stroke-width:0.8;"/>
   </g>
   <g id="patch_34">
    <path d="M 414.72 142.411034 
L 414.72 96.529655 
" style="fill:none;stroke:#000000;stroke-linecap:square;stroke-linejoin:miter;stroke-width:0.8;"/>
   </g>
   <g id="patch_35">
    <path d="M 252.392727 142.411034 
L 414.72 142.411034 
" style="fill:none;stroke:#000000;stroke-linecap:square;stroke-linejoin:miter;stroke-width:0.8;"/>
   </g>
   <g id="patch_36">
    <path d="M 252.392727 96.529655 
L 414.72 96.529655 
" style="fill:none;stroke:#000000;stroke-linecap:square;stroke-linejoin:miter;stroke-width:0.8;"/>
   </g>
   <g id="text_57">
    <!-- sigma2 -->
    <g transform="translate(311.616051 90.529655)scale(0.12 -0.12)">
     <use xlink:href="#DejaVuSans-115"/>
     <use x="52.099609" xlink:href="#DejaVuSans-105"/>
     <use x="79.882812" xlink:href="#DejaVuSans-103"/>
     <use x="143.359375" xlink:href="#DejaVuSans-109"/>
     <use x="240.771484" xlink:href="#DejaVuSans-97"/>
     <use x="302.050781" xlink:href="#DejaVuSans-50"/>
    </g>
   </g>
  </g>
  <g id="axes_8">
   <g id="patch_37">
    <path d="M 252.392727 197.46869 
L 414.72 197.46869 
L 414.72 151.58731 
L 252.392727 151.58731 
z
" style="fill:#ffffff;"/>
   </g>
   <g id="matplotlib.axis_15">
    <g id="xtick_30">
     <g id="line2d_74">
      <g>
       <use style="stroke:#000000;stroke-width:0.8;" x="275.165338" xlink:href="#m8053c70198" y="197.46869"/>
      </g>
     </g>
     <g id="text_58">
      <!-- 0.02 -->
      <defs>
       <path d="M 10.59375 35.5 
L 73.1875 35.5 
L 73.1875 27.203125 
L 10.59375 27.203125 
z
" id="DejaVuSans-8722"/>
      </defs>
      <g transform="translate(259.842682 212.067127)scale(0.1 -0.1)">
       <use xlink:href="#DejaVuSans-8722"/>
       <use x="83.789062" xlink:href="#DejaVuSans-48"/>
       <use x="147.412109" xlink:href="#DejaVuSans-46"/>
       <use x="179.199219" xlink:href="#DejaVuSans-48"/>
       <use x="242.822266" xlink:href="#DejaVuSans-50"/>
      </g>
     </g>
    </g>
    <g id="xtick_31">
     <g id="line2d_75">
      <g>
       <use style="stroke:#000000;stroke-width:0.8;" x="315.150382" xlink:href="#m8053c70198" y="197.46869"/>
      </g>
     </g>
     <g id="text_59">
      <!-- 0.01 -->
      <g transform="translate(299.827726 212.067127)scale(0.1 -0.1)">
       <use xlink:href="#DejaVuSans-8722"/>
       <use x="83.789062" xlink:href="#DejaVuSans-48"/>
       <use x="147.412109" xlink:href="#DejaVuSans-46"/>
       <use x="179.199219" xlink:href="#DejaVuSans-48"/>
       <use x="242.822266" xlink:href="#DejaVuSans-49"/>
      </g>
     </g>
    </g>
    <g id="xtick_32">
     <g id="line2d_76">
      <g>
       <use style="stroke:#000000;stroke-width:0.8;" x="355.135425" xlink:href="#m8053c70198" y="197.46869"/>
      </g>
     </g>
     <g id="text_60">
      <!-- 0.00 -->
      <g transform="translate(344.002613 212.067127)scale(0.1 -0.1)">
       <use xlink:href="#DejaVuSans-48"/>
       <use x="63.623047" xlink:href="#DejaVuSans-46"/>
       <use x="95.410156" xlink:href="#DejaVuSans-48"/>
       <use x="159.033203" xlink:href="#DejaVuSans-48"/>
      </g>
     </g>
    </g>
    <g id="xtick_33">
     <g id="line2d_77">
      <g>
       <use style="stroke:#000000;stroke-width:0.8;" x="395.120469" xlink:href="#m8053c70198" y="197.46869"/>
      </g>
     </g>
     <g id="text_61">
      <!-- 0.01 -->
      <g transform="translate(383.987657 212.067127)scale(0.1 -0.1)">
       <use xlink:href="#DejaVuSans-48"/>
       <use x="63.623047" xlink:href="#DejaVuSans-46"/>
       <use x="95.410156" xlink:href="#DejaVuSans-48"/>
       <use x="159.033203" xlink:href="#DejaVuSans-49"/>
      </g>
     </g>
    </g>
   </g>
   <g id="matplotlib.axis_16">
    <g id="ytick_15">
     <g id="line2d_78">
      <g>
       <use style="stroke:#000000;stroke-width:0.8;" x="252.392727" xlink:href="#m7c9020cb4c" y="195.383172"/>
      </g>
     </g>
     <g id="text_62">
      <!-- 0 -->
      <g transform="translate(239.030227 199.182391)scale(0.1 -0.1)">
       <use xlink:href="#DejaVuSans-48"/>
      </g>
     </g>
    </g>
    <g id="ytick_16">
     <g id="line2d_79">
      <g>
       <use style="stroke:#000000;stroke-width:0.8;" x="252.392727" xlink:href="#m7c9020cb4c" y="160.356633"/>
      </g>
     </g>
     <g id="text_63">
      <!-- 50 -->
      <g transform="translate(232.667727 164.155852)scale(0.1 -0.1)">
       <use xlink:href="#DejaVuSans-53"/>
       <use x="63.623047" xlink:href="#DejaVuSans-48"/>
      </g>
     </g>
    </g>
    <g id="text_64">
     <!-- Frequency -->
     <g transform="translate(226.58804 200.825656)rotate(-90)scale(0.1 -0.1)">
      <use xlink:href="#DejaVuSans-70"/>
      <use x="57.410156" xlink:href="#DejaVuSans-114"/>
      <use x="98.492188" xlink:href="#DejaVuSans-101"/>
      <use x="160.015625" xlink:href="#DejaVuSans-113"/>
      <use x="223.492188" xlink:href="#DejaVuSans-117"/>
      <use x="286.871094" xlink:href="#DejaVuSans-101"/>
      <use x="348.394531" xlink:href="#DejaVuSans-110"/>
      <use x="411.773438" xlink:href="#DejaVuSans-99"/>
      <use x="466.753906" xlink:href="#DejaVuSans-121"/>
     </g>
    </g>
   </g>
   <g id="line2d_80">
    <path clip-path="url(#p5769b193d7)" d="M 259.77124 194.509333 
L 262.782877 194.196131 
L 265.794515 193.790927 
L 268.806153 193.274234 
L 271.817791 192.624961 
L 274.829428 191.821114 
L 277.841066 190.840781 
L 280.852704 189.663412 
L 283.864341 188.271348 
L 286.875979 186.651568 
L 289.887617 184.797537 
L 292.899255 182.711041 
L 295.910892 180.403846 
L 298.92253 177.899012 
L 301.934168 175.231685 
L 304.945805 172.449198 
L 307.957443 169.610385 
L 310.969081 166.78401 
L 313.980719 164.046339 
L 316.992356 161.477938 
L 320.003994 159.159851 
L 323.015632 157.169423 
L 326.027269 155.576041 
L 329.038907 154.437125 
L 332.050545 153.794701 
L 335.062182 153.672828 
L 338.07382 154.076095 
L 341.085458 154.989344 
L 344.097096 156.378608 
L 347.108733 158.193212 
L 350.120371 160.36884 
L 353.132009 162.831309 
L 356.143646 165.500756 
L 359.155284 168.29589 
L 362.166922 171.138014 
L 365.17856 173.954539 
L 368.190197 176.681787 
L 371.201835 179.266961 
L 374.213473 181.66924 
L 377.22511 183.860031 
L 380.236748 185.822473 
L 383.248386 187.55035 
L 386.260024 189.046565 
L 389.271661 190.321371 
L 392.283299 191.390503 
L 395.294937 192.27338 
L 398.306574 192.991458 
L 401.318212 193.566832 
L 404.32985 194.021117 
L 407.341488 194.374611 
" style="fill:none;stroke:#1f77b4;stroke-linecap:square;stroke-width:1.5;"/>
   </g>
   <g id="line2d_81">
    <path clip-path="url(#p5769b193d7)" d="M 294.629278 195.383172 
L 294.629278 153.672828 
" style="fill:none;stroke:#ff0000;stroke-linecap:square;stroke-width:1.5;"/>
   </g>
   <g id="patch_38">
    <path d="M 252.392727 197.46869 
L 252.392727 151.58731 
" style="fill:none;stroke:#000000;stroke-linecap:square;stroke-linejoin:miter;stroke-width:0.8;"/>
   </g>
   <g id="patch_39">
    <path d="M 414.72 197.46869 
L 414.72 151.58731 
" style="fill:none;stroke:#000000;stroke-linecap:square;stroke-linejoin:miter;stroke-width:0.8;"/>
   </g>
   <g id="patch_40">
    <path d="M 252.392727 197.46869 
L 414.72 197.46869 
" style="fill:none;stroke:#000000;stroke-linecap:square;stroke-linejoin:miter;stroke-width:0.8;"/>
   </g>
   <g id="patch_41">
    <path d="M 252.392727 151.58731 
L 414.72 151.58731 
" style="fill:none;stroke:#000000;stroke-linecap:square;stroke-linejoin:miter;stroke-width:0.8;"/>
   </g>
   <g id="text_65">
    <!-- corr1 -->
    <defs>
     <path d="M 30.609375 48.390625 
Q 23.390625 48.390625 19.1875 42.75 
Q 14.984375 37.109375 14.984375 27.296875 
Q 14.984375 17.484375 19.15625 11.84375 
Q 23.34375 6.203125 30.609375 6.203125 
Q 37.796875 6.203125 41.984375 11.859375 
Q 46.1875 17.53125 46.1875 27.296875 
Q 46.1875 37.015625 41.984375 42.703125 
Q 37.796875 48.390625 30.609375 48.390625 
z
M 30.609375 56 
Q 42.328125 56 49.015625 48.375 
Q 55.71875 40.765625 55.71875 27.296875 
Q 55.71875 13.875 49.015625 6.21875 
Q 42.328125 -1.421875 30.609375 -1.421875 
Q 18.84375 -1.421875 12.171875 6.21875 
Q 5.515625 13.875 5.515625 27.296875 
Q 5.515625 40.765625 12.171875 48.375 
Q 18.84375 56 30.609375 56 
z
" id="DejaVuSans-111"/>
    </defs>
    <g transform="translate(317.836364 145.58731)scale(0.12 -0.12)">
     <use xlink:href="#DejaVuSans-99"/>
     <use x="54.980469" xlink:href="#DejaVuSans-111"/>
     <use x="116.162109" xlink:href="#DejaVuSans-114"/>
     <use x="157.259766" xlink:href="#DejaVuSans-114"/>
     <use x="198.373047" xlink:href="#DejaVuSans-49"/>
    </g>
   </g>
  </g>
  <g id="axes_9">
   <g id="patch_42">
    <path d="M 252.392727 252.526345 
L 414.72 252.526345 
L 414.72 206.644966 
L 252.392727 206.644966 
z
" style="fill:#ffffff;"/>
   </g>
   <g id="matplotlib.axis_17">
    <g id="xtick_34">
     <g id="line2d_82">
      <g>
       <use style="stroke:#000000;stroke-width:0.8;" x="290.10911" xlink:href="#m8053c70198" y="252.526345"/>
      </g>
     </g>
     <g id="text_66">
      <!-- 0.07 -->
      <g transform="translate(278.976298 267.124782)scale(0.1 -0.1)">
       <use xlink:href="#DejaVuSans-48"/>
       <use x="63.623047" xlink:href="#DejaVuSans-46"/>
       <use x="95.410156" xlink:href="#DejaVuSans-48"/>
       <use x="159.033203" xlink:href="#DejaVuSans-55"/>
      </g>
     </g>
    </g>
    <g id="xtick_35">
     <g id="line2d_83">
      <g>
       <use style="stroke:#000000;stroke-width:0.8;" x="332.238358" xlink:href="#m8053c70198" y="252.526345"/>
      </g>
     </g>
     <g id="text_67">
      <!-- 0.08 -->
      <g transform="translate(321.105546 267.124782)scale(0.1 -0.1)">
       <use xlink:href="#DejaVuSans-48"/>
       <use x="63.623047" xlink:href="#DejaVuSans-46"/>
       <use x="95.410156" xlink:href="#DejaVuSans-48"/>
       <use x="159.033203" xlink:href="#DejaVuSans-56"/>
      </g>
     </g>
    </g>
    <g id="xtick_36">
     <g id="line2d_84">
      <g>
       <use style="stroke:#000000;stroke-width:0.8;" x="374.367606" xlink:href="#m8053c70198" y="252.526345"/>
      </g>
     </g>
     <g id="text_68">
      <!-- 0.09 -->
      <defs>
       <path d="M 10.984375 1.515625 
L 10.984375 10.5 
Q 14.703125 8.734375 18.5 7.8125 
Q 22.3125 6.890625 25.984375 6.890625 
Q 35.75 6.890625 40.890625 13.453125 
Q 46.046875 20.015625 46.78125 33.40625 
Q 43.953125 29.203125 39.59375 26.953125 
Q 35.25 24.703125 29.984375 24.703125 
Q 19.046875 24.703125 12.671875 31.3125 
Q 6.296875 37.9375 6.296875 49.421875 
Q 6.296875 60.640625 12.9375 67.421875 
Q 19.578125 74.21875 30.609375 74.21875 
Q 43.265625 74.21875 49.921875 64.515625 
Q 56.59375 54.828125 56.59375 36.375 
Q 56.59375 19.140625 48.40625 8.859375 
Q 40.234375 -1.421875 26.421875 -1.421875 
Q 22.703125 -1.421875 18.890625 -0.6875 
Q 15.09375 0.046875 10.984375 1.515625 
z
M 30.609375 32.421875 
Q 37.25 32.421875 41.125 36.953125 
Q 45.015625 41.5 45.015625 49.421875 
Q 45.015625 57.28125 41.125 61.84375 
Q 37.25 66.40625 30.609375 66.40625 
Q 23.96875 66.40625 20.09375 61.84375 
Q 16.21875 57.28125 16.21875 49.421875 
Q 16.21875 41.5 20.09375 36.953125 
Q 23.96875 32.421875 30.609375 32.421875 
z
" id="DejaVuSans-57"/>
      </defs>
      <g transform="translate(363.234793 267.124782)scale(0.1 -0.1)">
       <use xlink:href="#DejaVuSans-48"/>
       <use x="63.623047" xlink:href="#DejaVuSans-46"/>
       <use x="95.410156" xlink:href="#DejaVuSans-48"/>
       <use x="159.033203" xlink:href="#DejaVuSans-57"/>
      </g>
     </g>
    </g>
   </g>
   <g id="matplotlib.axis_18">
    <g id="ytick_17">
     <g id="line2d_85">
      <g>
       <use style="stroke:#000000;stroke-width:0.8;" x="252.392727" xlink:href="#m7c9020cb4c" y="250.440828"/>
      </g>
     </g>
     <g id="text_69">
      <!-- 0 -->
      <g transform="translate(239.030227 254.240046)scale(0.1 -0.1)">
       <use xlink:href="#DejaVuSans-48"/>
      </g>
     </g>
    </g>
    <g id="ytick_18">
     <g id="line2d_86">
      <g>
       <use style="stroke:#000000;stroke-width:0.8;" x="252.392727" xlink:href="#m7c9020cb4c" y="217.012259"/>
      </g>
     </g>
     <g id="text_70">
      <!-- 50 -->
      <g transform="translate(232.667727 220.811478)scale(0.1 -0.1)">
       <use xlink:href="#DejaVuSans-53"/>
       <use x="63.623047" xlink:href="#DejaVuSans-48"/>
      </g>
     </g>
    </g>
    <g id="text_71">
     <!-- Frequency -->
     <g transform="translate(226.58804 255.883311)rotate(-90)scale(0.1 -0.1)">
      <use xlink:href="#DejaVuSans-70"/>
      <use x="57.410156" xlink:href="#DejaVuSans-114"/>
      <use x="98.492188" xlink:href="#DejaVuSans-101"/>
      <use x="160.015625" xlink:href="#DejaVuSans-113"/>
      <use x="223.492188" xlink:href="#DejaVuSans-117"/>
      <use x="286.871094" xlink:href="#DejaVuSans-101"/>
      <use x="348.394531" xlink:href="#DejaVuSans-110"/>
      <use x="411.773438" xlink:href="#DejaVuSans-99"/>
      <use x="466.753906" xlink:href="#DejaVuSans-121"/>
     </g>
    </g>
   </g>
   <g id="line2d_87">
    <path clip-path="url(#p7212b0b9a2)" d="M 259.77124 249.446549 
L 262.782877 249.099133 
L 265.794515 248.652851 
L 268.806153 248.087772 
L 271.817791 247.382632 
L 274.829428 246.515638 
L 277.841066 245.465536 
L 280.852704 244.212966 
L 283.864341 242.74205 
L 286.875979 241.042142 
L 289.887617 239.109653 
L 292.899255 236.949795 
L 295.910892 234.578097 
L 298.92253 232.021525 
L 301.934168 229.31903 
L 304.945805 226.521386 
L 307.957443 223.690219 
L 310.969081 220.896182 
L 313.980719 218.216315 
L 316.992356 215.730683 
L 320.003994 213.518511 
L 323.015632 211.654028 
L 326.027269 210.202361 
L 329.038907 209.215761 
L 332.050545 208.730483 
L 335.062182 208.764574 
L 338.07382 209.316763 
L 341.085458 210.366535 
L 344.097096 211.875398 
L 347.108733 213.789226 
L 350.120371 216.04148 
L 353.132009 218.557038 
L 356.143646 221.256336 
L 359.155284 224.059491 
L 362.166922 226.890121 
L 365.17856 229.678619 
L 368.190197 232.36469 
L 371.201835 234.899067 
L 374.213473 237.244374 
L 377.22511 239.375182 
L 380.236748 241.277384 
L 383.248386 242.947009 
L 386.260024 244.388672 
L 389.271661 245.613803 
L 392.283299 246.638834 
L 395.294937 247.483457 
L 398.306574 248.169067 
L 401.318212 248.717445 
L 404.32985 249.149717 
L 407.341488 249.485598 
" style="fill:none;stroke:#1f77b4;stroke-linecap:square;stroke-width:1.5;"/>
   </g>
   <g id="line2d_88">
    <path clip-path="url(#p7212b0b9a2)" d="M 324.009011 250.440828 
L 324.009011 208.730483 
" style="fill:none;stroke:#ff0000;stroke-linecap:square;stroke-width:1.5;"/>
   </g>
   <g id="patch_43">
    <path d="M 252.392727 252.526345 
L 252.392727 206.644966 
" style="fill:none;stroke:#000000;stroke-linecap:square;stroke-linejoin:miter;stroke-width:0.8;"/>
   </g>
   <g id="patch_44">
    <path d="M 414.72 252.526345 
L 414.72 206.644966 
" style="fill:none;stroke:#000000;stroke-linecap:square;stroke-linejoin:miter;stroke-width:0.8;"/>
   </g>
   <g id="patch_45">
    <path d="M 252.392727 252.526345 
L 414.72 252.526345 
" style="fill:none;stroke:#000000;stroke-linecap:square;stroke-linejoin:miter;stroke-width:0.8;"/>
   </g>
   <g id="patch_46">
    <path d="M 252.392727 206.644966 
L 414.72 206.644966 
" style="fill:none;stroke:#000000;stroke-linecap:square;stroke-linejoin:miter;stroke-width:0.8;"/>
   </g>
   <g id="text_72">
    <!-- corr0 -->
    <g transform="translate(317.836364 200.644966)scale(0.12 -0.12)">
     <use xlink:href="#DejaVuSans-99"/>
     <use x="54.980469" xlink:href="#DejaVuSans-111"/>
     <use x="116.162109" xlink:href="#DejaVuSans-114"/>
     <use x="157.259766" xlink:href="#DejaVuSans-114"/>
     <use x="198.373047" xlink:href="#DejaVuSans-48"/>
    </g>
   </g>
  </g>
  <g id="axes_10">
   <g id="patch_47">
    <path d="M 252.392727 307.584 
L 414.72 307.584 
L 414.72 261.702621 
L 252.392727 261.702621 
z
" style="fill:#ffffff;"/>
   </g>
   <g id="matplotlib.axis_19">
    <g id="xtick_37">
     <g id="line2d_89">
      <g>
       <use style="stroke:#000000;stroke-width:0.8;" x="305.906068" xlink:href="#m8053c70198" y="307.584"/>
      </g>
     </g>
     <g id="text_73">
      <!-- 0.20 -->
      <g transform="translate(294.773256 322.182437)scale(0.1 -0.1)">
       <use xlink:href="#DejaVuSans-48"/>
       <use x="63.623047" xlink:href="#DejaVuSans-46"/>
       <use x="95.410156" xlink:href="#DejaVuSans-50"/>
       <use x="159.033203" xlink:href="#DejaVuSans-48"/>
      </g>
     </g>
    </g>
    <g id="xtick_38">
     <g id="line2d_90">
      <g>
       <use style="stroke:#000000;stroke-width:0.8;" x="360.109032" xlink:href="#m8053c70198" y="307.584"/>
      </g>
     </g>
     <g id="text_74">
      <!-- 0.21 -->
      <g transform="translate(348.976219 322.182437)scale(0.1 -0.1)">
       <use xlink:href="#DejaVuSans-48"/>
       <use x="63.623047" xlink:href="#DejaVuSans-46"/>
       <use x="95.410156" xlink:href="#DejaVuSans-50"/>
       <use x="159.033203" xlink:href="#DejaVuSans-49"/>
      </g>
     </g>
    </g>
    <g id="xtick_39">
     <g id="line2d_91">
      <g>
       <use style="stroke:#000000;stroke-width:0.8;" x="414.311995" xlink:href="#m8053c70198" y="307.584"/>
      </g>
     </g>
     <g id="text_75">
      <!-- 0.22 -->
      <g transform="translate(403.179183 322.182437)scale(0.1 -0.1)">
       <use xlink:href="#DejaVuSans-48"/>
       <use x="63.623047" xlink:href="#DejaVuSans-46"/>
       <use x="95.410156" xlink:href="#DejaVuSans-50"/>
       <use x="159.033203" xlink:href="#DejaVuSans-50"/>
      </g>
     </g>
    </g>
   </g>
   <g id="matplotlib.axis_20">
    <g id="ytick_19">
     <g id="line2d_92">
      <g>
       <use style="stroke:#000000;stroke-width:0.8;" x="252.392727" xlink:href="#m7c9020cb4c" y="305.498483"/>
      </g>
     </g>
     <g id="text_76">
      <!-- 0 -->
      <g transform="translate(239.030227 309.297702)scale(0.1 -0.1)">
       <use xlink:href="#DejaVuSans-48"/>
      </g>
     </g>
    </g>
    <g id="ytick_20">
     <g id="line2d_93">
      <g>
       <use style="stroke:#000000;stroke-width:0.8;" x="252.392727" xlink:href="#m7c9020cb4c" y="277.949796"/>
      </g>
     </g>
     <g id="text_77">
      <!-- 50 -->
      <g transform="translate(232.667727 281.749015)scale(0.1 -0.1)">
       <use xlink:href="#DejaVuSans-53"/>
       <use x="63.623047" xlink:href="#DejaVuSans-48"/>
      </g>
     </g>
    </g>
    <g id="text_78">
     <!-- Frequency -->
     <g transform="translate(226.58804 310.940967)rotate(-90)scale(0.1 -0.1)">
      <use xlink:href="#DejaVuSans-70"/>
      <use x="57.410156" xlink:href="#DejaVuSans-114"/>
      <use x="98.492188" xlink:href="#DejaVuSans-101"/>
      <use x="160.015625" xlink:href="#DejaVuSans-113"/>
      <use x="223.492188" xlink:href="#DejaVuSans-117"/>
      <use x="286.871094" xlink:href="#DejaVuSans-101"/>
      <use x="348.394531" xlink:href="#DejaVuSans-110"/>
      <use x="411.773438" xlink:href="#DejaVuSans-99"/>
      <use x="466.753906" xlink:href="#DejaVuSans-121"/>
     </g>
    </g>
   </g>
   <g id="line2d_94">
    <path clip-path="url(#p09a0621f42)" d="M 259.77124 303.837995 
L 262.782877 303.340411 
L 265.794515 302.724715 
L 268.806153 301.972757 
L 271.817791 301.066468 
L 274.829428 299.988781 
L 277.841066 298.724731 
L 280.852704 297.262704 
L 283.864341 295.595768 
L 286.875979 293.723016 
L 289.887617 291.650828 
L 292.899255 289.393935 
L 295.910892 286.976176 
L 298.92253 284.430844 
L 301.934168 281.800527 
L 304.945805 279.136375 
L 307.957443 276.496773 
L 310.969081 273.945435 
L 313.980719 271.548993 
L 316.992356 269.374184 
L 320.003994 267.48481 
L 323.015632 265.938648 
L 326.027269 264.784523 
L 329.038907 264.059752 
L 332.050545 263.788138 
L 335.062182 263.978674 
L 338.07382 264.625047 
L 341.085458 265.705987 
L 344.097096 267.186429 
L 347.108733 269.019398 
L 350.120371 271.148489 
L 353.132009 273.510739 
L 356.143646 276.0397 
L 359.155284 278.66851 
L 362.166922 281.332755 
L 365.17856 283.972957 
L 368.190197 286.536581 
L 371.201835 288.979464 
L 374.213473 291.26665 
L 377.22511 293.372648 
L 380.236748 295.28117 
L 383.248386 296.984437 
L 386.260024 298.482162 
L 389.271661 299.780311 
L 392.283299 300.889775 
L 395.294937 301.825022 
L 398.306574 302.602834 
L 401.318212 303.241176 
L 404.32985 303.758242 
L 407.341488 304.171692 
" style="fill:none;stroke:#1f77b4;stroke-linecap:square;stroke-width:1.5;"/>
   </g>
   <g id="line2d_95">
    <path clip-path="url(#p09a0621f42)" d="M 356.055645 305.498483 
L 356.055645 263.788138 
" style="fill:none;stroke:#ff0000;stroke-linecap:square;stroke-width:1.5;"/>
   </g>
   <g id="patch_48">
    <path d="M 252.392727 307.584 
L 252.392727 261.702621 
" style="fill:none;stroke:#000000;stroke-linecap:square;stroke-linejoin:miter;stroke-width:0.8;"/>
   </g>
   <g id="patch_49">
    <path d="M 414.72 307.584 
L 414.72 261.702621 
" style="fill:none;stroke:#000000;stroke-linecap:square;stroke-linejoin:miter;stroke-width:0.8;"/>
   </g>
   <g id="patch_50">
    <path d="M 252.392727 307.584 
L 414.72 307.584 
" style="fill:none;stroke:#000000;stroke-linecap:square;stroke-linejoin:miter;stroke-width:0.8;"/>
   </g>
   <g id="patch_51">
    <path d="M 252.392727 261.702621 
L 414.72 261.702621 
" style="fill:none;stroke:#000000;stroke-linecap:square;stroke-linejoin:miter;stroke-width:0.8;"/>
   </g>
   <g id="text_79">
    <!-- corr2 -->
    <g transform="translate(317.836364 255.702621)scale(0.12 -0.12)">
     <use xlink:href="#DejaVuSans-99"/>
     <use x="54.980469" xlink:href="#DejaVuSans-111"/>
     <use x="116.162109" xlink:href="#DejaVuSans-114"/>
     <use x="157.259766" xlink:href="#DejaVuSans-114"/>
     <use x="198.373047" xlink:href="#DejaVuSans-50"/>
    </g>
   </g>
  </g>
 </g>
 <defs>
  <clipPath id="p097280dc95">
   <rect height="45.881379" width="162.327273" x="57.6" y="41.472"/>
  </clipPath>
  <clipPath id="p2ce5d37d4f">
   <rect height="45.881379" width="162.327273" x="57.6" y="96.529655"/>
  </clipPath>
  <clipPath id="pdebc31694e">
   <rect height="45.881379" width="162.327273" x="57.6" y="151.58731"/>
  </clipPath>
  <clipPath id="pee53b40014">
   <rect height="45.881379" width="162.327273" x="57.6" y="206.644966"/>
  </clipPath>
  <clipPath id="p52b1d21d47">
   <rect height="45.881379" width="162.327273" x="57.6" y="261.702621"/>
  </clipPath>
  <clipPath id="pc55cc25d9a">
   <rect height="45.881379" width="162.327273" x="252.392727" y="41.472"/>
  </clipPath>
  <clipPath id="p64c12d20d0">
   <rect height="45.881379" width="162.327273" x="252.392727" y="96.529655"/>
  </clipPath>
  <clipPath id="p5769b193d7">
   <rect height="45.881379" width="162.327273" x="252.392727" y="151.58731"/>
  </clipPath>
  <clipPath id="p7212b0b9a2">
   <rect height="45.881379" width="162.327273" x="252.392727" y="206.644966"/>
  </clipPath>
  <clipPath id="p09a0621f42">
   <rect height="45.881379" width="162.327273" x="252.392727" y="261.702621"/>
  </clipPath>
 </defs>
</svg>
