<?xml version="1.0" encoding="utf-8" standalone="no"?>
<!DOCTYPE svg PUBLIC "-//W3C//DTD SVG 1.1//EN"
  "http://www.w3.org/Graphics/SVG/1.1/DTD/svg11.dtd">
<!-- Created with matplotlib (https://matplotlib.org/) -->
<svg height="345.6pt" version="1.1" viewBox="0 0 460.8 345.6" width="460.8pt" xmlns="http://www.w3.org/2000/svg" xmlns:xlink="http://www.w3.org/1999/xlink">
 <defs>
  <style type="text/css">
*{stroke-linecap:butt;stroke-linejoin:round;}
  </style>
 </defs>
 <g id="figure_1">
  <g id="patch_1">
   <path d="M 0 345.6 
L 460.8 345.6 
L 460.8 0 
L 0 0 
z
" style="fill:#ffffff;"/>
  </g>
  <g id="axes_1">
   <g id="patch_2">
    <path d="M 57.6 87.353379 
L 219.927273 87.353379 
L 219.927273 41.472 
L 57.6 41.472 
z
" style="fill:#ffffff;"/>
   </g>
   <g id="matplotlib.axis_1">
    <g id="xtick_1">
     <g id="line2d_1">
      <defs>
       <path d="M 0 0 
L 0 3.5 
" id="m709beabca1" style="stroke:#000000;stroke-width:0.8;"/>
      </defs>
      <g>
       <use style="stroke:#000000;stroke-width:0.8;" x="89.919392" xlink:href="#m709beabca1" y="87.353379"/>
      </g>
     </g>
     <g id="text_1">
      <!-- 0.2 -->
      <defs>
       <path d="M 31.78125 66.40625 
Q 24.171875 66.40625 20.328125 58.90625 
Q 16.5 51.421875 16.5 36.375 
Q 16.5 21.390625 20.328125 13.890625 
Q 24.171875 6.390625 31.78125 6.390625 
Q 39.453125 6.390625 43.28125 13.890625 
Q 47.125 21.390625 47.125 36.375 
Q 47.125 51.421875 43.28125 58.90625 
Q 39.453125 66.40625 31.78125 66.40625 
z
M 31.78125 74.21875 
Q 44.046875 74.21875 50.515625 64.515625 
Q 56.984375 54.828125 56.984375 36.375 
Q 56.984375 17.96875 50.515625 8.265625 
Q 44.046875 -1.421875 31.78125 -1.421875 
Q 19.53125 -1.421875 13.0625 8.265625 
Q 6.59375 17.96875 6.59375 36.375 
Q 6.59375 54.828125 13.0625 64.515625 
Q 19.53125 74.21875 31.78125 74.21875 
z
" id="DejaVuSans-48"/>
       <path d="M 10.6875 12.40625 
L 21 12.40625 
L 21 0 
L 10.6875 0 
z
" id="DejaVuSans-46"/>
       <path d="M 19.1875 8.296875 
L 53.609375 8.296875 
L 53.609375 0 
L 7.328125 0 
L 7.328125 8.296875 
Q 12.9375 14.109375 22.625 23.890625 
Q 32.328125 33.6875 34.8125 36.53125 
Q 39.546875 41.84375 41.421875 45.53125 
Q 43.3125 49.21875 43.3125 52.78125 
Q 43.3125 58.59375 39.234375 62.25 
Q 35.15625 65.921875 28.609375 65.921875 
Q 23.96875 65.921875 18.8125 64.3125 
Q 13.671875 62.703125 7.8125 59.421875 
L 7.8125 69.390625 
Q 13.765625 71.78125 18.9375 73 
Q 24.125 74.21875 28.421875 74.21875 
Q 39.75 74.21875 46.484375 68.546875 
Q 53.21875 62.890625 53.21875 53.421875 
Q 53.21875 48.921875 51.53125 44.890625 
Q 49.859375 40.875 45.40625 35.40625 
Q 44.1875 33.984375 37.640625 27.21875 
Q 31.109375 20.453125 19.1875 8.296875 
z
" id="DejaVuSans-50"/>
      </defs>
      <g transform="translate(81.967829 101.951817)scale(0.1 -0.1)">
       <use xlink:href="#DejaVuSans-48"/>
       <use x="63.623047" xlink:href="#DejaVuSans-46"/>
       <use x="95.410156" xlink:href="#DejaVuSans-50"/>
      </g>
     </g>
    </g>
    <g id="xtick_2">
     <g id="line2d_2">
      <g>
       <use style="stroke:#000000;stroke-width:0.8;" x="141.963026" xlink:href="#m709beabca1" y="87.353379"/>
      </g>
     </g>
     <g id="text_2">
      <!-- 0.3 -->
      <defs>
       <path d="M 40.578125 39.3125 
Q 47.65625 37.796875 51.625 33 
Q 55.609375 28.21875 55.609375 21.1875 
Q 55.609375 10.40625 48.1875 4.484375 
Q 40.765625 -1.421875 27.09375 -1.421875 
Q 22.515625 -1.421875 17.65625 -0.515625 
Q 12.796875 0.390625 7.625 2.203125 
L 7.625 11.71875 
Q 11.71875 9.328125 16.59375 8.109375 
Q 21.484375 6.890625 26.8125 6.890625 
Q 36.078125 6.890625 40.9375 10.546875 
Q 45.796875 14.203125 45.796875 21.1875 
Q 45.796875 27.640625 41.28125 31.265625 
Q 36.765625 34.90625 28.71875 34.90625 
L 20.21875 34.90625 
L 20.21875 43.015625 
L 29.109375 43.015625 
Q 36.375 43.015625 40.234375 45.921875 
Q 44.09375 48.828125 44.09375 54.296875 
Q 44.09375 59.90625 40.109375 62.90625 
Q 36.140625 65.921875 28.71875 65.921875 
Q 24.65625 65.921875 20.015625 65.03125 
Q 15.375 64.15625 9.8125 62.3125 
L 9.8125 71.09375 
Q 15.4375 72.65625 20.34375 73.4375 
Q 25.25 74.21875 29.59375 74.21875 
Q 40.828125 74.21875 47.359375 69.109375 
Q 53.90625 64.015625 53.90625 55.328125 
Q 53.90625 49.265625 50.4375 45.09375 
Q 46.96875 40.921875 40.578125 39.3125 
z
" id="DejaVuSans-51"/>
      </defs>
      <g transform="translate(134.011463 101.951817)scale(0.1 -0.1)">
       <use xlink:href="#DejaVuSans-48"/>
       <use x="63.623047" xlink:href="#DejaVuSans-46"/>
       <use x="95.410156" xlink:href="#DejaVuSans-51"/>
      </g>
     </g>
    </g>
    <g id="xtick_3">
     <g id="line2d_3">
      <g>
       <use style="stroke:#000000;stroke-width:0.8;" x="194.006659" xlink:href="#m709beabca1" y="87.353379"/>
      </g>
     </g>
     <g id="text_3">
      <!-- 0.4 -->
      <defs>
       <path d="M 37.796875 64.3125 
L 12.890625 25.390625 
L 37.796875 25.390625 
z
M 35.203125 72.90625 
L 47.609375 72.90625 
L 47.609375 25.390625 
L 58.015625 25.390625 
L 58.015625 17.1875 
L 47.609375 17.1875 
L 47.609375 0 
L 37.796875 0 
L 37.796875 17.1875 
L 4.890625 17.1875 
L 4.890625 26.703125 
z
" id="DejaVuSans-52"/>
      </defs>
      <g transform="translate(186.055097 101.951817)scale(0.1 -0.1)">
       <use xlink:href="#DejaVuSans-48"/>
       <use x="63.623047" xlink:href="#DejaVuSans-46"/>
       <use x="95.410156" xlink:href="#DejaVuSans-52"/>
      </g>
     </g>
    </g>
   </g>
   <g id="matplotlib.axis_2">
    <g id="ytick_1">
     <g id="line2d_4">
      <defs>
       <path d="M 0 0 
L -3.5 0 
" id="mc22c44881f" style="stroke:#000000;stroke-width:0.8;"/>
      </defs>
      <g>
       <use style="stroke:#000000;stroke-width:0.8;" x="57.6" xlink:href="#mc22c44881f" y="85.267862"/>
      </g>
     </g>
     <g id="text_4">
      <!-- 0 -->
      <g transform="translate(44.2375 89.067081)scale(0.1 -0.1)">
       <use xlink:href="#DejaVuSans-48"/>
      </g>
     </g>
    </g>
    <g id="ytick_2">
     <g id="line2d_5">
      <g>
       <use style="stroke:#000000;stroke-width:0.8;" x="57.6" xlink:href="#mc22c44881f" y="53.694021"/>
      </g>
     </g>
     <g id="text_5">
      <!-- 200 -->
      <g transform="translate(31.5125 57.49324)scale(0.1 -0.1)">
       <use xlink:href="#DejaVuSans-50"/>
       <use x="63.623047" xlink:href="#DejaVuSans-48"/>
       <use x="127.246094" xlink:href="#DejaVuSans-48"/>
      </g>
     </g>
    </g>
    <g id="text_6">
     <!-- Frequency -->
     <defs>
      <path d="M 9.8125 72.90625 
L 51.703125 72.90625 
L 51.703125 64.59375 
L 19.671875 64.59375 
L 19.671875 43.109375 
L 48.578125 43.109375 
L 48.578125 34.8125 
L 19.671875 34.8125 
L 19.671875 0 
L 9.8125 0 
z
" id="DejaVuSans-70"/>
      <path d="M 41.109375 46.296875 
Q 39.59375 47.171875 37.8125 47.578125 
Q 36.03125 48 33.890625 48 
Q 26.265625 48 22.1875 43.046875 
Q 18.109375 38.09375 18.109375 28.8125 
L 18.109375 0 
L 9.078125 0 
L 9.078125 54.6875 
L 18.109375 54.6875 
L 18.109375 46.1875 
Q 20.953125 51.171875 25.484375 53.578125 
Q 30.03125 56 36.53125 56 
Q 37.453125 56 38.578125 55.875 
Q 39.703125 55.765625 41.0625 55.515625 
z
" id="DejaVuSans-114"/>
      <path d="M 56.203125 29.59375 
L 56.203125 25.203125 
L 14.890625 25.203125 
Q 15.484375 15.921875 20.484375 11.0625 
Q 25.484375 6.203125 34.421875 6.203125 
Q 39.59375 6.203125 44.453125 7.46875 
Q 49.3125 8.734375 54.109375 11.28125 
L 54.109375 2.78125 
Q 49.265625 0.734375 44.1875 -0.34375 
Q 39.109375 -1.421875 33.890625 -1.421875 
Q 20.796875 -1.421875 13.15625 6.1875 
Q 5.515625 13.8125 5.515625 26.8125 
Q 5.515625 40.234375 12.765625 48.109375 
Q 20.015625 56 32.328125 56 
Q 43.359375 56 49.78125 48.890625 
Q 56.203125 41.796875 56.203125 29.59375 
z
M 47.21875 32.234375 
Q 47.125 39.59375 43.09375 43.984375 
Q 39.0625 48.390625 32.421875 48.390625 
Q 24.90625 48.390625 20.390625 44.140625 
Q 15.875 39.890625 15.1875 32.171875 
z
" id="DejaVuSans-101"/>
      <path d="M 14.796875 27.296875 
Q 14.796875 17.390625 18.875 11.75 
Q 22.953125 6.109375 30.078125 6.109375 
Q 37.203125 6.109375 41.296875 11.75 
Q 45.40625 17.390625 45.40625 27.296875 
Q 45.40625 37.203125 41.296875 42.84375 
Q 37.203125 48.484375 30.078125 48.484375 
Q 22.953125 48.484375 18.875 42.84375 
Q 14.796875 37.203125 14.796875 27.296875 
z
M 45.40625 8.203125 
Q 42.578125 3.328125 38.25 0.953125 
Q 33.9375 -1.421875 27.875 -1.421875 
Q 17.96875 -1.421875 11.734375 6.484375 
Q 5.515625 14.40625 5.515625 27.296875 
Q 5.515625 40.1875 11.734375 48.09375 
Q 17.96875 56 27.875 56 
Q 33.9375 56 38.25 53.625 
Q 42.578125 51.265625 45.40625 46.390625 
L 45.40625 54.6875 
L 54.390625 54.6875 
L 54.390625 -20.796875 
L 45.40625 -20.796875 
z
" id="DejaVuSans-113"/>
      <path d="M 8.5 21.578125 
L 8.5 54.6875 
L 17.484375 54.6875 
L 17.484375 21.921875 
Q 17.484375 14.15625 20.5 10.265625 
Q 23.53125 6.390625 29.59375 6.390625 
Q 36.859375 6.390625 41.078125 11.03125 
Q 45.3125 15.671875 45.3125 23.6875 
L 45.3125 54.6875 
L 54.296875 54.6875 
L 54.296875 0 
L 45.3125 0 
L 45.3125 8.40625 
Q 42.046875 3.421875 37.71875 1 
Q 33.40625 -1.421875 27.6875 -1.421875 
Q 18.265625 -1.421875 13.375 4.4375 
Q 8.5 10.296875 8.5 21.578125 
z
M 31.109375 56 
z
" id="DejaVuSans-117"/>
      <path d="M 54.890625 33.015625 
L 54.890625 0 
L 45.90625 0 
L 45.90625 32.71875 
Q 45.90625 40.484375 42.875 44.328125 
Q 39.84375 48.1875 33.796875 48.1875 
Q 26.515625 48.1875 22.3125 43.546875 
Q 18.109375 38.921875 18.109375 30.90625 
L 18.109375 0 
L 9.078125 0 
L 9.078125 54.6875 
L 18.109375 54.6875 
L 18.109375 46.1875 
Q 21.34375 51.125 25.703125 53.5625 
Q 30.078125 56 35.796875 56 
Q 45.21875 56 50.046875 50.171875 
Q 54.890625 44.34375 54.890625 33.015625 
z
" id="DejaVuSans-110"/>
      <path d="M 48.78125 52.59375 
L 48.78125 44.1875 
Q 44.96875 46.296875 41.140625 47.34375 
Q 37.3125 48.390625 33.40625 48.390625 
Q 24.65625 48.390625 19.8125 42.84375 
Q 14.984375 37.3125 14.984375 27.296875 
Q 14.984375 17.28125 19.8125 11.734375 
Q 24.65625 6.203125 33.40625 6.203125 
Q 37.3125 6.203125 41.140625 7.25 
Q 44.96875 8.296875 48.78125 10.40625 
L 48.78125 2.09375 
Q 45.015625 0.34375 40.984375 -0.53125 
Q 36.96875 -1.421875 32.421875 -1.421875 
Q 20.0625 -1.421875 12.78125 6.34375 
Q 5.515625 14.109375 5.515625 27.296875 
Q 5.515625 40.671875 12.859375 48.328125 
Q 20.21875 56 33.015625 56 
Q 37.15625 56 41.109375 55.140625 
Q 45.0625 54.296875 48.78125 52.59375 
z
" id="DejaVuSans-99"/>
      <path d="M 32.171875 -5.078125 
Q 28.375 -14.84375 24.75 -17.8125 
Q 21.140625 -20.796875 15.09375 -20.796875 
L 7.90625 -20.796875 
L 7.90625 -13.28125 
L 13.1875 -13.28125 
Q 16.890625 -13.28125 18.9375 -11.515625 
Q 21 -9.765625 23.484375 -3.21875 
L 25.09375 0.875 
L 2.984375 54.6875 
L 12.5 54.6875 
L 29.59375 11.921875 
L 46.6875 54.6875 
L 56.203125 54.6875 
z
" id="DejaVuSans-121"/>
     </defs>
     <g transform="translate(25.432812 90.710346)rotate(-90)scale(0.1 -0.1)">
      <use xlink:href="#DejaVuSans-70"/>
      <use x="57.410156" xlink:href="#DejaVuSans-114"/>
      <use x="98.492188" xlink:href="#DejaVuSans-101"/>
      <use x="160.015625" xlink:href="#DejaVuSans-113"/>
      <use x="223.492188" xlink:href="#DejaVuSans-117"/>
      <use x="286.871094" xlink:href="#DejaVuSans-101"/>
      <use x="348.394531" xlink:href="#DejaVuSans-110"/>
      <use x="411.773438" xlink:href="#DejaVuSans-99"/>
      <use x="466.753906" xlink:href="#DejaVuSans-121"/>
     </g>
    </g>
   </g>
   <g id="line2d_6">
    <path clip-path="url(#p61f326280e)" d="M 64.978512 84.548007 
L 65.075314 84.253084 
L 65.172116 83.858871 
L 65.268918 83.340971 
L 65.36572 82.672384 
L 65.462522 81.824449 
L 65.559324 80.768278 
L 65.656126 79.476681 
L 65.752928 77.926556 
L 65.84973 76.101626 
L 65.946532 73.995363 
L 66.043334 71.613833 
L 66.140135 68.978167 
L 66.236937 66.126336 
L 66.333739 63.113889 
L 66.430541 60.013397 
L 66.527343 56.912434 
L 66.624145 53.910053 
L 66.720947 51.111886 
L 66.817749 48.624176 
L 66.914551 46.547171 
L 67.011353 44.968468 
L 67.108155 43.956891 
L 67.204957 43.557517 
L 67.301758 43.788351 
L 67.39856 44.638972 
L 67.495362 46.07132 
L 67.592164 48.022514 
L 67.688966 50.409434 
L 67.785768 53.134584 
L 67.88257 56.092668 
L 67.979372 59.17727 
L 68.076174 62.287037 
L 68.172976 65.33091 
L 68.269778 68.232029 
L 68.36658 70.930162 
L 68.463382 73.382647 
L 68.560183 75.563966 
L 68.656985 77.464232 
L 68.753787 79.086863 
L 68.850589 80.445807 
L 68.947391 81.562615 
L 69.044193 82.463633 
L 69.140995 83.1775 
L 69.237797 83.733101 
L 69.334599 84.157993 
L 69.431401 84.47734 
L 69.528203 84.713277 
L 69.625005 84.884655 
L 69.721806 85.007061 
" style="fill:none;stroke:#1f77b4;stroke-linecap:square;stroke-width:1.5;"/>
   </g>
   <g id="line2d_7">
    <path clip-path="url(#p61f326280e)" d="M 198.273965 85.171484 
L 198.411479 85.121519 
L 198.548994 85.049128 
L 198.686508 84.946047 
L 198.824022 84.8018 
L 198.961537 84.603463 
L 199.099051 84.335551 
L 199.236565 83.980085 
L 199.37408 83.516937 
L 199.511594 82.924487 
L 199.649108 82.180671 
L 199.786623 81.264431 
L 199.924137 80.157536 
L 200.061651 78.846721 
L 200.199166 77.325986 
L 200.33668 75.598866 
L 200.474194 73.680437 
L 200.611709 71.598764 
L 200.749223 69.395554 
L 200.886737 67.125758 
L 201.024252 64.856003 
L 201.161766 62.661807 
L 201.29928 60.623684 
L 201.436795 58.822396 
L 201.574309 57.333713 
L 201.711823 56.223155 
L 201.849338 55.541219 
L 201.986852 55.319568 
L 202.124366 55.568602 
L 202.261881 56.276642 
L 202.399395 57.410839 
L 202.536909 58.919706 
L 202.674424 60.736984 
L 202.811938 62.786466 
L 202.949452 64.987262 
L 203.086966 67.259025 
L 203.224481 69.526662 
L 203.361995 71.724161 
L 203.499509 73.797313 
L 203.637024 75.705209 
L 203.774538 77.420569 
L 203.912052 78.929038 
L 204.049567 80.227696 
L 204.187081 81.323031 
L 204.324595 82.228663 
L 204.46211 82.96304 
L 204.599624 83.54733 
L 204.737138 84.003604 
L 204.874653 84.353421 
L 205.012167 84.616799 
" style="fill:none;stroke:#ff7f0e;stroke-linecap:square;stroke-width:1.5;"/>
   </g>
   <g id="line2d_8">
    <path clip-path="url(#p61f326280e)" d="M 205.805957 84.497165 
L 205.932419 84.216311 
L 206.058881 83.852669 
L 206.185344 83.389239 
L 206.311806 82.808049 
L 206.438268 82.090963 
L 206.56473 81.220766 
L 206.691192 80.182496 
L 206.817655 78.964973 
L 206.944117 77.56245 
L 207.070579 75.976258 
L 207.197041 74.216285 
L 207.323503 72.302145 
L 207.449966 70.263845 
L 207.576428 68.141811 
L 207.70289 65.986147 
L 207.829352 63.855096 
L 207.955814 61.812692 
L 208.082277 59.925731 
L 208.208739 58.260239 
L 208.335201 56.87767 
L 208.461663 55.831171 
L 208.588125 55.162188 
L 208.714588 54.897747 
L 208.84105 55.048644 
L 208.967512 55.608711 
L 209.093974 56.555235 
L 209.220436 57.850489 
L 209.346899 59.444222 
L 209.473361 61.276893 
L 209.599823 63.28335 
L 209.726285 65.396639 
L 209.852747 67.551643 
L 209.97921 69.688265 
L 210.105672 71.753981 
L 210.232134 73.705603 
L 210.358596 75.51024 
L 210.485058 77.145469 
L 210.611521 78.598832 
L 210.737983 79.866788 
L 210.864445 80.953305 
L 210.990907 81.868236 
L 211.117369 82.625668 
L 211.243832 83.24234 
L 211.370294 83.736253 
L 211.496756 84.125516 
L 211.623218 84.427462 
L 211.74968 84.658026 
L 211.876143 84.831368 
L 212.002605 84.959697 
" style="fill:none;stroke:#2ca02c;stroke-linecap:square;stroke-width:1.5;"/>
   </g>
   <g id="line2d_9">
    <path clip-path="url(#p61f326280e)" d="M 190.000925 85.267862 
L 190.000925 43.557517 
" style="fill:none;stroke:#ff0000;stroke-linecap:square;stroke-width:1.5;"/>
   </g>
   <g id="line2d_10">
    <path clip-path="url(#p61f326280e)" d="M 212.54876 85.267862 
L 212.54876 55.319568 
" style="fill:none;stroke:#ff0000;stroke-linecap:square;stroke-width:1.5;"/>
   </g>
   <g id="line2d_11">
    <path clip-path="url(#p61f326280e)" d="M 75.383025 85.267862 
L 75.383025 54.897747 
" style="fill:none;stroke:#ff0000;stroke-linecap:square;stroke-width:1.5;"/>
   </g>
   <g id="patch_3">
    <path d="M 57.6 87.353379 
L 57.6 41.472 
" style="fill:none;stroke:#000000;stroke-linecap:square;stroke-linejoin:miter;stroke-width:0.8;"/>
   </g>
   <g id="patch_4">
    <path d="M 219.927273 87.353379 
L 219.927273 41.472 
" style="fill:none;stroke:#000000;stroke-linecap:square;stroke-linejoin:miter;stroke-width:0.8;"/>
   </g>
   <g id="patch_5">
    <path d="M 57.6 87.353379 
L 219.927273 87.353379 
" style="fill:none;stroke:#000000;stroke-linecap:square;stroke-linejoin:miter;stroke-width:0.8;"/>
   </g>
   <g id="patch_6">
    <path d="M 57.6 41.472 
L 219.927273 41.472 
" style="fill:none;stroke:#000000;stroke-linecap:square;stroke-linejoin:miter;stroke-width:0.8;"/>
   </g>
   <g id="text_7">
    <!-- w -->
    <defs>
     <path d="M 4.203125 54.6875 
L 13.1875 54.6875 
L 24.421875 12.015625 
L 35.59375 54.6875 
L 46.1875 54.6875 
L 57.421875 12.015625 
L 68.609375 54.6875 
L 77.59375 54.6875 
L 63.28125 0 
L 52.6875 0 
L 40.921875 44.828125 
L 29.109375 0 
L 18.5 0 
z
" id="DejaVuSans-119"/>
    </defs>
    <g transform="translate(133.856761 35.472)scale(0.12 -0.12)">
     <use xlink:href="#DejaVuSans-119"/>
    </g>
   </g>
  </g>
  <g id="axes_2">
   <g id="patch_7">
    <path d="M 57.6 142.411034 
L 219.927273 142.411034 
L 219.927273 96.529655 
L 57.6 96.529655 
z
" style="fill:#ffffff;"/>
   </g>
   <g id="matplotlib.axis_3">
    <g id="xtick_4">
     <g id="line2d_12">
      <g>
       <use style="stroke:#000000;stroke-width:0.8;" x="78.011712" xlink:href="#m709beabca1" y="142.411034"/>
      </g>
     </g>
     <g id="text_8">
      <!-- 10 -->
      <defs>
       <path d="M 12.40625 8.296875 
L 28.515625 8.296875 
L 28.515625 63.921875 
L 10.984375 60.40625 
L 10.984375 69.390625 
L 28.421875 72.90625 
L 38.28125 72.90625 
L 38.28125 8.296875 
L 54.390625 8.296875 
L 54.390625 0 
L 12.40625 0 
z
" id="DejaVuSans-49"/>
      </defs>
      <g transform="translate(71.649212 157.009472)scale(0.1 -0.1)">
       <use xlink:href="#DejaVuSans-49"/>
       <use x="63.623047" xlink:href="#DejaVuSans-48"/>
      </g>
     </g>
    </g>
    <g id="xtick_5">
     <g id="line2d_13">
      <g>
       <use style="stroke:#000000;stroke-width:0.8;" x="139.653701" xlink:href="#m709beabca1" y="142.411034"/>
      </g>
     </g>
     <g id="text_9">
      <!-- 20 -->
      <g transform="translate(133.291201 157.009472)scale(0.1 -0.1)">
       <use xlink:href="#DejaVuSans-50"/>
       <use x="63.623047" xlink:href="#DejaVuSans-48"/>
      </g>
     </g>
    </g>
    <g id="xtick_6">
     <g id="line2d_14">
      <g>
       <use style="stroke:#000000;stroke-width:0.8;" x="201.295689" xlink:href="#m709beabca1" y="142.411034"/>
      </g>
     </g>
     <g id="text_10">
      <!-- 30 -->
      <g transform="translate(194.933189 157.009472)scale(0.1 -0.1)">
       <use xlink:href="#DejaVuSans-51"/>
       <use x="63.623047" xlink:href="#DejaVuSans-48"/>
      </g>
     </g>
    </g>
   </g>
   <g id="matplotlib.axis_4">
    <g id="ytick_3">
     <g id="line2d_15">
      <g>
       <use style="stroke:#000000;stroke-width:0.8;" x="57.6" xlink:href="#mc22c44881f" y="140.325517"/>
      </g>
     </g>
     <g id="text_11">
      <!-- 0 -->
      <g transform="translate(44.2375 144.124736)scale(0.1 -0.1)">
       <use xlink:href="#DejaVuSans-48"/>
      </g>
     </g>
    </g>
    <g id="ytick_4">
     <g id="line2d_16">
      <g>
       <use style="stroke:#000000;stroke-width:0.8;" x="57.6" xlink:href="#mc22c44881f" y="117.18444"/>
      </g>
     </g>
     <g id="text_12">
      <!-- 2 -->
      <g transform="translate(44.2375 120.983659)scale(0.1 -0.1)">
       <use xlink:href="#DejaVuSans-50"/>
      </g>
     </g>
    </g>
    <g id="text_13">
     <!-- Frequency -->
     <g transform="translate(38.157812 145.768001)rotate(-90)scale(0.1 -0.1)">
      <use xlink:href="#DejaVuSans-70"/>
      <use x="57.410156" xlink:href="#DejaVuSans-114"/>
      <use x="98.492188" xlink:href="#DejaVuSans-101"/>
      <use x="160.015625" xlink:href="#DejaVuSans-113"/>
      <use x="223.492188" xlink:href="#DejaVuSans-117"/>
      <use x="286.871094" xlink:href="#DejaVuSans-101"/>
      <use x="348.394531" xlink:href="#DejaVuSans-110"/>
      <use x="411.773438" xlink:href="#DejaVuSans-99"/>
      <use x="466.753906" xlink:href="#DejaVuSans-121"/>
     </g>
    </g>
   </g>
   <g id="line2d_17">
    <path clip-path="url(#pa7923111bd)" d="M 207.249808 140.193887 
L 207.342786 140.126978 
L 207.435763 140.030654 
L 207.528741 139.89432 
L 207.621719 139.704628 
L 207.714697 139.445212 
L 207.807674 139.096567 
L 207.900652 138.636175 
L 207.99363 138.038957 
L 208.086607 137.278116 
L 208.179585 136.326451 
L 208.272563 135.158148 
L 208.365541 133.751024 
L 208.458518 132.089125 
L 208.551496 130.165518 
L 208.644474 127.985031 
L 208.737451 125.566658 
L 208.830429 122.945298 
L 208.923407 120.172521 
L 209.016385 117.316084 
L 209.109362 114.458035 
L 209.20234 111.691366 
L 209.295318 109.115327 
L 209.388295 106.829712 
L 209.481273 104.928524 
L 209.574251 103.493607 
L 209.667229 102.588806 
L 209.760206 102.255263 
L 209.853184 102.508311 
L 209.946162 103.33631 
L 210.039139 104.701529 
L 210.132117 106.543002 
L 210.225095 108.781039 
L 210.318073 111.322936 
L 210.41105 114.069317 
L 210.504028 116.920496 
L 210.597006 119.782316 
L 210.689983 122.570989 
L 210.782961 125.216644 
L 210.875939 127.665423 
L 210.968917 129.88015 
L 211.061894 131.839724 
L 211.154872 133.537497 
L 211.24785 134.978942 
L 211.340827 136.178936 
L 211.433805 137.158965 
L 211.526783 137.944487 
L 211.61976 138.562627 
L 211.712738 139.040327 
L 211.805716 139.402964 
" style="fill:none;stroke:#1f77b4;stroke-linecap:square;stroke-width:1.5;"/>
   </g>
   <g id="line2d_18">
    <path clip-path="url(#pa7923111bd)" d="M 67.550418 138.947647 
L 67.62878 138.477675 
L 67.707141 137.879902 
L 67.785502 137.131196 
L 67.863863 136.207996 
L 67.942225 135.087583 
L 68.020586 133.749678 
L 68.098947 132.1783 
L 68.177308 130.363796 
L 68.25567 128.304911 
L 68.334031 126.010716 
L 68.412392 123.502216 
L 68.490753 120.813415 
L 68.569115 117.991654 
L 68.647476 115.097066 
L 68.725837 112.201052 
L 68.804198 109.383765 
L 68.88256 106.730685 
L 68.960921 104.32846 
L 69.039282 102.260287 
L 69.117643 100.601161 
L 69.196005 99.413374 
L 69.274366 98.74264 
L 69.352727 98.615172 
L 69.431088 99.035984 
L 69.50945 99.988562 
L 69.587811 101.435942 
L 69.666172 103.323088 
L 69.744533 105.580365 
L 69.822895 108.127796 
L 69.901256 110.879741 
L 69.979617 113.749627 
L 70.057978 116.654354 
L 70.13634 119.518094 
L 70.214701 122.275237 
L 70.293062 124.872384 
L 70.371423 127.269338 
L 70.449785 129.43916 
L 70.528146 131.367415 
L 70.606507 133.050795 
L 70.684868 134.495313 
L 70.76323 135.714274 
L 70.841591 136.726207 
L 70.919952 137.552916 
L 70.998313 138.217751 
L 71.076675 138.74418 
L 71.155036 139.154688 
L 71.233397 139.469998 
L 71.311758 139.708592 
L 71.39012 139.886479 
" style="fill:none;stroke:#ff7f0e;stroke-linecap:square;stroke-width:1.5;"/>
   </g>
   <g id="line2d_19">
    <path clip-path="url(#pa7923111bd)" d="M 212.54876 140.325517 
L 212.54876 102.255263 
" style="fill:none;stroke:#ff0000;stroke-linecap:square;stroke-width:1.5;"/>
   </g>
   <g id="line2d_20">
    <path clip-path="url(#pa7923111bd)" d="M 64.978512 140.325517 
L 64.978512 98.615172 
" style="fill:none;stroke:#ff0000;stroke-linecap:square;stroke-width:1.5;"/>
   </g>
   <g id="patch_8">
    <path d="M 57.6 142.411034 
L 57.6 96.529655 
" style="fill:none;stroke:#000000;stroke-linecap:square;stroke-linejoin:miter;stroke-width:0.8;"/>
   </g>
   <g id="patch_9">
    <path d="M 219.927273 142.411034 
L 219.927273 96.529655 
" style="fill:none;stroke:#000000;stroke-linecap:square;stroke-linejoin:miter;stroke-width:0.8;"/>
   </g>
   <g id="patch_10">
    <path d="M 57.6 142.411034 
L 219.927273 142.411034 
" style="fill:none;stroke:#000000;stroke-linecap:square;stroke-linejoin:miter;stroke-width:0.8;"/>
   </g>
   <g id="patch_11">
    <path d="M 57.6 96.529655 
L 219.927273 96.529655 
" style="fill:none;stroke:#000000;stroke-linecap:square;stroke-linejoin:miter;stroke-width:0.8;"/>
   </g>
   <g id="text_14">
    <!-- mu1 -->
    <defs>
     <path d="M 52 44.1875 
Q 55.375 50.25 60.0625 53.125 
Q 64.75 56 71.09375 56 
Q 79.640625 56 84.28125 50.015625 
Q 88.921875 44.046875 88.921875 33.015625 
L 88.921875 0 
L 79.890625 0 
L 79.890625 32.71875 
Q 79.890625 40.578125 77.09375 44.375 
Q 74.3125 48.1875 68.609375 48.1875 
Q 61.625 48.1875 57.5625 43.546875 
Q 53.515625 38.921875 53.515625 30.90625 
L 53.515625 0 
L 44.484375 0 
L 44.484375 32.71875 
Q 44.484375 40.625 41.703125 44.40625 
Q 38.921875 48.1875 33.109375 48.1875 
Q 26.21875 48.1875 22.15625 43.53125 
Q 18.109375 38.875 18.109375 30.90625 
L 18.109375 0 
L 9.078125 0 
L 9.078125 54.6875 
L 18.109375 54.6875 
L 18.109375 46.1875 
Q 21.1875 51.21875 25.484375 53.609375 
Q 29.78125 56 35.6875 56 
Q 41.65625 56 45.828125 52.96875 
Q 50 49.953125 52 44.1875 
z
" id="DejaVuSans-109"/>
    </defs>
    <g transform="translate(125.299261 90.529655)scale(0.12 -0.12)">
     <use xlink:href="#DejaVuSans-109"/>
     <use x="97.412109" xlink:href="#DejaVuSans-117"/>
     <use x="160.791016" xlink:href="#DejaVuSans-49"/>
    </g>
   </g>
  </g>
  <g id="axes_3">
   <g id="patch_12">
    <path d="M 57.6 197.46869 
L 219.927273 197.46869 
L 219.927273 151.58731 
L 57.6 151.58731 
z
" style="fill:#ffffff;"/>
   </g>
   <g id="matplotlib.axis_5">
    <g id="xtick_7">
     <g id="line2d_21">
      <g>
       <use style="stroke:#000000;stroke-width:0.8;" x="65.309238" xlink:href="#m709beabca1" y="197.46869"/>
      </g>
     </g>
     <g id="text_15">
      <!-- 0 -->
      <g transform="translate(62.127988 212.067127)scale(0.1 -0.1)">
       <use xlink:href="#DejaVuSans-48"/>
      </g>
     </g>
    </g>
    <g id="xtick_8">
     <g id="line2d_22">
      <g>
       <use style="stroke:#000000;stroke-width:0.8;" x="110.82108" xlink:href="#m709beabca1" y="197.46869"/>
      </g>
     </g>
     <g id="text_16">
      <!-- 5 -->
      <defs>
       <path d="M 10.796875 72.90625 
L 49.515625 72.90625 
L 49.515625 64.59375 
L 19.828125 64.59375 
L 19.828125 46.734375 
Q 21.96875 47.46875 24.109375 47.828125 
Q 26.265625 48.1875 28.421875 48.1875 
Q 40.625 48.1875 47.75 41.5 
Q 54.890625 34.8125 54.890625 23.390625 
Q 54.890625 11.625 47.5625 5.09375 
Q 40.234375 -1.421875 26.90625 -1.421875 
Q 22.3125 -1.421875 17.546875 -0.640625 
Q 12.796875 0.140625 7.71875 1.703125 
L 7.71875 11.625 
Q 12.109375 9.234375 16.796875 8.0625 
Q 21.484375 6.890625 26.703125 6.890625 
Q 35.15625 6.890625 40.078125 11.328125 
Q 45.015625 15.765625 45.015625 23.390625 
Q 45.015625 31 40.078125 35.4375 
Q 35.15625 39.890625 26.703125 39.890625 
Q 22.75 39.890625 18.8125 39.015625 
Q 14.890625 38.140625 10.796875 36.28125 
z
" id="DejaVuSans-53"/>
      </defs>
      <g transform="translate(107.63983 212.067127)scale(0.1 -0.1)">
       <use xlink:href="#DejaVuSans-53"/>
      </g>
     </g>
    </g>
    <g id="xtick_9">
     <g id="line2d_23">
      <g>
       <use style="stroke:#000000;stroke-width:0.8;" x="156.332921" xlink:href="#m709beabca1" y="197.46869"/>
      </g>
     </g>
     <g id="text_17">
      <!-- 10 -->
      <g transform="translate(149.970421 212.067127)scale(0.1 -0.1)">
       <use xlink:href="#DejaVuSans-49"/>
       <use x="63.623047" xlink:href="#DejaVuSans-48"/>
      </g>
     </g>
    </g>
    <g id="xtick_10">
     <g id="line2d_24">
      <g>
       <use style="stroke:#000000;stroke-width:0.8;" x="201.844763" xlink:href="#m709beabca1" y="197.46869"/>
      </g>
     </g>
     <g id="text_18">
      <!-- 15 -->
      <g transform="translate(195.482263 212.067127)scale(0.1 -0.1)">
       <use xlink:href="#DejaVuSans-49"/>
       <use x="63.623047" xlink:href="#DejaVuSans-53"/>
      </g>
     </g>
    </g>
   </g>
   <g id="matplotlib.axis_6">
    <g id="ytick_5">
     <g id="line2d_25">
      <g>
       <use style="stroke:#000000;stroke-width:0.8;" x="57.6" xlink:href="#mc22c44881f" y="195.383172"/>
      </g>
     </g>
     <g id="text_19">
      <!-- 0 -->
      <g transform="translate(44.2375 199.182391)scale(0.1 -0.1)">
       <use xlink:href="#DejaVuSans-48"/>
      </g>
     </g>
    </g>
    <g id="ytick_6">
     <g id="line2d_26">
      <g>
       <use style="stroke:#000000;stroke-width:0.8;" x="57.6" xlink:href="#mc22c44881f" y="156.804029"/>
      </g>
     </g>
     <g id="text_20">
      <!-- 100 -->
      <g transform="translate(31.5125 160.603248)scale(0.1 -0.1)">
       <use xlink:href="#DejaVuSans-49"/>
       <use x="63.623047" xlink:href="#DejaVuSans-48"/>
       <use x="127.246094" xlink:href="#DejaVuSans-48"/>
      </g>
     </g>
    </g>
    <g id="text_21">
     <!-- Frequency -->
     <g transform="translate(25.432812 200.825656)rotate(-90)scale(0.1 -0.1)">
      <use xlink:href="#DejaVuSans-70"/>
      <use x="57.410156" xlink:href="#DejaVuSans-114"/>
      <use x="98.492188" xlink:href="#DejaVuSans-101"/>
      <use x="160.015625" xlink:href="#DejaVuSans-113"/>
      <use x="223.492188" xlink:href="#DejaVuSans-117"/>
      <use x="286.871094" xlink:href="#DejaVuSans-101"/>
      <use x="348.394531" xlink:href="#DejaVuSans-110"/>
      <use x="411.773438" xlink:href="#DejaVuSans-99"/>
      <use x="466.753906" xlink:href="#DejaVuSans-121"/>
     </g>
    </g>
   </g>
   <g id="line2d_27">
    <path clip-path="url(#paf0e4d0423)" d="M 210.848707 195.279623 
L 210.883402 195.238135 
L 210.918097 195.183112 
L 210.952792 195.111409 
L 210.987487 195.019618 
L 211.022182 194.904215 
L 211.056877 194.761771 
L 211.091572 194.589216 
L 211.126267 194.384162 
L 211.160962 194.145256 
L 211.195657 193.87253 
L 211.230352 193.567739 
L 211.265047 193.234611 
L 211.299742 192.879003 
L 211.334437 192.508898 
L 211.369132 192.134235 
L 211.403827 191.766551 
L 211.438522 191.418445 
L 211.473217 191.102893 
L 211.507912 190.832458 
L 211.542607 190.618472 
L 211.577302 190.470246 
L 211.611996 190.394403 
L 211.646691 190.394383 
L 211.681386 190.470186 
L 211.716081 190.618375 
L 211.750776 190.832328 
L 211.785471 191.102736 
L 211.820166 191.418267 
L 211.854861 191.766359 
L 211.889556 192.134036 
L 211.924251 192.508699 
L 211.958946 192.878809 
L 211.993641 193.234427 
L 212.028336 193.567568 
L 212.063031 193.872376 
L 212.097726 194.145119 
L 212.132421 194.384044 
L 212.167116 194.589115 
L 212.201811 194.761687 
L 212.236506 194.904147 
L 212.271201 195.019563 
L 212.305896 195.111366 
L 212.340591 195.183079 
L 212.375286 195.23811 
L 212.40998 195.279604 
L 212.444675 195.310353 
L 212.47937 195.332751 
L 212.514065 195.348791 
L 212.54876 195.360084 
" style="fill:none;stroke:#1f77b4;stroke-linecap:square;stroke-width:1.5;"/>
   </g>
   <g id="line2d_28">
    <path clip-path="url(#paf0e4d0423)" d="M 64.978512 194.382636 
L 64.98268 193.989836 
L 64.986848 193.472463 
L 64.991016 192.803 
L 64.995184 191.952189 
L 64.999352 190.890508 
L 65.00352 189.590153 
L 65.007688 188.027513 
L 65.011856 186.18601 
L 65.016024 184.059125 
L 65.020192 181.653343 
L 65.02436 178.990711 
L 65.028528 176.110638 
L 65.032696 173.070628 
L 65.036864 169.94564 
L 65.041031 166.825918 
L 65.045199 163.813249 
L 65.049367 161.015808 
L 65.053535 158.541908 
L 65.057703 156.493129 
L 65.061871 154.957436 
L 65.066039 154.002928 
L 65.070207 153.672828 
L 65.074375 153.982241 
L 65.078543 154.917007 
L 65.082711 156.434775 
L 65.086879 158.468183 
L 65.091047 160.929819 
L 65.095215 163.718437 
L 65.099383 166.725835 
L 65.103551 169.843729 
L 65.107719 172.970037 
L 65.111886 176.014074 
L 65.116054 178.900342 
L 65.120222 181.570752 
L 65.12439 183.98531 
L 65.128558 186.121431 
L 65.132726 187.972161 
L 65.136894 189.543642 
L 65.141062 190.852174 
L 65.14523 191.921184 
L 65.149398 192.778382 
L 65.153566 193.453268 
L 65.157734 193.975135 
L 65.161902 194.371574 
L 65.16607 194.667494 
L 65.170238 194.884583 
L 65.174406 195.041127 
L 65.178573 195.152104 
L 65.182741 195.229459 
" style="fill:none;stroke:#ff7f0e;stroke-linecap:square;stroke-width:1.5;"/>
   </g>
   <g id="line2d_29">
    <path clip-path="url(#paf0e4d0423)" d="M 208.549585 195.383172 
L 208.549585 190.394383 
" style="fill:none;stroke:#ff0000;stroke-linecap:square;stroke-width:1.5;"/>
   </g>
   <g id="line2d_30">
    <path clip-path="url(#paf0e4d0423)" d="M 65.071021 195.383172 
L 65.071021 153.672828 
" style="fill:none;stroke:#ff0000;stroke-linecap:square;stroke-width:1.5;"/>
   </g>
   <g id="patch_13">
    <path d="M 57.6 197.46869 
L 57.6 151.58731 
" style="fill:none;stroke:#000000;stroke-linecap:square;stroke-linejoin:miter;stroke-width:0.8;"/>
   </g>
   <g id="patch_14">
    <path d="M 219.927273 197.46869 
L 219.927273 151.58731 
" style="fill:none;stroke:#000000;stroke-linecap:square;stroke-linejoin:miter;stroke-width:0.8;"/>
   </g>
   <g id="patch_15">
    <path d="M 57.6 197.46869 
L 219.927273 197.46869 
" style="fill:none;stroke:#000000;stroke-linecap:square;stroke-linejoin:miter;stroke-width:0.8;"/>
   </g>
   <g id="patch_16">
    <path d="M 57.6 151.58731 
L 219.927273 151.58731 
" style="fill:none;stroke:#000000;stroke-linecap:square;stroke-linejoin:miter;stroke-width:0.8;"/>
   </g>
   <g id="text_22">
    <!-- mu0 -->
    <g transform="translate(125.299261 145.58731)scale(0.12 -0.12)">
     <use xlink:href="#DejaVuSans-109"/>
     <use x="97.412109" xlink:href="#DejaVuSans-117"/>
     <use x="160.791016" xlink:href="#DejaVuSans-48"/>
    </g>
   </g>
  </g>
  <g id="axes_4">
   <g id="patch_17">
    <path d="M 57.6 252.526345 
L 219.927273 252.526345 
L 219.927273 206.644966 
L 57.6 206.644966 
z
" style="fill:#ffffff;"/>
   </g>
   <g id="matplotlib.axis_7">
    <g id="xtick_11">
     <g id="line2d_31">
      <g>
       <use style="stroke:#000000;stroke-width:0.8;" x="64.157394" xlink:href="#m709beabca1" y="252.526345"/>
      </g>
     </g>
     <g id="text_23">
      <!-- 0 -->
      <g transform="translate(60.976144 267.124782)scale(0.1 -0.1)">
       <use xlink:href="#DejaVuSans-48"/>
      </g>
     </g>
    </g>
    <g id="xtick_12">
     <g id="line2d_32">
      <g>
       <use style="stroke:#000000;stroke-width:0.8;" x="110.108303" xlink:href="#m709beabca1" y="252.526345"/>
      </g>
     </g>
     <g id="text_24">
      <!-- 10 -->
      <g transform="translate(103.745803 267.124782)scale(0.1 -0.1)">
       <use xlink:href="#DejaVuSans-49"/>
       <use x="63.623047" xlink:href="#DejaVuSans-48"/>
      </g>
     </g>
    </g>
    <g id="xtick_13">
     <g id="line2d_33">
      <g>
       <use style="stroke:#000000;stroke-width:0.8;" x="156.059212" xlink:href="#m709beabca1" y="252.526345"/>
      </g>
     </g>
     <g id="text_25">
      <!-- 20 -->
      <g transform="translate(149.696712 267.124782)scale(0.1 -0.1)">
       <use xlink:href="#DejaVuSans-50"/>
       <use x="63.623047" xlink:href="#DejaVuSans-48"/>
      </g>
     </g>
    </g>
    <g id="xtick_14">
     <g id="line2d_34">
      <g>
       <use style="stroke:#000000;stroke-width:0.8;" x="202.010121" xlink:href="#m709beabca1" y="252.526345"/>
      </g>
     </g>
     <g id="text_26">
      <!-- 30 -->
      <g transform="translate(195.647621 267.124782)scale(0.1 -0.1)">
       <use xlink:href="#DejaVuSans-51"/>
       <use x="63.623047" xlink:href="#DejaVuSans-48"/>
      </g>
     </g>
    </g>
   </g>
   <g id="matplotlib.axis_8">
    <g id="ytick_7">
     <g id="line2d_35">
      <g>
       <use style="stroke:#000000;stroke-width:0.8;" x="57.6" xlink:href="#mc22c44881f" y="250.440828"/>
      </g>
     </g>
     <g id="text_27">
      <!-- 0 -->
      <g transform="translate(44.2375 254.240046)scale(0.1 -0.1)">
       <use xlink:href="#DejaVuSans-48"/>
      </g>
     </g>
    </g>
    <g id="ytick_8">
     <g id="line2d_36">
      <g>
       <use style="stroke:#000000;stroke-width:0.8;" x="57.6" xlink:href="#mc22c44881f" y="222.808452"/>
      </g>
     </g>
     <g id="text_28">
      <!-- 20 -->
      <g transform="translate(37.875 226.607671)scale(0.1 -0.1)">
       <use xlink:href="#DejaVuSans-50"/>
       <use x="63.623047" xlink:href="#DejaVuSans-48"/>
      </g>
     </g>
    </g>
    <g id="text_29">
     <!-- Frequency -->
     <g transform="translate(31.795312 255.883311)rotate(-90)scale(0.1 -0.1)">
      <use xlink:href="#DejaVuSans-70"/>
      <use x="57.410156" xlink:href="#DejaVuSans-114"/>
      <use x="98.492188" xlink:href="#DejaVuSans-101"/>
      <use x="160.015625" xlink:href="#DejaVuSans-113"/>
      <use x="223.492188" xlink:href="#DejaVuSans-117"/>
      <use x="286.871094" xlink:href="#DejaVuSans-101"/>
      <use x="348.394531" xlink:href="#DejaVuSans-110"/>
      <use x="411.773438" xlink:href="#DejaVuSans-99"/>
      <use x="466.753906" xlink:href="#DejaVuSans-121"/>
     </g>
    </g>
   </g>
   <g id="line2d_37">
    <path clip-path="url(#p7be378d7d3)" d="M 210.54933 250.199483 
L 210.590134 250.122476 
L 210.630939 250.025903 
L 210.671744 249.906479 
L 210.712548 249.760884 
L 210.753353 249.58593 
L 210.794158 249.378769 
L 210.834963 249.137133 
L 210.875767 248.859593 
L 210.916572 248.545826 
L 210.957377 248.196863 
L 210.998181 247.815306 
L 211.038986 247.405483 
L 211.079791 246.973512 
L 211.120596 246.527269 
L 211.1614 246.076239 
L 211.202205 245.63124 
L 211.24301 245.204036 
L 211.283814 244.806841 
L 211.324619 244.451759 
L 211.365424 244.150173 
L 211.406229 243.912148 
L 211.447033 243.745869 
L 211.487838 243.657177 
L 211.528643 243.649229 
L 211.569447 243.722308 
L 211.610252 243.87381 
L 211.651057 244.098396 
L 211.691861 244.388306 
L 211.732666 244.7338 
L 211.773471 245.123706 
L 211.814276 245.546013 
L 211.85508 245.988482 
L 211.895885 246.43922 
L 211.93669 246.887189 
L 211.977494 247.322621 
L 212.018299 247.737308 
L 212.059104 248.124781 
L 212.099909 248.480368 
L 212.140713 248.801138 
L 212.181518 249.085768 
L 212.222323 249.334336 
L 212.263127 249.548075 
L 212.303932 249.729112 
L 212.344737 249.880199 
L 212.385542 250.004475 
L 212.426346 250.105251 
L 212.467151 250.185828 
L 212.507956 250.249366 
L 212.54876 250.298786 
" style="fill:none;stroke:#1f77b4;stroke-linecap:square;stroke-width:1.5;"/>
   </g>
   <g id="line2d_38">
    <path clip-path="url(#p7be378d7d3)" d="M 64.978512 250.119128 
L 64.986964 249.948739 
L 64.995416 249.702581 
L 65.003868 249.354586 
L 65.01232 248.873292 
L 65.020772 248.222252 
L 65.029223 247.361207 
L 65.037675 246.248201 
L 65.046127 244.842721 
L 65.054579 243.109846 
L 65.063031 241.025202 
L 65.071483 238.580348 
L 65.079935 235.788004 
L 65.088386 232.686409 
L 65.096838 229.342036 
L 65.10529 225.849908 
L 65.113742 222.331014 
L 65.122194 218.926561 
L 65.130646 215.789294 
L 65.139098 213.072492 
L 65.147549 210.917722 
L 65.156001 209.442664 
L 65.164453 208.730483 
L 65.172905 208.822063 
L 65.181357 209.712122 
L 65.189809 211.349712 
L 65.19826 213.643053 
L 65.206712 216.46805 
L 65.215164 219.679392 
L 65.223616 223.122874 
L 65.232068 226.647468 
L 65.24052 230.115882 
L 65.248972 233.412616 
L 65.257423 236.448991 
L 65.265875 239.165052 
L 65.274327 241.528643 
L 65.282779 243.532261 
L 65.291231 245.188428 
L 65.299683 246.524369 
L 65.308134 247.57668 
L 65.316586 248.38653 
L 65.325038 248.99573 
L 65.33349 249.443823 
L 65.341942 249.766202 
L 65.350394 249.993119 
L 65.358846 250.149425 
L 65.367297 250.254809 
L 65.375749 250.324365 
L 65.384201 250.369315 
L 65.392653 250.397761 
" style="fill:none;stroke:#ff7f0e;stroke-linecap:square;stroke-width:1.5;"/>
   </g>
   <g id="line2d_39">
    <path clip-path="url(#p7be378d7d3)" d="M 208.324513 250.440828 
L 208.324513 243.649229 
" style="fill:none;stroke:#ff0000;stroke-linecap:square;stroke-width:1.5;"/>
   </g>
   <g id="line2d_40">
    <path clip-path="url(#p7be378d7d3)" d="M 64.997153 250.440828 
L 64.997153 208.730483 
" style="fill:none;stroke:#ff0000;stroke-linecap:square;stroke-width:1.5;"/>
   </g>
   <g id="patch_18">
    <path d="M 57.6 252.526345 
L 57.6 206.644966 
" style="fill:none;stroke:#000000;stroke-linecap:square;stroke-linejoin:miter;stroke-width:0.8;"/>
   </g>
   <g id="patch_19">
    <path d="M 219.927273 252.526345 
L 219.927273 206.644966 
" style="fill:none;stroke:#000000;stroke-linecap:square;stroke-linejoin:miter;stroke-width:0.8;"/>
   </g>
   <g id="patch_20">
    <path d="M 57.6 252.526345 
L 219.927273 252.526345 
" style="fill:none;stroke:#000000;stroke-linecap:square;stroke-linejoin:miter;stroke-width:0.8;"/>
   </g>
   <g id="patch_21">
    <path d="M 57.6 206.644966 
L 219.927273 206.644966 
" style="fill:none;stroke:#000000;stroke-linecap:square;stroke-linejoin:miter;stroke-width:0.8;"/>
   </g>
   <g id="text_30">
    <!-- mu2 -->
    <g transform="translate(125.299261 200.644966)scale(0.12 -0.12)">
     <use xlink:href="#DejaVuSans-109"/>
     <use x="97.412109" xlink:href="#DejaVuSans-117"/>
     <use x="160.791016" xlink:href="#DejaVuSans-50"/>
    </g>
   </g>
  </g>
  <g id="axes_5">
   <g id="patch_22">
    <path d="M 57.6 307.584 
L 219.927273 307.584 
L 219.927273 261.702621 
L 57.6 261.702621 
z
" style="fill:#ffffff;"/>
   </g>
   <g id="matplotlib.axis_9">
    <g id="xtick_15">
     <g id="line2d_41">
      <g>
       <use style="stroke:#000000;stroke-width:0.8;" x="64.088897" xlink:href="#m709beabca1" y="307.584"/>
      </g>
     </g>
     <g id="text_31">
      <!-- 14.8 -->
      <defs>
       <path d="M 31.78125 34.625 
Q 24.75 34.625 20.71875 30.859375 
Q 16.703125 27.09375 16.703125 20.515625 
Q 16.703125 13.921875 20.71875 10.15625 
Q 24.75 6.390625 31.78125 6.390625 
Q 38.8125 6.390625 42.859375 10.171875 
Q 46.921875 13.96875 46.921875 20.515625 
Q 46.921875 27.09375 42.890625 30.859375 
Q 38.875 34.625 31.78125 34.625 
z
M 21.921875 38.8125 
Q 15.578125 40.375 12.03125 44.71875 
Q 8.5 49.078125 8.5 55.328125 
Q 8.5 64.0625 14.71875 69.140625 
Q 20.953125 74.21875 31.78125 74.21875 
Q 42.671875 74.21875 48.875 69.140625 
Q 55.078125 64.0625 55.078125 55.328125 
Q 55.078125 49.078125 51.53125 44.71875 
Q 48 40.375 41.703125 38.8125 
Q 48.828125 37.15625 52.796875 32.3125 
Q 56.78125 27.484375 56.78125 20.515625 
Q 56.78125 9.90625 50.3125 4.234375 
Q 43.84375 -1.421875 31.78125 -1.421875 
Q 19.734375 -1.421875 13.25 4.234375 
Q 6.78125 9.90625 6.78125 20.515625 
Q 6.78125 27.484375 10.78125 32.3125 
Q 14.796875 37.15625 21.921875 38.8125 
z
M 18.3125 54.390625 
Q 18.3125 48.734375 21.84375 45.5625 
Q 25.390625 42.390625 31.78125 42.390625 
Q 38.140625 42.390625 41.71875 45.5625 
Q 45.3125 48.734375 45.3125 54.390625 
Q 45.3125 60.0625 41.71875 63.234375 
Q 38.140625 66.40625 31.78125 66.40625 
Q 25.390625 66.40625 21.84375 63.234375 
Q 18.3125 60.0625 18.3125 54.390625 
z
" id="DejaVuSans-56"/>
      </defs>
      <g transform="translate(52.956085 322.182437)scale(0.1 -0.1)">
       <use xlink:href="#DejaVuSans-49"/>
       <use x="63.623047" xlink:href="#DejaVuSans-52"/>
       <use x="127.246094" xlink:href="#DejaVuSans-46"/>
       <use x="159.033203" xlink:href="#DejaVuSans-56"/>
      </g>
     </g>
    </g>
    <g id="xtick_16">
     <g id="line2d_42">
      <g>
       <use style="stroke:#000000;stroke-width:0.8;" x="102.194827" xlink:href="#m709beabca1" y="307.584"/>
      </g>
     </g>
     <g id="text_32">
      <!-- 15.0 -->
      <g transform="translate(91.062015 322.182437)scale(0.1 -0.1)">
       <use xlink:href="#DejaVuSans-49"/>
       <use x="63.623047" xlink:href="#DejaVuSans-53"/>
       <use x="127.246094" xlink:href="#DejaVuSans-46"/>
       <use x="159.033203" xlink:href="#DejaVuSans-48"/>
      </g>
     </g>
    </g>
    <g id="xtick_17">
     <g id="line2d_43">
      <g>
       <use style="stroke:#000000;stroke-width:0.8;" x="140.300758" xlink:href="#m709beabca1" y="307.584"/>
      </g>
     </g>
     <g id="text_33">
      <!-- 15.2 -->
      <g transform="translate(129.167945 322.182437)scale(0.1 -0.1)">
       <use xlink:href="#DejaVuSans-49"/>
       <use x="63.623047" xlink:href="#DejaVuSans-53"/>
       <use x="127.246094" xlink:href="#DejaVuSans-46"/>
       <use x="159.033203" xlink:href="#DejaVuSans-50"/>
      </g>
     </g>
    </g>
    <g id="xtick_18">
     <g id="line2d_44">
      <g>
       <use style="stroke:#000000;stroke-width:0.8;" x="178.406688" xlink:href="#m709beabca1" y="307.584"/>
      </g>
     </g>
     <g id="text_34">
      <!-- 15.4 -->
      <g transform="translate(167.273875 322.182437)scale(0.1 -0.1)">
       <use xlink:href="#DejaVuSans-49"/>
       <use x="63.623047" xlink:href="#DejaVuSans-53"/>
       <use x="127.246094" xlink:href="#DejaVuSans-46"/>
       <use x="159.033203" xlink:href="#DejaVuSans-52"/>
      </g>
     </g>
    </g>
    <g id="xtick_19">
     <g id="line2d_45">
      <g>
       <use style="stroke:#000000;stroke-width:0.8;" x="216.512618" xlink:href="#m709beabca1" y="307.584"/>
      </g>
     </g>
     <g id="text_35">
      <!-- 15.6 -->
      <defs>
       <path d="M 33.015625 40.375 
Q 26.375 40.375 22.484375 35.828125 
Q 18.609375 31.296875 18.609375 23.390625 
Q 18.609375 15.53125 22.484375 10.953125 
Q 26.375 6.390625 33.015625 6.390625 
Q 39.65625 6.390625 43.53125 10.953125 
Q 47.40625 15.53125 47.40625 23.390625 
Q 47.40625 31.296875 43.53125 35.828125 
Q 39.65625 40.375 33.015625 40.375 
z
M 52.59375 71.296875 
L 52.59375 62.3125 
Q 48.875 64.0625 45.09375 64.984375 
Q 41.3125 65.921875 37.59375 65.921875 
Q 27.828125 65.921875 22.671875 59.328125 
Q 17.53125 52.734375 16.796875 39.40625 
Q 19.671875 43.65625 24.015625 45.921875 
Q 28.375 48.1875 33.59375 48.1875 
Q 44.578125 48.1875 50.953125 41.515625 
Q 57.328125 34.859375 57.328125 23.390625 
Q 57.328125 12.15625 50.6875 5.359375 
Q 44.046875 -1.421875 33.015625 -1.421875 
Q 20.359375 -1.421875 13.671875 8.265625 
Q 6.984375 17.96875 6.984375 36.375 
Q 6.984375 53.65625 15.1875 63.9375 
Q 23.390625 74.21875 37.203125 74.21875 
Q 40.921875 74.21875 44.703125 73.484375 
Q 48.484375 72.75 52.59375 71.296875 
z
" id="DejaVuSans-54"/>
      </defs>
      <g transform="translate(205.379806 322.182437)scale(0.1 -0.1)">
       <use xlink:href="#DejaVuSans-49"/>
       <use x="63.623047" xlink:href="#DejaVuSans-53"/>
       <use x="127.246094" xlink:href="#DejaVuSans-46"/>
       <use x="159.033203" xlink:href="#DejaVuSans-54"/>
      </g>
     </g>
    </g>
   </g>
   <g id="matplotlib.axis_10">
    <g id="ytick_9">
     <g id="line2d_46">
      <g>
       <use style="stroke:#000000;stroke-width:0.8;" x="57.6" xlink:href="#mc22c44881f" y="305.498483"/>
      </g>
     </g>
     <g id="text_36">
      <!-- 0.0 -->
      <g transform="translate(34.696875 309.297702)scale(0.1 -0.1)">
       <use xlink:href="#DejaVuSans-48"/>
       <use x="63.623047" xlink:href="#DejaVuSans-46"/>
       <use x="95.410156" xlink:href="#DejaVuSans-48"/>
      </g>
     </g>
    </g>
    <g id="ytick_10">
     <g id="line2d_47">
      <g>
       <use style="stroke:#000000;stroke-width:0.8;" x="57.6" xlink:href="#mc22c44881f" y="283.510494"/>
      </g>
     </g>
     <g id="text_37">
      <!-- 2.5 -->
      <g transform="translate(34.696875 287.309713)scale(0.1 -0.1)">
       <use xlink:href="#DejaVuSans-50"/>
       <use x="63.623047" xlink:href="#DejaVuSans-46"/>
       <use x="95.410156" xlink:href="#DejaVuSans-53"/>
      </g>
     </g>
    </g>
    <g id="ytick_11">
     <g id="line2d_48">
      <g>
       <use style="stroke:#000000;stroke-width:0.8;" x="57.6" xlink:href="#mc22c44881f" y="261.522506"/>
      </g>
     </g>
     <g id="text_38">
      <!-- 5.0 -->
      <g transform="translate(34.696875 265.321724)scale(0.1 -0.1)">
       <use xlink:href="#DejaVuSans-53"/>
       <use x="63.623047" xlink:href="#DejaVuSans-46"/>
       <use x="95.410156" xlink:href="#DejaVuSans-48"/>
      </g>
     </g>
    </g>
    <g id="text_39">
     <!-- Frequency -->
     <g transform="translate(28.617187 310.940967)rotate(-90)scale(0.1 -0.1)">
      <use xlink:href="#DejaVuSans-70"/>
      <use x="57.410156" xlink:href="#DejaVuSans-114"/>
      <use x="98.492188" xlink:href="#DejaVuSans-101"/>
      <use x="160.015625" xlink:href="#DejaVuSans-113"/>
      <use x="223.492188" xlink:href="#DejaVuSans-117"/>
      <use x="286.871094" xlink:href="#DejaVuSans-101"/>
      <use x="348.394531" xlink:href="#DejaVuSans-110"/>
      <use x="411.773438" xlink:href="#DejaVuSans-99"/>
      <use x="466.753906" xlink:href="#DejaVuSans-121"/>
     </g>
    </g>
   </g>
   <g id="line2d_49">
    <path clip-path="url(#pdc43b8e021)" d="M 64.978512 304.920273 
L 66.885656 304.689395 
L 68.7928 304.381822 
L 70.699943 303.978418 
L 72.607087 303.457599 
L 74.51423 302.795834 
L 76.421374 301.96847 
L 78.328517 300.950924 
L 80.235661 299.720242 
L 82.142804 298.256988 
L 84.049948 296.547389 
L 85.957091 294.585604 
L 87.864235 292.375944 
L 89.771379 289.934825 
L 91.678522 287.292221 
L 93.585666 284.492393 
L 95.492809 281.593693 
L 97.399953 278.667291 
L 99.307096 275.7948 
L 101.21424 273.064825 
L 103.121383 270.568621 
L 105.028527 268.395134 
L 106.935671 266.625788 
L 108.842814 265.329439 
L 110.749958 264.557936 
L 112.657101 264.342678 
L 114.564245 264.692499 
L 116.471388 265.593061 
L 118.378532 267.007831 
L 120.285675 268.880541 
L 122.192819 271.138899 
L 124.099963 273.699212 
L 126.007106 276.471511 
L 127.91425 279.36474 
L 129.821393 282.291601 
L 131.728537 285.172701 
L 133.63568 287.939755 
L 135.542824 290.537706 
L 137.449967 292.925726 
L 139.357111 295.077175 
L 141.264254 296.978686 
L 143.171398 298.628565 
L 145.078542 300.034754 
L 146.985685 301.212583 
L 148.892829 302.182516 
L 150.799972 302.968056 
L 152.707116 303.593932 
L 154.614259 304.084622 
L 156.521403 304.463255 
L 158.428546 304.750863 
" style="fill:none;stroke:#1f77b4;stroke-linecap:square;stroke-width:1.5;"/>
   </g>
   <g id="line2d_50">
    <path clip-path="url(#pdc43b8e021)" d="M 121.921963 304.496494 
L 123.771489 304.13417 
L 125.621016 303.665426 
L 127.470542 303.068247 
L 129.320069 302.319183 
L 131.169595 301.394312 
L 133.019122 300.27055 
L 134.868648 298.927273 
L 136.718175 297.348225 
L 138.567701 295.523593 
L 140.417228 293.452131 
L 142.266754 291.143137 
L 144.11628 288.618091 
L 145.965807 285.911747 
L 147.815333 283.072456 
L 149.66486 280.161593 
L 151.514386 277.251962 
L 153.363913 274.425185 
L 155.213439 271.768165 
L 157.062966 269.368794 
L 158.912492 267.311203 
L 160.762019 265.670902 
L 162.611545 264.510189 
L 164.461072 263.874229 
L 166.310598 263.788138 
L 168.160125 264.255334 
L 170.009651 265.257318 
L 171.859178 266.754881 
L 173.708704 268.690659 
L 175.558231 270.99277 
L 177.407757 273.579242 
L 179.257284 276.362825 
L 181.10681 279.255826 
L 182.956337 282.174566 
L 184.805863 285.043182 
L 186.65539 287.796538 
L 188.504916 290.382139 
L 190.354443 292.76101 
L 192.203969 294.907641 
L 194.053496 296.80911 
L 195.903022 298.463597 
L 197.752548 299.878482 
L 199.602075 301.068251 
L 201.451601 302.052388 
L 203.301128 302.853404 
L 205.150654 303.495115 
L 207.000181 304.001235 
L 208.849707 304.39431 
L 210.699234 304.694972 
L 212.54876 304.921508 
" style="fill:none;stroke:#ff7f0e;stroke-linecap:square;stroke-width:1.5;"/>
   </g>
   <g id="line2d_51">
    <path clip-path="url(#pdc43b8e021)" d="M 111.870345 305.498483 
L 111.870345 264.342678 
" style="fill:none;stroke:#ff0000;stroke-linecap:square;stroke-width:1.5;"/>
   </g>
   <g id="line2d_52">
    <path clip-path="url(#pdc43b8e021)" d="M 77.655719 305.498483 
L 77.655719 263.788138 
" style="fill:none;stroke:#ff0000;stroke-linecap:square;stroke-width:1.5;"/>
   </g>
   <g id="patch_23">
    <path d="M 57.6 307.584 
L 57.6 261.702621 
" style="fill:none;stroke:#000000;stroke-linecap:square;stroke-linejoin:miter;stroke-width:0.8;"/>
   </g>
   <g id="patch_24">
    <path d="M 219.927273 307.584 
L 219.927273 261.702621 
" style="fill:none;stroke:#000000;stroke-linecap:square;stroke-linejoin:miter;stroke-width:0.8;"/>
   </g>
   <g id="patch_25">
    <path d="M 57.6 307.584 
L 219.927273 307.584 
" style="fill:none;stroke:#000000;stroke-linecap:square;stroke-linejoin:miter;stroke-width:0.8;"/>
   </g>
   <g id="patch_26">
    <path d="M 57.6 261.702621 
L 219.927273 261.702621 
" style="fill:none;stroke:#000000;stroke-linecap:square;stroke-linejoin:miter;stroke-width:0.8;"/>
   </g>
   <g id="text_40">
    <!-- sigma1 -->
    <defs>
     <path d="M 44.28125 53.078125 
L 44.28125 44.578125 
Q 40.484375 46.53125 36.375 47.5 
Q 32.28125 48.484375 27.875 48.484375 
Q 21.1875 48.484375 17.84375 46.4375 
Q 14.5 44.390625 14.5 40.28125 
Q 14.5 37.15625 16.890625 35.375 
Q 19.28125 33.59375 26.515625 31.984375 
L 29.59375 31.296875 
Q 39.15625 29.25 43.1875 25.515625 
Q 47.21875 21.78125 47.21875 15.09375 
Q 47.21875 7.46875 41.1875 3.015625 
Q 35.15625 -1.421875 24.609375 -1.421875 
Q 20.21875 -1.421875 15.453125 -0.5625 
Q 10.6875 0.296875 5.421875 2 
L 5.421875 11.28125 
Q 10.40625 8.6875 15.234375 7.390625 
Q 20.0625 6.109375 24.8125 6.109375 
Q 31.15625 6.109375 34.5625 8.28125 
Q 37.984375 10.453125 37.984375 14.40625 
Q 37.984375 18.0625 35.515625 20.015625 
Q 33.0625 21.96875 24.703125 23.78125 
L 21.578125 24.515625 
Q 13.234375 26.265625 9.515625 29.90625 
Q 5.8125 33.546875 5.8125 39.890625 
Q 5.8125 47.609375 11.28125 51.796875 
Q 16.75 56 26.8125 56 
Q 31.78125 56 36.171875 55.265625 
Q 40.578125 54.546875 44.28125 53.078125 
z
" id="DejaVuSans-115"/>
     <path d="M 9.421875 54.6875 
L 18.40625 54.6875 
L 18.40625 0 
L 9.421875 0 
z
M 9.421875 75.984375 
L 18.40625 75.984375 
L 18.40625 64.59375 
L 9.421875 64.59375 
z
" id="DejaVuSans-105"/>
     <path d="M 45.40625 27.984375 
Q 45.40625 37.75 41.375 43.109375 
Q 37.359375 48.484375 30.078125 48.484375 
Q 22.859375 48.484375 18.828125 43.109375 
Q 14.796875 37.75 14.796875 27.984375 
Q 14.796875 18.265625 18.828125 12.890625 
Q 22.859375 7.515625 30.078125 7.515625 
Q 37.359375 7.515625 41.375 12.890625 
Q 45.40625 18.265625 45.40625 27.984375 
z
M 54.390625 6.78125 
Q 54.390625 -7.171875 48.1875 -13.984375 
Q 42 -20.796875 29.203125 -20.796875 
Q 24.46875 -20.796875 20.265625 -20.09375 
Q 16.0625 -19.390625 12.109375 -17.921875 
L 12.109375 -9.1875 
Q 16.0625 -11.328125 19.921875 -12.34375 
Q 23.78125 -13.375 27.78125 -13.375 
Q 36.625 -13.375 41.015625 -8.765625 
Q 45.40625 -4.15625 45.40625 5.171875 
L 45.40625 9.625 
Q 42.625 4.78125 38.28125 2.390625 
Q 33.9375 0 27.875 0 
Q 17.828125 0 11.671875 7.65625 
Q 5.515625 15.328125 5.515625 27.984375 
Q 5.515625 40.671875 11.671875 48.328125 
Q 17.828125 56 27.875 56 
Q 33.9375 56 38.28125 53.609375 
Q 42.625 51.21875 45.40625 46.390625 
L 45.40625 54.6875 
L 54.390625 54.6875 
z
" id="DejaVuSans-103"/>
     <path d="M 34.28125 27.484375 
Q 23.390625 27.484375 19.1875 25 
Q 14.984375 22.515625 14.984375 16.5 
Q 14.984375 11.71875 18.140625 8.90625 
Q 21.296875 6.109375 26.703125 6.109375 
Q 34.1875 6.109375 38.703125 11.40625 
Q 43.21875 16.703125 43.21875 25.484375 
L 43.21875 27.484375 
z
M 52.203125 31.203125 
L 52.203125 0 
L 43.21875 0 
L 43.21875 8.296875 
Q 40.140625 3.328125 35.546875 0.953125 
Q 30.953125 -1.421875 24.3125 -1.421875 
Q 15.921875 -1.421875 10.953125 3.296875 
Q 6 8.015625 6 15.921875 
Q 6 25.140625 12.171875 29.828125 
Q 18.359375 34.515625 30.609375 34.515625 
L 43.21875 34.515625 
L 43.21875 35.40625 
Q 43.21875 41.609375 39.140625 45 
Q 35.0625 48.390625 27.6875 48.390625 
Q 23 48.390625 18.546875 47.265625 
Q 14.109375 46.140625 10.015625 43.890625 
L 10.015625 52.203125 
Q 14.9375 54.109375 19.578125 55.046875 
Q 24.21875 56 28.609375 56 
Q 40.484375 56 46.34375 49.84375 
Q 52.203125 43.703125 52.203125 31.203125 
z
" id="DejaVuSans-97"/>
    </defs>
    <g transform="translate(116.823324 255.702621)scale(0.12 -0.12)">
     <use xlink:href="#DejaVuSans-115"/>
     <use x="52.099609" xlink:href="#DejaVuSans-105"/>
     <use x="79.882812" xlink:href="#DejaVuSans-103"/>
     <use x="143.359375" xlink:href="#DejaVuSans-109"/>
     <use x="240.771484" xlink:href="#DejaVuSans-97"/>
     <use x="302.050781" xlink:href="#DejaVuSans-49"/>
    </g>
   </g>
  </g>
  <g id="axes_6">
   <g id="patch_27">
    <path d="M 252.392727 87.353379 
L 414.72 87.353379 
L 414.72 41.472 
L 252.392727 41.472 
z
" style="fill:#ffffff;"/>
   </g>
   <g id="matplotlib.axis_11">
    <g id="xtick_20">
     <g id="line2d_53">
      <g>
       <use style="stroke:#000000;stroke-width:0.8;" x="271.027051" xlink:href="#m709beabca1" y="87.353379"/>
      </g>
     </g>
     <g id="text_41">
      <!-- 1 -->
      <g transform="translate(267.845801 101.951817)scale(0.1 -0.1)">
       <use xlink:href="#DejaVuSans-49"/>
      </g>
     </g>
    </g>
    <g id="xtick_21">
     <g id="line2d_54">
      <g>
       <use style="stroke:#000000;stroke-width:0.8;" x="304.630379" xlink:href="#m709beabca1" y="87.353379"/>
      </g>
     </g>
     <g id="text_42">
      <!-- 2 -->
      <g transform="translate(301.449129 101.951817)scale(0.1 -0.1)">
       <use xlink:href="#DejaVuSans-50"/>
      </g>
     </g>
    </g>
    <g id="xtick_22">
     <g id="line2d_55">
      <g>
       <use style="stroke:#000000;stroke-width:0.8;" x="338.233707" xlink:href="#m709beabca1" y="87.353379"/>
      </g>
     </g>
     <g id="text_43">
      <!-- 3 -->
      <g transform="translate(335.052457 101.951817)scale(0.1 -0.1)">
       <use xlink:href="#DejaVuSans-51"/>
      </g>
     </g>
    </g>
    <g id="xtick_23">
     <g id="line2d_56">
      <g>
       <use style="stroke:#000000;stroke-width:0.8;" x="371.837035" xlink:href="#m709beabca1" y="87.353379"/>
      </g>
     </g>
     <g id="text_44">
      <!-- 4 -->
      <g transform="translate(368.655785 101.951817)scale(0.1 -0.1)">
       <use xlink:href="#DejaVuSans-52"/>
      </g>
     </g>
    </g>
    <g id="xtick_24">
     <g id="line2d_57">
      <g>
       <use style="stroke:#000000;stroke-width:0.8;" x="405.440363" xlink:href="#m709beabca1" y="87.353379"/>
      </g>
     </g>
     <g id="text_45">
      <!-- 5 -->
      <g transform="translate(402.259113 101.951817)scale(0.1 -0.1)">
       <use xlink:href="#DejaVuSans-53"/>
      </g>
     </g>
    </g>
   </g>
   <g id="matplotlib.axis_12">
    <g id="ytick_12">
     <g id="line2d_58">
      <g>
       <use style="stroke:#000000;stroke-width:0.8;" x="252.392727" xlink:href="#mc22c44881f" y="85.267862"/>
      </g>
     </g>
     <g id="text_46">
      <!-- 0 -->
      <g transform="translate(239.030227 89.067081)scale(0.1 -0.1)">
       <use xlink:href="#DejaVuSans-48"/>
      </g>
     </g>
    </g>
    <g id="ytick_13">
     <g id="line2d_59">
      <g>
       <use style="stroke:#000000;stroke-width:0.8;" x="252.392727" xlink:href="#mc22c44881f" y="43.431349"/>
      </g>
     </g>
     <g id="text_47">
      <!-- 100 -->
      <g transform="translate(226.305227 47.230567)scale(0.1 -0.1)">
       <use xlink:href="#DejaVuSans-49"/>
       <use x="63.623047" xlink:href="#DejaVuSans-48"/>
       <use x="127.246094" xlink:href="#DejaVuSans-48"/>
      </g>
     </g>
    </g>
    <g id="text_48">
     <!-- Frequency -->
     <g transform="translate(220.22554 90.710346)rotate(-90)scale(0.1 -0.1)">
      <use xlink:href="#DejaVuSans-70"/>
      <use x="57.410156" xlink:href="#DejaVuSans-114"/>
      <use x="98.492188" xlink:href="#DejaVuSans-101"/>
      <use x="160.015625" xlink:href="#DejaVuSans-113"/>
      <use x="223.492188" xlink:href="#DejaVuSans-117"/>
      <use x="286.871094" xlink:href="#DejaVuSans-101"/>
      <use x="348.394531" xlink:href="#DejaVuSans-110"/>
      <use x="411.773438" xlink:href="#DejaVuSans-99"/>
      <use x="466.753906" xlink:href="#DejaVuSans-121"/>
     </g>
    </g>
   </g>
   <g id="line2d_60">
    <path clip-path="url(#pd4722335e0)" d="M 401.994737 85.232781 
L 402.103854 85.214675 
L 402.212972 85.188597 
L 402.322089 85.151741 
L 402.431206 85.100642 
L 402.540324 85.031152 
L 402.649441 84.938486 
L 402.758558 84.817339 
L 402.867676 84.662115 
L 402.976793 84.467263 
L 403.085911 84.227733 
L 403.195028 83.939524 
L 403.304145 83.600312 
L 403.413263 83.210085 
L 403.52238 82.771735 
L 403.631497 82.291511 
L 403.740615 81.779266 
L 403.849732 81.248415 
L 403.958849 80.715562 
L 404.067967 80.199769 
L 404.177084 79.721512 
L 404.286201 79.301371 
L 404.395319 78.958583 
L 404.504436 78.709588 
L 404.613554 78.566726 
L 404.722671 78.537222 
L 404.831788 78.622582 
L 404.940906 78.818463 
L 405.050023 79.115041 
L 405.15914 79.497828 
L 405.268258 79.948844 
L 405.377375 80.448011 
L 405.486492 80.974626 
L 405.59561 81.508752 
L 405.704727 82.032415 
L 405.813845 82.530498 
L 405.922962 82.991298 
L 406.032079 83.406734 
L 406.141197 83.77224 
L 406.250314 84.08641 
L 406.359431 84.35046 
L 406.468549 84.567613 
L 406.577666 84.742457 
L 406.686783 84.880351 
L 406.795901 84.986915 
L 406.905018 85.06764 
L 407.014136 85.127597 
L 407.123253 85.171271 
L 407.23237 85.202478 
L 407.341488 85.224355 
" style="fill:none;stroke:#1f77b4;stroke-linecap:square;stroke-width:1.5;"/>
   </g>
   <g id="line2d_61">
    <path clip-path="url(#pd4722335e0)" d="M 260.122223 84.331901 
L 260.137683 83.991537 
L 260.153144 83.550247 
L 260.168605 82.986723 
L 260.184066 82.278084 
L 260.199526 81.400745 
L 260.214987 80.331615 
L 260.230448 79.049618 
L 260.245908 77.537499 
L 260.261369 75.783824 
L 260.27683 73.785059 
L 260.29229 71.547556 
L 260.307751 69.089263 
L 260.323212 66.440942 
L 260.338672 63.646706 
L 260.354133 60.763704 
L 260.369594 57.860837 
L 260.385054 55.016477 
L 260.400515 52.315248 
L 260.415976 49.844014 
L 260.431436 47.687336 
L 260.446897 45.922712 
L 260.462358 44.615965 
L 260.477818 43.817181 
L 260.493279 43.557517 
L 260.50874 43.847191 
L 260.5242 44.674807 
L 260.539661 46.008107 
L 260.555122 47.796051 
L 260.570583 49.972062 
L 260.586043 52.458134 
L 260.601504 55.169458 
L 260.616965 58.019176 
L 260.632425 60.922911 
L 260.647886 63.802733 
L 260.663347 66.590337 
L 260.678807 69.229263 
L 260.694268 71.676131 
L 260.709729 73.900902 
L 260.725189 75.8863 
L 260.74065 77.626562 
L 260.756111 79.12571 
L 260.771571 80.395549 
L 260.787032 81.453596 
L 260.802493 82.32108 
L 260.817953 83.021155 
L 260.833414 83.577398 
L 260.848875 84.012622 
L 260.864335 84.348029 
L 260.879796 84.602662 
" style="fill:none;stroke:#ff7f0e;stroke-linecap:square;stroke-width:1.5;"/>
   </g>
   <g id="line2d_62">
    <path clip-path="url(#pd4722335e0)" d="M 396.175882 85.267862 
L 396.175882 78.537222 
" style="fill:none;stroke:#ff0000;stroke-linecap:square;stroke-width:1.5;"/>
   </g>
   <g id="line2d_63">
    <path clip-path="url(#pd4722335e0)" d="M 259.77124 85.267862 
L 259.77124 43.557517 
" style="fill:none;stroke:#ff0000;stroke-linecap:square;stroke-width:1.5;"/>
   </g>
   <g id="patch_28">
    <path d="M 252.392727 87.353379 
L 252.392727 41.472 
" style="fill:none;stroke:#000000;stroke-linecap:square;stroke-linejoin:miter;stroke-width:0.8;"/>
   </g>
   <g id="patch_29">
    <path d="M 414.72 87.353379 
L 414.72 41.472 
" style="fill:none;stroke:#000000;stroke-linecap:square;stroke-linejoin:miter;stroke-width:0.8;"/>
   </g>
   <g id="patch_30">
    <path d="M 252.392727 87.353379 
L 414.72 87.353379 
" style="fill:none;stroke:#000000;stroke-linecap:square;stroke-linejoin:miter;stroke-width:0.8;"/>
   </g>
   <g id="patch_31">
    <path d="M 252.392727 41.472 
L 414.72 41.472 
" style="fill:none;stroke:#000000;stroke-linecap:square;stroke-linejoin:miter;stroke-width:0.8;"/>
   </g>
   <g id="text_49">
    <!-- sigma0 -->
    <g transform="translate(311.616051 35.472)scale(0.12 -0.12)">
     <use xlink:href="#DejaVuSans-115"/>
     <use x="52.099609" xlink:href="#DejaVuSans-105"/>
     <use x="79.882812" xlink:href="#DejaVuSans-103"/>
     <use x="143.359375" xlink:href="#DejaVuSans-109"/>
     <use x="240.771484" xlink:href="#DejaVuSans-97"/>
     <use x="302.050781" xlink:href="#DejaVuSans-48"/>
    </g>
   </g>
  </g>
  <g id="axes_7">
   <g id="patch_32">
    <path d="M 252.392727 142.411034 
L 414.72 142.411034 
L 414.72 96.529655 
L 252.392727 96.529655 
z
" style="fill:#ffffff;"/>
   </g>
   <g id="matplotlib.axis_13">
    <g id="xtick_25">
     <g id="line2d_64">
      <g>
       <use style="stroke:#000000;stroke-width:0.8;" x="263.667815" xlink:href="#m709beabca1" y="142.411034"/>
      </g>
     </g>
     <g id="text_50">
      <!-- 2.5 -->
      <g transform="translate(255.716252 157.009472)scale(0.1 -0.1)">
       <use xlink:href="#DejaVuSans-50"/>
       <use x="63.623047" xlink:href="#DejaVuSans-46"/>
       <use x="95.410156" xlink:href="#DejaVuSans-53"/>
      </g>
     </g>
    </g>
    <g id="xtick_26">
     <g id="line2d_65">
      <g>
       <use style="stroke:#000000;stroke-width:0.8;" x="300.299367" xlink:href="#m709beabca1" y="142.411034"/>
      </g>
     </g>
     <g id="text_51">
      <!-- 5.0 -->
      <g transform="translate(292.347804 157.009472)scale(0.1 -0.1)">
       <use xlink:href="#DejaVuSans-53"/>
       <use x="63.623047" xlink:href="#DejaVuSans-46"/>
       <use x="95.410156" xlink:href="#DejaVuSans-48"/>
      </g>
     </g>
    </g>
    <g id="xtick_27">
     <g id="line2d_66">
      <g>
       <use style="stroke:#000000;stroke-width:0.8;" x="336.930919" xlink:href="#m709beabca1" y="142.411034"/>
      </g>
     </g>
     <g id="text_52">
      <!-- 7.5 -->
      <defs>
       <path d="M 8.203125 72.90625 
L 55.078125 72.90625 
L 55.078125 68.703125 
L 28.609375 0 
L 18.3125 0 
L 43.21875 64.59375 
L 8.203125 64.59375 
z
" id="DejaVuSans-55"/>
      </defs>
      <g transform="translate(328.979356 157.009472)scale(0.1 -0.1)">
       <use xlink:href="#DejaVuSans-55"/>
       <use x="63.623047" xlink:href="#DejaVuSans-46"/>
       <use x="95.410156" xlink:href="#DejaVuSans-53"/>
      </g>
     </g>
    </g>
    <g id="xtick_28">
     <g id="line2d_67">
      <g>
       <use style="stroke:#000000;stroke-width:0.8;" x="373.562471" xlink:href="#m709beabca1" y="142.411034"/>
      </g>
     </g>
     <g id="text_53">
      <!-- 10.0 -->
      <g transform="translate(362.429658 157.009472)scale(0.1 -0.1)">
       <use xlink:href="#DejaVuSans-49"/>
       <use x="63.623047" xlink:href="#DejaVuSans-48"/>
       <use x="127.246094" xlink:href="#DejaVuSans-46"/>
       <use x="159.033203" xlink:href="#DejaVuSans-48"/>
      </g>
     </g>
    </g>
    <g id="xtick_29">
     <g id="line2d_68">
      <g>
       <use style="stroke:#000000;stroke-width:0.8;" x="410.194023" xlink:href="#m709beabca1" y="142.411034"/>
      </g>
     </g>
     <g id="text_54">
      <!-- 12.5 -->
      <g transform="translate(399.06121 157.009472)scale(0.1 -0.1)">
       <use xlink:href="#DejaVuSans-49"/>
       <use x="63.623047" xlink:href="#DejaVuSans-50"/>
       <use x="127.246094" xlink:href="#DejaVuSans-46"/>
       <use x="159.033203" xlink:href="#DejaVuSans-53"/>
      </g>
     </g>
    </g>
   </g>
   <g id="matplotlib.axis_14">
    <g id="ytick_14">
     <g id="line2d_69">
      <g>
       <use style="stroke:#000000;stroke-width:0.8;" x="252.392727" xlink:href="#mc22c44881f" y="140.325517"/>
      </g>
     </g>
     <g id="text_55">
      <!-- 0 -->
      <g transform="translate(239.030227 144.124736)scale(0.1 -0.1)">
       <use xlink:href="#DejaVuSans-48"/>
      </g>
     </g>
    </g>
    <g id="ytick_15">
     <g id="line2d_70">
      <g>
       <use style="stroke:#000000;stroke-width:0.8;" x="252.392727" xlink:href="#mc22c44881f" y="111.601619"/>
      </g>
     </g>
     <g id="text_56">
      <!-- 20 -->
      <g transform="translate(232.667727 115.400838)scale(0.1 -0.1)">
       <use xlink:href="#DejaVuSans-50"/>
       <use x="63.623047" xlink:href="#DejaVuSans-48"/>
      </g>
     </g>
    </g>
    <g id="text_57">
     <!-- Frequency -->
     <g transform="translate(226.58804 145.768001)rotate(-90)scale(0.1 -0.1)">
      <use xlink:href="#DejaVuSans-70"/>
      <use x="57.410156" xlink:href="#DejaVuSans-114"/>
      <use x="98.492188" xlink:href="#DejaVuSans-101"/>
      <use x="160.015625" xlink:href="#DejaVuSans-113"/>
      <use x="223.492188" xlink:href="#DejaVuSans-117"/>
      <use x="286.871094" xlink:href="#DejaVuSans-101"/>
      <use x="348.394531" xlink:href="#DejaVuSans-110"/>
      <use x="411.773438" xlink:href="#DejaVuSans-99"/>
      <use x="466.753906" xlink:href="#DejaVuSans-121"/>
     </g>
    </g>
   </g>
   <g id="line2d_71">
    <path clip-path="url(#p7c1ce3d9c0)" d="M 403.998476 139.979194 
L 404.066701 139.866982 
L 404.134926 139.725227 
L 404.20315 139.548469 
L 404.271375 139.330954 
L 404.3396 139.066837 
L 404.407824 138.75046 
L 404.476049 138.376681 
L 404.544274 137.941264 
L 404.612499 137.441303 
L 404.680723 136.875663 
L 404.748948 136.245405 
L 404.817173 135.554164 
L 404.885398 134.80844 
L 404.953622 134.017765 
L 405.021847 133.194716 
L 405.090072 132.354751 
L 405.158296 131.515842 
L 405.226521 130.697922 
L 405.294746 129.922152 
L 405.362971 129.210044 
L 405.431195 128.582489 
L 405.49942 128.058743 
L 405.567645 127.655455 
L 405.635869 127.385788 
L 405.704094 127.258704 
L 405.772319 127.278468 
L 405.840544 127.444416 
L 405.908768 127.750987 
L 405.976993 128.188034 
L 406.045218 128.741383 
L 406.113443 129.393593 
L 406.181667 130.12487 
L 406.249892 130.914059 
L 406.318117 131.739649 
L 406.386341 132.580729 
L 406.454566 133.417824 
L 406.522791 134.233592 
L 406.591016 135.01332 
L 406.65924 135.745239 
L 406.727465 136.420637 
L 406.79569 137.033807 
L 406.863915 137.581837 
L 406.932139 138.064293 
L 407.000364 138.48283 
L 407.068589 138.840751 
L 407.136813 139.142578 
L 407.205038 139.393627 
L 407.273263 139.599637 
L 407.341488 139.76645 
" style="fill:none;stroke:#1f77b4;stroke-linecap:square;stroke-width:1.5;"/>
   </g>
   <g id="line2d_72">
    <path clip-path="url(#p7c1ce3d9c0)" d="M 262.264749 138.763782 
L 262.287469 138.252771 
L 262.31019 137.609405 
L 262.332911 136.811437 
L 262.355631 135.836633 
L 262.378352 134.664066 
L 262.401072 133.275669 
L 262.423793 131.658008 
L 262.446513 129.804166 
L 262.469234 127.715627 
L 262.491954 125.403974 
L 262.514675 122.892249 
L 262.537395 120.215776 
L 262.560116 117.422285 
L 262.582836 114.571221 
L 262.605557 111.732156 
L 262.628278 108.982315 
L 262.650998 106.403307 
L 262.673719 104.077227 
L 262.696439 102.082378 
L 262.71916 100.488926 
L 262.74188 99.354814 
L 262.764601 98.722264 
L 262.787321 98.615172 
L 262.810042 99.037608 
L 262.832762 99.973559 
L 262.855483 101.387936 
L 262.878203 103.228761 
L 262.900924 105.430331 
L 262.923645 107.917106 
L 262.946365 110.607997 
L 262.969086 113.420702 
L 262.991806 116.275794 
L 263.014527 119.10027 
L 263.037247 121.830358 
L 263.059968 124.413472 
L 263.082688 126.809257 
L 263.105409 128.989781 
L 263.128129 130.938978 
L 263.15085 132.65148 
L 263.17357 134.131036 
L 263.196291 135.388683 
L 263.219012 136.440841 
L 263.241732 137.307486 
L 263.264453 138.010495 
L 263.287173 138.572245 
L 263.309894 139.014507 
L 263.332614 139.357628 
L 263.355335 139.62 
L 263.378055 139.817765 
" style="fill:none;stroke:#ff7f0e;stroke-linecap:square;stroke-width:1.5;"/>
   </g>
   <g id="line2d_73">
    <path clip-path="url(#p7c1ce3d9c0)" d="M 403.48876 140.325517 
L 403.48876 127.258704 
" style="fill:none;stroke:#ff0000;stroke-linecap:square;stroke-width:1.5;"/>
   </g>
   <g id="line2d_74">
    <path clip-path="url(#p7c1ce3d9c0)" d="M 259.77124 140.325517 
L 259.77124 98.615172 
" style="fill:none;stroke:#ff0000;stroke-linecap:square;stroke-width:1.5;"/>
   </g>
   <g id="patch_33">
    <path d="M 252.392727 142.411034 
L 252.392727 96.529655 
" style="fill:none;stroke:#000000;stroke-linecap:square;stroke-linejoin:miter;stroke-width:0.8;"/>
   </g>
   <g id="patch_34">
    <path d="M 414.72 142.411034 
L 414.72 96.529655 
" style="fill:none;stroke:#000000;stroke-linecap:square;stroke-linejoin:miter;stroke-width:0.8;"/>
   </g>
   <g id="patch_35">
    <path d="M 252.392727 142.411034 
L 414.72 142.411034 
" style="fill:none;stroke:#000000;stroke-linecap:square;stroke-linejoin:miter;stroke-width:0.8;"/>
   </g>
   <g id="patch_36">
    <path d="M 252.392727 96.529655 
L 414.72 96.529655 
" style="fill:none;stroke:#000000;stroke-linecap:square;stroke-linejoin:miter;stroke-width:0.8;"/>
   </g>
   <g id="text_58">
    <!-- sigma2 -->
    <g transform="translate(311.616051 90.529655)scale(0.12 -0.12)">
     <use xlink:href="#DejaVuSans-115"/>
     <use x="52.099609" xlink:href="#DejaVuSans-105"/>
     <use x="79.882812" xlink:href="#DejaVuSans-103"/>
     <use x="143.359375" xlink:href="#DejaVuSans-109"/>
     <use x="240.771484" xlink:href="#DejaVuSans-97"/>
     <use x="302.050781" xlink:href="#DejaVuSans-50"/>
    </g>
   </g>
  </g>
  <g id="axes_8">
   <g id="patch_37">
    <path d="M 252.392727 197.46869 
L 414.72 197.46869 
L 414.72 151.58731 
L 252.392727 151.58731 
z
" style="fill:#ffffff;"/>
   </g>
   <g id="matplotlib.axis_15">
    <g id="xtick_30">
     <g id="line2d_75">
      <g>
       <use style="stroke:#000000;stroke-width:0.8;" x="282.296869" xlink:href="#m709beabca1" y="197.46869"/>
      </g>
     </g>
     <g id="text_59">
      <!-- 0.02 -->
      <defs>
       <path d="M 10.59375 35.5 
L 73.1875 35.5 
L 73.1875 27.203125 
L 10.59375 27.203125 
z
" id="DejaVuSans-8722"/>
      </defs>
      <g transform="translate(266.974213 212.067127)scale(0.1 -0.1)">
       <use xlink:href="#DejaVuSans-8722"/>
       <use x="83.789062" xlink:href="#DejaVuSans-48"/>
       <use x="147.412109" xlink:href="#DejaVuSans-46"/>
       <use x="179.199219" xlink:href="#DejaVuSans-48"/>
       <use x="242.822266" xlink:href="#DejaVuSans-50"/>
      </g>
     </g>
    </g>
    <g id="xtick_31">
     <g id="line2d_76">
      <g>
       <use style="stroke:#000000;stroke-width:0.8;" x="315.257714" xlink:href="#m709beabca1" y="197.46869"/>
      </g>
     </g>
     <g id="text_60">
      <!-- 0.01 -->
      <g transform="translate(299.935058 212.067127)scale(0.1 -0.1)">
       <use xlink:href="#DejaVuSans-8722"/>
       <use x="83.789062" xlink:href="#DejaVuSans-48"/>
       <use x="147.412109" xlink:href="#DejaVuSans-46"/>
       <use x="179.199219" xlink:href="#DejaVuSans-48"/>
       <use x="242.822266" xlink:href="#DejaVuSans-49"/>
      </g>
     </g>
    </g>
    <g id="xtick_32">
     <g id="line2d_77">
      <g>
       <use style="stroke:#000000;stroke-width:0.8;" x="348.218559" xlink:href="#m709beabca1" y="197.46869"/>
      </g>
     </g>
     <g id="text_61">
      <!-- 0.00 -->
      <g transform="translate(337.085746 212.067127)scale(0.1 -0.1)">
       <use xlink:href="#DejaVuSans-48"/>
       <use x="63.623047" xlink:href="#DejaVuSans-46"/>
       <use x="95.410156" xlink:href="#DejaVuSans-48"/>
       <use x="159.033203" xlink:href="#DejaVuSans-48"/>
      </g>
     </g>
    </g>
    <g id="xtick_33">
     <g id="line2d_78">
      <g>
       <use style="stroke:#000000;stroke-width:0.8;" x="381.179404" xlink:href="#m709beabca1" y="197.46869"/>
      </g>
     </g>
     <g id="text_62">
      <!-- 0.01 -->
      <g transform="translate(370.046591 212.067127)scale(0.1 -0.1)">
       <use xlink:href="#DejaVuSans-48"/>
       <use x="63.623047" xlink:href="#DejaVuSans-46"/>
       <use x="95.410156" xlink:href="#DejaVuSans-48"/>
       <use x="159.033203" xlink:href="#DejaVuSans-49"/>
      </g>
     </g>
    </g>
    <g id="xtick_34">
     <g id="line2d_79">
      <g>
       <use style="stroke:#000000;stroke-width:0.8;" x="414.140249" xlink:href="#m709beabca1" y="197.46869"/>
      </g>
     </g>
     <g id="text_63">
      <!-- 0.02 -->
      <g transform="translate(403.007436 212.067127)scale(0.1 -0.1)">
       <use xlink:href="#DejaVuSans-48"/>
       <use x="63.623047" xlink:href="#DejaVuSans-46"/>
       <use x="95.410156" xlink:href="#DejaVuSans-48"/>
       <use x="159.033203" xlink:href="#DejaVuSans-50"/>
      </g>
     </g>
    </g>
   </g>
   <g id="matplotlib.axis_16">
    <g id="ytick_16">
     <g id="line2d_80">
      <g>
       <use style="stroke:#000000;stroke-width:0.8;" x="252.392727" xlink:href="#mc22c44881f" y="195.383172"/>
      </g>
     </g>
     <g id="text_64">
      <!-- 0 -->
      <g transform="translate(239.030227 199.182391)scale(0.1 -0.1)">
       <use xlink:href="#DejaVuSans-48"/>
      </g>
     </g>
    </g>
    <g id="ytick_17">
     <g id="line2d_81">
      <g>
       <use style="stroke:#000000;stroke-width:0.8;" x="252.392727" xlink:href="#mc22c44881f" y="156.607063"/>
      </g>
     </g>
     <g id="text_65">
      <!-- 50 -->
      <g transform="translate(232.667727 160.406282)scale(0.1 -0.1)">
       <use xlink:href="#DejaVuSans-53"/>
       <use x="63.623047" xlink:href="#DejaVuSans-48"/>
      </g>
     </g>
    </g>
    <g id="text_66">
     <!-- Frequency -->
     <g transform="translate(226.58804 200.825656)rotate(-90)scale(0.1 -0.1)">
      <use xlink:href="#DejaVuSans-70"/>
      <use x="57.410156" xlink:href="#DejaVuSans-114"/>
      <use x="98.492188" xlink:href="#DejaVuSans-101"/>
      <use x="160.015625" xlink:href="#DejaVuSans-113"/>
      <use x="223.492188" xlink:href="#DejaVuSans-117"/>
      <use x="286.871094" xlink:href="#DejaVuSans-101"/>
      <use x="348.394531" xlink:href="#DejaVuSans-110"/>
      <use x="411.773438" xlink:href="#DejaVuSans-99"/>
      <use x="466.753906" xlink:href="#DejaVuSans-121"/>
     </g>
    </g>
   </g>
   <g id="line2d_82">
    <path clip-path="url(#p3b6edab069)" d="M 259.77124 194.916001 
L 262.782877 194.712328 
L 265.794515 194.434383 
L 268.806153 194.061507 
L 271.817791 193.569845 
L 274.829428 192.932788 
L 277.841066 192.121837 
L 280.852704 191.107939 
L 283.864341 189.863321 
L 286.875979 188.363801 
L 289.887617 186.591486 
L 292.899255 184.537678 
L 295.910892 182.205772 
L 298.92253 179.61384 
L 301.934168 176.796567 
L 304.945805 173.806222 
L 307.957443 170.712372 
L 310.969081 167.600143 
L 313.980719 164.566966 
L 316.992356 161.717915 
L 320.003994 159.159881 
L 323.015632 156.995031 
L 326.027269 155.314085 
L 329.038907 154.190021 
L 332.050545 153.672828 
L 335.062182 153.785815 
L 338.07382 154.523874 
L 341.085458 155.853859 
L 344.097096 157.717057 
L 347.108733 160.033484 
L 350.120371 162.707574 
L 353.132009 165.634697 
L 356.143646 168.707888 
L 359.155284 171.824185 
L 362.166922 174.890086 
L 365.17856 177.825727 
L 368.190197 180.567598 
L 371.201835 183.069748 
L 374.213473 185.303593 
L 377.22511 187.256568 
L 380.236748 188.929914 
L 383.248386 190.335952 
L 386.260024 191.495152 
L 389.271661 192.433267 
L 392.283299 193.17877 
L 395.294937 193.760702 
L 398.306574 194.207014 
L 401.318212 194.543406 
L 404.32985 194.792626 
L 407.341488 194.974145 
" style="fill:none;stroke:#1f77b4;stroke-linecap:square;stroke-width:1.5;"/>
   </g>
   <g id="line2d_83">
    <path clip-path="url(#p3b6edab069)" d="M 301.955491 195.383172 
L 301.955491 153.672828 
" style="fill:none;stroke:#ff0000;stroke-linecap:square;stroke-width:1.5;"/>
   </g>
   <g id="patch_38">
    <path d="M 252.392727 197.46869 
L 252.392727 151.58731 
" style="fill:none;stroke:#000000;stroke-linecap:square;stroke-linejoin:miter;stroke-width:0.8;"/>
   </g>
   <g id="patch_39">
    <path d="M 414.72 197.46869 
L 414.72 151.58731 
" style="fill:none;stroke:#000000;stroke-linecap:square;stroke-linejoin:miter;stroke-width:0.8;"/>
   </g>
   <g id="patch_40">
    <path d="M 252.392727 197.46869 
L 414.72 197.46869 
" style="fill:none;stroke:#000000;stroke-linecap:square;stroke-linejoin:miter;stroke-width:0.8;"/>
   </g>
   <g id="patch_41">
    <path d="M 252.392727 151.58731 
L 414.72 151.58731 
" style="fill:none;stroke:#000000;stroke-linecap:square;stroke-linejoin:miter;stroke-width:0.8;"/>
   </g>
   <g id="text_67">
    <!-- corr1 -->
    <defs>
     <path d="M 30.609375 48.390625 
Q 23.390625 48.390625 19.1875 42.75 
Q 14.984375 37.109375 14.984375 27.296875 
Q 14.984375 17.484375 19.15625 11.84375 
Q 23.34375 6.203125 30.609375 6.203125 
Q 37.796875 6.203125 41.984375 11.859375 
Q 46.1875 17.53125 46.1875 27.296875 
Q 46.1875 37.015625 41.984375 42.703125 
Q 37.796875 48.390625 30.609375 48.390625 
z
M 30.609375 56 
Q 42.328125 56 49.015625 48.375 
Q 55.71875 40.765625 55.71875 27.296875 
Q 55.71875 13.875 49.015625 6.21875 
Q 42.328125 -1.421875 30.609375 -1.421875 
Q 18.84375 -1.421875 12.171875 6.21875 
Q 5.515625 13.875 5.515625 27.296875 
Q 5.515625 40.765625 12.171875 48.375 
Q 18.84375 56 30.609375 56 
z
" id="DejaVuSans-111"/>
    </defs>
    <g transform="translate(317.836364 145.58731)scale(0.12 -0.12)">
     <use xlink:href="#DejaVuSans-99"/>
     <use x="54.980469" xlink:href="#DejaVuSans-111"/>
     <use x="116.162109" xlink:href="#DejaVuSans-114"/>
     <use x="157.259766" xlink:href="#DejaVuSans-114"/>
     <use x="198.373047" xlink:href="#DejaVuSans-49"/>
    </g>
   </g>
  </g>
  <g id="axes_9">
   <g id="patch_42">
    <path d="M 252.392727 252.526345 
L 414.72 252.526345 
L 414.72 206.644966 
L 252.392727 206.644966 
z
" style="fill:#ffffff;"/>
   </g>
   <g id="matplotlib.axis_17">
    <g id="xtick_35">
     <g id="line2d_84">
      <g>
       <use style="stroke:#000000;stroke-width:0.8;" x="288.078889" xlink:href="#m709beabca1" y="252.526345"/>
      </g>
     </g>
     <g id="text_68">
      <!-- 0.07 -->
      <g transform="translate(276.946076 267.124782)scale(0.1 -0.1)">
       <use xlink:href="#DejaVuSans-48"/>
       <use x="63.623047" xlink:href="#DejaVuSans-46"/>
       <use x="95.410156" xlink:href="#DejaVuSans-48"/>
       <use x="159.033203" xlink:href="#DejaVuSans-55"/>
      </g>
     </g>
    </g>
    <g id="xtick_36">
     <g id="line2d_85">
      <g>
       <use style="stroke:#000000;stroke-width:0.8;" x="328.507965" xlink:href="#m709beabca1" y="252.526345"/>
      </g>
     </g>
     <g id="text_69">
      <!-- 0.08 -->
      <g transform="translate(317.375153 267.124782)scale(0.1 -0.1)">
       <use xlink:href="#DejaVuSans-48"/>
       <use x="63.623047" xlink:href="#DejaVuSans-46"/>
       <use x="95.410156" xlink:href="#DejaVuSans-48"/>
       <use x="159.033203" xlink:href="#DejaVuSans-56"/>
      </g>
     </g>
    </g>
    <g id="xtick_37">
     <g id="line2d_86">
      <g>
       <use style="stroke:#000000;stroke-width:0.8;" x="368.937041" xlink:href="#m709beabca1" y="252.526345"/>
      </g>
     </g>
     <g id="text_70">
      <!-- 0.09 -->
      <defs>
       <path d="M 10.984375 1.515625 
L 10.984375 10.5 
Q 14.703125 8.734375 18.5 7.8125 
Q 22.3125 6.890625 25.984375 6.890625 
Q 35.75 6.890625 40.890625 13.453125 
Q 46.046875 20.015625 46.78125 33.40625 
Q 43.953125 29.203125 39.59375 26.953125 
Q 35.25 24.703125 29.984375 24.703125 
Q 19.046875 24.703125 12.671875 31.3125 
Q 6.296875 37.9375 6.296875 49.421875 
Q 6.296875 60.640625 12.9375 67.421875 
Q 19.578125 74.21875 30.609375 74.21875 
Q 43.265625 74.21875 49.921875 64.515625 
Q 56.59375 54.828125 56.59375 36.375 
Q 56.59375 19.140625 48.40625 8.859375 
Q 40.234375 -1.421875 26.421875 -1.421875 
Q 22.703125 -1.421875 18.890625 -0.6875 
Q 15.09375 0.046875 10.984375 1.515625 
z
M 30.609375 32.421875 
Q 37.25 32.421875 41.125 36.953125 
Q 45.015625 41.5 45.015625 49.421875 
Q 45.015625 57.28125 41.125 61.84375 
Q 37.25 66.40625 30.609375 66.40625 
Q 23.96875 66.40625 20.09375 61.84375 
Q 16.21875 57.28125 16.21875 49.421875 
Q 16.21875 41.5 20.09375 36.953125 
Q 23.96875 32.421875 30.609375 32.421875 
z
" id="DejaVuSans-57"/>
      </defs>
      <g transform="translate(357.804229 267.124782)scale(0.1 -0.1)">
       <use xlink:href="#DejaVuSans-48"/>
       <use x="63.623047" xlink:href="#DejaVuSans-46"/>
       <use x="95.410156" xlink:href="#DejaVuSans-48"/>
       <use x="159.033203" xlink:href="#DejaVuSans-57"/>
      </g>
     </g>
    </g>
    <g id="xtick_38">
     <g id="line2d_87">
      <g>
       <use style="stroke:#000000;stroke-width:0.8;" x="409.366117" xlink:href="#m709beabca1" y="252.526345"/>
      </g>
     </g>
     <g id="text_71">
      <!-- 0.10 -->
      <g transform="translate(398.233305 267.124782)scale(0.1 -0.1)">
       <use xlink:href="#DejaVuSans-48"/>
       <use x="63.623047" xlink:href="#DejaVuSans-46"/>
       <use x="95.410156" xlink:href="#DejaVuSans-49"/>
       <use x="159.033203" xlink:href="#DejaVuSans-48"/>
      </g>
     </g>
    </g>
   </g>
   <g id="matplotlib.axis_18">
    <g id="ytick_18">
     <g id="line2d_88">
      <g>
       <use style="stroke:#000000;stroke-width:0.8;" x="252.392727" xlink:href="#mc22c44881f" y="250.440828"/>
      </g>
     </g>
     <g id="text_72">
      <!-- 0 -->
      <g transform="translate(239.030227 254.240046)scale(0.1 -0.1)">
       <use xlink:href="#DejaVuSans-48"/>
      </g>
     </g>
    </g>
    <g id="ytick_19">
     <g id="line2d_89">
      <g>
       <use style="stroke:#000000;stroke-width:0.8;" x="252.392727" xlink:href="#mc22c44881f" y="218.294845"/>
      </g>
     </g>
     <g id="text_73">
      <!-- 50 -->
      <g transform="translate(232.667727 222.094064)scale(0.1 -0.1)">
       <use xlink:href="#DejaVuSans-53"/>
       <use x="63.623047" xlink:href="#DejaVuSans-48"/>
      </g>
     </g>
    </g>
    <g id="text_74">
     <!-- Frequency -->
     <g transform="translate(226.58804 255.883311)rotate(-90)scale(0.1 -0.1)">
      <use xlink:href="#DejaVuSans-70"/>
      <use x="57.410156" xlink:href="#DejaVuSans-114"/>
      <use x="98.492188" xlink:href="#DejaVuSans-101"/>
      <use x="160.015625" xlink:href="#DejaVuSans-113"/>
      <use x="223.492188" xlink:href="#DejaVuSans-117"/>
      <use x="286.871094" xlink:href="#DejaVuSans-101"/>
      <use x="348.394531" xlink:href="#DejaVuSans-110"/>
      <use x="411.773438" xlink:href="#DejaVuSans-99"/>
      <use x="466.753906" xlink:href="#DejaVuSans-121"/>
     </g>
    </g>
   </g>
   <g id="line2d_90">
    <path clip-path="url(#pd4ae0e8cc7)" d="M 259.77124 249.485813 
L 262.782877 249.118008 
L 265.794515 248.63527 
L 268.806153 248.012302 
L 271.817791 247.222026 
L 274.829428 246.236795 
L 277.841066 245.030067 
L 280.852704 243.578507 
L 283.864341 241.864448 
L 286.875979 239.878554 
L 289.887617 237.622506 
L 292.899255 235.111423 
L 295.910892 232.375751 
L 298.92253 229.462316 
L 301.934168 226.434268 
L 304.945805 223.369751 
L 307.957443 220.359187 
L 310.969081 217.501262 
L 313.980719 214.897785 
L 316.992356 212.647799 
L 320.003994 210.841377 
L 323.015632 209.553663 
L 326.027269 208.83969 
L 329.038907 208.730483 
L 332.050545 209.230817 
L 335.062182 210.318876 
L 338.07382 211.94783 
L 341.085458 214.049174 
L 344.097096 216.537508 
L 347.108733 219.316282 
L 350.120371 222.28397 
L 353.132009 225.340134 
L 356.143646 228.390876 
L 359.155284 231.353289 
L 362.166922 234.158647 
L 365.17856 236.754227 
L 368.190197 239.103806 
L 371.201835 241.186971 
L 374.213473 242.997504 
L 377.22511 244.541108 
L 380.236748 245.832787 
L 383.248386 246.894152 
L 386.260024 247.75086 
L 389.271661 248.430378 
L 392.283299 248.960154 
L 395.294937 249.366229 
L 398.306574 249.672311 
L 401.318212 249.899225 
L 404.32985 250.064706 
L 407.341488 250.183435 
" style="fill:none;stroke:#1f77b4;stroke-linecap:square;stroke-width:1.5;"/>
   </g>
   <g id="line2d_91">
    <path clip-path="url(#pd4ae0e8cc7)" d="M 320.714276 250.440828 
L 320.714276 208.730483 
" style="fill:none;stroke:#ff0000;stroke-linecap:square;stroke-width:1.5;"/>
   </g>
   <g id="patch_43">
    <path d="M 252.392727 252.526345 
L 252.392727 206.644966 
" style="fill:none;stroke:#000000;stroke-linecap:square;stroke-linejoin:miter;stroke-width:0.8;"/>
   </g>
   <g id="patch_44">
    <path d="M 414.72 252.526345 
L 414.72 206.644966 
" style="fill:none;stroke:#000000;stroke-linecap:square;stroke-linejoin:miter;stroke-width:0.8;"/>
   </g>
   <g id="patch_45">
    <path d="M 252.392727 252.526345 
L 414.72 252.526345 
" style="fill:none;stroke:#000000;stroke-linecap:square;stroke-linejoin:miter;stroke-width:0.8;"/>
   </g>
   <g id="patch_46">
    <path d="M 252.392727 206.644966 
L 414.72 206.644966 
" style="fill:none;stroke:#000000;stroke-linecap:square;stroke-linejoin:miter;stroke-width:0.8;"/>
   </g>
   <g id="text_75">
    <!-- corr0 -->
    <g transform="translate(317.836364 200.644966)scale(0.12 -0.12)">
     <use xlink:href="#DejaVuSans-99"/>
     <use x="54.980469" xlink:href="#DejaVuSans-111"/>
     <use x="116.162109" xlink:href="#DejaVuSans-114"/>
     <use x="157.259766" xlink:href="#DejaVuSans-114"/>
     <use x="198.373047" xlink:href="#DejaVuSans-48"/>
    </g>
   </g>
  </g>
  <g id="axes_10">
   <g id="patch_47">
    <path d="M 252.392727 307.584 
L 414.72 307.584 
L 414.72 261.702621 
L 252.392727 261.702621 
z
" style="fill:#ffffff;"/>
   </g>
   <g id="matplotlib.axis_19">
    <g id="xtick_39">
     <g id="line2d_92">
      <g>
       <use style="stroke:#000000;stroke-width:0.8;" x="303.293094" xlink:href="#m709beabca1" y="307.584"/>
      </g>
     </g>
     <g id="text_76">
      <!-- 0.20 -->
      <g transform="translate(292.160281 322.182437)scale(0.1 -0.1)">
       <use xlink:href="#DejaVuSans-48"/>
       <use x="63.623047" xlink:href="#DejaVuSans-46"/>
       <use x="95.410156" xlink:href="#DejaVuSans-50"/>
       <use x="159.033203" xlink:href="#DejaVuSans-48"/>
      </g>
     </g>
    </g>
    <g id="xtick_40">
     <g id="line2d_93">
      <g>
       <use style="stroke:#000000;stroke-width:0.8;" x="357.148145" xlink:href="#m709beabca1" y="307.584"/>
      </g>
     </g>
     <g id="text_77">
      <!-- 0.21 -->
      <g transform="translate(346.015333 322.182437)scale(0.1 -0.1)">
       <use xlink:href="#DejaVuSans-48"/>
       <use x="63.623047" xlink:href="#DejaVuSans-46"/>
       <use x="95.410156" xlink:href="#DejaVuSans-50"/>
       <use x="159.033203" xlink:href="#DejaVuSans-49"/>
      </g>
     </g>
    </g>
    <g id="xtick_41">
     <g id="line2d_94">
      <g>
       <use style="stroke:#000000;stroke-width:0.8;" x="411.003197" xlink:href="#m709beabca1" y="307.584"/>
      </g>
     </g>
     <g id="text_78">
      <!-- 0.22 -->
      <g transform="translate(399.870384 322.182437)scale(0.1 -0.1)">
       <use xlink:href="#DejaVuSans-48"/>
       <use x="63.623047" xlink:href="#DejaVuSans-46"/>
       <use x="95.410156" xlink:href="#DejaVuSans-50"/>
       <use x="159.033203" xlink:href="#DejaVuSans-50"/>
      </g>
     </g>
    </g>
   </g>
   <g id="matplotlib.axis_20">
    <g id="ytick_20">
     <g id="line2d_95">
      <g>
       <use style="stroke:#000000;stroke-width:0.8;" x="252.392727" xlink:href="#mc22c44881f" y="305.498483"/>
      </g>
     </g>
     <g id="text_79">
      <!-- 0 -->
      <g transform="translate(239.030227 309.297702)scale(0.1 -0.1)">
       <use xlink:href="#DejaVuSans-48"/>
      </g>
     </g>
    </g>
    <g id="ytick_21">
     <g id="line2d_96">
      <g>
       <use style="stroke:#000000;stroke-width:0.8;" x="252.392727" xlink:href="#mc22c44881f" y="278.050395"/>
      </g>
     </g>
     <g id="text_80">
      <!-- 50 -->
      <g transform="translate(232.667727 281.849614)scale(0.1 -0.1)">
       <use xlink:href="#DejaVuSans-53"/>
       <use x="63.623047" xlink:href="#DejaVuSans-48"/>
      </g>
     </g>
    </g>
    <g id="text_81">
     <!-- Frequency -->
     <g transform="translate(226.58804 310.940967)rotate(-90)scale(0.1 -0.1)">
      <use xlink:href="#DejaVuSans-70"/>
      <use x="57.410156" xlink:href="#DejaVuSans-114"/>
      <use x="98.492188" xlink:href="#DejaVuSans-101"/>
      <use x="160.015625" xlink:href="#DejaVuSans-113"/>
      <use x="223.492188" xlink:href="#DejaVuSans-117"/>
      <use x="286.871094" xlink:href="#DejaVuSans-101"/>
      <use x="348.394531" xlink:href="#DejaVuSans-110"/>
      <use x="411.773438" xlink:href="#DejaVuSans-99"/>
      <use x="466.753906" xlink:href="#DejaVuSans-121"/>
     </g>
    </g>
   </g>
   <g id="line2d_97">
    <path clip-path="url(#pf497997c51)" d="M 259.77124 303.70562 
L 262.782877 303.169028 
L 265.794515 302.50604 
L 268.806153 301.697801 
L 271.817791 300.725812 
L 274.829428 299.572975 
L 277.841066 298.224808 
L 280.852704 296.670806 
L 283.864341 294.905869 
L 286.875979 292.9317 
L 289.887617 290.758082 
L 292.899255 288.403894 
L 295.910892 285.897753 
L 298.92253 283.278176 
L 301.934168 280.593166 
L 304.945805 277.899169 
L 307.957443 275.259393 
L 310.969081 272.74154 
L 313.980719 270.415039 
L 316.992356 268.347929 
L 320.003994 266.603591 
L 323.015632 265.23753 
L 326.027269 264.294448 
L 329.038907 263.805817 
L 332.050545 263.788138 
L 335.062182 264.242008 
L 338.07382 265.152095 
L 341.085458 266.487993 
L 344.097096 268.205908 
L 347.108733 270.251045 
L 350.120371 272.560505 
L 353.132009 275.06648 
L 356.143646 277.699536 
L 359.155284 280.391741 
L 362.166922 283.079465 
L 365.17856 285.705692 
L 368.190197 288.221748 
L 371.201835 290.588383 
L 374.213473 292.776242 
L 377.22511 294.765736 
L 380.236748 296.546435 
L 383.248386 298.116074 
L 386.260024 299.479293 
L 389.271661 300.646244 
L 392.283299 301.63116 
L 395.294937 302.450988 
L 398.306574 303.12416 
L 401.318212 303.669537 
L 404.32985 304.105564 
L 407.341488 304.449628 
" style="fill:none;stroke:#1f77b4;stroke-linecap:square;stroke-width:1.5;"/>
   </g>
   <g id="line2d_98">
    <path clip-path="url(#pf497997c51)" d="M 354.000173 305.498483 
L 354.000173 263.788138 
" style="fill:none;stroke:#ff0000;stroke-linecap:square;stroke-width:1.5;"/>
   </g>
   <g id="patch_48">
    <path d="M 252.392727 307.584 
L 252.392727 261.702621 
" style="fill:none;stroke:#000000;stroke-linecap:square;stroke-linejoin:miter;stroke-width:0.8;"/>
   </g>
   <g id="patch_49">
    <path d="M 414.72 307.584 
L 414.72 261.702621 
" style="fill:none;stroke:#000000;stroke-linecap:square;stroke-linejoin:miter;stroke-width:0.8;"/>
   </g>
   <g id="patch_50">
    <path d="M 252.392727 307.584 
L 414.72 307.584 
" style="fill:none;stroke:#000000;stroke-linecap:square;stroke-linejoin:miter;stroke-width:0.8;"/>
   </g>
   <g id="patch_51">
    <path d="M 252.392727 261.702621 
L 414.72 261.702621 
" style="fill:none;stroke:#000000;stroke-linecap:square;stroke-linejoin:miter;stroke-width:0.8;"/>
   </g>
   <g id="text_82">
    <!-- corr2 -->
    <g transform="translate(317.836364 255.702621)scale(0.12 -0.12)">
     <use xlink:href="#DejaVuSans-99"/>
     <use x="54.980469" xlink:href="#DejaVuSans-111"/>
     <use x="116.162109" xlink:href="#DejaVuSans-114"/>
     <use x="157.259766" xlink:href="#DejaVuSans-114"/>
     <use x="198.373047" xlink:href="#DejaVuSans-50"/>
    </g>
   </g>
  </g>
 </g>
 <defs>
  <clipPath id="p61f326280e">
   <rect height="45.881379" width="162.327273" x="57.6" y="41.472"/>
  </clipPath>
  <clipPath id="pa7923111bd">
   <rect height="45.881379" width="162.327273" x="57.6" y="96.529655"/>
  </clipPath>
  <clipPath id="paf0e4d0423">
   <rect height="45.881379" width="162.327273" x="57.6" y="151.58731"/>
  </clipPath>
  <clipPath id="p7be378d7d3">
   <rect height="45.881379" width="162.327273" x="57.6" y="206.644966"/>
  </clipPath>
  <clipPath id="pdc43b8e021">
   <rect height="45.881379" width="162.327273" x="57.6" y="261.702621"/>
  </clipPath>
  <clipPath id="pd4722335e0">
   <rect height="45.881379" width="162.327273" x="252.392727" y="41.472"/>
  </clipPath>
  <clipPath id="p7c1ce3d9c0">
   <rect height="45.881379" width="162.327273" x="252.392727" y="96.529655"/>
  </clipPath>
  <clipPath id="p3b6edab069">
   <rect height="45.881379" width="162.327273" x="252.392727" y="151.58731"/>
  </clipPath>
  <clipPath id="pd4ae0e8cc7">
   <rect height="45.881379" width="162.327273" x="252.392727" y="206.644966"/>
  </clipPath>
  <clipPath id="pf497997c51">
   <rect height="45.881379" width="162.327273" x="252.392727" y="261.702621"/>
  </clipPath>
 </defs>
</svg>
