<?xml version="1.0" encoding="utf-8" standalone="no"?>
<!DOCTYPE svg PUBLIC "-//W3C//DTD SVG 1.1//EN"
  "http://www.w3.org/Graphics/SVG/1.1/DTD/svg11.dtd">
<!-- Created with matplotlib (https://matplotlib.org/) -->
<svg height="288pt" version="1.1" viewBox="0 0 432 288" width="432pt" xmlns="http://www.w3.org/2000/svg" xmlns:xlink="http://www.w3.org/1999/xlink">
 <defs>
  <style type="text/css">
*{stroke-linecap:butt;stroke-linejoin:round;}
  </style>
 </defs>
 <g id="figure_1">
  <g id="patch_1">
   <path d="M 0 288 
L 432 288 
L 432 0 
L 0 0 
z
" style="fill:#ffffff;"/>
  </g>
  <g id="axes_1">
   <g id="patch_2">
    <path d="M 54 72.049655 
L 206.181818 72.049655 
L 206.181818 34.56 
L 54 34.56 
z
" style="fill:#ffffff;"/>
   </g>
   <g id="matplotlib.axis_1">
    <g id="xtick_1">
     <g id="line2d_1">
      <defs>
       <path d="M 0 0 
L 0 3.5 
" id="m526e822d0a" style="stroke:#000000;stroke-width:0.8;"/>
      </defs>
      <g>
       <use style="stroke:#000000;stroke-width:0.8;" x="84.035199" xlink:href="#m526e822d0a" y="72.049655"/>
      </g>
     </g>
     <g id="text_1">
      <!-- 0.2 -->
      <defs>
       <path d="M 31.78125 66.40625 
Q 24.171875 66.40625 20.328125 58.90625 
Q 16.5 51.421875 16.5 36.375 
Q 16.5 21.390625 20.328125 13.890625 
Q 24.171875 6.390625 31.78125 6.390625 
Q 39.453125 6.390625 43.28125 13.890625 
Q 47.125 21.390625 47.125 36.375 
Q 47.125 51.421875 43.28125 58.90625 
Q 39.453125 66.40625 31.78125 66.40625 
z
M 31.78125 74.21875 
Q 44.046875 74.21875 50.515625 64.515625 
Q 56.984375 54.828125 56.984375 36.375 
Q 56.984375 17.96875 50.515625 8.265625 
Q 44.046875 -1.421875 31.78125 -1.421875 
Q 19.53125 -1.421875 13.0625 8.265625 
Q 6.59375 17.96875 6.59375 36.375 
Q 6.59375 54.828125 13.0625 64.515625 
Q 19.53125 74.21875 31.78125 74.21875 
z
" id="DejaVuSans-48"/>
       <path d="M 10.6875 12.40625 
L 21 12.40625 
L 21 0 
L 10.6875 0 
z
" id="DejaVuSans-46"/>
       <path d="M 19.1875 8.296875 
L 53.609375 8.296875 
L 53.609375 0 
L 7.328125 0 
L 7.328125 8.296875 
Q 12.9375 14.109375 22.625 23.890625 
Q 32.328125 33.6875 34.8125 36.53125 
Q 39.546875 41.84375 41.421875 45.53125 
Q 43.3125 49.21875 43.3125 52.78125 
Q 43.3125 58.59375 39.234375 62.25 
Q 35.15625 65.921875 28.609375 65.921875 
Q 23.96875 65.921875 18.8125 64.3125 
Q 13.671875 62.703125 7.8125 59.421875 
L 7.8125 69.390625 
Q 13.765625 71.78125 18.9375 73 
Q 24.125 74.21875 28.421875 74.21875 
Q 39.75 74.21875 46.484375 68.546875 
Q 53.21875 62.890625 53.21875 53.421875 
Q 53.21875 48.921875 51.53125 44.890625 
Q 49.859375 40.875 45.40625 35.40625 
Q 44.1875 33.984375 37.640625 27.21875 
Q 31.109375 20.453125 19.1875 8.296875 
z
" id="DejaVuSans-50"/>
      </defs>
      <g transform="translate(76.083636 86.648093)scale(0.1 -0.1)">
       <use xlink:href="#DejaVuSans-48"/>
       <use x="63.623047" xlink:href="#DejaVuSans-46"/>
       <use x="95.410156" xlink:href="#DejaVuSans-50"/>
      </g>
     </g>
    </g>
    <g id="xtick_2">
     <g id="line2d_2">
      <g>
       <use style="stroke:#000000;stroke-width:0.8;" x="132.780233" xlink:href="#m526e822d0a" y="72.049655"/>
      </g>
     </g>
     <g id="text_2">
      <!-- 0.3 -->
      <defs>
       <path d="M 40.578125 39.3125 
Q 47.65625 37.796875 51.625 33 
Q 55.609375 28.21875 55.609375 21.1875 
Q 55.609375 10.40625 48.1875 4.484375 
Q 40.765625 -1.421875 27.09375 -1.421875 
Q 22.515625 -1.421875 17.65625 -0.515625 
Q 12.796875 0.390625 7.625 2.203125 
L 7.625 11.71875 
Q 11.71875 9.328125 16.59375 8.109375 
Q 21.484375 6.890625 26.8125 6.890625 
Q 36.078125 6.890625 40.9375 10.546875 
Q 45.796875 14.203125 45.796875 21.1875 
Q 45.796875 27.640625 41.28125 31.265625 
Q 36.765625 34.90625 28.71875 34.90625 
L 20.21875 34.90625 
L 20.21875 43.015625 
L 29.109375 43.015625 
Q 36.375 43.015625 40.234375 45.921875 
Q 44.09375 48.828125 44.09375 54.296875 
Q 44.09375 59.90625 40.109375 62.90625 
Q 36.140625 65.921875 28.71875 65.921875 
Q 24.65625 65.921875 20.015625 65.03125 
Q 15.375 64.15625 9.8125 62.3125 
L 9.8125 71.09375 
Q 15.4375 72.65625 20.34375 73.4375 
Q 25.25 74.21875 29.59375 74.21875 
Q 40.828125 74.21875 47.359375 69.109375 
Q 53.90625 64.015625 53.90625 55.328125 
Q 53.90625 49.265625 50.4375 45.09375 
Q 46.96875 40.921875 40.578125 39.3125 
z
" id="DejaVuSans-51"/>
      </defs>
      <g transform="translate(124.828671 86.648093)scale(0.1 -0.1)">
       <use xlink:href="#DejaVuSans-48"/>
       <use x="63.623047" xlink:href="#DejaVuSans-46"/>
       <use x="95.410156" xlink:href="#DejaVuSans-51"/>
      </g>
     </g>
    </g>
    <g id="xtick_3">
     <g id="line2d_3">
      <g>
       <use style="stroke:#000000;stroke-width:0.8;" x="181.525268" xlink:href="#m526e822d0a" y="72.049655"/>
      </g>
     </g>
     <g id="text_3">
      <!-- 0.4 -->
      <defs>
       <path d="M 37.796875 64.3125 
L 12.890625 25.390625 
L 37.796875 25.390625 
z
M 35.203125 72.90625 
L 47.609375 72.90625 
L 47.609375 25.390625 
L 58.015625 25.390625 
L 58.015625 17.1875 
L 47.609375 17.1875 
L 47.609375 0 
L 37.796875 0 
L 37.796875 17.1875 
L 4.890625 17.1875 
L 4.890625 26.703125 
z
" id="DejaVuSans-52"/>
      </defs>
      <g transform="translate(173.573705 86.648093)scale(0.1 -0.1)">
       <use xlink:href="#DejaVuSans-48"/>
       <use x="63.623047" xlink:href="#DejaVuSans-46"/>
       <use x="95.410156" xlink:href="#DejaVuSans-52"/>
      </g>
     </g>
    </g>
   </g>
   <g id="matplotlib.axis_2">
    <g id="ytick_1">
     <g id="line2d_4">
      <defs>
       <path d="M 0 0 
L -3.5 0 
" id="md346c8915a" style="stroke:#000000;stroke-width:0.8;"/>
      </defs>
      <g>
       <use style="stroke:#000000;stroke-width:0.8;" x="54" xlink:href="#md346c8915a" y="70.34558"/>
      </g>
     </g>
     <g id="text_4">
      <!-- 0 -->
      <g transform="translate(40.6375 74.144799)scale(0.1 -0.1)">
       <use xlink:href="#DejaVuSans-48"/>
      </g>
     </g>
    </g>
    <g id="ytick_2">
     <g id="line2d_5">
      <g>
       <use style="stroke:#000000;stroke-width:0.8;" x="54" xlink:href="#md346c8915a" y="38.905067"/>
      </g>
     </g>
     <g id="text_5">
      <!-- 250 -->
      <defs>
       <path d="M 10.796875 72.90625 
L 49.515625 72.90625 
L 49.515625 64.59375 
L 19.828125 64.59375 
L 19.828125 46.734375 
Q 21.96875 47.46875 24.109375 47.828125 
Q 26.265625 48.1875 28.421875 48.1875 
Q 40.625 48.1875 47.75 41.5 
Q 54.890625 34.8125 54.890625 23.390625 
Q 54.890625 11.625 47.5625 5.09375 
Q 40.234375 -1.421875 26.90625 -1.421875 
Q 22.3125 -1.421875 17.546875 -0.640625 
Q 12.796875 0.140625 7.71875 1.703125 
L 7.71875 11.625 
Q 12.109375 9.234375 16.796875 8.0625 
Q 21.484375 6.890625 26.703125 6.890625 
Q 35.15625 6.890625 40.078125 11.328125 
Q 45.015625 15.765625 45.015625 23.390625 
Q 45.015625 31 40.078125 35.4375 
Q 35.15625 39.890625 26.703125 39.890625 
Q 22.75 39.890625 18.8125 39.015625 
Q 14.890625 38.140625 10.796875 36.28125 
z
" id="DejaVuSans-53"/>
      </defs>
      <g transform="translate(27.9125 42.704285)scale(0.1 -0.1)">
       <use xlink:href="#DejaVuSans-50"/>
       <use x="63.623047" xlink:href="#DejaVuSans-53"/>
       <use x="127.246094" xlink:href="#DejaVuSans-48"/>
      </g>
     </g>
    </g>
    <g id="text_6">
     <!-- Frequency -->
     <defs>
      <path d="M 9.8125 72.90625 
L 51.703125 72.90625 
L 51.703125 64.59375 
L 19.671875 64.59375 
L 19.671875 43.109375 
L 48.578125 43.109375 
L 48.578125 34.8125 
L 19.671875 34.8125 
L 19.671875 0 
L 9.8125 0 
z
" id="DejaVuSans-70"/>
      <path d="M 41.109375 46.296875 
Q 39.59375 47.171875 37.8125 47.578125 
Q 36.03125 48 33.890625 48 
Q 26.265625 48 22.1875 43.046875 
Q 18.109375 38.09375 18.109375 28.8125 
L 18.109375 0 
L 9.078125 0 
L 9.078125 54.6875 
L 18.109375 54.6875 
L 18.109375 46.1875 
Q 20.953125 51.171875 25.484375 53.578125 
Q 30.03125 56 36.53125 56 
Q 37.453125 56 38.578125 55.875 
Q 39.703125 55.765625 41.0625 55.515625 
z
" id="DejaVuSans-114"/>
      <path d="M 56.203125 29.59375 
L 56.203125 25.203125 
L 14.890625 25.203125 
Q 15.484375 15.921875 20.484375 11.0625 
Q 25.484375 6.203125 34.421875 6.203125 
Q 39.59375 6.203125 44.453125 7.46875 
Q 49.3125 8.734375 54.109375 11.28125 
L 54.109375 2.78125 
Q 49.265625 0.734375 44.1875 -0.34375 
Q 39.109375 -1.421875 33.890625 -1.421875 
Q 20.796875 -1.421875 13.15625 6.1875 
Q 5.515625 13.8125 5.515625 26.8125 
Q 5.515625 40.234375 12.765625 48.109375 
Q 20.015625 56 32.328125 56 
Q 43.359375 56 49.78125 48.890625 
Q 56.203125 41.796875 56.203125 29.59375 
z
M 47.21875 32.234375 
Q 47.125 39.59375 43.09375 43.984375 
Q 39.0625 48.390625 32.421875 48.390625 
Q 24.90625 48.390625 20.390625 44.140625 
Q 15.875 39.890625 15.1875 32.171875 
z
" id="DejaVuSans-101"/>
      <path d="M 14.796875 27.296875 
Q 14.796875 17.390625 18.875 11.75 
Q 22.953125 6.109375 30.078125 6.109375 
Q 37.203125 6.109375 41.296875 11.75 
Q 45.40625 17.390625 45.40625 27.296875 
Q 45.40625 37.203125 41.296875 42.84375 
Q 37.203125 48.484375 30.078125 48.484375 
Q 22.953125 48.484375 18.875 42.84375 
Q 14.796875 37.203125 14.796875 27.296875 
z
M 45.40625 8.203125 
Q 42.578125 3.328125 38.25 0.953125 
Q 33.9375 -1.421875 27.875 -1.421875 
Q 17.96875 -1.421875 11.734375 6.484375 
Q 5.515625 14.40625 5.515625 27.296875 
Q 5.515625 40.1875 11.734375 48.09375 
Q 17.96875 56 27.875 56 
Q 33.9375 56 38.25 53.625 
Q 42.578125 51.265625 45.40625 46.390625 
L 45.40625 54.6875 
L 54.390625 54.6875 
L 54.390625 -20.796875 
L 45.40625 -20.796875 
z
" id="DejaVuSans-113"/>
      <path d="M 8.5 21.578125 
L 8.5 54.6875 
L 17.484375 54.6875 
L 17.484375 21.921875 
Q 17.484375 14.15625 20.5 10.265625 
Q 23.53125 6.390625 29.59375 6.390625 
Q 36.859375 6.390625 41.078125 11.03125 
Q 45.3125 15.671875 45.3125 23.6875 
L 45.3125 54.6875 
L 54.296875 54.6875 
L 54.296875 0 
L 45.3125 0 
L 45.3125 8.40625 
Q 42.046875 3.421875 37.71875 1 
Q 33.40625 -1.421875 27.6875 -1.421875 
Q 18.265625 -1.421875 13.375 4.4375 
Q 8.5 10.296875 8.5 21.578125 
z
M 31.109375 56 
z
" id="DejaVuSans-117"/>
      <path d="M 54.890625 33.015625 
L 54.890625 0 
L 45.90625 0 
L 45.90625 32.71875 
Q 45.90625 40.484375 42.875 44.328125 
Q 39.84375 48.1875 33.796875 48.1875 
Q 26.515625 48.1875 22.3125 43.546875 
Q 18.109375 38.921875 18.109375 30.90625 
L 18.109375 0 
L 9.078125 0 
L 9.078125 54.6875 
L 18.109375 54.6875 
L 18.109375 46.1875 
Q 21.34375 51.125 25.703125 53.5625 
Q 30.078125 56 35.796875 56 
Q 45.21875 56 50.046875 50.171875 
Q 54.890625 44.34375 54.890625 33.015625 
z
" id="DejaVuSans-110"/>
      <path d="M 48.78125 52.59375 
L 48.78125 44.1875 
Q 44.96875 46.296875 41.140625 47.34375 
Q 37.3125 48.390625 33.40625 48.390625 
Q 24.65625 48.390625 19.8125 42.84375 
Q 14.984375 37.3125 14.984375 27.296875 
Q 14.984375 17.28125 19.8125 11.734375 
Q 24.65625 6.203125 33.40625 6.203125 
Q 37.3125 6.203125 41.140625 7.25 
Q 44.96875 8.296875 48.78125 10.40625 
L 48.78125 2.09375 
Q 45.015625 0.34375 40.984375 -0.53125 
Q 36.96875 -1.421875 32.421875 -1.421875 
Q 20.0625 -1.421875 12.78125 6.34375 
Q 5.515625 14.109375 5.515625 27.296875 
Q 5.515625 40.671875 12.859375 48.328125 
Q 20.21875 56 33.015625 56 
Q 37.15625 56 41.109375 55.140625 
Q 45.0625 54.296875 48.78125 52.59375 
z
" id="DejaVuSans-99"/>
      <path d="M 32.171875 -5.078125 
Q 28.375 -14.84375 24.75 -17.8125 
Q 21.140625 -20.796875 15.09375 -20.796875 
L 7.90625 -20.796875 
L 7.90625 -13.28125 
L 13.1875 -13.28125 
Q 16.890625 -13.28125 18.9375 -11.515625 
Q 21 -9.765625 23.484375 -3.21875 
L 25.09375 0.875 
L 2.984375 54.6875 
L 12.5 54.6875 
L 29.59375 11.921875 
L 46.6875 54.6875 
L 56.203125 54.6875 
z
" id="DejaVuSans-121"/>
     </defs>
     <g transform="translate(21.832812 79.602484)rotate(-90)scale(0.1 -0.1)">
      <use xlink:href="#DejaVuSans-70"/>
      <use x="57.410156" xlink:href="#DejaVuSans-114"/>
      <use x="98.492188" xlink:href="#DejaVuSans-101"/>
      <use x="160.015625" xlink:href="#DejaVuSans-113"/>
      <use x="223.492188" xlink:href="#DejaVuSans-117"/>
      <use x="286.871094" xlink:href="#DejaVuSans-101"/>
      <use x="348.394531" xlink:href="#DejaVuSans-110"/>
      <use x="411.773438" xlink:href="#DejaVuSans-99"/>
      <use x="466.753906" xlink:href="#DejaVuSans-121"/>
     </g>
    </g>
   </g>
   <g id="line2d_6">
    <path clip-path="url(#pc87a15e5b5)" d="M 60.917355 69.081165 
L 60.990973 68.708995 
L 61.064591 68.249446 
L 61.138208 67.688952 
L 61.211826 67.013819 
L 61.285444 66.21084 
L 61.359061 65.268033 
L 61.432679 64.175496 
L 61.506297 62.926338 
L 61.579914 61.517641 
L 61.653532 59.951395 
L 61.72715 58.235335 
L 61.800767 56.383608 
L 61.874385 54.417188 
L 61.948003 52.363975 
L 62.02162 50.258524 
L 62.095238 48.141361 
L 62.168856 46.057899 
L 62.242473 44.056951 
L 62.316091 42.188918 
L 62.389709 40.503731 
L 62.463326 39.048656 
L 62.536944 37.866111 
L 62.610562 36.991611 
L 62.684179 36.451998 
L 62.757797 36.264075 
L 62.831415 36.433737 
L 62.905032 36.95566 
L 62.97865 37.813585 
L 63.052268 38.981152 
L 63.125885 40.423252 
L 63.199503 42.097773 
L 63.273121 43.957643 
L 63.346738 45.953015 
L 63.420356 48.033459 
L 63.493973 50.150034 
L 63.567591 52.257117 
L 63.641209 54.313898 
L 63.714826 56.285498 
L 63.788444 58.143666 
L 63.862062 59.867073 
L 63.935679 61.441231 
L 64.009297 62.858089 
L 64.082915 64.115383 
L 64.156532 65.215801 
L 64.23015 66.166056 
L 64.303768 66.975918 
L 64.377385 67.657283 
L 64.451003 68.223316 
L 64.524621 68.687701 
" style="fill:none;stroke:#1f77b4;stroke-linecap:square;stroke-width:1.5;"/>
   </g>
   <g id="line2d_7">
    <path clip-path="url(#pc87a15e5b5)" d="M 185.31171 70.251663 
L 185.450463 70.206327 
L 185.589216 70.142143 
L 185.72797 70.05275 
L 185.866723 69.930278 
L 186.005476 69.765251 
L 186.144229 69.546581 
L 186.282983 69.261701 
L 186.421736 68.896883 
L 186.560489 68.437764 
L 186.699243 67.870112 
L 186.837996 67.180823 
L 186.976749 66.359137 
L 187.115503 65.397999 
L 187.254256 64.295483 
L 187.393009 63.056144 
L 187.531763 61.692162 
L 187.670516 60.224112 
L 187.809269 58.681204 
L 187.948023 57.100895 
L 188.086776 55.527775 
L 188.225529 54.011741 
L 188.364283 52.605533 
L 188.503036 51.361768 
L 188.641789 50.329722 
L 188.780543 49.552103 
L 188.919296 49.062123 
L 189.058049 48.881151 
L 189.196803 49.017161 
L 189.335556 49.464156 
L 189.474309 50.202602 
L 189.613063 51.200844 
L 189.751816 52.417358 
L 189.890569 53.803611 
L 190.029323 55.30726 
L 190.168076 56.875395 
L 190.306829 58.457549 
L 190.445582 60.008249 
L 190.584336 61.488939 
L 190.723089 62.869192 
L 190.861842 64.127207 
L 191.000596 65.249646 
L 191.139349 66.23093 
L 191.278102 67.072141 
L 191.416856 67.779692 
L 191.555609 68.363901 
L 191.694362 68.837616 
L 191.833116 69.214975 
L 191.971869 69.510376 
L 192.110622 69.737673 
" style="fill:none;stroke:#ff7f0e;stroke-linecap:square;stroke-width:1.5;"/>
   </g>
   <g id="line2d_8">
    <path clip-path="url(#pc87a15e5b5)" d="M 192.39904 69.157587 
L 192.53915 68.786453 
L 192.679261 68.327131 
L 192.819372 67.767937 
L 192.959482 67.098474 
L 193.099593 66.310623 
L 193.239704 65.399626 
L 193.379814 64.365183 
L 193.519925 63.212475 
L 193.660036 61.952991 
L 193.800146 60.605063 
L 193.940257 59.19399 
L 194.080368 57.751678 
L 194.220478 56.315746 
L 194.360589 54.928097 
L 194.5007 53.633013 
L 194.64081 52.474881 
L 194.780921 51.495697 
L 194.921032 50.732559 
L 195.061143 50.215336 
L 195.201253 49.964729 
L 195.341364 49.990898 
L 195.481475 50.292779 
L 195.621585 50.858154 
L 195.761696 51.664472 
L 195.901807 52.680341 
L 196.041917 53.867557 
L 196.182028 55.183477 
L 196.322139 56.583551 
L 196.462249 58.023778 
L 196.60236 59.462929 
L 196.742471 60.864367 
L 196.882581 62.197377 
L 197.022692 63.437959 
L 197.162803 64.569092 
L 197.302913 65.580525 
L 197.443024 66.468179 
L 197.583135 67.233274 
L 197.723245 67.881286 
L 197.863356 68.420842 
L 198.003467 68.862655 
L 198.143577 69.21855 
L 198.283688 69.50065 
L 198.423799 69.720732 
L 198.563909 69.889756 
L 198.70402 70.017569 
L 198.844131 70.112745 
L 198.984241 70.182546 
L 199.124352 70.232971 
L 199.264463 70.268854 
" style="fill:none;stroke:#2ca02c;stroke-linecap:square;stroke-width:1.5;"/>
   </g>
   <g id="line2d_9">
    <path clip-path="url(#pc87a15e5b5)" d="M 70.465608 70.34558 
L 70.465608 36.264075 
" style="fill:none;stroke:#ff0000;stroke-linecap:square;stroke-width:1.5;"/>
   </g>
   <g id="line2d_10">
    <path clip-path="url(#pc87a15e5b5)" d="M 177.632137 70.34558 
L 177.632137 48.881151 
" style="fill:none;stroke:#ff0000;stroke-linecap:square;stroke-width:1.5;"/>
   </g>
   <g id="line2d_11">
    <path clip-path="url(#pc87a15e5b5)" d="M 198.98799 70.34558 
L 198.98799 49.964729 
" style="fill:none;stroke:#ff0000;stroke-linecap:square;stroke-width:1.5;"/>
   </g>
   <g id="patch_3">
    <path d="M 54 72.049655 
L 54 34.56 
" style="fill:none;stroke:#000000;stroke-linecap:square;stroke-linejoin:miter;stroke-width:0.8;"/>
   </g>
   <g id="patch_4">
    <path d="M 206.181818 72.049655 
L 206.181818 34.56 
" style="fill:none;stroke:#000000;stroke-linecap:square;stroke-linejoin:miter;stroke-width:0.8;"/>
   </g>
   <g id="patch_5">
    <path d="M 54 72.049655 
L 206.181818 72.049655 
" style="fill:none;stroke:#000000;stroke-linecap:square;stroke-linejoin:miter;stroke-width:0.8;"/>
   </g>
   <g id="patch_6">
    <path d="M 54 34.56 
L 206.181818 34.56 
" style="fill:none;stroke:#000000;stroke-linecap:square;stroke-linejoin:miter;stroke-width:0.8;"/>
   </g>
   <g id="text_7">
    <!-- w -->
    <defs>
     <path d="M 4.203125 54.6875 
L 13.1875 54.6875 
L 24.421875 12.015625 
L 35.59375 54.6875 
L 46.1875 54.6875 
L 57.421875 12.015625 
L 68.609375 54.6875 
L 77.59375 54.6875 
L 63.28125 0 
L 52.6875 0 
L 40.921875 44.828125 
L 29.109375 0 
L 18.5 0 
z
" id="DejaVuSans-119"/>
    </defs>
    <g transform="translate(125.184034 28.56)scale(0.12 -0.12)">
     <use xlink:href="#DejaVuSans-119"/>
    </g>
   </g>
  </g>
  <g id="axes_2">
   <g id="patch_7">
    <path d="M 54 117.037241 
L 206.181818 117.037241 
L 206.181818 79.547586 
L 54 79.547586 
z
" style="fill:#ffffff;"/>
   </g>
   <g id="matplotlib.axis_3">
    <g id="xtick_4">
     <g id="line2d_12">
      <g>
       <use style="stroke:#000000;stroke-width:0.8;" x="73.154055" xlink:href="#m526e822d0a" y="117.037241"/>
      </g>
     </g>
     <g id="text_8">
      <!-- 10 -->
      <defs>
       <path d="M 12.40625 8.296875 
L 28.515625 8.296875 
L 28.515625 63.921875 
L 10.984375 60.40625 
L 10.984375 69.390625 
L 28.421875 72.90625 
L 38.28125 72.90625 
L 38.28125 8.296875 
L 54.390625 8.296875 
L 54.390625 0 
L 12.40625 0 
z
" id="DejaVuSans-49"/>
      </defs>
      <g transform="translate(66.791555 131.635679)scale(0.1 -0.1)">
       <use xlink:href="#DejaVuSans-49"/>
       <use x="63.623047" xlink:href="#DejaVuSans-48"/>
      </g>
     </g>
    </g>
    <g id="xtick_5">
     <g id="line2d_13">
      <g>
       <use style="stroke:#000000;stroke-width:0.8;" x="130.924298" xlink:href="#m526e822d0a" y="117.037241"/>
      </g>
     </g>
     <g id="text_9">
      <!-- 20 -->
      <g transform="translate(124.561798 131.635679)scale(0.1 -0.1)">
       <use xlink:href="#DejaVuSans-50"/>
       <use x="63.623047" xlink:href="#DejaVuSans-48"/>
      </g>
     </g>
    </g>
    <g id="xtick_6">
     <g id="line2d_14">
      <g>
       <use style="stroke:#000000;stroke-width:0.8;" x="188.694541" xlink:href="#m526e822d0a" y="117.037241"/>
      </g>
     </g>
     <g id="text_10">
      <!-- 30 -->
      <g transform="translate(182.332041 131.635679)scale(0.1 -0.1)">
       <use xlink:href="#DejaVuSans-51"/>
       <use x="63.623047" xlink:href="#DejaVuSans-48"/>
      </g>
     </g>
    </g>
   </g>
   <g id="matplotlib.axis_4">
    <g id="ytick_3">
     <g id="line2d_15">
      <g>
       <use style="stroke:#000000;stroke-width:0.8;" x="54" xlink:href="#md346c8915a" y="115.333166"/>
      </g>
     </g>
     <g id="text_11">
      <!-- 0.0 -->
      <g transform="translate(31.096875 119.132385)scale(0.1 -0.1)">
       <use xlink:href="#DejaVuSans-48"/>
       <use x="63.623047" xlink:href="#DejaVuSans-46"/>
       <use x="95.410156" xlink:href="#DejaVuSans-48"/>
      </g>
     </g>
    </g>
    <g id="ytick_4">
     <g id="line2d_16">
      <g>
       <use style="stroke:#000000;stroke-width:0.8;" x="54" xlink:href="#md346c8915a" y="88.308582"/>
      </g>
     </g>
     <g id="text_12">
      <!-- 2.5 -->
      <g transform="translate(31.096875 92.1078)scale(0.1 -0.1)">
       <use xlink:href="#DejaVuSans-50"/>
       <use x="63.623047" xlink:href="#DejaVuSans-46"/>
       <use x="95.410156" xlink:href="#DejaVuSans-53"/>
      </g>
     </g>
    </g>
    <g id="text_13">
     <!-- Frequency -->
     <g transform="translate(25.017187 124.59007)rotate(-90)scale(0.1 -0.1)">
      <use xlink:href="#DejaVuSans-70"/>
      <use x="57.410156" xlink:href="#DejaVuSans-114"/>
      <use x="98.492188" xlink:href="#DejaVuSans-101"/>
      <use x="160.015625" xlink:href="#DejaVuSans-113"/>
      <use x="223.492188" xlink:href="#DejaVuSans-117"/>
      <use x="286.871094" xlink:href="#DejaVuSans-101"/>
      <use x="348.394531" xlink:href="#DejaVuSans-110"/>
      <use x="411.773438" xlink:href="#DejaVuSans-99"/>
      <use x="466.753906" xlink:href="#DejaVuSans-121"/>
     </g>
    </g>
   </g>
   <g id="line2d_17">
    <path clip-path="url(#p7d2f6aaed6)" d="M 193.684919 115.301901 
L 193.792515 115.281651 
L 193.900111 115.249855 
L 194.007706 115.200931 
L 194.115302 115.127166 
L 194.222898 115.018197 
L 194.330494 114.860507 
L 194.438089 114.637009 
L 194.545685 114.326824 
L 194.653281 113.905382 
L 194.760877 113.344972 
L 194.868472 112.615889 
L 194.976068 111.688245 
L 195.083664 110.534491 
L 195.191259 109.132567 
L 195.298855 107.469502 
L 195.406451 105.545135 
L 195.514047 103.375546 
L 195.621642 100.995673 
L 195.729238 98.460617 
L 195.836834 95.845167 
L 195.94443 93.241278 
L 196.052025 90.753417 
L 196.159621 88.492016 
L 196.267217 86.565554 
L 196.374813 85.072007 
L 196.482408 84.090625 
L 196.590004 83.67497 
L 196.6976 83.848069 
L 196.805196 84.600308 
L 196.912791 85.890313 
L 197.020387 87.648717 
L 197.127983 89.784342 
L 197.235579 92.192013 
L 197.343174 94.761091 
L 197.45077 97.383753 
L 197.558366 99.96219 
L 197.665962 102.414083 
L 197.773557 104.676019 
L 197.881153 106.704786 
L 197.988749 108.476758 
L 198.096344 109.985761 
L 198.20394 111.239914 
L 198.311536 112.257969 
L 198.419132 113.065618 
L 198.526727 113.692126 
L 198.634323 114.167536 
L 198.741919 114.520558 
L 198.849515 114.777158 
L 198.95711 114.959779 
" style="fill:none;stroke:#1f77b4;stroke-linecap:square;stroke-width:1.5;"/>
   </g>
   <g id="line2d_18">
    <path clip-path="url(#p7d2f6aaed6)" d="M 62.461072 115.247653 
L 62.567404 115.193171 
L 62.673737 115.108777 
L 62.78007 114.981043 
L 62.886402 114.792169 
L 62.992735 114.519397 
L 63.099067 114.134733 
L 63.2054 113.60521 
L 63.311732 112.893907 
L 63.418065 111.961928 
L 63.524398 110.771461 
L 63.63073 109.289905 
L 63.737063 107.494868 
L 63.843395 105.379604 
L 63.949728 102.958269 
L 64.05606 100.270185 
L 64.162393 97.382251 
L 64.268726 94.388736 
L 64.375058 91.407898 
L 64.481391 88.575306 
L 64.587723 86.034203 
L 64.694056 83.923782 
L 64.800388 82.366662 
L 64.906721 81.457123 
L 65.013054 81.251661 
L 65.119386 81.763181 
L 65.225719 82.959652 
L 65.332051 84.767432 
L 65.438384 87.078763 
L 65.544716 89.7624 
L 65.651049 92.675893 
L 65.757382 95.677949 
L 65.863714 98.639398 
L 65.970047 101.451641 
L 66.076379 104.031921 
L 66.182712 106.325304 
L 66.289044 108.303682 
L 66.395377 109.962459 
L 66.50171 111.315759 
L 66.608042 112.391005 
L 66.714375 113.223599 
L 66.820707 113.852263 
L 66.92704 114.315357 
L 67.033372 114.64829 
L 67.139705 114.881971 
L 67.246038 115.042146 
L 67.35237 115.149391 
L 67.458703 115.219545 
L 67.565035 115.26439 
L 67.671368 115.292408 
" style="fill:none;stroke:#ff7f0e;stroke-linecap:square;stroke-width:1.5;"/>
   </g>
   <g id="line2d_19">
    <path clip-path="url(#p7d2f6aaed6)" d="M 199.264463 115.333166 
L 199.264463 83.67497 
" style="fill:none;stroke:#ff0000;stroke-linecap:square;stroke-width:1.5;"/>
   </g>
   <g id="line2d_20">
    <path clip-path="url(#p7d2f6aaed6)" d="M 60.917355 115.333166 
L 60.917355 81.251661 
" style="fill:none;stroke:#ff0000;stroke-linecap:square;stroke-width:1.5;"/>
   </g>
   <g id="patch_8">
    <path d="M 54 117.037241 
L 54 79.547586 
" style="fill:none;stroke:#000000;stroke-linecap:square;stroke-linejoin:miter;stroke-width:0.8;"/>
   </g>
   <g id="patch_9">
    <path d="M 206.181818 117.037241 
L 206.181818 79.547586 
" style="fill:none;stroke:#000000;stroke-linecap:square;stroke-linejoin:miter;stroke-width:0.8;"/>
   </g>
   <g id="patch_10">
    <path d="M 54 117.037241 
L 206.181818 117.037241 
" style="fill:none;stroke:#000000;stroke-linecap:square;stroke-linejoin:miter;stroke-width:0.8;"/>
   </g>
   <g id="patch_11">
    <path d="M 54 79.547586 
L 206.181818 79.547586 
" style="fill:none;stroke:#000000;stroke-linecap:square;stroke-linejoin:miter;stroke-width:0.8;"/>
   </g>
   <g id="text_14">
    <!-- mu2 -->
    <defs>
     <path d="M 52 44.1875 
Q 55.375 50.25 60.0625 53.125 
Q 64.75 56 71.09375 56 
Q 79.640625 56 84.28125 50.015625 
Q 88.921875 44.046875 88.921875 33.015625 
L 88.921875 0 
L 79.890625 0 
L 79.890625 32.71875 
Q 79.890625 40.578125 77.09375 44.375 
Q 74.3125 48.1875 68.609375 48.1875 
Q 61.625 48.1875 57.5625 43.546875 
Q 53.515625 38.921875 53.515625 30.90625 
L 53.515625 0 
L 44.484375 0 
L 44.484375 32.71875 
Q 44.484375 40.625 41.703125 44.40625 
Q 38.921875 48.1875 33.109375 48.1875 
Q 26.21875 48.1875 22.15625 43.53125 
Q 18.109375 38.875 18.109375 30.90625 
L 18.109375 0 
L 9.078125 0 
L 9.078125 54.6875 
L 18.109375 54.6875 
L 18.109375 46.1875 
Q 21.1875 51.21875 25.484375 53.609375 
Q 29.78125 56 35.6875 56 
Q 41.65625 56 45.828125 52.96875 
Q 50 49.953125 52 44.1875 
z
" id="DejaVuSans-109"/>
    </defs>
    <g transform="translate(116.626534 73.547586)scale(0.12 -0.12)">
     <use xlink:href="#DejaVuSans-109"/>
     <use x="97.412109" xlink:href="#DejaVuSans-117"/>
     <use x="160.791016" xlink:href="#DejaVuSans-50"/>
    </g>
   </g>
  </g>
  <g id="axes_3">
   <g id="patch_12">
    <path d="M 54 162.024828 
L 206.181818 162.024828 
L 206.181818 124.535172 
L 54 124.535172 
z
" style="fill:#ffffff;"/>
   </g>
   <g id="matplotlib.axis_5">
    <g id="xtick_7">
     <g id="line2d_21">
      <g>
       <use style="stroke:#000000;stroke-width:0.8;" x="61.247895" xlink:href="#m526e822d0a" y="162.024828"/>
      </g>
     </g>
     <g id="text_15">
      <!-- 0 -->
      <g transform="translate(58.066645 176.623265)scale(0.1 -0.1)">
       <use xlink:href="#DejaVuSans-48"/>
      </g>
     </g>
    </g>
    <g id="xtick_8">
     <g id="line2d_22">
      <g>
       <use style="stroke:#000000;stroke-width:0.8;" x="103.906661" xlink:href="#m526e822d0a" y="162.024828"/>
      </g>
     </g>
     <g id="text_16">
      <!-- 5 -->
      <g transform="translate(100.725411 176.623265)scale(0.1 -0.1)">
       <use xlink:href="#DejaVuSans-53"/>
      </g>
     </g>
    </g>
    <g id="xtick_9">
     <g id="line2d_23">
      <g>
       <use style="stroke:#000000;stroke-width:0.8;" x="146.565427" xlink:href="#m526e822d0a" y="162.024828"/>
      </g>
     </g>
     <g id="text_17">
      <!-- 10 -->
      <g transform="translate(140.202927 176.623265)scale(0.1 -0.1)">
       <use xlink:href="#DejaVuSans-49"/>
       <use x="63.623047" xlink:href="#DejaVuSans-48"/>
      </g>
     </g>
    </g>
    <g id="xtick_10">
     <g id="line2d_24">
      <g>
       <use style="stroke:#000000;stroke-width:0.8;" x="189.224193" xlink:href="#m526e822d0a" y="162.024828"/>
      </g>
     </g>
     <g id="text_18">
      <!-- 15 -->
      <g transform="translate(182.861693 176.623265)scale(0.1 -0.1)">
       <use xlink:href="#DejaVuSans-49"/>
       <use x="63.623047" xlink:href="#DejaVuSans-53"/>
      </g>
     </g>
    </g>
   </g>
   <g id="matplotlib.axis_6">
    <g id="ytick_5">
     <g id="line2d_25">
      <g>
       <use style="stroke:#000000;stroke-width:0.8;" x="54" xlink:href="#md346c8915a" y="160.320752"/>
      </g>
     </g>
     <g id="text_19">
      <!-- 0 -->
      <g transform="translate(40.6375 164.119971)scale(0.1 -0.1)">
       <use xlink:href="#DejaVuSans-48"/>
      </g>
     </g>
    </g>
    <g id="ytick_6">
     <g id="line2d_26">
      <g>
       <use style="stroke:#000000;stroke-width:0.8;" x="54" xlink:href="#md346c8915a" y="129.089722"/>
      </g>
     </g>
     <g id="text_20">
      <!-- 100 -->
      <g transform="translate(27.9125 132.888941)scale(0.1 -0.1)">
       <use xlink:href="#DejaVuSans-49"/>
       <use x="63.623047" xlink:href="#DejaVuSans-48"/>
       <use x="127.246094" xlink:href="#DejaVuSans-48"/>
      </g>
     </g>
    </g>
    <g id="text_21">
     <!-- Frequency -->
     <g transform="translate(21.832812 169.577656)rotate(-90)scale(0.1 -0.1)">
      <use xlink:href="#DejaVuSans-70"/>
      <use x="57.410156" xlink:href="#DejaVuSans-114"/>
      <use x="98.492188" xlink:href="#DejaVuSans-101"/>
      <use x="160.015625" xlink:href="#DejaVuSans-113"/>
      <use x="223.492188" xlink:href="#DejaVuSans-117"/>
      <use x="286.871094" xlink:href="#DejaVuSans-101"/>
      <use x="348.394531" xlink:href="#DejaVuSans-110"/>
      <use x="411.773438" xlink:href="#DejaVuSans-99"/>
      <use x="466.753906" xlink:href="#DejaVuSans-121"/>
     </g>
    </g>
   </g>
   <g id="line2d_27">
    <path clip-path="url(#p412377e3f4)" d="M 197.570527 160.243053 
L 197.605097 160.214825 
L 197.639667 160.178226 
L 197.674237 160.131483 
L 197.708807 160.072688 
L 197.743378 159.999868 
L 197.777948 159.911085 
L 197.812518 159.804559 
L 197.847088 159.678816 
L 197.881658 159.532853 
L 197.916228 159.366313 
L 197.950798 159.17965 
L 197.985368 158.974274 
L 198.019939 158.752654 
L 198.054509 158.518375 
L 198.089079 158.276111 
L 198.123649 158.031534 
L 198.158219 157.791128 
L 198.192789 157.56193 
L 198.227359 157.351206 
L 198.261929 157.166073 
L 198.296499 157.013106 
L 198.33107 156.89795 
L 198.36564 156.824979 
L 198.40021 156.797015 
L 198.43478 156.815151 
L 198.46935 156.878678 
L 198.50392 156.985131 
L 198.53849 157.130448 
L 198.57306 157.309229 
L 198.607631 157.515067 
L 198.642201 157.740925 
L 198.676771 157.979539 
L 198.711341 158.223792 
L 198.745911 158.467058 
L 198.780481 158.703474 
L 198.815051 158.92814 
L 198.849621 159.137236 
L 198.884192 159.328054 
L 198.918762 159.498966 
L 198.953332 159.649324 
L 198.987902 159.779327 
L 199.022472 159.889852 
L 199.057042 159.982287 
L 199.091612 160.058361 
L 199.126182 160.119989 
L 199.160752 160.169146 
L 199.195323 160.20776 
L 199.229893 160.237637 
L 199.264463 160.260412 
" style="fill:none;stroke:#1f77b4;stroke-linecap:square;stroke-width:1.5;"/>
   </g>
   <g id="line2d_28">
    <path clip-path="url(#p412377e3f4)" d="M 60.917355 160.223793 
L 60.92151 160.169062 
L 60.925665 160.087617 
L 60.92982 159.968753 
L 60.933975 159.798644 
L 60.938129 159.559964 
L 60.942284 159.231693 
L 60.946439 158.789229 
L 60.950594 158.204927 
L 60.954749 157.449175 
L 60.958904 156.492104 
L 60.963058 155.305938 
L 60.967213 153.867946 
L 60.971368 152.163822 
L 60.975523 150.191225 
L 60.979678 147.963099 
L 60.983832 145.510338 
L 60.987987 142.883312 
L 60.992142 140.151833 
L 60.996297 137.403271 
L 61.000452 134.738692 
L 61.004607 132.26716 
L 61.008761 130.09857 
L 61.012916 128.335667 
L 61.017071 127.066011 
L 61.021226 126.354785 
L 61.025381 126.239248 
L 61.029535 126.725501 
L 61.03369 127.787957 
L 61.037845 129.371566 
L 61.042 131.396546 
L 61.046155 133.765036 
L 61.050309 136.368909 
L 61.054464 139.097876 
L 61.058619 141.847053 
L 61.062774 144.52327 
L 61.066929 147.049673 
L 61.071084 149.36836 
L 61.075238 151.441098 
L 61.079393 153.248341 
L 61.083548 154.786954 
L 61.087703 156.067085 
L 61.091858 157.10866 
L 61.096012 157.937901 
L 61.100167 158.584191 
L 61.104322 159.077476 
L 61.108477 159.446313 
L 61.112632 159.716559 
L 61.116787 159.910636 
L 61.120941 160.047275 
" style="fill:none;stroke:#ff7f0e;stroke-linecap:square;stroke-width:1.5;"/>
   </g>
   <g id="line2d_29">
    <path clip-path="url(#p412377e3f4)" d="M 195.476932 160.320752 
L 195.476932 156.797015 
" style="fill:none;stroke:#ff0000;stroke-linecap:square;stroke-width:1.5;"/>
   </g>
   <g id="line2d_30">
    <path clip-path="url(#p412377e3f4)" d="M 61.024612 160.320752 
L 61.024612 126.239248 
" style="fill:none;stroke:#ff0000;stroke-linecap:square;stroke-width:1.5;"/>
   </g>
   <g id="patch_13">
    <path d="M 54 162.024828 
L 54 124.535172 
" style="fill:none;stroke:#000000;stroke-linecap:square;stroke-linejoin:miter;stroke-width:0.8;"/>
   </g>
   <g id="patch_14">
    <path d="M 206.181818 162.024828 
L 206.181818 124.535172 
" style="fill:none;stroke:#000000;stroke-linecap:square;stroke-linejoin:miter;stroke-width:0.8;"/>
   </g>
   <g id="patch_15">
    <path d="M 54 162.024828 
L 206.181818 162.024828 
" style="fill:none;stroke:#000000;stroke-linecap:square;stroke-linejoin:miter;stroke-width:0.8;"/>
   </g>
   <g id="patch_16">
    <path d="M 54 124.535172 
L 206.181818 124.535172 
" style="fill:none;stroke:#000000;stroke-linecap:square;stroke-linejoin:miter;stroke-width:0.8;"/>
   </g>
   <g id="text_22">
    <!-- mu0 -->
    <g transform="translate(116.626534 118.535172)scale(0.12 -0.12)">
     <use xlink:href="#DejaVuSans-109"/>
     <use x="97.412109" xlink:href="#DejaVuSans-117"/>
     <use x="160.791016" xlink:href="#DejaVuSans-48"/>
    </g>
   </g>
  </g>
  <g id="axes_4">
   <g id="patch_17">
    <path d="M 54 207.012414 
L 206.181818 207.012414 
L 206.181818 169.522759 
L 54 169.522759 
z
" style="fill:#ffffff;"/>
   </g>
   <g id="matplotlib.axis_7">
    <g id="xtick_11">
     <g id="line2d_31">
      <g>
       <use style="stroke:#000000;stroke-width:0.8;" x="60.143695" xlink:href="#m526e822d0a" y="207.012414"/>
      </g>
     </g>
     <g id="text_23">
      <!-- 0 -->
      <g transform="translate(56.962445 221.610851)scale(0.1 -0.1)">
       <use xlink:href="#DejaVuSans-48"/>
      </g>
     </g>
    </g>
    <g id="xtick_12">
     <g id="line2d_32">
      <g>
       <use style="stroke:#000000;stroke-width:0.8;" x="103.119902" xlink:href="#m526e822d0a" y="207.012414"/>
      </g>
     </g>
     <g id="text_24">
      <!-- 10 -->
      <g transform="translate(96.757402 221.610851)scale(0.1 -0.1)">
       <use xlink:href="#DejaVuSans-49"/>
       <use x="63.623047" xlink:href="#DejaVuSans-48"/>
      </g>
     </g>
    </g>
    <g id="xtick_13">
     <g id="line2d_33">
      <g>
       <use style="stroke:#000000;stroke-width:0.8;" x="146.09611" xlink:href="#m526e822d0a" y="207.012414"/>
      </g>
     </g>
     <g id="text_25">
      <!-- 20 -->
      <g transform="translate(139.73361 221.610851)scale(0.1 -0.1)">
       <use xlink:href="#DejaVuSans-50"/>
       <use x="63.623047" xlink:href="#DejaVuSans-48"/>
      </g>
     </g>
    </g>
    <g id="xtick_14">
     <g id="line2d_34">
      <g>
       <use style="stroke:#000000;stroke-width:0.8;" x="189.072317" xlink:href="#m526e822d0a" y="207.012414"/>
      </g>
     </g>
     <g id="text_26">
      <!-- 30 -->
      <g transform="translate(182.709817 221.610851)scale(0.1 -0.1)">
       <use xlink:href="#DejaVuSans-51"/>
       <use x="63.623047" xlink:href="#DejaVuSans-48"/>
      </g>
     </g>
    </g>
   </g>
   <g id="matplotlib.axis_8">
    <g id="ytick_7">
     <g id="line2d_35">
      <g>
       <use style="stroke:#000000;stroke-width:0.8;" x="54" xlink:href="#md346c8915a" y="205.308339"/>
      </g>
     </g>
     <g id="text_27">
      <!-- 0 -->
      <g transform="translate(40.6375 209.107557)scale(0.1 -0.1)">
       <use xlink:href="#DejaVuSans-48"/>
      </g>
     </g>
    </g>
    <g id="ytick_8">
     <g id="line2d_36">
      <g>
       <use style="stroke:#000000;stroke-width:0.8;" x="54" xlink:href="#md346c8915a" y="176.500368"/>
      </g>
     </g>
     <g id="text_28">
      <!-- 25 -->
      <g transform="translate(34.275 180.299587)scale(0.1 -0.1)">
       <use xlink:href="#DejaVuSans-50"/>
       <use x="63.623047" xlink:href="#DejaVuSans-53"/>
      </g>
     </g>
    </g>
    <g id="text_29">
     <!-- Frequency -->
     <g transform="translate(28.195312 214.565242)rotate(-90)scale(0.1 -0.1)">
      <use xlink:href="#DejaVuSans-70"/>
      <use x="57.410156" xlink:href="#DejaVuSans-114"/>
      <use x="98.492188" xlink:href="#DejaVuSans-101"/>
      <use x="160.015625" xlink:href="#DejaVuSans-113"/>
      <use x="223.492188" xlink:href="#DejaVuSans-117"/>
      <use x="286.871094" xlink:href="#DejaVuSans-101"/>
      <use x="348.394531" xlink:href="#DejaVuSans-110"/>
      <use x="411.773438" xlink:href="#DejaVuSans-99"/>
      <use x="466.753906" xlink:href="#DejaVuSans-121"/>
     </g>
    </g>
   </g>
   <g id="line2d_37">
    <path clip-path="url(#pfb504fed39)" d="M 196.97654 205.211653 
L 197.023233 205.167858 
L 197.069925 205.107863 
L 197.116617 205.02734 
L 197.16331 204.921491 
L 197.210002 204.785255 
L 197.256694 204.613639 
L 197.303386 204.402152 
L 197.350079 204.147337 
L 197.396771 203.847364 
L 197.443463 203.502631 
L 197.490156 203.116306 
L 197.536848 202.694725 
L 197.58354 202.24757 
L 197.630232 201.787758 
L 197.676925 201.330998 
L 197.723617 200.895011 
L 197.770309 200.498459 
L 197.817002 200.159645 
L 197.863694 199.895132 
L 197.910386 199.718401 
L 197.957079 199.638717 
L 198.003771 199.660322 
L 198.050463 199.782063 
L 198.097155 199.99749 
L 198.143848 200.295427 
L 198.19054 200.660929 
L 198.237232 201.076525 
L 198.283925 201.523591 
L 198.330617 201.983718 
L 198.377309 202.439924 
L 198.424001 202.877609 
L 198.470694 203.285198 
L 198.517386 203.654435 
L 198.564078 203.980366 
L 198.610771 204.261059 
L 198.657463 204.497132 
L 198.704155 204.691183 
L 198.750848 204.847178 
L 198.79754 204.96988 
L 198.844232 205.06436 
L 198.890924 205.135598 
L 198.937617 205.188214 
L 198.984309 205.226291 
L 199.031001 205.253297 
L 199.077694 205.272072 
L 199.124386 205.284868 
L 199.171078 205.29342 
L 199.217771 205.299024 
L 199.264463 205.302627 
" style="fill:none;stroke:#1f77b4;stroke-linecap:square;stroke-width:1.5;"/>
   </g>
   <g id="line2d_38">
    <path clip-path="url(#pfb504fed39)" d="M 60.917355 204.901492 
L 60.923984 204.740332 
L 60.930614 204.52563 
L 60.937243 204.243779 
L 60.943872 203.879237 
L 60.950501 203.414776 
L 60.95713 202.831945 
L 60.963759 202.111779 
L 60.970388 201.23576 
L 60.977017 200.187049 
L 60.983646 198.951918 
L 60.990275 197.521356 
L 60.996904 195.892713 
L 61.003534 194.071285 
L 61.010163 192.071659 
L 61.016792 189.918679 
L 61.023421 187.647867 
L 61.03005 185.305164 
L 61.036679 182.945914 
L 61.043308 180.633053 
L 61.049937 178.434554 
L 61.056566 176.42025 
L 61.063195 174.658223 
L 61.069824 173.211018 
L 61.076454 172.131976 
L 61.083083 171.461969 
L 61.089712 171.226834 
L 61.096341 171.435721 
L 61.10297 172.080499 
L 61.109599 173.136285 
L 61.116228 174.563034 
L 61.122857 176.308061 
L 61.129486 178.309266 
L 61.136115 180.498789 
L 61.142744 182.806798 
L 61.149374 185.165116 
L 61.156003 187.510429 
L 61.162632 189.786886 
L 61.169261 191.94795 
L 61.17589 193.957469 
L 61.182519 195.789969 
L 61.189148 197.430279 
L 61.195777 198.872586 
L 61.202406 200.119111 
L 61.209035 201.178534 
L 61.215665 202.064348 
L 61.222294 202.793252 
L 61.228923 203.383697 
L 61.235552 203.854655 
L 61.242181 204.224628 
" style="fill:none;stroke:#ff7f0e;stroke-linecap:square;stroke-width:1.5;"/>
   </g>
   <g id="line2d_39">
    <path clip-path="url(#pfb504fed39)" d="M 194.940268 205.308339 
L 194.940268 199.638717 
" style="fill:none;stroke:#ff0000;stroke-linecap:square;stroke-width:1.5;"/>
   </g>
   <g id="line2d_40">
    <path clip-path="url(#pfb504fed39)" d="M 60.927913 205.308339 
L 60.927913 171.226834 
" style="fill:none;stroke:#ff0000;stroke-linecap:square;stroke-width:1.5;"/>
   </g>
   <g id="patch_18">
    <path d="M 54 207.012414 
L 54 169.522759 
" style="fill:none;stroke:#000000;stroke-linecap:square;stroke-linejoin:miter;stroke-width:0.8;"/>
   </g>
   <g id="patch_19">
    <path d="M 206.181818 207.012414 
L 206.181818 169.522759 
" style="fill:none;stroke:#000000;stroke-linecap:square;stroke-linejoin:miter;stroke-width:0.8;"/>
   </g>
   <g id="patch_20">
    <path d="M 54 207.012414 
L 206.181818 207.012414 
" style="fill:none;stroke:#000000;stroke-linecap:square;stroke-linejoin:miter;stroke-width:0.8;"/>
   </g>
   <g id="patch_21">
    <path d="M 54 169.522759 
L 206.181818 169.522759 
" style="fill:none;stroke:#000000;stroke-linecap:square;stroke-linejoin:miter;stroke-width:0.8;"/>
   </g>
   <g id="text_30">
    <!-- mu1 -->
    <g transform="translate(116.626534 163.522759)scale(0.12 -0.12)">
     <use xlink:href="#DejaVuSans-109"/>
     <use x="97.412109" xlink:href="#DejaVuSans-117"/>
     <use x="160.791016" xlink:href="#DejaVuSans-49"/>
    </g>
   </g>
  </g>
  <g id="axes_5">
   <g id="patch_22">
    <path d="M 54 252 
L 206.181818 252 
L 206.181818 214.510345 
L 54 214.510345 
z
" style="fill:#ffffff;"/>
   </g>
   <g id="matplotlib.axis_9">
    <g id="xtick_15">
     <g id="line2d_41">
      <g>
       <use style="stroke:#000000;stroke-width:0.8;" x="55.000123" xlink:href="#m526e822d0a" y="252"/>
      </g>
     </g>
     <g id="text_31">
      <!-- 14.8 -->
      <defs>
       <path d="M 31.78125 34.625 
Q 24.75 34.625 20.71875 30.859375 
Q 16.703125 27.09375 16.703125 20.515625 
Q 16.703125 13.921875 20.71875 10.15625 
Q 24.75 6.390625 31.78125 6.390625 
Q 38.8125 6.390625 42.859375 10.171875 
Q 46.921875 13.96875 46.921875 20.515625 
Q 46.921875 27.09375 42.890625 30.859375 
Q 38.875 34.625 31.78125 34.625 
z
M 21.921875 38.8125 
Q 15.578125 40.375 12.03125 44.71875 
Q 8.5 49.078125 8.5 55.328125 
Q 8.5 64.0625 14.71875 69.140625 
Q 20.953125 74.21875 31.78125 74.21875 
Q 42.671875 74.21875 48.875 69.140625 
Q 55.078125 64.0625 55.078125 55.328125 
Q 55.078125 49.078125 51.53125 44.71875 
Q 48 40.375 41.703125 38.8125 
Q 48.828125 37.15625 52.796875 32.3125 
Q 56.78125 27.484375 56.78125 20.515625 
Q 56.78125 9.90625 50.3125 4.234375 
Q 43.84375 -1.421875 31.78125 -1.421875 
Q 19.734375 -1.421875 13.25 4.234375 
Q 6.78125 9.90625 6.78125 20.515625 
Q 6.78125 27.484375 10.78125 32.3125 
Q 14.796875 37.15625 21.921875 38.8125 
z
M 18.3125 54.390625 
Q 18.3125 48.734375 21.84375 45.5625 
Q 25.390625 42.390625 31.78125 42.390625 
Q 38.140625 42.390625 41.71875 45.5625 
Q 45.3125 48.734375 45.3125 54.390625 
Q 45.3125 60.0625 41.71875 63.234375 
Q 38.140625 66.40625 31.78125 66.40625 
Q 25.390625 66.40625 21.84375 63.234375 
Q 18.3125 60.0625 18.3125 54.390625 
z
" id="DejaVuSans-56"/>
      </defs>
      <g transform="translate(43.86731 266.598438)scale(0.1 -0.1)">
       <use xlink:href="#DejaVuSans-49"/>
       <use x="63.623047" xlink:href="#DejaVuSans-52"/>
       <use x="127.246094" xlink:href="#DejaVuSans-46"/>
       <use x="159.033203" xlink:href="#DejaVuSans-56"/>
      </g>
     </g>
    </g>
    <g id="xtick_16">
     <g id="line2d_42">
      <g>
       <use style="stroke:#000000;stroke-width:0.8;" x="86.317266" xlink:href="#m526e822d0a" y="252"/>
      </g>
     </g>
     <g id="text_32">
      <!-- 15.0 -->
      <g transform="translate(75.184454 266.598438)scale(0.1 -0.1)">
       <use xlink:href="#DejaVuSans-49"/>
       <use x="63.623047" xlink:href="#DejaVuSans-53"/>
       <use x="127.246094" xlink:href="#DejaVuSans-46"/>
       <use x="159.033203" xlink:href="#DejaVuSans-48"/>
      </g>
     </g>
    </g>
    <g id="xtick_17">
     <g id="line2d_43">
      <g>
       <use style="stroke:#000000;stroke-width:0.8;" x="117.634409" xlink:href="#m526e822d0a" y="252"/>
      </g>
     </g>
     <g id="text_33">
      <!-- 15.2 -->
      <g transform="translate(106.501597 266.598438)scale(0.1 -0.1)">
       <use xlink:href="#DejaVuSans-49"/>
       <use x="63.623047" xlink:href="#DejaVuSans-53"/>
       <use x="127.246094" xlink:href="#DejaVuSans-46"/>
       <use x="159.033203" xlink:href="#DejaVuSans-50"/>
      </g>
     </g>
    </g>
    <g id="xtick_18">
     <g id="line2d_44">
      <g>
       <use style="stroke:#000000;stroke-width:0.8;" x="148.951553" xlink:href="#m526e822d0a" y="252"/>
      </g>
     </g>
     <g id="text_34">
      <!-- 15.4 -->
      <g transform="translate(137.81874 266.598438)scale(0.1 -0.1)">
       <use xlink:href="#DejaVuSans-49"/>
       <use x="63.623047" xlink:href="#DejaVuSans-53"/>
       <use x="127.246094" xlink:href="#DejaVuSans-46"/>
       <use x="159.033203" xlink:href="#DejaVuSans-52"/>
      </g>
     </g>
    </g>
    <g id="xtick_19">
     <g id="line2d_45">
      <g>
       <use style="stroke:#000000;stroke-width:0.8;" x="180.268696" xlink:href="#m526e822d0a" y="252"/>
      </g>
     </g>
     <g id="text_35">
      <!-- 15.6 -->
      <defs>
       <path d="M 33.015625 40.375 
Q 26.375 40.375 22.484375 35.828125 
Q 18.609375 31.296875 18.609375 23.390625 
Q 18.609375 15.53125 22.484375 10.953125 
Q 26.375 6.390625 33.015625 6.390625 
Q 39.65625 6.390625 43.53125 10.953125 
Q 47.40625 15.53125 47.40625 23.390625 
Q 47.40625 31.296875 43.53125 35.828125 
Q 39.65625 40.375 33.015625 40.375 
z
M 52.59375 71.296875 
L 52.59375 62.3125 
Q 48.875 64.0625 45.09375 64.984375 
Q 41.3125 65.921875 37.59375 65.921875 
Q 27.828125 65.921875 22.671875 59.328125 
Q 17.53125 52.734375 16.796875 39.40625 
Q 19.671875 43.65625 24.015625 45.921875 
Q 28.375 48.1875 33.59375 48.1875 
Q 44.578125 48.1875 50.953125 41.515625 
Q 57.328125 34.859375 57.328125 23.390625 
Q 57.328125 12.15625 50.6875 5.359375 
Q 44.046875 -1.421875 33.015625 -1.421875 
Q 20.359375 -1.421875 13.671875 8.265625 
Q 6.984375 17.96875 6.984375 36.375 
Q 6.984375 53.65625 15.1875 63.9375 
Q 23.390625 74.21875 37.203125 74.21875 
Q 40.921875 74.21875 44.703125 73.484375 
Q 48.484375 72.75 52.59375 71.296875 
z
" id="DejaVuSans-54"/>
      </defs>
      <g transform="translate(169.135883 266.598438)scale(0.1 -0.1)">
       <use xlink:href="#DejaVuSans-49"/>
       <use x="63.623047" xlink:href="#DejaVuSans-53"/>
       <use x="127.246094" xlink:href="#DejaVuSans-46"/>
       <use x="159.033203" xlink:href="#DejaVuSans-54"/>
      </g>
     </g>
    </g>
   </g>
   <g id="matplotlib.axis_10">
    <g id="ytick_9">
     <g id="line2d_46">
      <g>
       <use style="stroke:#000000;stroke-width:0.8;" x="54" xlink:href="#md346c8915a" y="250.295925"/>
      </g>
     </g>
     <g id="text_36">
      <!-- 0 -->
      <g transform="translate(40.6375 254.095144)scale(0.1 -0.1)">
       <use xlink:href="#DejaVuSans-48"/>
      </g>
     </g>
    </g>
    <g id="ytick_10">
     <g id="line2d_47">
      <g>
       <use style="stroke:#000000;stroke-width:0.8;" x="54" xlink:href="#md346c8915a" y="214.775821"/>
      </g>
     </g>
     <g id="text_37">
      <!-- 5 -->
      <g transform="translate(40.6375 218.57504)scale(0.1 -0.1)">
       <use xlink:href="#DejaVuSans-53"/>
      </g>
     </g>
    </g>
    <g id="text_38">
     <!-- Frequency -->
     <g transform="translate(34.557812 259.552829)rotate(-90)scale(0.1 -0.1)">
      <use xlink:href="#DejaVuSans-70"/>
      <use x="57.410156" xlink:href="#DejaVuSans-114"/>
      <use x="98.492188" xlink:href="#DejaVuSans-101"/>
      <use x="160.015625" xlink:href="#DejaVuSans-113"/>
      <use x="223.492188" xlink:href="#DejaVuSans-117"/>
      <use x="286.871094" xlink:href="#DejaVuSans-101"/>
      <use x="348.394531" xlink:href="#DejaVuSans-110"/>
      <use x="411.773438" xlink:href="#DejaVuSans-99"/>
      <use x="466.753906" xlink:href="#DejaVuSans-121"/>
     </g>
    </g>
   </g>
   <g id="line2d_48">
    <path clip-path="url(#p387bbb6c4f)" d="M 60.917355 249.168171 
L 62.427751 248.778803 
L 63.938146 248.282351 
L 65.448541 247.659255 
L 66.958937 246.88961 
L 68.469332 245.954274 
L 69.979727 244.836259 
L 71.490122 243.522346 
L 73.000518 242.004842 
L 74.510913 240.28336 
L 76.021308 238.366474 
L 77.531704 236.273067 
L 79.042099 234.03319 
L 80.552494 231.68827 
L 82.062889 229.290538 
L 83.573285 226.901588 
L 85.08368 224.590087 
L 86.594075 222.428696 
L 88.104471 220.490398 
L 89.614866 218.844465 
L 91.125261 217.552372 
L 92.635656 216.663995 
L 94.146052 216.21442 
L 95.656447 216.221641 
L 97.166842 216.685369 
L 98.677238 217.587047 
L 100.187633 218.891085 
L 101.698028 220.547189 
L 103.208424 222.493579 
L 104.718819 224.660805 
L 106.229214 226.975833 
L 107.739609 229.366073 
L 109.250005 231.763039 
L 110.7604 234.1054 
L 112.270795 236.341247 
L 113.781191 238.429506 
L 115.291586 240.340483 
L 116.801981 242.055637 
L 118.312376 243.566697 
L 119.822772 244.874305 
L 121.333167 245.986356 
L 122.843562 246.916213 
L 124.353958 247.680956 
L 125.864353 248.29977 
L 127.374748 248.792565 
L 128.885143 249.178874 
L 130.395539 249.477039 
L 131.905934 249.703661 
L 133.416329 249.873307 
L 134.926725 249.998401 
" style="fill:none;stroke:#1f77b4;stroke-linecap:square;stroke-width:1.5;"/>
   </g>
   <g id="line2d_49">
    <path clip-path="url(#p387bbb6c4f)" d="M 98.648407 249.979111 
L 100.701796 249.801271 
L 102.755185 249.540817 
L 104.808574 249.168913 
L 106.861963 248.651328 
L 108.915352 247.949526 
L 110.968741 247.022851 
L 113.02213 245.831954 
L 115.075519 244.34344 
L 117.128907 242.535477 
L 119.182296 240.403863 
L 121.235685 237.967762 
L 123.289074 235.274145 
L 125.342463 232.399926 
L 127.395852 229.45092 
L 129.449241 226.55708 
L 131.50263 223.864008 
L 133.556018 221.521327 
L 135.609407 219.669143 
L 137.662796 218.424242 
L 139.716185 217.867928 
L 141.769574 218.037232 
L 143.822963 218.920839 
L 145.876352 220.460338 
L 147.929741 222.556607 
L 149.98313 225.080374 
L 152.036518 227.885367 
L 154.089907 230.822229 
L 156.143296 233.75135 
L 158.196685 236.553153 
L 160.250074 239.134887 
L 162.303463 241.433627 
L 164.356852 243.415748 
L 166.410241 245.073594 
L 168.46363 246.420309 
L 170.517018 247.483839 
L 172.570407 248.300994 
L 174.623796 248.912235 
L 176.677185 249.357583 
L 178.730574 249.673775 
L 180.783963 249.892614 
L 182.837352 250.040303 
L 184.890741 250.137521 
L 186.944129 250.199953 
L 188.997518 250.239074 
L 191.050907 250.262999 
L 193.104296 250.27728 
L 195.157685 250.285602 
L 197.211074 250.290337 
L 199.264463 250.292968 
" style="fill:none;stroke:#ff7f0e;stroke-linecap:square;stroke-width:1.5;"/>
   </g>
   <g id="line2d_50">
    <path clip-path="url(#p387bbb6c4f)" d="M 94.323829 250.295925 
L 94.323829 216.21442 
" style="fill:none;stroke:#ff0000;stroke-linecap:square;stroke-width:1.5;"/>
   </g>
   <g id="line2d_51">
    <path clip-path="url(#p387bbb6c4f)" d="M 65.730603 250.295925 
L 65.730603 217.867928 
" style="fill:none;stroke:#ff0000;stroke-linecap:square;stroke-width:1.5;"/>
   </g>
   <g id="patch_23">
    <path d="M 54 252 
L 54 214.510345 
" style="fill:none;stroke:#000000;stroke-linecap:square;stroke-linejoin:miter;stroke-width:0.8;"/>
   </g>
   <g id="patch_24">
    <path d="M 206.181818 252 
L 206.181818 214.510345 
" style="fill:none;stroke:#000000;stroke-linecap:square;stroke-linejoin:miter;stroke-width:0.8;"/>
   </g>
   <g id="patch_25">
    <path d="M 54 252 
L 206.181818 252 
" style="fill:none;stroke:#000000;stroke-linecap:square;stroke-linejoin:miter;stroke-width:0.8;"/>
   </g>
   <g id="patch_26">
    <path d="M 54 214.510345 
L 206.181818 214.510345 
" style="fill:none;stroke:#000000;stroke-linecap:square;stroke-linejoin:miter;stroke-width:0.8;"/>
   </g>
   <g id="text_39">
    <!-- sigma2 -->
    <defs>
     <path d="M 44.28125 53.078125 
L 44.28125 44.578125 
Q 40.484375 46.53125 36.375 47.5 
Q 32.28125 48.484375 27.875 48.484375 
Q 21.1875 48.484375 17.84375 46.4375 
Q 14.5 44.390625 14.5 40.28125 
Q 14.5 37.15625 16.890625 35.375 
Q 19.28125 33.59375 26.515625 31.984375 
L 29.59375 31.296875 
Q 39.15625 29.25 43.1875 25.515625 
Q 47.21875 21.78125 47.21875 15.09375 
Q 47.21875 7.46875 41.1875 3.015625 
Q 35.15625 -1.421875 24.609375 -1.421875 
Q 20.21875 -1.421875 15.453125 -0.5625 
Q 10.6875 0.296875 5.421875 2 
L 5.421875 11.28125 
Q 10.40625 8.6875 15.234375 7.390625 
Q 20.0625 6.109375 24.8125 6.109375 
Q 31.15625 6.109375 34.5625 8.28125 
Q 37.984375 10.453125 37.984375 14.40625 
Q 37.984375 18.0625 35.515625 20.015625 
Q 33.0625 21.96875 24.703125 23.78125 
L 21.578125 24.515625 
Q 13.234375 26.265625 9.515625 29.90625 
Q 5.8125 33.546875 5.8125 39.890625 
Q 5.8125 47.609375 11.28125 51.796875 
Q 16.75 56 26.8125 56 
Q 31.78125 56 36.171875 55.265625 
Q 40.578125 54.546875 44.28125 53.078125 
z
" id="DejaVuSans-115"/>
     <path d="M 9.421875 54.6875 
L 18.40625 54.6875 
L 18.40625 0 
L 9.421875 0 
z
M 9.421875 75.984375 
L 18.40625 75.984375 
L 18.40625 64.59375 
L 9.421875 64.59375 
z
" id="DejaVuSans-105"/>
     <path d="M 45.40625 27.984375 
Q 45.40625 37.75 41.375 43.109375 
Q 37.359375 48.484375 30.078125 48.484375 
Q 22.859375 48.484375 18.828125 43.109375 
Q 14.796875 37.75 14.796875 27.984375 
Q 14.796875 18.265625 18.828125 12.890625 
Q 22.859375 7.515625 30.078125 7.515625 
Q 37.359375 7.515625 41.375 12.890625 
Q 45.40625 18.265625 45.40625 27.984375 
z
M 54.390625 6.78125 
Q 54.390625 -7.171875 48.1875 -13.984375 
Q 42 -20.796875 29.203125 -20.796875 
Q 24.46875 -20.796875 20.265625 -20.09375 
Q 16.0625 -19.390625 12.109375 -17.921875 
L 12.109375 -9.1875 
Q 16.0625 -11.328125 19.921875 -12.34375 
Q 23.78125 -13.375 27.78125 -13.375 
Q 36.625 -13.375 41.015625 -8.765625 
Q 45.40625 -4.15625 45.40625 5.171875 
L 45.40625 9.625 
Q 42.625 4.78125 38.28125 2.390625 
Q 33.9375 0 27.875 0 
Q 17.828125 0 11.671875 7.65625 
Q 5.515625 15.328125 5.515625 27.984375 
Q 5.515625 40.671875 11.671875 48.328125 
Q 17.828125 56 27.875 56 
Q 33.9375 56 38.28125 53.609375 
Q 42.625 51.21875 45.40625 46.390625 
L 45.40625 54.6875 
L 54.390625 54.6875 
z
" id="DejaVuSans-103"/>
     <path d="M 34.28125 27.484375 
Q 23.390625 27.484375 19.1875 25 
Q 14.984375 22.515625 14.984375 16.5 
Q 14.984375 11.71875 18.140625 8.90625 
Q 21.296875 6.109375 26.703125 6.109375 
Q 34.1875 6.109375 38.703125 11.40625 
Q 43.21875 16.703125 43.21875 25.484375 
L 43.21875 27.484375 
z
M 52.203125 31.203125 
L 52.203125 0 
L 43.21875 0 
L 43.21875 8.296875 
Q 40.140625 3.328125 35.546875 0.953125 
Q 30.953125 -1.421875 24.3125 -1.421875 
Q 15.921875 -1.421875 10.953125 3.296875 
Q 6 8.015625 6 15.921875 
Q 6 25.140625 12.171875 29.828125 
Q 18.359375 34.515625 30.609375 34.515625 
L 43.21875 34.515625 
L 43.21875 35.40625 
Q 43.21875 41.609375 39.140625 45 
Q 35.0625 48.390625 27.6875 48.390625 
Q 23 48.390625 18.546875 47.265625 
Q 14.109375 46.140625 10.015625 43.890625 
L 10.015625 52.203125 
Q 14.9375 54.109375 19.578125 55.046875 
Q 24.21875 56 28.609375 56 
Q 40.484375 56 46.34375 49.84375 
Q 52.203125 43.703125 52.203125 31.203125 
z
" id="DejaVuSans-97"/>
    </defs>
    <g transform="translate(108.150597 208.510345)scale(0.12 -0.12)">
     <use xlink:href="#DejaVuSans-115"/>
     <use x="52.099609" xlink:href="#DejaVuSans-105"/>
     <use x="79.882812" xlink:href="#DejaVuSans-103"/>
     <use x="143.359375" xlink:href="#DejaVuSans-109"/>
     <use x="240.771484" xlink:href="#DejaVuSans-97"/>
     <use x="302.050781" xlink:href="#DejaVuSans-50"/>
    </g>
   </g>
  </g>
  <g id="axes_6">
   <g id="patch_27">
    <path d="M 236.618182 72.049655 
L 388.8 72.049655 
L 388.8 34.56 
L 236.618182 34.56 
z
" style="fill:#ffffff;"/>
   </g>
   <g id="matplotlib.axis_11">
    <g id="xtick_20">
     <g id="line2d_52">
      <g>
       <use style="stroke:#000000;stroke-width:0.8;" x="254.070721" xlink:href="#m526e822d0a" y="72.049655"/>
      </g>
     </g>
     <g id="text_40">
      <!-- 1 -->
      <g transform="translate(250.889471 86.648093)scale(0.1 -0.1)">
       <use xlink:href="#DejaVuSans-49"/>
      </g>
     </g>
    </g>
    <g id="xtick_21">
     <g id="line2d_53">
      <g>
       <use style="stroke:#000000;stroke-width:0.8;" x="285.487877" xlink:href="#m526e822d0a" y="72.049655"/>
      </g>
     </g>
     <g id="text_41">
      <!-- 2 -->
      <g transform="translate(282.306627 86.648093)scale(0.1 -0.1)">
       <use xlink:href="#DejaVuSans-50"/>
      </g>
     </g>
    </g>
    <g id="xtick_22">
     <g id="line2d_54">
      <g>
       <use style="stroke:#000000;stroke-width:0.8;" x="316.905033" xlink:href="#m526e822d0a" y="72.049655"/>
      </g>
     </g>
     <g id="text_42">
      <!-- 3 -->
      <g transform="translate(313.723783 86.648093)scale(0.1 -0.1)">
       <use xlink:href="#DejaVuSans-51"/>
      </g>
     </g>
    </g>
    <g id="xtick_23">
     <g id="line2d_55">
      <g>
       <use style="stroke:#000000;stroke-width:0.8;" x="348.32219" xlink:href="#m526e822d0a" y="72.049655"/>
      </g>
     </g>
     <g id="text_43">
      <!-- 4 -->
      <g transform="translate(345.14094 86.648093)scale(0.1 -0.1)">
       <use xlink:href="#DejaVuSans-52"/>
      </g>
     </g>
    </g>
    <g id="xtick_24">
     <g id="line2d_56">
      <g>
       <use style="stroke:#000000;stroke-width:0.8;" x="379.739346" xlink:href="#m526e822d0a" y="72.049655"/>
      </g>
     </g>
     <g id="text_44">
      <!-- 5 -->
      <g transform="translate(376.558096 86.648093)scale(0.1 -0.1)">
       <use xlink:href="#DejaVuSans-53"/>
      </g>
     </g>
    </g>
   </g>
   <g id="matplotlib.axis_12">
    <g id="ytick_11">
     <g id="line2d_57">
      <g>
       <use style="stroke:#000000;stroke-width:0.8;" x="236.618182" xlink:href="#md346c8915a" y="70.34558"/>
      </g>
     </g>
     <g id="text_45">
      <!-- 0 -->
      <g transform="translate(223.255682 74.144799)scale(0.1 -0.1)">
       <use xlink:href="#DejaVuSans-48"/>
      </g>
     </g>
    </g>
    <g id="ytick_12">
     <g id="line2d_58">
      <g>
       <use style="stroke:#000000;stroke-width:0.8;" x="236.618182" xlink:href="#md346c8915a" y="36.495986"/>
      </g>
     </g>
     <g id="text_46">
      <!-- 100 -->
      <g transform="translate(210.530682 40.295205)scale(0.1 -0.1)">
       <use xlink:href="#DejaVuSans-49"/>
       <use x="63.623047" xlink:href="#DejaVuSans-48"/>
       <use x="127.246094" xlink:href="#DejaVuSans-48"/>
      </g>
     </g>
    </g>
    <g id="text_47">
     <!-- Frequency -->
     <g transform="translate(204.450994 79.602484)rotate(-90)scale(0.1 -0.1)">
      <use xlink:href="#DejaVuSans-70"/>
      <use x="57.410156" xlink:href="#DejaVuSans-114"/>
      <use x="98.492188" xlink:href="#DejaVuSans-101"/>
      <use x="160.015625" xlink:href="#DejaVuSans-113"/>
      <use x="223.492188" xlink:href="#DejaVuSans-117"/>
      <use x="286.871094" xlink:href="#DejaVuSans-101"/>
      <use x="348.394531" xlink:href="#DejaVuSans-110"/>
      <use x="411.773438" xlink:href="#DejaVuSans-99"/>
      <use x="466.753906" xlink:href="#DejaVuSans-121"/>
     </g>
    </g>
   </g>
   <g id="line2d_59">
    <path clip-path="url(#p87f01f47b9)" d="M 376.177909 70.331976 
L 376.294332 70.323996 
L 376.410755 70.31197 
L 376.527178 70.294218 
L 376.643602 70.268552 
L 376.760025 70.232208 
L 376.876448 70.181821 
L 376.992871 70.113442 
L 377.109294 70.022635 
L 377.225717 69.904665 
L 377.342141 69.754803 
L 377.458564 69.568734 
L 377.574987 69.343071 
L 377.69141 69.075928 
L 377.807833 68.76752 
L 377.924257 68.420694 
L 378.04068 68.041333 
L 378.157103 67.638534 
L 378.273526 67.224501 
L 378.389949 66.814102 
L 378.506372 66.424092 
L 378.622796 66.07204 
L 378.739219 65.775043 
L 378.855642 65.548364 
L 378.972065 65.404135 
L 379.088488 65.350285 
L 379.204912 65.389812 
L 379.321335 65.520513 
L 379.437758 65.735183 
L 379.554181 66.022276 
L 379.670604 66.366928 
L 379.787027 66.752238 
L 379.903451 67.160621 
L 380.019874 67.575121 
L 380.136297 67.98052 
L 380.25272 68.364167 
L 380.369143 68.716469 
L 380.485566 69.031055 
L 380.60199 69.304631 
L 380.718413 69.536609 
L 380.834836 69.728589 
L 380.951259 69.883766 
L 381.067682 70.006347 
L 381.184106 70.101028 
L 381.300529 70.172563 
L 381.416952 70.225451 
L 381.533375 70.263724 
L 381.649798 70.290842 
L 381.766221 70.309656 
L 381.882645 70.322443 
" style="fill:none;stroke:#1f77b4;stroke-linecap:square;stroke-width:1.5;"/>
   </g>
   <g id="line2d_60">
    <path clip-path="url(#p87f01f47b9)" d="M 243.855177 69.998501 
L 243.869922 69.851957 
L 243.884667 69.653342 
L 243.899412 69.38837 
L 243.914157 69.040458 
L 243.928901 68.590944 
L 243.943646 68.019551 
L 243.958391 67.305148 
L 243.973136 66.426829 
L 243.987881 65.36532 
L 244.002626 64.104661 
L 244.017371 62.634111 
L 244.032116 60.950124 
L 244.04686 59.058264 
L 244.061605 56.974835 
L 244.07635 54.72804 
L 244.091095 52.358455 
L 244.10584 49.918655 
L 244.120585 47.471885 
L 244.13533 45.089743 
L 244.150075 42.84896 
L 244.164819 40.827442 
L 244.179564 39.099847 
L 244.194309 37.733044 
L 244.209054 36.781826 
L 244.223799 36.28527 
L 244.238544 36.264075 
L 244.253289 36.719129 
L 244.268034 37.631448 
L 244.282778 38.963489 
L 244.297523 40.661714 
L 244.312268 42.660158 
L 244.327013 44.884669 
L 244.341758 47.257446 
L 244.356503 49.701486 
L 244.371248 52.144594 
L 244.385993 54.522679 
L 244.400737 56.782153 
L 244.415482 58.881351 
L 244.430227 60.790983 
L 244.444972 62.49373 
L 244.459717 63.98314 
L 244.474462 65.262025 
L 244.489207 66.340571 
L 244.503952 67.234355 
L 244.518696 67.962429 
L 244.533441 68.545616 
L 244.548186 69.005076 
L 244.562931 69.361196 
L 244.577676 69.632804 
" style="fill:none;stroke:#ff7f0e;stroke-linecap:square;stroke-width:1.5;"/>
   </g>
   <g id="line2d_61">
    <path clip-path="url(#p87f01f47b9)" d="M 370.992462 70.34558 
L 370.992462 65.350285 
" style="fill:none;stroke:#ff0000;stroke-linecap:square;stroke-width:1.5;"/>
   </g>
   <g id="line2d_62">
    <path clip-path="url(#p87f01f47b9)" d="M 243.535537 70.34558 
L 243.535537 36.264075 
" style="fill:none;stroke:#ff0000;stroke-linecap:square;stroke-width:1.5;"/>
   </g>
   <g id="patch_28">
    <path d="M 236.618182 72.049655 
L 236.618182 34.56 
" style="fill:none;stroke:#000000;stroke-linecap:square;stroke-linejoin:miter;stroke-width:0.8;"/>
   </g>
   <g id="patch_29">
    <path d="M 388.8 72.049655 
L 388.8 34.56 
" style="fill:none;stroke:#000000;stroke-linecap:square;stroke-linejoin:miter;stroke-width:0.8;"/>
   </g>
   <g id="patch_30">
    <path d="M 236.618182 72.049655 
L 388.8 72.049655 
" style="fill:none;stroke:#000000;stroke-linecap:square;stroke-linejoin:miter;stroke-width:0.8;"/>
   </g>
   <g id="patch_31">
    <path d="M 236.618182 34.56 
L 388.8 34.56 
" style="fill:none;stroke:#000000;stroke-linecap:square;stroke-linejoin:miter;stroke-width:0.8;"/>
   </g>
   <g id="text_48">
    <!-- sigma0 -->
    <g transform="translate(290.768778 28.56)scale(0.12 -0.12)">
     <use xlink:href="#DejaVuSans-115"/>
     <use x="52.099609" xlink:href="#DejaVuSans-105"/>
     <use x="79.882812" xlink:href="#DejaVuSans-103"/>
     <use x="143.359375" xlink:href="#DejaVuSans-109"/>
     <use x="240.771484" xlink:href="#DejaVuSans-97"/>
     <use x="302.050781" xlink:href="#DejaVuSans-48"/>
    </g>
   </g>
  </g>
  <g id="axes_7">
   <g id="patch_32">
    <path d="M 236.618182 117.037241 
L 388.8 117.037241 
L 388.8 79.547586 
L 236.618182 79.547586 
z
" style="fill:#ffffff;"/>
   </g>
   <g id="matplotlib.axis_13">
    <g id="xtick_25">
     <g id="line2d_63">
      <g>
       <use style="stroke:#000000;stroke-width:0.8;" x="247.201683" xlink:href="#m526e822d0a" y="117.037241"/>
      </g>
     </g>
     <g id="text_49">
      <!-- 2.5 -->
      <g transform="translate(239.25012 131.635679)scale(0.1 -0.1)">
       <use xlink:href="#DejaVuSans-50"/>
       <use x="63.623047" xlink:href="#DejaVuSans-46"/>
       <use x="95.410156" xlink:href="#DejaVuSans-53"/>
      </g>
     </g>
    </g>
    <g id="xtick_26">
     <g id="line2d_64">
      <g>
       <use style="stroke:#000000;stroke-width:0.8;" x="281.472943" xlink:href="#m526e822d0a" y="117.037241"/>
      </g>
     </g>
     <g id="text_50">
      <!-- 5.0 -->
      <g transform="translate(273.521381 131.635679)scale(0.1 -0.1)">
       <use xlink:href="#DejaVuSans-53"/>
       <use x="63.623047" xlink:href="#DejaVuSans-46"/>
       <use x="95.410156" xlink:href="#DejaVuSans-48"/>
      </g>
     </g>
    </g>
    <g id="xtick_27">
     <g id="line2d_65">
      <g>
       <use style="stroke:#000000;stroke-width:0.8;" x="315.744204" xlink:href="#m526e822d0a" y="117.037241"/>
      </g>
     </g>
     <g id="text_51">
      <!-- 7.5 -->
      <defs>
       <path d="M 8.203125 72.90625 
L 55.078125 72.90625 
L 55.078125 68.703125 
L 28.609375 0 
L 18.3125 0 
L 43.21875 64.59375 
L 8.203125 64.59375 
z
" id="DejaVuSans-55"/>
      </defs>
      <g transform="translate(307.792642 131.635679)scale(0.1 -0.1)">
       <use xlink:href="#DejaVuSans-55"/>
       <use x="63.623047" xlink:href="#DejaVuSans-46"/>
       <use x="95.410156" xlink:href="#DejaVuSans-53"/>
      </g>
     </g>
    </g>
    <g id="xtick_28">
     <g id="line2d_66">
      <g>
       <use style="stroke:#000000;stroke-width:0.8;" x="350.015465" xlink:href="#m526e822d0a" y="117.037241"/>
      </g>
     </g>
     <g id="text_52">
      <!-- 10.0 -->
      <g transform="translate(338.882652 131.635679)scale(0.1 -0.1)">
       <use xlink:href="#DejaVuSans-49"/>
       <use x="63.623047" xlink:href="#DejaVuSans-48"/>
       <use x="127.246094" xlink:href="#DejaVuSans-46"/>
       <use x="159.033203" xlink:href="#DejaVuSans-48"/>
      </g>
     </g>
    </g>
    <g id="xtick_29">
     <g id="line2d_67">
      <g>
       <use style="stroke:#000000;stroke-width:0.8;" x="384.286726" xlink:href="#m526e822d0a" y="117.037241"/>
      </g>
     </g>
     <g id="text_53">
      <!-- 12.5 -->
      <g transform="translate(373.153913 131.635679)scale(0.1 -0.1)">
       <use xlink:href="#DejaVuSans-49"/>
       <use x="63.623047" xlink:href="#DejaVuSans-50"/>
       <use x="127.246094" xlink:href="#DejaVuSans-46"/>
       <use x="159.033203" xlink:href="#DejaVuSans-53"/>
      </g>
     </g>
    </g>
   </g>
   <g id="matplotlib.axis_14">
    <g id="ytick_13">
     <g id="line2d_68">
      <g>
       <use style="stroke:#000000;stroke-width:0.8;" x="236.618182" xlink:href="#md346c8915a" y="115.333166"/>
      </g>
     </g>
     <g id="text_54">
      <!-- 0 -->
      <g transform="translate(223.255682 119.132385)scale(0.1 -0.1)">
       <use xlink:href="#DejaVuSans-48"/>
      </g>
     </g>
    </g>
    <g id="ytick_14">
     <g id="line2d_69">
      <g>
       <use style="stroke:#000000;stroke-width:0.8;" x="236.618182" xlink:href="#md346c8915a" y="82.859862"/>
      </g>
     </g>
     <g id="text_55">
      <!-- 25 -->
      <g transform="translate(216.893182 86.659081)scale(0.1 -0.1)">
       <use xlink:href="#DejaVuSans-50"/>
       <use x="63.623047" xlink:href="#DejaVuSans-53"/>
      </g>
     </g>
    </g>
    <g id="text_56">
     <!-- Frequency -->
     <g transform="translate(210.813494 124.59007)rotate(-90)scale(0.1 -0.1)">
      <use xlink:href="#DejaVuSans-70"/>
      <use x="57.410156" xlink:href="#DejaVuSans-114"/>
      <use x="98.492188" xlink:href="#DejaVuSans-101"/>
      <use x="160.015625" xlink:href="#DejaVuSans-113"/>
      <use x="223.492188" xlink:href="#DejaVuSans-117"/>
      <use x="286.871094" xlink:href="#DejaVuSans-101"/>
      <use x="348.394531" xlink:href="#DejaVuSans-110"/>
      <use x="411.773438" xlink:href="#DejaVuSans-99"/>
      <use x="466.753906" xlink:href="#DejaVuSans-121"/>
     </g>
    </g>
   </g>
   <g id="line2d_70">
    <path clip-path="url(#p0bb3b61bba)" d="M 378.535278 115.150275 
L 378.603592 115.071848 
L 378.671905 114.965567 
L 378.740219 114.824062 
L 378.808532 114.638997 
L 378.876846 114.401306 
L 378.94516 114.101584 
L 379.013473 113.730648 
L 379.081787 113.280259 
L 379.150101 112.743984 
L 379.218414 112.118152 
L 379.286728 111.402826 
L 379.355041 110.602697 
L 379.423355 109.727783 
L 379.491669 108.793836 
L 379.559982 107.822331 
L 379.628296 106.839991 
L 379.696609 105.877788 
L 379.764923 104.969471 
L 379.833237 104.149678 
L 379.90155 103.451787 
L 379.969864 102.905677 
L 380.038177 102.535616 
L 380.106491 102.358469 
L 380.174805 102.382427 
L 380.243118 102.606378 
L 380.311432 103.019993 
L 380.379745 103.604514 
L 380.448059 104.334167 
L 380.516373 105.178044 
L 380.584686 106.102266 
L 380.653 107.072218 
L 380.721313 108.054653 
L 380.789627 109.019489 
L 380.857941 109.941177 
L 380.926254 110.799572 
L 380.994568 111.5803 
L 381.062881 112.274652 
L 381.131195 112.879108 
L 381.199509 113.394575 
L 381.267822 113.825468 
L 381.336136 114.178731 
L 381.404449 114.462901 
L 381.472763 114.687273 
L 381.541077 114.861215 
L 381.60939 114.993651 
L 381.677704 115.092702 
L 381.746017 115.165492 
L 381.814331 115.218057 
L 381.882645 115.255366 
" style="fill:none;stroke:#1f77b4;stroke-linecap:square;stroke-width:1.5;"/>
   </g>
   <g id="line2d_71">
    <path clip-path="url(#p0bb3b61bba)" d="M 245.806713 114.637266 
L 245.834561 114.331957 
L 245.862408 113.918179 
L 245.890256 113.368766 
L 245.918104 112.654263 
L 245.945952 111.744493 
L 245.9738 110.610793 
L 246.001648 109.228858 
L 246.029496 107.582085 
L 246.057344 105.66514 
L 246.085192 103.487405 
L 246.11304 101.075848 
L 246.140888 98.476861 
L 246.168736 95.756596 
L 246.196584 92.999476 
L 246.224432 90.30471 
L 246.25228 87.7809 
L 246.280127 85.539068 
L 246.307975 83.684686 
L 246.335823 82.30951 
L 246.363671 81.484067 
L 246.391519 81.251661 
L 246.419367 81.624615 
L 246.447215 82.583183 
L 246.475063 84.077284 
L 246.502911 86.030838 
L 246.530759 88.348182 
L 246.558607 90.921811 
L 246.586455 93.640583 
L 246.614303 96.39751 
L 246.642151 99.096416 
L 246.669999 101.6569 
L 246.697846 104.017356 
L 246.725694 106.136013 
L 246.753542 107.990211 
L 246.78139 109.574286 
L 246.809238 110.896519 
L 246.837086 111.975625 
L 246.864934 112.837207 
L 246.892782 113.510516 
L 246.92063 114.025735 
L 246.948478 114.411902 
L 246.976326 114.695492 
L 247.004174 114.899592 
L 247.032022 115.04358 
L 247.05987 115.143171 
L 247.087718 115.210717 
L 247.115566 115.255645 
L 247.143413 115.284957 
L 247.171261 115.303716 
" style="fill:none;stroke:#ff7f0e;stroke-linecap:square;stroke-width:1.5;"/>
   </g>
   <g id="line2d_72">
    <path clip-path="url(#p0bb3b61bba)" d="M 377.999909 115.333166 
L 377.999909 102.358469 
" style="fill:none;stroke:#ff0000;stroke-linecap:square;stroke-width:1.5;"/>
   </g>
   <g id="line2d_73">
    <path clip-path="url(#p0bb3b61bba)" d="M 243.535537 115.333166 
L 243.535537 81.251661 
" style="fill:none;stroke:#ff0000;stroke-linecap:square;stroke-width:1.5;"/>
   </g>
   <g id="patch_33">
    <path d="M 236.618182 117.037241 
L 236.618182 79.547586 
" style="fill:none;stroke:#000000;stroke-linecap:square;stroke-linejoin:miter;stroke-width:0.8;"/>
   </g>
   <g id="patch_34">
    <path d="M 388.8 117.037241 
L 388.8 79.547586 
" style="fill:none;stroke:#000000;stroke-linecap:square;stroke-linejoin:miter;stroke-width:0.8;"/>
   </g>
   <g id="patch_35">
    <path d="M 236.618182 117.037241 
L 388.8 117.037241 
" style="fill:none;stroke:#000000;stroke-linecap:square;stroke-linejoin:miter;stroke-width:0.8;"/>
   </g>
   <g id="patch_36">
    <path d="M 236.618182 79.547586 
L 388.8 79.547586 
" style="fill:none;stroke:#000000;stroke-linecap:square;stroke-linejoin:miter;stroke-width:0.8;"/>
   </g>
   <g id="text_57">
    <!-- sigma1 -->
    <g transform="translate(290.768778 73.547586)scale(0.12 -0.12)">
     <use xlink:href="#DejaVuSans-115"/>
     <use x="52.099609" xlink:href="#DejaVuSans-105"/>
     <use x="79.882812" xlink:href="#DejaVuSans-103"/>
     <use x="143.359375" xlink:href="#DejaVuSans-109"/>
     <use x="240.771484" xlink:href="#DejaVuSans-97"/>
     <use x="302.050781" xlink:href="#DejaVuSans-49"/>
    </g>
   </g>
  </g>
  <g id="axes_8">
   <g id="patch_37">
    <path d="M 236.618182 162.024828 
L 388.8 162.024828 
L 388.8 124.535172 
L 236.618182 124.535172 
z
" style="fill:#ffffff;"/>
   </g>
   <g id="matplotlib.axis_15">
    <g id="xtick_30">
     <g id="line2d_74">
      <g>
       <use style="stroke:#000000;stroke-width:0.8;" x="246.888449" xlink:href="#m526e822d0a" y="162.024828"/>
      </g>
     </g>
     <g id="text_58">
      <!-- 0.04 -->
      <defs>
       <path d="M 10.59375 35.5 
L 73.1875 35.5 
L 73.1875 27.203125 
L 10.59375 27.203125 
z
" id="DejaVuSans-8722"/>
      </defs>
      <g transform="translate(231.565792 176.623265)scale(0.1 -0.1)">
       <use xlink:href="#DejaVuSans-8722"/>
       <use x="83.789062" xlink:href="#DejaVuSans-48"/>
       <use x="147.412109" xlink:href="#DejaVuSans-46"/>
       <use x="179.199219" xlink:href="#DejaVuSans-48"/>
       <use x="242.822266" xlink:href="#DejaVuSans-52"/>
      </g>
     </g>
    </g>
    <g id="xtick_31">
     <g id="line2d_75">
      <g>
       <use style="stroke:#000000;stroke-width:0.8;" x="286.148049" xlink:href="#m526e822d0a" y="162.024828"/>
      </g>
     </g>
     <g id="text_59">
      <!-- 0.02 -->
      <g transform="translate(270.825393 176.623265)scale(0.1 -0.1)">
       <use xlink:href="#DejaVuSans-8722"/>
       <use x="83.789062" xlink:href="#DejaVuSans-48"/>
       <use x="147.412109" xlink:href="#DejaVuSans-46"/>
       <use x="179.199219" xlink:href="#DejaVuSans-48"/>
       <use x="242.822266" xlink:href="#DejaVuSans-50"/>
      </g>
     </g>
    </g>
    <g id="xtick_32">
     <g id="line2d_76">
      <g>
       <use style="stroke:#000000;stroke-width:0.8;" x="325.407649" xlink:href="#m526e822d0a" y="162.024828"/>
      </g>
     </g>
     <g id="text_60">
      <!-- 0.00 -->
      <g transform="translate(314.274837 176.623265)scale(0.1 -0.1)">
       <use xlink:href="#DejaVuSans-48"/>
       <use x="63.623047" xlink:href="#DejaVuSans-46"/>
       <use x="95.410156" xlink:href="#DejaVuSans-48"/>
       <use x="159.033203" xlink:href="#DejaVuSans-48"/>
      </g>
     </g>
    </g>
    <g id="xtick_33">
     <g id="line2d_77">
      <g>
       <use style="stroke:#000000;stroke-width:0.8;" x="364.667249" xlink:href="#m526e822d0a" y="162.024828"/>
      </g>
     </g>
     <g id="text_61">
      <!-- 0.02 -->
      <g transform="translate(353.534437 176.623265)scale(0.1 -0.1)">
       <use xlink:href="#DejaVuSans-48"/>
       <use x="63.623047" xlink:href="#DejaVuSans-46"/>
       <use x="95.410156" xlink:href="#DejaVuSans-48"/>
       <use x="159.033203" xlink:href="#DejaVuSans-50"/>
      </g>
     </g>
    </g>
   </g>
   <g id="matplotlib.axis_16">
    <g id="ytick_15">
     <g id="line2d_78">
      <g>
       <use style="stroke:#000000;stroke-width:0.8;" x="236.618182" xlink:href="#md346c8915a" y="160.320752"/>
      </g>
     </g>
     <g id="text_62">
      <!-- 0 -->
      <g transform="translate(223.255682 164.119971)scale(0.1 -0.1)">
       <use xlink:href="#DejaVuSans-48"/>
      </g>
     </g>
    </g>
    <g id="ytick_16">
     <g id="line2d_79">
      <g>
       <use style="stroke:#000000;stroke-width:0.8;" x="236.618182" xlink:href="#md346c8915a" y="127.033025"/>
      </g>
     </g>
     <g id="text_63">
      <!-- 50 -->
      <g transform="translate(216.893182 130.832244)scale(0.1 -0.1)">
       <use xlink:href="#DejaVuSans-53"/>
       <use x="63.623047" xlink:href="#DejaVuSans-48"/>
      </g>
     </g>
    </g>
    <g id="text_64">
     <!-- Frequency -->
     <g transform="translate(210.813494 169.577656)rotate(-90)scale(0.1 -0.1)">
      <use xlink:href="#DejaVuSans-70"/>
      <use x="57.410156" xlink:href="#DejaVuSans-114"/>
      <use x="98.492188" xlink:href="#DejaVuSans-101"/>
      <use x="160.015625" xlink:href="#DejaVuSans-113"/>
      <use x="223.492188" xlink:href="#DejaVuSans-117"/>
      <use x="286.871094" xlink:href="#DejaVuSans-101"/>
      <use x="348.394531" xlink:href="#DejaVuSans-110"/>
      <use x="411.773438" xlink:href="#DejaVuSans-99"/>
      <use x="466.753906" xlink:href="#DejaVuSans-121"/>
     </g>
    </g>
   </g>
   <g id="line2d_80">
    <path clip-path="url(#p2ac7b98a7a)" d="M 243.535537 160.320087 
L 246.358948 160.319206 
L 249.182358 160.317281 
L 252.005768 160.313218 
L 254.829179 160.30495 
L 257.652589 160.288721 
L 260.475999 160.258001 
L 263.29941 160.201941 
L 266.12282 160.103338 
L 268.94623 159.936245 
L 271.769641 159.663531 
L 274.593051 159.235058 
L 277.416461 158.587376 
L 280.239872 157.646101 
L 283.063282 156.332058 
L 285.886693 154.571867 
L 288.710103 152.312723 
L 291.533513 149.539805 
L 294.356924 146.293345 
L 297.180334 142.681219 
L 300.003744 138.882667 
L 302.827155 135.139686 
L 305.650565 131.73488 
L 308.473975 128.957723 
L 311.297386 127.064464 
L 314.120796 126.239248 
L 316.944206 126.564598 
L 319.767617 128.007819 
L 322.591027 130.426409 
L 325.414438 133.59125 
L 328.237848 137.22235 
L 331.061258 141.02942 
L 333.884669 144.749207 
L 336.708079 148.173154 
L 339.531489 151.161957 
L 342.3549 153.646917 
L 345.17831 155.620709 
L 348.00172 157.121729 
L 350.825131 158.216382 
L 353.648541 158.982875 
L 356.471951 159.4987 
L 359.295362 159.832581 
L 362.118772 160.040575 
L 364.942182 160.16534 
L 367.765593 160.237437 
L 370.589003 160.277585 
L 373.412414 160.299136 
L 376.235824 160.310291 
L 379.059234 160.315859 
L 381.882645 160.31854 
" style="fill:none;stroke:#1f77b4;stroke-linecap:square;stroke-width:1.5;"/>
   </g>
   <g id="line2d_81">
    <path clip-path="url(#p2ac7b98a7a)" d="M 297.677609 160.320752 
L 297.677609 126.239248 
" style="fill:none;stroke:#ff0000;stroke-linecap:square;stroke-width:1.5;"/>
   </g>
   <g id="patch_38">
    <path d="M 236.618182 162.024828 
L 236.618182 124.535172 
" style="fill:none;stroke:#000000;stroke-linecap:square;stroke-linejoin:miter;stroke-width:0.8;"/>
   </g>
   <g id="patch_39">
    <path d="M 388.8 162.024828 
L 388.8 124.535172 
" style="fill:none;stroke:#000000;stroke-linecap:square;stroke-linejoin:miter;stroke-width:0.8;"/>
   </g>
   <g id="patch_40">
    <path d="M 236.618182 162.024828 
L 388.8 162.024828 
" style="fill:none;stroke:#000000;stroke-linecap:square;stroke-linejoin:miter;stroke-width:0.8;"/>
   </g>
   <g id="patch_41">
    <path d="M 236.618182 124.535172 
L 388.8 124.535172 
" style="fill:none;stroke:#000000;stroke-linecap:square;stroke-linejoin:miter;stroke-width:0.8;"/>
   </g>
   <g id="text_65">
    <!-- corr2 -->
    <defs>
     <path d="M 30.609375 48.390625 
Q 23.390625 48.390625 19.1875 42.75 
Q 14.984375 37.109375 14.984375 27.296875 
Q 14.984375 17.484375 19.15625 11.84375 
Q 23.34375 6.203125 30.609375 6.203125 
Q 37.796875 6.203125 41.984375 11.859375 
Q 46.1875 17.53125 46.1875 27.296875 
Q 46.1875 37.015625 41.984375 42.703125 
Q 37.796875 48.390625 30.609375 48.390625 
z
M 30.609375 56 
Q 42.328125 56 49.015625 48.375 
Q 55.71875 40.765625 55.71875 27.296875 
Q 55.71875 13.875 49.015625 6.21875 
Q 42.328125 -1.421875 30.609375 -1.421875 
Q 18.84375 -1.421875 12.171875 6.21875 
Q 5.515625 13.875 5.515625 27.296875 
Q 5.515625 40.765625 12.171875 48.375 
Q 18.84375 56 30.609375 56 
z
" id="DejaVuSans-111"/>
    </defs>
    <g transform="translate(296.989091 118.535172)scale(0.12 -0.12)">
     <use xlink:href="#DejaVuSans-99"/>
     <use x="54.980469" xlink:href="#DejaVuSans-111"/>
     <use x="116.162109" xlink:href="#DejaVuSans-114"/>
     <use x="157.259766" xlink:href="#DejaVuSans-114"/>
     <use x="198.373047" xlink:href="#DejaVuSans-50"/>
    </g>
   </g>
  </g>
  <g id="axes_9">
   <g id="patch_42">
    <path d="M 236.618182 207.012414 
L 388.8 207.012414 
L 388.8 169.522759 
L 236.618182 169.522759 
z
" style="fill:#ffffff;"/>
   </g>
   <g id="matplotlib.axis_17">
    <g id="xtick_34">
     <g id="line2d_82">
      <g>
       <use style="stroke:#000000;stroke-width:0.8;" x="243.093092" xlink:href="#m526e822d0a" y="207.012414"/>
      </g>
     </g>
     <g id="text_66">
      <!-- 0.06 -->
      <g transform="translate(231.96028 221.610851)scale(0.1 -0.1)">
       <use xlink:href="#DejaVuSans-48"/>
       <use x="63.623047" xlink:href="#DejaVuSans-46"/>
       <use x="95.410156" xlink:href="#DejaVuSans-48"/>
       <use x="159.033203" xlink:href="#DejaVuSans-54"/>
      </g>
     </g>
    </g>
    <g id="xtick_35">
     <g id="line2d_83">
      <g>
       <use style="stroke:#000000;stroke-width:0.8;" x="279.515709" xlink:href="#m526e822d0a" y="207.012414"/>
      </g>
     </g>
     <g id="text_67">
      <!-- 0.07 -->
      <g transform="translate(268.382896 221.610851)scale(0.1 -0.1)">
       <use xlink:href="#DejaVuSans-48"/>
       <use x="63.623047" xlink:href="#DejaVuSans-46"/>
       <use x="95.410156" xlink:href="#DejaVuSans-48"/>
       <use x="159.033203" xlink:href="#DejaVuSans-55"/>
      </g>
     </g>
    </g>
    <g id="xtick_36">
     <g id="line2d_84">
      <g>
       <use style="stroke:#000000;stroke-width:0.8;" x="315.938325" xlink:href="#m526e822d0a" y="207.012414"/>
      </g>
     </g>
     <g id="text_68">
      <!-- 0.08 -->
      <g transform="translate(304.805512 221.610851)scale(0.1 -0.1)">
       <use xlink:href="#DejaVuSans-48"/>
       <use x="63.623047" xlink:href="#DejaVuSans-46"/>
       <use x="95.410156" xlink:href="#DejaVuSans-48"/>
       <use x="159.033203" xlink:href="#DejaVuSans-56"/>
      </g>
     </g>
    </g>
    <g id="xtick_37">
     <g id="line2d_85">
      <g>
       <use style="stroke:#000000;stroke-width:0.8;" x="352.360941" xlink:href="#m526e822d0a" y="207.012414"/>
      </g>
     </g>
     <g id="text_69">
      <!-- 0.09 -->
      <defs>
       <path d="M 10.984375 1.515625 
L 10.984375 10.5 
Q 14.703125 8.734375 18.5 7.8125 
Q 22.3125 6.890625 25.984375 6.890625 
Q 35.75 6.890625 40.890625 13.453125 
Q 46.046875 20.015625 46.78125 33.40625 
Q 43.953125 29.203125 39.59375 26.953125 
Q 35.25 24.703125 29.984375 24.703125 
Q 19.046875 24.703125 12.671875 31.3125 
Q 6.296875 37.9375 6.296875 49.421875 
Q 6.296875 60.640625 12.9375 67.421875 
Q 19.578125 74.21875 30.609375 74.21875 
Q 43.265625 74.21875 49.921875 64.515625 
Q 56.59375 54.828125 56.59375 36.375 
Q 56.59375 19.140625 48.40625 8.859375 
Q 40.234375 -1.421875 26.421875 -1.421875 
Q 22.703125 -1.421875 18.890625 -0.6875 
Q 15.09375 0.046875 10.984375 1.515625 
z
M 30.609375 32.421875 
Q 37.25 32.421875 41.125 36.953125 
Q 45.015625 41.5 45.015625 49.421875 
Q 45.015625 57.28125 41.125 61.84375 
Q 37.25 66.40625 30.609375 66.40625 
Q 23.96875 66.40625 20.09375 61.84375 
Q 16.21875 57.28125 16.21875 49.421875 
Q 16.21875 41.5 20.09375 36.953125 
Q 23.96875 32.421875 30.609375 32.421875 
z
" id="DejaVuSans-57"/>
      </defs>
      <g transform="translate(341.228129 221.610851)scale(0.1 -0.1)">
       <use xlink:href="#DejaVuSans-48"/>
       <use x="63.623047" xlink:href="#DejaVuSans-46"/>
       <use x="95.410156" xlink:href="#DejaVuSans-48"/>
       <use x="159.033203" xlink:href="#DejaVuSans-57"/>
      </g>
     </g>
    </g>
    <g id="xtick_38">
     <g id="line2d_86">
      <g>
       <use style="stroke:#000000;stroke-width:0.8;" x="388.783557" xlink:href="#m526e822d0a" y="207.012414"/>
      </g>
     </g>
     <g id="text_70">
      <!-- 0.10 -->
      <g transform="translate(377.650745 221.610851)scale(0.1 -0.1)">
       <use xlink:href="#DejaVuSans-48"/>
       <use x="63.623047" xlink:href="#DejaVuSans-46"/>
       <use x="95.410156" xlink:href="#DejaVuSans-49"/>
       <use x="159.033203" xlink:href="#DejaVuSans-48"/>
      </g>
     </g>
    </g>
   </g>
   <g id="matplotlib.axis_18">
    <g id="ytick_17">
     <g id="line2d_87">
      <g>
       <use style="stroke:#000000;stroke-width:0.8;" x="236.618182" xlink:href="#md346c8915a" y="205.308339"/>
      </g>
     </g>
     <g id="text_71">
      <!-- 0 -->
      <g transform="translate(223.255682 209.107557)scale(0.1 -0.1)">
       <use xlink:href="#DejaVuSans-48"/>
      </g>
     </g>
    </g>
    <g id="ytick_18">
     <g id="line2d_88">
      <g>
       <use style="stroke:#000000;stroke-width:0.8;" x="236.618182" xlink:href="#md346c8915a" y="178.517268"/>
      </g>
     </g>
     <g id="text_72">
      <!-- 50 -->
      <g transform="translate(216.893182 182.316487)scale(0.1 -0.1)">
       <use xlink:href="#DejaVuSans-53"/>
       <use x="63.623047" xlink:href="#DejaVuSans-48"/>
      </g>
     </g>
    </g>
    <g id="text_73">
     <!-- Frequency -->
     <g transform="translate(210.813494 214.565242)rotate(-90)scale(0.1 -0.1)">
      <use xlink:href="#DejaVuSans-70"/>
      <use x="57.410156" xlink:href="#DejaVuSans-114"/>
      <use x="98.492188" xlink:href="#DejaVuSans-101"/>
      <use x="160.015625" xlink:href="#DejaVuSans-113"/>
      <use x="223.492188" xlink:href="#DejaVuSans-117"/>
      <use x="286.871094" xlink:href="#DejaVuSans-101"/>
      <use x="348.394531" xlink:href="#DejaVuSans-110"/>
      <use x="411.773438" xlink:href="#DejaVuSans-99"/>
      <use x="466.753906" xlink:href="#DejaVuSans-121"/>
     </g>
    </g>
   </g>
   <g id="line2d_89">
    <path clip-path="url(#p2199f92914)" d="M 243.535537 205.028735 
L 246.358948 204.901374 
L 249.182358 204.724975 
L 252.005768 204.484788 
L 254.829179 204.163327 
L 257.652589 203.74051 
L 260.475999 203.19409 
L 263.29941 202.500434 
L 266.12282 201.635707 
L 268.94623 200.577466 
L 271.769641 199.306644 
L 274.593051 197.809822 
L 277.416461 196.081656 
L 280.239872 194.127237 
L 283.063282 191.964143 
L 285.886693 189.623899 
L 288.710103 187.15258 
L 291.533513 184.610328 
L 294.356924 182.069651 
L 297.180334 179.612465 
L 300.003744 177.326003 
L 302.827155 175.297832 
L 305.650565 173.610365 
L 308.473975 172.335339 
L 311.297386 171.528761 
L 314.120796 171.226834 
L 316.944206 171.443259 
L 319.767617 172.168206 
L 322.591027 173.369055 
L 325.414438 174.992827 
L 328.237848 176.970063 
L 331.061258 179.219741 
L 333.884669 181.654761 
L 336.708079 184.187472 
L 339.531489 186.734767 
L 342.3549 189.222344 
L 345.17831 191.587862 
L 348.00172 193.782852 
L 350.825131 195.773395 
L 353.648541 197.539684 
L 356.471951 199.074691 
L 359.295362 200.38219 
L 362.118772 201.474432 
L 364.942182 202.369712 
L 367.765593 203.09006 
L 370.589003 203.659203 
L 373.412414 204.100898 
L 376.235824 204.437688 
L 379.059234 204.690051 
L 381.882645 204.875918 
" style="fill:none;stroke:#1f77b4;stroke-linecap:square;stroke-width:1.5;"/>
   </g>
   <g id="line2d_90">
    <path clip-path="url(#p2199f92914)" d="M 308.896844 205.308339 
L 308.896844 171.226834 
" style="fill:none;stroke:#ff0000;stroke-linecap:square;stroke-width:1.5;"/>
   </g>
   <g id="patch_43">
    <path d="M 236.618182 207.012414 
L 236.618182 169.522759 
" style="fill:none;stroke:#000000;stroke-linecap:square;stroke-linejoin:miter;stroke-width:0.8;"/>
   </g>
   <g id="patch_44">
    <path d="M 388.8 207.012414 
L 388.8 169.522759 
" style="fill:none;stroke:#000000;stroke-linecap:square;stroke-linejoin:miter;stroke-width:0.8;"/>
   </g>
   <g id="patch_45">
    <path d="M 236.618182 207.012414 
L 388.8 207.012414 
" style="fill:none;stroke:#000000;stroke-linecap:square;stroke-linejoin:miter;stroke-width:0.8;"/>
   </g>
   <g id="patch_46">
    <path d="M 236.618182 169.522759 
L 388.8 169.522759 
" style="fill:none;stroke:#000000;stroke-linecap:square;stroke-linejoin:miter;stroke-width:0.8;"/>
   </g>
   <g id="text_74">
    <!-- corr0 -->
    <g transform="translate(296.989091 163.522759)scale(0.12 -0.12)">
     <use xlink:href="#DejaVuSans-99"/>
     <use x="54.980469" xlink:href="#DejaVuSans-111"/>
     <use x="116.162109" xlink:href="#DejaVuSans-114"/>
     <use x="157.259766" xlink:href="#DejaVuSans-114"/>
     <use x="198.373047" xlink:href="#DejaVuSans-48"/>
    </g>
   </g>
  </g>
  <g id="axes_10">
   <g id="patch_47">
    <path d="M 236.618182 252 
L 388.8 252 
L 388.8 214.510345 
L 236.618182 214.510345 
z
" style="fill:#ffffff;"/>
   </g>
   <g id="matplotlib.axis_19">
    <g id="xtick_39">
     <g id="line2d_91">
      <g>
       <use style="stroke:#000000;stroke-width:0.8;" x="248.480943" xlink:href="#m526e822d0a" y="252"/>
      </g>
     </g>
     <g id="text_75">
      <!-- 0.19 -->
      <g transform="translate(237.34813 266.598438)scale(0.1 -0.1)">
       <use xlink:href="#DejaVuSans-48"/>
       <use x="63.623047" xlink:href="#DejaVuSans-46"/>
       <use x="95.410156" xlink:href="#DejaVuSans-49"/>
       <use x="159.033203" xlink:href="#DejaVuSans-57"/>
      </g>
     </g>
    </g>
    <g id="xtick_40">
     <g id="line2d_92">
      <g>
       <use style="stroke:#000000;stroke-width:0.8;" x="291.646507" xlink:href="#m526e822d0a" y="252"/>
      </g>
     </g>
     <g id="text_76">
      <!-- 0.20 -->
      <g transform="translate(280.513695 266.598438)scale(0.1 -0.1)">
       <use xlink:href="#DejaVuSans-48"/>
       <use x="63.623047" xlink:href="#DejaVuSans-46"/>
       <use x="95.410156" xlink:href="#DejaVuSans-50"/>
       <use x="159.033203" xlink:href="#DejaVuSans-48"/>
      </g>
     </g>
    </g>
    <g id="xtick_41">
     <g id="line2d_93">
      <g>
       <use style="stroke:#000000;stroke-width:0.8;" x="334.812072" xlink:href="#m526e822d0a" y="252"/>
      </g>
     </g>
     <g id="text_77">
      <!-- 0.21 -->
      <g transform="translate(323.679259 266.598438)scale(0.1 -0.1)">
       <use xlink:href="#DejaVuSans-48"/>
       <use x="63.623047" xlink:href="#DejaVuSans-46"/>
       <use x="95.410156" xlink:href="#DejaVuSans-50"/>
       <use x="159.033203" xlink:href="#DejaVuSans-49"/>
      </g>
     </g>
    </g>
    <g id="xtick_42">
     <g id="line2d_94">
      <g>
       <use style="stroke:#000000;stroke-width:0.8;" x="377.977636" xlink:href="#m526e822d0a" y="252"/>
      </g>
     </g>
     <g id="text_78">
      <!-- 0.22 -->
      <g transform="translate(366.844824 266.598438)scale(0.1 -0.1)">
       <use xlink:href="#DejaVuSans-48"/>
       <use x="63.623047" xlink:href="#DejaVuSans-46"/>
       <use x="95.410156" xlink:href="#DejaVuSans-50"/>
       <use x="159.033203" xlink:href="#DejaVuSans-50"/>
      </g>
     </g>
    </g>
   </g>
   <g id="matplotlib.axis_20">
    <g id="ytick_19">
     <g id="line2d_95">
      <g>
       <use style="stroke:#000000;stroke-width:0.8;" x="236.618182" xlink:href="#md346c8915a" y="250.295925"/>
      </g>
     </g>
     <g id="text_79">
      <!-- 0 -->
      <g transform="translate(223.255682 254.095144)scale(0.1 -0.1)">
       <use xlink:href="#DejaVuSans-48"/>
      </g>
     </g>
    </g>
    <g id="ytick_20">
     <g id="line2d_96">
      <g>
       <use style="stroke:#000000;stroke-width:0.8;" x="236.618182" xlink:href="#md346c8915a" y="226.916199"/>
      </g>
     </g>
     <g id="text_80">
      <!-- 50 -->
      <g transform="translate(216.893182 230.715418)scale(0.1 -0.1)">
       <use xlink:href="#DejaVuSans-53"/>
       <use x="63.623047" xlink:href="#DejaVuSans-48"/>
      </g>
     </g>
    </g>
    <g id="text_81">
     <!-- Frequency -->
     <g transform="translate(210.813494 259.552829)rotate(-90)scale(0.1 -0.1)">
      <use xlink:href="#DejaVuSans-70"/>
      <use x="57.410156" xlink:href="#DejaVuSans-114"/>
      <use x="98.492188" xlink:href="#DejaVuSans-101"/>
      <use x="160.015625" xlink:href="#DejaVuSans-113"/>
      <use x="223.492188" xlink:href="#DejaVuSans-117"/>
      <use x="286.871094" xlink:href="#DejaVuSans-101"/>
      <use x="348.394531" xlink:href="#DejaVuSans-110"/>
      <use x="411.773438" xlink:href="#DejaVuSans-99"/>
      <use x="466.753906" xlink:href="#DejaVuSans-121"/>
     </g>
    </g>
   </g>
   <g id="line2d_97">
    <path clip-path="url(#p7ef45c51c1)" d="M 243.535537 249.92114 
L 246.358948 249.763157 
L 249.182358 249.549315 
L 252.005768 249.264474 
L 254.829179 248.891162 
L 257.652589 248.409859 
L 260.475999 247.799548 
L 263.29941 247.038586 
L 266.12282 246.105914 
L 268.94623 244.982594 
L 271.769641 243.653633 
L 274.593051 242.109985 
L 277.416461 240.350609 
L 280.239872 238.384381 
L 283.063282 236.231662 
L 285.886693 233.925296 
L 288.710103 231.510839 
L 291.533513 229.04585 
L 294.356924 226.598172 
L 297.180334 224.243189 
L 300.003744 222.060199 
L 302.827155 220.128098 
L 305.650565 218.520707 
L 308.473975 217.302113 
L 311.297386 216.522438 
L 314.120796 216.21442 
L 316.944206 216.391134 
L 319.767617 217.045069 
L 322.591027 218.14866 
L 325.414438 219.656213 
L 328.237848 221.507044 
L 331.061258 223.629529 
L 333.884669 225.94568 
L 336.708079 228.375863 
L 339.531489 230.843235 
L 342.3549 233.277592 
L 345.17831 235.618367 
L 348.00172 237.81663 
L 350.825131 239.836068 
L 353.648541 241.652997 
L 356.471951 243.255555 
L 359.295362 244.642267 
L 362.118772 245.820204 
L 364.942182 246.802946 
L 367.765593 247.60855 
L 370.589003 248.257662 
L 373.412414 248.771902 
L 376.235824 249.172557 
L 379.059234 249.47962 
L 381.882645 249.711159 
" style="fill:none;stroke:#1f77b4;stroke-linecap:square;stroke-width:1.5;"/>
   </g>
   <g id="line2d_98">
    <path clip-path="url(#p7ef45c51c1)" d="M 332.224806 250.295925 
L 332.224806 216.21442 
" style="fill:none;stroke:#ff0000;stroke-linecap:square;stroke-width:1.5;"/>
   </g>
   <g id="patch_48">
    <path d="M 236.618182 252 
L 236.618182 214.510345 
" style="fill:none;stroke:#000000;stroke-linecap:square;stroke-linejoin:miter;stroke-width:0.8;"/>
   </g>
   <g id="patch_49">
    <path d="M 388.8 252 
L 388.8 214.510345 
" style="fill:none;stroke:#000000;stroke-linecap:square;stroke-linejoin:miter;stroke-width:0.8;"/>
   </g>
   <g id="patch_50">
    <path d="M 236.618182 252 
L 388.8 252 
" style="fill:none;stroke:#000000;stroke-linecap:square;stroke-linejoin:miter;stroke-width:0.8;"/>
   </g>
   <g id="patch_51">
    <path d="M 236.618182 214.510345 
L 388.8 214.510345 
" style="fill:none;stroke:#000000;stroke-linecap:square;stroke-linejoin:miter;stroke-width:0.8;"/>
   </g>
   <g id="text_82">
    <!-- corr1 -->
    <g transform="translate(296.989091 208.510345)scale(0.12 -0.12)">
     <use xlink:href="#DejaVuSans-99"/>
     <use x="54.980469" xlink:href="#DejaVuSans-111"/>
     <use x="116.162109" xlink:href="#DejaVuSans-114"/>
     <use x="157.259766" xlink:href="#DejaVuSans-114"/>
     <use x="198.373047" xlink:href="#DejaVuSans-49"/>
    </g>
   </g>
  </g>
 </g>
 <defs>
  <clipPath id="pc87a15e5b5">
   <rect height="37.489655" width="152.181818" x="54" y="34.56"/>
  </clipPath>
  <clipPath id="p7d2f6aaed6">
   <rect height="37.489655" width="152.181818" x="54" y="79.547586"/>
  </clipPath>
  <clipPath id="p412377e3f4">
   <rect height="37.489655" width="152.181818" x="54" y="124.535172"/>
  </clipPath>
  <clipPath id="pfb504fed39">
   <rect height="37.489655" width="152.181818" x="54" y="169.522759"/>
  </clipPath>
  <clipPath id="p387bbb6c4f">
   <rect height="37.489655" width="152.181818" x="54" y="214.510345"/>
  </clipPath>
  <clipPath id="p87f01f47b9">
   <rect height="37.489655" width="152.181818" x="236.618182" y="34.56"/>
  </clipPath>
  <clipPath id="p0bb3b61bba">
   <rect height="37.489655" width="152.181818" x="236.618182" y="79.547586"/>
  </clipPath>
  <clipPath id="p2ac7b98a7a">
   <rect height="37.489655" width="152.181818" x="236.618182" y="124.535172"/>
  </clipPath>
  <clipPath id="p2199f92914">
   <rect height="37.489655" width="152.181818" x="236.618182" y="169.522759"/>
  </clipPath>
  <clipPath id="p7ef45c51c1">
   <rect height="37.489655" width="152.181818" x="236.618182" y="214.510345"/>
  </clipPath>
 </defs>
</svg>
