<?xml version="1.0" encoding="utf-8" standalone="no"?>
<!DOCTYPE svg PUBLIC "-//W3C//DTD SVG 1.1//EN"
  "http://www.w3.org/Graphics/SVG/1.1/DTD/svg11.dtd">
<!-- Created with matplotlib (https://matplotlib.org/) -->
<svg height="345.6pt" version="1.1" viewBox="0 0 460.8 345.6" width="460.8pt" xmlns="http://www.w3.org/2000/svg" xmlns:xlink="http://www.w3.org/1999/xlink">
 <defs>
  <style type="text/css">
*{stroke-linecap:butt;stroke-linejoin:round;}
  </style>
 </defs>
 <g id="figure_1">
  <g id="patch_1">
   <path d="M 0 345.6 
L 460.8 345.6 
L 460.8 0 
L 0 0 
z
" style="fill:#ffffff;"/>
  </g>
  <g id="axes_1">
   <g id="patch_2">
    <path d="M 57.6 87.353379 
L 219.927273 87.353379 
L 219.927273 41.472 
L 57.6 41.472 
z
" style="fill:#ffffff;"/>
   </g>
   <g id="matplotlib.axis_1">
    <g id="xtick_1">
     <g id="line2d_1">
      <defs>
       <path d="M 0 0 
L 0 3.5 
" id="mc129d17cdd" style="stroke:#000000;stroke-width:0.8;"/>
      </defs>
      <g>
       <use style="stroke:#000000;stroke-width:0.8;" x="94.803881" xlink:href="#mc129d17cdd" y="87.353379"/>
      </g>
     </g>
     <g id="text_1">
      <!-- 0.2 -->
      <defs>
       <path d="M 31.78125 66.40625 
Q 24.171875 66.40625 20.328125 58.90625 
Q 16.5 51.421875 16.5 36.375 
Q 16.5 21.390625 20.328125 13.890625 
Q 24.171875 6.390625 31.78125 6.390625 
Q 39.453125 6.390625 43.28125 13.890625 
Q 47.125 21.390625 47.125 36.375 
Q 47.125 51.421875 43.28125 58.90625 
Q 39.453125 66.40625 31.78125 66.40625 
z
M 31.78125 74.21875 
Q 44.046875 74.21875 50.515625 64.515625 
Q 56.984375 54.828125 56.984375 36.375 
Q 56.984375 17.96875 50.515625 8.265625 
Q 44.046875 -1.421875 31.78125 -1.421875 
Q 19.53125 -1.421875 13.0625 8.265625 
Q 6.59375 17.96875 6.59375 36.375 
Q 6.59375 54.828125 13.0625 64.515625 
Q 19.53125 74.21875 31.78125 74.21875 
z
" id="DejaVuSans-48"/>
       <path d="M 10.6875 12.40625 
L 21 12.40625 
L 21 0 
L 10.6875 0 
z
" id="DejaVuSans-46"/>
       <path d="M 19.1875 8.296875 
L 53.609375 8.296875 
L 53.609375 0 
L 7.328125 0 
L 7.328125 8.296875 
Q 12.9375 14.109375 22.625 23.890625 
Q 32.328125 33.6875 34.8125 36.53125 
Q 39.546875 41.84375 41.421875 45.53125 
Q 43.3125 49.21875 43.3125 52.78125 
Q 43.3125 58.59375 39.234375 62.25 
Q 35.15625 65.921875 28.609375 65.921875 
Q 23.96875 65.921875 18.8125 64.3125 
Q 13.671875 62.703125 7.8125 59.421875 
L 7.8125 69.390625 
Q 13.765625 71.78125 18.9375 73 
Q 24.125 74.21875 28.421875 74.21875 
Q 39.75 74.21875 46.484375 68.546875 
Q 53.21875 62.890625 53.21875 53.421875 
Q 53.21875 48.921875 51.53125 44.890625 
Q 49.859375 40.875 45.40625 35.40625 
Q 44.1875 33.984375 37.640625 27.21875 
Q 31.109375 20.453125 19.1875 8.296875 
z
" id="DejaVuSans-50"/>
      </defs>
      <g transform="translate(86.852319 101.951817)scale(0.1 -0.1)">
       <use xlink:href="#DejaVuSans-48"/>
       <use x="63.623047" xlink:href="#DejaVuSans-46"/>
       <use x="95.410156" xlink:href="#DejaVuSans-50"/>
      </g>
     </g>
    </g>
    <g id="xtick_2">
     <g id="line2d_2">
      <g>
       <use style="stroke:#000000;stroke-width:0.8;" x="141.594119" xlink:href="#mc129d17cdd" y="87.353379"/>
      </g>
     </g>
     <g id="text_2">
      <!-- 0.3 -->
      <defs>
       <path d="M 40.578125 39.3125 
Q 47.65625 37.796875 51.625 33 
Q 55.609375 28.21875 55.609375 21.1875 
Q 55.609375 10.40625 48.1875 4.484375 
Q 40.765625 -1.421875 27.09375 -1.421875 
Q 22.515625 -1.421875 17.65625 -0.515625 
Q 12.796875 0.390625 7.625 2.203125 
L 7.625 11.71875 
Q 11.71875 9.328125 16.59375 8.109375 
Q 21.484375 6.890625 26.8125 6.890625 
Q 36.078125 6.890625 40.9375 10.546875 
Q 45.796875 14.203125 45.796875 21.1875 
Q 45.796875 27.640625 41.28125 31.265625 
Q 36.765625 34.90625 28.71875 34.90625 
L 20.21875 34.90625 
L 20.21875 43.015625 
L 29.109375 43.015625 
Q 36.375 43.015625 40.234375 45.921875 
Q 44.09375 48.828125 44.09375 54.296875 
Q 44.09375 59.90625 40.109375 62.90625 
Q 36.140625 65.921875 28.71875 65.921875 
Q 24.65625 65.921875 20.015625 65.03125 
Q 15.375 64.15625 9.8125 62.3125 
L 9.8125 71.09375 
Q 15.4375 72.65625 20.34375 73.4375 
Q 25.25 74.21875 29.59375 74.21875 
Q 40.828125 74.21875 47.359375 69.109375 
Q 53.90625 64.015625 53.90625 55.328125 
Q 53.90625 49.265625 50.4375 45.09375 
Q 46.96875 40.921875 40.578125 39.3125 
z
" id="DejaVuSans-51"/>
      </defs>
      <g transform="translate(133.642556 101.951817)scale(0.1 -0.1)">
       <use xlink:href="#DejaVuSans-48"/>
       <use x="63.623047" xlink:href="#DejaVuSans-46"/>
       <use x="95.410156" xlink:href="#DejaVuSans-51"/>
      </g>
     </g>
    </g>
    <g id="xtick_3">
     <g id="line2d_3">
      <g>
       <use style="stroke:#000000;stroke-width:0.8;" x="188.384357" xlink:href="#mc129d17cdd" y="87.353379"/>
      </g>
     </g>
     <g id="text_3">
      <!-- 0.4 -->
      <defs>
       <path d="M 37.796875 64.3125 
L 12.890625 25.390625 
L 37.796875 25.390625 
z
M 35.203125 72.90625 
L 47.609375 72.90625 
L 47.609375 25.390625 
L 58.015625 25.390625 
L 58.015625 17.1875 
L 47.609375 17.1875 
L 47.609375 0 
L 37.796875 0 
L 37.796875 17.1875 
L 4.890625 17.1875 
L 4.890625 26.703125 
z
" id="DejaVuSans-52"/>
      </defs>
      <g transform="translate(180.432794 101.951817)scale(0.1 -0.1)">
       <use xlink:href="#DejaVuSans-48"/>
       <use x="63.623047" xlink:href="#DejaVuSans-46"/>
       <use x="95.410156" xlink:href="#DejaVuSans-52"/>
      </g>
     </g>
    </g>
   </g>
   <g id="matplotlib.axis_2">
    <g id="ytick_1">
     <g id="line2d_4">
      <defs>
       <path d="M 0 0 
L -3.5 0 
" id="m1a43ae3f72" style="stroke:#000000;stroke-width:0.8;"/>
      </defs>
      <g>
       <use style="stroke:#000000;stroke-width:0.8;" x="57.6" xlink:href="#m1a43ae3f72" y="85.267862"/>
      </g>
     </g>
     <g id="text_4">
      <!-- 0 -->
      <g transform="translate(44.2375 89.067081)scale(0.1 -0.1)">
       <use xlink:href="#DejaVuSans-48"/>
      </g>
     </g>
    </g>
    <g id="ytick_2">
     <g id="line2d_5">
      <g>
       <use style="stroke:#000000;stroke-width:0.8;" x="57.6" xlink:href="#m1a43ae3f72" y="59.371869"/>
      </g>
     </g>
     <g id="text_5">
      <!-- 50 -->
      <defs>
       <path d="M 10.796875 72.90625 
L 49.515625 72.90625 
L 49.515625 64.59375 
L 19.828125 64.59375 
L 19.828125 46.734375 
Q 21.96875 47.46875 24.109375 47.828125 
Q 26.265625 48.1875 28.421875 48.1875 
Q 40.625 48.1875 47.75 41.5 
Q 54.890625 34.8125 54.890625 23.390625 
Q 54.890625 11.625 47.5625 5.09375 
Q 40.234375 -1.421875 26.90625 -1.421875 
Q 22.3125 -1.421875 17.546875 -0.640625 
Q 12.796875 0.140625 7.71875 1.703125 
L 7.71875 11.625 
Q 12.109375 9.234375 16.796875 8.0625 
Q 21.484375 6.890625 26.703125 6.890625 
Q 35.15625 6.890625 40.078125 11.328125 
Q 45.015625 15.765625 45.015625 23.390625 
Q 45.015625 31 40.078125 35.4375 
Q 35.15625 39.890625 26.703125 39.890625 
Q 22.75 39.890625 18.8125 39.015625 
Q 14.890625 38.140625 10.796875 36.28125 
z
" id="DejaVuSans-53"/>
      </defs>
      <g transform="translate(37.875 63.171087)scale(0.1 -0.1)">
       <use xlink:href="#DejaVuSans-53"/>
       <use x="63.623047" xlink:href="#DejaVuSans-48"/>
      </g>
     </g>
    </g>
    <g id="text_6">
     <!-- Frequency -->
     <defs>
      <path d="M 9.8125 72.90625 
L 51.703125 72.90625 
L 51.703125 64.59375 
L 19.671875 64.59375 
L 19.671875 43.109375 
L 48.578125 43.109375 
L 48.578125 34.8125 
L 19.671875 34.8125 
L 19.671875 0 
L 9.8125 0 
z
" id="DejaVuSans-70"/>
      <path d="M 41.109375 46.296875 
Q 39.59375 47.171875 37.8125 47.578125 
Q 36.03125 48 33.890625 48 
Q 26.265625 48 22.1875 43.046875 
Q 18.109375 38.09375 18.109375 28.8125 
L 18.109375 0 
L 9.078125 0 
L 9.078125 54.6875 
L 18.109375 54.6875 
L 18.109375 46.1875 
Q 20.953125 51.171875 25.484375 53.578125 
Q 30.03125 56 36.53125 56 
Q 37.453125 56 38.578125 55.875 
Q 39.703125 55.765625 41.0625 55.515625 
z
" id="DejaVuSans-114"/>
      <path d="M 56.203125 29.59375 
L 56.203125 25.203125 
L 14.890625 25.203125 
Q 15.484375 15.921875 20.484375 11.0625 
Q 25.484375 6.203125 34.421875 6.203125 
Q 39.59375 6.203125 44.453125 7.46875 
Q 49.3125 8.734375 54.109375 11.28125 
L 54.109375 2.78125 
Q 49.265625 0.734375 44.1875 -0.34375 
Q 39.109375 -1.421875 33.890625 -1.421875 
Q 20.796875 -1.421875 13.15625 6.1875 
Q 5.515625 13.8125 5.515625 26.8125 
Q 5.515625 40.234375 12.765625 48.109375 
Q 20.015625 56 32.328125 56 
Q 43.359375 56 49.78125 48.890625 
Q 56.203125 41.796875 56.203125 29.59375 
z
M 47.21875 32.234375 
Q 47.125 39.59375 43.09375 43.984375 
Q 39.0625 48.390625 32.421875 48.390625 
Q 24.90625 48.390625 20.390625 44.140625 
Q 15.875 39.890625 15.1875 32.171875 
z
" id="DejaVuSans-101"/>
      <path d="M 14.796875 27.296875 
Q 14.796875 17.390625 18.875 11.75 
Q 22.953125 6.109375 30.078125 6.109375 
Q 37.203125 6.109375 41.296875 11.75 
Q 45.40625 17.390625 45.40625 27.296875 
Q 45.40625 37.203125 41.296875 42.84375 
Q 37.203125 48.484375 30.078125 48.484375 
Q 22.953125 48.484375 18.875 42.84375 
Q 14.796875 37.203125 14.796875 27.296875 
z
M 45.40625 8.203125 
Q 42.578125 3.328125 38.25 0.953125 
Q 33.9375 -1.421875 27.875 -1.421875 
Q 17.96875 -1.421875 11.734375 6.484375 
Q 5.515625 14.40625 5.515625 27.296875 
Q 5.515625 40.1875 11.734375 48.09375 
Q 17.96875 56 27.875 56 
Q 33.9375 56 38.25 53.625 
Q 42.578125 51.265625 45.40625 46.390625 
L 45.40625 54.6875 
L 54.390625 54.6875 
L 54.390625 -20.796875 
L 45.40625 -20.796875 
z
" id="DejaVuSans-113"/>
      <path d="M 8.5 21.578125 
L 8.5 54.6875 
L 17.484375 54.6875 
L 17.484375 21.921875 
Q 17.484375 14.15625 20.5 10.265625 
Q 23.53125 6.390625 29.59375 6.390625 
Q 36.859375 6.390625 41.078125 11.03125 
Q 45.3125 15.671875 45.3125 23.6875 
L 45.3125 54.6875 
L 54.296875 54.6875 
L 54.296875 0 
L 45.3125 0 
L 45.3125 8.40625 
Q 42.046875 3.421875 37.71875 1 
Q 33.40625 -1.421875 27.6875 -1.421875 
Q 18.265625 -1.421875 13.375 4.4375 
Q 8.5 10.296875 8.5 21.578125 
z
M 31.109375 56 
z
" id="DejaVuSans-117"/>
      <path d="M 54.890625 33.015625 
L 54.890625 0 
L 45.90625 0 
L 45.90625 32.71875 
Q 45.90625 40.484375 42.875 44.328125 
Q 39.84375 48.1875 33.796875 48.1875 
Q 26.515625 48.1875 22.3125 43.546875 
Q 18.109375 38.921875 18.109375 30.90625 
L 18.109375 0 
L 9.078125 0 
L 9.078125 54.6875 
L 18.109375 54.6875 
L 18.109375 46.1875 
Q 21.34375 51.125 25.703125 53.5625 
Q 30.078125 56 35.796875 56 
Q 45.21875 56 50.046875 50.171875 
Q 54.890625 44.34375 54.890625 33.015625 
z
" id="DejaVuSans-110"/>
      <path d="M 48.78125 52.59375 
L 48.78125 44.1875 
Q 44.96875 46.296875 41.140625 47.34375 
Q 37.3125 48.390625 33.40625 48.390625 
Q 24.65625 48.390625 19.8125 42.84375 
Q 14.984375 37.3125 14.984375 27.296875 
Q 14.984375 17.28125 19.8125 11.734375 
Q 24.65625 6.203125 33.40625 6.203125 
Q 37.3125 6.203125 41.140625 7.25 
Q 44.96875 8.296875 48.78125 10.40625 
L 48.78125 2.09375 
Q 45.015625 0.34375 40.984375 -0.53125 
Q 36.96875 -1.421875 32.421875 -1.421875 
Q 20.0625 -1.421875 12.78125 6.34375 
Q 5.515625 14.109375 5.515625 27.296875 
Q 5.515625 40.671875 12.859375 48.328125 
Q 20.21875 56 33.015625 56 
Q 37.15625 56 41.109375 55.140625 
Q 45.0625 54.296875 48.78125 52.59375 
z
" id="DejaVuSans-99"/>
      <path d="M 32.171875 -5.078125 
Q 28.375 -14.84375 24.75 -17.8125 
Q 21.140625 -20.796875 15.09375 -20.796875 
L 7.90625 -20.796875 
L 7.90625 -13.28125 
L 13.1875 -13.28125 
Q 16.890625 -13.28125 18.9375 -11.515625 
Q 21 -9.765625 23.484375 -3.21875 
L 25.09375 0.875 
L 2.984375 54.6875 
L 12.5 54.6875 
L 29.59375 11.921875 
L 46.6875 54.6875 
L 56.203125 54.6875 
z
" id="DejaVuSans-121"/>
     </defs>
     <g transform="translate(31.795312 90.710346)rotate(-90)scale(0.1 -0.1)">
      <use xlink:href="#DejaVuSans-70"/>
      <use x="57.410156" xlink:href="#DejaVuSans-114"/>
      <use x="98.492188" xlink:href="#DejaVuSans-101"/>
      <use x="160.015625" xlink:href="#DejaVuSans-113"/>
      <use x="223.492188" xlink:href="#DejaVuSans-117"/>
      <use x="286.871094" xlink:href="#DejaVuSans-101"/>
      <use x="348.394531" xlink:href="#DejaVuSans-110"/>
      <use x="411.773438" xlink:href="#DejaVuSans-99"/>
      <use x="466.753906" xlink:href="#DejaVuSans-121"/>
     </g>
    </g>
   </g>
   <g id="line2d_6">
    <path clip-path="url(#pd4e7e77108)" d="M 64.978512 84.70851 
L 65.291646 84.443537 
L 65.60478 84.075034 
L 65.917914 83.573038 
L 66.231048 82.903367 
L 66.544182 82.0288 
L 66.857316 80.911068 
L 67.17045 79.513705 
L 67.483584 77.80572 
L 67.796718 75.765922 
L 68.109852 73.387544 
L 68.422986 70.682714 
L 68.73612 67.686172 
L 69.049254 64.457607 
L 69.362388 61.08202 
L 69.675522 57.667676 
L 69.988656 54.34143 
L 70.30179 51.24157 
L 70.614924 48.508628 
L 70.928058 46.274986 
L 71.241192 44.654298 
L 71.554326 43.731932 
L 71.86746 43.557517 
L 72.180594 44.140522 
L 72.493728 45.4494 
L 72.806862 47.414423 
L 73.119996 49.93383 
L 73.43313 52.882551 
L 73.746264 56.122467 
L 74.059398 59.513024 
L 74.372532 62.921095 
L 74.685666 66.229148 
L 74.9988 69.3411 
L 75.311934 72.185553 
L 75.625068 74.716505 
L 75.938202 76.911847 
L 76.251336 78.7702 
L 76.56447 80.306715 
L 76.877604 81.548453 
L 77.190738 82.529865 
L 77.503872 83.288802 
L 77.817006 83.863265 
L 78.13014 84.289022 
L 78.443274 84.598072 
L 78.756408 84.817841 
L 79.069542 84.970973 
L 79.382676 85.075543 
L 79.69581 85.145537 
L 80.008944 85.191465 
L 80.322078 85.221012 
" style="fill:none;stroke:#1f77b4;stroke-linecap:square;stroke-width:1.5;"/>
   </g>
   <g id="line2d_7">
    <path clip-path="url(#pd4e7e77108)" d="M 188.684608 85.106112 
L 189.104088 85.028823 
L 189.523568 84.919976 
L 189.943048 84.769267 
L 190.362529 84.56414 
L 190.782009 84.28973 
L 191.201489 83.928998 
L 191.620969 83.463108 
L 192.040449 82.872107 
L 192.45993 82.135951 
L 192.87941 81.235875 
L 193.29889 80.156089 
L 193.71837 78.885717 
L 194.13785 77.420847 
L 194.557331 75.766519 
L 194.976811 73.938428 
L 195.396291 71.964111 
L 195.815771 69.883385 
L 196.235252 67.747863 
L 196.654732 65.619421 
L 197.074212 63.567608 
L 197.493692 61.666109 
L 197.913172 59.988483 
L 198.332653 58.603498 
L 198.752133 57.570477 
L 199.171613 56.935093 
L 199.591093 56.726022 
L 200.010574 56.952794 
L 200.430054 57.605073 
L 200.849534 58.653442 
L 201.269014 60.051597 
L 201.688494 61.739742 
L 202.107975 63.648823 
L 202.527455 65.705187 
L 202.946935 67.835236 
L 203.366415 69.969671 
L 203.785895 72.046991 
L 204.205376 74.016043 
L 204.624856 75.837506 
L 205.044336 77.48434 
L 205.463816 78.941312 
L 205.883297 80.203783 
L 206.302777 81.27599 
L 206.722257 82.169048 
L 207.141737 82.898905 
L 207.561217 83.48441 
L 207.980698 83.945628 
L 208.400178 84.302483 
L 208.819658 84.573749 
L 209.239138 84.776382 
" style="fill:none;stroke:#ff7f0e;stroke-linecap:square;stroke-width:1.5;"/>
   </g>
   <g id="line2d_8">
    <path clip-path="url(#pd4e7e77108)" d="M 190.481627 84.565097 
L 190.931976 84.290804 
L 191.382326 83.930506 
L 191.832676 83.465717 
L 192.283025 82.877033 
L 192.733375 82.145209 
L 193.183725 81.25259 
L 193.634074 80.184834 
L 194.084424 78.932868 
L 194.534774 77.494907 
L 194.985123 75.878367 
L 195.435473 74.101427 
L 195.885823 72.194026 
L 196.336172 70.198055 
L 196.786522 68.166583 
L 197.236872 66.162043 
L 197.687221 64.253368 
L 198.137571 62.512256 
L 198.587921 61.008796 
L 199.03827 59.806834 
L 199.48862 58.959488 
L 199.93897 58.505265 
L 200.389319 58.465152 
L 200.839669 58.841015 
L 201.290019 59.61545 
L 201.740368 60.753125 
L 202.190718 62.203445 
L 202.641068 63.904288 
L 203.091417 65.7864 
L 203.541767 67.778041 
L 203.992117 69.809432 
L 204.442466 71.816644 
L 204.892816 73.744637 
L 205.343166 75.549286 
L 205.793515 77.198347 
L 206.243865 78.67144 
L 206.694215 79.959193 
L 207.144564 81.061767 
L 207.594914 81.986995 
L 208.045264 82.748362 
L 208.495613 83.363031 
L 208.945963 83.850063 
L 209.396313 84.228926 
L 209.846662 84.518348 
L 210.297012 84.735525 
L 210.747362 84.895634 
L 211.197711 85.011621 
L 211.648061 85.0942 
L 212.098411 85.151991 
L 212.54876 85.191748 
" style="fill:none;stroke:#2ca02c;stroke-linecap:square;stroke-width:1.5;"/>
   </g>
   <g id="line2d_9">
    <path clip-path="url(#pd4e7e77108)" d="M 185.642076 85.267862 
L 185.642076 43.557517 
" style="fill:none;stroke:#ff0000;stroke-linecap:square;stroke-width:1.5;"/>
   </g>
   <g id="line2d_10">
    <path clip-path="url(#pd4e7e77108)" d="M 80.478976 85.267862 
L 80.478976 56.726022 
" style="fill:none;stroke:#ff0000;stroke-linecap:square;stroke-width:1.5;"/>
   </g>
   <g id="line2d_11">
    <path clip-path="url(#pd4e7e77108)" d="M 205.451542 85.267862 
L 205.451542 58.465152 
" style="fill:none;stroke:#ff0000;stroke-linecap:square;stroke-width:1.5;"/>
   </g>
   <g id="patch_3">
    <path d="M 57.6 87.353379 
L 57.6 41.472 
" style="fill:none;stroke:#000000;stroke-linecap:square;stroke-linejoin:miter;stroke-width:0.8;"/>
   </g>
   <g id="patch_4">
    <path d="M 219.927273 87.353379 
L 219.927273 41.472 
" style="fill:none;stroke:#000000;stroke-linecap:square;stroke-linejoin:miter;stroke-width:0.8;"/>
   </g>
   <g id="patch_5">
    <path d="M 57.6 87.353379 
L 219.927273 87.353379 
" style="fill:none;stroke:#000000;stroke-linecap:square;stroke-linejoin:miter;stroke-width:0.8;"/>
   </g>
   <g id="patch_6">
    <path d="M 57.6 41.472 
L 219.927273 41.472 
" style="fill:none;stroke:#000000;stroke-linecap:square;stroke-linejoin:miter;stroke-width:0.8;"/>
   </g>
   <g id="text_7">
    <!-- w -->
    <defs>
     <path d="M 4.203125 54.6875 
L 13.1875 54.6875 
L 24.421875 12.015625 
L 35.59375 54.6875 
L 46.1875 54.6875 
L 57.421875 12.015625 
L 68.609375 54.6875 
L 77.59375 54.6875 
L 63.28125 0 
L 52.6875 0 
L 40.921875 44.828125 
L 29.109375 0 
L 18.5 0 
z
" id="DejaVuSans-119"/>
    </defs>
    <g transform="translate(133.856761 35.472)scale(0.12 -0.12)">
     <use xlink:href="#DejaVuSans-119"/>
    </g>
   </g>
  </g>
  <g id="axes_2">
   <g id="patch_7">
    <path d="M 57.6 142.411034 
L 219.927273 142.411034 
L 219.927273 96.529655 
L 57.6 96.529655 
z
" style="fill:#ffffff;"/>
   </g>
   <g id="matplotlib.axis_3">
    <g id="xtick_4">
     <g id="line2d_12">
      <g>
       <use style="stroke:#000000;stroke-width:0.8;" x="79.672996" xlink:href="#mc129d17cdd" y="142.411034"/>
      </g>
     </g>
     <g id="text_8">
      <!-- 10 -->
      <defs>
       <path d="M 12.40625 8.296875 
L 28.515625 8.296875 
L 28.515625 63.921875 
L 10.984375 60.40625 
L 10.984375 69.390625 
L 28.421875 72.90625 
L 38.28125 72.90625 
L 38.28125 8.296875 
L 54.390625 8.296875 
L 54.390625 0 
L 12.40625 0 
z
" id="DejaVuSans-49"/>
      </defs>
      <g transform="translate(73.310496 157.009472)scale(0.1 -0.1)">
       <use xlink:href="#DejaVuSans-49"/>
       <use x="63.623047" xlink:href="#DejaVuSans-48"/>
      </g>
     </g>
    </g>
    <g id="xtick_5">
     <g id="line2d_13">
      <g>
       <use style="stroke:#000000;stroke-width:0.8;" x="137.576196" xlink:href="#mc129d17cdd" y="142.411034"/>
      </g>
     </g>
     <g id="text_9">
      <!-- 20 -->
      <g transform="translate(131.213696 157.009472)scale(0.1 -0.1)">
       <use xlink:href="#DejaVuSans-50"/>
       <use x="63.623047" xlink:href="#DejaVuSans-48"/>
      </g>
     </g>
    </g>
    <g id="xtick_6">
     <g id="line2d_14">
      <g>
       <use style="stroke:#000000;stroke-width:0.8;" x="195.479395" xlink:href="#mc129d17cdd" y="142.411034"/>
      </g>
     </g>
     <g id="text_10">
      <!-- 30 -->
      <g transform="translate(189.116895 157.009472)scale(0.1 -0.1)">
       <use xlink:href="#DejaVuSans-51"/>
       <use x="63.623047" xlink:href="#DejaVuSans-48"/>
      </g>
     </g>
    </g>
   </g>
   <g id="matplotlib.axis_4">
    <g id="ytick_3">
     <g id="line2d_15">
      <g>
       <use style="stroke:#000000;stroke-width:0.8;" x="57.6" xlink:href="#m1a43ae3f72" y="140.325517"/>
      </g>
     </g>
     <g id="text_11">
      <!-- 0.0 -->
      <g transform="translate(34.696875 144.124736)scale(0.1 -0.1)">
       <use xlink:href="#DejaVuSans-48"/>
       <use x="63.623047" xlink:href="#DejaVuSans-46"/>
       <use x="95.410156" xlink:href="#DejaVuSans-48"/>
      </g>
     </g>
    </g>
    <g id="ytick_4">
     <g id="line2d_16">
      <g>
       <use style="stroke:#000000;stroke-width:0.8;" x="57.6" xlink:href="#m1a43ae3f72" y="117.650842"/>
      </g>
     </g>
     <g id="text_12">
      <!-- 0.5 -->
      <g transform="translate(34.696875 121.450061)scale(0.1 -0.1)">
       <use xlink:href="#DejaVuSans-48"/>
       <use x="63.623047" xlink:href="#DejaVuSans-46"/>
       <use x="95.410156" xlink:href="#DejaVuSans-53"/>
      </g>
     </g>
    </g>
    <g id="text_13">
     <!-- Frequency -->
     <g transform="translate(28.617187 145.768001)rotate(-90)scale(0.1 -0.1)">
      <use xlink:href="#DejaVuSans-70"/>
      <use x="57.410156" xlink:href="#DejaVuSans-114"/>
      <use x="98.492188" xlink:href="#DejaVuSans-101"/>
      <use x="160.015625" xlink:href="#DejaVuSans-113"/>
      <use x="223.492188" xlink:href="#DejaVuSans-117"/>
      <use x="286.871094" xlink:href="#DejaVuSans-101"/>
      <use x="348.394531" xlink:href="#DejaVuSans-110"/>
      <use x="411.773438" xlink:href="#DejaVuSans-99"/>
      <use x="466.753906" xlink:href="#DejaVuSans-121"/>
     </g>
    </g>
   </g>
   <g id="line2d_17">
    <path clip-path="url(#p7d7ec4e607)" d="M 197.838924 139.593573 
L 198.139125 139.308808 
L 198.439326 138.932843 
L 198.739526 138.444313 
L 199.039727 137.819662 
L 199.339928 137.033895 
L 199.640128 136.06171 
L 199.940329 134.878999 
L 200.24053 133.464727 
L 200.540731 131.803095 
L 200.840931 129.885872 
L 201.141132 127.714731 
L 201.441333 125.303359 
L 201.741534 122.679111 
L 202.041734 119.88396 
L 202.341935 116.974519 
L 202.642136 114.02098 
L 202.942337 111.104884 
L 203.242537 108.315762 
L 203.542738 105.746803 
L 203.842939 103.489804 
L 204.14314 101.629783 
L 204.44334 100.239691 
L 204.743541 99.375663 
L 205.043742 99.073269 
L 205.343943 99.345074 
L 205.644143 100.17978 
L 205.944344 101.543001 
L 206.244545 103.379615 
L 206.544746 105.617458 
L 206.844946 108.172025 
L 207.145147 110.951745 
L 207.445348 113.863372 
L 207.745548 116.81706 
L 208.045749 119.730746 
L 208.34595 122.533567 
L 208.646151 125.168145 
L 208.946351 127.591717 
L 209.246552 129.776162 
L 209.546753 131.7071 
L 209.846954 133.382266 
L 210.147154 134.809418 
L 210.447355 136.004013 
L 210.747556 136.986862 
L 211.047757 137.781957 
L 211.347957 138.414581 
L 211.648158 138.909775 
L 211.948359 139.291195 
L 212.24856 139.580337 
L 212.54876 139.796097 
" style="fill:none;stroke:#1f77b4;stroke-linecap:square;stroke-width:1.5;"/>
   </g>
   <g id="line2d_18">
    <path clip-path="url(#p7d7ec4e607)" d="M 64.978512 139.671921 
L 65.260844 139.427234 
L 65.543176 139.106466 
L 65.825508 138.691953 
L 66.107839 138.164015 
L 66.390171 137.501414 
L 66.672503 136.682083 
L 66.954834 135.684143 
L 67.237166 134.487202 
L 67.519498 133.073915 
L 67.80183 131.431751 
L 68.084161 129.554844 
L 68.366493 127.44583 
L 68.648825 125.11748 
L 68.931156 122.593979 
L 69.213488 119.911664 
L 69.49582 117.119054 
L 69.778152 114.276084 
L 70.060483 111.452446 
L 70.342815 108.725084 
L 70.625147 106.174907 
L 70.907478 103.882924 
L 71.18981 101.926029 
L 71.472142 100.37274 
L 71.754474 99.279231 
L 72.036805 98.685956 
L 72.319137 98.615172 
L 72.601469 99.069549 
L 72.8838 100.032002 
L 73.166132 101.466761 
L 73.448464 103.321574 
L 73.730796 105.530867 
L 74.013127 108.019582 
L 74.295459 110.707394 
L 74.577791 113.512968 
L 74.860122 116.357944 
L 75.142454 119.170403 
L 75.424786 121.887592 
L 75.707118 124.457813 
L 75.989449 126.841431 
L 76.271781 129.011045 
L 76.554113 130.950924 
L 76.836444 132.65586 
L 77.118776 134.129611 
L 77.401108 135.383103 
L 77.68344 136.432568 
L 77.965771 137.297741 
L 78.248103 138.000244 
L 78.530435 138.562203 
L 78.812766 139.005162 
" style="fill:none;stroke:#ff7f0e;stroke-linecap:square;stroke-width:1.5;"/>
   </g>
   <g id="line2d_19">
    <path clip-path="url(#p7d7ec4e607)" d="M 208.515794 140.325517 
L 208.515794 99.073269 
" style="fill:none;stroke:#ff0000;stroke-linecap:square;stroke-width:1.5;"/>
   </g>
   <g id="line2d_20">
    <path clip-path="url(#p7d7ec4e607)" d="M 67.158996 140.325517 
L 67.158996 98.615172 
" style="fill:none;stroke:#ff0000;stroke-linecap:square;stroke-width:1.5;"/>
   </g>
   <g id="patch_8">
    <path d="M 57.6 142.411034 
L 57.6 96.529655 
" style="fill:none;stroke:#000000;stroke-linecap:square;stroke-linejoin:miter;stroke-width:0.8;"/>
   </g>
   <g id="patch_9">
    <path d="M 219.927273 142.411034 
L 219.927273 96.529655 
" style="fill:none;stroke:#000000;stroke-linecap:square;stroke-linejoin:miter;stroke-width:0.8;"/>
   </g>
   <g id="patch_10">
    <path d="M 57.6 142.411034 
L 219.927273 142.411034 
" style="fill:none;stroke:#000000;stroke-linecap:square;stroke-linejoin:miter;stroke-width:0.8;"/>
   </g>
   <g id="patch_11">
    <path d="M 57.6 96.529655 
L 219.927273 96.529655 
" style="fill:none;stroke:#000000;stroke-linecap:square;stroke-linejoin:miter;stroke-width:0.8;"/>
   </g>
   <g id="text_14">
    <!-- mu0 -->
    <defs>
     <path d="M 52 44.1875 
Q 55.375 50.25 60.0625 53.125 
Q 64.75 56 71.09375 56 
Q 79.640625 56 84.28125 50.015625 
Q 88.921875 44.046875 88.921875 33.015625 
L 88.921875 0 
L 79.890625 0 
L 79.890625 32.71875 
Q 79.890625 40.578125 77.09375 44.375 
Q 74.3125 48.1875 68.609375 48.1875 
Q 61.625 48.1875 57.5625 43.546875 
Q 53.515625 38.921875 53.515625 30.90625 
L 53.515625 0 
L 44.484375 0 
L 44.484375 32.71875 
Q 44.484375 40.625 41.703125 44.40625 
Q 38.921875 48.1875 33.109375 48.1875 
Q 26.21875 48.1875 22.15625 43.53125 
Q 18.109375 38.875 18.109375 30.90625 
L 18.109375 0 
L 9.078125 0 
L 9.078125 54.6875 
L 18.109375 54.6875 
L 18.109375 46.1875 
Q 21.1875 51.21875 25.484375 53.609375 
Q 29.78125 56 35.6875 56 
Q 41.65625 56 45.828125 52.96875 
Q 50 49.953125 52 44.1875 
z
" id="DejaVuSans-109"/>
    </defs>
    <g transform="translate(125.299261 90.529655)scale(0.12 -0.12)">
     <use xlink:href="#DejaVuSans-109"/>
     <use x="97.412109" xlink:href="#DejaVuSans-117"/>
     <use x="160.791016" xlink:href="#DejaVuSans-48"/>
    </g>
   </g>
  </g>
  <g id="axes_3">
   <g id="patch_12">
    <path d="M 57.6 197.46869 
L 219.927273 197.46869 
L 219.927273 151.58731 
L 57.6 151.58731 
z
" style="fill:#ffffff;"/>
   </g>
   <g id="matplotlib.axis_5">
    <g id="xtick_7">
     <g id="line2d_21">
      <g>
       <use style="stroke:#000000;stroke-width:0.8;" x="65.469896" xlink:href="#mc129d17cdd" y="197.46869"/>
      </g>
     </g>
     <g id="text_15">
      <!-- 0 -->
      <g transform="translate(62.288646 212.067127)scale(0.1 -0.1)">
       <use xlink:href="#DejaVuSans-48"/>
      </g>
     </g>
    </g>
    <g id="xtick_8">
     <g id="line2d_22">
      <g>
       <use style="stroke:#000000;stroke-width:0.8;" x="110.18646" xlink:href="#mc129d17cdd" y="197.46869"/>
      </g>
     </g>
     <g id="text_16">
      <!-- 5 -->
      <g transform="translate(107.00521 212.067127)scale(0.1 -0.1)">
       <use xlink:href="#DejaVuSans-53"/>
      </g>
     </g>
    </g>
    <g id="xtick_9">
     <g id="line2d_23">
      <g>
       <use style="stroke:#000000;stroke-width:0.8;" x="154.903024" xlink:href="#mc129d17cdd" y="197.46869"/>
      </g>
     </g>
     <g id="text_17">
      <!-- 10 -->
      <g transform="translate(148.540524 212.067127)scale(0.1 -0.1)">
       <use xlink:href="#DejaVuSans-49"/>
       <use x="63.623047" xlink:href="#DejaVuSans-48"/>
      </g>
     </g>
    </g>
    <g id="xtick_10">
     <g id="line2d_24">
      <g>
       <use style="stroke:#000000;stroke-width:0.8;" x="199.619588" xlink:href="#mc129d17cdd" y="197.46869"/>
      </g>
     </g>
     <g id="text_18">
      <!-- 15 -->
      <g transform="translate(193.257088 212.067127)scale(0.1 -0.1)">
       <use xlink:href="#DejaVuSans-49"/>
       <use x="63.623047" xlink:href="#DejaVuSans-53"/>
      </g>
     </g>
    </g>
   </g>
   <g id="matplotlib.axis_6">
    <g id="ytick_5">
     <g id="line2d_25">
      <g>
       <use style="stroke:#000000;stroke-width:0.8;" x="57.6" xlink:href="#m1a43ae3f72" y="195.383172"/>
      </g>
     </g>
     <g id="text_19">
      <!-- 0 -->
      <g transform="translate(44.2375 199.182391)scale(0.1 -0.1)">
       <use xlink:href="#DejaVuSans-48"/>
      </g>
     </g>
    </g>
    <g id="ytick_6">
     <g id="line2d_26">
      <g>
       <use style="stroke:#000000;stroke-width:0.8;" x="57.6" xlink:href="#m1a43ae3f72" y="168.775911"/>
      </g>
     </g>
     <g id="text_20">
      <!-- 20 -->
      <g transform="translate(37.875 172.57513)scale(0.1 -0.1)">
       <use xlink:href="#DejaVuSans-50"/>
       <use x="63.623047" xlink:href="#DejaVuSans-48"/>
      </g>
     </g>
    </g>
    <g id="text_21">
     <!-- Frequency -->
     <g transform="translate(31.795312 200.825656)rotate(-90)scale(0.1 -0.1)">
      <use xlink:href="#DejaVuSans-70"/>
      <use x="57.410156" xlink:href="#DejaVuSans-114"/>
      <use x="98.492188" xlink:href="#DejaVuSans-101"/>
      <use x="160.015625" xlink:href="#DejaVuSans-113"/>
      <use x="223.492188" xlink:href="#DejaVuSans-117"/>
      <use x="286.871094" xlink:href="#DejaVuSans-101"/>
      <use x="348.394531" xlink:href="#DejaVuSans-110"/>
      <use x="411.773438" xlink:href="#DejaVuSans-99"/>
      <use x="466.753906" xlink:href="#DejaVuSans-121"/>
     </g>
    </g>
   </g>
   <g id="line2d_27">
    <path clip-path="url(#p332abcbf89)" d="M 207.743197 195.251708 
L 207.84127 195.210197 
L 207.939343 195.158011 
L 208.037415 195.093214 
L 208.135488 195.013761 
L 208.233561 194.917568 
L 208.331633 194.802598 
L 208.429706 194.666977 
L 208.527779 194.50912 
L 208.625852 194.327871 
L 208.723924 194.122656 
L 208.821997 193.893629 
L 208.92007 193.641803 
L 209.018142 193.369163 
L 209.116215 193.078735 
L 209.214288 192.77461 
L 209.312361 192.461911 
L 209.410433 192.146695 
L 209.508506 191.835795 
L 209.606579 191.536588 
L 209.704651 191.256729 
L 209.802724 191.003824 
L 209.900797 190.785099 
L 209.99887 190.607053 
L 210.096942 190.475141 
L 210.195015 190.393496 
L 210.293088 190.364714 
L 210.391161 190.389718 
L 210.489233 190.467706 
L 210.587306 190.596196 
L 210.685379 190.771158 
L 210.783451 190.98722 
L 210.881524 191.237947 
L 210.979597 191.516155 
L 211.07767 191.81425 
L 211.175742 192.124574 
L 211.273815 192.439717 
L 211.371888 192.752802 
L 211.46996 193.05771 
L 211.568033 193.349249 
L 211.666106 193.623253 
L 211.764179 193.876622 
L 211.862251 194.107299 
L 211.960324 194.314205 
L 212.058397 194.497131 
L 212.156469 194.656604 
L 212.254542 194.793743 
L 212.352615 194.910108 
L 212.450688 195.007559 
L 212.54876 195.088123 
" style="fill:none;stroke:#1f77b4;stroke-linecap:square;stroke-width:1.5;"/>
   </g>
   <g id="line2d_28">
    <path clip-path="url(#p332abcbf89)" d="M 64.978512 194.913914 
L 64.993377 194.695121 
L 65.008242 194.391377 
L 65.023107 193.97772 
L 65.037972 193.425213 
L 65.052836 192.701634 
L 65.067701 191.772754 
L 65.082566 190.604314 
L 65.097431 189.1647 
L 65.112296 187.428242 
L 65.12716 185.378979 
L 65.142025 183.014564 
L 65.15689 180.34993 
L 65.171755 177.420229 
L 65.18662 174.282543 
L 65.201484 171.015932 
L 65.216349 167.719467 
L 65.231214 164.508141 
L 65.246079 161.506752 
L 65.260944 158.842152 
L 65.275808 156.634496 
L 65.290673 154.988311 
L 65.305538 153.984308 
L 65.320403 153.672828 
L 65.335268 154.069654 
L 65.350132 155.154691 
L 65.364997 156.873649 
L 65.379862 159.142546 
L 65.394727 161.854504 
L 65.409592 164.88808 
L 65.424456 168.116216 
L 65.439321 171.414918 
L 65.454186 174.67083 
L 65.469051 177.787127 
L 65.483916 180.687347 
L 65.49878 183.3171 
L 65.513645 185.643801 
L 65.52851 187.654783 
L 65.543375 189.354244 
L 65.558239 190.75953 
L 65.573104 191.89722 
L 65.587969 192.799415 
L 65.602834 193.500499 
L 65.617699 194.034547 
L 65.632563 194.433441 
L 65.647428 194.725661 
L 65.662293 194.935667 
L 65.677158 195.083748 
L 65.692023 195.186217 
L 65.706887 195.255809 
" style="fill:none;stroke:#ff7f0e;stroke-linecap:square;stroke-width:1.5;"/>
   </g>
   <g id="line2d_29">
    <path clip-path="url(#p332abcbf89)" d="M 206.601909 195.383172 
L 206.601909 190.364714 
" style="fill:none;stroke:#ff0000;stroke-linecap:square;stroke-width:1.5;"/>
   </g>
   <g id="line2d_30">
    <path clip-path="url(#p332abcbf89)" d="M 65.301304 195.383172 
L 65.301304 153.672828 
" style="fill:none;stroke:#ff0000;stroke-linecap:square;stroke-width:1.5;"/>
   </g>
   <g id="patch_13">
    <path d="M 57.6 197.46869 
L 57.6 151.58731 
" style="fill:none;stroke:#000000;stroke-linecap:square;stroke-linejoin:miter;stroke-width:0.8;"/>
   </g>
   <g id="patch_14">
    <path d="M 219.927273 197.46869 
L 219.927273 151.58731 
" style="fill:none;stroke:#000000;stroke-linecap:square;stroke-linejoin:miter;stroke-width:0.8;"/>
   </g>
   <g id="patch_15">
    <path d="M 57.6 197.46869 
L 219.927273 197.46869 
" style="fill:none;stroke:#000000;stroke-linecap:square;stroke-linejoin:miter;stroke-width:0.8;"/>
   </g>
   <g id="patch_16">
    <path d="M 57.6 151.58731 
L 219.927273 151.58731 
" style="fill:none;stroke:#000000;stroke-linecap:square;stroke-linejoin:miter;stroke-width:0.8;"/>
   </g>
   <g id="text_22">
    <!-- mu2 -->
    <g transform="translate(125.299261 145.58731)scale(0.12 -0.12)">
     <use xlink:href="#DejaVuSans-109"/>
     <use x="97.412109" xlink:href="#DejaVuSans-117"/>
     <use x="160.791016" xlink:href="#DejaVuSans-50"/>
    </g>
   </g>
  </g>
  <g id="axes_4">
   <g id="patch_17">
    <path d="M 57.6 252.526345 
L 219.927273 252.526345 
L 219.927273 206.644966 
L 57.6 206.644966 
z
" style="fill:#ffffff;"/>
   </g>
   <g id="matplotlib.axis_7">
    <g id="xtick_11">
     <g id="line2d_31">
      <g>
       <use style="stroke:#000000;stroke-width:0.8;" x="64.650448" xlink:href="#mc129d17cdd" y="252.526345"/>
      </g>
     </g>
     <g id="text_23">
      <!-- 0 -->
      <g transform="translate(61.469198 267.124782)scale(0.1 -0.1)">
       <use xlink:href="#DejaVuSans-48"/>
      </g>
     </g>
    </g>
    <g id="xtick_12">
     <g id="line2d_32">
      <g>
       <use style="stroke:#000000;stroke-width:0.8;" x="109.340267" xlink:href="#mc129d17cdd" y="252.526345"/>
      </g>
     </g>
     <g id="text_24">
      <!-- 10 -->
      <g transform="translate(102.977767 267.124782)scale(0.1 -0.1)">
       <use xlink:href="#DejaVuSans-49"/>
       <use x="63.623047" xlink:href="#DejaVuSans-48"/>
      </g>
     </g>
    </g>
    <g id="xtick_13">
     <g id="line2d_33">
      <g>
       <use style="stroke:#000000;stroke-width:0.8;" x="154.030085" xlink:href="#mc129d17cdd" y="252.526345"/>
      </g>
     </g>
     <g id="text_25">
      <!-- 20 -->
      <g transform="translate(147.667585 267.124782)scale(0.1 -0.1)">
       <use xlink:href="#DejaVuSans-50"/>
       <use x="63.623047" xlink:href="#DejaVuSans-48"/>
      </g>
     </g>
    </g>
    <g id="xtick_14">
     <g id="line2d_34">
      <g>
       <use style="stroke:#000000;stroke-width:0.8;" x="198.719904" xlink:href="#mc129d17cdd" y="252.526345"/>
      </g>
     </g>
     <g id="text_26">
      <!-- 30 -->
      <g transform="translate(192.357404 267.124782)scale(0.1 -0.1)">
       <use xlink:href="#DejaVuSans-51"/>
       <use x="63.623047" xlink:href="#DejaVuSans-48"/>
      </g>
     </g>
    </g>
   </g>
   <g id="matplotlib.axis_8">
    <g id="ytick_7">
     <g id="line2d_35">
      <g>
       <use style="stroke:#000000;stroke-width:0.8;" x="57.6" xlink:href="#m1a43ae3f72" y="250.440828"/>
      </g>
     </g>
     <g id="text_27">
      <!-- 0 -->
      <g transform="translate(44.2375 254.240046)scale(0.1 -0.1)">
       <use xlink:href="#DejaVuSans-48"/>
      </g>
     </g>
    </g>
    <g id="ytick_8">
     <g id="line2d_36">
      <g>
       <use style="stroke:#000000;stroke-width:0.8;" x="57.6" xlink:href="#m1a43ae3f72" y="211.152717"/>
      </g>
     </g>
     <g id="text_28">
      <!-- 10 -->
      <g transform="translate(37.875 214.951936)scale(0.1 -0.1)">
       <use xlink:href="#DejaVuSans-49"/>
       <use x="63.623047" xlink:href="#DejaVuSans-48"/>
      </g>
     </g>
    </g>
    <g id="text_29">
     <!-- Frequency -->
     <g transform="translate(31.795312 255.883311)rotate(-90)scale(0.1 -0.1)">
      <use xlink:href="#DejaVuSans-70"/>
      <use x="57.410156" xlink:href="#DejaVuSans-114"/>
      <use x="98.492188" xlink:href="#DejaVuSans-101"/>
      <use x="160.015625" xlink:href="#DejaVuSans-113"/>
      <use x="223.492188" xlink:href="#DejaVuSans-117"/>
      <use x="286.871094" xlink:href="#DejaVuSans-101"/>
      <use x="348.394531" xlink:href="#DejaVuSans-110"/>
      <use x="411.773438" xlink:href="#DejaVuSans-99"/>
      <use x="466.753906" xlink:href="#DejaVuSans-121"/>
     </g>
    </g>
   </g>
   <g id="line2d_37">
    <path clip-path="url(#p396d788473)" d="M 204.866189 250.392506 
L 205.022976 250.368909 
L 205.179763 250.335615 
L 205.33655 250.289532 
L 205.493337 250.226975 
L 205.650125 250.143705 
L 205.806912 250.035052 
L 205.963699 249.896115 
L 206.120486 249.722073 
L 206.277273 249.508596 
L 206.43406 249.252329 
L 206.590848 248.951453 
L 206.747635 248.606232 
L 206.904422 248.219526 
L 207.061209 247.797168 
L 207.217996 247.348151 
L 207.374784 246.88456 
L 207.531571 246.421205 
L 207.688358 245.974948 
L 207.845145 245.563751 
L 208.001932 245.205509 
L 208.158719 244.916778 
L 208.315507 244.711511 
L 208.472294 244.599937 
L 208.629081 244.587724 
L 208.785868 244.675497 
L 208.942655 244.858785 
L 209.099442 245.128401 
L 209.25623 245.471202 
L 209.413017 245.871153 
L 209.569804 246.310564 
L 209.726591 246.771376 
L 209.883378 247.236363 
L 210.040166 247.690143 
L 210.196953 248.119925 
L 210.35374 248.515947 
L 210.510527 248.871615 
L 210.667314 249.183378 
L 210.824101 249.450383 
L 210.980889 249.673994 
L 211.137676 249.857245 
L 211.294463 250.004277 
L 211.45125 250.119833 
L 211.608037 250.208825 
L 211.764824 250.276005 
L 211.921612 250.325728 
L 212.078399 250.361822 
L 212.235186 250.387521 
L 212.391973 250.405475 
L 212.54876 250.417781 
" style="fill:none;stroke:#1f77b4;stroke-linecap:square;stroke-width:1.5;"/>
   </g>
   <g id="line2d_38">
    <path clip-path="url(#p396d788473)" d="M 64.978512 249.780697 
L 64.998623 249.515611 
L 65.018733 249.162532 
L 65.038843 248.699844 
L 65.058953 248.10343 
L 65.079063 247.347358 
L 65.099173 246.404988 
L 65.119283 245.250474 
L 65.139394 243.860688 
L 65.159504 242.217489 
L 65.179614 240.310203 
L 65.199724 238.138159 
L 65.219834 235.713044 
L 65.239944 233.0608 
L 65.260055 230.222813 
L 65.280165 227.256123 
L 65.300275 224.232482 
L 65.320385 221.236134 
L 65.340495 218.36036 
L 65.360605 215.702915 
L 65.380715 213.360656 
L 65.400826 211.423748 
L 65.420936 209.969936 
L 65.441046 209.059371 
L 65.461156 208.730483 
L 65.481266 208.997294 
L 65.501376 209.848424 
L 65.521486 211.247896 
L 65.541597 213.137658 
L 65.561707 215.44158 
L 65.581817 218.070531 
L 65.601927 220.928081 
L 65.622037 223.916304 
L 65.642147 226.941224 
L 65.662258 229.917466 
L 65.682368 232.77185 
L 65.702478 235.445728 
L 65.722588 237.89607 
L 65.742698 240.095358 
L 65.762808 242.030496 
L 65.782918 243.700965 
L 65.803029 245.11651 
L 65.823139 246.294612 
L 65.843249 247.257988 
L 65.863359 248.032294 
L 65.883469 248.644169 
L 65.903579 249.119674 
L 65.92369 249.483157 
L 65.9438 249.756516 
L 65.96391 249.958805 
" style="fill:none;stroke:#ff7f0e;stroke-linecap:square;stroke-width:1.5;"/>
   </g>
   <g id="line2d_39">
    <path clip-path="url(#p396d788473)" d="M 204.45974 250.440828 
L 204.45974 244.587724 
" style="fill:none;stroke:#ff0000;stroke-linecap:square;stroke-width:1.5;"/>
   </g>
   <g id="line2d_40">
    <path clip-path="url(#p396d788473)" d="M 65.297317 250.440828 
L 65.297317 208.730483 
" style="fill:none;stroke:#ff0000;stroke-linecap:square;stroke-width:1.5;"/>
   </g>
   <g id="patch_18">
    <path d="M 57.6 252.526345 
L 57.6 206.644966 
" style="fill:none;stroke:#000000;stroke-linecap:square;stroke-linejoin:miter;stroke-width:0.8;"/>
   </g>
   <g id="patch_19">
    <path d="M 219.927273 252.526345 
L 219.927273 206.644966 
" style="fill:none;stroke:#000000;stroke-linecap:square;stroke-linejoin:miter;stroke-width:0.8;"/>
   </g>
   <g id="patch_20">
    <path d="M 57.6 252.526345 
L 219.927273 252.526345 
" style="fill:none;stroke:#000000;stroke-linecap:square;stroke-linejoin:miter;stroke-width:0.8;"/>
   </g>
   <g id="patch_21">
    <path d="M 57.6 206.644966 
L 219.927273 206.644966 
" style="fill:none;stroke:#000000;stroke-linecap:square;stroke-linejoin:miter;stroke-width:0.8;"/>
   </g>
   <g id="text_30">
    <!-- mu1 -->
    <g transform="translate(125.299261 200.644966)scale(0.12 -0.12)">
     <use xlink:href="#DejaVuSans-109"/>
     <use x="97.412109" xlink:href="#DejaVuSans-117"/>
     <use x="160.791016" xlink:href="#DejaVuSans-49"/>
    </g>
   </g>
  </g>
  <g id="axes_5">
   <g id="patch_22">
    <path d="M 57.6 307.584 
L 219.927273 307.584 
L 219.927273 261.702621 
L 57.6 261.702621 
z
" style="fill:#ffffff;"/>
   </g>
   <g id="matplotlib.axis_9">
    <g id="xtick_15">
     <g id="line2d_41">
      <g>
       <use style="stroke:#000000;stroke-width:0.8;" x="74.205764" xlink:href="#mc129d17cdd" y="307.584"/>
      </g>
     </g>
     <g id="text_31">
      <!-- 14.5 -->
      <g transform="translate(63.072951 322.182437)scale(0.1 -0.1)">
       <use xlink:href="#DejaVuSans-49"/>
       <use x="63.623047" xlink:href="#DejaVuSans-52"/>
       <use x="127.246094" xlink:href="#DejaVuSans-46"/>
       <use x="159.033203" xlink:href="#DejaVuSans-53"/>
      </g>
     </g>
    </g>
    <g id="xtick_16">
     <g id="line2d_42">
      <g>
       <use style="stroke:#000000;stroke-width:0.8;" x="118.363673" xlink:href="#mc129d17cdd" y="307.584"/>
      </g>
     </g>
     <g id="text_32">
      <!-- 15.0 -->
      <g transform="translate(107.23086 322.182437)scale(0.1 -0.1)">
       <use xlink:href="#DejaVuSans-49"/>
       <use x="63.623047" xlink:href="#DejaVuSans-53"/>
       <use x="127.246094" xlink:href="#DejaVuSans-46"/>
       <use x="159.033203" xlink:href="#DejaVuSans-48"/>
      </g>
     </g>
    </g>
    <g id="xtick_17">
     <g id="line2d_43">
      <g>
       <use style="stroke:#000000;stroke-width:0.8;" x="162.521582" xlink:href="#mc129d17cdd" y="307.584"/>
      </g>
     </g>
     <g id="text_33">
      <!-- 15.5 -->
      <g transform="translate(151.38877 322.182437)scale(0.1 -0.1)">
       <use xlink:href="#DejaVuSans-49"/>
       <use x="63.623047" xlink:href="#DejaVuSans-53"/>
       <use x="127.246094" xlink:href="#DejaVuSans-46"/>
       <use x="159.033203" xlink:href="#DejaVuSans-53"/>
      </g>
     </g>
    </g>
    <g id="xtick_18">
     <g id="line2d_44">
      <g>
       <use style="stroke:#000000;stroke-width:0.8;" x="206.679491" xlink:href="#mc129d17cdd" y="307.584"/>
      </g>
     </g>
     <g id="text_34">
      <!-- 16.0 -->
      <defs>
       <path d="M 33.015625 40.375 
Q 26.375 40.375 22.484375 35.828125 
Q 18.609375 31.296875 18.609375 23.390625 
Q 18.609375 15.53125 22.484375 10.953125 
Q 26.375 6.390625 33.015625 6.390625 
Q 39.65625 6.390625 43.53125 10.953125 
Q 47.40625 15.53125 47.40625 23.390625 
Q 47.40625 31.296875 43.53125 35.828125 
Q 39.65625 40.375 33.015625 40.375 
z
M 52.59375 71.296875 
L 52.59375 62.3125 
Q 48.875 64.0625 45.09375 64.984375 
Q 41.3125 65.921875 37.59375 65.921875 
Q 27.828125 65.921875 22.671875 59.328125 
Q 17.53125 52.734375 16.796875 39.40625 
Q 19.671875 43.65625 24.015625 45.921875 
Q 28.375 48.1875 33.59375 48.1875 
Q 44.578125 48.1875 50.953125 41.515625 
Q 57.328125 34.859375 57.328125 23.390625 
Q 57.328125 12.15625 50.6875 5.359375 
Q 44.046875 -1.421875 33.015625 -1.421875 
Q 20.359375 -1.421875 13.671875 8.265625 
Q 6.984375 17.96875 6.984375 36.375 
Q 6.984375 53.65625 15.1875 63.9375 
Q 23.390625 74.21875 37.203125 74.21875 
Q 40.921875 74.21875 44.703125 73.484375 
Q 48.484375 72.75 52.59375 71.296875 
z
" id="DejaVuSans-54"/>
      </defs>
      <g transform="translate(195.546679 322.182437)scale(0.1 -0.1)">
       <use xlink:href="#DejaVuSans-49"/>
       <use x="63.623047" xlink:href="#DejaVuSans-54"/>
       <use x="127.246094" xlink:href="#DejaVuSans-46"/>
       <use x="159.033203" xlink:href="#DejaVuSans-48"/>
      </g>
     </g>
    </g>
   </g>
   <g id="matplotlib.axis_10">
    <g id="ytick_9">
     <g id="line2d_45">
      <g>
       <use style="stroke:#000000;stroke-width:0.8;" x="57.6" xlink:href="#m1a43ae3f72" y="305.498483"/>
      </g>
     </g>
     <g id="text_35">
      <!-- 0 -->
      <g transform="translate(44.2375 309.297702)scale(0.1 -0.1)">
       <use xlink:href="#DejaVuSans-48"/>
      </g>
     </g>
    </g>
    <g id="ytick_10">
     <g id="line2d_46">
      <g>
       <use style="stroke:#000000;stroke-width:0.8;" x="57.6" xlink:href="#m1a43ae3f72" y="279.700134"/>
      </g>
     </g>
     <g id="text_36">
      <!-- 1 -->
      <g transform="translate(44.2375 283.499352)scale(0.1 -0.1)">
       <use xlink:href="#DejaVuSans-49"/>
      </g>
     </g>
    </g>
    <g id="text_37">
     <!-- Frequency -->
     <g transform="translate(38.157812 310.940967)rotate(-90)scale(0.1 -0.1)">
      <use xlink:href="#DejaVuSans-70"/>
      <use x="57.410156" xlink:href="#DejaVuSans-114"/>
      <use x="98.492188" xlink:href="#DejaVuSans-101"/>
      <use x="160.015625" xlink:href="#DejaVuSans-113"/>
      <use x="223.492188" xlink:href="#DejaVuSans-117"/>
      <use x="286.871094" xlink:href="#DejaVuSans-101"/>
      <use x="348.394531" xlink:href="#DejaVuSans-110"/>
      <use x="411.773438" xlink:href="#DejaVuSans-99"/>
      <use x="466.753906" xlink:href="#DejaVuSans-121"/>
     </g>
    </g>
   </g>
   <g id="line2d_47">
    <path clip-path="url(#p8d21b634a9)" d="M 64.978512 305.007473 
L 67.83193 304.77918 
L 70.685348 304.462663 
L 73.538765 304.032237 
L 76.392183 303.458248 
L 79.245601 302.707844 
L 82.099018 301.746356 
L 84.952436 300.539395 
L 87.805854 299.055656 
L 90.659271 297.270345 
L 93.512689 295.169036 
L 96.366107 292.751631 
L 99.219524 290.036002 
L 102.072942 287.060822 
L 104.92636 283.887084 
L 107.779777 280.597855 
L 110.633195 277.29595 
L 113.486613 274.099446 
L 116.34003 271.135178 
L 119.193448 268.530656 
L 122.046866 266.405096 
L 124.900283 264.860413 
L 127.753701 263.97314 
L 130.607118 263.788138 
L 133.460536 264.314843 
L 136.313954 265.526467 
L 139.167371 267.362251 
L 142.020789 269.732523 
L 144.874207 272.525944 
L 147.727624 275.61816 
L 150.581042 278.880903 
L 153.43446 282.190632 
L 156.287877 285.435925 
L 159.141295 288.523054 
L 161.994713 291.379429 
L 164.84813 293.954895 
L 167.701548 296.221079 
L 170.554966 298.169183 
L 173.408383 299.806693 
L 176.261801 301.153524 
L 179.115219 302.238068 
L 181.968636 303.093509 
L 184.822054 303.754676 
L 187.675472 304.255581 
L 190.528889 304.627669 
L 193.382307 304.898741 
L 196.235725 305.092456 
L 199.089142 305.228277 
L 201.94256 305.321723 
L 204.795978 305.384818 
" style="fill:none;stroke:#1f77b4;stroke-linecap:square;stroke-width:1.5;"/>
   </g>
   <g id="line2d_48">
    <path clip-path="url(#p8d21b634a9)" d="M 76.780835 304.255769 
L 79.551609 303.812654 
L 82.322383 303.243615 
L 85.093157 302.524802 
L 87.863931 301.631849 
L 90.634705 300.541273 
L 93.405479 299.232245 
L 96.176253 297.688645 
L 98.947027 295.901327 
L 101.717801 293.870388 
L 104.488575 291.607274 
L 107.259349 289.13646 
L 110.030123 286.49648 
L 112.800897 283.740069 
L 115.571671 280.933268 
L 118.342445 278.153394 
L 121.113219 275.485886 
L 123.883993 273.020184 
L 126.654767 270.844876 
L 129.425541 269.042479 
L 132.196315 267.684263 
L 134.967089 266.825588 
L 137.737863 266.502157 
L 140.508637 266.727559 
L 143.279411 267.492316 
L 146.050185 268.764547 
L 148.820959 270.492175 
L 151.591733 272.606458 
L 154.362507 275.026524 
L 157.133281 277.664484 
L 159.904055 280.430679 
L 162.674829 283.238622 
L 165.445603 286.009281 
L 168.216377 288.674411 
L 170.987151 291.178792 
L 173.757925 293.481328 
L 176.528699 295.555079 
L 179.299473 297.38637 
L 182.070247 298.973215 
L 184.841021 300.32327 
L 187.611794 301.451573 
L 190.382568 302.37827 
L 193.153342 303.126506 
L 195.924116 303.720604 
L 198.69489 304.184592 
L 201.465664 304.541108 
L 204.236438 304.81067 
L 207.007212 305.011265 
L 209.777986 305.158198 
L 212.54876 305.264153 
" style="fill:none;stroke:#ff7f0e;stroke-linecap:square;stroke-width:1.5;"/>
   </g>
   <g id="line2d_49">
    <path clip-path="url(#p8d21b634a9)" d="M 130.432423 305.498483 
L 130.432423 263.788138 
" style="fill:none;stroke:#ff0000;stroke-linecap:square;stroke-width:1.5;"/>
   </g>
   <g id="line2d_50">
    <path clip-path="url(#p8d21b634a9)" d="M 91.14773 305.498483 
L 91.14773 266.502157 
" style="fill:none;stroke:#ff0000;stroke-linecap:square;stroke-width:1.5;"/>
   </g>
   <g id="patch_23">
    <path d="M 57.6 307.584 
L 57.6 261.702621 
" style="fill:none;stroke:#000000;stroke-linecap:square;stroke-linejoin:miter;stroke-width:0.8;"/>
   </g>
   <g id="patch_24">
    <path d="M 219.927273 307.584 
L 219.927273 261.702621 
" style="fill:none;stroke:#000000;stroke-linecap:square;stroke-linejoin:miter;stroke-width:0.8;"/>
   </g>
   <g id="patch_25">
    <path d="M 57.6 307.584 
L 219.927273 307.584 
" style="fill:none;stroke:#000000;stroke-linecap:square;stroke-linejoin:miter;stroke-width:0.8;"/>
   </g>
   <g id="patch_26">
    <path d="M 57.6 261.702621 
L 219.927273 261.702621 
" style="fill:none;stroke:#000000;stroke-linecap:square;stroke-linejoin:miter;stroke-width:0.8;"/>
   </g>
   <g id="text_38">
    <!-- sigma0 -->
    <defs>
     <path d="M 44.28125 53.078125 
L 44.28125 44.578125 
Q 40.484375 46.53125 36.375 47.5 
Q 32.28125 48.484375 27.875 48.484375 
Q 21.1875 48.484375 17.84375 46.4375 
Q 14.5 44.390625 14.5 40.28125 
Q 14.5 37.15625 16.890625 35.375 
Q 19.28125 33.59375 26.515625 31.984375 
L 29.59375 31.296875 
Q 39.15625 29.25 43.1875 25.515625 
Q 47.21875 21.78125 47.21875 15.09375 
Q 47.21875 7.46875 41.1875 3.015625 
Q 35.15625 -1.421875 24.609375 -1.421875 
Q 20.21875 -1.421875 15.453125 -0.5625 
Q 10.6875 0.296875 5.421875 2 
L 5.421875 11.28125 
Q 10.40625 8.6875 15.234375 7.390625 
Q 20.0625 6.109375 24.8125 6.109375 
Q 31.15625 6.109375 34.5625 8.28125 
Q 37.984375 10.453125 37.984375 14.40625 
Q 37.984375 18.0625 35.515625 20.015625 
Q 33.0625 21.96875 24.703125 23.78125 
L 21.578125 24.515625 
Q 13.234375 26.265625 9.515625 29.90625 
Q 5.8125 33.546875 5.8125 39.890625 
Q 5.8125 47.609375 11.28125 51.796875 
Q 16.75 56 26.8125 56 
Q 31.78125 56 36.171875 55.265625 
Q 40.578125 54.546875 44.28125 53.078125 
z
" id="DejaVuSans-115"/>
     <path d="M 9.421875 54.6875 
L 18.40625 54.6875 
L 18.40625 0 
L 9.421875 0 
z
M 9.421875 75.984375 
L 18.40625 75.984375 
L 18.40625 64.59375 
L 9.421875 64.59375 
z
" id="DejaVuSans-105"/>
     <path d="M 45.40625 27.984375 
Q 45.40625 37.75 41.375 43.109375 
Q 37.359375 48.484375 30.078125 48.484375 
Q 22.859375 48.484375 18.828125 43.109375 
Q 14.796875 37.75 14.796875 27.984375 
Q 14.796875 18.265625 18.828125 12.890625 
Q 22.859375 7.515625 30.078125 7.515625 
Q 37.359375 7.515625 41.375 12.890625 
Q 45.40625 18.265625 45.40625 27.984375 
z
M 54.390625 6.78125 
Q 54.390625 -7.171875 48.1875 -13.984375 
Q 42 -20.796875 29.203125 -20.796875 
Q 24.46875 -20.796875 20.265625 -20.09375 
Q 16.0625 -19.390625 12.109375 -17.921875 
L 12.109375 -9.1875 
Q 16.0625 -11.328125 19.921875 -12.34375 
Q 23.78125 -13.375 27.78125 -13.375 
Q 36.625 -13.375 41.015625 -8.765625 
Q 45.40625 -4.15625 45.40625 5.171875 
L 45.40625 9.625 
Q 42.625 4.78125 38.28125 2.390625 
Q 33.9375 0 27.875 0 
Q 17.828125 0 11.671875 7.65625 
Q 5.515625 15.328125 5.515625 27.984375 
Q 5.515625 40.671875 11.671875 48.328125 
Q 17.828125 56 27.875 56 
Q 33.9375 56 38.28125 53.609375 
Q 42.625 51.21875 45.40625 46.390625 
L 45.40625 54.6875 
L 54.390625 54.6875 
z
" id="DejaVuSans-103"/>
     <path d="M 34.28125 27.484375 
Q 23.390625 27.484375 19.1875 25 
Q 14.984375 22.515625 14.984375 16.5 
Q 14.984375 11.71875 18.140625 8.90625 
Q 21.296875 6.109375 26.703125 6.109375 
Q 34.1875 6.109375 38.703125 11.40625 
Q 43.21875 16.703125 43.21875 25.484375 
L 43.21875 27.484375 
z
M 52.203125 31.203125 
L 52.203125 0 
L 43.21875 0 
L 43.21875 8.296875 
Q 40.140625 3.328125 35.546875 0.953125 
Q 30.953125 -1.421875 24.3125 -1.421875 
Q 15.921875 -1.421875 10.953125 3.296875 
Q 6 8.015625 6 15.921875 
Q 6 25.140625 12.171875 29.828125 
Q 18.359375 34.515625 30.609375 34.515625 
L 43.21875 34.515625 
L 43.21875 35.40625 
Q 43.21875 41.609375 39.140625 45 
Q 35.0625 48.390625 27.6875 48.390625 
Q 23 48.390625 18.546875 47.265625 
Q 14.109375 46.140625 10.015625 43.890625 
L 10.015625 52.203125 
Q 14.9375 54.109375 19.578125 55.046875 
Q 24.21875 56 28.609375 56 
Q 40.484375 56 46.34375 49.84375 
Q 52.203125 43.703125 52.203125 31.203125 
z
" id="DejaVuSans-97"/>
    </defs>
    <g transform="translate(116.823324 255.702621)scale(0.12 -0.12)">
     <use xlink:href="#DejaVuSans-115"/>
     <use x="52.099609" xlink:href="#DejaVuSans-105"/>
     <use x="79.882812" xlink:href="#DejaVuSans-103"/>
     <use x="143.359375" xlink:href="#DejaVuSans-109"/>
     <use x="240.771484" xlink:href="#DejaVuSans-97"/>
     <use x="302.050781" xlink:href="#DejaVuSans-48"/>
    </g>
   </g>
  </g>
  <g id="axes_6">
   <g id="patch_27">
    <path d="M 252.392727 87.353379 
L 414.72 87.353379 
L 414.72 41.472 
L 252.392727 41.472 
z
" style="fill:#ffffff;"/>
   </g>
   <g id="matplotlib.axis_11">
    <g id="xtick_19">
     <g id="line2d_51">
      <g>
       <use style="stroke:#000000;stroke-width:0.8;" x="302.207271" xlink:href="#mc129d17cdd" y="87.353379"/>
      </g>
     </g>
     <g id="text_39">
      <!-- 2 -->
      <g transform="translate(299.026021 101.951817)scale(0.1 -0.1)">
       <use xlink:href="#DejaVuSans-50"/>
      </g>
     </g>
    </g>
    <g id="xtick_20">
     <g id="line2d_52">
      <g>
       <use style="stroke:#000000;stroke-width:0.8;" x="365.779388" xlink:href="#mc129d17cdd" y="87.353379"/>
      </g>
     </g>
     <g id="text_40">
      <!-- 4 -->
      <g transform="translate(362.598138 101.951817)scale(0.1 -0.1)">
       <use xlink:href="#DejaVuSans-52"/>
      </g>
     </g>
    </g>
   </g>
   <g id="matplotlib.axis_12">
    <g id="ytick_11">
     <g id="line2d_53">
      <g>
       <use style="stroke:#000000;stroke-width:0.8;" x="252.392727" xlink:href="#m1a43ae3f72" y="85.267862"/>
      </g>
     </g>
     <g id="text_41">
      <!-- 0 -->
      <g transform="translate(239.030227 89.067081)scale(0.1 -0.1)">
       <use xlink:href="#DejaVuSans-48"/>
      </g>
     </g>
    </g>
    <g id="ytick_12">
     <g id="line2d_54">
      <g>
       <use style="stroke:#000000;stroke-width:0.8;" x="252.392727" xlink:href="#m1a43ae3f72" y="58.716272"/>
      </g>
     </g>
     <g id="text_42">
      <!-- 20 -->
      <g transform="translate(232.667727 62.515491)scale(0.1 -0.1)">
       <use xlink:href="#DejaVuSans-50"/>
       <use x="63.623047" xlink:href="#DejaVuSans-48"/>
      </g>
     </g>
    </g>
    <g id="text_43">
     <!-- Frequency -->
     <g transform="translate(226.58804 90.710346)rotate(-90)scale(0.1 -0.1)">
      <use xlink:href="#DejaVuSans-70"/>
      <use x="57.410156" xlink:href="#DejaVuSans-114"/>
      <use x="98.492188" xlink:href="#DejaVuSans-101"/>
      <use x="160.015625" xlink:href="#DejaVuSans-113"/>
      <use x="223.492188" xlink:href="#DejaVuSans-117"/>
      <use x="286.871094" xlink:href="#DejaVuSans-101"/>
      <use x="348.394531" xlink:href="#DejaVuSans-110"/>
      <use x="411.773438" xlink:href="#DejaVuSans-99"/>
      <use x="466.753906" xlink:href="#DejaVuSans-121"/>
     </g>
    </g>
   </g>
   <g id="line2d_55">
    <path clip-path="url(#p67c714cfa7)" d="M 392.173906 84.935438 
L 392.483448 84.827824 
L 392.792991 84.693441 
L 393.102533 84.528404 
L 393.412076 84.329136 
L 393.721618 84.092676 
L 394.031161 83.817031 
L 394.340703 83.50154 
L 394.650246 83.147229 
L 394.959788 82.757111 
L 395.269331 82.3364 
L 395.578873 81.8926 
L 395.888416 81.43544 
L 396.197958 80.976632 
L 396.507501 80.52945 
L 396.817043 80.10814 
L 397.126586 79.72719 
L 397.436128 79.400523 
L 397.745671 79.140657 
L 398.055213 78.957907 
L 398.364756 78.859712 
L 398.674298 78.850129 
L 398.983841 78.929556 
L 399.293383 79.094705 
L 399.602926 79.338827 
L 399.912468 79.652169 
L 400.222011 80.022624 
L 400.531553 80.4365 
L 400.841095 80.879357 
L 401.150638 81.336834 
L 401.46018 81.795394 
L 401.769723 82.242949 
L 402.079265 82.669317 
L 402.388808 83.066507 
L 402.69835 83.428816 
L 403.007893 83.752775 
L 403.317435 84.036956 
L 403.626978 84.281684 
L 403.93652 84.4887 
L 404.246063 84.660786 
L 404.555605 84.801416 
L 404.865148 84.914434 
L 405.17469 85.003777 
L 405.484233 85.073268 
L 405.793775 85.126459 
L 406.103318 85.166534 
L 406.41286 85.196257 
L 406.722403 85.217962 
L 407.031945 85.23357 
L 407.341488 85.244622 
" style="fill:none;stroke:#1f77b4;stroke-linecap:square;stroke-width:1.5;"/>
   </g>
   <g id="line2d_56">
    <path clip-path="url(#p67c714cfa7)" d="M 259.775649 82.942375 
L 259.817792 82.295648 
L 259.859934 81.510234 
L 259.902077 80.568758 
L 259.944219 79.45508 
L 259.986361 78.15539 
L 260.028504 76.659415 
L 260.070646 74.961707 
L 260.112789 73.062909 
L 260.154931 70.970918 
L 260.197074 68.70185 
L 260.239216 66.280688 
L 260.281359 63.741516 
L 260.323501 61.127269 
L 260.365644 58.488934 
L 260.407786 55.88419 
L 260.449929 53.375508 
L 260.492071 51.027786 
L 260.534214 48.905634 
L 260.576356 47.070455 
L 260.618499 45.577513 
L 260.660641 44.473178 
L 260.702783 43.792531 
L 260.744926 43.557517 
L 260.787068 43.775771 
L 260.829211 44.440201 
L 260.871353 45.529377 
L 260.913496 47.008674 
L 260.955638 48.832104 
L 260.997781 50.944683 
L 261.039923 53.285183 
L 261.082066 55.789063 
L 261.124208 58.391383 
L 261.166351 61.029538 
L 261.208493 63.645635 
L 261.250636 66.18841 
L 261.292778 68.614612 
L 261.334921 70.88982 
L 261.377063 72.988718 
L 261.419206 74.894869 
L 261.461348 76.600085 
L 261.50349 78.103476 
L 261.545633 79.410287 
L 261.587775 80.530633 
L 261.629918 81.478217 
L 261.67206 82.269112 
L 261.714203 82.920664 
L 261.756345 83.450562 
L 261.798488 83.87608 
L 261.84063 84.213515 
" style="fill:none;stroke:#ff7f0e;stroke-linecap:square;stroke-width:1.5;"/>
   </g>
   <g id="line2d_57">
    <path clip-path="url(#p67c714cfa7)" d="M 388.789502 85.267862 
L 388.789502 78.850129 
" style="fill:none;stroke:#ff0000;stroke-linecap:square;stroke-width:1.5;"/>
   </g>
   <g id="line2d_58">
    <path clip-path="url(#p67c714cfa7)" d="M 259.77124 85.267862 
L 259.77124 43.557517 
" style="fill:none;stroke:#ff0000;stroke-linecap:square;stroke-width:1.5;"/>
   </g>
   <g id="patch_28">
    <path d="M 252.392727 87.353379 
L 252.392727 41.472 
" style="fill:none;stroke:#000000;stroke-linecap:square;stroke-linejoin:miter;stroke-width:0.8;"/>
   </g>
   <g id="patch_29">
    <path d="M 414.72 87.353379 
L 414.72 41.472 
" style="fill:none;stroke:#000000;stroke-linecap:square;stroke-linejoin:miter;stroke-width:0.8;"/>
   </g>
   <g id="patch_30">
    <path d="M 252.392727 87.353379 
L 414.72 87.353379 
" style="fill:none;stroke:#000000;stroke-linecap:square;stroke-linejoin:miter;stroke-width:0.8;"/>
   </g>
   <g id="patch_31">
    <path d="M 252.392727 41.472 
L 414.72 41.472 
" style="fill:none;stroke:#000000;stroke-linecap:square;stroke-linejoin:miter;stroke-width:0.8;"/>
   </g>
   <g id="text_44">
    <!-- sigma2 -->
    <g transform="translate(311.616051 35.472)scale(0.12 -0.12)">
     <use xlink:href="#DejaVuSans-115"/>
     <use x="52.099609" xlink:href="#DejaVuSans-105"/>
     <use x="79.882812" xlink:href="#DejaVuSans-103"/>
     <use x="143.359375" xlink:href="#DejaVuSans-109"/>
     <use x="240.771484" xlink:href="#DejaVuSans-97"/>
     <use x="302.050781" xlink:href="#DejaVuSans-50"/>
    </g>
   </g>
  </g>
  <g id="axes_7">
   <g id="patch_32">
    <path d="M 252.392727 142.411034 
L 414.72 142.411034 
L 414.72 96.529655 
L 252.392727 96.529655 
z
" style="fill:#ffffff;"/>
   </g>
   <g id="matplotlib.axis_13">
    <g id="xtick_21">
     <g id="line2d_59">
      <g>
       <use style="stroke:#000000;stroke-width:0.8;" x="264.072974" xlink:href="#mc129d17cdd" y="142.411034"/>
      </g>
     </g>
     <g id="text_45">
      <!-- 2.5 -->
      <g transform="translate(256.121412 157.009472)scale(0.1 -0.1)">
       <use xlink:href="#DejaVuSans-50"/>
       <use x="63.623047" xlink:href="#DejaVuSans-46"/>
       <use x="95.410156" xlink:href="#DejaVuSans-53"/>
      </g>
     </g>
    </g>
    <g id="xtick_22">
     <g id="line2d_60">
      <g>
       <use style="stroke:#000000;stroke-width:0.8;" x="298.979832" xlink:href="#mc129d17cdd" y="142.411034"/>
      </g>
     </g>
     <g id="text_46">
      <!-- 5.0 -->
      <g transform="translate(291.02827 157.009472)scale(0.1 -0.1)">
       <use xlink:href="#DejaVuSans-53"/>
       <use x="63.623047" xlink:href="#DejaVuSans-46"/>
       <use x="95.410156" xlink:href="#DejaVuSans-48"/>
      </g>
     </g>
    </g>
    <g id="xtick_23">
     <g id="line2d_61">
      <g>
       <use style="stroke:#000000;stroke-width:0.8;" x="333.88669" xlink:href="#mc129d17cdd" y="142.411034"/>
      </g>
     </g>
     <g id="text_47">
      <!-- 7.5 -->
      <defs>
       <path d="M 8.203125 72.90625 
L 55.078125 72.90625 
L 55.078125 68.703125 
L 28.609375 0 
L 18.3125 0 
L 43.21875 64.59375 
L 8.203125 64.59375 
z
" id="DejaVuSans-55"/>
      </defs>
      <g transform="translate(325.935127 157.009472)scale(0.1 -0.1)">
       <use xlink:href="#DejaVuSans-55"/>
       <use x="63.623047" xlink:href="#DejaVuSans-46"/>
       <use x="95.410156" xlink:href="#DejaVuSans-53"/>
      </g>
     </g>
    </g>
    <g id="xtick_24">
     <g id="line2d_62">
      <g>
       <use style="stroke:#000000;stroke-width:0.8;" x="368.793547" xlink:href="#mc129d17cdd" y="142.411034"/>
      </g>
     </g>
     <g id="text_48">
      <!-- 10.0 -->
      <g transform="translate(357.660735 157.009472)scale(0.1 -0.1)">
       <use xlink:href="#DejaVuSans-49"/>
       <use x="63.623047" xlink:href="#DejaVuSans-48"/>
       <use x="127.246094" xlink:href="#DejaVuSans-46"/>
       <use x="159.033203" xlink:href="#DejaVuSans-48"/>
      </g>
     </g>
    </g>
    <g id="xtick_25">
     <g id="line2d_63">
      <g>
       <use style="stroke:#000000;stroke-width:0.8;" x="403.700405" xlink:href="#mc129d17cdd" y="142.411034"/>
      </g>
     </g>
     <g id="text_49">
      <!-- 12.5 -->
      <g transform="translate(392.567592 157.009472)scale(0.1 -0.1)">
       <use xlink:href="#DejaVuSans-49"/>
       <use x="63.623047" xlink:href="#DejaVuSans-50"/>
       <use x="127.246094" xlink:href="#DejaVuSans-46"/>
       <use x="159.033203" xlink:href="#DejaVuSans-53"/>
      </g>
     </g>
    </g>
   </g>
   <g id="matplotlib.axis_14">
    <g id="ytick_13">
     <g id="line2d_64">
      <g>
       <use style="stroke:#000000;stroke-width:0.8;" x="252.392727" xlink:href="#m1a43ae3f72" y="140.325517"/>
      </g>
     </g>
     <g id="text_50">
      <!-- 0 -->
      <g transform="translate(239.030227 144.124736)scale(0.1 -0.1)">
       <use xlink:href="#DejaVuSans-48"/>
      </g>
     </g>
    </g>
    <g id="ytick_14">
     <g id="line2d_65">
      <g>
       <use style="stroke:#000000;stroke-width:0.8;" x="252.392727" xlink:href="#m1a43ae3f72" y="115.620368"/>
      </g>
     </g>
     <g id="text_51">
      <!-- 5 -->
      <g transform="translate(239.030227 119.419587)scale(0.1 -0.1)">
       <use xlink:href="#DejaVuSans-53"/>
      </g>
     </g>
    </g>
    <g id="text_52">
     <!-- Frequency -->
     <g transform="translate(232.95054 145.768001)rotate(-90)scale(0.1 -0.1)">
      <use xlink:href="#DejaVuSans-70"/>
      <use x="57.410156" xlink:href="#DejaVuSans-114"/>
      <use x="98.492188" xlink:href="#DejaVuSans-101"/>
      <use x="160.015625" xlink:href="#DejaVuSans-113"/>
      <use x="223.492188" xlink:href="#DejaVuSans-117"/>
      <use x="286.871094" xlink:href="#DejaVuSans-101"/>
      <use x="348.394531" xlink:href="#DejaVuSans-110"/>
      <use x="411.773438" xlink:href="#DejaVuSans-99"/>
      <use x="466.753906" xlink:href="#DejaVuSans-121"/>
     </g>
    </g>
   </g>
   <g id="line2d_66">
    <path clip-path="url(#p06465d9781)" d="M 392.985258 140.275799 
L 393.278242 140.245876 
L 393.571226 140.200555 
L 393.864211 140.133456 
L 394.157195 140.036371 
L 394.450179 139.899122 
L 394.743164 139.709595 
L 395.036148 139.454038 
L 395.329132 139.117686 
L 395.622116 138.685783 
L 395.915101 138.145004 
L 396.208085 137.485231 
L 396.501069 136.701558 
L 396.794053 135.796307 
L 397.087038 134.780797 
L 397.380022 133.676542 
L 397.673006 132.515574 
L 397.965991 131.339671 
L 398.258975 130.198348 
L 398.551959 129.145689 
L 398.844943 128.236244 
L 399.137928 127.520411 
L 399.430912 127.039824 
L 399.723896 126.823359 
L 400.016881 126.884252 
L 400.309865 127.218765 
L 400.602849 127.806564 
L 400.895833 128.612766 
L 401.188818 129.591364 
L 401.481802 130.689564 
L 401.774786 131.852472 
L 402.067771 133.027543 
L 402.360755 134.168319 
L 402.653739 135.237109 
L 402.946723 136.206452 
L 403.239708 137.059388 
L 403.532692 137.788718 
L 403.825676 138.395519 
L 404.118661 138.88723 
L 404.411645 139.275607 
L 404.704629 139.574799 
L 404.997613 139.799719 
L 405.290598 139.964789 
L 405.583582 140.083103 
L 405.876566 140.165946 
L 406.16955 140.222628 
L 406.462535 140.260534 
L 406.755519 140.285315 
L 407.048503 140.301155 
L 407.341488 140.311056 
" style="fill:none;stroke:#1f77b4;stroke-linecap:square;stroke-width:1.5;"/>
   </g>
   <g id="line2d_67">
    <path clip-path="url(#p06465d9781)" d="M 261.281948 139.947383 
L 261.365003 139.773449 
L 261.448058 139.532195 
L 261.531113 139.203458 
L 261.614168 138.76348 
L 261.697223 138.185205 
L 261.780278 137.439012 
L 261.863333 136.493942 
L 261.946387 135.319504 
L 262.029442 133.888031 
L 262.112497 132.17753 
L 262.195552 130.174862 
L 262.278607 127.879011 
L 262.361662 125.304113 
L 262.444717 122.481883 
L 262.527772 119.463045 
L 262.610827 116.317411 
L 262.693882 113.132353 
L 262.776937 110.009562 
L 262.859992 107.06014 
L 262.943047 104.398319 
L 263.026102 102.134262 
L 263.109156 100.366556 
L 263.192211 99.17511 
L 263.275266 98.615172 
L 263.358321 98.713085 
L 263.441376 99.464223 
L 263.524431 100.833364 
L 263.607486 102.75742 
L 263.690541 105.150261 
L 263.773596 107.909099 
L 263.856651 110.921784 
L 263.939706 114.07429 
L 264.022761 117.257704 
L 264.105816 120.374138 
L 264.18887 123.34116 
L 264.271925 126.094531 
L 264.35498 128.589234 
L 264.438035 130.798963 
L 264.52109 132.714359 
L 264.604145 134.340362 
L 264.6872 135.693078 
L 264.770255 136.796501 
L 264.85331 137.67941 
L 264.936365 138.372659 
L 265.01942 138.90697 
L 265.102475 139.31131 
L 265.18553 139.611812 
L 265.268584 139.831183 
L 265.351639 139.988515 
" style="fill:none;stroke:#ff7f0e;stroke-linecap:square;stroke-width:1.5;"/>
   </g>
   <g id="line2d_68">
    <path clip-path="url(#p06465d9781)" d="M 397.183502 140.325517 
L 397.183502 126.823359 
" style="fill:none;stroke:#ff0000;stroke-linecap:square;stroke-width:1.5;"/>
   </g>
   <g id="line2d_69">
    <path clip-path="url(#p06465d9781)" d="M 259.77124 140.325517 
L 259.77124 98.615172 
" style="fill:none;stroke:#ff0000;stroke-linecap:square;stroke-width:1.5;"/>
   </g>
   <g id="patch_33">
    <path d="M 252.392727 142.411034 
L 252.392727 96.529655 
" style="fill:none;stroke:#000000;stroke-linecap:square;stroke-linejoin:miter;stroke-width:0.8;"/>
   </g>
   <g id="patch_34">
    <path d="M 414.72 142.411034 
L 414.72 96.529655 
" style="fill:none;stroke:#000000;stroke-linecap:square;stroke-linejoin:miter;stroke-width:0.8;"/>
   </g>
   <g id="patch_35">
    <path d="M 252.392727 142.411034 
L 414.72 142.411034 
" style="fill:none;stroke:#000000;stroke-linecap:square;stroke-linejoin:miter;stroke-width:0.8;"/>
   </g>
   <g id="patch_36">
    <path d="M 252.392727 96.529655 
L 414.72 96.529655 
" style="fill:none;stroke:#000000;stroke-linecap:square;stroke-linejoin:miter;stroke-width:0.8;"/>
   </g>
   <g id="text_53">
    <!-- sigma1 -->
    <g transform="translate(311.616051 90.529655)scale(0.12 -0.12)">
     <use xlink:href="#DejaVuSans-115"/>
     <use x="52.099609" xlink:href="#DejaVuSans-105"/>
     <use x="79.882812" xlink:href="#DejaVuSans-103"/>
     <use x="143.359375" xlink:href="#DejaVuSans-109"/>
     <use x="240.771484" xlink:href="#DejaVuSans-97"/>
     <use x="302.050781" xlink:href="#DejaVuSans-49"/>
    </g>
   </g>
  </g>
  <g id="axes_8">
   <g id="patch_37">
    <path d="M 252.392727 197.46869 
L 414.72 197.46869 
L 414.72 151.58731 
L 252.392727 151.58731 
z
" style="fill:#ffffff;"/>
   </g>
   <g id="matplotlib.axis_15">
    <g id="xtick_26">
     <g id="line2d_70">
      <g>
       <use style="stroke:#000000;stroke-width:0.8;" x="287.418976" xlink:href="#mc129d17cdd" y="197.46869"/>
      </g>
     </g>
     <g id="text_54">
      <!-- 0.05 -->
      <defs>
       <path d="M 10.59375 35.5 
L 73.1875 35.5 
L 73.1875 27.203125 
L 10.59375 27.203125 
z
" id="DejaVuSans-8722"/>
      </defs>
      <g transform="translate(272.09632 212.067127)scale(0.1 -0.1)">
       <use xlink:href="#DejaVuSans-8722"/>
       <use x="83.789062" xlink:href="#DejaVuSans-48"/>
       <use x="147.412109" xlink:href="#DejaVuSans-46"/>
       <use x="179.199219" xlink:href="#DejaVuSans-48"/>
       <use x="242.822266" xlink:href="#DejaVuSans-53"/>
      </g>
     </g>
    </g>
    <g id="xtick_27">
     <g id="line2d_71">
      <g>
       <use style="stroke:#000000;stroke-width:0.8;" x="346.563227" xlink:href="#mc129d17cdd" y="197.46869"/>
      </g>
     </g>
     <g id="text_55">
      <!-- 0.00 -->
      <g transform="translate(335.430415 212.067127)scale(0.1 -0.1)">
       <use xlink:href="#DejaVuSans-48"/>
       <use x="63.623047" xlink:href="#DejaVuSans-46"/>
       <use x="95.410156" xlink:href="#DejaVuSans-48"/>
       <use x="159.033203" xlink:href="#DejaVuSans-48"/>
      </g>
     </g>
    </g>
    <g id="xtick_28">
     <g id="line2d_72">
      <g>
       <use style="stroke:#000000;stroke-width:0.8;" x="405.707478" xlink:href="#mc129d17cdd" y="197.46869"/>
      </g>
     </g>
     <g id="text_56">
      <!-- 0.05 -->
      <g transform="translate(394.574666 212.067127)scale(0.1 -0.1)">
       <use xlink:href="#DejaVuSans-48"/>
       <use x="63.623047" xlink:href="#DejaVuSans-46"/>
       <use x="95.410156" xlink:href="#DejaVuSans-48"/>
       <use x="159.033203" xlink:href="#DejaVuSans-53"/>
      </g>
     </g>
    </g>
   </g>
   <g id="matplotlib.axis_16">
    <g id="ytick_15">
     <g id="line2d_73">
      <g>
       <use style="stroke:#000000;stroke-width:0.8;" x="252.392727" xlink:href="#m1a43ae3f72" y="195.383172"/>
      </g>
     </g>
     <g id="text_57">
      <!-- 0 -->
      <g transform="translate(239.030227 199.182391)scale(0.1 -0.1)">
       <use xlink:href="#DejaVuSans-48"/>
      </g>
     </g>
    </g>
    <g id="ytick_16">
     <g id="line2d_74">
      <g>
       <use style="stroke:#000000;stroke-width:0.8;" x="252.392727" xlink:href="#m1a43ae3f72" y="170.842536"/>
      </g>
     </g>
     <g id="text_58">
      <!-- 10 -->
      <g transform="translate(232.667727 174.641755)scale(0.1 -0.1)">
       <use xlink:href="#DejaVuSans-49"/>
       <use x="63.623047" xlink:href="#DejaVuSans-48"/>
      </g>
     </g>
    </g>
    <g id="text_59">
     <!-- Frequency -->
     <g transform="translate(226.58804 200.825656)rotate(-90)scale(0.1 -0.1)">
      <use xlink:href="#DejaVuSans-70"/>
      <use x="57.410156" xlink:href="#DejaVuSans-114"/>
      <use x="98.492188" xlink:href="#DejaVuSans-101"/>
      <use x="160.015625" xlink:href="#DejaVuSans-113"/>
      <use x="223.492188" xlink:href="#DejaVuSans-117"/>
      <use x="286.871094" xlink:href="#DejaVuSans-101"/>
      <use x="348.394531" xlink:href="#DejaVuSans-110"/>
      <use x="411.773438" xlink:href="#DejaVuSans-99"/>
      <use x="466.753906" xlink:href="#DejaVuSans-121"/>
     </g>
    </g>
   </g>
   <g id="line2d_75">
    <path clip-path="url(#p226077f575)" d="M 259.77124 193.606517 
L 262.782877 193.063679 
L 265.794515 192.390396 
L 268.806153 191.566837 
L 271.817791 190.573561 
L 274.829428 189.39265 
L 277.841066 188.009047 
L 280.852704 186.412033 
L 283.864341 184.596788 
L 286.875979 182.565908 
L 289.887617 180.330763 
L 292.899255 177.91257 
L 295.910892 175.343024 
L 298.92253 172.664382 
L 301.934168 169.928901 
L 304.945805 167.19757 
L 307.957443 164.538143 
L 310.969081 162.022542 
L 313.980719 159.723734 
L 316.992356 157.712276 
L 320.003994 156.052749 
L 323.015632 154.800329 
L 326.027269 153.997737 
L 329.038907 153.672828 
L 332.050545 153.83698 
L 335.062182 154.484437 
L 338.07382 155.592641 
L 341.085458 157.123541 
L 344.097096 159.025754 
L 347.108733 161.237436 
L 350.120371 163.689605 
L 353.132009 166.309695 
L 356.143646 169.025077 
L 359.155284 171.766307 
L 362.166922 174.469914 
L 365.17856 177.080591 
L 368.190197 179.552689 
L 371.201835 181.851009 
L 374.213473 183.950929 
L 377.22511 185.837931 
L 380.236748 187.506668 
L 383.248386 188.959678 
L 386.260024 190.205907 
L 389.271661 191.259153 
L 392.283299 192.136548 
L 395.294937 192.857164 
L 398.306574 193.440818 
L 401.318212 193.90708 
L 404.32985 194.274534 
L 407.341488 194.560253 
" style="fill:none;stroke:#1f77b4;stroke-linecap:square;stroke-width:1.5;"/>
   </g>
   <g id="line2d_76">
    <path clip-path="url(#p226077f575)" d="M 317.806621 195.383172 
L 317.806621 153.672828 
" style="fill:none;stroke:#ff0000;stroke-linecap:square;stroke-width:1.5;"/>
   </g>
   <g id="patch_38">
    <path d="M 252.392727 197.46869 
L 252.392727 151.58731 
" style="fill:none;stroke:#000000;stroke-linecap:square;stroke-linejoin:miter;stroke-width:0.8;"/>
   </g>
   <g id="patch_39">
    <path d="M 414.72 197.46869 
L 414.72 151.58731 
" style="fill:none;stroke:#000000;stroke-linecap:square;stroke-linejoin:miter;stroke-width:0.8;"/>
   </g>
   <g id="patch_40">
    <path d="M 252.392727 197.46869 
L 414.72 197.46869 
" style="fill:none;stroke:#000000;stroke-linecap:square;stroke-linejoin:miter;stroke-width:0.8;"/>
   </g>
   <g id="patch_41">
    <path d="M 252.392727 151.58731 
L 414.72 151.58731 
" style="fill:none;stroke:#000000;stroke-linecap:square;stroke-linejoin:miter;stroke-width:0.8;"/>
   </g>
   <g id="text_60">
    <!-- corr0 -->
    <defs>
     <path d="M 30.609375 48.390625 
Q 23.390625 48.390625 19.1875 42.75 
Q 14.984375 37.109375 14.984375 27.296875 
Q 14.984375 17.484375 19.15625 11.84375 
Q 23.34375 6.203125 30.609375 6.203125 
Q 37.796875 6.203125 41.984375 11.859375 
Q 46.1875 17.53125 46.1875 27.296875 
Q 46.1875 37.015625 41.984375 42.703125 
Q 37.796875 48.390625 30.609375 48.390625 
z
M 30.609375 56 
Q 42.328125 56 49.015625 48.375 
Q 55.71875 40.765625 55.71875 27.296875 
Q 55.71875 13.875 49.015625 6.21875 
Q 42.328125 -1.421875 30.609375 -1.421875 
Q 18.84375 -1.421875 12.171875 6.21875 
Q 5.515625 13.875 5.515625 27.296875 
Q 5.515625 40.765625 12.171875 48.375 
Q 18.84375 56 30.609375 56 
z
" id="DejaVuSans-111"/>
    </defs>
    <g transform="translate(317.836364 145.58731)scale(0.12 -0.12)">
     <use xlink:href="#DejaVuSans-99"/>
     <use x="54.980469" xlink:href="#DejaVuSans-111"/>
     <use x="116.162109" xlink:href="#DejaVuSans-114"/>
     <use x="157.259766" xlink:href="#DejaVuSans-114"/>
     <use x="198.373047" xlink:href="#DejaVuSans-48"/>
    </g>
   </g>
  </g>
  <g id="axes_9">
   <g id="patch_42">
    <path d="M 252.392727 252.526345 
L 414.72 252.526345 
L 414.72 206.644966 
L 252.392727 206.644966 
z
" style="fill:#ffffff;"/>
   </g>
   <g id="matplotlib.axis_17">
    <g id="xtick_29">
     <g id="line2d_77">
      <g>
       <use style="stroke:#000000;stroke-width:0.8;" x="267.516464" xlink:href="#mc129d17cdd" y="252.526345"/>
      </g>
     </g>
     <g id="text_61">
      <!-- 0.050 -->
      <g transform="translate(253.202401 267.124782)scale(0.1 -0.1)">
       <use xlink:href="#DejaVuSans-48"/>
       <use x="63.623047" xlink:href="#DejaVuSans-46"/>
       <use x="95.410156" xlink:href="#DejaVuSans-48"/>
       <use x="159.033203" xlink:href="#DejaVuSans-53"/>
       <use x="222.65625" xlink:href="#DejaVuSans-48"/>
      </g>
     </g>
    </g>
    <g id="xtick_30">
     <g id="line2d_78">
      <g>
       <use style="stroke:#000000;stroke-width:0.8;" x="303.772067" xlink:href="#mc129d17cdd" y="252.526345"/>
      </g>
     </g>
     <g id="text_62">
      <!-- 0.075 -->
      <g transform="translate(289.458004 267.124782)scale(0.1 -0.1)">
       <use xlink:href="#DejaVuSans-48"/>
       <use x="63.623047" xlink:href="#DejaVuSans-46"/>
       <use x="95.410156" xlink:href="#DejaVuSans-48"/>
       <use x="159.033203" xlink:href="#DejaVuSans-55"/>
       <use x="222.65625" xlink:href="#DejaVuSans-53"/>
      </g>
     </g>
    </g>
    <g id="xtick_31">
     <g id="line2d_79">
      <g>
       <use style="stroke:#000000;stroke-width:0.8;" x="340.02767" xlink:href="#mc129d17cdd" y="252.526345"/>
      </g>
     </g>
     <g id="text_63">
      <!-- 0.100 -->
      <g transform="translate(325.713607 267.124782)scale(0.1 -0.1)">
       <use xlink:href="#DejaVuSans-48"/>
       <use x="63.623047" xlink:href="#DejaVuSans-46"/>
       <use x="95.410156" xlink:href="#DejaVuSans-49"/>
       <use x="159.033203" xlink:href="#DejaVuSans-48"/>
       <use x="222.65625" xlink:href="#DejaVuSans-48"/>
      </g>
     </g>
    </g>
    <g id="xtick_32">
     <g id="line2d_80">
      <g>
       <use style="stroke:#000000;stroke-width:0.8;" x="376.283273" xlink:href="#mc129d17cdd" y="252.526345"/>
      </g>
     </g>
     <g id="text_64">
      <!-- 0.125 -->
      <g transform="translate(361.96921 267.124782)scale(0.1 -0.1)">
       <use xlink:href="#DejaVuSans-48"/>
       <use x="63.623047" xlink:href="#DejaVuSans-46"/>
       <use x="95.410156" xlink:href="#DejaVuSans-49"/>
       <use x="159.033203" xlink:href="#DejaVuSans-50"/>
       <use x="222.65625" xlink:href="#DejaVuSans-53"/>
      </g>
     </g>
    </g>
    <g id="xtick_33">
     <g id="line2d_81">
      <g>
       <use style="stroke:#000000;stroke-width:0.8;" x="412.538876" xlink:href="#mc129d17cdd" y="252.526345"/>
      </g>
     </g>
     <g id="text_65">
      <!-- 0.150 -->
      <g transform="translate(398.224813 267.124782)scale(0.1 -0.1)">
       <use xlink:href="#DejaVuSans-48"/>
       <use x="63.623047" xlink:href="#DejaVuSans-46"/>
       <use x="95.410156" xlink:href="#DejaVuSans-49"/>
       <use x="159.033203" xlink:href="#DejaVuSans-53"/>
       <use x="222.65625" xlink:href="#DejaVuSans-48"/>
      </g>
     </g>
    </g>
   </g>
   <g id="matplotlib.axis_18">
    <g id="ytick_17">
     <g id="line2d_82">
      <g>
       <use style="stroke:#000000;stroke-width:0.8;" x="252.392727" xlink:href="#m1a43ae3f72" y="250.440828"/>
      </g>
     </g>
     <g id="text_66">
      <!-- 0 -->
      <g transform="translate(239.030227 254.240046)scale(0.1 -0.1)">
       <use xlink:href="#DejaVuSans-48"/>
      </g>
     </g>
    </g>
    <g id="ytick_18">
     <g id="line2d_83">
      <g>
       <use style="stroke:#000000;stroke-width:0.8;" x="252.392727" xlink:href="#m1a43ae3f72" y="214.12616"/>
      </g>
     </g>
     <g id="text_67">
      <!-- 20 -->
      <g transform="translate(232.667727 217.925379)scale(0.1 -0.1)">
       <use xlink:href="#DejaVuSans-50"/>
       <use x="63.623047" xlink:href="#DejaVuSans-48"/>
      </g>
     </g>
    </g>
    <g id="text_68">
     <!-- Frequency -->
     <g transform="translate(226.58804 255.883311)rotate(-90)scale(0.1 -0.1)">
      <use xlink:href="#DejaVuSans-70"/>
      <use x="57.410156" xlink:href="#DejaVuSans-114"/>
      <use x="98.492188" xlink:href="#DejaVuSans-101"/>
      <use x="160.015625" xlink:href="#DejaVuSans-113"/>
      <use x="223.492188" xlink:href="#DejaVuSans-117"/>
      <use x="286.871094" xlink:href="#DejaVuSans-101"/>
      <use x="348.394531" xlink:href="#DejaVuSans-110"/>
      <use x="411.773438" xlink:href="#DejaVuSans-99"/>
      <use x="466.753906" xlink:href="#DejaVuSans-121"/>
     </g>
    </g>
   </g>
   <g id="line2d_84">
    <path clip-path="url(#p3a4c3cc1f8)" d="M 259.77124 249.510431 
L 262.782877 249.156268 
L 265.794515 248.692458 
L 268.806153 248.094951 
L 271.817791 247.337912 
L 274.829428 246.394812 
L 277.841066 245.239933 
L 280.852704 243.850281 
L 283.864341 242.207837 
L 286.875979 240.302024 
L 289.887617 238.132228 
L 292.899255 235.710126 
L 295.910892 233.061576 
L 298.92253 230.22779 
L 301.934168 227.26555 
L 304.945805 224.246264 
L 307.957443 221.253775 
L 310.969081 218.380927 
L 313.980719 215.725045 
L 316.992356 213.382603 
L 320.003994 211.443476 
L 323.015632 209.985243 
L 326.027269 209.068048 
L 329.038907 208.730483 
L 332.050545 208.986897 
L 335.062182 209.826384 
L 338.07382 211.213551 
L 341.085458 213.090995 
L 344.097096 215.38324 
L 347.108733 218.001768 
L 350.120371 220.850667 
L 353.132009 223.832397 
L 356.143646 226.853211 
L 359.155284 229.827804 
L 362.166922 232.682903 
L 365.17856 235.359639 
L 368.190197 237.814653 
L 371.201835 240.020032 
L 374.213473 241.962254 
L 377.22511 243.640378 
L 380.236748 245.063763 
L 383.248386 246.249556 
L 386.260024 247.22021 
L 389.271661 248.00119 
L 392.283299 248.619012 
L 395.294937 249.099681 
L 398.306574 249.46754 
L 401.318212 249.744524 
L 404.32985 249.949751 
L 407.341488 250.099405 
" style="fill:none;stroke:#1f77b4;stroke-linecap:square;stroke-width:1.5;"/>
   </g>
   <g id="line2d_85">
    <path clip-path="url(#p3a4c3cc1f8)" d="M 323.297745 250.440828 
L 323.297745 208.730483 
" style="fill:none;stroke:#ff0000;stroke-linecap:square;stroke-width:1.5;"/>
   </g>
   <g id="patch_43">
    <path d="M 252.392727 252.526345 
L 252.392727 206.644966 
" style="fill:none;stroke:#000000;stroke-linecap:square;stroke-linejoin:miter;stroke-width:0.8;"/>
   </g>
   <g id="patch_44">
    <path d="M 414.72 252.526345 
L 414.72 206.644966 
" style="fill:none;stroke:#000000;stroke-linecap:square;stroke-linejoin:miter;stroke-width:0.8;"/>
   </g>
   <g id="patch_45">
    <path d="M 252.392727 252.526345 
L 414.72 252.526345 
" style="fill:none;stroke:#000000;stroke-linecap:square;stroke-linejoin:miter;stroke-width:0.8;"/>
   </g>
   <g id="patch_46">
    <path d="M 252.392727 206.644966 
L 414.72 206.644966 
" style="fill:none;stroke:#000000;stroke-linecap:square;stroke-linejoin:miter;stroke-width:0.8;"/>
   </g>
   <g id="text_69">
    <!-- corr2 -->
    <g transform="translate(317.836364 200.644966)scale(0.12 -0.12)">
     <use xlink:href="#DejaVuSans-99"/>
     <use x="54.980469" xlink:href="#DejaVuSans-111"/>
     <use x="116.162109" xlink:href="#DejaVuSans-114"/>
     <use x="157.259766" xlink:href="#DejaVuSans-114"/>
     <use x="198.373047" xlink:href="#DejaVuSans-50"/>
    </g>
   </g>
  </g>
  <g id="axes_10">
   <g id="patch_47">
    <path d="M 252.392727 307.584 
L 414.72 307.584 
L 414.72 261.702621 
L 252.392727 261.702621 
z
" style="fill:#ffffff;"/>
   </g>
   <g id="matplotlib.axis_19">
    <g id="xtick_34">
     <g id="line2d_86">
      <g>
       <use style="stroke:#000000;stroke-width:0.8;" x="257.004944" xlink:href="#mc129d17cdd" y="307.584"/>
      </g>
     </g>
     <g id="text_70">
      <!-- 0.150 -->
      <g transform="translate(242.690882 322.182437)scale(0.1 -0.1)">
       <use xlink:href="#DejaVuSans-48"/>
       <use x="63.623047" xlink:href="#DejaVuSans-46"/>
       <use x="95.410156" xlink:href="#DejaVuSans-49"/>
       <use x="159.033203" xlink:href="#DejaVuSans-53"/>
       <use x="222.65625" xlink:href="#DejaVuSans-48"/>
      </g>
     </g>
    </g>
    <g id="xtick_35">
     <g id="line2d_87">
      <g>
       <use style="stroke:#000000;stroke-width:0.8;" x="291.449905" xlink:href="#mc129d17cdd" y="307.584"/>
      </g>
     </g>
     <g id="text_71">
      <!-- 0.175 -->
      <g transform="translate(277.135843 322.182437)scale(0.1 -0.1)">
       <use xlink:href="#DejaVuSans-48"/>
       <use x="63.623047" xlink:href="#DejaVuSans-46"/>
       <use x="95.410156" xlink:href="#DejaVuSans-49"/>
       <use x="159.033203" xlink:href="#DejaVuSans-55"/>
       <use x="222.65625" xlink:href="#DejaVuSans-53"/>
      </g>
     </g>
    </g>
    <g id="xtick_36">
     <g id="line2d_88">
      <g>
       <use style="stroke:#000000;stroke-width:0.8;" x="325.894866" xlink:href="#mc129d17cdd" y="307.584"/>
      </g>
     </g>
     <g id="text_72">
      <!-- 0.200 -->
      <g transform="translate(311.580803 322.182437)scale(0.1 -0.1)">
       <use xlink:href="#DejaVuSans-48"/>
       <use x="63.623047" xlink:href="#DejaVuSans-46"/>
       <use x="95.410156" xlink:href="#DejaVuSans-50"/>
       <use x="159.033203" xlink:href="#DejaVuSans-48"/>
       <use x="222.65625" xlink:href="#DejaVuSans-48"/>
      </g>
     </g>
    </g>
    <g id="xtick_37">
     <g id="line2d_89">
      <g>
       <use style="stroke:#000000;stroke-width:0.8;" x="360.339826" xlink:href="#mc129d17cdd" y="307.584"/>
      </g>
     </g>
     <g id="text_73">
      <!-- 0.225 -->
      <g transform="translate(346.025764 322.182437)scale(0.1 -0.1)">
       <use xlink:href="#DejaVuSans-48"/>
       <use x="63.623047" xlink:href="#DejaVuSans-46"/>
       <use x="95.410156" xlink:href="#DejaVuSans-50"/>
       <use x="159.033203" xlink:href="#DejaVuSans-50"/>
       <use x="222.65625" xlink:href="#DejaVuSans-53"/>
      </g>
     </g>
    </g>
    <g id="xtick_38">
     <g id="line2d_90">
      <g>
       <use style="stroke:#000000;stroke-width:0.8;" x="394.784787" xlink:href="#mc129d17cdd" y="307.584"/>
      </g>
     </g>
     <g id="text_74">
      <!-- 0.250 -->
      <g transform="translate(380.470724 322.182437)scale(0.1 -0.1)">
       <use xlink:href="#DejaVuSans-48"/>
       <use x="63.623047" xlink:href="#DejaVuSans-46"/>
       <use x="95.410156" xlink:href="#DejaVuSans-50"/>
       <use x="159.033203" xlink:href="#DejaVuSans-53"/>
       <use x="222.65625" xlink:href="#DejaVuSans-48"/>
      </g>
     </g>
    </g>
   </g>
   <g id="matplotlib.axis_20">
    <g id="ytick_19">
     <g id="line2d_91">
      <g>
       <use style="stroke:#000000;stroke-width:0.8;" x="252.392727" xlink:href="#m1a43ae3f72" y="305.498483"/>
      </g>
     </g>
     <g id="text_75">
      <!-- 0 -->
      <g transform="translate(239.030227 309.297702)scale(0.1 -0.1)">
       <use xlink:href="#DejaVuSans-48"/>
      </g>
     </g>
    </g>
    <g id="ytick_20">
     <g id="line2d_92">
      <g>
       <use style="stroke:#000000;stroke-width:0.8;" x="252.392727" xlink:href="#m1a43ae3f72" y="268.026414"/>
      </g>
     </g>
     <g id="text_76">
      <!-- 20 -->
      <g transform="translate(232.667727 271.825633)scale(0.1 -0.1)">
       <use xlink:href="#DejaVuSans-50"/>
       <use x="63.623047" xlink:href="#DejaVuSans-48"/>
      </g>
     </g>
    </g>
    <g id="text_77">
     <!-- Frequency -->
     <g transform="translate(226.58804 310.940967)rotate(-90)scale(0.1 -0.1)">
      <use xlink:href="#DejaVuSans-70"/>
      <use x="57.410156" xlink:href="#DejaVuSans-114"/>
      <use x="98.492188" xlink:href="#DejaVuSans-101"/>
      <use x="160.015625" xlink:href="#DejaVuSans-113"/>
      <use x="223.492188" xlink:href="#DejaVuSans-117"/>
      <use x="286.871094" xlink:href="#DejaVuSans-101"/>
      <use x="348.394531" xlink:href="#DejaVuSans-110"/>
      <use x="411.773438" xlink:href="#DejaVuSans-99"/>
      <use x="466.753906" xlink:href="#DejaVuSans-121"/>
     </g>
    </g>
   </g>
   <g id="line2d_93">
    <path clip-path="url(#pbd6b6aafcf)" d="M 259.77124 304.84456 
L 262.782877 304.575586 
L 265.794515 304.215242 
L 268.806153 303.740597 
L 271.817791 303.126011 
L 274.829428 302.343919 
L 277.841066 301.366055 
L 280.852704 300.165146 
L 283.864341 298.717065 
L 286.875979 297.003357 
L 289.887617 295.014002 
L 292.899255 292.750197 
L 295.910892 290.226885 
L 298.92253 287.474742 
L 301.934168 284.541287 
L 304.945805 281.490858 
L 307.957443 278.403243 
L 310.969081 275.370878 
L 313.980719 272.49468 
L 316.992356 269.878709 
L 320.003994 267.624053 
L 323.015632 265.822395 
L 326.027269 264.549853 
L 329.038907 263.86165 
L 332.050545 263.788138 
L 335.062182 264.332578 
L 338.07382 265.470903 
L 341.085458 267.153479 
L 344.097096 269.308696 
L 347.108733 271.848019 
L 350.120371 274.672008 
L 353.132009 277.676732 
L 356.143646 280.760013 
L 359.155284 283.826981 
L 362.166922 286.794549 
L 365.17856 289.594544 
L 368.190197 292.175415 
L 371.201835 294.502564 
L 374.213473 296.557472 
L 377.22511 298.335902 
L 380.236748 299.845467 
L 383.248386 301.102878 
L 386.260024 302.131159 
L 389.271661 302.957048 
L 392.283299 303.608749 
L 395.294937 304.114119 
L 398.306574 304.49934 
L 401.318212 304.788034 
L 404.32985 305.000785 
L 407.341488 305.154983 
" style="fill:none;stroke:#1f77b4;stroke-linecap:square;stroke-width:1.5;"/>
   </g>
   <g id="line2d_94">
    <path clip-path="url(#pbd6b6aafcf)" d="M 327.131937 305.498483 
L 327.131937 263.788138 
" style="fill:none;stroke:#ff0000;stroke-linecap:square;stroke-width:1.5;"/>
   </g>
   <g id="patch_48">
    <path d="M 252.392727 307.584 
L 252.392727 261.702621 
" style="fill:none;stroke:#000000;stroke-linecap:square;stroke-linejoin:miter;stroke-width:0.8;"/>
   </g>
   <g id="patch_49">
    <path d="M 414.72 307.584 
L 414.72 261.702621 
" style="fill:none;stroke:#000000;stroke-linecap:square;stroke-linejoin:miter;stroke-width:0.8;"/>
   </g>
   <g id="patch_50">
    <path d="M 252.392727 307.584 
L 414.72 307.584 
" style="fill:none;stroke:#000000;stroke-linecap:square;stroke-linejoin:miter;stroke-width:0.8;"/>
   </g>
   <g id="patch_51">
    <path d="M 252.392727 261.702621 
L 414.72 261.702621 
" style="fill:none;stroke:#000000;stroke-linecap:square;stroke-linejoin:miter;stroke-width:0.8;"/>
   </g>
   <g id="text_78">
    <!-- corr1 -->
    <g transform="translate(317.836364 255.702621)scale(0.12 -0.12)">
     <use xlink:href="#DejaVuSans-99"/>
     <use x="54.980469" xlink:href="#DejaVuSans-111"/>
     <use x="116.162109" xlink:href="#DejaVuSans-114"/>
     <use x="157.259766" xlink:href="#DejaVuSans-114"/>
     <use x="198.373047" xlink:href="#DejaVuSans-49"/>
    </g>
   </g>
  </g>
 </g>
 <defs>
  <clipPath id="pd4e7e77108">
   <rect height="45.881379" width="162.327273" x="57.6" y="41.472"/>
  </clipPath>
  <clipPath id="p7d7ec4e607">
   <rect height="45.881379" width="162.327273" x="57.6" y="96.529655"/>
  </clipPath>
  <clipPath id="p332abcbf89">
   <rect height="45.881379" width="162.327273" x="57.6" y="151.58731"/>
  </clipPath>
  <clipPath id="p396d788473">
   <rect height="45.881379" width="162.327273" x="57.6" y="206.644966"/>
  </clipPath>
  <clipPath id="p8d21b634a9">
   <rect height="45.881379" width="162.327273" x="57.6" y="261.702621"/>
  </clipPath>
  <clipPath id="p67c714cfa7">
   <rect height="45.881379" width="162.327273" x="252.392727" y="41.472"/>
  </clipPath>
  <clipPath id="p06465d9781">
   <rect height="45.881379" width="162.327273" x="252.392727" y="96.529655"/>
  </clipPath>
  <clipPath id="p226077f575">
   <rect height="45.881379" width="162.327273" x="252.392727" y="151.58731"/>
  </clipPath>
  <clipPath id="p3a4c3cc1f8">
   <rect height="45.881379" width="162.327273" x="252.392727" y="206.644966"/>
  </clipPath>
  <clipPath id="pbd6b6aafcf">
   <rect height="45.881379" width="162.327273" x="252.392727" y="261.702621"/>
  </clipPath>
 </defs>
</svg>
