<?xml version="1.0" encoding="utf-8" standalone="no"?>
<!DOCTYPE svg PUBLIC "-//W3C//DTD SVG 1.1//EN"
  "http://www.w3.org/Graphics/SVG/1.1/DTD/svg11.dtd">
<!-- Created with matplotlib (https://matplotlib.org/) -->
<svg height="288pt" version="1.1" viewBox="0 0 432 288" width="432pt" xmlns="http://www.w3.org/2000/svg" xmlns:xlink="http://www.w3.org/1999/xlink">
 <defs>
  <style type="text/css">
*{stroke-linecap:butt;stroke-linejoin:round;}
  </style>
 </defs>
 <g id="figure_1">
  <g id="patch_1">
   <path d="M 0 288 
L 432 288 
L 432 0 
L 0 0 
z
" style="fill:#ffffff;"/>
  </g>
  <g id="axes_1">
   <g id="patch_2">
    <path d="M 54 72.049655 
L 206.181818 72.049655 
L 206.181818 34.56 
L 54 34.56 
z
" style="fill:#ffffff;"/>
   </g>
   <g id="matplotlib.axis_1">
    <g id="xtick_1">
     <g id="line2d_1">
      <defs>
       <path d="M 0 0 
L 0 3.5 
" id="m202afe0062" style="stroke:#000000;stroke-width:0.8;"/>
      </defs>
      <g>
       <use style="stroke:#000000;stroke-width:0.8;" x="85.144277" xlink:href="#m202afe0062" y="72.049655"/>
      </g>
     </g>
     <g id="text_1">
      <!-- 0.2 -->
      <defs>
       <path d="M 31.78125 66.40625 
Q 24.171875 66.40625 20.328125 58.90625 
Q 16.5 51.421875 16.5 36.375 
Q 16.5 21.390625 20.328125 13.890625 
Q 24.171875 6.390625 31.78125 6.390625 
Q 39.453125 6.390625 43.28125 13.890625 
Q 47.125 21.390625 47.125 36.375 
Q 47.125 51.421875 43.28125 58.90625 
Q 39.453125 66.40625 31.78125 66.40625 
z
M 31.78125 74.21875 
Q 44.046875 74.21875 50.515625 64.515625 
Q 56.984375 54.828125 56.984375 36.375 
Q 56.984375 17.96875 50.515625 8.265625 
Q 44.046875 -1.421875 31.78125 -1.421875 
Q 19.53125 -1.421875 13.0625 8.265625 
Q 6.59375 17.96875 6.59375 36.375 
Q 6.59375 54.828125 13.0625 64.515625 
Q 19.53125 74.21875 31.78125 74.21875 
z
" id="DejaVuSans-48"/>
       <path d="M 10.6875 12.40625 
L 21 12.40625 
L 21 0 
L 10.6875 0 
z
" id="DejaVuSans-46"/>
       <path d="M 19.1875 8.296875 
L 53.609375 8.296875 
L 53.609375 0 
L 7.328125 0 
L 7.328125 8.296875 
Q 12.9375 14.109375 22.625 23.890625 
Q 32.328125 33.6875 34.8125 36.53125 
Q 39.546875 41.84375 41.421875 45.53125 
Q 43.3125 49.21875 43.3125 52.78125 
Q 43.3125 58.59375 39.234375 62.25 
Q 35.15625 65.921875 28.609375 65.921875 
Q 23.96875 65.921875 18.8125 64.3125 
Q 13.671875 62.703125 7.8125 59.421875 
L 7.8125 69.390625 
Q 13.765625 71.78125 18.9375 73 
Q 24.125 74.21875 28.421875 74.21875 
Q 39.75 74.21875 46.484375 68.546875 
Q 53.21875 62.890625 53.21875 53.421875 
Q 53.21875 48.921875 51.53125 44.890625 
Q 49.859375 40.875 45.40625 35.40625 
Q 44.1875 33.984375 37.640625 27.21875 
Q 31.109375 20.453125 19.1875 8.296875 
z
" id="DejaVuSans-50"/>
      </defs>
      <g transform="translate(77.192714 86.648093)scale(0.1 -0.1)">
       <use xlink:href="#DejaVuSans-48"/>
       <use x="63.623047" xlink:href="#DejaVuSans-46"/>
       <use x="95.410156" xlink:href="#DejaVuSans-50"/>
      </g>
     </g>
    </g>
    <g id="xtick_2">
     <g id="line2d_2">
      <g>
       <use style="stroke:#000000;stroke-width:0.8;" x="128.272632" xlink:href="#m202afe0062" y="72.049655"/>
      </g>
     </g>
     <g id="text_2">
      <!-- 0.3 -->
      <defs>
       <path d="M 40.578125 39.3125 
Q 47.65625 37.796875 51.625 33 
Q 55.609375 28.21875 55.609375 21.1875 
Q 55.609375 10.40625 48.1875 4.484375 
Q 40.765625 -1.421875 27.09375 -1.421875 
Q 22.515625 -1.421875 17.65625 -0.515625 
Q 12.796875 0.390625 7.625 2.203125 
L 7.625 11.71875 
Q 11.71875 9.328125 16.59375 8.109375 
Q 21.484375 6.890625 26.8125 6.890625 
Q 36.078125 6.890625 40.9375 10.546875 
Q 45.796875 14.203125 45.796875 21.1875 
Q 45.796875 27.640625 41.28125 31.265625 
Q 36.765625 34.90625 28.71875 34.90625 
L 20.21875 34.90625 
L 20.21875 43.015625 
L 29.109375 43.015625 
Q 36.375 43.015625 40.234375 45.921875 
Q 44.09375 48.828125 44.09375 54.296875 
Q 44.09375 59.90625 40.109375 62.90625 
Q 36.140625 65.921875 28.71875 65.921875 
Q 24.65625 65.921875 20.015625 65.03125 
Q 15.375 64.15625 9.8125 62.3125 
L 9.8125 71.09375 
Q 15.4375 72.65625 20.34375 73.4375 
Q 25.25 74.21875 29.59375 74.21875 
Q 40.828125 74.21875 47.359375 69.109375 
Q 53.90625 64.015625 53.90625 55.328125 
Q 53.90625 49.265625 50.4375 45.09375 
Q 46.96875 40.921875 40.578125 39.3125 
z
" id="DejaVuSans-51"/>
      </defs>
      <g transform="translate(120.321069 86.648093)scale(0.1 -0.1)">
       <use xlink:href="#DejaVuSans-48"/>
       <use x="63.623047" xlink:href="#DejaVuSans-46"/>
       <use x="95.410156" xlink:href="#DejaVuSans-51"/>
      </g>
     </g>
    </g>
    <g id="xtick_3">
     <g id="line2d_3">
      <g>
       <use style="stroke:#000000;stroke-width:0.8;" x="171.400987" xlink:href="#m202afe0062" y="72.049655"/>
      </g>
     </g>
     <g id="text_3">
      <!-- 0.4 -->
      <defs>
       <path d="M 37.796875 64.3125 
L 12.890625 25.390625 
L 37.796875 25.390625 
z
M 35.203125 72.90625 
L 47.609375 72.90625 
L 47.609375 25.390625 
L 58.015625 25.390625 
L 58.015625 17.1875 
L 47.609375 17.1875 
L 47.609375 0 
L 37.796875 0 
L 37.796875 17.1875 
L 4.890625 17.1875 
L 4.890625 26.703125 
z
" id="DejaVuSans-52"/>
      </defs>
      <g transform="translate(163.449424 86.648093)scale(0.1 -0.1)">
       <use xlink:href="#DejaVuSans-48"/>
       <use x="63.623047" xlink:href="#DejaVuSans-46"/>
       <use x="95.410156" xlink:href="#DejaVuSans-52"/>
      </g>
     </g>
    </g>
   </g>
   <g id="matplotlib.axis_2">
    <g id="ytick_1">
     <g id="line2d_4">
      <defs>
       <path d="M 0 0 
L -3.5 0 
" id="mb78f871172" style="stroke:#000000;stroke-width:0.8;"/>
      </defs>
      <g>
       <use style="stroke:#000000;stroke-width:0.8;" x="54" xlink:href="#mb78f871172" y="70.34558"/>
      </g>
     </g>
     <g id="text_4">
      <!-- 0 -->
      <g transform="translate(40.6375 74.144799)scale(0.1 -0.1)">
       <use xlink:href="#DejaVuSans-48"/>
      </g>
     </g>
    </g>
    <g id="ytick_2">
     <g id="line2d_5">
      <g>
       <use style="stroke:#000000;stroke-width:0.8;" x="54" xlink:href="#mb78f871172" y="37.127635"/>
      </g>
     </g>
     <g id="text_5">
      <!-- 250 -->
      <defs>
       <path d="M 10.796875 72.90625 
L 49.515625 72.90625 
L 49.515625 64.59375 
L 19.828125 64.59375 
L 19.828125 46.734375 
Q 21.96875 47.46875 24.109375 47.828125 
Q 26.265625 48.1875 28.421875 48.1875 
Q 40.625 48.1875 47.75 41.5 
Q 54.890625 34.8125 54.890625 23.390625 
Q 54.890625 11.625 47.5625 5.09375 
Q 40.234375 -1.421875 26.90625 -1.421875 
Q 22.3125 -1.421875 17.546875 -0.640625 
Q 12.796875 0.140625 7.71875 1.703125 
L 7.71875 11.625 
Q 12.109375 9.234375 16.796875 8.0625 
Q 21.484375 6.890625 26.703125 6.890625 
Q 35.15625 6.890625 40.078125 11.328125 
Q 45.015625 15.765625 45.015625 23.390625 
Q 45.015625 31 40.078125 35.4375 
Q 35.15625 39.890625 26.703125 39.890625 
Q 22.75 39.890625 18.8125 39.015625 
Q 14.890625 38.140625 10.796875 36.28125 
z
" id="DejaVuSans-53"/>
      </defs>
      <g transform="translate(27.9125 40.926853)scale(0.1 -0.1)">
       <use xlink:href="#DejaVuSans-50"/>
       <use x="63.623047" xlink:href="#DejaVuSans-53"/>
       <use x="127.246094" xlink:href="#DejaVuSans-48"/>
      </g>
     </g>
    </g>
    <g id="text_6">
     <!-- Frequency -->
     <defs>
      <path d="M 9.8125 72.90625 
L 51.703125 72.90625 
L 51.703125 64.59375 
L 19.671875 64.59375 
L 19.671875 43.109375 
L 48.578125 43.109375 
L 48.578125 34.8125 
L 19.671875 34.8125 
L 19.671875 0 
L 9.8125 0 
z
" id="DejaVuSans-70"/>
      <path d="M 41.109375 46.296875 
Q 39.59375 47.171875 37.8125 47.578125 
Q 36.03125 48 33.890625 48 
Q 26.265625 48 22.1875 43.046875 
Q 18.109375 38.09375 18.109375 28.8125 
L 18.109375 0 
L 9.078125 0 
L 9.078125 54.6875 
L 18.109375 54.6875 
L 18.109375 46.1875 
Q 20.953125 51.171875 25.484375 53.578125 
Q 30.03125 56 36.53125 56 
Q 37.453125 56 38.578125 55.875 
Q 39.703125 55.765625 41.0625 55.515625 
z
" id="DejaVuSans-114"/>
      <path d="M 56.203125 29.59375 
L 56.203125 25.203125 
L 14.890625 25.203125 
Q 15.484375 15.921875 20.484375 11.0625 
Q 25.484375 6.203125 34.421875 6.203125 
Q 39.59375 6.203125 44.453125 7.46875 
Q 49.3125 8.734375 54.109375 11.28125 
L 54.109375 2.78125 
Q 49.265625 0.734375 44.1875 -0.34375 
Q 39.109375 -1.421875 33.890625 -1.421875 
Q 20.796875 -1.421875 13.15625 6.1875 
Q 5.515625 13.8125 5.515625 26.8125 
Q 5.515625 40.234375 12.765625 48.109375 
Q 20.015625 56 32.328125 56 
Q 43.359375 56 49.78125 48.890625 
Q 56.203125 41.796875 56.203125 29.59375 
z
M 47.21875 32.234375 
Q 47.125 39.59375 43.09375 43.984375 
Q 39.0625 48.390625 32.421875 48.390625 
Q 24.90625 48.390625 20.390625 44.140625 
Q 15.875 39.890625 15.1875 32.171875 
z
" id="DejaVuSans-101"/>
      <path d="M 14.796875 27.296875 
Q 14.796875 17.390625 18.875 11.75 
Q 22.953125 6.109375 30.078125 6.109375 
Q 37.203125 6.109375 41.296875 11.75 
Q 45.40625 17.390625 45.40625 27.296875 
Q 45.40625 37.203125 41.296875 42.84375 
Q 37.203125 48.484375 30.078125 48.484375 
Q 22.953125 48.484375 18.875 42.84375 
Q 14.796875 37.203125 14.796875 27.296875 
z
M 45.40625 8.203125 
Q 42.578125 3.328125 38.25 0.953125 
Q 33.9375 -1.421875 27.875 -1.421875 
Q 17.96875 -1.421875 11.734375 6.484375 
Q 5.515625 14.40625 5.515625 27.296875 
Q 5.515625 40.1875 11.734375 48.09375 
Q 17.96875 56 27.875 56 
Q 33.9375 56 38.25 53.625 
Q 42.578125 51.265625 45.40625 46.390625 
L 45.40625 54.6875 
L 54.390625 54.6875 
L 54.390625 -20.796875 
L 45.40625 -20.796875 
z
" id="DejaVuSans-113"/>
      <path d="M 8.5 21.578125 
L 8.5 54.6875 
L 17.484375 54.6875 
L 17.484375 21.921875 
Q 17.484375 14.15625 20.5 10.265625 
Q 23.53125 6.390625 29.59375 6.390625 
Q 36.859375 6.390625 41.078125 11.03125 
Q 45.3125 15.671875 45.3125 23.6875 
L 45.3125 54.6875 
L 54.296875 54.6875 
L 54.296875 0 
L 45.3125 0 
L 45.3125 8.40625 
Q 42.046875 3.421875 37.71875 1 
Q 33.40625 -1.421875 27.6875 -1.421875 
Q 18.265625 -1.421875 13.375 4.4375 
Q 8.5 10.296875 8.5 21.578125 
z
M 31.109375 56 
z
" id="DejaVuSans-117"/>
      <path d="M 54.890625 33.015625 
L 54.890625 0 
L 45.90625 0 
L 45.90625 32.71875 
Q 45.90625 40.484375 42.875 44.328125 
Q 39.84375 48.1875 33.796875 48.1875 
Q 26.515625 48.1875 22.3125 43.546875 
Q 18.109375 38.921875 18.109375 30.90625 
L 18.109375 0 
L 9.078125 0 
L 9.078125 54.6875 
L 18.109375 54.6875 
L 18.109375 46.1875 
Q 21.34375 51.125 25.703125 53.5625 
Q 30.078125 56 35.796875 56 
Q 45.21875 56 50.046875 50.171875 
Q 54.890625 44.34375 54.890625 33.015625 
z
" id="DejaVuSans-110"/>
      <path d="M 48.78125 52.59375 
L 48.78125 44.1875 
Q 44.96875 46.296875 41.140625 47.34375 
Q 37.3125 48.390625 33.40625 48.390625 
Q 24.65625 48.390625 19.8125 42.84375 
Q 14.984375 37.3125 14.984375 27.296875 
Q 14.984375 17.28125 19.8125 11.734375 
Q 24.65625 6.203125 33.40625 6.203125 
Q 37.3125 6.203125 41.140625 7.25 
Q 44.96875 8.296875 48.78125 10.40625 
L 48.78125 2.09375 
Q 45.015625 0.34375 40.984375 -0.53125 
Q 36.96875 -1.421875 32.421875 -1.421875 
Q 20.0625 -1.421875 12.78125 6.34375 
Q 5.515625 14.109375 5.515625 27.296875 
Q 5.515625 40.671875 12.859375 48.328125 
Q 20.21875 56 33.015625 56 
Q 37.15625 56 41.109375 55.140625 
Q 45.0625 54.296875 48.78125 52.59375 
z
" id="DejaVuSans-99"/>
      <path d="M 32.171875 -5.078125 
Q 28.375 -14.84375 24.75 -17.8125 
Q 21.140625 -20.796875 15.09375 -20.796875 
L 7.90625 -20.796875 
L 7.90625 -13.28125 
L 13.1875 -13.28125 
Q 16.890625 -13.28125 18.9375 -11.515625 
Q 21 -9.765625 23.484375 -3.21875 
L 25.09375 0.875 
L 2.984375 54.6875 
L 12.5 54.6875 
L 29.59375 11.921875 
L 46.6875 54.6875 
L 56.203125 54.6875 
z
" id="DejaVuSans-121"/>
     </defs>
     <g transform="translate(21.832812 79.602484)rotate(-90)scale(0.1 -0.1)">
      <use xlink:href="#DejaVuSans-70"/>
      <use x="57.410156" xlink:href="#DejaVuSans-114"/>
      <use x="98.492188" xlink:href="#DejaVuSans-101"/>
      <use x="160.015625" xlink:href="#DejaVuSans-113"/>
      <use x="223.492188" xlink:href="#DejaVuSans-117"/>
      <use x="286.871094" xlink:href="#DejaVuSans-101"/>
      <use x="348.394531" xlink:href="#DejaVuSans-110"/>
      <use x="411.773438" xlink:href="#DejaVuSans-99"/>
      <use x="466.753906" xlink:href="#DejaVuSans-121"/>
     </g>
    </g>
   </g>
   <g id="line2d_6">
    <path clip-path="url(#p45341fc88c)" d="M 64.349253 69.952523 
L 64.435698 69.772704 
L 64.522142 69.524374 
L 64.608587 69.187787 
L 64.695031 68.74013 
L 64.781475 68.156054 
L 64.86792 67.40867 
L 64.954364 66.471057 
L 65.040809 65.3183 
L 65.127253 63.930013 
L 65.213697 62.2932 
L 65.300142 60.405253 
L 65.386586 58.276774 
L 65.473031 55.933884 
L 65.559475 53.419629 
L 65.64592 50.794161 
L 65.732364 48.133427 
L 65.818808 45.52624 
L 65.905253 43.069811 
L 65.991697 40.863986 
L 66.078142 39.004632 
L 66.164586 37.576785 
L 66.25103 36.648209 
L 66.337475 36.264075 
L 66.423919 36.443317 
L 66.510364 37.177081 
L 66.596808 38.429456 
L 66.683252 40.140384 
L 66.769697 42.230432 
L 66.856141 44.6069 
L 66.942586 47.1706 
L 67.02903 49.822636 
L 67.115475 52.470535 
L 67.201919 55.033231 
L 67.288363 57.44457 
L 67.374808 59.655209 
L 67.461252 61.632955 
L 67.547697 63.361769 
L 67.634141 64.839746 
L 67.720585 66.076434 
L 67.80703 67.089868 
L 67.893474 67.903622 
L 67.979919 68.544149 
L 68.066363 69.038554 
L 68.152807 69.412888 
L 68.239252 69.690975 
L 68.325696 69.893716 
L 68.412141 70.038803 
L 68.498585 70.140735 
L 68.58503 70.211051 
" style="fill:none;stroke:#1f77b4;stroke-linecap:square;stroke-width:1.5;"/>
   </g>
   <g id="line2d_7">
    <path clip-path="url(#p45341fc88c)" d="M 175.488234 69.19568 
L 175.60042 68.853596 
L 175.712606 68.432779 
L 175.824792 67.922448 
L 175.936978 67.312484 
L 176.049164 66.594149 
L 176.16135 65.760896 
L 176.273537 64.809229 
L 176.385723 63.739566 
L 176.497909 62.55702 
L 176.610095 61.272046 
L 176.722281 59.900843 
L 176.834467 58.465475 
L 176.946653 56.993628 
L 177.058839 55.517978 
L 177.171025 54.075158 
L 177.283211 52.704368 
L 177.395398 51.44567 
L 177.507584 50.338084 
L 177.61977 49.417592 
L 177.731956 48.715211 
L 177.844142 48.255257 
L 177.956328 48.053944 
L 178.068514 48.118444 
L 178.1807 48.446454 
L 178.292886 49.026337 
L 178.405073 49.837808 
L 178.517259 50.853109 
L 178.629445 52.038586 
L 178.741631 53.356539 
L 178.853817 54.767196 
L 178.966003 56.230684 
L 179.078189 57.708852 
L 179.190375 59.166828 
L 179.302561 60.574249 
L 179.414747 61.906098 
L 179.526934 63.143141 
L 179.63912 64.271995 
L 179.751306 65.284859 
L 179.863492 66.178985 
L 179.975678 66.955953 
L 180.087864 67.620845 
L 180.20005 68.181375 
L 180.312236 68.647046 
L 180.424422 69.02838 
L 180.536609 69.336255 
L 180.648795 69.581372 
L 180.760981 69.773845 
L 180.873167 69.922932 
L 180.985353 70.03686 
" style="fill:none;stroke:#ff7f0e;stroke-linecap:square;stroke-width:1.5;"/>
   </g>
   <g id="line2d_8">
    <path clip-path="url(#p45341fc88c)" d="M 180.277722 70.232364 
L 180.398111 70.180825 
L 180.5185 70.109113 
L 180.638888 70.010843 
L 180.759277 69.878235 
L 180.879665 69.702043 
L 181.000054 69.471581 
L 181.120442 69.174871 
L 181.240831 68.798943 
L 181.36122 68.33033 
L 181.481608 67.755754 
L 181.601997 67.063013 
L 181.722385 66.242049 
L 181.842774 65.286133 
L 181.963162 64.193109 
L 182.083551 62.966584 
L 182.203939 61.616949 
L 182.324328 60.1621 
L 182.444717 58.627742 
L 182.565105 57.047163 
L 182.685494 55.460417 
L 182.805882 53.912899 
L 182.926271 52.453352 
L 183.046659 51.13141 
L 183.167048 49.994848 
L 183.287437 49.086737 
L 183.407825 48.442742 
L 183.528214 48.0888 
L 183.648602 48.039386 
L 183.768991 48.296533 
L 183.889379 48.849695 
L 184.009768 49.676457 
L 184.130156 50.744052 
L 184.250545 52.011504 
L 184.370934 53.432244 
L 184.491322 54.956922 
L 184.611711 56.536225 
L 184.732099 58.123441 
L 184.852488 59.676616 
L 184.972876 61.160172 
L 185.093265 62.545917 
L 185.213654 63.813456 
L 185.334042 64.950049 
L 185.454431 65.95001 
L 185.574819 66.81377 
L 185.695208 67.546723 
L 185.815596 68.157994 
L 185.935985 68.659218 
L 186.056374 69.063433 
L 186.176762 69.384132 
" style="fill:none;stroke:#2ca02c;stroke-linecap:square;stroke-width:1.5;"/>
   </g>
   <g id="line2d_9">
    <path clip-path="url(#p45341fc88c)" d="M 167.764432 70.34558 
L 167.764432 36.264075 
" style="fill:none;stroke:#ff0000;stroke-linecap:square;stroke-width:1.5;"/>
   </g>
   <g id="line2d_10">
    <path clip-path="url(#p45341fc88c)" d="M 199.264463 70.34558 
L 199.264463 48.053944 
" style="fill:none;stroke:#ff0000;stroke-linecap:square;stroke-width:1.5;"/>
   </g>
   <g id="line2d_11">
    <path clip-path="url(#p45341fc88c)" d="M 60.917355 70.34558 
L 60.917355 48.039386 
" style="fill:none;stroke:#ff0000;stroke-linecap:square;stroke-width:1.5;"/>
   </g>
   <g id="patch_3">
    <path d="M 54 72.049655 
L 54 34.56 
" style="fill:none;stroke:#000000;stroke-linecap:square;stroke-linejoin:miter;stroke-width:0.8;"/>
   </g>
   <g id="patch_4">
    <path d="M 206.181818 72.049655 
L 206.181818 34.56 
" style="fill:none;stroke:#000000;stroke-linecap:square;stroke-linejoin:miter;stroke-width:0.8;"/>
   </g>
   <g id="patch_5">
    <path d="M 54 72.049655 
L 206.181818 72.049655 
" style="fill:none;stroke:#000000;stroke-linecap:square;stroke-linejoin:miter;stroke-width:0.8;"/>
   </g>
   <g id="patch_6">
    <path d="M 54 34.56 
L 206.181818 34.56 
" style="fill:none;stroke:#000000;stroke-linecap:square;stroke-linejoin:miter;stroke-width:0.8;"/>
   </g>
   <g id="text_7">
    <!-- w -->
    <defs>
     <path d="M 4.203125 54.6875 
L 13.1875 54.6875 
L 24.421875 12.015625 
L 35.59375 54.6875 
L 46.1875 54.6875 
L 57.421875 12.015625 
L 68.609375 54.6875 
L 77.59375 54.6875 
L 63.28125 0 
L 52.6875 0 
L 40.921875 44.828125 
L 29.109375 0 
L 18.5 0 
z
" id="DejaVuSans-119"/>
    </defs>
    <g transform="translate(125.184034 28.56)scale(0.12 -0.12)">
     <use xlink:href="#DejaVuSans-119"/>
    </g>
   </g>
  </g>
  <g id="axes_2">
   <g id="patch_7">
    <path d="M 54 117.037241 
L 206.181818 117.037241 
L 206.181818 79.547586 
L 54 79.547586 
z
" style="fill:#ffffff;"/>
   </g>
   <g id="matplotlib.axis_3">
    <g id="xtick_4">
     <g id="line2d_12">
      <g>
       <use style="stroke:#000000;stroke-width:0.8;" x="71.349513" xlink:href="#m202afe0062" y="117.037241"/>
      </g>
     </g>
     <g id="text_8">
      <!-- 10 -->
      <defs>
       <path d="M 12.40625 8.296875 
L 28.515625 8.296875 
L 28.515625 63.921875 
L 10.984375 60.40625 
L 10.984375 69.390625 
L 28.421875 72.90625 
L 38.28125 72.90625 
L 38.28125 8.296875 
L 54.390625 8.296875 
L 54.390625 0 
L 12.40625 0 
z
" id="DejaVuSans-49"/>
      </defs>
      <g transform="translate(64.987013 131.635679)scale(0.1 -0.1)">
       <use xlink:href="#DejaVuSans-49"/>
       <use x="63.623047" xlink:href="#DejaVuSans-48"/>
      </g>
     </g>
    </g>
    <g id="xtick_5">
     <g id="line2d_13">
      <g>
       <use style="stroke:#000000;stroke-width:0.8;" x="130.108195" xlink:href="#m202afe0062" y="117.037241"/>
      </g>
     </g>
     <g id="text_9">
      <!-- 20 -->
      <g transform="translate(123.745695 131.635679)scale(0.1 -0.1)">
       <use xlink:href="#DejaVuSans-50"/>
       <use x="63.623047" xlink:href="#DejaVuSans-48"/>
      </g>
     </g>
    </g>
    <g id="xtick_6">
     <g id="line2d_14">
      <g>
       <use style="stroke:#000000;stroke-width:0.8;" x="188.866876" xlink:href="#m202afe0062" y="117.037241"/>
      </g>
     </g>
     <g id="text_10">
      <!-- 30 -->
      <g transform="translate(182.504376 131.635679)scale(0.1 -0.1)">
       <use xlink:href="#DejaVuSans-51"/>
       <use x="63.623047" xlink:href="#DejaVuSans-48"/>
      </g>
     </g>
    </g>
   </g>
   <g id="matplotlib.axis_4">
    <g id="ytick_3">
     <g id="line2d_15">
      <g>
       <use style="stroke:#000000;stroke-width:0.8;" x="54" xlink:href="#mb78f871172" y="115.333166"/>
      </g>
     </g>
     <g id="text_11">
      <!-- 0.0 -->
      <g transform="translate(31.096875 119.132385)scale(0.1 -0.1)">
       <use xlink:href="#DejaVuSans-48"/>
       <use x="63.623047" xlink:href="#DejaVuSans-46"/>
       <use x="95.410156" xlink:href="#DejaVuSans-48"/>
      </g>
     </g>
    </g>
    <g id="ytick_4">
     <g id="line2d_16">
      <g>
       <use style="stroke:#000000;stroke-width:0.8;" x="54" xlink:href="#mb78f871172" y="90.481251"/>
      </g>
     </g>
     <g id="text_12">
      <!-- 2.5 -->
      <g transform="translate(31.096875 94.280469)scale(0.1 -0.1)">
       <use xlink:href="#DejaVuSans-50"/>
       <use x="63.623047" xlink:href="#DejaVuSans-46"/>
       <use x="95.410156" xlink:href="#DejaVuSans-53"/>
      </g>
     </g>
    </g>
    <g id="text_13">
     <!-- Frequency -->
     <g transform="translate(25.017187 124.59007)rotate(-90)scale(0.1 -0.1)">
      <use xlink:href="#DejaVuSans-70"/>
      <use x="57.410156" xlink:href="#DejaVuSans-114"/>
      <use x="98.492188" xlink:href="#DejaVuSans-101"/>
      <use x="160.015625" xlink:href="#DejaVuSans-113"/>
      <use x="223.492188" xlink:href="#DejaVuSans-117"/>
      <use x="286.871094" xlink:href="#DejaVuSans-101"/>
      <use x="348.394531" xlink:href="#DejaVuSans-110"/>
      <use x="411.773438" xlink:href="#DejaVuSans-99"/>
      <use x="466.753906" xlink:href="#DejaVuSans-121"/>
     </g>
    </g>
   </g>
   <g id="line2d_17">
    <path clip-path="url(#p0ddb80ab13)" d="M 194.630065 115.161599 
L 194.724644 115.072687 
L 194.819224 114.944492 
L 194.913804 114.763167 
L 195.008383 114.511608 
L 195.102963 114.169369 
L 195.197542 113.71288 
L 195.292122 113.116087 
L 195.386701 112.351589 
L 195.481281 111.392351 
L 195.57586 110.213974 
L 195.67044 108.797468 
L 195.765019 107.132335 
L 195.859599 105.219723 
L 195.954179 103.075285 
L 196.048758 100.731343 
L 196.143338 98.237974 
L 196.237917 95.662631 
L 196.332497 93.088104 
L 196.427076 90.608734 
L 196.521656 88.325049 
L 196.616235 86.337203 
L 196.710815 84.737773 
L 196.805395 83.604648 
L 196.899974 82.994745 
L 196.994554 82.939277 
L 197.089133 83.441101 
L 197.183713 84.474478 
L 197.278292 85.98726 
L 197.372872 87.905247 
L 197.467451 90.138219 
L 197.562031 92.586942 
L 197.65661 95.150411 
L 197.75119 97.732592 
L 197.84577 100.248056 
L 197.940349 102.626097 
L 198.034929 104.813122 
L 198.129508 106.773339 
L 198.224088 108.487942 
L 198.318667 109.953124 
L 198.413247 111.177326 
L 198.507826 112.178108 
L 198.602406 112.979033 
L 198.696986 113.606811 
L 198.791565 114.088925 
L 198.886145 114.451805 
L 198.980724 114.719575 
L 199.075304 114.913331 
L 199.169883 115.050838 
L 199.264463 115.146569 
" style="fill:none;stroke:#1f77b4;stroke-linecap:square;stroke-width:1.5;"/>
   </g>
   <g id="line2d_18">
    <path clip-path="url(#p0ddb80ab13)" d="M 60.917355 115.031602 
L 60.998284 114.902279 
L 61.079212 114.726057 
L 61.16014 114.489661 
L 61.241069 114.177513 
L 61.321997 113.771868 
L 61.402926 113.253168 
L 61.483854 112.600676 
L 61.564782 111.793413 
L 61.645711 110.811422 
L 61.726639 109.637329 
L 61.807568 108.258143 
L 61.888496 106.667205 
L 61.969424 104.866116 
L 62.050353 102.866495 
L 62.131281 100.691337 
L 62.212209 98.375784 
L 62.293138 95.967122 
L 62.374066 93.523869 
L 62.454995 91.113895 
L 62.535923 88.811604 
L 62.616851 86.694303 
L 62.69778 84.837994 
L 62.778708 83.312892 
L 62.859636 82.179035 
L 62.940565 81.48237 
L 63.021493 81.251661 
L 63.102422 81.496522 
L 63.18335 82.206751 
L 63.264278 83.353035 
L 63.345207 84.888958 
L 63.426135 86.754118 
L 63.507063 88.878062 
L 63.587992 91.184684 
L 63.66892 93.596705 
L 63.749849 96.039867 
L 63.830777 98.446545 
L 63.911705 100.758531 
L 63.992634 102.928895 
L 64.073562 104.922861 
L 64.15449 106.717789 
L 64.235419 108.302381 
L 64.316347 109.67531 
L 64.397276 110.843452 
L 64.478204 111.819956 
L 64.559132 112.6223 
L 64.640061 113.270491 
L 64.720989 113.785518 
L 64.801917 114.188096 
L 64.882846 114.497735 
" style="fill:none;stroke:#ff7f0e;stroke-linecap:square;stroke-width:1.5;"/>
   </g>
   <g id="line2d_19">
    <path clip-path="url(#p0ddb80ab13)" d="M 192.855406 115.333166 
L 192.855406 82.939277 
" style="fill:none;stroke:#ff0000;stroke-linecap:square;stroke-width:1.5;"/>
   </g>
   <g id="line2d_20">
    <path clip-path="url(#p0ddb80ab13)" d="M 66.795925 115.333166 
L 66.795925 81.251661 
" style="fill:none;stroke:#ff0000;stroke-linecap:square;stroke-width:1.5;"/>
   </g>
   <g id="patch_8">
    <path d="M 54 117.037241 
L 54 79.547586 
" style="fill:none;stroke:#000000;stroke-linecap:square;stroke-linejoin:miter;stroke-width:0.8;"/>
   </g>
   <g id="patch_9">
    <path d="M 206.181818 117.037241 
L 206.181818 79.547586 
" style="fill:none;stroke:#000000;stroke-linecap:square;stroke-linejoin:miter;stroke-width:0.8;"/>
   </g>
   <g id="patch_10">
    <path d="M 54 117.037241 
L 206.181818 117.037241 
" style="fill:none;stroke:#000000;stroke-linecap:square;stroke-linejoin:miter;stroke-width:0.8;"/>
   </g>
   <g id="patch_11">
    <path d="M 54 79.547586 
L 206.181818 79.547586 
" style="fill:none;stroke:#000000;stroke-linecap:square;stroke-linejoin:miter;stroke-width:0.8;"/>
   </g>
   <g id="text_14">
    <!-- mu1 -->
    <defs>
     <path d="M 52 44.1875 
Q 55.375 50.25 60.0625 53.125 
Q 64.75 56 71.09375 56 
Q 79.640625 56 84.28125 50.015625 
Q 88.921875 44.046875 88.921875 33.015625 
L 88.921875 0 
L 79.890625 0 
L 79.890625 32.71875 
Q 79.890625 40.578125 77.09375 44.375 
Q 74.3125 48.1875 68.609375 48.1875 
Q 61.625 48.1875 57.5625 43.546875 
Q 53.515625 38.921875 53.515625 30.90625 
L 53.515625 0 
L 44.484375 0 
L 44.484375 32.71875 
Q 44.484375 40.625 41.703125 44.40625 
Q 38.921875 48.1875 33.109375 48.1875 
Q 26.21875 48.1875 22.15625 43.53125 
Q 18.109375 38.875 18.109375 30.90625 
L 18.109375 0 
L 9.078125 0 
L 9.078125 54.6875 
L 18.109375 54.6875 
L 18.109375 46.1875 
Q 21.1875 51.21875 25.484375 53.609375 
Q 29.78125 56 35.6875 56 
Q 41.65625 56 45.828125 52.96875 
Q 50 49.953125 52 44.1875 
z
" id="DejaVuSans-109"/>
    </defs>
    <g transform="translate(116.626534 73.547586)scale(0.12 -0.12)">
     <use xlink:href="#DejaVuSans-109"/>
     <use x="97.412109" xlink:href="#DejaVuSans-117"/>
     <use x="160.791016" xlink:href="#DejaVuSans-49"/>
    </g>
   </g>
  </g>
  <g id="axes_3">
   <g id="patch_12">
    <path d="M 54 162.024828 
L 206.181818 162.024828 
L 206.181818 124.535172 
L 54 124.535172 
z
" style="fill:#ffffff;"/>
   </g>
   <g id="matplotlib.axis_5">
    <g id="xtick_7">
     <g id="line2d_21">
      <g>
       <use style="stroke:#000000;stroke-width:0.8;" x="61.230218" xlink:href="#m202afe0062" y="162.024828"/>
      </g>
     </g>
     <g id="text_15">
      <!-- 0 -->
      <g transform="translate(58.048968 176.623265)scale(0.1 -0.1)">
       <use xlink:href="#DejaVuSans-48"/>
      </g>
     </g>
    </g>
    <g id="xtick_8">
     <g id="line2d_22">
      <g>
       <use style="stroke:#000000;stroke-width:0.8;" x="102.542091" xlink:href="#m202afe0062" y="162.024828"/>
      </g>
     </g>
     <g id="text_16">
      <!-- 5 -->
      <g transform="translate(99.360841 176.623265)scale(0.1 -0.1)">
       <use xlink:href="#DejaVuSans-53"/>
      </g>
     </g>
    </g>
    <g id="xtick_9">
     <g id="line2d_23">
      <g>
       <use style="stroke:#000000;stroke-width:0.8;" x="143.853964" xlink:href="#m202afe0062" y="162.024828"/>
      </g>
     </g>
     <g id="text_17">
      <!-- 10 -->
      <g transform="translate(137.491464 176.623265)scale(0.1 -0.1)">
       <use xlink:href="#DejaVuSans-49"/>
       <use x="63.623047" xlink:href="#DejaVuSans-48"/>
      </g>
     </g>
    </g>
    <g id="xtick_10">
     <g id="line2d_24">
      <g>
       <use style="stroke:#000000;stroke-width:0.8;" x="185.165838" xlink:href="#m202afe0062" y="162.024828"/>
      </g>
     </g>
     <g id="text_18">
      <!-- 15 -->
      <g transform="translate(178.803338 176.623265)scale(0.1 -0.1)">
       <use xlink:href="#DejaVuSans-49"/>
       <use x="63.623047" xlink:href="#DejaVuSans-53"/>
      </g>
     </g>
    </g>
   </g>
   <g id="matplotlib.axis_6">
    <g id="ytick_5">
     <g id="line2d_25">
      <g>
       <use style="stroke:#000000;stroke-width:0.8;" x="54" xlink:href="#mb78f871172" y="160.320752"/>
      </g>
     </g>
     <g id="text_19">
      <!-- 0 -->
      <g transform="translate(40.6375 164.119971)scale(0.1 -0.1)">
       <use xlink:href="#DejaVuSans-48"/>
      </g>
     </g>
    </g>
    <g id="ytick_6">
     <g id="line2d_26">
      <g>
       <use style="stroke:#000000;stroke-width:0.8;" x="54" xlink:href="#mb78f871172" y="128.614205"/>
      </g>
     </g>
     <g id="text_20">
      <!-- 100 -->
      <g transform="translate(27.9125 132.413424)scale(0.1 -0.1)">
       <use xlink:href="#DejaVuSans-49"/>
       <use x="63.623047" xlink:href="#DejaVuSans-48"/>
       <use x="127.246094" xlink:href="#DejaVuSans-48"/>
      </g>
     </g>
    </g>
    <g id="text_21">
     <!-- Frequency -->
     <g transform="translate(21.832812 169.577656)rotate(-90)scale(0.1 -0.1)">
      <use xlink:href="#DejaVuSans-70"/>
      <use x="57.410156" xlink:href="#DejaVuSans-114"/>
      <use x="98.492188" xlink:href="#DejaVuSans-101"/>
      <use x="160.015625" xlink:href="#DejaVuSans-113"/>
      <use x="223.492188" xlink:href="#DejaVuSans-117"/>
      <use x="286.871094" xlink:href="#DejaVuSans-101"/>
      <use x="348.394531" xlink:href="#DejaVuSans-110"/>
      <use x="411.773438" xlink:href="#DejaVuSans-99"/>
      <use x="466.753906" xlink:href="#DejaVuSans-121"/>
     </g>
    </g>
   </g>
   <g id="line2d_27">
    <path clip-path="url(#p204ae4bb26)" d="M 193.136527 160.300705 
L 193.174194 160.290332 
L 193.211861 160.275386 
L 193.249529 160.254266 
L 193.287196 160.224994 
L 193.324863 160.185214 
L 193.36253 160.132218 
L 193.400197 160.063026 
L 193.437864 159.974518 
L 193.475532 159.86364 
L 193.513199 159.727667 
L 193.550866 159.564523 
L 193.588533 159.373139 
L 193.6262 159.153806 
L 193.663867 158.9085 
L 193.701534 158.641116 
L 193.739202 158.357572 
L 193.776869 158.065752 
L 193.814536 157.775242 
L 193.852203 157.496881 
L 193.88987 157.242129 
L 193.927537 157.022303 
L 193.965205 156.847751 
L 194.002872 156.727052 
L 194.040539 156.666316 
L 194.078206 156.668669 
L 194.115873 156.73399 
L 194.15354 156.858918 
L 194.191208 157.037141 
L 194.228875 157.259924 
L 194.266542 157.516818 
L 194.304209 157.796467 
L 194.341876 158.087434 
L 194.379543 158.378951 
L 194.41721 158.661546 
L 194.454878 158.927474 
L 194.492545 159.170966 
L 194.530212 159.388275 
L 194.567879 159.577561 
L 194.605546 159.738642 
L 194.643213 159.872677 
L 194.680881 159.9818 
L 194.718548 160.068771 
L 194.756215 160.136658 
L 194.793882 160.188576 
L 194.831549 160.22749 
L 194.869216 160.256082 
L 194.906884 160.276682 
L 194.944551 160.291239 
L 194.982218 160.301328 
" style="fill:none;stroke:#1f77b4;stroke-linecap:square;stroke-width:1.5;"/>
   </g>
   <g id="line2d_28">
    <path clip-path="url(#p204ae4bb26)" d="M 60.917355 160.066558 
L 60.921083 159.951582 
L 60.92481 159.792467 
L 60.928537 159.575863 
L 60.932265 159.285861 
L 60.935992 158.904048 
L 60.939719 158.409825 
L 60.943447 157.781008 
L 60.947174 156.994795 
L 60.950901 156.029103 
L 60.954629 154.864273 
L 60.958356 153.485072 
L 60.962083 151.882904 
L 60.96581 150.05803 
L 60.969538 148.021627 
L 60.973265 145.797405 
L 60.976992 143.422569 
L 60.98072 140.947873 
L 60.984447 138.436629 
L 60.988174 135.962566 
L 60.991902 133.606589 
L 60.995629 131.452597 
L 60.999356 129.58263 
L 61.003084 128.071738 
L 61.006811 126.982994 
L 61.010538 126.363139 
L 61.014266 126.239248 
L 61.017993 126.616772 
L 61.02172 127.479142 
L 61.025448 128.788969 
L 61.029175 130.490739 
L 61.032902 132.51471 
L 61.036629 134.781642 
L 61.040357 137.207921 
L 61.044084 139.710591 
L 61.047811 142.21192 
L 61.051539 144.643126 
L 61.055266 146.947069 
L 61.058993 149.079814 
L 61.062721 151.011068 
L 61.066448 152.723647 
L 61.070175 154.212146 
L 61.073903 155.481068 
L 61.07763 156.542659 
L 61.081357 157.414661 
L 61.085085 158.118198 
L 61.088812 158.675908 
L 61.092539 159.110423 
L 61.096267 159.443219 
L 61.099994 159.693844 
" style="fill:none;stroke:#ff7f0e;stroke-linecap:square;stroke-width:1.5;"/>
   </g>
   <g id="line2d_29">
    <path clip-path="url(#p204ae4bb26)" d="M 199.264463 160.320752 
L 199.264463 156.666316 
" style="fill:none;stroke:#ff0000;stroke-linecap:square;stroke-width:1.5;"/>
   </g>
   <g id="line2d_30">
    <path clip-path="url(#p204ae4bb26)" d="M 61.014078 160.320752 
L 61.014078 126.239248 
" style="fill:none;stroke:#ff0000;stroke-linecap:square;stroke-width:1.5;"/>
   </g>
   <g id="patch_13">
    <path d="M 54 162.024828 
L 54 124.535172 
" style="fill:none;stroke:#000000;stroke-linecap:square;stroke-linejoin:miter;stroke-width:0.8;"/>
   </g>
   <g id="patch_14">
    <path d="M 206.181818 162.024828 
L 206.181818 124.535172 
" style="fill:none;stroke:#000000;stroke-linecap:square;stroke-linejoin:miter;stroke-width:0.8;"/>
   </g>
   <g id="patch_15">
    <path d="M 54 162.024828 
L 206.181818 162.024828 
" style="fill:none;stroke:#000000;stroke-linecap:square;stroke-linejoin:miter;stroke-width:0.8;"/>
   </g>
   <g id="patch_16">
    <path d="M 54 124.535172 
L 206.181818 124.535172 
" style="fill:none;stroke:#000000;stroke-linecap:square;stroke-linejoin:miter;stroke-width:0.8;"/>
   </g>
   <g id="text_22">
    <!-- mu0 -->
    <g transform="translate(116.626534 118.535172)scale(0.12 -0.12)">
     <use xlink:href="#DejaVuSans-109"/>
     <use x="97.412109" xlink:href="#DejaVuSans-117"/>
     <use x="160.791016" xlink:href="#DejaVuSans-48"/>
    </g>
   </g>
  </g>
  <g id="axes_4">
   <g id="patch_17">
    <path d="M 54 207.012414 
L 206.181818 207.012414 
L 206.181818 169.522759 
L 54 169.522759 
z
" style="fill:#ffffff;"/>
   </g>
   <g id="matplotlib.axis_7">
    <g id="xtick_11">
     <g id="line2d_31">
      <g>
       <use style="stroke:#000000;stroke-width:0.8;" x="60.162461" xlink:href="#m202afe0062" y="207.012414"/>
      </g>
     </g>
     <g id="text_23">
      <!-- 0 -->
      <g transform="translate(56.981211 221.610851)scale(0.1 -0.1)">
       <use xlink:href="#DejaVuSans-48"/>
      </g>
     </g>
    </g>
    <g id="xtick_12">
     <g id="line2d_32">
      <g>
       <use style="stroke:#000000;stroke-width:0.8;" x="101.605349" xlink:href="#m202afe0062" y="207.012414"/>
      </g>
     </g>
     <g id="text_24">
      <!-- 10 -->
      <g transform="translate(95.242849 221.610851)scale(0.1 -0.1)">
       <use xlink:href="#DejaVuSans-49"/>
       <use x="63.623047" xlink:href="#DejaVuSans-48"/>
      </g>
     </g>
    </g>
    <g id="xtick_13">
     <g id="line2d_33">
      <g>
       <use style="stroke:#000000;stroke-width:0.8;" x="143.048236" xlink:href="#m202afe0062" y="207.012414"/>
      </g>
     </g>
     <g id="text_25">
      <!-- 20 -->
      <g transform="translate(136.685736 221.610851)scale(0.1 -0.1)">
       <use xlink:href="#DejaVuSans-50"/>
       <use x="63.623047" xlink:href="#DejaVuSans-48"/>
      </g>
     </g>
    </g>
    <g id="xtick_14">
     <g id="line2d_34">
      <g>
       <use style="stroke:#000000;stroke-width:0.8;" x="184.491124" xlink:href="#m202afe0062" y="207.012414"/>
      </g>
     </g>
     <g id="text_26">
      <!-- 30 -->
      <g transform="translate(178.128624 221.610851)scale(0.1 -0.1)">
       <use xlink:href="#DejaVuSans-51"/>
       <use x="63.623047" xlink:href="#DejaVuSans-48"/>
      </g>
     </g>
    </g>
   </g>
   <g id="matplotlib.axis_8">
    <g id="ytick_7">
     <g id="line2d_35">
      <g>
       <use style="stroke:#000000;stroke-width:0.8;" x="54" xlink:href="#mb78f871172" y="205.308339"/>
      </g>
     </g>
     <g id="text_27">
      <!-- 0 -->
      <g transform="translate(40.6375 209.107557)scale(0.1 -0.1)">
       <use xlink:href="#DejaVuSans-48"/>
      </g>
     </g>
    </g>
    <g id="ytick_8">
     <g id="line2d_36">
      <g>
       <use style="stroke:#000000;stroke-width:0.8;" x="54" xlink:href="#mb78f871172" y="177.166117"/>
      </g>
     </g>
     <g id="text_28">
      <!-- 25 -->
      <g transform="translate(34.275 180.965336)scale(0.1 -0.1)">
       <use xlink:href="#DejaVuSans-50"/>
       <use x="63.623047" xlink:href="#DejaVuSans-53"/>
      </g>
     </g>
    </g>
    <g id="text_29">
     <!-- Frequency -->
     <g transform="translate(28.195312 214.565242)rotate(-90)scale(0.1 -0.1)">
      <use xlink:href="#DejaVuSans-70"/>
      <use x="57.410156" xlink:href="#DejaVuSans-114"/>
      <use x="98.492188" xlink:href="#DejaVuSans-101"/>
      <use x="160.015625" xlink:href="#DejaVuSans-113"/>
      <use x="223.492188" xlink:href="#DejaVuSans-117"/>
      <use x="286.871094" xlink:href="#DejaVuSans-101"/>
      <use x="348.394531" xlink:href="#DejaVuSans-110"/>
      <use x="411.773438" xlink:href="#DejaVuSans-99"/>
      <use x="466.753906" xlink:href="#DejaVuSans-121"/>
     </g>
    </g>
   </g>
   <g id="line2d_37">
    <path clip-path="url(#p38df3963aa)" d="M 191.972996 205.288926 
L 192.018372 205.277305 
L 192.063749 205.259716 
L 192.109126 205.233676 
L 192.154502 205.195976 
L 192.199879 205.142609 
L 192.245256 205.068767 
L 192.290632 204.968928 
L 192.336009 204.837067 
L 192.381386 204.66702 
L 192.426763 204.453011 
L 192.472139 204.190324 
L 192.517516 203.876091 
L 192.562893 203.51011 
L 192.608269 203.095611 
L 192.653646 202.639839 
L 192.699023 202.154333 
L 192.744399 201.654799 
L 192.789776 201.160505 
L 192.835153 200.693198 
L 192.88053 200.275597 
L 192.925906 199.929599 
L 192.971283 199.674394 
L 193.01666 199.524707 
L 193.062036 199.489385 
L 193.107413 199.570541 
L 193.15279 199.763336 
L 193.198166 200.056464 
L 193.243543 200.433244 
L 193.28892 200.873193 
L 193.334297 201.353863 
L 193.379673 201.852719 
L 193.42505 202.348833 
L 193.470427 202.824242 
L 193.515803 203.264842 
L 193.56118 203.6608 
L 193.606557 204.006512 
L 193.651933 204.300184 
L 193.69731 204.54317 
L 193.742687 204.739167 
L 193.788063 204.893399 
L 193.83344 205.011867 
L 193.878817 205.100733 
L 193.924194 205.16586 
L 193.96957 205.212506 
L 194.014947 205.245165 
L 194.060324 205.267524 
L 194.1057 205.282495 
L 194.151077 205.292301 
L 194.196454 205.298584 
" style="fill:none;stroke:#1f77b4;stroke-linecap:square;stroke-width:1.5;"/>
   </g>
   <g id="line2d_38">
    <path clip-path="url(#p38df3963aa)" d="M 60.917355 204.769306 
L 60.924307 204.536561 
L 60.931259 204.221122 
L 60.93821 203.801426 
L 60.945162 203.253359 
L 60.952114 202.551099 
L 60.959065 201.668441 
L 60.966017 200.580622 
L 60.972969 199.26661 
L 60.97992 197.71175 
L 60.986872 195.910595 
L 60.993824 193.869652 
L 61.000776 191.609735 
L 61.007727 189.167576 
L 61.014679 186.596375 
L 61.021631 183.965003 
L 61.028582 181.355731 
L 61.035534 178.860458 
L 61.042486 176.57563 
L 61.049437 174.596216 
L 61.056389 173.009219 
L 61.063341 171.887363 
L 61.070292 171.283573 
L 61.077244 171.226834 
L 61.084196 171.719889 
L 61.091147 172.739014 
L 61.098099 174.235915 
L 61.105051 176.141518 
L 61.112002 178.371251 
L 61.118954 180.831249 
L 61.125906 183.424853 
L 61.132857 186.058778 
L 61.139809 188.648426 
L 61.146761 191.121939 
L 61.153712 193.422789 
L 61.160664 195.510869 
L 61.167616 197.362199 
L 61.174567 198.96751 
L 61.181519 200.330011 
L 61.188471 201.4627 
L 61.195422 202.385526 
L 61.202374 203.122686 
L 61.209326 203.700254 
L 61.216278 204.144254 
L 61.223229 204.479238 
L 61.230181 204.727336 
L 61.237133 204.907752 
L 61.244084 205.036594 
L 61.251036 205.126965 
L 61.257988 205.189232 
" style="fill:none;stroke:#ff7f0e;stroke-linecap:square;stroke-width:1.5;"/>
   </g>
   <g id="line2d_39">
    <path clip-path="url(#p38df3963aa)" d="M 199.264463 205.308339 
L 199.264463 199.489385 
" style="fill:none;stroke:#ff0000;stroke-linecap:square;stroke-width:1.5;"/>
   </g>
   <g id="line2d_40">
    <path clip-path="url(#p38df3963aa)" d="M 61.343359 205.308339 
L 61.343359 171.226834 
" style="fill:none;stroke:#ff0000;stroke-linecap:square;stroke-width:1.5;"/>
   </g>
   <g id="patch_18">
    <path d="M 54 207.012414 
L 54 169.522759 
" style="fill:none;stroke:#000000;stroke-linecap:square;stroke-linejoin:miter;stroke-width:0.8;"/>
   </g>
   <g id="patch_19">
    <path d="M 206.181818 207.012414 
L 206.181818 169.522759 
" style="fill:none;stroke:#000000;stroke-linecap:square;stroke-linejoin:miter;stroke-width:0.8;"/>
   </g>
   <g id="patch_20">
    <path d="M 54 207.012414 
L 206.181818 207.012414 
" style="fill:none;stroke:#000000;stroke-linecap:square;stroke-linejoin:miter;stroke-width:0.8;"/>
   </g>
   <g id="patch_21">
    <path d="M 54 169.522759 
L 206.181818 169.522759 
" style="fill:none;stroke:#000000;stroke-linecap:square;stroke-linejoin:miter;stroke-width:0.8;"/>
   </g>
   <g id="text_30">
    <!-- mu2 -->
    <g transform="translate(116.626534 163.522759)scale(0.12 -0.12)">
     <use xlink:href="#DejaVuSans-109"/>
     <use x="97.412109" xlink:href="#DejaVuSans-117"/>
     <use x="160.791016" xlink:href="#DejaVuSans-50"/>
    </g>
   </g>
  </g>
  <g id="axes_5">
   <g id="patch_22">
    <path d="M 54 252 
L 206.181818 252 
L 206.181818 214.510345 
L 54 214.510345 
z
" style="fill:#ffffff;"/>
   </g>
   <g id="matplotlib.axis_9">
    <g id="xtick_15">
     <g id="line2d_41">
      <g>
       <use style="stroke:#000000;stroke-width:0.8;" x="86.429967" xlink:href="#m202afe0062" y="252"/>
      </g>
     </g>
     <g id="text_31">
      <!-- 15.00 -->
      <g transform="translate(72.115905 266.598438)scale(0.1 -0.1)">
       <use xlink:href="#DejaVuSans-49"/>
       <use x="63.623047" xlink:href="#DejaVuSans-53"/>
       <use x="127.246094" xlink:href="#DejaVuSans-46"/>
       <use x="159.033203" xlink:href="#DejaVuSans-48"/>
       <use x="222.65625" xlink:href="#DejaVuSans-48"/>
      </g>
     </g>
    </g>
    <g id="xtick_16">
     <g id="line2d_42">
      <g>
       <use style="stroke:#000000;stroke-width:0.8;" x="124.322256" xlink:href="#m202afe0062" y="252"/>
      </g>
     </g>
     <g id="text_32">
      <!-- 15.25 -->
      <g transform="translate(110.008194 266.598438)scale(0.1 -0.1)">
       <use xlink:href="#DejaVuSans-49"/>
       <use x="63.623047" xlink:href="#DejaVuSans-53"/>
       <use x="127.246094" xlink:href="#DejaVuSans-46"/>
       <use x="159.033203" xlink:href="#DejaVuSans-50"/>
       <use x="222.65625" xlink:href="#DejaVuSans-53"/>
      </g>
     </g>
    </g>
    <g id="xtick_17">
     <g id="line2d_43">
      <g>
       <use style="stroke:#000000;stroke-width:0.8;" x="162.214545" xlink:href="#m202afe0062" y="252"/>
      </g>
     </g>
     <g id="text_33">
      <!-- 15.50 -->
      <g transform="translate(147.900482 266.598438)scale(0.1 -0.1)">
       <use xlink:href="#DejaVuSans-49"/>
       <use x="63.623047" xlink:href="#DejaVuSans-53"/>
       <use x="127.246094" xlink:href="#DejaVuSans-46"/>
       <use x="159.033203" xlink:href="#DejaVuSans-53"/>
       <use x="222.65625" xlink:href="#DejaVuSans-48"/>
      </g>
     </g>
    </g>
    <g id="xtick_18">
     <g id="line2d_44">
      <g>
       <use style="stroke:#000000;stroke-width:0.8;" x="200.106834" xlink:href="#m202afe0062" y="252"/>
      </g>
     </g>
     <g id="text_34">
      <!-- 15.75 -->
      <defs>
       <path d="M 8.203125 72.90625 
L 55.078125 72.90625 
L 55.078125 68.703125 
L 28.609375 0 
L 18.3125 0 
L 43.21875 64.59375 
L 8.203125 64.59375 
z
" id="DejaVuSans-55"/>
      </defs>
      <g transform="translate(185.792771 266.598438)scale(0.1 -0.1)">
       <use xlink:href="#DejaVuSans-49"/>
       <use x="63.623047" xlink:href="#DejaVuSans-53"/>
       <use x="127.246094" xlink:href="#DejaVuSans-46"/>
       <use x="159.033203" xlink:href="#DejaVuSans-55"/>
       <use x="222.65625" xlink:href="#DejaVuSans-53"/>
      </g>
     </g>
    </g>
   </g>
   <g id="matplotlib.axis_10">
    <g id="ytick_9">
     <g id="line2d_45">
      <g>
       <use style="stroke:#000000;stroke-width:0.8;" x="54" xlink:href="#mb78f871172" y="250.295925"/>
      </g>
     </g>
     <g id="text_35">
      <!-- 0 -->
      <g transform="translate(40.6375 254.095144)scale(0.1 -0.1)">
       <use xlink:href="#DejaVuSans-48"/>
      </g>
     </g>
    </g>
    <g id="ytick_10">
     <g id="line2d_46">
      <g>
       <use style="stroke:#000000;stroke-width:0.8;" x="54" xlink:href="#mb78f871172" y="214.698923"/>
      </g>
     </g>
     <g id="text_36">
      <!-- 5 -->
      <g transform="translate(40.6375 218.498141)scale(0.1 -0.1)">
       <use xlink:href="#DejaVuSans-53"/>
      </g>
     </g>
    </g>
    <g id="text_37">
     <!-- Frequency -->
     <g transform="translate(34.557812 259.552829)rotate(-90)scale(0.1 -0.1)">
      <use xlink:href="#DejaVuSans-70"/>
      <use x="57.410156" xlink:href="#DejaVuSans-114"/>
      <use x="98.492188" xlink:href="#DejaVuSans-101"/>
      <use x="160.015625" xlink:href="#DejaVuSans-113"/>
      <use x="223.492188" xlink:href="#DejaVuSans-117"/>
      <use x="286.871094" xlink:href="#DejaVuSans-101"/>
      <use x="348.394531" xlink:href="#DejaVuSans-110"/>
      <use x="411.773438" xlink:href="#DejaVuSans-99"/>
      <use x="466.753906" xlink:href="#DejaVuSans-121"/>
     </g>
    </g>
   </g>
   <g id="line2d_47">
    <path clip-path="url(#p3ac3773341)" d="M 60.917355 249.388713 
L 62.403709 249.059106 
L 63.890062 248.632925 
L 65.376416 248.09063 
L 66.862769 247.411697 
L 68.349123 246.575601 
L 69.835477 245.5631 
L 71.32183 244.357812 
L 72.808184 242.947997 
L 74.294537 241.328459 
L 75.780891 239.502409 
L 77.267244 237.48311 
L 78.753598 235.29512 
L 80.239951 232.974924 
L 81.726305 230.570799 
L 83.212658 228.141781 
L 84.699012 225.755699 
L 86.185365 223.486312 
L 87.671719 221.409691 
L 89.158072 219.600072 
L 90.644426 218.125494 
L 92.130779 217.043567 
L 93.617133 216.397743 
L 95.103487 216.21442 
L 96.58984 216.501153 
L 98.076194 217.246138 
L 99.562547 218.419016 
L 101.048901 219.972927 
L 102.535254 221.847615 
L 104.021608 223.9733 
L 105.507961 226.274967 
L 106.994315 228.676714 
L 108.480668 231.105802 
L 109.967022 233.496127 
L 111.453375 235.79089 
L 112.939729 237.944363 
L 114.426082 239.92271 
L 115.912436 241.703945 
L 117.398789 243.277146 
L 118.885143 244.641112 
L 120.371496 245.802647 
L 121.85785 246.774676 
L 123.344204 247.57436 
L 124.830557 248.221351 
L 126.316911 248.736273 
L 127.803264 249.139507 
L 129.289618 249.450276 
L 130.775971 249.686031 
L 132.262325 249.862108 
L 133.748678 249.991593 
" style="fill:none;stroke:#1f77b4;stroke-linecap:square;stroke-width:1.5;"/>
   </g>
   <g id="line2d_48">
    <path clip-path="url(#p3ac3773341)" d="M 102.495679 249.558208 
L 104.215847 249.241739 
L 105.936016 248.81575 
L 107.656185 248.253824 
L 109.376353 247.527649 
L 111.096522 246.608613 
L 112.816691 245.470022 
L 114.536859 244.089873 
L 116.257028 242.45404 
L 117.977197 240.55963 
L 119.697365 238.418148 
L 121.417534 236.058062 
L 123.137703 233.526327 
L 124.857871 230.888466 
L 126.57804 228.226912 
L 128.298209 225.637501 
L 130.018377 223.224199 
L 131.738546 221.092435 
L 133.458714 219.34157 
L 135.178883 218.057266 
L 136.899052 217.304554 
L 138.61922 217.122374 
L 140.339389 217.520242 
L 142.059558 218.477423 
L 143.779726 219.944721 
L 145.499895 221.848675 
L 147.220064 224.09764 
L 148.940232 226.589087 
L 150.660401 229.217285 
L 152.38057 231.880584 
L 154.100738 234.487627 
L 155.820907 236.96198 
L 157.541076 239.244955 
L 159.261244 241.296591 
L 160.981413 243.094997 
L 162.701582 244.634382 
L 164.42175 245.922221 
L 166.141919 246.975971 
L 167.862088 247.81974 
L 169.582256 248.481236 
L 171.302425 248.989184 
L 173.022594 249.371344 
L 174.742762 249.653136 
L 176.462931 249.856828 
L 178.183099 250.001197 
L 179.903268 250.101546 
L 181.623437 250.169961 
L 183.343605 250.215718 
L 185.063774 250.245743 
L 186.783943 250.265076 
" style="fill:none;stroke:#ff7f0e;stroke-linecap:square;stroke-width:1.5;"/>
   </g>
   <g id="line2d_49">
    <path clip-path="url(#p3ac3773341)" d="M 84.707032 250.295925 
L 84.707032 216.21442 
" style="fill:none;stroke:#ff0000;stroke-linecap:square;stroke-width:1.5;"/>
   </g>
   <g id="line2d_50">
    <path clip-path="url(#p3ac3773341)" d="M 199.264463 250.295925 
L 199.264463 217.122374 
" style="fill:none;stroke:#ff0000;stroke-linecap:square;stroke-width:1.5;"/>
   </g>
   <g id="patch_23">
    <path d="M 54 252 
L 54 214.510345 
" style="fill:none;stroke:#000000;stroke-linecap:square;stroke-linejoin:miter;stroke-width:0.8;"/>
   </g>
   <g id="patch_24">
    <path d="M 206.181818 252 
L 206.181818 214.510345 
" style="fill:none;stroke:#000000;stroke-linecap:square;stroke-linejoin:miter;stroke-width:0.8;"/>
   </g>
   <g id="patch_25">
    <path d="M 54 252 
L 206.181818 252 
" style="fill:none;stroke:#000000;stroke-linecap:square;stroke-linejoin:miter;stroke-width:0.8;"/>
   </g>
   <g id="patch_26">
    <path d="M 54 214.510345 
L 206.181818 214.510345 
" style="fill:none;stroke:#000000;stroke-linecap:square;stroke-linejoin:miter;stroke-width:0.8;"/>
   </g>
   <g id="text_38">
    <!-- sigma1 -->
    <defs>
     <path d="M 44.28125 53.078125 
L 44.28125 44.578125 
Q 40.484375 46.53125 36.375 47.5 
Q 32.28125 48.484375 27.875 48.484375 
Q 21.1875 48.484375 17.84375 46.4375 
Q 14.5 44.390625 14.5 40.28125 
Q 14.5 37.15625 16.890625 35.375 
Q 19.28125 33.59375 26.515625 31.984375 
L 29.59375 31.296875 
Q 39.15625 29.25 43.1875 25.515625 
Q 47.21875 21.78125 47.21875 15.09375 
Q 47.21875 7.46875 41.1875 3.015625 
Q 35.15625 -1.421875 24.609375 -1.421875 
Q 20.21875 -1.421875 15.453125 -0.5625 
Q 10.6875 0.296875 5.421875 2 
L 5.421875 11.28125 
Q 10.40625 8.6875 15.234375 7.390625 
Q 20.0625 6.109375 24.8125 6.109375 
Q 31.15625 6.109375 34.5625 8.28125 
Q 37.984375 10.453125 37.984375 14.40625 
Q 37.984375 18.0625 35.515625 20.015625 
Q 33.0625 21.96875 24.703125 23.78125 
L 21.578125 24.515625 
Q 13.234375 26.265625 9.515625 29.90625 
Q 5.8125 33.546875 5.8125 39.890625 
Q 5.8125 47.609375 11.28125 51.796875 
Q 16.75 56 26.8125 56 
Q 31.78125 56 36.171875 55.265625 
Q 40.578125 54.546875 44.28125 53.078125 
z
" id="DejaVuSans-115"/>
     <path d="M 9.421875 54.6875 
L 18.40625 54.6875 
L 18.40625 0 
L 9.421875 0 
z
M 9.421875 75.984375 
L 18.40625 75.984375 
L 18.40625 64.59375 
L 9.421875 64.59375 
z
" id="DejaVuSans-105"/>
     <path d="M 45.40625 27.984375 
Q 45.40625 37.75 41.375 43.109375 
Q 37.359375 48.484375 30.078125 48.484375 
Q 22.859375 48.484375 18.828125 43.109375 
Q 14.796875 37.75 14.796875 27.984375 
Q 14.796875 18.265625 18.828125 12.890625 
Q 22.859375 7.515625 30.078125 7.515625 
Q 37.359375 7.515625 41.375 12.890625 
Q 45.40625 18.265625 45.40625 27.984375 
z
M 54.390625 6.78125 
Q 54.390625 -7.171875 48.1875 -13.984375 
Q 42 -20.796875 29.203125 -20.796875 
Q 24.46875 -20.796875 20.265625 -20.09375 
Q 16.0625 -19.390625 12.109375 -17.921875 
L 12.109375 -9.1875 
Q 16.0625 -11.328125 19.921875 -12.34375 
Q 23.78125 -13.375 27.78125 -13.375 
Q 36.625 -13.375 41.015625 -8.765625 
Q 45.40625 -4.15625 45.40625 5.171875 
L 45.40625 9.625 
Q 42.625 4.78125 38.28125 2.390625 
Q 33.9375 0 27.875 0 
Q 17.828125 0 11.671875 7.65625 
Q 5.515625 15.328125 5.515625 27.984375 
Q 5.515625 40.671875 11.671875 48.328125 
Q 17.828125 56 27.875 56 
Q 33.9375 56 38.28125 53.609375 
Q 42.625 51.21875 45.40625 46.390625 
L 45.40625 54.6875 
L 54.390625 54.6875 
z
" id="DejaVuSans-103"/>
     <path d="M 34.28125 27.484375 
Q 23.390625 27.484375 19.1875 25 
Q 14.984375 22.515625 14.984375 16.5 
Q 14.984375 11.71875 18.140625 8.90625 
Q 21.296875 6.109375 26.703125 6.109375 
Q 34.1875 6.109375 38.703125 11.40625 
Q 43.21875 16.703125 43.21875 25.484375 
L 43.21875 27.484375 
z
M 52.203125 31.203125 
L 52.203125 0 
L 43.21875 0 
L 43.21875 8.296875 
Q 40.140625 3.328125 35.546875 0.953125 
Q 30.953125 -1.421875 24.3125 -1.421875 
Q 15.921875 -1.421875 10.953125 3.296875 
Q 6 8.015625 6 15.921875 
Q 6 25.140625 12.171875 29.828125 
Q 18.359375 34.515625 30.609375 34.515625 
L 43.21875 34.515625 
L 43.21875 35.40625 
Q 43.21875 41.609375 39.140625 45 
Q 35.0625 48.390625 27.6875 48.390625 
Q 23 48.390625 18.546875 47.265625 
Q 14.109375 46.140625 10.015625 43.890625 
L 10.015625 52.203125 
Q 14.9375 54.109375 19.578125 55.046875 
Q 24.21875 56 28.609375 56 
Q 40.484375 56 46.34375 49.84375 
Q 52.203125 43.703125 52.203125 31.203125 
z
" id="DejaVuSans-97"/>
    </defs>
    <g transform="translate(108.150597 208.510345)scale(0.12 -0.12)">
     <use xlink:href="#DejaVuSans-115"/>
     <use x="52.099609" xlink:href="#DejaVuSans-105"/>
     <use x="79.882812" xlink:href="#DejaVuSans-103"/>
     <use x="143.359375" xlink:href="#DejaVuSans-109"/>
     <use x="240.771484" xlink:href="#DejaVuSans-97"/>
     <use x="302.050781" xlink:href="#DejaVuSans-49"/>
    </g>
   </g>
  </g>
  <g id="axes_6">
   <g id="patch_27">
    <path d="M 236.618182 72.049655 
L 388.8 72.049655 
L 388.8 34.56 
L 236.618182 34.56 
z
" style="fill:#ffffff;"/>
   </g>
   <g id="matplotlib.axis_11">
    <g id="xtick_19">
     <g id="line2d_51">
      <g>
       <use style="stroke:#000000;stroke-width:0.8;" x="282.000233" xlink:href="#m202afe0062" y="72.049655"/>
      </g>
     </g>
     <g id="text_39">
      <!-- 2 -->
      <g transform="translate(278.818983 86.648093)scale(0.1 -0.1)">
       <use xlink:href="#DejaVuSans-50"/>
      </g>
     </g>
    </g>
    <g id="xtick_20">
     <g id="line2d_52">
      <g>
       <use style="stroke:#000000;stroke-width:0.8;" x="339.904732" xlink:href="#m202afe0062" y="72.049655"/>
      </g>
     </g>
     <g id="text_40">
      <!-- 4 -->
      <g transform="translate(336.723482 86.648093)scale(0.1 -0.1)">
       <use xlink:href="#DejaVuSans-52"/>
      </g>
     </g>
    </g>
   </g>
   <g id="matplotlib.axis_12">
    <g id="ytick_11">
     <g id="line2d_53">
      <g>
       <use style="stroke:#000000;stroke-width:0.8;" x="236.618182" xlink:href="#mb78f871172" y="70.34558"/>
      </g>
     </g>
     <g id="text_41">
      <!-- 0 -->
      <g transform="translate(223.255682 74.144799)scale(0.1 -0.1)">
       <use xlink:href="#DejaVuSans-48"/>
      </g>
     </g>
    </g>
    <g id="ytick_12">
     <g id="line2d_54">
      <g>
       <use style="stroke:#000000;stroke-width:0.8;" x="236.618182" xlink:href="#mb78f871172" y="37.230183"/>
      </g>
     </g>
     <g id="text_42">
      <!-- 100 -->
      <g transform="translate(210.530682 41.029402)scale(0.1 -0.1)">
       <use xlink:href="#DejaVuSans-49"/>
       <use x="63.623047" xlink:href="#DejaVuSans-48"/>
       <use x="127.246094" xlink:href="#DejaVuSans-48"/>
      </g>
     </g>
    </g>
    <g id="text_43">
     <!-- Frequency -->
     <g transform="translate(204.450994 79.602484)rotate(-90)scale(0.1 -0.1)">
      <use xlink:href="#DejaVuSans-70"/>
      <use x="57.410156" xlink:href="#DejaVuSans-114"/>
      <use x="98.492188" xlink:href="#DejaVuSans-101"/>
      <use x="160.015625" xlink:href="#DejaVuSans-113"/>
      <use x="223.492188" xlink:href="#DejaVuSans-117"/>
      <use x="286.871094" xlink:href="#DejaVuSans-101"/>
      <use x="348.394531" xlink:href="#DejaVuSans-110"/>
      <use x="411.773438" xlink:href="#DejaVuSans-99"/>
      <use x="466.753906" xlink:href="#DejaVuSans-121"/>
     </g>
    </g>
   </g>
   <g id="line2d_55">
    <path clip-path="url(#p6fa46bf604)" d="M 365.873933 70.279513 
L 365.972476 70.250864 
L 366.071019 70.211914 
L 366.169563 70.159896 
L 366.268106 70.091665 
L 366.36665 70.003788 
L 366.465193 69.892688 
L 366.563736 69.754854 
L 366.66228 69.587112 
L 366.760823 69.386958 
L 366.859366 69.15292 
L 366.95791 68.884934 
L 367.056453 68.584688 
L 367.154996 68.255901 
L 367.25354 67.90448 
L 367.352083 67.538525 
L 367.450627 67.168155 
L 367.54917 66.805127 
L 367.647713 66.462274 
L 367.746257 66.152785 
L 367.8448 65.889379 
L 367.943343 65.683442 
L 368.041887 65.544216 
L 368.14043 65.478109 
L 368.238973 65.48821 
L 368.337517 65.574043 
L 368.43606 65.731612 
L 368.534604 65.953705 
L 368.633147 66.23044 
L 368.73169 66.549997 
L 368.830234 66.899452 
L 368.928777 67.26563 
L 369.02732 67.635919 
L 369.125864 67.998945 
L 369.224407 68.345095 
L 369.32295 68.666837 
L 369.421494 68.958849 
L 369.520037 69.217968 
L 369.618581 69.442999 
L 369.717124 69.634413 
L 369.815667 69.79399 
L 369.914211 69.924446 
L 370.012754 70.029073 
L 370.111297 70.111423 
L 370.209841 70.175055 
L 370.308384 70.223336 
L 370.406927 70.259316 
L 370.505471 70.285658 
L 370.604014 70.304606 
L 370.702558 70.318001 
" style="fill:none;stroke:#1f77b4;stroke-linecap:square;stroke-width:1.5;"/>
   </g>
   <g id="line2d_56">
    <path clip-path="url(#p6fa46bf604)" d="M 243.535537 70.326892 
L 243.551292 70.313668 
L 243.567047 70.292155 
L 243.582801 70.25789 
L 243.598556 70.204466 
L 243.614311 70.122939 
L 243.630066 70.001188 
L 243.64582 69.823287 
L 243.661575 69.568995 
L 243.67733 69.2135 
L 243.693085 68.727579 
L 243.708839 68.078358 
L 243.724594 67.230833 
L 243.740349 66.150261 
L 243.756104 64.80544 
L 243.771858 63.172759 
L 243.787613 61.240732 
L 243.803368 59.014562 
L 243.819123 56.520149 
L 243.834877 53.806858 
L 243.850632 50.948396 
L 243.866387 48.041263 
L 243.882142 45.200519 
L 243.897896 42.552931 
L 243.913651 40.227956 
L 243.929406 38.347423 
L 243.945161 37.015011 
L 243.960915 36.306799 
L 243.97667 36.264075 
L 243.992425 36.889348 
L 244.00818 38.146104 
L 244.023934 39.96234 
L 244.039689 42.237391 
L 244.055444 44.85116 
L 244.071198 47.674567 
L 244.086953 50.579971 
L 244.102708 53.450393 
L 244.118463 56.186687 
L 244.134217 58.712115 
L 244.149972 60.974225 
L 244.165727 62.94426 
L 244.181482 64.614592 
L 244.197236 65.994839 
L 244.212991 67.107328 
L 244.228746 67.982538 
L 244.244501 68.654961 
L 244.260255 69.15972 
L 244.27601 69.53006 
L 244.291765 69.795723 
L 244.30752 69.982102 
" style="fill:none;stroke:#ff7f0e;stroke-linecap:square;stroke-width:1.5;"/>
   </g>
   <g id="line2d_57">
    <path clip-path="url(#p6fa46bf604)" d="M 381.882645 70.34558 
L 381.882645 65.478109 
" style="fill:none;stroke:#ff0000;stroke-linecap:square;stroke-width:1.5;"/>
   </g>
   <g id="line2d_58">
    <path clip-path="url(#p6fa46bf604)" d="M 246.053759 70.34558 
L 246.053759 36.264075 
" style="fill:none;stroke:#ff0000;stroke-linecap:square;stroke-width:1.5;"/>
   </g>
   <g id="patch_28">
    <path d="M 236.618182 72.049655 
L 236.618182 34.56 
" style="fill:none;stroke:#000000;stroke-linecap:square;stroke-linejoin:miter;stroke-width:0.8;"/>
   </g>
   <g id="patch_29">
    <path d="M 388.8 72.049655 
L 388.8 34.56 
" style="fill:none;stroke:#000000;stroke-linecap:square;stroke-linejoin:miter;stroke-width:0.8;"/>
   </g>
   <g id="patch_30">
    <path d="M 236.618182 72.049655 
L 388.8 72.049655 
" style="fill:none;stroke:#000000;stroke-linecap:square;stroke-linejoin:miter;stroke-width:0.8;"/>
   </g>
   <g id="patch_31">
    <path d="M 236.618182 34.56 
L 388.8 34.56 
" style="fill:none;stroke:#000000;stroke-linecap:square;stroke-linejoin:miter;stroke-width:0.8;"/>
   </g>
   <g id="text_44">
    <!-- sigma0 -->
    <g transform="translate(290.768778 28.56)scale(0.12 -0.12)">
     <use xlink:href="#DejaVuSans-115"/>
     <use x="52.099609" xlink:href="#DejaVuSans-105"/>
     <use x="79.882812" xlink:href="#DejaVuSans-103"/>
     <use x="143.359375" xlink:href="#DejaVuSans-109"/>
     <use x="240.771484" xlink:href="#DejaVuSans-97"/>
     <use x="302.050781" xlink:href="#DejaVuSans-48"/>
    </g>
   </g>
  </g>
  <g id="axes_7">
   <g id="patch_32">
    <path d="M 236.618182 117.037241 
L 388.8 117.037241 
L 388.8 79.547586 
L 236.618182 79.547586 
z
" style="fill:#ffffff;"/>
   </g>
   <g id="matplotlib.axis_13">
    <g id="xtick_21">
     <g id="line2d_59">
      <g>
       <use style="stroke:#000000;stroke-width:0.8;" x="245.002819" xlink:href="#m202afe0062" y="117.037241"/>
      </g>
     </g>
     <g id="text_45">
      <!-- 2.5 -->
      <g transform="translate(237.051256 131.635679)scale(0.1 -0.1)">
       <use xlink:href="#DejaVuSans-50"/>
       <use x="63.623047" xlink:href="#DejaVuSans-46"/>
       <use x="95.410156" xlink:href="#DejaVuSans-53"/>
      </g>
     </g>
    </g>
    <g id="xtick_22">
     <g id="line2d_60">
      <g>
       <use style="stroke:#000000;stroke-width:0.8;" x="279.711747" xlink:href="#m202afe0062" y="117.037241"/>
      </g>
     </g>
     <g id="text_46">
      <!-- 5.0 -->
      <g transform="translate(271.760184 131.635679)scale(0.1 -0.1)">
       <use xlink:href="#DejaVuSans-53"/>
       <use x="63.623047" xlink:href="#DejaVuSans-46"/>
       <use x="95.410156" xlink:href="#DejaVuSans-48"/>
      </g>
     </g>
    </g>
    <g id="xtick_23">
     <g id="line2d_61">
      <g>
       <use style="stroke:#000000;stroke-width:0.8;" x="314.420675" xlink:href="#m202afe0062" y="117.037241"/>
      </g>
     </g>
     <g id="text_47">
      <!-- 7.5 -->
      <g transform="translate(306.469112 131.635679)scale(0.1 -0.1)">
       <use xlink:href="#DejaVuSans-55"/>
       <use x="63.623047" xlink:href="#DejaVuSans-46"/>
       <use x="95.410156" xlink:href="#DejaVuSans-53"/>
      </g>
     </g>
    </g>
    <g id="xtick_24">
     <g id="line2d_62">
      <g>
       <use style="stroke:#000000;stroke-width:0.8;" x="349.129602" xlink:href="#m202afe0062" y="117.037241"/>
      </g>
     </g>
     <g id="text_48">
      <!-- 10.0 -->
      <g transform="translate(337.99679 131.635679)scale(0.1 -0.1)">
       <use xlink:href="#DejaVuSans-49"/>
       <use x="63.623047" xlink:href="#DejaVuSans-48"/>
       <use x="127.246094" xlink:href="#DejaVuSans-46"/>
       <use x="159.033203" xlink:href="#DejaVuSans-48"/>
      </g>
     </g>
    </g>
    <g id="xtick_25">
     <g id="line2d_63">
      <g>
       <use style="stroke:#000000;stroke-width:0.8;" x="383.83853" xlink:href="#m202afe0062" y="117.037241"/>
      </g>
     </g>
     <g id="text_49">
      <!-- 12.5 -->
      <g transform="translate(372.705718 131.635679)scale(0.1 -0.1)">
       <use xlink:href="#DejaVuSans-49"/>
       <use x="63.623047" xlink:href="#DejaVuSans-50"/>
       <use x="127.246094" xlink:href="#DejaVuSans-46"/>
       <use x="159.033203" xlink:href="#DejaVuSans-53"/>
      </g>
     </g>
    </g>
   </g>
   <g id="matplotlib.axis_14">
    <g id="ytick_13">
     <g id="line2d_64">
      <g>
       <use style="stroke:#000000;stroke-width:0.8;" x="236.618182" xlink:href="#mb78f871172" y="115.333166"/>
      </g>
     </g>
     <g id="text_50">
      <!-- 0 -->
      <g transform="translate(223.255682 119.132385)scale(0.1 -0.1)">
       <use xlink:href="#DejaVuSans-48"/>
      </g>
     </g>
    </g>
    <g id="ytick_14">
     <g id="line2d_65">
      <g>
       <use style="stroke:#000000;stroke-width:0.8;" x="236.618182" xlink:href="#mb78f871172" y="83.814774"/>
      </g>
     </g>
     <g id="text_51">
      <!-- 25 -->
      <g transform="translate(216.893182 87.613993)scale(0.1 -0.1)">
       <use xlink:href="#DejaVuSans-50"/>
       <use x="63.623047" xlink:href="#DejaVuSans-53"/>
      </g>
     </g>
    </g>
    <g id="text_52">
     <!-- Frequency -->
     <g transform="translate(210.813494 124.59007)rotate(-90)scale(0.1 -0.1)">
      <use xlink:href="#DejaVuSans-70"/>
      <use x="57.410156" xlink:href="#DejaVuSans-114"/>
      <use x="98.492188" xlink:href="#DejaVuSans-101"/>
      <use x="160.015625" xlink:href="#DejaVuSans-113"/>
      <use x="223.492188" xlink:href="#DejaVuSans-117"/>
      <use x="286.871094" xlink:href="#DejaVuSans-101"/>
      <use x="348.394531" xlink:href="#DejaVuSans-110"/>
      <use x="411.773438" xlink:href="#DejaVuSans-99"/>
      <use x="466.753906" xlink:href="#DejaVuSans-121"/>
     </g>
    </g>
   </g>
   <g id="line2d_66">
    <path clip-path="url(#p1e773faa8f)" d="M 377.754498 115.24476 
L 377.838746 115.197629 
L 377.922994 115.1294 
L 378.007241 115.032768 
L 378.091489 114.8989 
L 378.175737 114.717554 
L 378.259985 114.477405 
L 378.344233 114.16665 
L 378.428481 113.773892 
L 378.512729 113.289325 
L 378.596977 112.706136 
L 378.681225 112.022036 
L 378.765473 111.240741 
L 378.84972 110.373203 
L 378.933968 109.438362 
L 379.018216 108.463217 
L 379.102464 107.482059 
L 379.186712 106.53481 
L 379.27096 105.664526 
L 379.355208 104.914251 
L 379.439456 104.323534 
L 379.523704 103.924985 
L 379.607951 103.741304 
L 379.692199 103.783133 
L 379.776447 104.048038 
L 379.860695 104.520744 
L 379.944943 105.174593 
L 380.029191 105.974031 
L 380.113439 106.87781 
L 380.197687 107.842484 
L 380.281935 108.825818 
L 380.366183 109.789719 
L 380.45043 110.70244 
L 380.534678 111.539916 
L 380.618926 112.286204 
L 380.703174 112.93314 
L 380.787422 113.479387 
L 380.87167 113.929081 
L 380.955918 114.290316 
L 381.040166 114.573638 
L 381.124414 114.790717 
L 381.208661 114.953268 
L 381.292909 115.07227 
L 381.377157 115.15747 
L 381.461405 115.217141 
L 381.545653 115.258033 
L 381.629901 115.285456 
L 381.714149 115.303458 
L 381.798397 115.315026 
L 381.882645 115.322305 
" style="fill:none;stroke:#1f77b4;stroke-linecap:square;stroke-width:1.5;"/>
   </g>
   <g id="line2d_67">
    <path clip-path="url(#p1e773faa8f)" d="M 243.535537 114.990167 
L 243.562187 114.828459 
L 243.588837 114.602985 
L 243.615487 114.294523 
L 243.642137 113.880565 
L 243.668787 113.335739 
L 243.695438 112.632692 
L 243.722088 111.743504 
L 243.748738 110.641667 
L 243.775388 109.304598 
L 243.802038 107.716567 
L 243.828688 105.871828 
L 243.855338 103.777673 
L 243.881988 101.457019 
L 243.908638 98.950154 
L 243.935288 96.315243 
L 243.961938 93.627311 
L 243.988588 90.975528 
L 244.015238 88.458819 
L 244.041888 86.180039 
L 244.068538 84.239148 
L 244.095188 82.726003 
L 244.121838 81.71348 
L 244.148488 81.251661 
L 244.175139 81.36373 
L 244.201789 82.04404 
L 244.228439 83.25859 
L 244.255089 84.947839 
L 244.281739 87.03154 
L 244.308389 89.415056 
L 244.335039 91.99645 
L 244.361689 94.673627 
L 244.388339 97.350835 
L 244.414989 99.943974 
L 244.441639 102.384349 
L 244.468289 104.620714 
L 244.494939 106.619676 
L 244.521589 108.364658 
L 244.548239 109.853778 
L 244.574889 111.097042 
L 244.601539 112.113211 
L 244.628189 112.926724 
L 244.65484 113.564909 
L 244.68149 114.055669 
L 244.70814 114.425724 
L 244.73479 114.699409 
L 244.76144 114.897985 
L 244.78809 115.039359 
L 244.81474 115.138137 
L 244.84139 115.20588 
" style="fill:none;stroke:#ff7f0e;stroke-linecap:square;stroke-width:1.5;"/>
   </g>
   <g id="line2d_68">
    <path clip-path="url(#p1e773faa8f)" d="M 380.508913 115.333166 
L 380.508913 103.741304 
" style="fill:none;stroke:#ff0000;stroke-linecap:square;stroke-width:1.5;"/>
   </g>
   <g id="line2d_69">
    <path clip-path="url(#p1e773faa8f)" d="M 248.233976 115.333166 
L 248.233976 81.251661 
" style="fill:none;stroke:#ff0000;stroke-linecap:square;stroke-width:1.5;"/>
   </g>
   <g id="patch_33">
    <path d="M 236.618182 117.037241 
L 236.618182 79.547586 
" style="fill:none;stroke:#000000;stroke-linecap:square;stroke-linejoin:miter;stroke-width:0.8;"/>
   </g>
   <g id="patch_34">
    <path d="M 388.8 117.037241 
L 388.8 79.547586 
" style="fill:none;stroke:#000000;stroke-linecap:square;stroke-linejoin:miter;stroke-width:0.8;"/>
   </g>
   <g id="patch_35">
    <path d="M 236.618182 117.037241 
L 388.8 117.037241 
" style="fill:none;stroke:#000000;stroke-linecap:square;stroke-linejoin:miter;stroke-width:0.8;"/>
   </g>
   <g id="patch_36">
    <path d="M 236.618182 79.547586 
L 388.8 79.547586 
" style="fill:none;stroke:#000000;stroke-linecap:square;stroke-linejoin:miter;stroke-width:0.8;"/>
   </g>
   <g id="text_53">
    <!-- sigma2 -->
    <g transform="translate(290.768778 73.547586)scale(0.12 -0.12)">
     <use xlink:href="#DejaVuSans-115"/>
     <use x="52.099609" xlink:href="#DejaVuSans-105"/>
     <use x="79.882812" xlink:href="#DejaVuSans-103"/>
     <use x="143.359375" xlink:href="#DejaVuSans-109"/>
     <use x="240.771484" xlink:href="#DejaVuSans-97"/>
     <use x="302.050781" xlink:href="#DejaVuSans-50"/>
    </g>
   </g>
  </g>
  <g id="axes_8">
   <g id="patch_37">
    <path d="M 236.618182 162.024828 
L 388.8 162.024828 
L 388.8 124.535172 
L 236.618182 124.535172 
z
" style="fill:#ffffff;"/>
   </g>
   <g id="matplotlib.axis_15">
    <g id="xtick_26">
     <g id="line2d_70">
      <g>
       <use style="stroke:#000000;stroke-width:0.8;" x="265.496892" xlink:href="#m202afe0062" y="162.024828"/>
      </g>
     </g>
     <g id="text_54">
      <!-- 0.02 -->
      <defs>
       <path d="M 10.59375 35.5 
L 73.1875 35.5 
L 73.1875 27.203125 
L 10.59375 27.203125 
z
" id="DejaVuSans-8722"/>
      </defs>
      <g transform="translate(250.174236 176.623265)scale(0.1 -0.1)">
       <use xlink:href="#DejaVuSans-8722"/>
       <use x="83.789062" xlink:href="#DejaVuSans-48"/>
       <use x="147.412109" xlink:href="#DejaVuSans-46"/>
       <use x="179.199219" xlink:href="#DejaVuSans-48"/>
       <use x="242.822266" xlink:href="#DejaVuSans-50"/>
      </g>
     </g>
    </g>
    <g id="xtick_27">
     <g id="line2d_71">
      <g>
       <use style="stroke:#000000;stroke-width:0.8;" x="296.664489" xlink:href="#m202afe0062" y="162.024828"/>
      </g>
     </g>
     <g id="text_55">
      <!-- 0.01 -->
      <g transform="translate(281.341833 176.623265)scale(0.1 -0.1)">
       <use xlink:href="#DejaVuSans-8722"/>
       <use x="83.789062" xlink:href="#DejaVuSans-48"/>
       <use x="147.412109" xlink:href="#DejaVuSans-46"/>
       <use x="179.199219" xlink:href="#DejaVuSans-48"/>
       <use x="242.822266" xlink:href="#DejaVuSans-49"/>
      </g>
     </g>
    </g>
    <g id="xtick_28">
     <g id="line2d_72">
      <g>
       <use style="stroke:#000000;stroke-width:0.8;" x="327.832087" xlink:href="#m202afe0062" y="162.024828"/>
      </g>
     </g>
     <g id="text_56">
      <!-- 0.00 -->
      <g transform="translate(316.699274 176.623265)scale(0.1 -0.1)">
       <use xlink:href="#DejaVuSans-48"/>
       <use x="63.623047" xlink:href="#DejaVuSans-46"/>
       <use x="95.410156" xlink:href="#DejaVuSans-48"/>
       <use x="159.033203" xlink:href="#DejaVuSans-48"/>
      </g>
     </g>
    </g>
    <g id="xtick_29">
     <g id="line2d_73">
      <g>
       <use style="stroke:#000000;stroke-width:0.8;" x="358.999684" xlink:href="#m202afe0062" y="162.024828"/>
      </g>
     </g>
     <g id="text_57">
      <!-- 0.01 -->
      <g transform="translate(347.866872 176.623265)scale(0.1 -0.1)">
       <use xlink:href="#DejaVuSans-48"/>
       <use x="63.623047" xlink:href="#DejaVuSans-46"/>
       <use x="95.410156" xlink:href="#DejaVuSans-48"/>
       <use x="159.033203" xlink:href="#DejaVuSans-49"/>
      </g>
     </g>
    </g>
   </g>
   <g id="matplotlib.axis_16">
    <g id="ytick_15">
     <g id="line2d_74">
      <g>
       <use style="stroke:#000000;stroke-width:0.8;" x="236.618182" xlink:href="#mb78f871172" y="160.320752"/>
      </g>
     </g>
     <g id="text_58">
      <!-- 0 -->
      <g transform="translate(223.255682 164.119971)scale(0.1 -0.1)">
       <use xlink:href="#DejaVuSans-48"/>
      </g>
     </g>
    </g>
    <g id="ytick_16">
     <g id="line2d_75">
      <g>
       <use style="stroke:#000000;stroke-width:0.8;" x="236.618182" xlink:href="#mb78f871172" y="127.537094"/>
      </g>
     </g>
     <g id="text_59">
      <!-- 50 -->
      <g transform="translate(216.893182 131.336312)scale(0.1 -0.1)">
       <use xlink:href="#DejaVuSans-53"/>
       <use x="63.623047" xlink:href="#DejaVuSans-48"/>
      </g>
     </g>
    </g>
    <g id="text_60">
     <!-- Frequency -->
     <g transform="translate(210.813494 169.577656)rotate(-90)scale(0.1 -0.1)">
      <use xlink:href="#DejaVuSans-70"/>
      <use x="57.410156" xlink:href="#DejaVuSans-114"/>
      <use x="98.492188" xlink:href="#DejaVuSans-101"/>
      <use x="160.015625" xlink:href="#DejaVuSans-113"/>
      <use x="223.492188" xlink:href="#DejaVuSans-117"/>
      <use x="286.871094" xlink:href="#DejaVuSans-101"/>
      <use x="348.394531" xlink:href="#DejaVuSans-110"/>
      <use x="411.773438" xlink:href="#DejaVuSans-99"/>
      <use x="466.753906" xlink:href="#DejaVuSans-121"/>
     </g>
    </g>
   </g>
   <g id="line2d_76">
    <path clip-path="url(#pb9707562a3)" d="M 243.535537 159.789681 
L 246.358948 159.579143 
L 249.182358 159.299495 
L 252.005768 158.933892 
L 254.829179 158.463511 
L 257.652589 157.868068 
L 260.475999 157.12662 
L 263.29941 156.218694 
L 266.12282 155.125716 
L 268.94623 153.832718 
L 271.769641 152.330224 
L 274.593051 150.616196 
L 277.416461 148.697874 
L 280.239872 146.593314 
L 283.063282 144.332422 
L 285.886693 141.957292 
L 288.710103 139.52169 
L 291.533513 137.089597 
L 294.356924 134.732793 
L 297.180334 132.527568 
L 300.003744 130.550756 
L 302.827155 128.875357 
L 305.650565 127.566088 
L 308.473975 126.675247 
L 311.297386 126.239248 
L 314.120796 126.276149 
L 316.944206 126.784417 
L 319.767617 127.743028 
L 322.591027 129.112914 
L 325.414438 130.839601 
L 328.237848 132.856802 
L 331.061258 135.090628 
L 333.884669 137.46405 
L 336.708079 139.901231 
L 339.531489 142.331407 
L 342.3549 144.692048 
L 345.17831 146.931128 
L 348.00172 149.008434 
L 350.825131 150.895941 
L 353.648541 152.577355 
L 356.471951 154.046988 
L 359.295362 155.308157 
L 362.118772 156.371318 
L 364.942182 157.252119 
L 367.765593 157.969534 
L 370.589003 158.544197 
L 373.412414 158.997014 
L 376.235824 159.348087 
L 379.059234 159.615958 
L 381.882645 159.817136 
" style="fill:none;stroke:#1f77b4;stroke-linecap:square;stroke-width:1.5;"/>
   </g>
   <g id="line2d_77">
    <path clip-path="url(#pb9707562a3)" d="M 366.959556 160.320752 
L 366.959556 126.239248 
" style="fill:none;stroke:#ff0000;stroke-linecap:square;stroke-width:1.5;"/>
   </g>
   <g id="patch_38">
    <path d="M 236.618182 162.024828 
L 236.618182 124.535172 
" style="fill:none;stroke:#000000;stroke-linecap:square;stroke-linejoin:miter;stroke-width:0.8;"/>
   </g>
   <g id="patch_39">
    <path d="M 388.8 162.024828 
L 388.8 124.535172 
" style="fill:none;stroke:#000000;stroke-linecap:square;stroke-linejoin:miter;stroke-width:0.8;"/>
   </g>
   <g id="patch_40">
    <path d="M 236.618182 162.024828 
L 388.8 162.024828 
" style="fill:none;stroke:#000000;stroke-linecap:square;stroke-linejoin:miter;stroke-width:0.8;"/>
   </g>
   <g id="patch_41">
    <path d="M 236.618182 124.535172 
L 388.8 124.535172 
" style="fill:none;stroke:#000000;stroke-linecap:square;stroke-linejoin:miter;stroke-width:0.8;"/>
   </g>
   <g id="text_61">
    <!-- corr1 -->
    <defs>
     <path d="M 30.609375 48.390625 
Q 23.390625 48.390625 19.1875 42.75 
Q 14.984375 37.109375 14.984375 27.296875 
Q 14.984375 17.484375 19.15625 11.84375 
Q 23.34375 6.203125 30.609375 6.203125 
Q 37.796875 6.203125 41.984375 11.859375 
Q 46.1875 17.53125 46.1875 27.296875 
Q 46.1875 37.015625 41.984375 42.703125 
Q 37.796875 48.390625 30.609375 48.390625 
z
M 30.609375 56 
Q 42.328125 56 49.015625 48.375 
Q 55.71875 40.765625 55.71875 27.296875 
Q 55.71875 13.875 49.015625 6.21875 
Q 42.328125 -1.421875 30.609375 -1.421875 
Q 18.84375 -1.421875 12.171875 6.21875 
Q 5.515625 13.875 5.515625 27.296875 
Q 5.515625 40.765625 12.171875 48.375 
Q 18.84375 56 30.609375 56 
z
" id="DejaVuSans-111"/>
    </defs>
    <g transform="translate(296.989091 118.535172)scale(0.12 -0.12)">
     <use xlink:href="#DejaVuSans-99"/>
     <use x="54.980469" xlink:href="#DejaVuSans-111"/>
     <use x="116.162109" xlink:href="#DejaVuSans-114"/>
     <use x="157.259766" xlink:href="#DejaVuSans-114"/>
     <use x="198.373047" xlink:href="#DejaVuSans-49"/>
    </g>
   </g>
  </g>
  <g id="axes_9">
   <g id="patch_42">
    <path d="M 236.618182 207.012414 
L 388.8 207.012414 
L 388.8 169.522759 
L 236.618182 169.522759 
z
" style="fill:#ffffff;"/>
   </g>
   <g id="matplotlib.axis_17">
    <g id="xtick_30">
     <g id="line2d_78">
      <g>
       <use style="stroke:#000000;stroke-width:0.8;" x="242.3081" xlink:href="#m202afe0062" y="207.012414"/>
      </g>
     </g>
     <g id="text_62">
      <!-- 0.06 -->
      <defs>
       <path d="M 33.015625 40.375 
Q 26.375 40.375 22.484375 35.828125 
Q 18.609375 31.296875 18.609375 23.390625 
Q 18.609375 15.53125 22.484375 10.953125 
Q 26.375 6.390625 33.015625 6.390625 
Q 39.65625 6.390625 43.53125 10.953125 
Q 47.40625 15.53125 47.40625 23.390625 
Q 47.40625 31.296875 43.53125 35.828125 
Q 39.65625 40.375 33.015625 40.375 
z
M 52.59375 71.296875 
L 52.59375 62.3125 
Q 48.875 64.0625 45.09375 64.984375 
Q 41.3125 65.921875 37.59375 65.921875 
Q 27.828125 65.921875 22.671875 59.328125 
Q 17.53125 52.734375 16.796875 39.40625 
Q 19.671875 43.65625 24.015625 45.921875 
Q 28.375 48.1875 33.59375 48.1875 
Q 44.578125 48.1875 50.953125 41.515625 
Q 57.328125 34.859375 57.328125 23.390625 
Q 57.328125 12.15625 50.6875 5.359375 
Q 44.046875 -1.421875 33.015625 -1.421875 
Q 20.359375 -1.421875 13.671875 8.265625 
Q 6.984375 17.96875 6.984375 36.375 
Q 6.984375 53.65625 15.1875 63.9375 
Q 23.390625 74.21875 37.203125 74.21875 
Q 40.921875 74.21875 44.703125 73.484375 
Q 48.484375 72.75 52.59375 71.296875 
z
" id="DejaVuSans-54"/>
      </defs>
      <g transform="translate(231.175287 221.610851)scale(0.1 -0.1)">
       <use xlink:href="#DejaVuSans-48"/>
       <use x="63.623047" xlink:href="#DejaVuSans-46"/>
       <use x="95.410156" xlink:href="#DejaVuSans-48"/>
       <use x="159.033203" xlink:href="#DejaVuSans-54"/>
      </g>
     </g>
    </g>
    <g id="xtick_31">
     <g id="line2d_79">
      <g>
       <use style="stroke:#000000;stroke-width:0.8;" x="274.263547" xlink:href="#m202afe0062" y="207.012414"/>
      </g>
     </g>
     <g id="text_63">
      <!-- 0.07 -->
      <g transform="translate(263.130735 221.610851)scale(0.1 -0.1)">
       <use xlink:href="#DejaVuSans-48"/>
       <use x="63.623047" xlink:href="#DejaVuSans-46"/>
       <use x="95.410156" xlink:href="#DejaVuSans-48"/>
       <use x="159.033203" xlink:href="#DejaVuSans-55"/>
      </g>
     </g>
    </g>
    <g id="xtick_32">
     <g id="line2d_80">
      <g>
       <use style="stroke:#000000;stroke-width:0.8;" x="306.218995" xlink:href="#m202afe0062" y="207.012414"/>
      </g>
     </g>
     <g id="text_64">
      <!-- 0.08 -->
      <defs>
       <path d="M 31.78125 34.625 
Q 24.75 34.625 20.71875 30.859375 
Q 16.703125 27.09375 16.703125 20.515625 
Q 16.703125 13.921875 20.71875 10.15625 
Q 24.75 6.390625 31.78125 6.390625 
Q 38.8125 6.390625 42.859375 10.171875 
Q 46.921875 13.96875 46.921875 20.515625 
Q 46.921875 27.09375 42.890625 30.859375 
Q 38.875 34.625 31.78125 34.625 
z
M 21.921875 38.8125 
Q 15.578125 40.375 12.03125 44.71875 
Q 8.5 49.078125 8.5 55.328125 
Q 8.5 64.0625 14.71875 69.140625 
Q 20.953125 74.21875 31.78125 74.21875 
Q 42.671875 74.21875 48.875 69.140625 
Q 55.078125 64.0625 55.078125 55.328125 
Q 55.078125 49.078125 51.53125 44.71875 
Q 48 40.375 41.703125 38.8125 
Q 48.828125 37.15625 52.796875 32.3125 
Q 56.78125 27.484375 56.78125 20.515625 
Q 56.78125 9.90625 50.3125 4.234375 
Q 43.84375 -1.421875 31.78125 -1.421875 
Q 19.734375 -1.421875 13.25 4.234375 
Q 6.78125 9.90625 6.78125 20.515625 
Q 6.78125 27.484375 10.78125 32.3125 
Q 14.796875 37.15625 21.921875 38.8125 
z
M 18.3125 54.390625 
Q 18.3125 48.734375 21.84375 45.5625 
Q 25.390625 42.390625 31.78125 42.390625 
Q 38.140625 42.390625 41.71875 45.5625 
Q 45.3125 48.734375 45.3125 54.390625 
Q 45.3125 60.0625 41.71875 63.234375 
Q 38.140625 66.40625 31.78125 66.40625 
Q 25.390625 66.40625 21.84375 63.234375 
Q 18.3125 60.0625 18.3125 54.390625 
z
" id="DejaVuSans-56"/>
      </defs>
      <g transform="translate(295.086183 221.610851)scale(0.1 -0.1)">
       <use xlink:href="#DejaVuSans-48"/>
       <use x="63.623047" xlink:href="#DejaVuSans-46"/>
       <use x="95.410156" xlink:href="#DejaVuSans-48"/>
       <use x="159.033203" xlink:href="#DejaVuSans-56"/>
      </g>
     </g>
    </g>
    <g id="xtick_33">
     <g id="line2d_81">
      <g>
       <use style="stroke:#000000;stroke-width:0.8;" x="338.174443" xlink:href="#m202afe0062" y="207.012414"/>
      </g>
     </g>
     <g id="text_65">
      <!-- 0.09 -->
      <defs>
       <path d="M 10.984375 1.515625 
L 10.984375 10.5 
Q 14.703125 8.734375 18.5 7.8125 
Q 22.3125 6.890625 25.984375 6.890625 
Q 35.75 6.890625 40.890625 13.453125 
Q 46.046875 20.015625 46.78125 33.40625 
Q 43.953125 29.203125 39.59375 26.953125 
Q 35.25 24.703125 29.984375 24.703125 
Q 19.046875 24.703125 12.671875 31.3125 
Q 6.296875 37.9375 6.296875 49.421875 
Q 6.296875 60.640625 12.9375 67.421875 
Q 19.578125 74.21875 30.609375 74.21875 
Q 43.265625 74.21875 49.921875 64.515625 
Q 56.59375 54.828125 56.59375 36.375 
Q 56.59375 19.140625 48.40625 8.859375 
Q 40.234375 -1.421875 26.421875 -1.421875 
Q 22.703125 -1.421875 18.890625 -0.6875 
Q 15.09375 0.046875 10.984375 1.515625 
z
M 30.609375 32.421875 
Q 37.25 32.421875 41.125 36.953125 
Q 45.015625 41.5 45.015625 49.421875 
Q 45.015625 57.28125 41.125 61.84375 
Q 37.25 66.40625 30.609375 66.40625 
Q 23.96875 66.40625 20.09375 61.84375 
Q 16.21875 57.28125 16.21875 49.421875 
Q 16.21875 41.5 20.09375 36.953125 
Q 23.96875 32.421875 30.609375 32.421875 
z
" id="DejaVuSans-57"/>
      </defs>
      <g transform="translate(327.04163 221.610851)scale(0.1 -0.1)">
       <use xlink:href="#DejaVuSans-48"/>
       <use x="63.623047" xlink:href="#DejaVuSans-46"/>
       <use x="95.410156" xlink:href="#DejaVuSans-48"/>
       <use x="159.033203" xlink:href="#DejaVuSans-57"/>
      </g>
     </g>
    </g>
    <g id="xtick_34">
     <g id="line2d_82">
      <g>
       <use style="stroke:#000000;stroke-width:0.8;" x="370.12989" xlink:href="#m202afe0062" y="207.012414"/>
      </g>
     </g>
     <g id="text_66">
      <!-- 0.10 -->
      <g transform="translate(358.997078 221.610851)scale(0.1 -0.1)">
       <use xlink:href="#DejaVuSans-48"/>
       <use x="63.623047" xlink:href="#DejaVuSans-46"/>
       <use x="95.410156" xlink:href="#DejaVuSans-49"/>
       <use x="159.033203" xlink:href="#DejaVuSans-48"/>
      </g>
     </g>
    </g>
   </g>
   <g id="matplotlib.axis_18">
    <g id="ytick_17">
     <g id="line2d_83">
      <g>
       <use style="stroke:#000000;stroke-width:0.8;" x="236.618182" xlink:href="#mb78f871172" y="205.308339"/>
      </g>
     </g>
     <g id="text_67">
      <!-- 0 -->
      <g transform="translate(223.255682 209.107557)scale(0.1 -0.1)">
       <use xlink:href="#DejaVuSans-48"/>
      </g>
     </g>
    </g>
    <g id="ytick_18">
     <g id="line2d_84">
      <g>
       <use style="stroke:#000000;stroke-width:0.8;" x="236.618182" xlink:href="#mb78f871172" y="179.423714"/>
      </g>
     </g>
     <g id="text_68">
      <!-- 50 -->
      <g transform="translate(216.893182 183.222933)scale(0.1 -0.1)">
       <use xlink:href="#DejaVuSans-53"/>
       <use x="63.623047" xlink:href="#DejaVuSans-48"/>
      </g>
     </g>
    </g>
    <g id="text_69">
     <!-- Frequency -->
     <g transform="translate(210.813494 214.565242)rotate(-90)scale(0.1 -0.1)">
      <use xlink:href="#DejaVuSans-70"/>
      <use x="57.410156" xlink:href="#DejaVuSans-114"/>
      <use x="98.492188" xlink:href="#DejaVuSans-101"/>
      <use x="160.015625" xlink:href="#DejaVuSans-113"/>
      <use x="223.492188" xlink:href="#DejaVuSans-117"/>
      <use x="286.871094" xlink:href="#DejaVuSans-101"/>
      <use x="348.394531" xlink:href="#DejaVuSans-110"/>
      <use x="411.773438" xlink:href="#DejaVuSans-99"/>
      <use x="466.753906" xlink:href="#DejaVuSans-121"/>
     </g>
    </g>
   </g>
   <g id="line2d_85">
    <path clip-path="url(#p3c3bbeb529)" d="M 243.535537 205.161177 
L 246.358948 205.072589 
L 249.182358 204.938637 
L 252.005768 204.740804 
L 254.829179 204.455485 
L 257.652589 204.053759 
L 260.475999 203.501732 
L 263.29941 202.761683 
L 266.12282 201.794203 
L 268.94623 200.561459 
L 271.769641 199.031522 
L 274.593051 197.18355 
L 277.416461 195.013342 
L 280.239872 192.538606 
L 283.063282 189.803085 
L 285.886693 186.878674 
L 288.710103 183.864751 
L 291.533513 180.884218 
L 294.356924 178.076191 
L 297.180334 175.585771 
L 300.003744 173.551868 
L 302.827155 172.09446 
L 305.650565 171.302895 
L 308.473975 171.226834 
L 311.297386 171.871089 
L 314.120796 173.195122 
L 316.944206 175.117266 
L 319.767617 177.52306 
L 322.591027 180.276519 
L 325.414438 183.232787 
L 328.237848 186.250564 
L 331.061258 189.202836 
L 333.884669 191.984853 
L 336.708079 194.5188 
L 339.531489 196.755124 
L 342.3549 198.670948 
L 345.17831 200.266293 
L 348.00172 201.558973 
L 350.825131 202.579046 
L 353.648541 203.363498 
L 356.471951 203.951715 
L 359.295362 204.381986 
L 362.118772 204.689134 
L 364.942182 204.903171 
L 367.765593 205.048816 
L 370.589003 205.145612 
L 373.412414 205.208458 
L 376.235824 205.248325 
L 379.059234 205.27304 
L 381.882645 205.288015 
" style="fill:none;stroke:#1f77b4;stroke-linecap:square;stroke-width:1.5;"/>
   </g>
   <g id="line2d_86">
    <path clip-path="url(#p3c3bbeb529)" d="M 309.871917 205.308339 
L 309.871917 171.226834 
" style="fill:none;stroke:#ff0000;stroke-linecap:square;stroke-width:1.5;"/>
   </g>
   <g id="patch_43">
    <path d="M 236.618182 207.012414 
L 236.618182 169.522759 
" style="fill:none;stroke:#000000;stroke-linecap:square;stroke-linejoin:miter;stroke-width:0.8;"/>
   </g>
   <g id="patch_44">
    <path d="M 388.8 207.012414 
L 388.8 169.522759 
" style="fill:none;stroke:#000000;stroke-linecap:square;stroke-linejoin:miter;stroke-width:0.8;"/>
   </g>
   <g id="patch_45">
    <path d="M 236.618182 207.012414 
L 388.8 207.012414 
" style="fill:none;stroke:#000000;stroke-linecap:square;stroke-linejoin:miter;stroke-width:0.8;"/>
   </g>
   <g id="patch_46">
    <path d="M 236.618182 169.522759 
L 388.8 169.522759 
" style="fill:none;stroke:#000000;stroke-linecap:square;stroke-linejoin:miter;stroke-width:0.8;"/>
   </g>
   <g id="text_70">
    <!-- corr0 -->
    <g transform="translate(296.989091 163.522759)scale(0.12 -0.12)">
     <use xlink:href="#DejaVuSans-99"/>
     <use x="54.980469" xlink:href="#DejaVuSans-111"/>
     <use x="116.162109" xlink:href="#DejaVuSans-114"/>
     <use x="157.259766" xlink:href="#DejaVuSans-114"/>
     <use x="198.373047" xlink:href="#DejaVuSans-48"/>
    </g>
   </g>
  </g>
  <g id="axes_10">
   <g id="patch_47">
    <path d="M 236.618182 252 
L 388.8 252 
L 388.8 214.510345 
L 236.618182 214.510345 
z
" style="fill:#ffffff;"/>
   </g>
   <g id="matplotlib.axis_19">
    <g id="xtick_35">
     <g id="line2d_87">
      <g>
       <use style="stroke:#000000;stroke-width:0.8;" x="254.051054" xlink:href="#m202afe0062" y="252"/>
      </g>
     </g>
     <g id="text_71">
      <!-- 0.19 -->
      <g transform="translate(242.918242 266.598438)scale(0.1 -0.1)">
       <use xlink:href="#DejaVuSans-48"/>
       <use x="63.623047" xlink:href="#DejaVuSans-46"/>
       <use x="95.410156" xlink:href="#DejaVuSans-49"/>
       <use x="159.033203" xlink:href="#DejaVuSans-57"/>
      </g>
     </g>
    </g>
    <g id="xtick_36">
     <g id="line2d_88">
      <g>
       <use style="stroke:#000000;stroke-width:0.8;" x="299.319447" xlink:href="#m202afe0062" y="252"/>
      </g>
     </g>
     <g id="text_72">
      <!-- 0.20 -->
      <g transform="translate(288.186634 266.598438)scale(0.1 -0.1)">
       <use xlink:href="#DejaVuSans-48"/>
       <use x="63.623047" xlink:href="#DejaVuSans-46"/>
       <use x="95.410156" xlink:href="#DejaVuSans-50"/>
       <use x="159.033203" xlink:href="#DejaVuSans-48"/>
      </g>
     </g>
    </g>
    <g id="xtick_37">
     <g id="line2d_89">
      <g>
       <use style="stroke:#000000;stroke-width:0.8;" x="344.58784" xlink:href="#m202afe0062" y="252"/>
      </g>
     </g>
     <g id="text_73">
      <!-- 0.21 -->
      <g transform="translate(333.455027 266.598438)scale(0.1 -0.1)">
       <use xlink:href="#DejaVuSans-48"/>
       <use x="63.623047" xlink:href="#DejaVuSans-46"/>
       <use x="95.410156" xlink:href="#DejaVuSans-50"/>
       <use x="159.033203" xlink:href="#DejaVuSans-49"/>
      </g>
     </g>
    </g>
   </g>
   <g id="matplotlib.axis_20">
    <g id="ytick_19">
     <g id="line2d_90">
      <g>
       <use style="stroke:#000000;stroke-width:0.8;" x="236.618182" xlink:href="#mb78f871172" y="250.295925"/>
      </g>
     </g>
     <g id="text_74">
      <!-- 0 -->
      <g transform="translate(223.255682 254.095144)scale(0.1 -0.1)">
       <use xlink:href="#DejaVuSans-48"/>
      </g>
     </g>
    </g>
    <g id="ytick_20">
     <g id="line2d_91">
      <g>
       <use style="stroke:#000000;stroke-width:0.8;" x="236.618182" xlink:href="#mb78f871172" y="228.183014"/>
      </g>
     </g>
     <g id="text_75">
      <!-- 50 -->
      <g transform="translate(216.893182 231.982233)scale(0.1 -0.1)">
       <use xlink:href="#DejaVuSans-53"/>
       <use x="63.623047" xlink:href="#DejaVuSans-48"/>
      </g>
     </g>
    </g>
    <g id="text_76">
     <!-- Frequency -->
     <g transform="translate(210.813494 259.552829)rotate(-90)scale(0.1 -0.1)">
      <use xlink:href="#DejaVuSans-70"/>
      <use x="57.410156" xlink:href="#DejaVuSans-114"/>
      <use x="98.492188" xlink:href="#DejaVuSans-101"/>
      <use x="160.015625" xlink:href="#DejaVuSans-113"/>
      <use x="223.492188" xlink:href="#DejaVuSans-117"/>
      <use x="286.871094" xlink:href="#DejaVuSans-101"/>
      <use x="348.394531" xlink:href="#DejaVuSans-110"/>
      <use x="411.773438" xlink:href="#DejaVuSans-99"/>
      <use x="466.753906" xlink:href="#DejaVuSans-121"/>
     </g>
    </g>
   </g>
   <g id="line2d_92">
    <path clip-path="url(#p98ebd87b89)" d="M 243.535537 250.186488 
L 246.358948 250.132511 
L 249.182358 250.055424 
L 252.005768 249.947074 
L 254.829179 249.797199 
L 257.652589 249.593206 
L 260.475999 249.320039 
L 263.29941 248.960209 
L 266.12282 248.494041 
L 268.94623 247.900197 
L 271.769641 247.156529 
L 274.593051 246.241285 
L 277.416461 245.134658 
L 280.239872 243.820652 
L 283.063282 242.289149 
L 285.886693 240.538055 
L 288.710103 238.575316 
L 291.533513 236.420602 
L 294.356924 234.106412 
L 297.180334 231.678386 
L 300.003744 229.194657 
L 302.827155 226.724133 
L 305.650565 224.343711 
L 308.473975 222.134539 
L 311.297386 220.177559 
L 314.120796 218.548641 
L 316.944206 217.313732 
L 319.767617 216.524432 
L 322.591027 216.21442 
L 325.414438 216.397068 
L 328.237848 217.064488 
L 331.061258 218.188094 
L 333.884669 219.720634 
L 336.708079 221.599486 
L 339.531489 223.750896 
L 342.3549 226.094765 
L 345.17831 228.549547 
L 348.00172 231.036848 
L 350.825131 233.485381 
L 353.648541 235.834008 
L 356.471951 238.033743 
L 359.295362 240.048673 
L 362.118772 241.855879 
L 364.942182 243.444513 
L 367.765593 244.814253 
L 370.589003 245.973337 
L 373.412414 246.936442 
L 376.235824 247.722576 
L 379.059234 248.353148 
L 381.882645 248.850336 
" style="fill:none;stroke:#1f77b4;stroke-linecap:square;stroke-width:1.5;"/>
   </g>
   <g id="line2d_93">
    <path clip-path="url(#p98ebd87b89)" d="M 325.97047 250.295925 
L 325.97047 216.21442 
" style="fill:none;stroke:#ff0000;stroke-linecap:square;stroke-width:1.5;"/>
   </g>
   <g id="patch_48">
    <path d="M 236.618182 252 
L 236.618182 214.510345 
" style="fill:none;stroke:#000000;stroke-linecap:square;stroke-linejoin:miter;stroke-width:0.8;"/>
   </g>
   <g id="patch_49">
    <path d="M 388.8 252 
L 388.8 214.510345 
" style="fill:none;stroke:#000000;stroke-linecap:square;stroke-linejoin:miter;stroke-width:0.8;"/>
   </g>
   <g id="patch_50">
    <path d="M 236.618182 252 
L 388.8 252 
" style="fill:none;stroke:#000000;stroke-linecap:square;stroke-linejoin:miter;stroke-width:0.8;"/>
   </g>
   <g id="patch_51">
    <path d="M 236.618182 214.510345 
L 388.8 214.510345 
" style="fill:none;stroke:#000000;stroke-linecap:square;stroke-linejoin:miter;stroke-width:0.8;"/>
   </g>
   <g id="text_77">
    <!-- corr2 -->
    <g transform="translate(296.989091 208.510345)scale(0.12 -0.12)">
     <use xlink:href="#DejaVuSans-99"/>
     <use x="54.980469" xlink:href="#DejaVuSans-111"/>
     <use x="116.162109" xlink:href="#DejaVuSans-114"/>
     <use x="157.259766" xlink:href="#DejaVuSans-114"/>
     <use x="198.373047" xlink:href="#DejaVuSans-50"/>
    </g>
   </g>
  </g>
 </g>
 <defs>
  <clipPath id="p45341fc88c">
   <rect height="37.489655" width="152.181818" x="54" y="34.56"/>
  </clipPath>
  <clipPath id="p0ddb80ab13">
   <rect height="37.489655" width="152.181818" x="54" y="79.547586"/>
  </clipPath>
  <clipPath id="p204ae4bb26">
   <rect height="37.489655" width="152.181818" x="54" y="124.535172"/>
  </clipPath>
  <clipPath id="p38df3963aa">
   <rect height="37.489655" width="152.181818" x="54" y="169.522759"/>
  </clipPath>
  <clipPath id="p3ac3773341">
   <rect height="37.489655" width="152.181818" x="54" y="214.510345"/>
  </clipPath>
  <clipPath id="p6fa46bf604">
   <rect height="37.489655" width="152.181818" x="236.618182" y="34.56"/>
  </clipPath>
  <clipPath id="p1e773faa8f">
   <rect height="37.489655" width="152.181818" x="236.618182" y="79.547586"/>
  </clipPath>
  <clipPath id="pb9707562a3">
   <rect height="37.489655" width="152.181818" x="236.618182" y="124.535172"/>
  </clipPath>
  <clipPath id="p3c3bbeb529">
   <rect height="37.489655" width="152.181818" x="236.618182" y="169.522759"/>
  </clipPath>
  <clipPath id="p98ebd87b89">
   <rect height="37.489655" width="152.181818" x="236.618182" y="214.510345"/>
  </clipPath>
 </defs>
</svg>
