<?xml version="1.0" encoding="utf-8" standalone="no"?>
<!DOCTYPE svg PUBLIC "-//W3C//DTD SVG 1.1//EN"
  "http://www.w3.org/Graphics/SVG/1.1/DTD/svg11.dtd">
<!-- Created with matplotlib (https://matplotlib.org/) -->
<svg height="345.6pt" version="1.1" viewBox="0 0 460.8 345.6" width="460.8pt" xmlns="http://www.w3.org/2000/svg" xmlns:xlink="http://www.w3.org/1999/xlink">
 <defs>
  <style type="text/css">
*{stroke-linecap:butt;stroke-linejoin:round;}
  </style>
 </defs>
 <g id="figure_1">
  <g id="patch_1">
   <path d="M 0 345.6 
L 460.8 345.6 
L 460.8 0 
L 0 0 
z
" style="fill:#ffffff;"/>
  </g>
  <g id="axes_1">
   <g id="patch_2">
    <path d="M 57.6 307.584 
L 219.927273 307.584 
L 219.927273 41.472 
L 57.6 41.472 
z
" style="fill:#ffffff;"/>
   </g>
   <g id="patch_3">
    <path clip-path="url(#pc7f58117b4)" d="M 62.693018 307.584 
L 62.693018 286.530207 
L 68.074393 286.530207 
L 68.074393 240.847448 
L 73.455767 240.847448 
L 73.455767 137.961931 
L 78.837142 137.961931 
L 78.837142 168.946759 
L 84.218516 168.946759 
L 84.218516 170.138483 
L 89.599891 170.138483 
L 89.599891 127.236414 
L 94.981265 127.236414 
L 94.981265 115.716414 
L 100.36264 115.716414 
L 100.36264 54.144 
L 105.744015 54.144 
L 105.744015 107.771586 
L 111.125389 107.771586 
L 111.125389 152.262621 
L 116.506764 152.262621 
L 116.506764 141.139862 
L 121.888138 141.139862 
L 121.888138 172.521931 
L 127.269513 172.521931 
L 127.269513 163.385379 
L 132.650887 163.385379 
L 132.650887 181.658483 
L 138.032262 181.658483 
L 138.032262 206.287448 
L 143.413636 206.287448 
L 143.413636 198.342621 
L 148.795011 198.342621 
L 148.795011 199.931586 
L 154.176385 199.931586 
L 154.176385 212.64331 
L 159.55776 212.64331 
L 159.55776 228.135724 
L 164.939135 228.135724 
L 164.939135 239.258483 
L 170.320509 239.258483 
L 170.320509 248.395034 
L 175.701884 248.395034 
L 175.701884 220.588138 
L 181.083258 220.588138 
L 181.083258 247.20331 
L 186.464633 247.20331 
L 186.464633 269.448828 
L 191.846007 269.448828 
L 191.846007 272.626759 
L 197.227382 272.626759 
L 197.227382 263.490207 
L 202.608756 263.490207 
L 202.608756 265.476414 
L 207.990131 265.476414 
L 207.990131 270.24331 
L 213.371505 270.24331 
L 213.371505 273.421241 
L 218.75288 273.421241 
L 218.75288 282.160552 
L 224.134255 282.160552 
L 224.134255 307.584 
" style="fill:none;opacity:0.4;stroke:#1f77b4;stroke-linejoin:miter;stroke-width:3;"/>
   </g>
   <g id="patch_4">
    <path clip-path="url(#pc7f58117b4)" d="M -1 307.584 
L -0.100033 307.584 
L -0.100033 307.362466 
L 9.552007 307.362466 
L 9.552007 307.362466 
L 19.204047 307.362466 
L 19.204047 306.476332 
L 28.856086 306.476332 
L 28.856086 305.368664 
L 38.508126 305.368664 
L 38.508126 305.147131 
L 48.160165 305.147131 
L 48.160165 298.279589 
L 57.812205 298.279589 
L 57.812205 278.784634 
L 67.464245 278.784634 
L 67.464245 244.668461 
L 77.116284 244.668461 
L 77.116284 183.525192 
L 86.768324 183.525192 
L 86.768324 128.363328 
L 96.420363 128.363328 
L 96.420363 106.653037 
L 106.072403 106.653037 
L 106.072403 107.760705 
L 115.724443 107.760705 
L 115.724443 146.086015 
L 125.376482 146.086015 
L 125.376482 170.011643 
L 135.028522 170.011643 
L 135.028522 193.051136 
L 144.680562 193.051136 
L 144.680562 195.488005 
L 154.332601 195.488005 
L 154.332601 209.887688 
L 163.984641 209.887688 
L 163.984641 217.198297 
L 173.63668 217.198297 
L 173.63668 244.003861 
L 183.28872 244.003861 
L 183.28872 256.409741 
L 192.94076 256.409741 
L 192.94076 267.707954 
L 202.592799 267.707954 
L 202.592799 284.10144 
L 212.244839 284.10144 
L 212.244839 293.627384 
L 221.896879 293.627384 
L 221.896879 298.279589 
L 231.548918 298.279589 
L 231.548918 303.153328 
L 241.200958 303.153328 
L 241.200958 306.919399 
L 250.852997 306.919399 
L 250.852997 306.254798 
L 260.505037 306.254798 
L 260.505037 306.919399 
L 270.157077 306.919399 
L 270.157077 307.584 
" style="fill:none;opacity:0.4;stroke:#ff7f0e;stroke-linejoin:miter;stroke-width:3;"/>
   </g>
   <g id="matplotlib.axis_1">
    <g id="xtick_1">
     <g id="line2d_1">
      <defs>
       <path d="M 0 0 
L 0 3.5 
" id="m21f50fbabc" style="stroke:#000000;stroke-width:0.8;"/>
      </defs>
      <g>
       <use style="stroke:#000000;stroke-width:0.8;" x="77.890909" xlink:href="#m21f50fbabc" y="307.584"/>
      </g>
     </g>
     <g id="text_1">
      <!-- 10 -->
      <defs>
       <path d="M 12.40625 8.296875 
L 28.515625 8.296875 
L 28.515625 63.921875 
L 10.984375 60.40625 
L 10.984375 69.390625 
L 28.421875 72.90625 
L 38.28125 72.90625 
L 38.28125 8.296875 
L 54.390625 8.296875 
L 54.390625 0 
L 12.40625 0 
z
" id="DejaVuSans-49"/>
       <path d="M 31.78125 66.40625 
Q 24.171875 66.40625 20.328125 58.90625 
Q 16.5 51.421875 16.5 36.375 
Q 16.5 21.390625 20.328125 13.890625 
Q 24.171875 6.390625 31.78125 6.390625 
Q 39.453125 6.390625 43.28125 13.890625 
Q 47.125 21.390625 47.125 36.375 
Q 47.125 51.421875 43.28125 58.90625 
Q 39.453125 66.40625 31.78125 66.40625 
z
M 31.78125 74.21875 
Q 44.046875 74.21875 50.515625 64.515625 
Q 56.984375 54.828125 56.984375 36.375 
Q 56.984375 17.96875 50.515625 8.265625 
Q 44.046875 -1.421875 31.78125 -1.421875 
Q 19.53125 -1.421875 13.0625 8.265625 
Q 6.59375 17.96875 6.59375 36.375 
Q 6.59375 54.828125 13.0625 64.515625 
Q 19.53125 74.21875 31.78125 74.21875 
z
" id="DejaVuSans-48"/>
      </defs>
      <g transform="translate(71.528409 322.182437)scale(0.1 -0.1)">
       <use xlink:href="#DejaVuSans-49"/>
       <use x="63.623047" xlink:href="#DejaVuSans-48"/>
      </g>
     </g>
    </g>
    <g id="xtick_2">
     <g id="line2d_2">
      <g>
       <use style="stroke:#000000;stroke-width:0.8;" x="118.472727" xlink:href="#m21f50fbabc" y="307.584"/>
      </g>
     </g>
     <g id="text_2">
      <!-- 20 -->
      <defs>
       <path d="M 19.1875 8.296875 
L 53.609375 8.296875 
L 53.609375 0 
L 7.328125 0 
L 7.328125 8.296875 
Q 12.9375 14.109375 22.625 23.890625 
Q 32.328125 33.6875 34.8125 36.53125 
Q 39.546875 41.84375 41.421875 45.53125 
Q 43.3125 49.21875 43.3125 52.78125 
Q 43.3125 58.59375 39.234375 62.25 
Q 35.15625 65.921875 28.609375 65.921875 
Q 23.96875 65.921875 18.8125 64.3125 
Q 13.671875 62.703125 7.8125 59.421875 
L 7.8125 69.390625 
Q 13.765625 71.78125 18.9375 73 
Q 24.125 74.21875 28.421875 74.21875 
Q 39.75 74.21875 46.484375 68.546875 
Q 53.21875 62.890625 53.21875 53.421875 
Q 53.21875 48.921875 51.53125 44.890625 
Q 49.859375 40.875 45.40625 35.40625 
Q 44.1875 33.984375 37.640625 27.21875 
Q 31.109375 20.453125 19.1875 8.296875 
z
" id="DejaVuSans-50"/>
      </defs>
      <g transform="translate(112.110227 322.182437)scale(0.1 -0.1)">
       <use xlink:href="#DejaVuSans-50"/>
       <use x="63.623047" xlink:href="#DejaVuSans-48"/>
      </g>
     </g>
    </g>
    <g id="xtick_3">
     <g id="line2d_3">
      <g>
       <use style="stroke:#000000;stroke-width:0.8;" x="159.054545" xlink:href="#m21f50fbabc" y="307.584"/>
      </g>
     </g>
     <g id="text_3">
      <!-- 30 -->
      <defs>
       <path d="M 40.578125 39.3125 
Q 47.65625 37.796875 51.625 33 
Q 55.609375 28.21875 55.609375 21.1875 
Q 55.609375 10.40625 48.1875 4.484375 
Q 40.765625 -1.421875 27.09375 -1.421875 
Q 22.515625 -1.421875 17.65625 -0.515625 
Q 12.796875 0.390625 7.625 2.203125 
L 7.625 11.71875 
Q 11.71875 9.328125 16.59375 8.109375 
Q 21.484375 6.890625 26.8125 6.890625 
Q 36.078125 6.890625 40.9375 10.546875 
Q 45.796875 14.203125 45.796875 21.1875 
Q 45.796875 27.640625 41.28125 31.265625 
Q 36.765625 34.90625 28.71875 34.90625 
L 20.21875 34.90625 
L 20.21875 43.015625 
L 29.109375 43.015625 
Q 36.375 43.015625 40.234375 45.921875 
Q 44.09375 48.828125 44.09375 54.296875 
Q 44.09375 59.90625 40.109375 62.90625 
Q 36.140625 65.921875 28.71875 65.921875 
Q 24.65625 65.921875 20.015625 65.03125 
Q 15.375 64.15625 9.8125 62.3125 
L 9.8125 71.09375 
Q 15.4375 72.65625 20.34375 73.4375 
Q 25.25 74.21875 29.59375 74.21875 
Q 40.828125 74.21875 47.359375 69.109375 
Q 53.90625 64.015625 53.90625 55.328125 
Q 53.90625 49.265625 50.4375 45.09375 
Q 46.96875 40.921875 40.578125 39.3125 
z
" id="DejaVuSans-51"/>
      </defs>
      <g transform="translate(152.692045 322.182437)scale(0.1 -0.1)">
       <use xlink:href="#DejaVuSans-51"/>
       <use x="63.623047" xlink:href="#DejaVuSans-48"/>
      </g>
     </g>
    </g>
    <g id="xtick_4">
     <g id="line2d_4">
      <g>
       <use style="stroke:#000000;stroke-width:0.8;" x="199.636364" xlink:href="#m21f50fbabc" y="307.584"/>
      </g>
     </g>
     <g id="text_4">
      <!-- 40 -->
      <defs>
       <path d="M 37.796875 64.3125 
L 12.890625 25.390625 
L 37.796875 25.390625 
z
M 35.203125 72.90625 
L 47.609375 72.90625 
L 47.609375 25.390625 
L 58.015625 25.390625 
L 58.015625 17.1875 
L 47.609375 17.1875 
L 47.609375 0 
L 37.796875 0 
L 37.796875 17.1875 
L 4.890625 17.1875 
L 4.890625 26.703125 
z
" id="DejaVuSans-52"/>
      </defs>
      <g transform="translate(193.273864 322.182437)scale(0.1 -0.1)">
       <use xlink:href="#DejaVuSans-52"/>
       <use x="63.623047" xlink:href="#DejaVuSans-48"/>
      </g>
     </g>
    </g>
    <g id="text_5">
     <!-- x -->
     <defs>
      <path d="M 54.890625 54.6875 
L 35.109375 28.078125 
L 55.90625 0 
L 45.3125 0 
L 29.390625 21.484375 
L 13.484375 0 
L 2.875 0 
L 24.125 28.609375 
L 4.6875 54.6875 
L 15.28125 54.6875 
L 29.78125 35.203125 
L 44.28125 54.6875 
z
" id="DejaVuSans-120"/>
     </defs>
     <g transform="translate(135.804261 335.860562)scale(0.1 -0.1)">
      <use xlink:href="#DejaVuSans-120"/>
     </g>
    </g>
   </g>
   <g id="matplotlib.axis_2">
    <g id="ytick_1">
     <g id="line2d_5">
      <defs>
       <path d="M 0 0 
L -3.5 0 
" id="m19ecd8230b" style="stroke:#000000;stroke-width:0.8;"/>
      </defs>
      <g>
       <use style="stroke:#000000;stroke-width:0.8;" x="57.6" xlink:href="#m19ecd8230b" y="307.584"/>
      </g>
     </g>
     <g id="text_6">
      <!-- 0.00 -->
      <defs>
       <path d="M 10.6875 12.40625 
L 21 12.40625 
L 21 0 
L 10.6875 0 
z
" id="DejaVuSans-46"/>
      </defs>
      <g transform="translate(28.334375 311.383219)scale(0.1 -0.1)">
       <use xlink:href="#DejaVuSans-48"/>
       <use x="63.623047" xlink:href="#DejaVuSans-46"/>
       <use x="95.410156" xlink:href="#DejaVuSans-48"/>
       <use x="159.033203" xlink:href="#DejaVuSans-48"/>
      </g>
     </g>
    </g>
    <g id="ytick_2">
     <g id="line2d_6">
      <g>
       <use style="stroke:#000000;stroke-width:0.8;" x="57.6" xlink:href="#m19ecd8230b" y="266.348903"/>
      </g>
     </g>
     <g id="text_7">
      <!-- 0.01 -->
      <g transform="translate(28.334375 270.148122)scale(0.1 -0.1)">
       <use xlink:href="#DejaVuSans-48"/>
       <use x="63.623047" xlink:href="#DejaVuSans-46"/>
       <use x="95.410156" xlink:href="#DejaVuSans-48"/>
       <use x="159.033203" xlink:href="#DejaVuSans-49"/>
      </g>
     </g>
    </g>
    <g id="ytick_3">
     <g id="line2d_7">
      <g>
       <use style="stroke:#000000;stroke-width:0.8;" x="57.6" xlink:href="#m19ecd8230b" y="225.113807"/>
      </g>
     </g>
     <g id="text_8">
      <!-- 0.02 -->
      <g transform="translate(28.334375 228.913025)scale(0.1 -0.1)">
       <use xlink:href="#DejaVuSans-48"/>
       <use x="63.623047" xlink:href="#DejaVuSans-46"/>
       <use x="95.410156" xlink:href="#DejaVuSans-48"/>
       <use x="159.033203" xlink:href="#DejaVuSans-50"/>
      </g>
     </g>
    </g>
    <g id="ytick_4">
     <g id="line2d_8">
      <g>
       <use style="stroke:#000000;stroke-width:0.8;" x="57.6" xlink:href="#m19ecd8230b" y="183.87871"/>
      </g>
     </g>
     <g id="text_9">
      <!-- 0.03 -->
      <g transform="translate(28.334375 187.677929)scale(0.1 -0.1)">
       <use xlink:href="#DejaVuSans-48"/>
       <use x="63.623047" xlink:href="#DejaVuSans-46"/>
       <use x="95.410156" xlink:href="#DejaVuSans-48"/>
       <use x="159.033203" xlink:href="#DejaVuSans-51"/>
      </g>
     </g>
    </g>
    <g id="ytick_5">
     <g id="line2d_9">
      <g>
       <use style="stroke:#000000;stroke-width:0.8;" x="57.6" xlink:href="#m19ecd8230b" y="142.643613"/>
      </g>
     </g>
     <g id="text_10">
      <!-- 0.04 -->
      <g transform="translate(28.334375 146.442832)scale(0.1 -0.1)">
       <use xlink:href="#DejaVuSans-48"/>
       <use x="63.623047" xlink:href="#DejaVuSans-46"/>
       <use x="95.410156" xlink:href="#DejaVuSans-48"/>
       <use x="159.033203" xlink:href="#DejaVuSans-52"/>
      </g>
     </g>
    </g>
    <g id="ytick_6">
     <g id="line2d_10">
      <g>
       <use style="stroke:#000000;stroke-width:0.8;" x="57.6" xlink:href="#m19ecd8230b" y="101.408516"/>
      </g>
     </g>
     <g id="text_11">
      <!-- 0.05 -->
      <defs>
       <path d="M 10.796875 72.90625 
L 49.515625 72.90625 
L 49.515625 64.59375 
L 19.828125 64.59375 
L 19.828125 46.734375 
Q 21.96875 47.46875 24.109375 47.828125 
Q 26.265625 48.1875 28.421875 48.1875 
Q 40.625 48.1875 47.75 41.5 
Q 54.890625 34.8125 54.890625 23.390625 
Q 54.890625 11.625 47.5625 5.09375 
Q 40.234375 -1.421875 26.90625 -1.421875 
Q 22.3125 -1.421875 17.546875 -0.640625 
Q 12.796875 0.140625 7.71875 1.703125 
L 7.71875 11.625 
Q 12.109375 9.234375 16.796875 8.0625 
Q 21.484375 6.890625 26.703125 6.890625 
Q 35.15625 6.890625 40.078125 11.328125 
Q 45.015625 15.765625 45.015625 23.390625 
Q 45.015625 31 40.078125 35.4375 
Q 35.15625 39.890625 26.703125 39.890625 
Q 22.75 39.890625 18.8125 39.015625 
Q 14.890625 38.140625 10.796875 36.28125 
z
" id="DejaVuSans-53"/>
      </defs>
      <g transform="translate(28.334375 105.207735)scale(0.1 -0.1)">
       <use xlink:href="#DejaVuSans-48"/>
       <use x="63.623047" xlink:href="#DejaVuSans-46"/>
       <use x="95.410156" xlink:href="#DejaVuSans-48"/>
       <use x="159.033203" xlink:href="#DejaVuSans-53"/>
      </g>
     </g>
    </g>
    <g id="ytick_7">
     <g id="line2d_11">
      <g>
       <use style="stroke:#000000;stroke-width:0.8;" x="57.6" xlink:href="#m19ecd8230b" y="60.17342"/>
      </g>
     </g>
     <g id="text_12">
      <!-- 0.06 -->
      <defs>
       <path d="M 33.015625 40.375 
Q 26.375 40.375 22.484375 35.828125 
Q 18.609375 31.296875 18.609375 23.390625 
Q 18.609375 15.53125 22.484375 10.953125 
Q 26.375 6.390625 33.015625 6.390625 
Q 39.65625 6.390625 43.53125 10.953125 
Q 47.40625 15.53125 47.40625 23.390625 
Q 47.40625 31.296875 43.53125 35.828125 
Q 39.65625 40.375 33.015625 40.375 
z
M 52.59375 71.296875 
L 52.59375 62.3125 
Q 48.875 64.0625 45.09375 64.984375 
Q 41.3125 65.921875 37.59375 65.921875 
Q 27.828125 65.921875 22.671875 59.328125 
Q 17.53125 52.734375 16.796875 39.40625 
Q 19.671875 43.65625 24.015625 45.921875 
Q 28.375 48.1875 33.59375 48.1875 
Q 44.578125 48.1875 50.953125 41.515625 
Q 57.328125 34.859375 57.328125 23.390625 
Q 57.328125 12.15625 50.6875 5.359375 
Q 44.046875 -1.421875 33.015625 -1.421875 
Q 20.359375 -1.421875 13.671875 8.265625 
Q 6.984375 17.96875 6.984375 36.375 
Q 6.984375 53.65625 15.1875 63.9375 
Q 23.390625 74.21875 37.203125 74.21875 
Q 40.921875 74.21875 44.703125 73.484375 
Q 48.484375 72.75 52.59375 71.296875 
z
" id="DejaVuSans-54"/>
      </defs>
      <g transform="translate(28.334375 63.972638)scale(0.1 -0.1)">
       <use xlink:href="#DejaVuSans-48"/>
       <use x="63.623047" xlink:href="#DejaVuSans-46"/>
       <use x="95.410156" xlink:href="#DejaVuSans-48"/>
       <use x="159.033203" xlink:href="#DejaVuSans-54"/>
      </g>
     </g>
    </g>
   </g>
   <g id="patch_5">
    <path d="M 57.6 307.584 
L 57.6 41.472 
" style="fill:none;stroke:#000000;stroke-linecap:square;stroke-linejoin:miter;stroke-width:0.8;"/>
   </g>
   <g id="patch_6">
    <path d="M 219.927273 307.584 
L 219.927273 41.472 
" style="fill:none;stroke:#000000;stroke-linecap:square;stroke-linejoin:miter;stroke-width:0.8;"/>
   </g>
   <g id="patch_7">
    <path d="M 57.6 307.584 
L 219.927273 307.584 
" style="fill:none;stroke:#000000;stroke-linecap:square;stroke-linejoin:miter;stroke-width:0.8;"/>
   </g>
   <g id="patch_8">
    <path d="M 57.6 41.472 
L 219.927273 41.472 
" style="fill:none;stroke:#000000;stroke-linecap:square;stroke-linejoin:miter;stroke-width:0.8;"/>
   </g>
   <g id="legend_1">
    <g id="patch_9">
     <path d="M 76.217898 78.82825 
L 212.927273 78.82825 
Q 214.927273 78.82825 214.927273 76.82825 
L 214.927273 48.472 
Q 214.927273 46.472 212.927273 46.472 
L 76.217898 46.472 
Q 74.217898 46.472 74.217898 48.472 
L 74.217898 76.82825 
Q 74.217898 78.82825 76.217898 78.82825 
z
" style="fill:#ffffff;opacity:0.8;stroke:#cccccc;stroke-linejoin:miter;"/>
    </g>
    <g id="patch_10">
     <path d="M 78.217898 58.070437 
L 98.217898 58.070437 
L 98.217898 51.070437 
L 78.217898 51.070437 
z
" style="fill:none;opacity:0.4;stroke:#1f77b4;stroke-linejoin:miter;stroke-width:3;"/>
    </g>
    <g id="text_13">
     <!-- Prior distribution -->
     <defs>
      <path d="M 19.671875 64.796875 
L 19.671875 37.40625 
L 32.078125 37.40625 
Q 38.96875 37.40625 42.71875 40.96875 
Q 46.484375 44.53125 46.484375 51.125 
Q 46.484375 57.671875 42.71875 61.234375 
Q 38.96875 64.796875 32.078125 64.796875 
z
M 9.8125 72.90625 
L 32.078125 72.90625 
Q 44.34375 72.90625 50.609375 67.359375 
Q 56.890625 61.8125 56.890625 51.125 
Q 56.890625 40.328125 50.609375 34.8125 
Q 44.34375 29.296875 32.078125 29.296875 
L 19.671875 29.296875 
L 19.671875 0 
L 9.8125 0 
z
" id="DejaVuSans-80"/>
      <path d="M 41.109375 46.296875 
Q 39.59375 47.171875 37.8125 47.578125 
Q 36.03125 48 33.890625 48 
Q 26.265625 48 22.1875 43.046875 
Q 18.109375 38.09375 18.109375 28.8125 
L 18.109375 0 
L 9.078125 0 
L 9.078125 54.6875 
L 18.109375 54.6875 
L 18.109375 46.1875 
Q 20.953125 51.171875 25.484375 53.578125 
Q 30.03125 56 36.53125 56 
Q 37.453125 56 38.578125 55.875 
Q 39.703125 55.765625 41.0625 55.515625 
z
" id="DejaVuSans-114"/>
      <path d="M 9.421875 54.6875 
L 18.40625 54.6875 
L 18.40625 0 
L 9.421875 0 
z
M 9.421875 75.984375 
L 18.40625 75.984375 
L 18.40625 64.59375 
L 9.421875 64.59375 
z
" id="DejaVuSans-105"/>
      <path d="M 30.609375 48.390625 
Q 23.390625 48.390625 19.1875 42.75 
Q 14.984375 37.109375 14.984375 27.296875 
Q 14.984375 17.484375 19.15625 11.84375 
Q 23.34375 6.203125 30.609375 6.203125 
Q 37.796875 6.203125 41.984375 11.859375 
Q 46.1875 17.53125 46.1875 27.296875 
Q 46.1875 37.015625 41.984375 42.703125 
Q 37.796875 48.390625 30.609375 48.390625 
z
M 30.609375 56 
Q 42.328125 56 49.015625 48.375 
Q 55.71875 40.765625 55.71875 27.296875 
Q 55.71875 13.875 49.015625 6.21875 
Q 42.328125 -1.421875 30.609375 -1.421875 
Q 18.84375 -1.421875 12.171875 6.21875 
Q 5.515625 13.875 5.515625 27.296875 
Q 5.515625 40.765625 12.171875 48.375 
Q 18.84375 56 30.609375 56 
z
" id="DejaVuSans-111"/>
      <path id="DejaVuSans-32"/>
      <path d="M 45.40625 46.390625 
L 45.40625 75.984375 
L 54.390625 75.984375 
L 54.390625 0 
L 45.40625 0 
L 45.40625 8.203125 
Q 42.578125 3.328125 38.25 0.953125 
Q 33.9375 -1.421875 27.875 -1.421875 
Q 17.96875 -1.421875 11.734375 6.484375 
Q 5.515625 14.40625 5.515625 27.296875 
Q 5.515625 40.1875 11.734375 48.09375 
Q 17.96875 56 27.875 56 
Q 33.9375 56 38.25 53.625 
Q 42.578125 51.265625 45.40625 46.390625 
z
M 14.796875 27.296875 
Q 14.796875 17.390625 18.875 11.75 
Q 22.953125 6.109375 30.078125 6.109375 
Q 37.203125 6.109375 41.296875 11.75 
Q 45.40625 17.390625 45.40625 27.296875 
Q 45.40625 37.203125 41.296875 42.84375 
Q 37.203125 48.484375 30.078125 48.484375 
Q 22.953125 48.484375 18.875 42.84375 
Q 14.796875 37.203125 14.796875 27.296875 
z
" id="DejaVuSans-100"/>
      <path d="M 44.28125 53.078125 
L 44.28125 44.578125 
Q 40.484375 46.53125 36.375 47.5 
Q 32.28125 48.484375 27.875 48.484375 
Q 21.1875 48.484375 17.84375 46.4375 
Q 14.5 44.390625 14.5 40.28125 
Q 14.5 37.15625 16.890625 35.375 
Q 19.28125 33.59375 26.515625 31.984375 
L 29.59375 31.296875 
Q 39.15625 29.25 43.1875 25.515625 
Q 47.21875 21.78125 47.21875 15.09375 
Q 47.21875 7.46875 41.1875 3.015625 
Q 35.15625 -1.421875 24.609375 -1.421875 
Q 20.21875 -1.421875 15.453125 -0.5625 
Q 10.6875 0.296875 5.421875 2 
L 5.421875 11.28125 
Q 10.40625 8.6875 15.234375 7.390625 
Q 20.0625 6.109375 24.8125 6.109375 
Q 31.15625 6.109375 34.5625 8.28125 
Q 37.984375 10.453125 37.984375 14.40625 
Q 37.984375 18.0625 35.515625 20.015625 
Q 33.0625 21.96875 24.703125 23.78125 
L 21.578125 24.515625 
Q 13.234375 26.265625 9.515625 29.90625 
Q 5.8125 33.546875 5.8125 39.890625 
Q 5.8125 47.609375 11.28125 51.796875 
Q 16.75 56 26.8125 56 
Q 31.78125 56 36.171875 55.265625 
Q 40.578125 54.546875 44.28125 53.078125 
z
" id="DejaVuSans-115"/>
      <path d="M 18.3125 70.21875 
L 18.3125 54.6875 
L 36.8125 54.6875 
L 36.8125 47.703125 
L 18.3125 47.703125 
L 18.3125 18.015625 
Q 18.3125 11.328125 20.140625 9.421875 
Q 21.96875 7.515625 27.59375 7.515625 
L 36.8125 7.515625 
L 36.8125 0 
L 27.59375 0 
Q 17.1875 0 13.234375 3.875 
Q 9.28125 7.765625 9.28125 18.015625 
L 9.28125 47.703125 
L 2.6875 47.703125 
L 2.6875 54.6875 
L 9.28125 54.6875 
L 9.28125 70.21875 
z
" id="DejaVuSans-116"/>
      <path d="M 48.6875 27.296875 
Q 48.6875 37.203125 44.609375 42.84375 
Q 40.53125 48.484375 33.40625 48.484375 
Q 26.265625 48.484375 22.1875 42.84375 
Q 18.109375 37.203125 18.109375 27.296875 
Q 18.109375 17.390625 22.1875 11.75 
Q 26.265625 6.109375 33.40625 6.109375 
Q 40.53125 6.109375 44.609375 11.75 
Q 48.6875 17.390625 48.6875 27.296875 
z
M 18.109375 46.390625 
Q 20.953125 51.265625 25.265625 53.625 
Q 29.59375 56 35.59375 56 
Q 45.5625 56 51.78125 48.09375 
Q 58.015625 40.1875 58.015625 27.296875 
Q 58.015625 14.40625 51.78125 6.484375 
Q 45.5625 -1.421875 35.59375 -1.421875 
Q 29.59375 -1.421875 25.265625 0.953125 
Q 20.953125 3.328125 18.109375 8.203125 
L 18.109375 0 
L 9.078125 0 
L 9.078125 75.984375 
L 18.109375 75.984375 
z
" id="DejaVuSans-98"/>
      <path d="M 8.5 21.578125 
L 8.5 54.6875 
L 17.484375 54.6875 
L 17.484375 21.921875 
Q 17.484375 14.15625 20.5 10.265625 
Q 23.53125 6.390625 29.59375 6.390625 
Q 36.859375 6.390625 41.078125 11.03125 
Q 45.3125 15.671875 45.3125 23.6875 
L 45.3125 54.6875 
L 54.296875 54.6875 
L 54.296875 0 
L 45.3125 0 
L 45.3125 8.40625 
Q 42.046875 3.421875 37.71875 1 
Q 33.40625 -1.421875 27.6875 -1.421875 
Q 18.265625 -1.421875 13.375 4.4375 
Q 8.5 10.296875 8.5 21.578125 
z
M 31.109375 56 
z
" id="DejaVuSans-117"/>
      <path d="M 54.890625 33.015625 
L 54.890625 0 
L 45.90625 0 
L 45.90625 32.71875 
Q 45.90625 40.484375 42.875 44.328125 
Q 39.84375 48.1875 33.796875 48.1875 
Q 26.515625 48.1875 22.3125 43.546875 
Q 18.109375 38.921875 18.109375 30.90625 
L 18.109375 0 
L 9.078125 0 
L 9.078125 54.6875 
L 18.109375 54.6875 
L 18.109375 46.1875 
Q 21.34375 51.125 25.703125 53.5625 
Q 30.078125 56 35.796875 56 
Q 45.21875 56 50.046875 50.171875 
Q 54.890625 44.34375 54.890625 33.015625 
z
" id="DejaVuSans-110"/>
     </defs>
     <g transform="translate(106.217898 58.070437)scale(0.1 -0.1)">
      <use xlink:href="#DejaVuSans-80"/>
      <use x="60.287109" xlink:href="#DejaVuSans-114"/>
      <use x="101.400391" xlink:href="#DejaVuSans-105"/>
      <use x="129.183594" xlink:href="#DejaVuSans-111"/>
      <use x="190.365234" xlink:href="#DejaVuSans-114"/>
      <use x="231.478516" xlink:href="#DejaVuSans-32"/>
      <use x="263.265625" xlink:href="#DejaVuSans-100"/>
      <use x="326.742188" xlink:href="#DejaVuSans-105"/>
      <use x="354.525391" xlink:href="#DejaVuSans-115"/>
      <use x="406.625" xlink:href="#DejaVuSans-116"/>
      <use x="445.833984" xlink:href="#DejaVuSans-114"/>
      <use x="486.947266" xlink:href="#DejaVuSans-105"/>
      <use x="514.730469" xlink:href="#DejaVuSans-98"/>
      <use x="578.207031" xlink:href="#DejaVuSans-117"/>
      <use x="641.585938" xlink:href="#DejaVuSans-116"/>
      <use x="680.794922" xlink:href="#DejaVuSans-105"/>
      <use x="708.578125" xlink:href="#DejaVuSans-111"/>
      <use x="769.759766" xlink:href="#DejaVuSans-110"/>
     </g>
    </g>
    <g id="patch_11">
     <path d="M 78.217898 72.748562 
L 98.217898 72.748562 
L 98.217898 65.748562 
L 78.217898 65.748562 
z
" style="fill:none;opacity:0.4;stroke:#ff7f0e;stroke-linejoin:miter;stroke-width:3;"/>
    </g>
    <g id="text_14">
     <!-- Posterior distribution -->
     <defs>
      <path d="M 56.203125 29.59375 
L 56.203125 25.203125 
L 14.890625 25.203125 
Q 15.484375 15.921875 20.484375 11.0625 
Q 25.484375 6.203125 34.421875 6.203125 
Q 39.59375 6.203125 44.453125 7.46875 
Q 49.3125 8.734375 54.109375 11.28125 
L 54.109375 2.78125 
Q 49.265625 0.734375 44.1875 -0.34375 
Q 39.109375 -1.421875 33.890625 -1.421875 
Q 20.796875 -1.421875 13.15625 6.1875 
Q 5.515625 13.8125 5.515625 26.8125 
Q 5.515625 40.234375 12.765625 48.109375 
Q 20.015625 56 32.328125 56 
Q 43.359375 56 49.78125 48.890625 
Q 56.203125 41.796875 56.203125 29.59375 
z
M 47.21875 32.234375 
Q 47.125 39.59375 43.09375 43.984375 
Q 39.0625 48.390625 32.421875 48.390625 
Q 24.90625 48.390625 20.390625 44.140625 
Q 15.875 39.890625 15.1875 32.171875 
z
" id="DejaVuSans-101"/>
     </defs>
     <g transform="translate(106.217898 72.748562)scale(0.1 -0.1)">
      <use xlink:href="#DejaVuSans-80"/>
      <use x="60.255859" xlink:href="#DejaVuSans-111"/>
      <use x="121.4375" xlink:href="#DejaVuSans-115"/>
      <use x="173.537109" xlink:href="#DejaVuSans-116"/>
      <use x="212.746094" xlink:href="#DejaVuSans-101"/>
      <use x="274.269531" xlink:href="#DejaVuSans-114"/>
      <use x="315.382812" xlink:href="#DejaVuSans-105"/>
      <use x="343.166016" xlink:href="#DejaVuSans-111"/>
      <use x="404.347656" xlink:href="#DejaVuSans-114"/>
      <use x="445.460938" xlink:href="#DejaVuSans-32"/>
      <use x="477.248047" xlink:href="#DejaVuSans-100"/>
      <use x="540.724609" xlink:href="#DejaVuSans-105"/>
      <use x="568.507812" xlink:href="#DejaVuSans-115"/>
      <use x="620.607422" xlink:href="#DejaVuSans-116"/>
      <use x="659.816406" xlink:href="#DejaVuSans-114"/>
      <use x="700.929688" xlink:href="#DejaVuSans-105"/>
      <use x="728.712891" xlink:href="#DejaVuSans-98"/>
      <use x="792.189453" xlink:href="#DejaVuSans-117"/>
      <use x="855.568359" xlink:href="#DejaVuSans-116"/>
      <use x="894.777344" xlink:href="#DejaVuSans-105"/>
      <use x="922.560547" xlink:href="#DejaVuSans-111"/>
      <use x="983.742188" xlink:href="#DejaVuSans-110"/>
     </g>
    </g>
   </g>
  </g>
  <g id="axes_2">
   <g id="patch_12">
    <path d="M 252.392727 307.584 
L 414.72 307.584 
L 414.72 41.472 
L 252.392727 41.472 
z
" style="fill:#ffffff;"/>
   </g>
   <g id="patch_13">
    <path clip-path="url(#p79a2c902f1)" d="M 278.215727 307.584 
L 278.215727 307.470705 
L 283.072239 307.470705 
L 283.072239 307.244116 
L 287.92875 307.244116 
L 287.92875 307.187469 
L 292.785262 307.187469 
L 292.785262 307.074174 
L 297.641774 307.074174 
L 297.641774 307.074174 
L 302.498285 307.074174 
L 302.498285 306.620996 
L 307.354797 306.620996 
L 307.354797 306.11117 
L 312.211309 306.11117 
L 312.211309 305.431403 
L 317.06782 305.431403 
L 317.06782 303.731984 
L 321.924332 303.731984 
L 321.924332 295.404831 
L 326.780844 295.404831 
L 326.780844 230.71362 
L 331.637355 230.71362 
L 331.637355 54.144 
L 336.493867 54.144 
L 336.493867 259.717035 
L 341.350379 259.717035 
L 341.350379 297.33084 
L 346.20689 297.33084 
L 346.20689 301.522739 
L 351.063402 301.522739 
L 351.063402 302.599038 
L 355.919914 302.599038 
L 355.919914 304.298457 
L 360.776426 304.298457 
L 360.776426 304.808283 
L 365.632937 304.808283 
L 365.632937 305.374755 
L 370.489449 305.374755 
L 370.489449 305.941228 
L 375.345961 305.941228 
L 375.345961 306.507701 
L 380.202472 306.507701 
L 380.202472 305.884581 
L 385.058984 305.884581 
L 385.058984 306.11117 
L 389.915496 306.11117 
L 389.915496 306.337759 
L 394.772007 306.337759 
L 394.772007 306.224465 
L 399.628519 306.224465 
L 399.628519 306.847585 
L 404.485031 306.847585 
L 404.485031 306.677643 
L 409.341542 306.677643 
L 409.341542 306.790938 
L 414.198054 306.790938 
L 414.198054 306.564349 
L 419.054566 306.564349 
L 419.054566 306.337759 
L 423.911077 306.337759 
L 423.911077 307.584 
" style="fill:none;opacity:0.4;stroke:#1f77b4;stroke-linejoin:miter;stroke-width:3;"/>
   </g>
   <g id="patch_14">
    <path clip-path="url(#p79a2c902f1)" d="M 258.716725 307.584 
L 258.716725 307.492861 
L 264.755357 307.492861 
L 264.755357 307.584 
L 270.793989 307.584 
L 270.793989 307.401721 
L 276.832621 307.401721 
L 276.832621 307.356152 
L 282.871254 307.356152 
L 282.871254 307.173873 
L 288.909886 307.173873 
L 288.909886 306.900455 
L 294.948518 306.900455 
L 294.948518 306.854885 
L 300.98715 306.854885 
L 300.98715 306.672606 
L 307.025782 306.672606 
L 307.025782 306.262479 
L 313.064414 306.262479 
L 313.064414 305.897922 
L 319.103046 305.897922 
L 319.103046 301.887789 
L 325.141679 301.887789 
L 325.141679 254.039621 
L 331.180311 254.039621 
L 331.180311 79.917859 
L 337.218943 79.917859 
L 337.218943 273.224458 
L 343.257575 273.224458 
L 343.257575 302.480195 
L 349.296207 302.480195 
L 349.296207 304.302983 
L 355.334839 304.302983 
L 355.334839 303.346019 
L 361.373471 303.346019 
L 361.373471 304.576401 
L 367.412103 304.576401 
L 367.412103 304.621971 
L 373.450736 304.621971 
L 373.450736 305.168807 
L 379.489368 305.168807 
L 379.489368 305.032098 
L 385.528 305.032098 
L 385.528 305.351085 
L 391.566632 305.351085 
L 391.566632 306.308049 
L 397.605264 306.308049 
L 397.605264 306.854885 
L 403.643896 306.854885 
L 403.643896 307.128303 
L 409.682528 307.128303 
L 409.682528 307.310582 
L 415.72116 307.310582 
L 415.72116 307.356152 
L 421.759793 307.356152 
L 421.759793 307.492861 
L 427.798425 307.492861 
L 427.798425 307.401721 
L 433.837057 307.401721 
L 433.837057 307.492861 
L 439.875689 307.492861 
L 439.875689 307.584 
" style="fill:none;opacity:0.4;stroke:#ff7f0e;stroke-linejoin:miter;stroke-width:3;"/>
   </g>
   <g id="matplotlib.axis_3">
    <g id="xtick_5">
     <g id="line2d_12">
      <g>
       <use style="stroke:#000000;stroke-width:0.8;" x="279.447273" xlink:href="#m21f50fbabc" y="307.584"/>
      </g>
     </g>
     <g id="text_15">
      <!-- −20 -->
      <defs>
       <path d="M 10.59375 35.5 
L 73.1875 35.5 
L 73.1875 27.203125 
L 10.59375 27.203125 
z
" id="DejaVuSans-8722"/>
      </defs>
      <g transform="translate(268.894929 322.182437)scale(0.1 -0.1)">
       <use xlink:href="#DejaVuSans-8722"/>
       <use x="83.789062" xlink:href="#DejaVuSans-50"/>
       <use x="147.412109" xlink:href="#DejaVuSans-48"/>
      </g>
     </g>
    </g>
    <g id="xtick_6">
     <g id="line2d_13">
      <g>
       <use style="stroke:#000000;stroke-width:0.8;" x="333.556364" xlink:href="#m21f50fbabc" y="307.584"/>
      </g>
     </g>
     <g id="text_16">
      <!-- 0 -->
      <g transform="translate(330.375114 322.182437)scale(0.1 -0.1)">
       <use xlink:href="#DejaVuSans-48"/>
      </g>
     </g>
    </g>
    <g id="xtick_7">
     <g id="line2d_14">
      <g>
       <use style="stroke:#000000;stroke-width:0.8;" x="387.665455" xlink:href="#m21f50fbabc" y="307.584"/>
      </g>
     </g>
     <g id="text_17">
      <!-- 20 -->
      <g transform="translate(381.302955 322.182437)scale(0.1 -0.1)">
       <use xlink:href="#DejaVuSans-50"/>
       <use x="63.623047" xlink:href="#DejaVuSans-48"/>
      </g>
     </g>
    </g>
    <g id="text_18">
     <!-- dx -->
     <g transform="translate(327.42277 335.860562)scale(0.1 -0.1)">
      <use xlink:href="#DejaVuSans-100"/>
      <use x="63.476562" xlink:href="#DejaVuSans-120"/>
     </g>
    </g>
   </g>
   <g id="matplotlib.axis_4">
    <g id="ytick_8">
     <g id="line2d_15">
      <g>
       <use style="stroke:#000000;stroke-width:0.8;" x="252.392727" xlink:href="#m19ecd8230b" y="307.584"/>
      </g>
     </g>
     <g id="text_19">
      <!-- 0.00 -->
      <g transform="translate(223.127102 311.383219)scale(0.1 -0.1)">
       <use xlink:href="#DejaVuSans-48"/>
       <use x="63.623047" xlink:href="#DejaVuSans-46"/>
       <use x="95.410156" xlink:href="#DejaVuSans-48"/>
       <use x="159.033203" xlink:href="#DejaVuSans-48"/>
      </g>
     </g>
    </g>
    <g id="ytick_9">
     <g id="line2d_16">
      <g>
       <use style="stroke:#000000;stroke-width:0.8;" x="252.392727" xlink:href="#m19ecd8230b" y="267.783897"/>
      </g>
     </g>
     <g id="text_20">
      <!-- 0.05 -->
      <g transform="translate(223.127102 271.583116)scale(0.1 -0.1)">
       <use xlink:href="#DejaVuSans-48"/>
       <use x="63.623047" xlink:href="#DejaVuSans-46"/>
       <use x="95.410156" xlink:href="#DejaVuSans-48"/>
       <use x="159.033203" xlink:href="#DejaVuSans-53"/>
      </g>
     </g>
    </g>
    <g id="ytick_10">
     <g id="line2d_17">
      <g>
       <use style="stroke:#000000;stroke-width:0.8;" x="252.392727" xlink:href="#m19ecd8230b" y="227.983794"/>
      </g>
     </g>
     <g id="text_21">
      <!-- 0.10 -->
      <g transform="translate(223.127102 231.783013)scale(0.1 -0.1)">
       <use xlink:href="#DejaVuSans-48"/>
       <use x="63.623047" xlink:href="#DejaVuSans-46"/>
       <use x="95.410156" xlink:href="#DejaVuSans-49"/>
       <use x="159.033203" xlink:href="#DejaVuSans-48"/>
      </g>
     </g>
    </g>
    <g id="ytick_11">
     <g id="line2d_18">
      <g>
       <use style="stroke:#000000;stroke-width:0.8;" x="252.392727" xlink:href="#m19ecd8230b" y="188.183691"/>
      </g>
     </g>
     <g id="text_22">
      <!-- 0.15 -->
      <g transform="translate(223.127102 191.98291)scale(0.1 -0.1)">
       <use xlink:href="#DejaVuSans-48"/>
       <use x="63.623047" xlink:href="#DejaVuSans-46"/>
       <use x="95.410156" xlink:href="#DejaVuSans-49"/>
       <use x="159.033203" xlink:href="#DejaVuSans-53"/>
      </g>
     </g>
    </g>
    <g id="ytick_12">
     <g id="line2d_19">
      <g>
       <use style="stroke:#000000;stroke-width:0.8;" x="252.392727" xlink:href="#m19ecd8230b" y="148.383588"/>
      </g>
     </g>
     <g id="text_23">
      <!-- 0.20 -->
      <g transform="translate(223.127102 152.182806)scale(0.1 -0.1)">
       <use xlink:href="#DejaVuSans-48"/>
       <use x="63.623047" xlink:href="#DejaVuSans-46"/>
       <use x="95.410156" xlink:href="#DejaVuSans-50"/>
       <use x="159.033203" xlink:href="#DejaVuSans-48"/>
      </g>
     </g>
    </g>
    <g id="ytick_13">
     <g id="line2d_20">
      <g>
       <use style="stroke:#000000;stroke-width:0.8;" x="252.392727" xlink:href="#m19ecd8230b" y="108.583485"/>
      </g>
     </g>
     <g id="text_24">
      <!-- 0.25 -->
      <g transform="translate(223.127102 112.382703)scale(0.1 -0.1)">
       <use xlink:href="#DejaVuSans-48"/>
       <use x="63.623047" xlink:href="#DejaVuSans-46"/>
       <use x="95.410156" xlink:href="#DejaVuSans-50"/>
       <use x="159.033203" xlink:href="#DejaVuSans-53"/>
      </g>
     </g>
    </g>
    <g id="ytick_14">
     <g id="line2d_21">
      <g>
       <use style="stroke:#000000;stroke-width:0.8;" x="252.392727" xlink:href="#m19ecd8230b" y="68.783382"/>
      </g>
     </g>
     <g id="text_25">
      <!-- 0.30 -->
      <g transform="translate(223.127102 72.5826)scale(0.1 -0.1)">
       <use xlink:href="#DejaVuSans-48"/>
       <use x="63.623047" xlink:href="#DejaVuSans-46"/>
       <use x="95.410156" xlink:href="#DejaVuSans-51"/>
       <use x="159.033203" xlink:href="#DejaVuSans-48"/>
      </g>
     </g>
    </g>
   </g>
   <g id="patch_15">
    <path d="M 252.392727 307.584 
L 252.392727 41.472 
" style="fill:none;stroke:#000000;stroke-linecap:square;stroke-linejoin:miter;stroke-width:0.8;"/>
   </g>
   <g id="patch_16">
    <path d="M 414.72 307.584 
L 414.72 41.472 
" style="fill:none;stroke:#000000;stroke-linecap:square;stroke-linejoin:miter;stroke-width:0.8;"/>
   </g>
   <g id="patch_17">
    <path d="M 252.392727 307.584 
L 414.72 307.584 
" style="fill:none;stroke:#000000;stroke-linecap:square;stroke-linejoin:miter;stroke-width:0.8;"/>
   </g>
   <g id="patch_18">
    <path d="M 252.392727 41.472 
L 414.72 41.472 
" style="fill:none;stroke:#000000;stroke-linecap:square;stroke-linejoin:miter;stroke-width:0.8;"/>
   </g>
   <g id="legend_2">
    <g id="patch_19">
     <path d="M 271.010625 78.82825 
L 407.72 78.82825 
Q 409.72 78.82825 409.72 76.82825 
L 409.72 48.472 
Q 409.72 46.472 407.72 46.472 
L 271.010625 46.472 
Q 269.010625 46.472 269.010625 48.472 
L 269.010625 76.82825 
Q 269.010625 78.82825 271.010625 78.82825 
z
" style="fill:#ffffff;opacity:0.8;stroke:#cccccc;stroke-linejoin:miter;"/>
    </g>
    <g id="patch_20">
     <path d="M 273.010625 58.070437 
L 293.010625 58.070437 
L 293.010625 51.070437 
L 273.010625 51.070437 
z
" style="fill:none;opacity:0.4;stroke:#1f77b4;stroke-linejoin:miter;stroke-width:3;"/>
    </g>
    <g id="text_26">
     <!-- Prior distribution -->
     <g transform="translate(301.010625 58.070437)scale(0.1 -0.1)">
      <use xlink:href="#DejaVuSans-80"/>
      <use x="60.287109" xlink:href="#DejaVuSans-114"/>
      <use x="101.400391" xlink:href="#DejaVuSans-105"/>
      <use x="129.183594" xlink:href="#DejaVuSans-111"/>
      <use x="190.365234" xlink:href="#DejaVuSans-114"/>
      <use x="231.478516" xlink:href="#DejaVuSans-32"/>
      <use x="263.265625" xlink:href="#DejaVuSans-100"/>
      <use x="326.742188" xlink:href="#DejaVuSans-105"/>
      <use x="354.525391" xlink:href="#DejaVuSans-115"/>
      <use x="406.625" xlink:href="#DejaVuSans-116"/>
      <use x="445.833984" xlink:href="#DejaVuSans-114"/>
      <use x="486.947266" xlink:href="#DejaVuSans-105"/>
      <use x="514.730469" xlink:href="#DejaVuSans-98"/>
      <use x="578.207031" xlink:href="#DejaVuSans-117"/>
      <use x="641.585938" xlink:href="#DejaVuSans-116"/>
      <use x="680.794922" xlink:href="#DejaVuSans-105"/>
      <use x="708.578125" xlink:href="#DejaVuSans-111"/>
      <use x="769.759766" xlink:href="#DejaVuSans-110"/>
     </g>
    </g>
    <g id="patch_21">
     <path d="M 273.010625 72.748562 
L 293.010625 72.748562 
L 293.010625 65.748562 
L 273.010625 65.748562 
z
" style="fill:none;opacity:0.4;stroke:#ff7f0e;stroke-linejoin:miter;stroke-width:3;"/>
    </g>
    <g id="text_27">
     <!-- Posterior distribution -->
     <g transform="translate(301.010625 72.748562)scale(0.1 -0.1)">
      <use xlink:href="#DejaVuSans-80"/>
      <use x="60.255859" xlink:href="#DejaVuSans-111"/>
      <use x="121.4375" xlink:href="#DejaVuSans-115"/>
      <use x="173.537109" xlink:href="#DejaVuSans-116"/>
      <use x="212.746094" xlink:href="#DejaVuSans-101"/>
      <use x="274.269531" xlink:href="#DejaVuSans-114"/>
      <use x="315.382812" xlink:href="#DejaVuSans-105"/>
      <use x="343.166016" xlink:href="#DejaVuSans-111"/>
      <use x="404.347656" xlink:href="#DejaVuSans-114"/>
      <use x="445.460938" xlink:href="#DejaVuSans-32"/>
      <use x="477.248047" xlink:href="#DejaVuSans-100"/>
      <use x="540.724609" xlink:href="#DejaVuSans-105"/>
      <use x="568.507812" xlink:href="#DejaVuSans-115"/>
      <use x="620.607422" xlink:href="#DejaVuSans-116"/>
      <use x="659.816406" xlink:href="#DejaVuSans-114"/>
      <use x="700.929688" xlink:href="#DejaVuSans-105"/>
      <use x="728.712891" xlink:href="#DejaVuSans-98"/>
      <use x="792.189453" xlink:href="#DejaVuSans-117"/>
      <use x="855.568359" xlink:href="#DejaVuSans-116"/>
      <use x="894.777344" xlink:href="#DejaVuSans-105"/>
      <use x="922.560547" xlink:href="#DejaVuSans-111"/>
      <use x="983.742188" xlink:href="#DejaVuSans-110"/>
     </g>
    </g>
   </g>
  </g>
 </g>
 <defs>
  <clipPath id="pc7f58117b4">
   <rect height="266.112" width="162.327273" x="57.6" y="41.472"/>
  </clipPath>
  <clipPath id="p79a2c902f1">
   <rect height="266.112" width="162.327273" x="252.392727" y="41.472"/>
  </clipPath>
 </defs>
</svg>
